<?xml version="1.0" encoding="UTF-8" standalone="no"?>
<!DOCTYPE svg PUBLIC "-//W3C//DTD SVG 1.1//EN"
 "http://www.w3.org/Graphics/SVG/1.1/DTD/svg11.dtd">
<!-- Generated by graphviz version 2.30.1 (20130214.1330)
 -->
<!-- Title: gestorempleados.interficie.Calendario.getAno Pages: 1 -->
<svg width="744pt" height="187pt"
 viewBox="0.00 0.00 744.00 187.00" xmlns="http://www.w3.org/2000/svg" xmlns:xlink="http://www.w3.org/1999/xlink">
<g id="graph0" class="graph" transform="scale(1 1) rotate(0) translate(4 183)">
<title>gestorempleados.interficie.Calendario.getAno</title>
<polygon fill="white" stroke="white" points="-4,5 -4,-183 741,-183 741,5 -4,5"/>
<!-- Node1 -->
<g id="node1" class="node"><title>Node1</title>
<polygon fill="#bfbfbf" stroke="black" points="0.5,-100 0.5,-130 133.5,-130 133.5,-100 0.5,-100"/>
<text text-anchor="start" x="8.5" y="-118" font-family="Helvetica,sans-Serif" font-size="10.00">gestorempleados.interficie.</text>
<text text-anchor="middle" x="67" y="-107" font-family="Helvetica,sans-Serif" font-size="10.00">Calendario.getAno</text>
</g>
<!-- Node2 -->
<g id="node2" class="node"><title>Node2</title>
<g id="a_node2"><a xlink:href="classgestorempleados_1_1interficie_1_1_panel___contrato.xhtml#a264a9147601b3066cc3ebf34329d19c5" target="_top" xlink:title="gestorempleados.interficie.\lPanel_Contrato.getFecha_inicio">
<polygon fill="white" stroke="black" points="174.5,-149 174.5,-179 329.5,-179 329.5,-149 174.5,-149"/>
<text text-anchor="start" x="182.5" y="-167" font-family="Helvetica,sans-Serif" font-size="10.00">gestorempleados.interficie.</text>
<text text-anchor="middle" x="252" y="-156" font-family="Helvetica,sans-Serif" font-size="10.00">Panel_Contrato.getFecha_inicio</text>
</a>
</g>
</g>
<!-- Node1&#45;&gt;Node2 -->
<g id="edge1" class="edge"><title>Node1&#45;&gt;Node2</title>
<path fill="none" stroke="midnightblue" d="M134.285,-132.748C154.119,-138.059 175.667,-143.829 194.787,-148.948"/>
<polygon fill="midnightblue" stroke="midnightblue" points="134.964,-129.307 124.399,-130.101 133.154,-136.069 134.964,-129.307"/>
</g>
<!-- Node9 -->
<g id="node9" class="node"><title>Node9</title>
<g id="a_node9"><a xlink:href="classgestorempleados_1_1interficie_1_1_panel___contrato.xhtml#aa4b4759187b79a0e721f00f61a0bec96" target="_top" xlink:title="gestorempleados.interficie.\lPanel_Contrato.getFecha_fin">
<polygon fill="white" stroke="black" points="181,-100 181,-130 323,-130 323,-100 181,-100"/>
<text text-anchor="start" x="189" y="-118" font-family="Helvetica,sans-Serif" font-size="10.00">gestorempleados.interficie.</text>
<text text-anchor="middle" x="252" y="-107" font-family="Helvetica,sans-Serif" font-size="10.00">Panel_Contrato.getFecha_fin</text>
</a>
</g>
</g>
<!-- Node1&#45;&gt;Node9 -->
<g id="edge8" class="edge"><title>Node1&#45;&gt;Node9</title>
<path fill="none" stroke="midnightblue" d="M143.779,-115C156.089,-115 168.791,-115 180.957,-115"/>
<polygon fill="midnightblue" stroke="midnightblue" points="143.55,-111.5 133.55,-115 143.55,-118.5 143.55,-111.5"/>
</g>
<!-- Node10 -->
<g id="node10" class="node"><title>Node10</title>
<g id="a_node10"><a xlink:href="classgestorempleados_1_1interficie_1_1_panel___datos_personales.xhtml#a149189f52c39a501a4d21181564c3a3a" target="_top" xlink:title="gestorempleados.interficie.\lPanel_DatosPersonales.getFecha\l_nacimiento">
<polygon fill="white" stroke="black" points="170,-39.5 170,-80.5 334,-80.5 334,-39.5 170,-39.5"/>
<text text-anchor="start" x="178" y="-68.5" font-family="Helvetica,sans-Serif" font-size="10.00">gestorempleados.interficie.</text>
<text text-anchor="start" x="178" y="-57.5" font-family="Helvetica,sans-Serif" font-size="10.00">Panel_DatosPersonales.getFecha</text>
<text text-anchor="middle" x="252" y="-46.5" font-family="Helvetica,sans-Serif" font-size="10.00">_nacimiento</text>
</a>
</g>
</g>
<!-- Node1&#45;&gt;Node10 -->
<g id="edge11" class="edge"><title>Node1&#45;&gt;Node10</title>
<path fill="none" stroke="midnightblue" d="M128.043,-96.9542C145.47,-91.7166 164.63,-85.9581 182.532,-80.5777"/>
<polygon fill="midnightblue" stroke="midnightblue" points="126.575,-93.7408 118.006,-99.971 128.59,-100.445 126.575,-93.7408"/>
</g>
<!-- Node3 -->
<g id="node3" class="node"><title>Node3</title>
<g id="a_node3"><a xlink:href="classgestorempleados_1_1control_1_1_negocio_cliente.xhtml#ac8ccee3f2bb015ca54c4a469d4b6b249" target="_top" xlink:title="gestorempleados.control.\lNegocioCliente.setEmpleado">
<polygon fill="white" stroke="black" points="388,-124 388,-154 530,-154 530,-124 388,-124"/>
<text text-anchor="start" x="396" y="-142" font-family="Helvetica,sans-Serif" font-size="10.00">gestorempleados.control.</text>
<text text-anchor="middle" x="459" y="-131" font-family="Helvetica,sans-Serif" font-size="10.00">NegocioCliente.setEmpleado</text>
</a>
</g>
</g>
<!-- Node2&#45;&gt;Node3 -->
<g id="edge2" class="edge"><title>Node2&#45;&gt;Node3</title>
<path fill="none" stroke="midnightblue" d="M339.576,-153.442C355.693,-151.476 372.348,-149.445 387.894,-147.549"/>
<polygon fill="midnightblue" stroke="midnightblue" points="339.129,-149.97 329.626,-154.655 339.976,-156.919 339.129,-149.97"/>
</g>
<!-- Node5 -->
<g id="node5" class="node"><title>Node5</title>
<g id="a_node5"><a xlink:href="classgestorempleados_1_1control_1_1_negocio_cliente.xhtml#a9636f9f7cd80e0eb68a18113fd3dd8ae" target="_top" xlink:title="gestorempleados.control.\lNegocioCliente.modifDatosEmpleado">
<polygon fill="white" stroke="black" points="370.5,-72 370.5,-102 547.5,-102 547.5,-72 370.5,-72"/>
<text text-anchor="start" x="378.5" y="-90" font-family="Helvetica,sans-Serif" font-size="10.00">gestorempleados.control.</text>
<text text-anchor="middle" x="459" y="-79" font-family="Helvetica,sans-Serif" font-size="10.00">NegocioCliente.modifDatosEmpleado</text>
</a>
</g>
</g>
<!-- Node2&#45;&gt;Node5 -->
<g id="edge4" class="edge"><title>Node2&#45;&gt;Node5</title>
<path fill="none" stroke="midnightblue" d="M318.669,-145.527C323.928,-143.507 329.099,-141.33 334,-139 351.368,-130.745 352.668,-123.33 370,-115 380.26,-110.069 391.597,-105.719 402.626,-102.008"/>
<polygon fill="midnightblue" stroke="midnightblue" points="317.344,-142.285 309.144,-148.993 319.738,-148.863 317.344,-142.285"/>
</g>
<!-- Node4 -->
<g id="node4" class="node"><title>Node4</title>
<g id="a_node4"><a xlink:href="classplugins_1_1_panel___alta.xhtml#a804926b94fa2f64e79032ded83f6b1e6" target="_top" xlink:title="plugins.Panel_Alta.crear\lPanel">
<polygon fill="white" stroke="black" points="599,-147 599,-177 721,-177 721,-147 599,-147"/>
<text text-anchor="start" x="607" y="-165" font-family="Helvetica,sans-Serif" font-size="10.00">plugins.Panel_Alta.crear</text>
<text text-anchor="middle" x="660" y="-154" font-family="Helvetica,sans-Serif" font-size="10.00">Panel</text>
</a>
</g>
</g>
<!-- Node3&#45;&gt;Node4 -->
<g id="edge3" class="edge"><title>Node3&#45;&gt;Node4</title>
<path fill="none" stroke="midnightblue" d="M540.253,-148.275C559.765,-150.531 580.304,-152.904 598.711,-155.032"/>
<polygon fill="midnightblue" stroke="midnightblue" points="540.496,-144.78 530.16,-147.109 539.692,-151.734 540.496,-144.78"/>
</g>
<!-- Node6 -->
<g id="node6" class="node"><title>Node6</title>
<g id="a_node6"><a xlink:href="classplugins_1_1_panel___consultas.xhtml#a4072616654f5b0d96c9ba7213b140d36" target="_top" xlink:title="plugins.Panel_Consultas.editar\lDatosEmpleado">
<polygon fill="white" stroke="black" points="584.5,-98 584.5,-128 735.5,-128 735.5,-98 584.5,-98"/>
<text text-anchor="start" x="592.5" y="-116" font-family="Helvetica,sans-Serif" font-size="10.00">plugins.Panel_Consultas.editar</text>
<text text-anchor="middle" x="660" y="-105" font-family="Helvetica,sans-Serif" font-size="10.00">DatosEmpleado</text>
</a>
</g>
</g>
<!-- Node5&#45;&gt;Node6 -->
<g id="edge5" class="edge"><title>Node5&#45;&gt;Node6</title>
<path fill="none" stroke="midnightblue" d="M557.707,-99.7658C566.704,-100.941 575.72,-102.119 584.461,-103.261"/>
<polygon fill="midnightblue" stroke="midnightblue" points="557.943,-96.2669 547.574,-98.4418 557.036,-103.208 557.943,-96.2669"/>
</g>
<!-- Node7 -->
<g id="node7" class="node"><title>Node7</title>
<g id="a_node7"><a xlink:href="classplugins_1_1_panel___consultas.xhtml#aef9cb36e8db78e3bd75c3e4acf0bc9e4" target="_top" xlink:title="plugins.Panel_Consultas.editar\lCVEmpleado">
<polygon fill="white" stroke="black" points="584.5,-49 584.5,-79 735.5,-79 735.5,-49 584.5,-49"/>
<text text-anchor="start" x="592.5" y="-67" font-family="Helvetica,sans-Serif" font-size="10.00">plugins.Panel_Consultas.editar</text>
<text text-anchor="middle" x="660" y="-56" font-family="Helvetica,sans-Serif" font-size="10.00">CVEmpleado</text>
</a>
</g>
</g>
<!-- Node5&#45;&gt;Node7 -->
<g id="edge6" class="edge"><title>Node5&#45;&gt;Node7</title>
<path fill="none" stroke="midnightblue" d="M557.707,-75.7072C566.704,-74.6674 575.72,-73.6254 584.461,-72.6151"/>
<polygon fill="midnightblue" stroke="midnightblue" points="557.106,-72.2533 547.574,-76.8784 557.91,-79.207 557.106,-72.2533"/>
</g>
<!-- Node8 -->
<g id="node8" class="node"><title>Node8</title>
<g id="a_node8"><a xlink:href="classplugins_1_1_panel___consultas.xhtml#ad1596ee5ed80b3214b8374f3f0a97ef6" target="_top" xlink:title="plugins.Panel_Consultas.editar\lContratosEmpleado">
<polygon fill="white" stroke="black" points="584.5,-0 584.5,-30 735.5,-30 735.5,-0 584.5,-0"/>
<text text-anchor="start" x="592.5" y="-18" font-family="Helvetica,sans-Serif" font-size="10.00">plugins.Panel_Consultas.editar</text>
<text text-anchor="middle" x="660" y="-7" font-family="Helvetica,sans-Serif" font-size="10.00">ContratosEmpleado</text>
</a>
</g>
</g>
<!-- Node5&#45;&gt;Node8 -->
<g id="edge7" class="edge"><title>Node5&#45;&gt;Node8</title>
<path fill="none" stroke="midnightblue" d="M506.786,-68.1306C529.903,-59.0018 558.288,-48.0813 584,-39 592.508,-35.995 601.614,-32.9443 610.444,-30.0711"/>
<polygon fill="midnightblue" stroke="midnightblue" points="505.23,-64.9825 497.225,-71.9227 507.811,-71.4894 505.23,-64.9825"/>
</g>
<!-- Node9&#45;&gt;Node3 -->
<g id="edge9" class="edge"><title>Node9&#45;&gt;Node3</title>
<path fill="none" stroke="midnightblue" d="M333.423,-124.415C351.393,-126.519 370.313,-128.734 387.829,-130.785"/>
<polygon fill="midnightblue" stroke="midnightblue" points="333.602,-120.912 323.263,-123.226 332.788,-127.865 333.602,-120.912"/>
</g>
<!-- Node9&#45;&gt;Node5 -->
<g id="edge10" class="edge"><title>Node9&#45;&gt;Node5</title>
<path fill="none" stroke="midnightblue" d="M333.362,-104.024C345.526,-102.362 358.126,-100.641 370.434,-98.9603"/>
<polygon fill="midnightblue" stroke="midnightblue" points="332.697,-100.582 323.263,-105.403 333.644,-107.518 332.697,-100.582"/>
</g>
<!-- Node10&#45;&gt;Node3 -->
<g id="edge12" class="edge"><title>Node10&#45;&gt;Node3</title>
<path fill="none" stroke="midnightblue" d="M321.634,-84.4614C325.851,-86.2595 330.002,-88.1112 334,-90 350.748,-97.9131 353.072,-103.48 370,-111 380.842,-115.817 392.769,-120.188 404.248,-123.97"/>
<polygon fill="midnightblue" stroke="midnightblue" points="322.913,-81.2026 312.334,-80.6172 320.239,-87.6717 322.913,-81.2026"/>
</g>
<!-- Node10&#45;&gt;Node5 -->
<g id="edge13" class="edge"><title>Node10&#45;&gt;Node5</title>
<path fill="none" stroke="midnightblue" d="M344.207,-72.0126C352.94,-73.1629 361.784,-74.3277 370.481,-75.4731"/>
<polygon fill="midnightblue" stroke="midnightblue" points="344.393,-68.507 334.021,-70.6711 343.479,-75.447 344.393,-68.507"/>
</g>
</g>
</svg>
