<?xml version="1.0" encoding="UTF-8" standalone="no"?>
<!DOCTYPE svg PUBLIC "-//W3C//DTD SVG 1.1//EN"
 "http://www.w3.org/Graphics/SVG/1.1/DTD/svg11.dtd">
<!-- Generated by graphviz version 2.30.1 (20130214.1330)
 -->
<!-- Title: gestorempleados.control.NegocioCliente.validateId Pages: 1 -->
<svg width="472pt" height="111pt"
 viewBox="0.00 0.00 472.00 111.00" xmlns="http://www.w3.org/2000/svg" xmlns:xlink="http://www.w3.org/1999/xlink">
<g id="graph0" class="graph" transform="scale(1 1) rotate(0) translate(4 107)">
<title>gestorempleados.control.NegocioCliente.validateId</title>
<polygon fill="white" stroke="white" points="-4,5 -4,-107 469,-107 469,5 -4,5"/>
<!-- Node1 -->
<g id="node1" class="node"><title>Node1</title>
<polygon fill="#bfbfbf" stroke="black" points="0,-24 0,-54 126,-54 126,-24 0,-24"/>
<text text-anchor="start" x="8" y="-42" font-family="Helvetica,sans-Serif" font-size="10.00">gestorempleados.control.</text>
<text text-anchor="middle" x="63" y="-31" font-family="Helvetica,sans-Serif" font-size="10.00">NegocioCliente.validateId</text>
</g>
<!-- Node2 -->
<g id="node2" class="node"><title>Node2</title>
<g id="a_node2"><a xlink:href="classgestorempleados_1_1conector_1_1_conector_cliente.xhtml#a830dba55e91b371279078945cf0b84c5" target="_top" xlink:title="gestorempleados.conector.\lConectorCliente.sendPacket">
<polygon fill="white" stroke="black" points="162,-49 162,-79 302,-79 302,-49 162,-49"/>
<text text-anchor="start" x="170" y="-67" font-family="Helvetica,sans-Serif" font-size="10.00">gestorempleados.conector.</text>
<text text-anchor="middle" x="232" y="-56" font-family="Helvetica,sans-Serif" font-size="10.00">ConectorCliente.sendPacket</text>
</a>
</g>
</g>
<!-- Node1&#45;&gt;Node2 -->
<g id="edge1" class="edge"><title>Node1&#45;&gt;Node2</title>
<path fill="none" stroke="midnightblue" d="M126.185,-48.3091C134.516,-49.5563 143.151,-50.849 151.727,-52.1328"/>
<polygon fill="midnightblue" stroke="midnightblue" points="151.337,-55.6133 161.745,-53.6324 152.373,-48.6904 151.337,-55.6133"/>
</g>
<!-- Node5 -->
<g id="node5" class="node"><title>Node5</title>
<g id="a_node5"><a xlink:href="classgestorempleados_1_1conector_1_1_packet.xhtml#a66abee43105b5ab7eac815a088d8f861" target="_top" xlink:title="gestorempleados.conector.\lPacket.getType">
<polygon fill="white" stroke="black" points="165,-0 165,-30 299,-30 299,-0 165,-0"/>
<text text-anchor="start" x="173" y="-18" font-family="Helvetica,sans-Serif" font-size="10.00">gestorempleados.conector.</text>
<text text-anchor="middle" x="232" y="-7" font-family="Helvetica,sans-Serif" font-size="10.00">Packet.getType</text>
</a>
</g>
</g>
<!-- Node1&#45;&gt;Node5 -->
<g id="edge4" class="edge"><title>Node1&#45;&gt;Node5</title>
<path fill="none" stroke="midnightblue" d="M126.185,-30.0633C135.545,-28.7181 145.289,-27.3178 154.9,-25.9365"/>
<polygon fill="midnightblue" stroke="midnightblue" points="155.447,-29.394 164.847,-24.507 154.451,-22.4652 155.447,-29.394"/>
</g>
<!-- Node3 -->
<g id="node3" class="node"><title>Node3</title>
<g id="a_node3"><a xlink:href="classgestorempleados_1_1control_1_1_preferencias.xhtml#a8cb4ef0c12fd91286f0f3a63c48d40b0" target="_top" xlink:title="gestorempleados.control.\lPreferencias.getHost">
<polygon fill="white" stroke="black" points="338,-73 338,-103 464,-103 464,-73 338,-73"/>
<text text-anchor="start" x="346" y="-91" font-family="Helvetica,sans-Serif" font-size="10.00">gestorempleados.control.</text>
<text text-anchor="middle" x="401" y="-80" font-family="Helvetica,sans-Serif" font-size="10.00">Preferencias.getHost</text>
</a>
</g>
</g>
<!-- Node2&#45;&gt;Node3 -->
<g id="edge2" class="edge"><title>Node2&#45;&gt;Node3</title>
<path fill="none" stroke="midnightblue" d="M302.372,-73.9697C310.718,-75.1691 319.258,-76.3964 327.646,-77.6018"/>
<polygon fill="midnightblue" stroke="midnightblue" points="327.381,-81.0996 337.777,-79.0578 328.377,-74.1708 327.381,-81.0996"/>
</g>
<!-- Node4 -->
<g id="node4" class="node"><title>Node4</title>
<g id="a_node4"><a xlink:href="classgestorempleados_1_1control_1_1_preferencias.xhtml#ae64b723a46d579f7646e75aa453ed3c8" target="_top" xlink:title="gestorempleados.control.\lPreferencias.getPort">
<polygon fill="white" stroke="black" points="338,-24 338,-54 464,-54 464,-24 338,-24"/>
<text text-anchor="start" x="346" y="-42" font-family="Helvetica,sans-Serif" font-size="10.00">gestorempleados.control.</text>
<text text-anchor="middle" x="401" y="-31" font-family="Helvetica,sans-Serif" font-size="10.00">Preferencias.getPort</text>
</a>
</g>
</g>
<!-- Node2&#45;&gt;Node4 -->
<g id="edge3" class="edge"><title>Node2&#45;&gt;Node4</title>
<path fill="none" stroke="midnightblue" d="M302.372,-53.6149C310.718,-52.3655 319.258,-51.0871 327.646,-49.8315"/>
<polygon fill="midnightblue" stroke="midnightblue" points="328.406,-53.2568 337.777,-48.3148 327.369,-46.3339 328.406,-53.2568"/>
</g>
</g>
</svg>
