<?xml version="1.0" encoding="UTF-8" standalone="no"?>
<!DOCTYPE svg PUBLIC "-//W3C//DTD SVG 1.1//EN"
 "http://www.w3.org/Graphics/SVG/1.1/DTD/svg11.dtd">
<!-- Generated by graphviz version 2.30.1 (20130214.1330)
 -->
<!-- Title: plugins.Panel_Busqueda Pages: 1 -->
<svg width="142pt" height="270pt"
 viewBox="0.00 0.00 142.00 270.00" xmlns="http://www.w3.org/2000/svg" xmlns:xlink="http://www.w3.org/1999/xlink">
<g id="graph0" class="graph" transform="scale(1 1) rotate(0) translate(4 266)">
<title>plugins.Panel_Busqueda</title>
<polygon fill="white" stroke="white" points="-4,5 -4,-266 139,-266 139,5 -4,5"/>
<!-- Node1 -->
<g id="node1" class="node"><title>Node1</title>
<polygon fill="#bfbfbf" stroke="black" points="0,-0.5 0,-167.5 126,-167.5 126,-0.5 0,-0.5"/>
<text text-anchor="middle" x="63" y="-155.5" font-family="Helvetica,sans-Serif" font-size="10.00">plugins.Panel_Busqueda</text>
<polyline fill="none" stroke="black" points="0,-148.5 126,-148.5 "/>
<text text-anchor="start" x="8" y="-136.5" font-family="Helvetica,sans-Serif" font-size="10.00">+ datos_personales</text>
<text text-anchor="start" x="8" y="-125.5" font-family="Helvetica,sans-Serif" font-size="10.00">+ datos_curriculo</text>
<text text-anchor="start" x="8" y="-114.5" font-family="Helvetica,sans-Serif" font-size="10.00">+ datos_contrato</text>
<text text-anchor="start" x="8" y="-103.5" font-family="Helvetica,sans-Serif" font-size="10.00">~ nuevo_contratoPanel</text>
<text text-anchor="start" x="8" y="-92.5" font-family="Helvetica,sans-Serif" font-size="10.00">&#45; altaPanelLabel</text>
<text text-anchor="start" x="8" y="-81.5" font-family="Helvetica,sans-Serif" font-size="10.00">&#45; tabbedPane</text>
<text text-anchor="start" x="8" y="-70.5" font-family="Helvetica,sans-Serif" font-size="10.00">&#45; btnInforme</text>
<text text-anchor="start" x="8" y="-59.5" font-family="Helvetica,sans-Serif" font-size="10.00">&#45; buscarDniTxt</text>
<polyline fill="none" stroke="black" points="0,-52.5 126,-52.5 "/>
<text text-anchor="start" x="8" y="-40.5" font-family="Helvetica,sans-Serif" font-size="10.00">+ Panel_Busqueda()</text>
<text text-anchor="start" x="8" y="-29.5" font-family="Helvetica,sans-Serif" font-size="10.00">+ crearPanel()</text>
<text text-anchor="start" x="8" y="-18.5" font-family="Helvetica,sans-Serif" font-size="10.00">+ isCamposDatosOK()</text>
<text text-anchor="start" x="8" y="-7.5" font-family="Helvetica,sans-Serif" font-size="10.00">+ isCamposContratoOK()</text>
</g>
<!-- Node2 -->
<g id="node2" class="node"><title>Node2</title>
<polygon fill="white" stroke="#bfbfbf" points="3,-204.5 3,-261.5 49,-261.5 49,-204.5 3,-204.5"/>
<text text-anchor="middle" x="26" y="-249.5" font-family="Helvetica,sans-Serif" font-size="10.00">JPanel</text>
<polyline fill="none" stroke="#bfbfbf" points="3,-242.5 49,-242.5 "/>
<text text-anchor="middle" x="26" y="-230.5" font-family="Helvetica,sans-Serif" font-size="10.00"> </text>
<polyline fill="none" stroke="#bfbfbf" points="3,-223.5 49,-223.5 "/>
<text text-anchor="middle" x="26" y="-211.5" font-family="Helvetica,sans-Serif" font-size="10.00"> </text>
</g>
<!-- Node2&#45;&gt;Node1 -->
<g id="edge1" class="edge"><title>Node2&#45;&gt;Node1</title>
<path fill="none" stroke="midnightblue" d="M35.4073,-194.625C37.5074,-186.281 39.8155,-177.111 42.1749,-167.738"/>
<polygon fill="none" stroke="midnightblue" points="32.0062,-193.799 32.9594,-204.35 38.7945,-195.507 32.0062,-193.799"/>
</g>
<!-- Node3 -->
<g id="node3" class="node"><title>Node3</title>
<polygon fill="white" stroke="#bfbfbf" points="67.5,-204.5 67.5,-261.5 134.5,-261.5 134.5,-204.5 67.5,-204.5"/>
<text text-anchor="middle" x="101" y="-249.5" font-family="Helvetica,sans-Serif" font-size="10.00">Serializable</text>
<polyline fill="none" stroke="#bfbfbf" points="67.5,-242.5 134.5,-242.5 "/>
<text text-anchor="middle" x="101" y="-230.5" font-family="Helvetica,sans-Serif" font-size="10.00"> </text>
<polyline fill="none" stroke="#bfbfbf" points="67.5,-223.5 134.5,-223.5 "/>
<text text-anchor="middle" x="101" y="-211.5" font-family="Helvetica,sans-Serif" font-size="10.00"> </text>
</g>
<!-- Node3&#45;&gt;Node1 -->
<g id="edge2" class="edge"><title>Node3&#45;&gt;Node1</title>
<path fill="none" stroke="midnightblue" d="M91.3384,-194.625C89.1816,-186.281 86.8111,-177.111 84.3879,-167.738"/>
<polygon fill="none" stroke="midnightblue" points="87.961,-195.545 93.8525,-204.35 94.7383,-193.793 87.961,-195.545"/>
</g>
</g>
</svg>
