<?xml version="1.0" encoding="UTF-8" standalone="no"?>
<!DOCTYPE svg PUBLIC "-//W3C//DTD SVG 1.1//EN"
 "http://www.w3.org/Graphics/SVG/1.1/DTD/svg11.dtd">
<!-- Generated by graphviz version 2.30.1 (20130214.1330)
 -->
<!-- Title: gestorempleados.interficie.Panel_DatosPersonales.Panel_DatosPersonales Pages: 1 -->
<svg width="668pt" height="111pt"
 viewBox="0.00 0.00 668.00 111.00" xmlns="http://www.w3.org/2000/svg" xmlns:xlink="http://www.w3.org/1999/xlink">
<g id="graph0" class="graph" transform="scale(1 1) rotate(0) translate(4 107)">
<title>gestorempleados.interficie.Panel_DatosPersonales.Panel_DatosPersonales</title>
<polygon fill="white" stroke="white" points="-4,5 -4,-107 665,-107 665,5 -4,5"/>
<!-- Node1 -->
<g id="node1" class="node"><title>Node1</title>
<polygon fill="#bfbfbf" stroke="black" points="0.5,-42.5 0.5,-83.5 149.5,-83.5 149.5,-42.5 0.5,-42.5"/>
<text text-anchor="start" x="8.5" y="-71.5" font-family="Helvetica,sans-Serif" font-size="10.00">gestorempleados.interficie.</text>
<text text-anchor="start" x="8.5" y="-60.5" font-family="Helvetica,sans-Serif" font-size="10.00">Panel_DatosPersonales.Panel</text>
<text text-anchor="middle" x="75" y="-49.5" font-family="Helvetica,sans-Serif" font-size="10.00">_DatosPersonales</text>
</g>
<!-- Node2 -->
<g id="node2" class="node"><title>Node2</title>
<g id="a_node2"><a xlink:href="classgestorempleados_1_1control_1_1_negocio_cliente.xhtml#af4450308afb9d29f665e8bd22d221770" target="_top" xlink:title="gestorempleados.control.\lNegocioCliente.getinstance">
<polygon fill="white" stroke="black" points="186.5,-73 186.5,-103 321.5,-103 321.5,-73 186.5,-73"/>
<text text-anchor="start" x="194.5" y="-91" font-family="Helvetica,sans-Serif" font-size="10.00">gestorempleados.control.</text>
<text text-anchor="middle" x="254" y="-80" font-family="Helvetica,sans-Serif" font-size="10.00">NegocioCliente.getinstance</text>
</a>
</g>
</g>
<!-- Node1&#45;&gt;Node2 -->
<g id="edge1" class="edge"><title>Node1&#45;&gt;Node2</title>
<path fill="none" stroke="midnightblue" d="M149.526,-73.3851C158.429,-74.6424 167.539,-75.9292 176.483,-77.1925"/>
<polygon fill="midnightblue" stroke="midnightblue" points="176.099,-80.673 186.491,-78.606 177.079,-73.7418 176.099,-80.673"/>
</g>
<!-- Node3 -->
<g id="node3" class="node"><title>Node3</title>
<g id="a_node3"><a xlink:href="classgestorempleados_1_1control_1_1_negocio_cliente.xhtml#a11aa15a708641a8b68de872407c0acc9" target="_top" xlink:title="gestorempleados.control.\lNegocioCliente.validateId">
<polygon fill="white" stroke="black" points="191,-24 191,-54 317,-54 317,-24 191,-24"/>
<text text-anchor="start" x="199" y="-42" font-family="Helvetica,sans-Serif" font-size="10.00">gestorempleados.control.</text>
<text text-anchor="middle" x="254" y="-31" font-family="Helvetica,sans-Serif" font-size="10.00">NegocioCliente.validateId</text>
</a>
</g>
</g>
<!-- Node1&#45;&gt;Node3 -->
<g id="edge2" class="edge"><title>Node1&#45;&gt;Node3</title>
<path fill="none" stroke="midnightblue" d="M149.526,-53.0303C159.855,-51.6298 170.465,-50.1912 180.77,-48.7939"/>
<polygon fill="midnightblue" stroke="midnightblue" points="181.512,-52.2254 190.951,-47.4134 180.572,-45.2889 181.512,-52.2254"/>
</g>
<!-- Node4 -->
<g id="node4" class="node"><title>Node4</title>
<g id="a_node4"><a xlink:href="classgestorempleados_1_1conector_1_1_conector_cliente.xhtml#a830dba55e91b371279078945cf0b84c5" target="_top" xlink:title="gestorempleados.conector.\lConectorCliente.sendPacket">
<polygon fill="white" stroke="black" points="358,-49 358,-79 498,-79 498,-49 358,-49"/>
<text text-anchor="start" x="366" y="-67" font-family="Helvetica,sans-Serif" font-size="10.00">gestorempleados.conector.</text>
<text text-anchor="middle" x="428" y="-56" font-family="Helvetica,sans-Serif" font-size="10.00">ConectorCliente.sendPacket</text>
</a>
</g>
</g>
<!-- Node3&#45;&gt;Node4 -->
<g id="edge3" class="edge"><title>Node3&#45;&gt;Node4</title>
<path fill="none" stroke="midnightblue" d="M317.096,-48.0256C326.983,-49.4627 337.328,-50.9663 347.549,-52.4519"/>
<polygon fill="midnightblue" stroke="midnightblue" points="347.308,-55.9535 357.707,-53.9284 348.315,-49.0263 347.308,-55.9535"/>
</g>
<!-- Node7 -->
<g id="node7" class="node"><title>Node7</title>
<g id="a_node7"><a xlink:href="classgestorempleados_1_1conector_1_1_packet.xhtml#a66abee43105b5ab7eac815a088d8f861" target="_top" xlink:title="gestorempleados.conector.\lPacket.getType">
<polygon fill="white" stroke="black" points="361,-0 361,-30 495,-30 495,-0 361,-0"/>
<text text-anchor="start" x="369" y="-18" font-family="Helvetica,sans-Serif" font-size="10.00">gestorempleados.conector.</text>
<text text-anchor="middle" x="428" y="-7" font-family="Helvetica,sans-Serif" font-size="10.00">Packet.getType</text>
</a>
</g>
</g>
<!-- Node3&#45;&gt;Node7 -->
<g id="edge6" class="edge"><title>Node3&#45;&gt;Node7</title>
<path fill="none" stroke="midnightblue" d="M317.096,-30.3354C327.999,-28.814 339.46,-27.2149 350.697,-25.647"/>
<polygon fill="midnightblue" stroke="midnightblue" points="351.51,-29.0674 360.931,-24.219 350.543,-22.1346 351.51,-29.0674"/>
</g>
<!-- Node5 -->
<g id="node5" class="node"><title>Node5</title>
<g id="a_node5"><a xlink:href="classgestorempleados_1_1control_1_1_preferencias.xhtml#a8cb4ef0c12fd91286f0f3a63c48d40b0" target="_top" xlink:title="gestorempleados.control.\lPreferencias.getHost">
<polygon fill="white" stroke="black" points="534,-73 534,-103 660,-103 660,-73 534,-73"/>
<text text-anchor="start" x="542" y="-91" font-family="Helvetica,sans-Serif" font-size="10.00">gestorempleados.control.</text>
<text text-anchor="middle" x="597" y="-80" font-family="Helvetica,sans-Serif" font-size="10.00">Preferencias.getHost</text>
</a>
</g>
</g>
<!-- Node4&#45;&gt;Node5 -->
<g id="edge4" class="edge"><title>Node4&#45;&gt;Node5</title>
<path fill="none" stroke="midnightblue" d="M498.372,-73.9697C506.718,-75.1691 515.258,-76.3964 523.646,-77.6018"/>
<polygon fill="midnightblue" stroke="midnightblue" points="523.381,-81.0996 533.777,-79.0578 524.377,-74.1708 523.381,-81.0996"/>
</g>
<!-- Node6 -->
<g id="node6" class="node"><title>Node6</title>
<g id="a_node6"><a xlink:href="classgestorempleados_1_1control_1_1_preferencias.xhtml#ae64b723a46d579f7646e75aa453ed3c8" target="_top" xlink:title="gestorempleados.control.\lPreferencias.getPort">
<polygon fill="white" stroke="black" points="534,-24 534,-54 660,-54 660,-24 534,-24"/>
<text text-anchor="start" x="542" y="-42" font-family="Helvetica,sans-Serif" font-size="10.00">gestorempleados.control.</text>
<text text-anchor="middle" x="597" y="-31" font-family="Helvetica,sans-Serif" font-size="10.00">Preferencias.getPort</text>
</a>
</g>
</g>
<!-- Node4&#45;&gt;Node6 -->
<g id="edge5" class="edge"><title>Node4&#45;&gt;Node6</title>
<path fill="none" stroke="midnightblue" d="M498.372,-53.6149C506.718,-52.3655 515.258,-51.0871 523.646,-49.8315"/>
<polygon fill="midnightblue" stroke="midnightblue" points="524.406,-53.2568 533.777,-48.3148 523.369,-46.3339 524.406,-53.2568"/>
</g>
</g>
</svg>
