<?xml version="1.0" encoding="UTF-8" standalone="no"?>
<!DOCTYPE svg PUBLIC "-//W3C//DTD SVG 1.1//EN"
 "http://www.w3.org/Graphics/SVG/1.1/DTD/svg11.dtd">
<!-- Generated by graphviz version 2.30.1 (20130214.1330)
 -->
<!-- Title: gestorempleados.control.NegocioCliente.showContratoEmpleado Pages: 1 -->
<!--zoomable 822 -->
<svg id="main" version="1.1" xmlns="http://www.w3.org/2000/svg" xmlns:xlink="http://www.w3.org/1999/xlink" xml:space="preserve" onload="init(evt)">
<style type="text/css"><![CDATA[
.edge:hover path { stroke: red; }
.edge:hover polygon { stroke: red; fill: red; }
]]></style>
<script type="text/javascript"><![CDATA[
var edges = document.getElementsByTagName('g');
if (edges && edges.length) {
  for (var i=0;i<edges.length;i++) {
    if (edges[i].id.substr(0,4)=='edge') {
      edges[i].setAttribute('class','edge');
    }
  }
}
]]></script>
        <defs>
                <circle id="rim" cx="0" cy="0" r="7"/>
                <circle id="rim2" cx="0" cy="0" r="3.5"/>
                <g id="zoomPlus">
                        <use xlink:href="#rim" fill="#404040">
                                <set attributeName="fill" to="#808080" begin="zoomplus.mouseover" end="zoomplus.mouseout"/>
                        </use>
                        <path d="M-4,0h8M0,-4v8" fill="none" stroke="white" stroke-width="1.5" pointer-events="none"/>
                </g>
                <g id="zoomMin">
                        <use xlink:href="#rim" fill="#404040">
                                <set attributeName="fill" to="#808080" begin="zoomminus.mouseover" end="zoomminus.mouseout"/>
                        </use>
                        <path d="M-4,0h8" fill="none" stroke="white" stroke-width="1.5" pointer-events="none"/>
                </g>
                <g id="dirArrow">
                        <path fill="none" stroke="white" stroke-width="1.5" d="M0,-3.0v7 M-2.5,-0.5L0,-3.0L2.5,-0.5"/>
                </g>
               <g id="resetDef">
                       <use xlink:href="#rim2" fill="#404040">
                               <set attributeName="fill" to="#808080" begin="reset.mouseover" end="reset.mouseout"/>
                       </use>
               </g>
        </defs>

<script type="text/javascript">
var viewWidth = 566;
var viewHeight = 822;
var sectionId = 'dynsection-13';
</script>
<script xlink:href="svgpan.js"/>
<svg id="graph" class="graph">
<g id="viewport">
<title>gestorempleados.control.NegocioCliente.showContratoEmpleado</title>
<polygon fill="white" stroke="white" points="-4,5 -4,-818 563,-818 563,5 -4,5"/>
<!-- Node1 -->
<g id="node1" class="node"><title>Node1</title>
<polygon fill="#bfbfbf" stroke="black" points="0,-392 0,-422 188,-422 188,-392 0,-392"/>
<text text-anchor="start" x="8" y="-410" font-family="Helvetica,sans-Serif" font-size="10.00">gestorempleados.control.</text>
<text text-anchor="middle" x="94" y="-399" font-family="Helvetica,sans-Serif" font-size="10.00">NegocioCliente.showContratoEmpleado</text>
</g>
<!-- Node2 -->
<g id="node2" class="node"><title>Node2</title>
<g id="a_node2"><a xlink:href="classgestorempleados_1_1interficie_1_1_panel___contrato.xhtml#a466f79577e465a788d600ed03f9a48a1" target="_top" xlink:title="gestorempleados.interficie.\lPanel_Contrato.setIDContrato">
<polygon fill="white" stroke="black" points="233,-784 233,-814 379,-814 379,-784 233,-784"/>
<text text-anchor="start" x="241" y="-802" font-family="Helvetica,sans-Serif" font-size="10.00">gestorempleados.interficie.</text>
<text text-anchor="middle" x="306" y="-791" font-family="Helvetica,sans-Serif" font-size="10.00">Panel_Contrato.setIDContrato</text>
</a>
</g>
</g>
<!-- Node1&#45;&gt;Node2 -->
<g id="edge1" class="edge"><title>Node1&#45;&gt;Node2</title>
<path fill="none" stroke="midnightblue" d="M95.6699,-422.111C98.9563,-477.563 117.901,-671.923 224,-774 225.637,-775.575 227.372,-777.051 229.185,-778.435"/>
<polygon fill="midnightblue" stroke="midnightblue" points="227.305,-781.387 237.592,-783.924 231.133,-775.526 227.305,-781.387"/>
</g>
<!-- Node3 -->
<g id="node3" class="node"><title>Node3</title>
<g id="a_node3"><a xlink:href="classgestorempleados_1_1interficie_1_1_panel___contrato.xhtml#a80d0b0f9af2b7c5387689d65ca3f641b" target="_top" xlink:title="gestorempleados.interficie.\lPanel_Contrato.setActivo">
<polygon fill="white" stroke="black" points="239.5,-735 239.5,-765 372.5,-765 372.5,-735 239.5,-735"/>
<text text-anchor="start" x="247.5" y="-753" font-family="Helvetica,sans-Serif" font-size="10.00">gestorempleados.interficie.</text>
<text text-anchor="middle" x="306" y="-742" font-family="Helvetica,sans-Serif" font-size="10.00">Panel_Contrato.setActivo</text>
</a>
</g>
</g>
<!-- Node1&#45;&gt;Node3 -->
<g id="edge2" class="edge"><title>Node1&#45;&gt;Node3</title>
<path fill="none" stroke="midnightblue" d="M96.6037,-422.194C102.779,-472.964 129.615,-638.403 224,-725 225.993,-726.828 228.117,-728.523 230.343,-730.093"/>
<polygon fill="midnightblue" stroke="midnightblue" points="229.006,-733.376 239.373,-735.558 232.63,-727.387 229.006,-733.376"/>
</g>
<!-- Node4 -->
<g id="node4" class="node"><title>Node4</title>
<g id="a_node4"><a xlink:href="classgestorempleados_1_1interficie_1_1_panel___contrato.xhtml#a000bc31f7d460ac25a1155bd9aeea747" target="_top" xlink:title="gestorempleados.interficie.\lPanel_Contrato.setDepartamento">
<polygon fill="white" stroke="black" points="225.5,-686 225.5,-716 386.5,-716 386.5,-686 225.5,-686"/>
<text text-anchor="start" x="233.5" y="-704" font-family="Helvetica,sans-Serif" font-size="10.00">gestorempleados.interficie.</text>
<text text-anchor="middle" x="306" y="-693" font-family="Helvetica,sans-Serif" font-size="10.00">Panel_Contrato.setDepartamento</text>
</a>
</g>
</g>
<!-- Node1&#45;&gt;Node4 -->
<g id="edge3" class="edge"><title>Node1&#45;&gt;Node4</title>
<path fill="none" stroke="midnightblue" d="M97.8178,-422.075C107.106,-467.524 141.034,-604.471 224,-676 225.951,-677.682 228.013,-679.25 230.163,-680.713"/>
<polygon fill="midnightblue" stroke="midnightblue" points="228.449,-683.766 238.837,-685.85 232.016,-677.743 228.449,-683.766"/>
</g>
<!-- Node5 -->
<g id="node5" class="node"><title>Node5</title>
<g id="a_node5"><a xlink:href="classgestorempleados_1_1interficie_1_1_panel___contrato.xhtml#a541619c9f1b8e19dee7a3749ca448397" target="_top" xlink:title="gestorempleados.interficie.\lPanel_Contrato.setCargo">
<polygon fill="white" stroke="black" points="239.5,-637 239.5,-667 372.5,-667 372.5,-637 239.5,-637"/>
<text text-anchor="start" x="247.5" y="-655" font-family="Helvetica,sans-Serif" font-size="10.00">gestorempleados.interficie.</text>
<text text-anchor="middle" x="306" y="-644" font-family="Helvetica,sans-Serif" font-size="10.00">Panel_Contrato.setCargo</text>
</a>
</g>
</g>
<!-- Node1&#45;&gt;Node5 -->
<g id="edge4" class="edge"><title>Node1&#45;&gt;Node5</title>
<path fill="none" stroke="midnightblue" d="M99.5652,-422.127C112.348,-461.898 152.33,-570.229 224,-627 226.271,-628.799 228.672,-630.469 231.169,-632.02"/>
<polygon fill="midnightblue" stroke="midnightblue" points="229.53,-635.113 239.983,-636.844 232.891,-628.972 229.53,-635.113"/>
</g>
<!-- Node6 -->
<g id="node6" class="node"><title>Node6</title>
<g id="a_node6"><a xlink:href="classgestorempleados_1_1interficie_1_1_panel___contrato.xhtml#afde14d6ff3824991892332082a985d47" target="_top" xlink:title="gestorempleados.interficie.\lPanel_Contrato.setOrigen">
<polygon fill="white" stroke="black" points="239.5,-588 239.5,-618 372.5,-618 372.5,-588 239.5,-588"/>
<text text-anchor="start" x="247.5" y="-606" font-family="Helvetica,sans-Serif" font-size="10.00">gestorempleados.interficie.</text>
<text text-anchor="middle" x="306" y="-595" font-family="Helvetica,sans-Serif" font-size="10.00">Panel_Contrato.setOrigen</text>
</a>
</g>
</g>
<!-- Node1&#45;&gt;Node6 -->
<g id="edge5" class="edge"><title>Node1&#45;&gt;Node6</title>
<path fill="none" stroke="midnightblue" d="M102.203,-422.084C118.853,-455.339 163.273,-535.382 224,-578 226.857,-580.005 229.88,-581.853 233.014,-583.557"/>
<polygon fill="midnightblue" stroke="midnightblue" points="231.57,-586.746 242.093,-587.982 234.637,-580.454 231.57,-586.746"/>
</g>
<!-- Node7 -->
<g id="node7" class="node"><title>Node7</title>
<g id="a_node7"><a xlink:href="classgestorempleados_1_1interficie_1_1_panel___contrato.xhtml#a4a934cfff811aaa52aa442de36c27854" target="_top" xlink:title="gestorempleados.interficie.\lPanel_Contrato.setSede">
<polygon fill="white" stroke="black" points="239.5,-539 239.5,-569 372.5,-569 372.5,-539 239.5,-539"/>
<text text-anchor="start" x="247.5" y="-557" font-family="Helvetica,sans-Serif" font-size="10.00">gestorempleados.interficie.</text>
<text text-anchor="middle" x="306" y="-546" font-family="Helvetica,sans-Serif" font-size="10.00">Panel_Contrato.setSede</text>
</a>
</g>
</g>
<!-- Node1&#45;&gt;Node7 -->
<g id="edge6" class="edge"><title>Node1&#45;&gt;Node7</title>
<path fill="none" stroke="midnightblue" d="M106.877,-422.066C127.842,-447.682 173.954,-499.782 224,-529 227.646,-531.129 231.492,-533.094 235.448,-534.906"/>
<polygon fill="midnightblue" stroke="midnightblue" points="234.258,-538.203 244.833,-538.861 236.977,-531.753 234.258,-538.203"/>
</g>
<!-- Node8 -->
<g id="node8" class="node"><title>Node8</title>
<g id="a_node8"><a xlink:href="classgestorempleados_1_1interficie_1_1_panel___contrato.xhtml#a85f9016ed1859517e5dfa6c0531e1171" target="_top" xlink:title="gestorempleados.interficie.\lPanel_Contrato.setSalario">
<polygon fill="white" stroke="black" points="239.5,-490 239.5,-520 372.5,-520 372.5,-490 239.5,-490"/>
<text text-anchor="start" x="247.5" y="-508" font-family="Helvetica,sans-Serif" font-size="10.00">gestorempleados.interficie.</text>
<text text-anchor="middle" x="306" y="-497" font-family="Helvetica,sans-Serif" font-size="10.00">Panel_Contrato.setSalario</text>
</a>
</g>
</g>
<!-- Node1&#45;&gt;Node8 -->
<g id="edge7" class="edge"><title>Node1&#45;&gt;Node8</title>
<path fill="none" stroke="midnightblue" d="M117.992,-422.032C143.205,-438.029 185.248,-463.288 224,-480 229.368,-482.315 235.019,-484.513 240.738,-486.575"/>
<polygon fill="midnightblue" stroke="midnightblue" points="239.792,-489.952 250.387,-489.914 242.081,-483.336 239.792,-489.952"/>
</g>
<!-- Node9 -->
<g id="node9" class="node"><title>Node9</title>
<g id="a_node9"><a xlink:href="classgestorempleados_1_1interficie_1_1_panel___contrato.xhtml#a08d902782a4f582eea935773b6a49bce" target="_top" xlink:title="gestorempleados.interficie.\lPanel_Contrato.setFecha_inicio">
<polygon fill="white" stroke="black" points="228.5,-392 228.5,-422 383.5,-422 383.5,-392 228.5,-392"/>
<text text-anchor="start" x="236.5" y="-410" font-family="Helvetica,sans-Serif" font-size="10.00">gestorempleados.interficie.</text>
<text text-anchor="middle" x="306" y="-399" font-family="Helvetica,sans-Serif" font-size="10.00">Panel_Contrato.setFecha_inicio</text>
</a>
</g>
</g>
<!-- Node1&#45;&gt;Node9 -->
<g id="edge8" class="edge"><title>Node1&#45;&gt;Node9</title>
<path fill="none" stroke="midnightblue" d="M188.026,-407C198.041,-407 208.204,-407 218.143,-407"/>
<polygon fill="midnightblue" stroke="midnightblue" points="218.404,-410.5 228.404,-407 218.404,-403.5 218.404,-410.5"/>
</g>
<!-- Node13 -->
<g id="node13" class="node"><title>Node13</title>
<g id="a_node13"><a xlink:href="classgestorempleados_1_1interficie_1_1_panel___contrato.xhtml#aa9ea22de245739cf40845c973ba59c24" target="_top" xlink:title="gestorempleados.interficie.\lPanel_Contrato.setFecha_fin">
<polygon fill="white" stroke="black" points="235,-441 235,-471 377,-471 377,-441 235,-441"/>
<text text-anchor="start" x="243" y="-459" font-family="Helvetica,sans-Serif" font-size="10.00">gestorempleados.interficie.</text>
<text text-anchor="middle" x="306" y="-448" font-family="Helvetica,sans-Serif" font-size="10.00">Panel_Contrato.setFecha_fin</text>
</a>
</g>
</g>
<!-- Node1&#45;&gt;Node13 -->
<g id="edge12" class="edge"><title>Node1&#45;&gt;Node13</title>
<path fill="none" stroke="midnightblue" d="M159.434,-422.035C182.01,-427.302 207.543,-433.26 230.85,-438.698"/>
<polygon fill="midnightblue" stroke="midnightblue" points="230.154,-442.13 240.688,-440.994 231.745,-435.313 230.154,-442.13"/>
</g>
<!-- Node14 -->
<g id="node14" class="node"><title>Node14</title>
<g id="a_node14"><a xlink:href="classgestorempleados_1_1interficie_1_1_panel___contrato.xhtml#a29605e3f26e06e69e34afde1bad2140b" target="_top" xlink:title="gestorempleados.interficie.\lPanel_Contrato.setPreaviso">
<polygon fill="white" stroke="black" points="237.5,-343 237.5,-373 374.5,-373 374.5,-343 237.5,-343"/>
<text text-anchor="start" x="245.5" y="-361" font-family="Helvetica,sans-Serif" font-size="10.00">gestorempleados.interficie.</text>
<text text-anchor="middle" x="306" y="-350" font-family="Helvetica,sans-Serif" font-size="10.00">Panel_Contrato.setPreaviso</text>
</a>
</g>
</g>
<!-- Node1&#45;&gt;Node14 -->
<g id="edge16" class="edge"><title>Node1&#45;&gt;Node14</title>
<path fill="none" stroke="midnightblue" d="M159.434,-391.965C182.01,-386.698 207.543,-380.74 230.85,-375.302"/>
<polygon fill="midnightblue" stroke="midnightblue" points="231.745,-378.687 240.688,-373.006 230.154,-371.87 231.745,-378.687"/>
</g>
<!-- Node15 -->
<g id="node15" class="node"><title>Node15</title>
<g id="a_node15"><a xlink:href="classgestorempleados_1_1interficie_1_1_panel___contrato.xhtml#a740d76457751b728e3e35990028e6da0" target="_top" xlink:title="gestorempleados.interficie.\lPanel_Contrato.setPeriodoPrueba">
<polygon fill="white" stroke="black" points="224,-294 224,-324 388,-324 388,-294 224,-294"/>
<text text-anchor="start" x="232" y="-312" font-family="Helvetica,sans-Serif" font-size="10.00">gestorempleados.interficie.</text>
<text text-anchor="middle" x="306" y="-301" font-family="Helvetica,sans-Serif" font-size="10.00">Panel_Contrato.setPeriodoPrueba</text>
</a>
</g>
</g>
<!-- Node1&#45;&gt;Node15 -->
<g id="edge17" class="edge"><title>Node1&#45;&gt;Node15</title>
<path fill="none" stroke="midnightblue" d="M117.992,-391.968C143.205,-375.971 185.248,-350.712 224,-334 229.368,-331.685 235.019,-329.487 240.738,-327.425"/>
<polygon fill="midnightblue" stroke="midnightblue" points="242.081,-330.664 250.387,-324.086 239.792,-324.048 242.081,-330.664"/>
</g>
<!-- Node16 -->
<g id="node16" class="node"><title>Node16</title>
<g id="a_node16"><a xlink:href="classgestorempleados_1_1interficie_1_1_panel___contrato.xhtml#a813b17687e514b0125f26508d457eb3e" target="_top" xlink:title="gestorempleados.interficie.\lPanel_Contrato.setModalidad">
<polygon fill="white" stroke="black" points="234,-245 234,-275 378,-275 378,-245 234,-245"/>
<text text-anchor="start" x="242" y="-263" font-family="Helvetica,sans-Serif" font-size="10.00">gestorempleados.interficie.</text>
<text text-anchor="middle" x="306" y="-252" font-family="Helvetica,sans-Serif" font-size="10.00">Panel_Contrato.setModalidad</text>
</a>
</g>
</g>
<!-- Node1&#45;&gt;Node16 -->
<g id="edge18" class="edge"><title>Node1&#45;&gt;Node16</title>
<path fill="none" stroke="midnightblue" d="M106.877,-391.934C127.842,-366.318 173.954,-314.218 224,-285 227.646,-282.871 231.492,-280.906 235.448,-279.094"/>
<polygon fill="midnightblue" stroke="midnightblue" points="236.977,-282.247 244.833,-275.139 234.258,-275.797 236.977,-282.247"/>
</g>
<!-- Node17 -->
<g id="node17" class="node"><title>Node17</title>
<g id="a_node17"><a xlink:href="classgestorempleados_1_1interficie_1_1_panel___contrato.xhtml#a1034a26dc28801f8b7388d6795000015" target="_top" xlink:title="gestorempleados.interficie.\lPanel_Contrato.setMotivo">
<polygon fill="white" stroke="black" points="239.5,-196 239.5,-226 372.5,-226 372.5,-196 239.5,-196"/>
<text text-anchor="start" x="247.5" y="-214" font-family="Helvetica,sans-Serif" font-size="10.00">gestorempleados.interficie.</text>
<text text-anchor="middle" x="306" y="-203" font-family="Helvetica,sans-Serif" font-size="10.00">Panel_Contrato.setMotivo</text>
</a>
</g>
</g>
<!-- Node1&#45;&gt;Node17 -->
<g id="edge19" class="edge"><title>Node1&#45;&gt;Node17</title>
<path fill="none" stroke="midnightblue" d="M102.203,-391.916C118.853,-358.661 163.273,-278.618 224,-236 226.857,-233.995 229.88,-232.147 233.014,-230.443"/>
<polygon fill="midnightblue" stroke="midnightblue" points="234.637,-233.546 242.093,-226.018 231.57,-227.254 234.637,-233.546"/>
</g>
<!-- Node18 -->
<g id="node18" class="node"><title>Node18</title>
<g id="a_node18"><a xlink:href="classgestorempleados_1_1interficie_1_1_panel___contrato.xhtml#a931557b90ee084c7b66c2a49fe78fc2a" target="_top" xlink:title="gestorempleados.interficie.\lPanel_Contrato.setClase">
<polygon fill="white" stroke="black" points="239.5,-147 239.5,-177 372.5,-177 372.5,-147 239.5,-147"/>
<text text-anchor="start" x="247.5" y="-165" font-family="Helvetica,sans-Serif" font-size="10.00">gestorempleados.interficie.</text>
<text text-anchor="middle" x="306" y="-154" font-family="Helvetica,sans-Serif" font-size="10.00">Panel_Contrato.setClase</text>
</a>
</g>
</g>
<!-- Node1&#45;&gt;Node18 -->
<g id="edge20" class="edge"><title>Node1&#45;&gt;Node18</title>
<path fill="none" stroke="midnightblue" d="M99.5652,-391.873C112.348,-352.102 152.33,-243.771 224,-187 226.271,-185.201 228.672,-183.531 231.169,-181.98"/>
<polygon fill="midnightblue" stroke="midnightblue" points="232.891,-185.028 239.983,-177.156 229.53,-178.887 232.891,-185.028"/>
</g>
<!-- Node19 -->
<g id="node19" class="node"><title>Node19</title>
<g id="a_node19"><a xlink:href="classgestorempleados_1_1interficie_1_1_panel___contrato.xhtml#ae80639db2682b0e6e13073c3a6a76837" target="_top" xlink:title="gestorempleados.interficie.\lPanel_Contrato.setClausula">
<polygon fill="white" stroke="black" points="237.5,-98 237.5,-128 374.5,-128 374.5,-98 237.5,-98"/>
<text text-anchor="start" x="245.5" y="-116" font-family="Helvetica,sans-Serif" font-size="10.00">gestorempleados.interficie.</text>
<text text-anchor="middle" x="306" y="-105" font-family="Helvetica,sans-Serif" font-size="10.00">Panel_Contrato.setClausula</text>
</a>
</g>
</g>
<!-- Node1&#45;&gt;Node19 -->
<g id="edge21" class="edge"><title>Node1&#45;&gt;Node19</title>
<path fill="none" stroke="midnightblue" d="M97.8178,-391.925C107.106,-346.476 141.034,-209.529 224,-138 225.951,-136.318 228.013,-134.75 230.163,-133.287"/>
<polygon fill="midnightblue" stroke="midnightblue" points="232.016,-136.257 238.837,-128.15 228.449,-130.234 232.016,-136.257"/>
</g>
<!-- Node20 -->
<g id="node20" class="node"><title>Node20</title>
<g id="a_node20"><a xlink:href="classgestorempleados_1_1interficie_1_1_panel___contrato.xhtml#a629bbade8c3a3f564388a25317826d5e" target="_top" xlink:title="gestorempleados.interficie.\lPanel_Contrato.setSalud">
<polygon fill="white" stroke="black" points="239.5,-49 239.5,-79 372.5,-79 372.5,-49 239.5,-49"/>
<text text-anchor="start" x="247.5" y="-67" font-family="Helvetica,sans-Serif" font-size="10.00">gestorempleados.interficie.</text>
<text text-anchor="middle" x="306" y="-56" font-family="Helvetica,sans-Serif" font-size="10.00">Panel_Contrato.setSalud</text>
</a>
</g>
</g>
<!-- Node1&#45;&gt;Node20 -->
<g id="edge22" class="edge"><title>Node1&#45;&gt;Node20</title>
<path fill="none" stroke="midnightblue" d="M96.6037,-391.806C102.779,-341.036 129.615,-175.597 224,-89 225.993,-87.1718 228.117,-85.4772 230.343,-83.9065"/>
<polygon fill="midnightblue" stroke="midnightblue" points="232.63,-86.6134 239.373,-78.4417 229.006,-80.6245 232.63,-86.6134"/>
</g>
<!-- Node21 -->
<g id="node21" class="node"><title>Node21</title>
<g id="a_node21"><a xlink:href="classgestorempleados_1_1interficie_1_1_panel___contrato.xhtml#ae865da893597fa8e7bbb140c364441e9" target="_top" xlink:title="gestorempleados.interficie.\lPanel_Contrato.setVida">
<polygon fill="white" stroke="black" points="239.5,-0 239.5,-30 372.5,-30 372.5,-0 239.5,-0"/>
<text text-anchor="start" x="247.5" y="-18" font-family="Helvetica,sans-Serif" font-size="10.00">gestorempleados.interficie.</text>
<text text-anchor="middle" x="306" y="-7" font-family="Helvetica,sans-Serif" font-size="10.00">Panel_Contrato.setVida</text>
</a>
</g>
</g>
<!-- Node1&#45;&gt;Node21 -->
<g id="edge23" class="edge"><title>Node1&#45;&gt;Node21</title>
<path fill="none" stroke="midnightblue" d="M95.6176,-391.809C98.7214,-336.07 117.11,-140.766 224,-39 225.952,-37.1417 228.041,-35.4265 230.237,-33.8435"/>
<polygon fill="midnightblue" stroke="midnightblue" points="232.477,-36.576 239.178,-28.3695 228.822,-30.606 232.477,-36.576"/>
</g>
<!-- Node10 -->
<g id="node10" class="node"><title>Node10</title>
<g id="a_node10"><a xlink:href="classgestorempleados_1_1interficie_1_1_calendario.xhtml#a22844d04bb1585eca0ee0283f1082c90" target="_top" xlink:title="gestorempleados.interficie.\lCalendario.setDia">
<polygon fill="white" stroke="black" points="424.5,-465 424.5,-495 557.5,-495 557.5,-465 424.5,-465"/>
<text text-anchor="start" x="432.5" y="-483" font-family="Helvetica,sans-Serif" font-size="10.00">gestorempleados.interficie.</text>
<text text-anchor="middle" x="491" y="-472" font-family="Helvetica,sans-Serif" font-size="10.00">Calendario.setDia</text>
</a>
</g>
</g>
<!-- Node9&#45;&gt;Node10 -->
<g id="edge9" class="edge"><title>Node9&#45;&gt;Node10</title>
<path fill="none" stroke="midnightblue" d="M363.08,-422.143C371.572,-425.053 380.122,-428.349 388,-432 405.227,-439.983 407.032,-446.481 424,-455 428.226,-457.122 432.678,-459.172 437.191,-461.124"/>
<polygon fill="midnightblue" stroke="midnightblue" points="435.912,-464.383 446.49,-464.984 438.596,-457.918 435.912,-464.383"/>
</g>
<!-- Node11 -->
<g id="node11" class="node"><title>Node11</title>
<g id="a_node11"><a xlink:href="classgestorempleados_1_1interficie_1_1_calendario.xhtml#a8b25250145ee84ef837dab49ebbc1128" target="_top" xlink:title="gestorempleados.interficie.\lCalendario.setMes">
<polygon fill="white" stroke="black" points="424.5,-416 424.5,-446 557.5,-446 557.5,-416 424.5,-416"/>
<text text-anchor="start" x="432.5" y="-434" font-family="Helvetica,sans-Serif" font-size="10.00">gestorempleados.interficie.</text>
<text text-anchor="middle" x="491" y="-423" font-family="Helvetica,sans-Serif" font-size="10.00">Calendario.setMes</text>
</a>
</g>
</g>
<!-- Node9&#45;&gt;Node11 -->
<g id="edge10" class="edge"><title>Node9&#45;&gt;Node11</title>
<path fill="none" stroke="midnightblue" d="M383.548,-417.039C393.685,-418.369 404.074,-419.731 414.198,-421.059"/>
<polygon fill="midnightblue" stroke="midnightblue" points="413.845,-424.542 424.216,-422.373 414.756,-417.602 413.845,-424.542"/>
</g>
<!-- Node12 -->
<g id="node12" class="node"><title>Node12</title>
<g id="a_node12"><a xlink:href="classgestorempleados_1_1interficie_1_1_calendario.xhtml#aa75f38ccdd3c10471b7a17c758636bfa" target="_top" xlink:title="gestorempleados.interficie.\lCalendario.setAno">
<polygon fill="white" stroke="black" points="424.5,-367 424.5,-397 557.5,-397 557.5,-367 424.5,-367"/>
<text text-anchor="start" x="432.5" y="-385" font-family="Helvetica,sans-Serif" font-size="10.00">gestorempleados.interficie.</text>
<text text-anchor="middle" x="491" y="-374" font-family="Helvetica,sans-Serif" font-size="10.00">Calendario.setAno</text>
</a>
</g>
</g>
<!-- Node9&#45;&gt;Node12 -->
<g id="edge11" class="edge"><title>Node9&#45;&gt;Node12</title>
<path fill="none" stroke="midnightblue" d="M383.548,-396.543C393.685,-395.158 404.074,-393.739 414.198,-392.355"/>
<polygon fill="midnightblue" stroke="midnightblue" points="414.781,-395.808 424.216,-390.987 413.834,-388.873 414.781,-395.808"/>
</g>
<!-- Node13&#45;&gt;Node10 -->
<g id="edge13" class="edge"><title>Node13&#45;&gt;Node10</title>
<path fill="none" stroke="midnightblue" d="M377.229,-465.21C389.356,-466.801 402.011,-468.46 414.275,-470.069"/>
<polygon fill="midnightblue" stroke="midnightblue" points="414.096,-473.575 424.466,-471.405 415.006,-466.635 414.096,-473.575"/>
</g>
<!-- Node13&#45;&gt;Node11 -->
<g id="edge14" class="edge"><title>Node13&#45;&gt;Node11</title>
<path fill="none" stroke="midnightblue" d="M377.229,-446.406C389.356,-444.749 402.011,-443.02 414.275,-441.345"/>
<polygon fill="midnightblue" stroke="midnightblue" points="415.032,-444.774 424.466,-439.953 414.084,-437.839 415.032,-444.774"/>
</g>
<!-- Node13&#45;&gt;Node12 -->
<g id="edge15" class="edge"><title>Node13&#45;&gt;Node12</title>
<path fill="none" stroke="midnightblue" d="M363.144,-440.993C371.628,-438.065 380.158,-434.727 388,-431 405.368,-422.745 406.9,-415.795 424,-407 428.032,-404.926 432.276,-402.93 436.589,-401.032"/>
<polygon fill="midnightblue" stroke="midnightblue" points="438.218,-404.143 446.08,-397.041 435.505,-397.691 438.218,-404.143"/>
</g>
</g>
</svg>
        <g id="navigator" transform="translate(0 0)" fill="#404254">
                <rect fill="#f2f5e9" fill-opacity="0.5" stroke="#606060" stroke-width=".5" x="0" y="0" width="60" height="60"/>
                <use id="zoomplus" xlink:href="#zoomPlus" x="17" y="9" onmousedown="handleZoom(evt,'in')"/>
                <use id="zoomminus" xlink:href="#zoomMin" x="42" y="9" onmousedown="handleZoom(evt,'out')"/>
                <use id="reset" xlink:href="#resetDef" x="30" y="36" onmousedown="handleReset()"/>
                <g id="arrowUp" xlink:href="#dirArrow" transform="translate(30 24)" onmousedown="handlePan(0,-1)">
                  <use xlink:href="#rim" fill="#404040">
                        <set attributeName="fill" to="#808080" begin="arrowUp.mouseover" end="arrowUp.mouseout"/>
                  </use>
                  <path fill="none" stroke="white" stroke-width="1.5" d="M0,-3.0v7 M-2.5,-0.5L0,-3.0L2.5,-0.5"/>
                </g>
                <g id="arrowRight" xlink:href="#dirArrow" transform="rotate(90) translate(36 -43)" onmousedown="handlePan(1,0)">
                  <use xlink:href="#rim" fill="#404040">
                        <set attributeName="fill" to="#808080" begin="arrowRight.mouseover" end="arrowRight.mouseout"/>
                  </use>
                  <path fill="none" stroke="white" stroke-width="1.5" d="M0,-3.0v7 M-2.5,-0.5L0,-3.0L2.5,-0.5"/>
                </g>
                <g id="arrowDown" xlink:href="#dirArrow" transform="rotate(180) translate(-30 -48)" onmousedown="handlePan(0,1)">
                  <use xlink:href="#rim" fill="#404040">
                        <set attributeName="fill" to="#808080" begin="arrowDown.mouseover" end="arrowDown.mouseout"/>
                  </use>
                  <path fill="none" stroke="white" stroke-width="1.5" d="M0,-3.0v7 M-2.5,-0.5L0,-3.0L2.5,-0.5"/>
                </g>
                <g id="arrowLeft" xlink:href="#dirArrow" transform="rotate(270) translate(-36 17)" onmousedown="handlePan(-1,0)">
                  <use xlink:href="#rim" fill="#404040">
                        <set attributeName="fill" to="#808080" begin="arrowLeft.mouseover" end="arrowLeft.mouseout"/>
                  </use>
                  <path fill="none" stroke="white" stroke-width="1.5" d="M0,-3.0v7 M-2.5,-0.5L0,-3.0L2.5,-0.5"/>
                </g>
        </g>
        <svg viewBox="0 0 15 15" width="100%" height="30px" preserveAspectRatio="xMaxYMin meet">
         <g id="arrow_out" transform="scale(0.3 0.3)">
          <a xlink:href="classgestorempleados_1_1control_1_1_negocio_cliente_a548fdf8f4ed9d73843e7106774535615_cgraph_org.svg" target="_base">
           <rect id="button" ry="5" rx="5" y="6" x="6" height="38" width="38"
                fill="#f2f5e9" fill-opacity="0.5" stroke="#606060" stroke-width="1.0"/>
           <path id="arrow"
             d="M 11.500037,31.436501 C 11.940474,20.09759 22.043105,11.32322 32.158766,21.979434 L 37.068811,17.246167 C 37.068811,17.246167 37.088388,32 37.088388,32 L 22.160133,31.978069 C 22.160133,31.978069 26.997745,27.140456 26.997745,27.140456 C 18.528582,18.264221 13.291696,25.230495 11.500037,31.436501 z"
             style="fill:#404040;"/>
          </a>
         </g>
        </svg>
</svg>
