<?xml version="1.0" encoding="UTF-8" standalone="no"?>
<!DOCTYPE svg PUBLIC "-//W3C//DTD SVG 1.1//EN"
 "http://www.w3.org/Graphics/SVG/1.1/DTD/svg11.dtd">
<!-- Generated by graphviz version 2.30.1 (20130214.1330)
 -->
<!-- Title: gestorempleados.interficie.Calendario Pages: 1 -->
<svg width="472pt" height="338pt"
 viewBox="0.00 0.00 472.00 338.00" xmlns="http://www.w3.org/2000/svg" xmlns:xlink="http://www.w3.org/1999/xlink">
<g id="graph0" class="graph" transform="scale(1 1) rotate(0) translate(4 334)">
<title>gestorempleados.interficie.Calendario</title>
<polygon fill="white" stroke="white" points="-4,5 -4,-334 469,-334 469,5 -4,5"/>
<!-- Node1 -->
<g id="node1" class="node"><title>Node1</title>
<polygon fill="#bfbfbf" stroke="black" points="115.5,-1 115.5,-201 248.5,-201 248.5,-1 115.5,-1"/>
<text text-anchor="start" x="123.5" y="-189" font-family="Helvetica,sans-Serif" font-size="10.00">gestorempleados.interficie.</text>
<text text-anchor="middle" x="182" y="-178" font-family="Helvetica,sans-Serif" font-size="10.00">Calendario</text>
<polyline fill="none" stroke="black" points="115.5,-171 248.5,-171 "/>
<text text-anchor="start" x="123.5" y="-159" font-family="Helvetica,sans-Serif" font-size="10.00">~ diaMax</text>
<text text-anchor="start" x="123.5" y="-148" font-family="Helvetica,sans-Serif" font-size="10.00">~ inicioMes</text>
<text text-anchor="start" x="123.5" y="-137" font-family="Helvetica,sans-Serif" font-size="10.00">~ meses</text>
<text text-anchor="start" x="123.5" y="-126" font-family="Helvetica,sans-Serif" font-size="10.00">~ dia</text>
<text text-anchor="start" x="123.5" y="-115" font-family="Helvetica,sans-Serif" font-size="10.00">~ mes</text>
<text text-anchor="start" x="123.5" y="-104" font-family="Helvetica,sans-Serif" font-size="10.00">~ year</text>
<polyline fill="none" stroke="black" points="115.5,-97 248.5,-97 "/>
<text text-anchor="start" x="123.5" y="-85" font-family="Helvetica,sans-Serif" font-size="10.00">+ getDia()</text>
<text text-anchor="start" x="123.5" y="-74" font-family="Helvetica,sans-Serif" font-size="10.00">+ setDia()</text>
<text text-anchor="start" x="123.5" y="-63" font-family="Helvetica,sans-Serif" font-size="10.00">+ getMes()</text>
<text text-anchor="start" x="123.5" y="-52" font-family="Helvetica,sans-Serif" font-size="10.00">+ setMes()</text>
<text text-anchor="start" x="123.5" y="-41" font-family="Helvetica,sans-Serif" font-size="10.00">+ getAno()</text>
<text text-anchor="start" x="123.5" y="-30" font-family="Helvetica,sans-Serif" font-size="10.00">+ setAno()</text>
<text text-anchor="start" x="123.5" y="-19" font-family="Helvetica,sans-Serif" font-size="10.00">+ Calendario()</text>
<text text-anchor="start" x="123.5" y="-8" font-family="Helvetica,sans-Serif" font-size="10.00">+ dibujar()</text>
</g>
<!-- Node2 -->
<g id="node2" class="node"><title>Node2</title>
<polygon fill="white" stroke="#bfbfbf" points="0,-272.5 0,-329.5 46,-329.5 46,-272.5 0,-272.5"/>
<text text-anchor="middle" x="23" y="-317.5" font-family="Helvetica,sans-Serif" font-size="10.00">JPanel</text>
<polyline fill="none" stroke="#bfbfbf" points="0,-310.5 46,-310.5 "/>
<text text-anchor="middle" x="23" y="-298.5" font-family="Helvetica,sans-Serif" font-size="10.00"> </text>
<polyline fill="none" stroke="#bfbfbf" points="0,-291.5 46,-291.5 "/>
<text text-anchor="middle" x="23" y="-279.5" font-family="Helvetica,sans-Serif" font-size="10.00"> </text>
</g>
<!-- Node2&#45;&gt;Node1 -->
<g id="edge1" class="edge"><title>Node2&#45;&gt;Node1</title>
<path fill="none" stroke="midnightblue" d="M16.1051,-262.042C15.3192,-248.165 16.5828,-232.754 23,-220 42.3907,-181.462 80.9819,-152.351 115.288,-132.685"/>
<polygon fill="none" stroke="midnightblue" points="12.6465,-262.651 17.0542,-272.286 19.6167,-262.005 12.6465,-262.651"/>
</g>
<!-- Node2&#45;&gt;Node1 -->
<g id="edge6" class="edge"><title>Node2&#45;&gt;Node1</title>
<path fill="none" stroke="#404040" d="M36.7805,-272.311C45.2073,-256.414 56.7073,-236.414 69,-220 80.4755,-204.677 93.7544,-189.231 107.088,-174.793"/>
<polygon fill="none" stroke="#404040" points="107.176,-174.7 108.36,-167.587 115.382,-165.944 114.198,-173.057 107.176,-174.7"/>
<text text-anchor="middle" x="89" y="-240" font-family="Helvetica,sans-Serif" font-size="10.00"> ~panel</text>
<text text-anchor="middle" x="89" y="-229" font-family="Helvetica,sans-Serif" font-size="10.00">~panel_1</text>
</g>
<!-- Node3 -->
<g id="node3" class="node"><title>Node3</title>
<polygon fill="white" stroke="#bfbfbf" points="77.5,-272.5 77.5,-329.5 132.5,-329.5 132.5,-272.5 77.5,-272.5"/>
<text text-anchor="middle" x="105" y="-317.5" font-family="Helvetica,sans-Serif" font-size="10.00">Calendar</text>
<polyline fill="none" stroke="#bfbfbf" points="77.5,-310.5 132.5,-310.5 "/>
<text text-anchor="middle" x="105" y="-298.5" font-family="Helvetica,sans-Serif" font-size="10.00"> </text>
<polyline fill="none" stroke="#bfbfbf" points="77.5,-291.5 132.5,-291.5 "/>
<text text-anchor="middle" x="105" y="-279.5" font-family="Helvetica,sans-Serif" font-size="10.00"> </text>
</g>
<!-- Node3&#45;&gt;Node1 -->
<g id="edge2" class="edge"><title>Node3&#45;&gt;Node1</title>
<path fill="none" stroke="#404040" d="M108.56,-272.462C111.063,-256.796 115.048,-236.975 121,-220 121.884,-217.48 122.812,-214.947 123.779,-212.407"/>
<polygon fill="none" stroke="#404040" points="123.789,-212.383 122.308,-205.325 128.252,-201.244 129.734,-208.301 123.789,-212.383"/>
<text text-anchor="middle" x="148" y="-240" font-family="Helvetica,sans-Serif" font-size="10.00"> ~calendario</text>
<text text-anchor="middle" x="148" y="-229" font-family="Helvetica,sans-Serif" font-size="10.00">~calcopia</text>
</g>
<!-- Node4 -->
<g id="node4" class="node"><title>Node4</title>
<polygon fill="white" stroke="#bfbfbf" points="151,-272.5 151,-329.5 205,-329.5 205,-272.5 151,-272.5"/>
<text text-anchor="middle" x="178" y="-317.5" font-family="Helvetica,sans-Serif" font-size="10.00">JSpinner</text>
<polyline fill="none" stroke="#bfbfbf" points="151,-310.5 205,-310.5 "/>
<text text-anchor="middle" x="178" y="-298.5" font-family="Helvetica,sans-Serif" font-size="10.00"> </text>
<polyline fill="none" stroke="#bfbfbf" points="151,-291.5 205,-291.5 "/>
<text text-anchor="middle" x="178" y="-279.5" font-family="Helvetica,sans-Serif" font-size="10.00"> </text>
</g>
<!-- Node4&#45;&gt;Node1 -->
<g id="edge3" class="edge"><title>Node4&#45;&gt;Node1</title>
<path fill="none" stroke="#404040" d="M178.556,-272.469C178.877,-256.6 179.303,-235.484 179.747,-213.534"/>
<polygon fill="none" stroke="#404040" points="179.752,-213.279 175.874,-207.199 179.994,-201.281 183.872,-207.361 179.752,-213.279"/>
<text text-anchor="middle" x="197" y="-240" font-family="Helvetica,sans-Serif" font-size="10.00"> ~spDia</text>
<text text-anchor="middle" x="197" y="-229" font-family="Helvetica,sans-Serif" font-size="10.00">~spAno</text>
</g>
<!-- Node5 -->
<g id="node5" class="node"><title>Node5</title>
<polygon fill="white" stroke="#bfbfbf" points="223.5,-272.5 223.5,-329.5 292.5,-329.5 292.5,-272.5 223.5,-272.5"/>
<text text-anchor="middle" x="258" y="-317.5" font-family="Helvetica,sans-Serif" font-size="10.00">JComboBox</text>
<polyline fill="none" stroke="#bfbfbf" points="223.5,-310.5 292.5,-310.5 "/>
<text text-anchor="middle" x="258" y="-298.5" font-family="Helvetica,sans-Serif" font-size="10.00"> </text>
<polyline fill="none" stroke="#bfbfbf" points="223.5,-291.5 292.5,-291.5 "/>
<text text-anchor="middle" x="258" y="-279.5" font-family="Helvetica,sans-Serif" font-size="10.00"> </text>
</g>
<!-- Node5&#45;&gt;Node1 -->
<g id="edge4" class="edge"><title>Node5&#45;&gt;Node1</title>
<path fill="none" stroke="#404040" d="M247.433,-272.469C241.257,-256.379 233.011,-234.897 224.46,-212.619"/>
<polygon fill="none" stroke="#404040" points="224.408,-212.484 218.524,-208.316 220.108,-201.281 225.992,-205.449 224.408,-212.484"/>
<text text-anchor="middle" x="259.5" y="-234.5" font-family="Helvetica,sans-Serif" font-size="10.00"> ~cbMes</text>
</g>
<!-- Node6 -->
<g id="node6" class="node"><title>Node6</title>
<polygon fill="white" stroke="#bfbfbf" points="311,-272.5 311,-329.5 355,-329.5 355,-272.5 311,-272.5"/>
<text text-anchor="middle" x="333" y="-317.5" font-family="Helvetica,sans-Serif" font-size="10.00">JLabel</text>
<polyline fill="none" stroke="#bfbfbf" points="311,-310.5 355,-310.5 "/>
<text text-anchor="middle" x="333" y="-298.5" font-family="Helvetica,sans-Serif" font-size="10.00"> </text>
<polyline fill="none" stroke="#bfbfbf" points="311,-291.5 355,-291.5 "/>
<text text-anchor="middle" x="333" y="-279.5" font-family="Helvetica,sans-Serif" font-size="10.00"> </text>
</g>
<!-- Node6&#45;&gt;Node1 -->
<g id="edge5" class="edge"><title>Node6&#45;&gt;Node1</title>
<path fill="none" stroke="#404040" d="M317.084,-272.304C307.711,-256.587 295.309,-236.767 283,-220 274.709,-208.707 265.624,-197.138 256.408,-185.869"/>
<polygon fill="none" stroke="#404040" points="256.298,-185.736 249.391,-183.66 248.651,-176.488 255.557,-178.563 256.298,-185.736"/>
<text text-anchor="middle" x="334" y="-245.5" font-family="Helvetica,sans-Serif" font-size="10.00"> ~lblAo</text>
<text text-anchor="middle" x="334" y="-234.5" font-family="Helvetica,sans-Serif" font-size="10.00">~lblMes</text>
<text text-anchor="middle" x="334" y="-223.5" font-family="Helvetica,sans-Serif" font-size="10.00">~lblNewLabel</text>
</g>
<!-- Node7 -->
<g id="node7" class="node"><title>Node7</title>
<polygon fill="white" stroke="#bfbfbf" points="373.5,-272.5 373.5,-329.5 464.5,-329.5 464.5,-272.5 373.5,-272.5"/>
<text text-anchor="middle" x="419" y="-317.5" font-family="Helvetica,sans-Serif" font-size="10.00">Vector&lt; JLabel &gt;</text>
<polyline fill="none" stroke="#bfbfbf" points="373.5,-310.5 464.5,-310.5 "/>
<text text-anchor="middle" x="419" y="-298.5" font-family="Helvetica,sans-Serif" font-size="10.00"> </text>
<polyline fill="none" stroke="#bfbfbf" points="373.5,-291.5 464.5,-291.5 "/>
<text text-anchor="middle" x="419" y="-279.5" font-family="Helvetica,sans-Serif" font-size="10.00"> </text>
</g>
<!-- Node7&#45;&gt;Node1 -->
<g id="edge7" class="edge"><title>Node7&#45;&gt;Node1</title>
<path fill="none" stroke="#404040" d="M404.936,-272.334C395.666,-255.869 382.41,-235.278 367,-220 335.619,-188.887 294.692,-161.742 259.314,-141.358"/>
<polygon fill="none" stroke="#404040" points="258.972,-141.164 251.78,-141.688 248.529,-135.251 255.721,-134.727 258.972,-141.164"/>
<text text-anchor="middle" x="420" y="-240" font-family="Helvetica,sans-Serif" font-size="10.00"> ~vLabelLet</text>
<text text-anchor="middle" x="420" y="-229" font-family="Helvetica,sans-Serif" font-size="10.00">~vLabelNum</text>
</g>
</g>
</svg>
