<?xml version="1.0" encoding="UTF-8" standalone="no"?>
<!DOCTYPE svg PUBLIC "-//W3C//DTD SVG 1.1//EN"
 "http://www.w3.org/Graphics/SVG/1.1/DTD/svg11.dtd">
<!-- Generated by graphviz version 2.30.1 (20130214.1330)
 -->
<!-- Title: gestorempleados.control.NegocioCliente.validateId Pages: 1 -->
<svg width="320pt" height="50pt"
 viewBox="0.00 0.00 320.00 50.00" xmlns="http://www.w3.org/2000/svg" xmlns:xlink="http://www.w3.org/1999/xlink">
<g id="graph0" class="graph" transform="scale(1 1) rotate(0) translate(4 46)">
<title>gestorempleados.control.NegocioCliente.validateId</title>
<polygon fill="white" stroke="white" points="-4,5 -4,-46 317,-46 317,5 -4,5"/>
<!-- Node1 -->
<g id="node1" class="node"><title>Node1</title>
<polygon fill="#bfbfbf" stroke="black" points="0,-6 0,-36 126,-36 126,-6 0,-6"/>
<text text-anchor="start" x="8" y="-24" font-family="Helvetica,sans-Serif" font-size="10.00">gestorempleados.control.</text>
<text text-anchor="middle" x="63" y="-13" font-family="Helvetica,sans-Serif" font-size="10.00">NegocioCliente.validateId</text>
</g>
<!-- Node2 -->
<g id="node2" class="node"><title>Node2</title>
<g id="a_node2"><a xlink:href="classgestorempleados_1_1interficie_1_1_panel___datos_personales.xhtml#a3c7e18bd89aaa31bb40ce20d753b4510" target="_top" xlink:title="gestorempleados.interficie.\lPanel_DatosPersonales.Panel\l_DatosPersonales">
<polygon fill="white" stroke="black" points="162.5,-0.5 162.5,-41.5 311.5,-41.5 311.5,-0.5 162.5,-0.5"/>
<text text-anchor="start" x="170.5" y="-29.5" font-family="Helvetica,sans-Serif" font-size="10.00">gestorempleados.interficie.</text>
<text text-anchor="start" x="170.5" y="-18.5" font-family="Helvetica,sans-Serif" font-size="10.00">Panel_DatosPersonales.Panel</text>
<text text-anchor="middle" x="237" y="-7.5" font-family="Helvetica,sans-Serif" font-size="10.00">_DatosPersonales</text>
</a>
</g>
</g>
<!-- Node1&#45;&gt;Node2 -->
<g id="edge1" class="edge"><title>Node1&#45;&gt;Node2</title>
<path fill="none" stroke="midnightblue" d="M136.133,-21C144.776,-21 153.611,-21 162.277,-21"/>
<polygon fill="midnightblue" stroke="midnightblue" points="136.096,-17.5001 126.096,-21 136.096,-24.5001 136.096,-17.5001"/>
</g>
</g>
</svg>
