<?xml version="1.0" encoding="UTF-8" standalone="no"?>
<!DOCTYPE svg PUBLIC "-//W3C//DTD SVG 1.1//EN"
 "http://www.w3.org/Graphics/SVG/1.1/DTD/svg11.dtd">
<!-- Generated by graphviz version 2.30.1 (20130214.1330)
 -->
<!-- Title: plugins.Panel_Alta Pages: 1 -->
<svg width="142pt" height="248pt"
 viewBox="0.00 0.00 142.00 248.00" xmlns="http://www.w3.org/2000/svg" xmlns:xlink="http://www.w3.org/1999/xlink">
<g id="graph0" class="graph" transform="scale(1 1) rotate(0) translate(4 244)">
<title>plugins.Panel_Alta</title>
<polygon fill="white" stroke="white" points="-4,5 -4,-244 139,-244 139,5 -4,5"/>
<!-- Node1 -->
<g id="node1" class="node"><title>Node1</title>
<polygon fill="#bfbfbf" stroke="black" points="0,-0.5 0,-145.5 126,-145.5 126,-0.5 0,-0.5"/>
<text text-anchor="middle" x="63" y="-133.5" font-family="Helvetica,sans-Serif" font-size="10.00">plugins.Panel_Alta</text>
<polyline fill="none" stroke="black" points="0,-126.5 126,-126.5 "/>
<text text-anchor="start" x="8" y="-114.5" font-family="Helvetica,sans-Serif" font-size="10.00">+ datos_personales</text>
<text text-anchor="start" x="8" y="-103.5" font-family="Helvetica,sans-Serif" font-size="10.00">+ datos_curriculo</text>
<text text-anchor="start" x="8" y="-92.5" font-family="Helvetica,sans-Serif" font-size="10.00">+ datos_contrato</text>
<text text-anchor="start" x="8" y="-81.5" font-family="Helvetica,sans-Serif" font-size="10.00">~ nuevo_contratoPanel</text>
<text text-anchor="start" x="8" y="-70.5" font-family="Helvetica,sans-Serif" font-size="10.00">&#45; altaPanelLabel</text>
<text text-anchor="start" x="8" y="-59.5" font-family="Helvetica,sans-Serif" font-size="10.00">&#45; tabbedPane</text>
<polyline fill="none" stroke="black" points="0,-52.5 126,-52.5 "/>
<text text-anchor="start" x="8" y="-40.5" font-family="Helvetica,sans-Serif" font-size="10.00">+ Panel_Alta()</text>
<text text-anchor="start" x="8" y="-29.5" font-family="Helvetica,sans-Serif" font-size="10.00">+ crearPanel()</text>
<text text-anchor="start" x="8" y="-18.5" font-family="Helvetica,sans-Serif" font-size="10.00">+ isCamposDatosOK()</text>
<text text-anchor="start" x="8" y="-7.5" font-family="Helvetica,sans-Serif" font-size="10.00">+ isCamposContratoOK()</text>
</g>
<!-- Node2 -->
<g id="node2" class="node"><title>Node2</title>
<polygon fill="white" stroke="#bfbfbf" points="3,-182.5 3,-239.5 49,-239.5 49,-182.5 3,-182.5"/>
<text text-anchor="middle" x="26" y="-227.5" font-family="Helvetica,sans-Serif" font-size="10.00">JPanel</text>
<polyline fill="none" stroke="#bfbfbf" points="3,-220.5 49,-220.5 "/>
<text text-anchor="middle" x="26" y="-208.5" font-family="Helvetica,sans-Serif" font-size="10.00"> </text>
<polyline fill="none" stroke="#bfbfbf" points="3,-201.5 49,-201.5 "/>
<text text-anchor="middle" x="26" y="-189.5" font-family="Helvetica,sans-Serif" font-size="10.00"> </text>
</g>
<!-- Node2&#45;&gt;Node1 -->
<g id="edge1" class="edge"><title>Node2&#45;&gt;Node1</title>
<path fill="none" stroke="midnightblue" d="M36.1657,-172.634C38.4598,-164.202 40.9701,-154.975 43.5054,-145.656"/>
<polygon fill="none" stroke="midnightblue" points="32.7355,-171.91 33.4875,-182.478 39.49,-173.748 32.7355,-171.91"/>
</g>
<!-- Node3 -->
<g id="node3" class="node"><title>Node3</title>
<polygon fill="white" stroke="#bfbfbf" points="67.5,-182.5 67.5,-239.5 134.5,-239.5 134.5,-182.5 67.5,-182.5"/>
<text text-anchor="middle" x="101" y="-227.5" font-family="Helvetica,sans-Serif" font-size="10.00">Serializable</text>
<polyline fill="none" stroke="#bfbfbf" points="67.5,-220.5 134.5,-220.5 "/>
<text text-anchor="middle" x="101" y="-208.5" font-family="Helvetica,sans-Serif" font-size="10.00"> </text>
<polyline fill="none" stroke="#bfbfbf" points="67.5,-201.5 134.5,-201.5 "/>
<text text-anchor="middle" x="101" y="-189.5" font-family="Helvetica,sans-Serif" font-size="10.00"> </text>
</g>
<!-- Node3&#45;&gt;Node1 -->
<g id="edge2" class="edge"><title>Node3&#45;&gt;Node1</title>
<path fill="none" stroke="midnightblue" d="M90.5595,-172.634C88.2034,-164.202 85.6253,-154.975 83.0215,-145.656"/>
<polygon fill="none" stroke="midnightblue" points="87.2481,-173.789 93.3101,-182.478 93.9899,-171.905 87.2481,-173.789"/>
</g>
</g>
</svg>
