<?xml version="1.0" encoding="UTF-8" standalone="no"?>
<!DOCTYPE svg PUBLIC "-//W3C//DTD SVG 1.1//EN"
 "http://www.w3.org/Graphics/SVG/1.1/DTD/svg11.dtd">
<!-- Generated by graphviz version 2.30.1 (20130214.1330)
 -->
<!-- Title: gestorempleados.conector.ConectorCliente Pages: 1 -->
<!--zoomable 194 -->
<svg id="main" version="1.1" xmlns="http://www.w3.org/2000/svg" xmlns:xlink="http://www.w3.org/1999/xlink" xml:space="preserve" onload="init(evt)">
<style type="text/css"><![CDATA[
.edge:hover path { stroke: red; }
.edge:hover polygon { stroke: red; fill: red; }
]]></style>
<script type="text/javascript"><![CDATA[
var edges = document.getElementsByTagName('g');
if (edges && edges.length) {
  for (var i=0;i<edges.length;i++) {
    if (edges[i].id.substr(0,4)=='edge') {
      edges[i].setAttribute('class','edge');
    }
  }
}
]]></script>
        <defs>
                <circle id="rim" cx="0" cy="0" r="7"/>
                <circle id="rim2" cx="0" cy="0" r="3.5"/>
                <g id="zoomPlus">
                        <use xlink:href="#rim" fill="#404040">
                                <set attributeName="fill" to="#808080" begin="zoomplus.mouseover" end="zoomplus.mouseout"/>
                        </use>
                        <path d="M-4,0h8M0,-4v8" fill="none" stroke="white" stroke-width="1.5" pointer-events="none"/>
                </g>
                <g id="zoomMin">
                        <use xlink:href="#rim" fill="#404040">
                                <set attributeName="fill" to="#808080" begin="zoomminus.mouseover" end="zoomminus.mouseout"/>
                        </use>
                        <path d="M-4,0h8" fill="none" stroke="white" stroke-width="1.5" pointer-events="none"/>
                </g>
                <g id="dirArrow">
                        <path fill="none" stroke="white" stroke-width="1.5" d="M0,-3.0v7 M-2.5,-0.5L0,-3.0L2.5,-0.5"/>
                </g>
               <g id="resetDef">
                       <use xlink:href="#rim2" fill="#404040">
                               <set attributeName="fill" to="#808080" begin="reset.mouseover" end="reset.mouseout"/>
                       </use>
               </g>
        </defs>

<script type="text/javascript">
var viewWidth = 787;
var viewHeight = 194;
var sectionId = 'dynsection-0';
</script>
<script xlink:href="svgpan.js"/>
<svg id="graph" class="graph">
<g id="viewport">
<title>gestorempleados.conector.ConectorCliente</title>
<polygon fill="white" stroke="white" points="-4,5 -4,-190 784,-190 784,5 -4,5"/>
<!-- Node1 -->
<g id="node1" class="node"><title>Node1</title>
<polygon fill="#bfbfbf" stroke="black" points="376,-0.5 376,-79.5 510,-79.5 510,-0.5 376,-0.5"/>
<text text-anchor="start" x="384" y="-67.5" font-family="Helvetica,sans-Serif" font-size="10.00">gestorempleados.conector.</text>
<text text-anchor="middle" x="443" y="-56.5" font-family="Helvetica,sans-Serif" font-size="10.00">ConectorCliente</text>
<polyline fill="none" stroke="black" points="376,-49.5 510,-49.5 "/>
<text text-anchor="middle" x="443" y="-37.5" font-family="Helvetica,sans-Serif" font-size="10.00"> </text>
<polyline fill="none" stroke="black" points="376,-30.5 510,-30.5 "/>
<text text-anchor="start" x="384" y="-18.5" font-family="Helvetica,sans-Serif" font-size="10.00">+ ConectorCliente()</text>
<text text-anchor="start" x="384" y="-7.5" font-family="Helvetica,sans-Serif" font-size="10.00">+ sendPacket()</text>
</g>
<!-- Node2 -->
<g id="node2" class="node"><title>Node2</title>
<polygon fill="white" stroke="#bfbfbf" points="-0.5,-128.5 -0.5,-185.5 104.5,-185.5 104.5,-128.5 -0.5,-128.5"/>
<text text-anchor="middle" x="52" y="-173.5" font-family="Helvetica,sans-Serif" font-size="10.00">CipherOutputStream</text>
<polyline fill="none" stroke="#bfbfbf" points="-0.5,-166.5 104.5,-166.5 "/>
<text text-anchor="middle" x="52" y="-154.5" font-family="Helvetica,sans-Serif" font-size="10.00"> </text>
<polyline fill="none" stroke="#bfbfbf" points="-0.5,-147.5 104.5,-147.5 "/>
<text text-anchor="middle" x="52" y="-135.5" font-family="Helvetica,sans-Serif" font-size="10.00"> </text>
</g>
<!-- Node2&#45;&gt;Node1 -->
<g id="edge1" class="edge"><title>Node2&#45;&gt;Node1</title>
<path fill="none" stroke="#404040" d="M104.595,-131.764C107.762,-130.455 110.915,-129.19 114,-128 197.072,-95.9593 296.351,-71.4927 363.967,-56.7863"/>
<polygon fill="none" stroke="#404040" points="364.062,-56.766 369.087,-51.5941 375.794,-54.2434 370.769,-59.4153 364.062,-56.766"/>
<text text-anchor="middle" x="239" y="-101.5" font-family="Helvetica,sans-Serif" font-size="10.00"> +escritorCifrado</text>
</g>
<!-- Node3 -->
<g id="node3" class="node"><title>Node3</title>
<polygon fill="white" stroke="#bfbfbf" points="123,-128.5 123,-185.5 229,-185.5 229,-128.5 123,-128.5"/>
<text text-anchor="middle" x="176" y="-173.5" font-family="Helvetica,sans-Serif" font-size="10.00">ObjectOutputStream</text>
<polyline fill="none" stroke="#bfbfbf" points="123,-166.5 229,-166.5 "/>
<text text-anchor="middle" x="176" y="-154.5" font-family="Helvetica,sans-Serif" font-size="10.00"> </text>
<polyline fill="none" stroke="#bfbfbf" points="123,-147.5 229,-147.5 "/>
<text text-anchor="middle" x="176" y="-135.5" font-family="Helvetica,sans-Serif" font-size="10.00"> </text>
</g>
<!-- Node3&#45;&gt;Node1 -->
<g id="edge2" class="edge"><title>Node3&#45;&gt;Node1</title>
<path fill="none" stroke="#404040" d="M229.078,-131.97C232.094,-130.623 235.085,-129.292 238,-128 279.662,-109.537 326.416,-89.6326 364.742,-73.5284"/>
<polygon fill="none" stroke="#404040" points="364.767,-73.518 368.752,-67.5082 375.833,-68.8754 371.847,-74.8852 364.767,-73.518"/>
<text text-anchor="middle" x="327" y="-101.5" font-family="Helvetica,sans-Serif" font-size="10.00"> +escritor</text>
</g>
<!-- Node4 -->
<g id="node4" class="node"><title>Node4</title>
<polygon fill="white" stroke="#bfbfbf" points="247.5,-128.5 247.5,-185.5 332.5,-185.5 332.5,-128.5 247.5,-128.5"/>
<text text-anchor="middle" x="290" y="-173.5" font-family="Helvetica,sans-Serif" font-size="10.00">FileInputStream</text>
<polyline fill="none" stroke="#bfbfbf" points="247.5,-166.5 332.5,-166.5 "/>
<text text-anchor="middle" x="290" y="-154.5" font-family="Helvetica,sans-Serif" font-size="10.00"> </text>
<polyline fill="none" stroke="#bfbfbf" points="247.5,-147.5 332.5,-147.5 "/>
<text text-anchor="middle" x="290" y="-135.5" font-family="Helvetica,sans-Serif" font-size="10.00"> </text>
</g>
<!-- Node4&#45;&gt;Node1 -->
<g id="edge3" class="edge"><title>Node4&#45;&gt;Node1</title>
<path fill="none" stroke="#404040" d="M326.647,-128.455C343.21,-116.006 363.229,-100.958 381.959,-86.8803"/>
<polygon fill="none" stroke="#404040" points="382.018,-86.8358 384.411,-80.0333 391.611,-79.6258 389.218,-86.4283 382.018,-86.8358"/>
<text text-anchor="middle" x="376.5" y="-101.5" font-family="Helvetica,sans-Serif" font-size="10.00"> +fis</text>
</g>
<!-- Node5 -->
<g id="node5" class="node"><title>Node5</title>
<polygon fill="white" stroke="#bfbfbf" points="350.5,-128.5 350.5,-185.5 447.5,-185.5 447.5,-128.5 350.5,-128.5"/>
<text text-anchor="middle" x="399" y="-173.5" font-family="Helvetica,sans-Serif" font-size="10.00">CipherInputStream</text>
<polyline fill="none" stroke="#bfbfbf" points="350.5,-166.5 447.5,-166.5 "/>
<text text-anchor="middle" x="399" y="-154.5" font-family="Helvetica,sans-Serif" font-size="10.00"> </text>
<polyline fill="none" stroke="#bfbfbf" points="350.5,-147.5 447.5,-147.5 "/>
<text text-anchor="middle" x="399" y="-135.5" font-family="Helvetica,sans-Serif" font-size="10.00"> </text>
</g>
<!-- Node5&#45;&gt;Node1 -->
<g id="edge4" class="edge"><title>Node5&#45;&gt;Node1</title>
<path fill="none" stroke="#404040" d="M397.264,-128.235C397.472,-118.445 398.66,-107.514 402,-98 402.902,-95.4301 403.959,-92.8745 405.137,-90.3505"/>
<polygon fill="none" stroke="#404040" points="405.273,-90.0989 404.602,-82.9191 410.971,-79.5382 411.642,-86.718 405.273,-90.0989"/>
<text text-anchor="middle" x="434" y="-101.5" font-family="Helvetica,sans-Serif" font-size="10.00"> +lectorCifrado</text>
</g>
<!-- Node6 -->
<g id="node6" class="node"><title>Node6</title>
<polygon fill="white" stroke="#bfbfbf" points="466,-128.5 466,-185.5 510,-185.5 510,-128.5 466,-128.5"/>
<text text-anchor="middle" x="488" y="-173.5" font-family="Helvetica,sans-Serif" font-size="10.00">Cipher</text>
<polyline fill="none" stroke="#bfbfbf" points="466,-166.5 510,-166.5 "/>
<text text-anchor="middle" x="488" y="-154.5" font-family="Helvetica,sans-Serif" font-size="10.00"> </text>
<polyline fill="none" stroke="#bfbfbf" points="466,-147.5 510,-147.5 "/>
<text text-anchor="middle" x="488" y="-135.5" font-family="Helvetica,sans-Serif" font-size="10.00"> </text>
</g>
<!-- Node6&#45;&gt;Node1 -->
<g id="edge5" class="edge"><title>Node6&#45;&gt;Node1</title>
<path fill="none" stroke="#404040" d="M477.599,-128.223C473.972,-118.631 469.846,-107.828 466,-98 465.089,-95.671 464.151,-93.2906 463.2,-90.8879"/>
<polygon fill="none" stroke="#404040" points="463.14,-90.7371 457.203,-86.6438 458.699,-79.5894 464.635,-83.6827 463.14,-90.7371"/>
<text text-anchor="middle" x="477" y="-101.5" font-family="Helvetica,sans-Serif" font-size="10.00"> &#45;c</text>
</g>
<!-- Node7 -->
<g id="node7" class="node"><title>Node7</title>
<polygon fill="white" stroke="#bfbfbf" points="528,-128.5 528,-185.5 626,-185.5 626,-128.5 528,-128.5"/>
<text text-anchor="middle" x="577" y="-173.5" font-family="Helvetica,sans-Serif" font-size="10.00">ObjectInputStream</text>
<polyline fill="none" stroke="#bfbfbf" points="528,-166.5 626,-166.5 "/>
<text text-anchor="middle" x="577" y="-154.5" font-family="Helvetica,sans-Serif" font-size="10.00"> </text>
<polyline fill="none" stroke="#bfbfbf" points="528,-147.5 626,-147.5 "/>
<text text-anchor="middle" x="577" y="-135.5" font-family="Helvetica,sans-Serif" font-size="10.00"> </text>
</g>
<!-- Node7&#45;&gt;Node1 -->
<g id="edge6" class="edge"><title>Node7&#45;&gt;Node1</title>
<path fill="none" stroke="#404040" d="M544.904,-128.455C530.664,-116.234 513.507,-101.51 497.365,-87.6562"/>
<polygon fill="none" stroke="#404040" points="497.114,-87.4409 489.956,-86.5688 488.007,-79.6258 495.166,-80.4979 497.114,-87.4409"/>
<text text-anchor="middle" x="540" y="-101.5" font-family="Helvetica,sans-Serif" font-size="10.00"> +lector</text>
</g>
<!-- Node8 -->
<g id="node8" class="node"><title>Node8</title>
<polygon fill="white" stroke="#bfbfbf" points="644.5,-128.5 644.5,-185.5 691.5,-185.5 691.5,-128.5 644.5,-128.5"/>
<text text-anchor="middle" x="668" y="-173.5" font-family="Helvetica,sans-Serif" font-size="10.00">Socket</text>
<polyline fill="none" stroke="#bfbfbf" points="644.5,-166.5 691.5,-166.5 "/>
<text text-anchor="middle" x="668" y="-154.5" font-family="Helvetica,sans-Serif" font-size="10.00"> </text>
<polyline fill="none" stroke="#bfbfbf" points="644.5,-147.5 691.5,-147.5 "/>
<text text-anchor="middle" x="668" y="-135.5" font-family="Helvetica,sans-Serif" font-size="10.00"> </text>
</g>
<!-- Node8&#45;&gt;Node1 -->
<g id="edge7" class="edge"><title>Node8&#45;&gt;Node1</title>
<path fill="none" stroke="#404040" d="M644.45,-134.692C641.367,-132.303 638.174,-130.01 635,-128 599.569,-105.562 557.385,-85.7793 521.593,-70.7704"/>
<polygon fill="none" stroke="#404040" points="521.304,-70.651 514.232,-72.0562 510.214,-66.0678 517.287,-64.6626 521.304,-70.651"/>
<text text-anchor="middle" x="633" y="-101.5" font-family="Helvetica,sans-Serif" font-size="10.00"> +socketClient</text>
</g>
<!-- Node9 -->
<g id="node9" class="node"><title>Node9</title>
<polygon fill="white" stroke="#bfbfbf" points="717,-128.5 717,-185.5 779,-185.5 779,-128.5 717,-128.5"/>
<text text-anchor="middle" x="748" y="-173.5" font-family="Helvetica,sans-Serif" font-size="10.00">SecretKey</text>
<polyline fill="none" stroke="#bfbfbf" points="717,-166.5 779,-166.5 "/>
<text text-anchor="middle" x="748" y="-154.5" font-family="Helvetica,sans-Serif" font-size="10.00"> </text>
<polyline fill="none" stroke="#bfbfbf" points="717,-147.5 779,-147.5 "/>
<text text-anchor="middle" x="748" y="-135.5" font-family="Helvetica,sans-Serif" font-size="10.00"> </text>
</g>
<!-- Node9&#45;&gt;Node1 -->
<g id="edge8" class="edge"><title>Node9&#45;&gt;Node1</title>
<path fill="none" stroke="#404040" d="M716.745,-128.705C702.899,-117.805 685.932,-105.975 669,-98 622.557,-76.1253 566.641,-61.9327 522.048,-53.1805"/>
<polygon fill="none" stroke="#404040" points="521.873,-53.1475 515.232,-55.9578 510.084,-50.9087 516.725,-48.0983 521.873,-53.1475"/>
<text text-anchor="middle" x="702" y="-101.5" font-family="Helvetica,sans-Serif" font-size="10.00"> &#45;key</text>
</g>
</g>
</svg>
        <g id="navigator" transform="translate(0 0)" fill="#404254">
                <rect fill="#f2f5e9" fill-opacity="0.5" stroke="#606060" stroke-width=".5" x="0" y="0" width="60" height="60"/>
                <use id="zoomplus" xlink:href="#zoomPlus" x="17" y="9" onmousedown="handleZoom(evt,'in')"/>
                <use id="zoomminus" xlink:href="#zoomMin" x="42" y="9" onmousedown="handleZoom(evt,'out')"/>
                <use id="reset" xlink:href="#resetDef" x="30" y="36" onmousedown="handleReset()"/>
                <g id="arrowUp" xlink:href="#dirArrow" transform="translate(30 24)" onmousedown="handlePan(0,-1)">
                  <use xlink:href="#rim" fill="#404040">
                        <set attributeName="fill" to="#808080" begin="arrowUp.mouseover" end="arrowUp.mouseout"/>
                  </use>
                  <path fill="none" stroke="white" stroke-width="1.5" d="M0,-3.0v7 M-2.5,-0.5L0,-3.0L2.5,-0.5"/>
                </g>
                <g id="arrowRight" xlink:href="#dirArrow" transform="rotate(90) translate(36 -43)" onmousedown="handlePan(1,0)">
                  <use xlink:href="#rim" fill="#404040">
                        <set attributeName="fill" to="#808080" begin="arrowRight.mouseover" end="arrowRight.mouseout"/>
                  </use>
                  <path fill="none" stroke="white" stroke-width="1.5" d="M0,-3.0v7 M-2.5,-0.5L0,-3.0L2.5,-0.5"/>
                </g>
                <g id="arrowDown" xlink:href="#dirArrow" transform="rotate(180) translate(-30 -48)" onmousedown="handlePan(0,1)">
                  <use xlink:href="#rim" fill="#404040">
                        <set attributeName="fill" to="#808080" begin="arrowDown.mouseover" end="arrowDown.mouseout"/>
                  </use>
                  <path fill="none" stroke="white" stroke-width="1.5" d="M0,-3.0v7 M-2.5,-0.5L0,-3.0L2.5,-0.5"/>
                </g>
                <g id="arrowLeft" xlink:href="#dirArrow" transform="rotate(270) translate(-36 17)" onmousedown="handlePan(-1,0)">
                  <use xlink:href="#rim" fill="#404040">
                        <set attributeName="fill" to="#808080" begin="arrowLeft.mouseover" end="arrowLeft.mouseout"/>
                  </use>
                  <path fill="none" stroke="white" stroke-width="1.5" d="M0,-3.0v7 M-2.5,-0.5L0,-3.0L2.5,-0.5"/>
                </g>
        </g>
        <svg viewBox="0 0 15 15" width="100%" height="30px" preserveAspectRatio="xMaxYMin meet">
         <g id="arrow_out" transform="scale(0.3 0.3)">
          <a xlink:href="classgestorempleados_1_1conector_1_1_conector_cliente__coll__graph_org.svg" target="_base">
           <rect id="button" ry="5" rx="5" y="6" x="6" height="38" width="38"
                fill="#f2f5e9" fill-opacity="0.5" stroke="#606060" stroke-width="1.0"/>
           <path id="arrow"
             d="M 11.500037,31.436501 C 11.940474,20.09759 22.043105,11.32322 32.158766,21.979434 L 37.068811,17.246167 C 37.068811,17.246167 37.088388,32 37.088388,32 L 22.160133,31.978069 C 22.160133,31.978069 26.997745,27.140456 26.997745,27.140456 C 18.528582,18.264221 13.291696,25.230495 11.500037,31.436501 z"
             style="fill:#404040;"/>
          </a>
         </g>
        </svg>
</svg>
