<?xml version="1.0" encoding="UTF-8" standalone="no"?>
<!DOCTYPE svg PUBLIC "-//W3C//DTD SVG 1.1//EN"
 "http://www.w3.org/Graphics/SVG/1.1/DTD/svg11.dtd">
<!-- Generated by graphviz version 2.30.1 (20130214.1330)
 -->
<!-- Title: gestorempleados.conector.Packet.getArchivo Pages: 1 -->
<svg width="496pt" height="87pt"
 viewBox="0.00 0.00 496.00 87.00" xmlns="http://www.w3.org/2000/svg" xmlns:xlink="http://www.w3.org/1999/xlink">
<g id="graph0" class="graph" transform="scale(1 1) rotate(0) translate(4 83)">
<title>gestorempleados.conector.Packet.getArchivo</title>
<polygon fill="white" stroke="white" points="-4,5 -4,-83 493,-83 493,5 -4,5"/>
<!-- Node1 -->
<g id="node1" class="node"><title>Node1</title>
<polygon fill="#bfbfbf" stroke="black" points="0,-24 0,-54 134,-54 134,-24 0,-24"/>
<text text-anchor="start" x="8" y="-42" font-family="Helvetica,sans-Serif" font-size="10.00">gestorempleados.conector.</text>
<text text-anchor="middle" x="67" y="-31" font-family="Helvetica,sans-Serif" font-size="10.00">Packet.getArchivo</text>
</g>
<!-- Node2 -->
<g id="node2" class="node"><title>Node2</title>
<g id="a_node2"><a xlink:href="classgestorempleados_1_1control_1_1_negocio_cliente.xhtml#acb0bab9fbbddd5c886bc9f2ddfe6e695" target="_top" xlink:title="gestorempleados.control.\lNegocioCliente.getReporte">
<polygon fill="white" stroke="black" points="170,-24 170,-54 302,-54 302,-24 170,-24"/>
<text text-anchor="start" x="178" y="-42" font-family="Helvetica,sans-Serif" font-size="10.00">gestorempleados.control.</text>
<text text-anchor="middle" x="236" y="-31" font-family="Helvetica,sans-Serif" font-size="10.00">NegocioCliente.getReporte</text>
</a>
</g>
</g>
<!-- Node1&#45;&gt;Node2 -->
<g id="edge1" class="edge"><title>Node1&#45;&gt;Node2</title>
<path fill="none" stroke="midnightblue" d="M144.019,-39C152.612,-39 161.312,-39 169.75,-39"/>
<polygon fill="midnightblue" stroke="midnightblue" points="144.003,-35.5001 134.003,-39 144.003,-42.5001 144.003,-35.5001"/>
</g>
<!-- Node3 -->
<g id="node3" class="node"><title>Node3</title>
<g id="a_node3"><a xlink:href="classplugins_1_1_panel___busqueda.xhtml#a8d47495fc4538acdfbc2f27cddffce0d" target="_top" xlink:title="plugins.Panel_Busqueda.crear\lPanel">
<polygon fill="white" stroke="black" points="338.5,-49 338.5,-79 487.5,-79 487.5,-49 338.5,-49"/>
<text text-anchor="start" x="346.5" y="-67" font-family="Helvetica,sans-Serif" font-size="10.00">plugins.Panel_Busqueda.crear</text>
<text text-anchor="middle" x="413" y="-56" font-family="Helvetica,sans-Serif" font-size="10.00">Panel</text>
</a>
</g>
</g>
<!-- Node2&#45;&gt;Node3 -->
<g id="edge2" class="edge"><title>Node2&#45;&gt;Node3</title>
<path fill="none" stroke="midnightblue" d="M312.201,-49.743C320.833,-50.9761 329.627,-52.2325 338.24,-53.4629"/>
<polygon fill="midnightblue" stroke="midnightblue" points="312.558,-46.2586 302.164,-48.3091 311.568,-53.1882 312.558,-46.2586"/>
</g>
<!-- Node4 -->
<g id="node4" class="node"><title>Node4</title>
<g id="a_node4"><a xlink:href="classplugins_1_1_panel___registros.xhtml#aae4d01f2f3b9885bee3d9e8057cebece" target="_top" xlink:title="plugins.Panel_Registros.\lPanel_Registros">
<polygon fill="white" stroke="black" points="350.5,-0 350.5,-30 475.5,-30 475.5,-0 350.5,-0"/>
<text text-anchor="start" x="358.5" y="-18" font-family="Helvetica,sans-Serif" font-size="10.00">plugins.Panel_Registros.</text>
<text text-anchor="middle" x="413" y="-7" font-family="Helvetica,sans-Serif" font-size="10.00">Panel_Registros</text>
</a>
</g>
</g>
<!-- Node2&#45;&gt;Node4 -->
<g id="edge3" class="edge"><title>Node2&#45;&gt;Node4</title>
<path fill="none" stroke="midnightblue" d="M312.243,-28.681C324.931,-26.9409 337.969,-25.1528 350.263,-23.4668"/>
<polygon fill="midnightblue" stroke="midnightblue" points="311.595,-25.2369 302.164,-30.0633 312.546,-32.172 311.595,-25.2369"/>
</g>
</g>
</svg>
