<?xml version="1.0" encoding="UTF-8" standalone="no"?>
<!DOCTYPE svg PUBLIC "-//W3C//DTD SVG 1.1//EN"
 "http://www.w3.org/Graphics/SVG/1.1/DTD/svg11.dtd">
<!-- Generated by graphviz version 2.30.1 (20130214.1330)
 -->
<!-- Title: gestorempleados.interficie.Panel_DatosPersonales.getFecha_nacimiento Pages: 1 -->
<svg width="342pt" height="136pt"
 viewBox="0.00 0.00 342.00 136.00" xmlns="http://www.w3.org/2000/svg" xmlns:xlink="http://www.w3.org/1999/xlink">
<g id="graph0" class="graph" transform="scale(1 1) rotate(0) translate(4 132)">
<title>gestorempleados.interficie.Panel_DatosPersonales.getFecha_nacimiento</title>
<polygon fill="white" stroke="white" points="-4,5 -4,-132 339,-132 339,5 -4,5"/>
<!-- Node1 -->
<g id="node1" class="node"><title>Node1</title>
<polygon fill="#bfbfbf" stroke="black" points="0,-43.5 0,-84.5 164,-84.5 164,-43.5 0,-43.5"/>
<text text-anchor="start" x="8" y="-72.5" font-family="Helvetica,sans-Serif" font-size="10.00">gestorempleados.interficie.</text>
<text text-anchor="start" x="8" y="-61.5" font-family="Helvetica,sans-Serif" font-size="10.00">Panel_DatosPersonales.getFecha</text>
<text text-anchor="middle" x="82" y="-50.5" font-family="Helvetica,sans-Serif" font-size="10.00">_nacimiento</text>
</g>
<!-- Node2 -->
<g id="node2" class="node"><title>Node2</title>
<g id="a_node2"><a xlink:href="classgestorempleados_1_1interficie_1_1_calendario.xhtml#ae274bab87113f420981d4107c87a1007" target="_top" xlink:title="gestorempleados.interficie.\lCalendario.getDia">
<polygon fill="white" stroke="black" points="200.5,-98 200.5,-128 333.5,-128 333.5,-98 200.5,-98"/>
<text text-anchor="start" x="208.5" y="-116" font-family="Helvetica,sans-Serif" font-size="10.00">gestorempleados.interficie.</text>
<text text-anchor="middle" x="267" y="-105" font-family="Helvetica,sans-Serif" font-size="10.00">Calendario.getDia</text>
</a>
</g>
</g>
<!-- Node1&#45;&gt;Node2 -->
<g id="edge1" class="edge"><title>Node1&#45;&gt;Node2</title>
<path fill="none" stroke="midnightblue" d="M159.813,-84.5674C173.219,-88.1571 187.058,-91.8625 200.136,-95.3643"/>
<polygon fill="midnightblue" stroke="midnightblue" points="199.404,-98.7916 209.969,-97.9972 201.215,-92.0297 199.404,-98.7916"/>
</g>
<!-- Node3 -->
<g id="node3" class="node"><title>Node3</title>
<g id="a_node3"><a xlink:href="classgestorempleados_1_1interficie_1_1_calendario.xhtml#ab3d1a05f098a43d531e1e90bd9c99568" target="_top" xlink:title="gestorempleados.interficie.\lCalendario.getMes">
<polygon fill="white" stroke="black" points="200.5,-49 200.5,-79 333.5,-79 333.5,-49 200.5,-49"/>
<text text-anchor="start" x="208.5" y="-67" font-family="Helvetica,sans-Serif" font-size="10.00">gestorempleados.interficie.</text>
<text text-anchor="middle" x="267" y="-56" font-family="Helvetica,sans-Serif" font-size="10.00">Calendario.getMes</text>
</a>
</g>
</g>
<!-- Node1&#45;&gt;Node3 -->
<g id="edge2" class="edge"><title>Node1&#45;&gt;Node3</title>
<path fill="none" stroke="midnightblue" d="M164.066,-64C172.792,-64 181.648,-64 190.308,-64"/>
<polygon fill="midnightblue" stroke="midnightblue" points="190.365,-67.5001 200.365,-64 190.365,-60.5001 190.365,-67.5001"/>
</g>
<!-- Node4 -->
<g id="node4" class="node"><title>Node4</title>
<g id="a_node4"><a xlink:href="classgestorempleados_1_1interficie_1_1_calendario.xhtml#a46ed71c1d29153ad687e3f74925a1db6" target="_top" xlink:title="gestorempleados.interficie.\lCalendario.getAno">
<polygon fill="white" stroke="black" points="200.5,-0 200.5,-30 333.5,-30 333.5,-0 200.5,-0"/>
<text text-anchor="start" x="208.5" y="-18" font-family="Helvetica,sans-Serif" font-size="10.00">gestorempleados.interficie.</text>
<text text-anchor="middle" x="267" y="-7" font-family="Helvetica,sans-Serif" font-size="10.00">Calendario.getAno</text>
</a>
</g>
</g>
<!-- Node1&#45;&gt;Node4 -->
<g id="edge3" class="edge"><title>Node1&#45;&gt;Node4</title>
<path fill="none" stroke="midnightblue" d="M159.813,-43.4326C173.219,-39.8429 187.058,-36.1375 200.136,-32.6357"/>
<polygon fill="midnightblue" stroke="midnightblue" points="201.215,-35.9703 209.969,-30.0028 199.404,-29.2084 201.215,-35.9703"/>
</g>
</g>
</svg>
