<?xml version="1.0" encoding="UTF-8" standalone="no"?>
<!DOCTYPE svg PUBLIC "-//W3C//DTD SVG 1.1//EN"
 "http://www.w3.org/Graphics/SVG/1.1/DTD/svg11.dtd">
<!-- Generated by graphviz version 2.30.1 (20130214.1330)
 -->
<!-- Title: gestorempleados.control.NegocioCliente Pages: 1 -->
<svg width="787pt" height="796pt"
 viewBox="0.00 0.00 787.00 796.00" xmlns="http://www.w3.org/2000/svg" xmlns:xlink="http://www.w3.org/1999/xlink">
<g id="graph0" class="graph" transform="scale(1 1) rotate(0) translate(4 792)">
<title>gestorempleados.control.NegocioCliente</title>
<polygon fill="white" stroke="white" points="-4,5 -4,-792 784,-792 784,5 -4,5"/>
<!-- Node1 -->
<g id="node1" class="node"><title>Node1</title>
<polygon fill="#bfbfbf" stroke="black" points="508,-1 508,-509 642,-509 642,-1 508,-1"/>
<text text-anchor="start" x="516" y="-497" font-family="Helvetica,sans-Serif" font-size="10.00">gestorempleados.control.</text>
<text text-anchor="middle" x="575" y="-486" font-family="Helvetica,sans-Serif" font-size="10.00">NegocioCliente</text>
<polyline fill="none" stroke="black" points="508,-479 642,-479 "/>
<text text-anchor="start" x="516" y="-467" font-family="Helvetica,sans-Serif" font-size="10.00">&#45; usuario</text>
<text text-anchor="start" x="516" y="-456" font-family="Helvetica,sans-Serif" font-size="10.00">&#45; dni</text>
<text text-anchor="start" x="516" y="-445" font-family="Helvetica,sans-Serif" font-size="10.00">&#45; nss</text>
<text text-anchor="start" x="516" y="-434" font-family="Helvetica,sans-Serif" font-size="10.00">&#45; nombre</text>
<text text-anchor="start" x="516" y="-423" font-family="Helvetica,sans-Serif" font-size="10.00">&#45; apellido1</text>
<text text-anchor="start" x="516" y="-412" font-family="Helvetica,sans-Serif" font-size="10.00">&#45; apellido2</text>
<text text-anchor="start" x="516" y="-401" font-family="Helvetica,sans-Serif" font-size="10.00">&#45; nacionalidad</text>
<text text-anchor="start" x="516" y="-390" font-family="Helvetica,sans-Serif" font-size="10.00">&#45; direccion</text>
<text text-anchor="start" x="516" y="-379" font-family="Helvetica,sans-Serif" font-size="10.00">&#45; poblacion</text>
<text text-anchor="start" x="516" y="-368" font-family="Helvetica,sans-Serif" font-size="10.00">&#45; telefono</text>
<text text-anchor="start" x="516" y="-357" font-family="Helvetica,sans-Serif" font-size="10.00">&#45; titulacion</text>
<text text-anchor="start" x="516" y="-346" font-family="Helvetica,sans-Serif" font-size="10.00">&#45; experiencia</text>
<text text-anchor="start" x="516" y="-335" font-family="Helvetica,sans-Serif" font-size="10.00">&#45; cuentaBancaria</text>
<text text-anchor="start" x="516" y="-324" font-family="Helvetica,sans-Serif" font-size="10.00">&#45; foto</text>
<text text-anchor="start" x="516" y="-313" font-family="Helvetica,sans-Serif" font-size="10.00">&#45; cargo</text>
<text text-anchor="start" x="516" y="-302" font-family="Helvetica,sans-Serif" font-size="10.00">&#45; motivo</text>
<text text-anchor="start" x="516" y="-291" font-family="Helvetica,sans-Serif" font-size="10.00">&#45; origen</text>
<text text-anchor="start" x="516" y="-280" font-family="Helvetica,sans-Serif" font-size="10.00">&#45; sede</text>
<text text-anchor="start" x="516" y="-269" font-family="Helvetica,sans-Serif" font-size="10.00">&#45; salario</text>
<text text-anchor="start" x="516" y="-258" font-family="Helvetica,sans-Serif" font-size="10.00">&#45; modalidad</text>
<text text-anchor="start" x="516" y="-247" font-family="Helvetica,sans-Serif" font-size="10.00">&#45; clase</text>
<text text-anchor="start" x="516" y="-236" font-family="Helvetica,sans-Serif" font-size="10.00">&#45; periodoPrueba</text>
<text text-anchor="start" x="516" y="-225" font-family="Helvetica,sans-Serif" font-size="10.00">&#45; preaviso</text>
<text text-anchor="start" x="516" y="-214" font-family="Helvetica,sans-Serif" font-size="10.00">&#45; clausula</text>
<text text-anchor="start" x="516" y="-203" font-family="Helvetica,sans-Serif" font-size="10.00">&#45; salud</text>
<text text-anchor="start" x="516" y="-192" font-family="Helvetica,sans-Serif" font-size="10.00">&#45; vida</text>
<text text-anchor="start" x="516" y="-181" font-family="Helvetica,sans-Serif" font-size="10.00">&#45; fichero</text>
<text text-anchor="start" x="516" y="-170" font-family="Helvetica,sans-Serif" font-size="10.00">&#45; causaBaja</text>
<text text-anchor="start" x="516" y="-159" font-family="Helvetica,sans-Serif" font-size="10.00">&#45; activo</text>
<polyline fill="none" stroke="black" points="508,-152 642,-152 "/>
<text text-anchor="start" x="516" y="-140" font-family="Helvetica,sans-Serif" font-size="10.00">+ NegocioCliente()</text>
<text text-anchor="start" x="516" y="-129" font-family="Helvetica,sans-Serif" font-size="10.00">+ getEmpleados()</text>
<text text-anchor="start" x="516" y="-118" font-family="Helvetica,sans-Serif" font-size="10.00">+ setEmpleado()</text>
<text text-anchor="start" x="516" y="-107" font-family="Helvetica,sans-Serif" font-size="10.00">+ modifDatosEmpleado()</text>
<text text-anchor="start" x="516" y="-96" font-family="Helvetica,sans-Serif" font-size="10.00">+ getDepartamentos()</text>
<text text-anchor="start" x="516" y="-85" font-family="Helvetica,sans-Serif" font-size="10.00">+ getCargos()</text>
<text text-anchor="start" x="516" y="-74" font-family="Helvetica,sans-Serif" font-size="10.00">+ getReporte()</text>
<text text-anchor="start" x="516" y="-63" font-family="Helvetica,sans-Serif" font-size="10.00">+ validateId()</text>
<text text-anchor="start" x="516" y="-52" font-family="Helvetica,sans-Serif" font-size="10.00">+ validateUser()</text>
<text text-anchor="start" x="516" y="-41" font-family="Helvetica,sans-Serif" font-size="10.00">+ showDatosEmpleado()</text>
<text text-anchor="start" x="516" y="-30" font-family="Helvetica,sans-Serif" font-size="10.00">+ showCVEmpleado()</text>
<text text-anchor="start" x="516" y="-19" font-family="Helvetica,sans-Serif" font-size="10.00">+ showContratoEmpleado()</text>
<text text-anchor="start" x="516" y="-8" font-family="Helvetica,sans-Serif" font-size="10.00">+ getinstance()</text>
</g>
<!-- Node1&#45;&gt;Node1 -->
<g id="edge13" class="edge"><title>Node1&#45;&gt;Node1</title>
<path fill="none" stroke="#404040" d="M642.337,-306.55C652.84,-298.843 660,-281.66 660,-255 660,-236.046 656.381,-221.882 650.515,-212.509"/>
<polygon fill="none" stroke="#404040" points="650.378,-212.357 643.389,-210.584 642.337,-203.45 649.327,-205.223 650.378,-212.357"/>
<text text-anchor="middle" x="678" y="-252.5" font-family="Helvetica,sans-Serif" font-size="10.00"> &#45;control</text>
</g>
<!-- Node2 -->
<g id="node2" class="node"><title>Node2</title>
<g id="a_node2"><a xlink:href="classgestorempleados_1_1conector_1_1_conector_cliente.xhtml" target="_top" xlink:title="{gestorempleados.conector.\lConectorCliente\n||+ ConectorCliente()\l+ sendPacket()\l}">
<polygon fill="white" stroke="black" points="376,-602.5 376,-681.5 510,-681.5 510,-602.5 376,-602.5"/>
<text text-anchor="start" x="384" y="-669.5" font-family="Helvetica,sans-Serif" font-size="10.00">gestorempleados.conector.</text>
<text text-anchor="middle" x="443" y="-658.5" font-family="Helvetica,sans-Serif" font-size="10.00">ConectorCliente</text>
<polyline fill="none" stroke="black" points="376,-651.5 510,-651.5 "/>
<text text-anchor="middle" x="443" y="-639.5" font-family="Helvetica,sans-Serif" font-size="10.00"> </text>
<polyline fill="none" stroke="black" points="376,-632.5 510,-632.5 "/>
<text text-anchor="start" x="384" y="-620.5" font-family="Helvetica,sans-Serif" font-size="10.00">+ ConectorCliente()</text>
<text text-anchor="start" x="384" y="-609.5" font-family="Helvetica,sans-Serif" font-size="10.00">+ sendPacket()</text>
</a>
</g>
</g>
<!-- Node2&#45;&gt;Node1 -->
<g id="edge1" class="edge"><title>Node2&#45;&gt;Node1</title>
<path fill="none" stroke="#404040" d="M456.261,-602.322C467.858,-568.498 485.671,-516.542 504.002,-463.078"/>
<polygon fill="none" stroke="#404040" points="504.027,-463.004 502.189,-456.031 507.919,-451.652 509.757,-458.625 504.027,-463.004"/>
<text text-anchor="middle" x="501" y="-553.5" font-family="Helvetica,sans-Serif" font-size="10.00"> &#45;conector</text>
</g>
<!-- Node3 -->
<g id="node3" class="node"><title>Node3</title>
<polygon fill="white" stroke="#bfbfbf" points="-0.5,-730.5 -0.5,-787.5 104.5,-787.5 104.5,-730.5 -0.5,-730.5"/>
<text text-anchor="middle" x="52" y="-775.5" font-family="Helvetica,sans-Serif" font-size="10.00">CipherOutputStream</text>
<polyline fill="none" stroke="#bfbfbf" points="-0.5,-768.5 104.5,-768.5 "/>
<text text-anchor="middle" x="52" y="-756.5" font-family="Helvetica,sans-Serif" font-size="10.00"> </text>
<polyline fill="none" stroke="#bfbfbf" points="-0.5,-749.5 104.5,-749.5 "/>
<text text-anchor="middle" x="52" y="-737.5" font-family="Helvetica,sans-Serif" font-size="10.00"> </text>
</g>
<!-- Node3&#45;&gt;Node2 -->
<g id="edge2" class="edge"><title>Node3&#45;&gt;Node2</title>
<path fill="none" stroke="#404040" d="M104.595,-733.764C107.762,-732.455 110.915,-731.19 114,-730 197.072,-697.959 296.351,-673.493 363.967,-658.786"/>
<polygon fill="none" stroke="#404040" points="364.062,-658.766 369.087,-653.594 375.794,-656.243 370.769,-661.415 364.062,-658.766"/>
<text text-anchor="middle" x="239" y="-703.5" font-family="Helvetica,sans-Serif" font-size="10.00"> +escritorCifrado</text>
</g>
<!-- Node4 -->
<g id="node4" class="node"><title>Node4</title>
<polygon fill="white" stroke="#bfbfbf" points="123,-730.5 123,-787.5 229,-787.5 229,-730.5 123,-730.5"/>
<text text-anchor="middle" x="176" y="-775.5" font-family="Helvetica,sans-Serif" font-size="10.00">ObjectOutputStream</text>
<polyline fill="none" stroke="#bfbfbf" points="123,-768.5 229,-768.5 "/>
<text text-anchor="middle" x="176" y="-756.5" font-family="Helvetica,sans-Serif" font-size="10.00"> </text>
<polyline fill="none" stroke="#bfbfbf" points="123,-749.5 229,-749.5 "/>
<text text-anchor="middle" x="176" y="-737.5" font-family="Helvetica,sans-Serif" font-size="10.00"> </text>
</g>
<!-- Node4&#45;&gt;Node2 -->
<g id="edge3" class="edge"><title>Node4&#45;&gt;Node2</title>
<path fill="none" stroke="#404040" d="M229.078,-733.97C232.094,-732.623 235.085,-731.292 238,-730 279.662,-711.537 326.416,-691.633 364.742,-675.528"/>
<polygon fill="none" stroke="#404040" points="364.767,-675.518 368.752,-669.508 375.833,-670.875 371.847,-676.885 364.767,-675.518"/>
<text text-anchor="middle" x="327" y="-703.5" font-family="Helvetica,sans-Serif" font-size="10.00"> +escritor</text>
</g>
<!-- Node5 -->
<g id="node5" class="node"><title>Node5</title>
<polygon fill="white" stroke="#bfbfbf" points="247.5,-730.5 247.5,-787.5 332.5,-787.5 332.5,-730.5 247.5,-730.5"/>
<text text-anchor="middle" x="290" y="-775.5" font-family="Helvetica,sans-Serif" font-size="10.00">FileInputStream</text>
<polyline fill="none" stroke="#bfbfbf" points="247.5,-768.5 332.5,-768.5 "/>
<text text-anchor="middle" x="290" y="-756.5" font-family="Helvetica,sans-Serif" font-size="10.00"> </text>
<polyline fill="none" stroke="#bfbfbf" points="247.5,-749.5 332.5,-749.5 "/>
<text text-anchor="middle" x="290" y="-737.5" font-family="Helvetica,sans-Serif" font-size="10.00"> </text>
</g>
<!-- Node5&#45;&gt;Node2 -->
<g id="edge4" class="edge"><title>Node5&#45;&gt;Node2</title>
<path fill="none" stroke="#404040" d="M326.647,-730.455C343.21,-718.006 363.229,-702.958 381.959,-688.88"/>
<polygon fill="none" stroke="#404040" points="382.018,-688.836 384.411,-682.033 391.611,-681.626 389.218,-688.428 382.018,-688.836"/>
<text text-anchor="middle" x="376.5" y="-703.5" font-family="Helvetica,sans-Serif" font-size="10.00"> +fis</text>
</g>
<!-- Node6 -->
<g id="node6" class="node"><title>Node6</title>
<polygon fill="white" stroke="#bfbfbf" points="350.5,-730.5 350.5,-787.5 447.5,-787.5 447.5,-730.5 350.5,-730.5"/>
<text text-anchor="middle" x="399" y="-775.5" font-family="Helvetica,sans-Serif" font-size="10.00">CipherInputStream</text>
<polyline fill="none" stroke="#bfbfbf" points="350.5,-768.5 447.5,-768.5 "/>
<text text-anchor="middle" x="399" y="-756.5" font-family="Helvetica,sans-Serif" font-size="10.00"> </text>
<polyline fill="none" stroke="#bfbfbf" points="350.5,-749.5 447.5,-749.5 "/>
<text text-anchor="middle" x="399" y="-737.5" font-family="Helvetica,sans-Serif" font-size="10.00"> </text>
</g>
<!-- Node6&#45;&gt;Node2 -->
<g id="edge5" class="edge"><title>Node6&#45;&gt;Node2</title>
<path fill="none" stroke="#404040" d="M397.264,-730.235C397.472,-720.445 398.66,-709.514 402,-700 402.902,-697.43 403.959,-694.875 405.137,-692.35"/>
<polygon fill="none" stroke="#404040" points="405.273,-692.099 404.602,-684.919 410.971,-681.538 411.642,-688.718 405.273,-692.099"/>
<text text-anchor="middle" x="434" y="-703.5" font-family="Helvetica,sans-Serif" font-size="10.00"> +lectorCifrado</text>
</g>
<!-- Node7 -->
<g id="node7" class="node"><title>Node7</title>
<polygon fill="white" stroke="#bfbfbf" points="466,-730.5 466,-787.5 510,-787.5 510,-730.5 466,-730.5"/>
<text text-anchor="middle" x="488" y="-775.5" font-family="Helvetica,sans-Serif" font-size="10.00">Cipher</text>
<polyline fill="none" stroke="#bfbfbf" points="466,-768.5 510,-768.5 "/>
<text text-anchor="middle" x="488" y="-756.5" font-family="Helvetica,sans-Serif" font-size="10.00"> </text>
<polyline fill="none" stroke="#bfbfbf" points="466,-749.5 510,-749.5 "/>
<text text-anchor="middle" x="488" y="-737.5" font-family="Helvetica,sans-Serif" font-size="10.00"> </text>
</g>
<!-- Node7&#45;&gt;Node2 -->
<g id="edge6" class="edge"><title>Node7&#45;&gt;Node2</title>
<path fill="none" stroke="#404040" d="M477.599,-730.223C473.972,-720.631 469.846,-709.828 466,-700 465.089,-697.671 464.151,-695.291 463.2,-692.888"/>
<polygon fill="none" stroke="#404040" points="463.14,-692.737 457.203,-688.644 458.699,-681.589 464.635,-685.683 463.14,-692.737"/>
<text text-anchor="middle" x="477" y="-703.5" font-family="Helvetica,sans-Serif" font-size="10.00"> &#45;c</text>
</g>
<!-- Node8 -->
<g id="node8" class="node"><title>Node8</title>
<polygon fill="white" stroke="#bfbfbf" points="528,-730.5 528,-787.5 626,-787.5 626,-730.5 528,-730.5"/>
<text text-anchor="middle" x="577" y="-775.5" font-family="Helvetica,sans-Serif" font-size="10.00">ObjectInputStream</text>
<polyline fill="none" stroke="#bfbfbf" points="528,-768.5 626,-768.5 "/>
<text text-anchor="middle" x="577" y="-756.5" font-family="Helvetica,sans-Serif" font-size="10.00"> </text>
<polyline fill="none" stroke="#bfbfbf" points="528,-749.5 626,-749.5 "/>
<text text-anchor="middle" x="577" y="-737.5" font-family="Helvetica,sans-Serif" font-size="10.00"> </text>
</g>
<!-- Node8&#45;&gt;Node2 -->
<g id="edge7" class="edge"><title>Node8&#45;&gt;Node2</title>
<path fill="none" stroke="#404040" d="M544.904,-730.455C530.664,-718.234 513.507,-703.51 497.365,-689.656"/>
<polygon fill="none" stroke="#404040" points="497.114,-689.441 489.956,-688.569 488.007,-681.626 495.166,-682.498 497.114,-689.441"/>
<text text-anchor="middle" x="540" y="-703.5" font-family="Helvetica,sans-Serif" font-size="10.00"> +lector</text>
</g>
<!-- Node9 -->
<g id="node9" class="node"><title>Node9</title>
<polygon fill="white" stroke="#bfbfbf" points="644.5,-730.5 644.5,-787.5 691.5,-787.5 691.5,-730.5 644.5,-730.5"/>
<text text-anchor="middle" x="668" y="-775.5" font-family="Helvetica,sans-Serif" font-size="10.00">Socket</text>
<polyline fill="none" stroke="#bfbfbf" points="644.5,-768.5 691.5,-768.5 "/>
<text text-anchor="middle" x="668" y="-756.5" font-family="Helvetica,sans-Serif" font-size="10.00"> </text>
<polyline fill="none" stroke="#bfbfbf" points="644.5,-749.5 691.5,-749.5 "/>
<text text-anchor="middle" x="668" y="-737.5" font-family="Helvetica,sans-Serif" font-size="10.00"> </text>
</g>
<!-- Node9&#45;&gt;Node2 -->
<g id="edge8" class="edge"><title>Node9&#45;&gt;Node2</title>
<path fill="none" stroke="#404040" d="M644.142,-736.305C641.163,-734.038 638.078,-731.879 635,-730 590.444,-702.806 572.051,-704.984 521.36,-682.882"/>
<polygon fill="none" stroke="#404040" points="521.347,-682.876 514.233,-684.061 510.404,-677.951 517.517,-676.766 521.347,-682.876"/>
<text text-anchor="middle" x="631" y="-703.5" font-family="Helvetica,sans-Serif" font-size="10.00"> +socketClient</text>
</g>
<!-- Node10 -->
<g id="node10" class="node"><title>Node10</title>
<polygon fill="white" stroke="#bfbfbf" points="717,-730.5 717,-787.5 779,-787.5 779,-730.5 717,-730.5"/>
<text text-anchor="middle" x="748" y="-775.5" font-family="Helvetica,sans-Serif" font-size="10.00">SecretKey</text>
<polyline fill="none" stroke="#bfbfbf" points="717,-768.5 779,-768.5 "/>
<text text-anchor="middle" x="748" y="-756.5" font-family="Helvetica,sans-Serif" font-size="10.00"> </text>
<polyline fill="none" stroke="#bfbfbf" points="717,-749.5 779,-749.5 "/>
<text text-anchor="middle" x="748" y="-737.5" font-family="Helvetica,sans-Serif" font-size="10.00"> </text>
</g>
<!-- Node10&#45;&gt;Node2 -->
<g id="edge9" class="edge"><title>Node10&#45;&gt;Node2</title>
<path fill="none" stroke="#404040" d="M717.081,-730.261C702.812,-719.007 685.052,-707.027 667,-700 608.749,-677.324 585.069,-698.702 521.853,-682.324"/>
<polygon fill="none" stroke="#404040" points="521.562,-682.241 514.694,-684.44 510.023,-678.947 516.89,-676.748 521.562,-682.241"/>
<text text-anchor="middle" x="700" y="-703.5" font-family="Helvetica,sans-Serif" font-size="10.00"> &#45;key</text>
</g>
<!-- Node11 -->
<g id="node11" class="node"><title>Node11</title>
<polygon fill="white" stroke="#bfbfbf" points="528,-613.5 528,-670.5 560,-670.5 560,-613.5 528,-613.5"/>
<text text-anchor="middle" x="544" y="-658.5" font-family="Helvetica,sans-Serif" font-size="10.00">Set</text>
<polyline fill="none" stroke="#bfbfbf" points="528,-651.5 560,-651.5 "/>
<text text-anchor="middle" x="544" y="-639.5" font-family="Helvetica,sans-Serif" font-size="10.00"> </text>
<polyline fill="none" stroke="#bfbfbf" points="528,-632.5 560,-632.5 "/>
<text text-anchor="middle" x="544" y="-620.5" font-family="Helvetica,sans-Serif" font-size="10.00"> </text>
</g>
<!-- Node11&#45;&gt;Node1 -->
<g id="edge10" class="edge"><title>Node11&#45;&gt;Node1</title>
<path fill="none" stroke="#404040" d="M543.464,-613.11C543.213,-590.224 543.278,-556.985 545,-528 545.132,-525.784 545.268,-523.559 545.41,-521.325"/>
<polygon fill="none" stroke="#404040" points="545.414,-521.275 541.823,-515.022 546.214,-509.302 549.805,-515.556 545.414,-521.275"/>
<text text-anchor="middle" x="565" y="-553.5" font-family="Helvetica,sans-Serif" font-size="10.00"> &#45;idiomas</text>
</g>
<!-- Node12 -->
<g id="node12" class="node"><title>Node12</title>
<polygon fill="white" stroke="#bfbfbf" points="588.5,-613.5 588.5,-670.5 625.5,-670.5 625.5,-613.5 588.5,-613.5"/>
<text text-anchor="middle" x="607" y="-658.5" font-family="Helvetica,sans-Serif" font-size="10.00">Date</text>
<polyline fill="none" stroke="#bfbfbf" points="588.5,-651.5 625.5,-651.5 "/>
<text text-anchor="middle" x="607" y="-639.5" font-family="Helvetica,sans-Serif" font-size="10.00"> </text>
<polyline fill="none" stroke="#bfbfbf" points="588.5,-632.5 625.5,-632.5 "/>
<text text-anchor="middle" x="607" y="-620.5" font-family="Helvetica,sans-Serif" font-size="10.00"> </text>
</g>
<!-- Node12&#45;&gt;Node1 -->
<g id="edge11" class="edge"><title>Node12&#45;&gt;Node1</title>
<path fill="none" stroke="#404040" d="M604.699,-613.312C602.882,-591.453 600.144,-558.511 597.052,-521.316"/>
<polygon fill="none" stroke="#404040" points="597.031,-521.057 592.548,-515.409 596.037,-509.098 600.52,-514.746 597.031,-521.057"/>
<text text-anchor="middle" x="644.5" y="-575.5" font-family="Helvetica,sans-Serif" font-size="10.00"> &#45;fechaFinDesplaz</text>
<text text-anchor="middle" x="644.5" y="-564.5" font-family="Helvetica,sans-Serif" font-size="10.00">&#45;fechaFin</text>
<text text-anchor="middle" x="644.5" y="-553.5" font-family="Helvetica,sans-Serif" font-size="10.00">&#45;fechaInicioDesplaz</text>
<text text-anchor="middle" x="644.5" y="-542.5" font-family="Helvetica,sans-Serif" font-size="10.00">&#45;fechaNacimiento</text>
<text text-anchor="middle" x="644.5" y="-531.5" font-family="Helvetica,sans-Serif" font-size="10.00">&#45;fechaInicio</text>
</g>
<!-- Node13 -->
<g id="node13" class="node"><title>Node13</title>
<polygon fill="white" stroke="#bfbfbf" points="699,-613.5 699,-670.5 731,-670.5 731,-613.5 699,-613.5"/>
<text text-anchor="middle" x="715" y="-658.5" font-family="Helvetica,sans-Serif" font-size="10.00">List</text>
<polyline fill="none" stroke="#bfbfbf" points="699,-651.5 731,-651.5 "/>
<text text-anchor="middle" x="715" y="-639.5" font-family="Helvetica,sans-Serif" font-size="10.00"> </text>
<polyline fill="none" stroke="#bfbfbf" points="699,-632.5 731,-632.5 "/>
<text text-anchor="middle" x="715" y="-620.5" font-family="Helvetica,sans-Serif" font-size="10.00"> </text>
</g>
<!-- Node13&#45;&gt;Node1 -->
<g id="edge12" class="edge"><title>Node13&#45;&gt;Node1</title>
<path fill="none" stroke="#404040" d="M710.648,-613.213C706.66,-590.098 700.008,-556.493 691,-528 678.676,-489.017 662.794,-447.966 646.76,-409.905"/>
<polygon fill="none" stroke="#404040" points="646.703,-409.771 640.675,-405.812 642.01,-398.726 648.038,-402.684 646.703,-409.771"/>
<text text-anchor="middle" x="732" y="-553.5" font-family="Helvetica,sans-Serif" font-size="10.00"> &#45;empleados</text>
</g>
</g>
</svg>
