<?xml version="1.0" encoding="UTF-8" standalone="no"?>
<!DOCTYPE svg PUBLIC "-//W3C//DTD SVG 1.1//EN"
 "http://www.w3.org/Graphics/SVG/1.1/DTD/svg11.dtd">
<!-- Generated by graphviz version 2.30.1 (20130214.1330)
 -->
<!-- Title: gestorempleados.interficie.StartClient.confirmaUsuario Pages: 1 -->
<svg width="656pt" height="160pt"
 viewBox="0.00 0.00 656.00 160.00" xmlns="http://www.w3.org/2000/svg" xmlns:xlink="http://www.w3.org/1999/xlink">
<g id="graph0" class="graph" transform="scale(1 1) rotate(0) translate(4 156)">
<title>gestorempleados.interficie.StartClient.confirmaUsuario</title>
<polygon fill="white" stroke="white" points="-4,5 -4,-156 653,-156 653,5 -4,5"/>
<!-- Node1 -->
<g id="node1" class="node"><title>Node1</title>
<polygon fill="#bfbfbf" stroke="black" points="0.5,-73 0.5,-103 135.5,-103 135.5,-73 0.5,-73"/>
<text text-anchor="start" x="8.5" y="-91" font-family="Helvetica,sans-Serif" font-size="10.00">gestorempleados.interficie.</text>
<text text-anchor="middle" x="68" y="-80" font-family="Helvetica,sans-Serif" font-size="10.00">StartClient.confirmaUsuario</text>
</g>
<!-- Node2 -->
<g id="node2" class="node"><title>Node2</title>
<g id="a_node2"><a xlink:href="classgestorempleados_1_1control_1_1_negocio_cliente.xhtml#af4450308afb9d29f665e8bd22d221770" target="_top" xlink:title="gestorempleados.control.\lNegocioCliente.getinstance">
<polygon fill="white" stroke="black" points="173.5,-98 173.5,-128 308.5,-128 308.5,-98 173.5,-98"/>
<text text-anchor="start" x="181.5" y="-116" font-family="Helvetica,sans-Serif" font-size="10.00">gestorempleados.control.</text>
<text text-anchor="middle" x="241" y="-105" font-family="Helvetica,sans-Serif" font-size="10.00">NegocioCliente.getinstance</text>
</a>
</g>
</g>
<!-- Node1&#45;&gt;Node2 -->
<g id="edge1" class="edge"><title>Node1&#45;&gt;Node2</title>
<path fill="none" stroke="midnightblue" d="M135.603,-97.7372C144.693,-99.0663 154.084,-100.439 163.335,-101.792"/>
<polygon fill="midnightblue" stroke="midnightblue" points="162.897,-105.265 173.298,-103.248 163.909,-98.3383 162.897,-105.265"/>
</g>
<!-- Node3 -->
<g id="node3" class="node"><title>Node3</title>
<g id="a_node3"><a xlink:href="classgestorempleados_1_1control_1_1_negocio_cliente.xhtml#a47fbb19a34ae4e6d107295cb2feda080" target="_top" xlink:title="gestorempleados.control.\lNegocioCliente.validateUser">
<polygon fill="white" stroke="black" points="172.5,-49 172.5,-79 309.5,-79 309.5,-49 172.5,-49"/>
<text text-anchor="start" x="180.5" y="-67" font-family="Helvetica,sans-Serif" font-size="10.00">gestorempleados.control.</text>
<text text-anchor="middle" x="241" y="-56" font-family="Helvetica,sans-Serif" font-size="10.00">NegocioCliente.validateUser</text>
</a>
</g>
</g>
<!-- Node1&#45;&gt;Node3 -->
<g id="edge2" class="edge"><title>Node1&#45;&gt;Node3</title>
<path fill="none" stroke="midnightblue" d="M135.603,-78.6523C144.392,-77.4186 153.462,-76.1457 162.415,-74.8891"/>
<polygon fill="midnightblue" stroke="midnightblue" points="163.036,-78.3363 172.453,-73.4803 162.063,-71.4043 163.036,-78.3363"/>
</g>
<!-- Node4 -->
<g id="node4" class="node"><title>Node4</title>
<g id="a_node4"><a xlink:href="classgestorempleados_1_1conector_1_1_conector_cliente.xhtml#a830dba55e91b371279078945cf0b84c5" target="_top" xlink:title="gestorempleados.conector.\lConectorCliente.sendPacket">
<polygon fill="white" stroke="black" points="346,-98 346,-128 486,-128 486,-98 346,-98"/>
<text text-anchor="start" x="354" y="-116" font-family="Helvetica,sans-Serif" font-size="10.00">gestorempleados.conector.</text>
<text text-anchor="middle" x="416" y="-105" font-family="Helvetica,sans-Serif" font-size="10.00">ConectorCliente.sendPacket</text>
</a>
</g>
</g>
<!-- Node3&#45;&gt;Node4 -->
<g id="edge3" class="edge"><title>Node3&#45;&gt;Node4</title>
<path fill="none" stroke="midnightblue" d="M295.317,-79.1014C313.242,-84.1785 333.408,-89.8902 352.006,-95.1577"/>
<polygon fill="midnightblue" stroke="midnightblue" points="351.283,-98.5907 361.859,-97.9484 353.191,-91.8557 351.283,-98.5907"/>
</g>
<!-- Node7 -->
<g id="node7" class="node"><title>Node7</title>
<g id="a_node7"><a xlink:href="classgestorempleados_1_1conector_1_1_packet.xhtml#a66abee43105b5ab7eac815a088d8f861" target="_top" xlink:title="gestorempleados.conector.\lPacket.getType">
<polygon fill="white" stroke="black" points="349,-49 349,-79 483,-79 483,-49 349,-49"/>
<text text-anchor="start" x="357" y="-67" font-family="Helvetica,sans-Serif" font-size="10.00">gestorempleados.conector.</text>
<text text-anchor="middle" x="416" y="-56" font-family="Helvetica,sans-Serif" font-size="10.00">Packet.getType</text>
</a>
</g>
</g>
<!-- Node3&#45;&gt;Node7 -->
<g id="edge6" class="edge"><title>Node3&#45;&gt;Node7</title>
<path fill="none" stroke="midnightblue" d="M309.878,-64C319.262,-64 328.954,-64 338.482,-64"/>
<polygon fill="midnightblue" stroke="midnightblue" points="338.735,-67.5001 348.735,-64 338.735,-60.5001 338.735,-67.5001"/>
</g>
<!-- Node8 -->
<g id="node8" class="node"><title>Node8</title>
<g id="a_node8"><a xlink:href="classgestorempleados_1_1conector_1_1_packet.xhtml#a86896692ec960631b3477ddc86c34729" target="_top" xlink:title="gestorempleados.conector.\lPacket.getUser">
<polygon fill="white" stroke="black" points="349,-0 349,-30 483,-30 483,-0 349,-0"/>
<text text-anchor="start" x="357" y="-18" font-family="Helvetica,sans-Serif" font-size="10.00">gestorempleados.conector.</text>
<text text-anchor="middle" x="416" y="-7" font-family="Helvetica,sans-Serif" font-size="10.00">Packet.getUser</text>
</a>
</g>
</g>
<!-- Node3&#45;&gt;Node8 -->
<g id="edge7" class="edge"><title>Node3&#45;&gt;Node8</title>
<path fill="none" stroke="midnightblue" d="M295.317,-48.8986C313.242,-43.8215 333.408,-38.1098 352.006,-32.8423"/>
<polygon fill="midnightblue" stroke="midnightblue" points="353.191,-36.1443 361.859,-30.0516 351.283,-29.4093 353.191,-36.1443"/>
</g>
<!-- Node5 -->
<g id="node5" class="node"><title>Node5</title>
<g id="a_node5"><a xlink:href="classgestorempleados_1_1control_1_1_preferencias.xhtml#a8cb4ef0c12fd91286f0f3a63c48d40b0" target="_top" xlink:title="gestorempleados.control.\lPreferencias.getHost">
<polygon fill="white" stroke="black" points="522,-122 522,-152 648,-152 648,-122 522,-122"/>
<text text-anchor="start" x="530" y="-140" font-family="Helvetica,sans-Serif" font-size="10.00">gestorempleados.control.</text>
<text text-anchor="middle" x="585" y="-129" font-family="Helvetica,sans-Serif" font-size="10.00">Preferencias.getHost</text>
</a>
</g>
</g>
<!-- Node4&#45;&gt;Node5 -->
<g id="edge4" class="edge"><title>Node4&#45;&gt;Node5</title>
<path fill="none" stroke="midnightblue" d="M486.372,-122.97C494.718,-124.169 503.258,-125.396 511.646,-126.602"/>
<polygon fill="midnightblue" stroke="midnightblue" points="511.381,-130.1 521.777,-128.058 512.377,-123.171 511.381,-130.1"/>
</g>
<!-- Node6 -->
<g id="node6" class="node"><title>Node6</title>
<g id="a_node6"><a xlink:href="classgestorempleados_1_1control_1_1_preferencias.xhtml#ae64b723a46d579f7646e75aa453ed3c8" target="_top" xlink:title="gestorempleados.control.\lPreferencias.getPort">
<polygon fill="white" stroke="black" points="522,-73 522,-103 648,-103 648,-73 522,-73"/>
<text text-anchor="start" x="530" y="-91" font-family="Helvetica,sans-Serif" font-size="10.00">gestorempleados.control.</text>
<text text-anchor="middle" x="585" y="-80" font-family="Helvetica,sans-Serif" font-size="10.00">Preferencias.getPort</text>
</a>
</g>
</g>
<!-- Node4&#45;&gt;Node6 -->
<g id="edge5" class="edge"><title>Node4&#45;&gt;Node6</title>
<path fill="none" stroke="midnightblue" d="M486.372,-102.615C494.718,-101.366 503.258,-100.087 511.646,-98.8315"/>
<polygon fill="midnightblue" stroke="midnightblue" points="512.406,-102.257 521.777,-97.3148 511.369,-95.3339 512.406,-102.257"/>
</g>
</g>
</svg>
