<?xml version="1.0" encoding="UTF-8" standalone="no"?>
<!DOCTYPE svg PUBLIC "-//W3C//DTD SVG 1.1//EN"
 "http://www.w3.org/Graphics/SVG/1.1/DTD/svg11.dtd">
<!-- Generated by graphviz version 2.30.1 (20130214.1330)
 -->
<!-- Title: gestorempleados.conector.Packet.getType Pages: 1 -->
<svg width="544pt" height="393pt"
 viewBox="0.00 0.00 544.00 393.00" xmlns="http://www.w3.org/2000/svg" xmlns:xlink="http://www.w3.org/1999/xlink">
<g id="graph0" class="graph" transform="scale(1 1) rotate(0) translate(4 389)">
<title>gestorempleados.conector.Packet.getType</title>
<polygon fill="white" stroke="white" points="-4,5 -4,-389 541,-389 541,5 -4,5"/>
<!-- Node1 -->
<g id="node1" class="node"><title>Node1</title>
<polygon fill="#bfbfbf" stroke="black" points="0,-134 0,-164 134,-164 134,-134 0,-134"/>
<text text-anchor="start" x="8" y="-152" font-family="Helvetica,sans-Serif" font-size="10.00">gestorempleados.conector.</text>
<text text-anchor="middle" x="67" y="-141" font-family="Helvetica,sans-Serif" font-size="10.00">Packet.getType</text>
</g>
<!-- Node2 -->
<g id="node2" class="node"><title>Node2</title>
<g id="a_node2"><a xlink:href="classgestorempleados_1_1control_1_1_negocio_cliente.xhtml#ac8ccee3f2bb015ca54c4a469d4b6b249" target="_top" xlink:title="gestorempleados.control.\lNegocioCliente.setEmpleado">
<polygon fill="white" stroke="black" points="188,-330 188,-360 330,-360 330,-330 188,-330"/>
<text text-anchor="start" x="196" y="-348" font-family="Helvetica,sans-Serif" font-size="10.00">gestorempleados.control.</text>
<text text-anchor="middle" x="259" y="-337" font-family="Helvetica,sans-Serif" font-size="10.00">NegocioCliente.setEmpleado</text>
</a>
</g>
</g>
<!-- Node1&#45;&gt;Node2 -->
<g id="edge1" class="edge"><title>Node1&#45;&gt;Node2</title>
<path fill="none" stroke="midnightblue" d="M85.5174,-172.33C104.995,-197.68 137.949,-238.858 170,-271 191.847,-292.909 219.499,-315.416 237.917,-329.764"/>
<polygon fill="midnightblue" stroke="midnightblue" points="88.2975,-170.204 79.4495,-164.376 82.7321,-174.45 88.2975,-170.204"/>
</g>
<!-- Node4 -->
<g id="node4" class="node"><title>Node4</title>
<g id="a_node4"><a xlink:href="classgestorempleados_1_1control_1_1_negocio_cliente.xhtml#a9636f9f7cd80e0eb68a18113fd3dd8ae" target="_top" xlink:title="gestorempleados.control.\lNegocioCliente.modifDatosEmpleado">
<polygon fill="white" stroke="black" points="170.5,-232 170.5,-262 347.5,-262 347.5,-232 170.5,-232"/>
<text text-anchor="start" x="178.5" y="-250" font-family="Helvetica,sans-Serif" font-size="10.00">gestorempleados.control.</text>
<text text-anchor="middle" x="259" y="-239" font-family="Helvetica,sans-Serif" font-size="10.00">NegocioCliente.modifDatosEmpleado</text>
</a>
</g>
</g>
<!-- Node1&#45;&gt;Node4 -->
<g id="edge3" class="edge"><title>Node1&#45;&gt;Node4</title>
<path fill="none" stroke="midnightblue" d="M106.521,-168.869C142.656,-187.507 195.906,-214.973 228.696,-231.885"/>
<polygon fill="midnightblue" stroke="midnightblue" points="107.763,-165.571 97.2711,-164.098 104.554,-171.792 107.763,-165.571"/>
</g>
<!-- Node8 -->
<g id="node8" class="node"><title>Node8</title>
<g id="a_node8"><a xlink:href="classgestorempleados_1_1control_1_1_negocio_cliente.xhtml#acb0bab9fbbddd5c886bc9f2ddfe6e695" target="_top" xlink:title="gestorempleados.control.\lNegocioCliente.getReporte">
<polygon fill="white" stroke="black" points="193,-134 193,-164 325,-164 325,-134 193,-134"/>
<text text-anchor="start" x="201" y="-152" font-family="Helvetica,sans-Serif" font-size="10.00">gestorempleados.control.</text>
<text text-anchor="middle" x="259" y="-141" font-family="Helvetica,sans-Serif" font-size="10.00">NegocioCliente.getReporte</text>
</a>
</g>
</g>
<!-- Node1&#45;&gt;Node8 -->
<g id="edge7" class="edge"><title>Node1&#45;&gt;Node8</title>
<path fill="none" stroke="midnightblue" d="M144.548,-149C160.506,-149 177.186,-149 192.692,-149"/>
<polygon fill="midnightblue" stroke="midnightblue" points="144.186,-145.5 134.186,-149 144.186,-152.5 144.186,-145.5"/>
</g>
<!-- Node11 -->
<g id="node11" class="node"><title>Node11</title>
<g id="a_node11"><a xlink:href="classgestorempleados_1_1control_1_1_negocio_cliente.xhtml#a11aa15a708641a8b68de872407c0acc9" target="_top" xlink:title="gestorempleados.control.\lNegocioCliente.validateId">
<polygon fill="white" stroke="black" points="196,-82 196,-112 322,-112 322,-82 196,-82"/>
<text text-anchor="start" x="204" y="-100" font-family="Helvetica,sans-Serif" font-size="10.00">gestorempleados.control.</text>
<text text-anchor="middle" x="259" y="-89" font-family="Helvetica,sans-Serif" font-size="10.00">NegocioCliente.validateId</text>
</a>
</g>
</g>
<!-- Node1&#45;&gt;Node11 -->
<g id="edge10" class="edge"><title>Node1&#45;&gt;Node11</title>
<path fill="none" stroke="midnightblue" d="M132.607,-131.318C155.544,-125.041 181.124,-118.04 203.168,-112.007"/>
<polygon fill="midnightblue" stroke="midnightblue" points="131.677,-127.944 122.956,-133.959 133.525,-134.695 131.677,-127.944"/>
</g>
<!-- Node13 -->
<g id="node13" class="node"><title>Node13</title>
<g id="a_node13"><a xlink:href="classgestorempleados_1_1control_1_1_negocio_cliente.xhtml#a47fbb19a34ae4e6d107295cb2feda080" target="_top" xlink:title="gestorempleados.control.\lNegocioCliente.validateUser">
<polygon fill="white" stroke="black" points="190.5,-27 190.5,-57 327.5,-57 327.5,-27 190.5,-27"/>
<text text-anchor="start" x="198.5" y="-45" font-family="Helvetica,sans-Serif" font-size="10.00">gestorempleados.control.</text>
<text text-anchor="middle" x="259" y="-34" font-family="Helvetica,sans-Serif" font-size="10.00">NegocioCliente.validateUser</text>
</a>
</g>
</g>
<!-- Node1&#45;&gt;Node13 -->
<g id="edge12" class="edge"><title>Node1&#45;&gt;Node13</title>
<path fill="none" stroke="midnightblue" d="M92.1463,-127.243C111.919,-110.331 141.229,-87.2573 170,-72 180.838,-66.2528 192.996,-61.2739 204.737,-57.1138"/>
<polygon fill="midnightblue" stroke="midnightblue" points="89.7986,-124.646 84.5431,-133.846 94.3884,-129.932 89.7986,-124.646"/>
</g>
<!-- Node3 -->
<g id="node3" class="node"><title>Node3</title>
<g id="a_node3"><a xlink:href="classplugins_1_1_panel___alta.xhtml#a804926b94fa2f64e79032ded83f6b1e6" target="_top" xlink:title="plugins.Panel_Alta.crear\lPanel">
<polygon fill="white" stroke="black" points="399,-355 399,-385 521,-385 521,-355 399,-355"/>
<text text-anchor="start" x="407" y="-373" font-family="Helvetica,sans-Serif" font-size="10.00">plugins.Panel_Alta.crear</text>
<text text-anchor="middle" x="460" y="-362" font-family="Helvetica,sans-Serif" font-size="10.00">Panel</text>
</a>
</g>
</g>
<!-- Node2&#45;&gt;Node3 -->
<g id="edge2" class="edge"><title>Node2&#45;&gt;Node3</title>
<path fill="none" stroke="midnightblue" d="M340.253,-355.082C359.765,-357.533 380.304,-360.114 398.711,-362.426"/>
<polygon fill="midnightblue" stroke="midnightblue" points="340.518,-351.588 330.16,-353.814 339.646,-358.533 340.518,-351.588"/>
</g>
<!-- Node5 -->
<g id="node5" class="node"><title>Node5</title>
<g id="a_node5"><a xlink:href="classplugins_1_1_panel___consultas.xhtml#a4072616654f5b0d96c9ba7213b140d36" target="_top" xlink:title="plugins.Panel_Consultas.editar\lDatosEmpleado">
<polygon fill="white" stroke="black" points="384.5,-306 384.5,-336 535.5,-336 535.5,-306 384.5,-306"/>
<text text-anchor="start" x="392.5" y="-324" font-family="Helvetica,sans-Serif" font-size="10.00">plugins.Panel_Consultas.editar</text>
<text text-anchor="middle" x="460" y="-313" font-family="Helvetica,sans-Serif" font-size="10.00">DatosEmpleado</text>
</a>
</g>
</g>
<!-- Node4&#45;&gt;Node5 -->
<g id="edge4" class="edge"><title>Node4&#45;&gt;Node5</title>
<path fill="none" stroke="midnightblue" d="M305.978,-265.861C329.246,-275.229 358,-286.537 384,-296 393.157,-299.333 403.004,-302.74 412.454,-305.924"/>
<polygon fill="midnightblue" stroke="midnightblue" points="307.278,-262.611 296.695,-262.109 304.655,-269.101 307.278,-262.611"/>
</g>
<!-- Node6 -->
<g id="node6" class="node"><title>Node6</title>
<g id="a_node6"><a xlink:href="classplugins_1_1_panel___consultas.xhtml#aef9cb36e8db78e3bd75c3e4acf0bc9e4" target="_top" xlink:title="plugins.Panel_Consultas.editar\lCVEmpleado">
<polygon fill="white" stroke="black" points="384.5,-257 384.5,-287 535.5,-287 535.5,-257 384.5,-257"/>
<text text-anchor="start" x="392.5" y="-275" font-family="Helvetica,sans-Serif" font-size="10.00">plugins.Panel_Consultas.editar</text>
<text text-anchor="middle" x="460" y="-264" font-family="Helvetica,sans-Serif" font-size="10.00">CVEmpleado</text>
</a>
</g>
</g>
<!-- Node4&#45;&gt;Node6 -->
<g id="edge5" class="edge"><title>Node4&#45;&gt;Node6</title>
<path fill="none" stroke="midnightblue" d="M357.707,-259.275C366.704,-260.405 375.72,-261.538 384.461,-262.636"/>
<polygon fill="midnightblue" stroke="midnightblue" points="357.932,-255.776 347.574,-258.002 357.06,-262.721 357.932,-255.776"/>
</g>
<!-- Node7 -->
<g id="node7" class="node"><title>Node7</title>
<g id="a_node7"><a xlink:href="classplugins_1_1_panel___consultas.xhtml#ad1596ee5ed80b3214b8374f3f0a97ef6" target="_top" xlink:title="plugins.Panel_Consultas.editar\lContratosEmpleado">
<polygon fill="white" stroke="black" points="384.5,-208 384.5,-238 535.5,-238 535.5,-208 384.5,-208"/>
<text text-anchor="start" x="392.5" y="-226" font-family="Helvetica,sans-Serif" font-size="10.00">plugins.Panel_Consultas.editar</text>
<text text-anchor="middle" x="460" y="-215" font-family="Helvetica,sans-Serif" font-size="10.00">ContratosEmpleado</text>
</a>
</g>
</g>
<!-- Node4&#45;&gt;Node7 -->
<g id="edge6" class="edge"><title>Node4&#45;&gt;Node7</title>
<path fill="none" stroke="midnightblue" d="M357.707,-235.216C366.704,-234.131 375.72,-233.044 384.461,-231.99"/>
<polygon fill="midnightblue" stroke="midnightblue" points="357.083,-231.766 347.574,-236.438 357.921,-238.716 357.083,-231.766"/>
</g>
<!-- Node9 -->
<g id="node9" class="node"><title>Node9</title>
<g id="a_node9"><a xlink:href="classplugins_1_1_panel___busqueda.xhtml#a8d47495fc4538acdfbc2f27cddffce0d" target="_top" xlink:title="plugins.Panel_Busqueda.crear\lPanel">
<polygon fill="white" stroke="black" points="385.5,-159 385.5,-189 534.5,-189 534.5,-159 385.5,-159"/>
<text text-anchor="start" x="393.5" y="-177" font-family="Helvetica,sans-Serif" font-size="10.00">plugins.Panel_Busqueda.crear</text>
<text text-anchor="middle" x="460" y="-166" font-family="Helvetica,sans-Serif" font-size="10.00">Panel</text>
</a>
</g>
</g>
<!-- Node8&#45;&gt;Node9 -->
<g id="edge8" class="edge"><title>Node8&#45;&gt;Node9</title>
<path fill="none" stroke="midnightblue" d="M335.252,-158.454C351.684,-160.518 369.055,-162.7 385.421,-164.756"/>
<polygon fill="midnightblue" stroke="midnightblue" points="335.518,-154.96 325.16,-157.186 334.646,-161.905 335.518,-154.96"/>
</g>
<!-- Node10 -->
<g id="node10" class="node"><title>Node10</title>
<g id="a_node10"><a xlink:href="classplugins_1_1_panel___registros.xhtml#aae4d01f2f3b9885bee3d9e8057cebece" target="_top" xlink:title="plugins.Panel_Registros.\lPanel_Registros">
<polygon fill="white" stroke="black" points="397.5,-110 397.5,-140 522.5,-140 522.5,-110 397.5,-110"/>
<text text-anchor="start" x="405.5" y="-128" font-family="Helvetica,sans-Serif" font-size="10.00">plugins.Panel_Registros.</text>
<text text-anchor="middle" x="460" y="-117" font-family="Helvetica,sans-Serif" font-size="10.00">Panel_Registros</text>
</a>
</g>
</g>
<!-- Node8&#45;&gt;Node10 -->
<g id="edge9" class="edge"><title>Node8&#45;&gt;Node10</title>
<path fill="none" stroke="midnightblue" d="M335.116,-139.941C355.672,-137.462 377.707,-134.804 397.411,-132.428"/>
<polygon fill="midnightblue" stroke="midnightblue" points="334.669,-136.469 325.16,-141.142 335.507,-143.419 334.669,-136.469"/>
</g>
<!-- Node12 -->
<g id="node12" class="node"><title>Node12</title>
<g id="a_node12"><a xlink:href="classgestorempleados_1_1interficie_1_1_panel___datos_personales.xhtml#a3c7e18bd89aaa31bb40ce20d753b4510" target="_top" xlink:title="gestorempleados.interficie.\lPanel_DatosPersonales.Panel\l_DatosPersonales">
<polygon fill="white" stroke="black" points="385.5,-49.5 385.5,-90.5 534.5,-90.5 534.5,-49.5 385.5,-49.5"/>
<text text-anchor="start" x="393.5" y="-78.5" font-family="Helvetica,sans-Serif" font-size="10.00">gestorempleados.interficie.</text>
<text text-anchor="start" x="393.5" y="-67.5" font-family="Helvetica,sans-Serif" font-size="10.00">Panel_DatosPersonales.Panel</text>
<text text-anchor="middle" x="460" y="-56.5" font-family="Helvetica,sans-Serif" font-size="10.00">_DatosPersonales</text>
</a>
</g>
</g>
<!-- Node11&#45;&gt;Node12 -->
<g id="edge11" class="edge"><title>Node11&#45;&gt;Node12</title>
<path fill="none" stroke="midnightblue" d="M332.199,-87.2042C349.538,-84.8517 368.076,-82.3365 385.474,-79.9759"/>
<polygon fill="midnightblue" stroke="midnightblue" points="331.585,-83.7553 322.146,-88.5681 332.526,-90.6918 331.585,-83.7553"/>
</g>
<!-- Node14 -->
<g id="node14" class="node"><title>Node14</title>
<g id="a_node14"><a xlink:href="classgestorempleados_1_1interficie_1_1_start_client.xhtml#a8fbbf7d526b86a7c9662033ca9839428" target="_top" xlink:title="gestorempleados.interficie.\lStartClient.confirmaUsuario">
<polygon fill="white" stroke="black" points="392.5,-0 392.5,-30 527.5,-30 527.5,-0 392.5,-0"/>
<text text-anchor="start" x="400.5" y="-18" font-family="Helvetica,sans-Serif" font-size="10.00">gestorempleados.interficie.</text>
<text text-anchor="middle" x="460" y="-7" font-family="Helvetica,sans-Serif" font-size="10.00">StartClient.confirmaUsuario</text>
</a>
</g>
</g>
<!-- Node13&#45;&gt;Node14 -->
<g id="edge13" class="edge"><title>Node13&#45;&gt;Node14</title>
<path fill="none" stroke="midnightblue" d="M337.809,-31.4431C355.785,-29.004 374.754,-26.4303 392.212,-24.0617"/>
<polygon fill="midnightblue" stroke="midnightblue" points="337.089,-28.0086 327.65,-32.8214 338.03,-34.945 337.089,-28.0086"/>
</g>
</g>
</svg>
