<?xml version="1.0" encoding="UTF-8" standalone="no"?>
<!DOCTYPE svg PUBLIC "-//W3C//DTD SVG 1.1//EN"
 "http://www.w3.org/Graphics/SVG/1.1/DTD/svg11.dtd">
<!-- Generated by graphviz version 2.30.1 (20130214.1330)
 -->
<!-- Title: gestorempleados.control.NegocioCliente.modifDatosEmpleado Pages: 1 -->
<!--zoomable 1618 -->
<svg id="main" version="1.1" xmlns="http://www.w3.org/2000/svg" xmlns:xlink="http://www.w3.org/1999/xlink" xml:space="preserve" onload="init(evt)">
<style type="text/css"><![CDATA[
.edge:hover path { stroke: red; }
.edge:hover polygon { stroke: red; fill: red; }
]]></style>
<script type="text/javascript"><![CDATA[
var edges = document.getElementsByTagName('g');
if (edges && edges.length) {
  for (var i=0;i<edges.length;i++) {
    if (edges[i].id.substr(0,4)=='edge') {
      edges[i].setAttribute('class','edge');
    }
  }
}
]]></script>
        <defs>
                <circle id="rim" cx="0" cy="0" r="7"/>
                <circle id="rim2" cx="0" cy="0" r="3.5"/>
                <g id="zoomPlus">
                        <use xlink:href="#rim" fill="#404040">
                                <set attributeName="fill" to="#808080" begin="zoomplus.mouseover" end="zoomplus.mouseout"/>
                        </use>
                        <path d="M-4,0h8M0,-4v8" fill="none" stroke="white" stroke-width="1.5" pointer-events="none"/>
                </g>
                <g id="zoomMin">
                        <use xlink:href="#rim" fill="#404040">
                                <set attributeName="fill" to="#808080" begin="zoomminus.mouseover" end="zoomminus.mouseout"/>
                        </use>
                        <path d="M-4,0h8" fill="none" stroke="white" stroke-width="1.5" pointer-events="none"/>
                </g>
                <g id="dirArrow">
                        <path fill="none" stroke="white" stroke-width="1.5" d="M0,-3.0v7 M-2.5,-0.5L0,-3.0L2.5,-0.5"/>
                </g>
               <g id="resetDef">
                       <use xlink:href="#rim2" fill="#404040">
                               <set attributeName="fill" to="#808080" begin="reset.mouseover" end="reset.mouseout"/>
                       </use>
               </g>
        </defs>

<script type="text/javascript">
var viewWidth = 586;
var viewHeight = 1618;
var sectionId = 'dynsection-9';
</script>
<script xlink:href="svgpan.js"/>
<svg id="graph" class="graph">
<g id="viewport">
<title>gestorempleados.control.NegocioCliente.modifDatosEmpleado</title>
<polygon fill="white" stroke="white" points="-4,5 -4,-1614 583,-1614 583,5 -4,5"/>
<!-- Node1 -->
<g id="node1" class="node"><title>Node1</title>
<polygon fill="#bfbfbf" stroke="black" points="0.5,-784 0.5,-814 177.5,-814 177.5,-784 0.5,-784"/>
<text text-anchor="start" x="8.5" y="-802" font-family="Helvetica,sans-Serif" font-size="10.00">gestorempleados.control.</text>
<text text-anchor="middle" x="89" y="-791" font-family="Helvetica,sans-Serif" font-size="10.00">NegocioCliente.modifDatosEmpleado</text>
</g>
<!-- Node2 -->
<g id="node2" class="node"><title>Node2</title>
<g id="a_node2"><a xlink:href="classgestorempleados_1_1interficie_1_1_panel___datos_personales.xhtml#a899e0749f4984c9ae41192d646fc3dd8" target="_top" xlink:title="gestorempleados.interficie.\lPanel_DatosPersonales.getNombre">
<polygon fill="white" stroke="black" points="225.5,-1580 225.5,-1610 396.5,-1610 396.5,-1580 225.5,-1580"/>
<text text-anchor="start" x="233.5" y="-1598" font-family="Helvetica,sans-Serif" font-size="10.00">gestorempleados.interficie.</text>
<text text-anchor="middle" x="311" y="-1587" font-family="Helvetica,sans-Serif" font-size="10.00">Panel_DatosPersonales.getNombre</text>
</a>
</g>
</g>
<!-- Node1&#45;&gt;Node2 -->
<g id="edge1" class="edge"><title>Node1&#45;&gt;Node2</title>
<path fill="none" stroke="midnightblue" d="M90.2566,-814.034C92.2244,-911.479 107.877,-1453.25 214,-1570 215.195,-1571.31 216.449,-1572.56 217.756,-1573.75"/>
<polygon fill="midnightblue" stroke="midnightblue" points="215.704,-1576.59 225.772,-1579.89 219.96,-1571.03 215.704,-1576.59"/>
</g>
<!-- Node3 -->
<g id="node3" class="node"><title>Node3</title>
<g id="a_node3"><a xlink:href="classgestorempleados_1_1interficie_1_1_panel___datos_personales.xhtml#a6e38c4881235393d0cc07bbb70884e06" target="_top" xlink:title="gestorempleados.interficie.\lPanel_DatosPersonales.getApellido1">
<polygon fill="white" stroke="black" points="222.5,-1531 222.5,-1561 399.5,-1561 399.5,-1531 222.5,-1531"/>
<text text-anchor="start" x="230.5" y="-1549" font-family="Helvetica,sans-Serif" font-size="10.00">gestorempleados.interficie.</text>
<text text-anchor="middle" x="311" y="-1538" font-family="Helvetica,sans-Serif" font-size="10.00">Panel_DatosPersonales.getApellido1</text>
</a>
</g>
</g>
<!-- Node1&#45;&gt;Node3 -->
<g id="edge2" class="edge"><title>Node1&#45;&gt;Node3</title>
<path fill="none" stroke="midnightblue" d="M90.4432,-814.287C93.4902,-908.746 114.296,-1412.47 214,-1521 215.202,-1522.31 216.462,-1523.55 217.775,-1524.73"/>
<polygon fill="midnightblue" stroke="midnightblue" points="215.739,-1527.58 225.819,-1530.85 219.975,-1522.01 215.739,-1527.58"/>
</g>
<!-- Node4 -->
<g id="node4" class="node"><title>Node4</title>
<g id="a_node4"><a xlink:href="classgestorempleados_1_1interficie_1_1_panel___datos_personales.xhtml#af82cd17735680fd28bb0e245a5f2d9c6" target="_top" xlink:title="gestorempleados.interficie.\lPanel_DatosPersonales.getApellido2">
<polygon fill="white" stroke="black" points="222.5,-1482 222.5,-1512 399.5,-1512 399.5,-1482 222.5,-1482"/>
<text text-anchor="start" x="230.5" y="-1500" font-family="Helvetica,sans-Serif" font-size="10.00">gestorempleados.interficie.</text>
<text text-anchor="middle" x="311" y="-1489" font-family="Helvetica,sans-Serif" font-size="10.00">Panel_DatosPersonales.getApellido2</text>
</a>
</g>
</g>
<!-- Node1&#45;&gt;Node4 -->
<g id="edge3" class="edge"><title>Node1&#45;&gt;Node4</title>
<path fill="none" stroke="midnightblue" d="M90.6431,-814.126C94.7847,-904.401 120.552,-1371.51 214,-1472 215.209,-1473.3 216.477,-1474.54 217.797,-1475.71"/>
<polygon fill="midnightblue" stroke="midnightblue" points="215.779,-1478.57 225.873,-1481.8 219.991,-1472.98 215.779,-1478.57"/>
</g>
<!-- Node5 -->
<g id="node5" class="node"><title>Node5</title>
<g id="a_node5"><a xlink:href="classgestorempleados_1_1interficie_1_1_panel___datos_personales.xhtml#a51b492f3953b630494cf39f06f2b3643" target="_top" xlink:title="gestorempleados.interficie.\lPanel_DatosPersonales.getNacionalidad">
<polygon fill="white" stroke="black" points="214.5,-1433 214.5,-1463 407.5,-1463 407.5,-1433 214.5,-1433"/>
<text text-anchor="start" x="222.5" y="-1451" font-family="Helvetica,sans-Serif" font-size="10.00">gestorempleados.interficie.</text>
<text text-anchor="middle" x="311" y="-1440" font-family="Helvetica,sans-Serif" font-size="10.00">Panel_DatosPersonales.getNacionalidad</text>
</a>
</g>
</g>
<!-- Node1&#45;&gt;Node5 -->
<g id="edge4" class="edge"><title>Node1&#45;&gt;Node5</title>
<path fill="none" stroke="midnightblue" d="M90.8806,-814.143C96.2068,-900.543 126.853,-1330.59 214,-1423 215.219,-1424.29 216.495,-1425.52 217.822,-1426.69"/>
<polygon fill="midnightblue" stroke="midnightblue" points="215.825,-1429.57 225.934,-1432.74 220.01,-1423.95 215.825,-1429.57"/>
</g>
<!-- Node6 -->
<g id="node6" class="node"><title>Node6</title>
<g id="a_node6"><a xlink:href="classgestorempleados_1_1interficie_1_1_panel___datos_personales.xhtml#a149189f52c39a501a4d21181564c3a3a" target="_top" xlink:title="gestorempleados.interficie.\lPanel_DatosPersonales.getFecha\l_nacimiento">
<polygon fill="white" stroke="black" points="229,-1372.5 229,-1413.5 393,-1413.5 393,-1372.5 229,-1372.5"/>
<text text-anchor="start" x="237" y="-1401.5" font-family="Helvetica,sans-Serif" font-size="10.00">gestorempleados.interficie.</text>
<text text-anchor="start" x="237" y="-1390.5" font-family="Helvetica,sans-Serif" font-size="10.00">Panel_DatosPersonales.getFecha</text>
<text text-anchor="middle" x="311" y="-1379.5" font-family="Helvetica,sans-Serif" font-size="10.00">_nacimiento</text>
</a>
</g>
</g>
<!-- Node1&#45;&gt;Node6 -->
<g id="edge5" class="edge"><title>Node1&#45;&gt;Node6</title>
<path fill="none" stroke="midnightblue" d="M91.323,-814.165C98.6878,-895.279 137.098,-1277.37 214,-1362 215.988,-1364.19 218.13,-1366.22 220.399,-1368.11"/>
<polygon fill="midnightblue" stroke="midnightblue" points="218.401,-1370.99 228.556,-1374.01 222.5,-1365.31 218.401,-1370.99"/>
</g>
<!-- Node10 -->
<g id="node10" class="node"><title>Node10</title>
<g id="a_node10"><a xlink:href="classgestorempleados_1_1interficie_1_1_panel___datos_personales.xhtml#af3fbb56a8609eebfecb4caec48725a9a" target="_top" xlink:title="gestorempleados.interficie.\lPanel_DatosPersonales.getCc">
<polygon fill="white" stroke="black" points="236.5,-1225 236.5,-1255 385.5,-1255 385.5,-1225 236.5,-1225"/>
<text text-anchor="start" x="244.5" y="-1243" font-family="Helvetica,sans-Serif" font-size="10.00">gestorempleados.interficie.</text>
<text text-anchor="middle" x="311" y="-1232" font-family="Helvetica,sans-Serif" font-size="10.00">Panel_DatosPersonales.getCc</text>
</a>
</g>
</g>
<!-- Node1&#45;&gt;Node10 -->
<g id="edge9" class="edge"><title>Node1&#45;&gt;Node10</title>
<path fill="none" stroke="midnightblue" d="M89.5961,-814.121C88.8532,-874.361 94.4628,-1099.57 214,-1215 217.85,-1218.72 222.181,-1221.9 226.817,-1224.63"/>
<polygon fill="midnightblue" stroke="midnightblue" points="225.566,-1227.92 236.067,-1229.32 228.733,-1221.67 225.566,-1227.92"/>
</g>
<!-- Node11 -->
<g id="node11" class="node"><title>Node11</title>
<g id="a_node11"><a xlink:href="classgestorempleados_1_1interficie_1_1_panel___datos_personales.xhtml#a2295537231097ec735de625d9ea7c0e8" target="_top" xlink:title="gestorempleados.interficie.\lPanel_DatosPersonales.getDireccion">
<polygon fill="white" stroke="black" points="222,-1176 222,-1206 400,-1206 400,-1176 222,-1176"/>
<text text-anchor="start" x="230" y="-1194" font-family="Helvetica,sans-Serif" font-size="10.00">gestorempleados.interficie.</text>
<text text-anchor="middle" x="311" y="-1183" font-family="Helvetica,sans-Serif" font-size="10.00">Panel_DatosPersonales.getDireccion</text>
</a>
</g>
</g>
<!-- Node1&#45;&gt;Node11 -->
<g id="edge10" class="edge"><title>Node1&#45;&gt;Node11</title>
<path fill="none" stroke="midnightblue" d="M90.2935,-814.253C92.2288,-870.202 106.711,-1066.08 214,-1166 215.69,-1167.57 217.466,-1169.05 219.314,-1170.44"/>
<polygon fill="midnightblue" stroke="midnightblue" points="217.545,-1173.46 227.842,-1175.96 221.348,-1167.59 217.545,-1173.46"/>
</g>
<!-- Node12 -->
<g id="node12" class="node"><title>Node12</title>
<g id="a_node12"><a xlink:href="classgestorempleados_1_1interficie_1_1_panel___datos_personales.xhtml#a9fd107784ef4837d778216c16902b4e2" target="_top" xlink:title="gestorempleados.interficie.\lPanel_DatosPersonales.getPoblacion">
<polygon fill="white" stroke="black" points="221,-1127 221,-1157 401,-1157 401,-1127 221,-1127"/>
<text text-anchor="start" x="229" y="-1145" font-family="Helvetica,sans-Serif" font-size="10.00">gestorempleados.interficie.</text>
<text text-anchor="middle" x="311" y="-1134" font-family="Helvetica,sans-Serif" font-size="10.00">Panel_DatosPersonales.getPoblacion</text>
</a>
</g>
</g>
<!-- Node1&#45;&gt;Node12 -->
<g id="edge11" class="edge"><title>Node1&#45;&gt;Node12</title>
<path fill="none" stroke="midnightblue" d="M91.1972,-814.343C96.0437,-865.584 118.798,-1032.34 214,-1117 215.778,-1118.58 217.643,-1120.06 219.581,-1121.46"/>
<polygon fill="midnightblue" stroke="midnightblue" points="218.158,-1124.69 228.502,-1126.98 221.846,-1118.74 218.158,-1124.69"/>
</g>
<!-- Node13 -->
<g id="node13" class="node"><title>Node13</title>
<g id="a_node13"><a xlink:href="classgestorempleados_1_1interficie_1_1_panel___datos_personales.xhtml#acedd5786b9671648f499a4731592409f" target="_top" xlink:title="gestorempleados.interficie.\lPanel_DatosPersonales.getTelefono">
<polygon fill="white" stroke="black" points="224.5,-1078 224.5,-1108 397.5,-1108 397.5,-1078 224.5,-1078"/>
<text text-anchor="start" x="232.5" y="-1096" font-family="Helvetica,sans-Serif" font-size="10.00">gestorempleados.interficie.</text>
<text text-anchor="middle" x="311" y="-1085" font-family="Helvetica,sans-Serif" font-size="10.00">Panel_DatosPersonales.getTelefono</text>
</a>
</g>
</g>
<!-- Node1&#45;&gt;Node13 -->
<g id="edge12" class="edge"><title>Node1&#45;&gt;Node13</title>
<path fill="none" stroke="midnightblue" d="M92.3769,-814.231C100.365,-860.125 130.591,-998.199 214,-1068 216.022,-1069.69 218.146,-1071.27 220.353,-1072.75"/>
<polygon fill="midnightblue" stroke="midnightblue" points="218.827,-1075.91 229.228,-1077.92 222.354,-1069.86 218.827,-1075.91"/>
</g>
<!-- Node14 -->
<g id="node14" class="node"><title>Node14</title>
<g id="a_node14"><a xlink:href="classgestorempleados_1_1interficie_1_1_panel___datos_personales.xhtml#ab2dd7c9850d4c20e4ed8db844acfec2b" target="_top" xlink:title="gestorempleados.interficie.\lPanel_DatosPersonales.getFoto">
<polygon fill="white" stroke="black" points="232.5,-1029 232.5,-1059 389.5,-1059 389.5,-1029 232.5,-1029"/>
<text text-anchor="start" x="240.5" y="-1047" font-family="Helvetica,sans-Serif" font-size="10.00">gestorempleados.interficie.</text>
<text text-anchor="middle" x="311" y="-1036" font-family="Helvetica,sans-Serif" font-size="10.00">Panel_DatosPersonales.getFoto</text>
</a>
</g>
</g>
<!-- Node1&#45;&gt;Node14 -->
<g id="edge13" class="edge"><title>Node1&#45;&gt;Node14</title>
<path fill="none" stroke="midnightblue" d="M93.986,-814.009C105.398,-853.963 142.09,-963.632 214,-1019 216.972,-1021.29 220.134,-1023.37 223.431,-1025.26"/>
<polygon fill="midnightblue" stroke="midnightblue" points="221.937,-1028.43 232.437,-1029.83 225.107,-1022.18 221.937,-1028.43"/>
</g>
<!-- Node15 -->
<g id="node15" class="node"><title>Node15</title>
<g id="a_node15"><a xlink:href="classgestorempleados_1_1interficie_1_1_panel___curriculo.xhtml#a6e243e94dd510677b46dd826441d3173" target="_top" xlink:title="gestorempleados.interficie.\lPanel_Curriculo.getIdiomas">
<polygon fill="white" stroke="black" points="243.5,-980 243.5,-1010 378.5,-1010 378.5,-980 243.5,-980"/>
<text text-anchor="start" x="251.5" y="-998" font-family="Helvetica,sans-Serif" font-size="10.00">gestorempleados.interficie.</text>
<text text-anchor="middle" x="311" y="-987" font-family="Helvetica,sans-Serif" font-size="10.00">Panel_Curriculo.getIdiomas</text>
</a>
</g>
</g>
<!-- Node1&#45;&gt;Node15 -->
<g id="edge14" class="edge"><title>Node1&#45;&gt;Node15</title>
<path fill="none" stroke="midnightblue" d="M96.5096,-814.031C111.817,-847.536 153.429,-928.644 214,-970 220.063,-974.139 226.768,-977.594 233.734,-980.476"/>
<polygon fill="midnightblue" stroke="midnightblue" points="232.765,-983.85 243.358,-984.062 235.21,-977.291 232.765,-983.85"/>
</g>
<!-- Node16 -->
<g id="node16" class="node"><title>Node16</title>
<g id="a_node16"><a xlink:href="classgestorempleados_1_1interficie_1_1_panel___curriculo.xhtml#a8a90914acfc7608cdc2ae95cf0934a1e" target="_top" xlink:title="gestorempleados.interficie.\lPanel_Curriculo.getTitulacion">
<polygon fill="white" stroke="black" points="239.5,-931 239.5,-961 382.5,-961 382.5,-931 239.5,-931"/>
<text text-anchor="start" x="247.5" y="-949" font-family="Helvetica,sans-Serif" font-size="10.00">gestorempleados.interficie.</text>
<text text-anchor="middle" x="311" y="-938" font-family="Helvetica,sans-Serif" font-size="10.00">Panel_Curriculo.getTitulacion</text>
</a>
</g>
</g>
<!-- Node1&#45;&gt;Node16 -->
<g id="edge15" class="edge"><title>Node1&#45;&gt;Node16</title>
<path fill="none" stroke="midnightblue" d="M101.146,-814.321C120.891,-840.322 164.616,-892.985 214,-921 219.038,-923.858 224.41,-926.397 229.94,-928.65"/>
<polygon fill="midnightblue" stroke="midnightblue" points="228.773,-931.951 239.365,-932.18 231.228,-925.395 228.773,-931.951"/>
</g>
<!-- Node17 -->
<g id="node17" class="node"><title>Node17</title>
<g id="a_node17"><a xlink:href="classgestorempleados_1_1interficie_1_1_panel___curriculo.xhtml#a42aa0b5aaee9fc32234e164ce5f3ca00" target="_top" xlink:title="gestorempleados.interficie.\lPanel_Curriculo.getExperiencia">
<polygon fill="white" stroke="black" points="235,-882 235,-912 387,-912 387,-882 235,-882"/>
<text text-anchor="start" x="243" y="-900" font-family="Helvetica,sans-Serif" font-size="10.00">gestorempleados.interficie.</text>
<text text-anchor="middle" x="311" y="-889" font-family="Helvetica,sans-Serif" font-size="10.00">Panel_Curriculo.getExperiencia</text>
</a>
</g>
</g>
<!-- Node1&#45;&gt;Node17 -->
<g id="edge16" class="edge"><title>Node1&#45;&gt;Node17</title>
<path fill="none" stroke="midnightblue" d="M111.435,-814.125C135.422,-830.441 175.93,-856.199 214,-872 220.092,-874.528 226.509,-876.86 233.019,-878.997"/>
<polygon fill="midnightblue" stroke="midnightblue" points="232.006,-882.347 242.595,-881.988 234.094,-875.665 232.006,-882.347"/>
</g>
<!-- Node18 -->
<g id="node18" class="node"><title>Node18</title>
<g id="a_node18"><a xlink:href="classgestorempleados_1_1interficie_1_1_panel___contrato.xhtml#aaa72cacd34a762ae5b458f42b1e4d814" target="_top" xlink:title="gestorempleados.interficie.\lPanel_Contrato.getCargo">
<polygon fill="white" stroke="black" points="244.5,-833 244.5,-863 377.5,-863 377.5,-833 244.5,-833"/>
<text text-anchor="start" x="252.5" y="-851" font-family="Helvetica,sans-Serif" font-size="10.00">gestorempleados.interficie.</text>
<text text-anchor="middle" x="311" y="-840" font-family="Helvetica,sans-Serif" font-size="10.00">Panel_Contrato.getCargo</text>
</a>
</g>
</g>
<!-- Node1&#45;&gt;Node18 -->
<g id="edge17" class="edge"><title>Node1&#45;&gt;Node18</title>
<path fill="none" stroke="midnightblue" d="M157.502,-814.035C181.811,-819.449 209.391,-825.592 234.349,-831.151"/>
<polygon fill="midnightblue" stroke="midnightblue" points="233.614,-834.572 244.136,-833.33 235.136,-827.74 233.614,-834.572"/>
</g>
<!-- Node19 -->
<g id="node19" class="node"><title>Node19</title>
<g id="a_node19"><a xlink:href="classgestorempleados_1_1interficie_1_1_panel___contrato.xhtml#a1ab0aeec734bc30be89b539b2805be37" target="_top" xlink:title="gestorempleados.interficie.\lPanel_Contrato.getOrigen">
<polygon fill="white" stroke="black" points="244.5,-784 244.5,-814 377.5,-814 377.5,-784 244.5,-784"/>
<text text-anchor="start" x="252.5" y="-802" font-family="Helvetica,sans-Serif" font-size="10.00">gestorempleados.interficie.</text>
<text text-anchor="middle" x="311" y="-791" font-family="Helvetica,sans-Serif" font-size="10.00">Panel_Contrato.getOrigen</text>
</a>
</g>
</g>
<!-- Node1&#45;&gt;Node19 -->
<g id="edge18" class="edge"><title>Node1&#45;&gt;Node19</title>
<path fill="none" stroke="midnightblue" d="M177.582,-799C196.387,-799 216.105,-799 234.41,-799"/>
<polygon fill="midnightblue" stroke="midnightblue" points="234.419,-802.5 244.419,-799 234.419,-795.5 234.419,-802.5"/>
</g>
<!-- Node20 -->
<g id="node20" class="node"><title>Node20</title>
<g id="a_node20"><a xlink:href="classgestorempleados_1_1interficie_1_1_panel___contrato.xhtml#a7f3198498908436a352042980d386506" target="_top" xlink:title="gestorempleados.interficie.\lPanel_Contrato.getModalidad">
<polygon fill="white" stroke="black" points="239,-735 239,-765 383,-765 383,-735 239,-735"/>
<text text-anchor="start" x="247" y="-753" font-family="Helvetica,sans-Serif" font-size="10.00">gestorempleados.interficie.</text>
<text text-anchor="middle" x="311" y="-742" font-family="Helvetica,sans-Serif" font-size="10.00">Panel_Contrato.getModalidad</text>
</a>
</g>
</g>
<!-- Node1&#45;&gt;Node20 -->
<g id="edge19" class="edge"><title>Node1&#45;&gt;Node20</title>
<path fill="none" stroke="midnightblue" d="M157.502,-783.965C181.259,-778.674 208.141,-772.687 232.646,-767.229"/>
<polygon fill="midnightblue" stroke="midnightblue" points="233.625,-770.597 242.625,-765.006 232.104,-763.764 233.625,-770.597"/>
</g>
<!-- Node21 -->
<g id="node21" class="node"><title>Node21</title>
<g id="a_node21"><a xlink:href="classgestorempleados_1_1interficie_1_1_panel___contrato.xhtml#ac76129664a9ee36496646f577a25115a" target="_top" xlink:title="gestorempleados.interficie.\lPanel_Contrato.getMotivo">
<polygon fill="white" stroke="black" points="244.5,-686 244.5,-716 377.5,-716 377.5,-686 244.5,-686"/>
<text text-anchor="start" x="252.5" y="-704" font-family="Helvetica,sans-Serif" font-size="10.00">gestorempleados.interficie.</text>
<text text-anchor="middle" x="311" y="-693" font-family="Helvetica,sans-Serif" font-size="10.00">Panel_Contrato.getMotivo</text>
</a>
</g>
</g>
<!-- Node1&#45;&gt;Node21 -->
<g id="edge20" class="edge"><title>Node1&#45;&gt;Node21</title>
<path fill="none" stroke="midnightblue" d="M111.435,-783.875C135.422,-767.559 175.93,-741.801 214,-726 220.616,-723.254 227.617,-720.74 234.702,-718.456"/>
<polygon fill="midnightblue" stroke="midnightblue" points="235.855,-721.763 244.388,-715.483 233.801,-715.071 235.855,-721.763"/>
</g>
<!-- Node22 -->
<g id="node22" class="node"><title>Node22</title>
<g id="a_node22"><a xlink:href="classgestorempleados_1_1interficie_1_1_panel___contrato.xhtml#a08326f3a9139cf9041ffe75b0622f01d" target="_top" xlink:title="gestorempleados.interficie.\lPanel_Contrato.getClase">
<polygon fill="white" stroke="black" points="244.5,-637 244.5,-667 377.5,-667 377.5,-637 244.5,-637"/>
<text text-anchor="start" x="252.5" y="-655" font-family="Helvetica,sans-Serif" font-size="10.00">gestorempleados.interficie.</text>
<text text-anchor="middle" x="311" y="-644" font-family="Helvetica,sans-Serif" font-size="10.00">Panel_Contrato.getClase</text>
</a>
</g>
</g>
<!-- Node1&#45;&gt;Node22 -->
<g id="edge21" class="edge"><title>Node1&#45;&gt;Node22</title>
<path fill="none" stroke="midnightblue" d="M101.146,-783.679C120.891,-757.678 164.616,-705.015 214,-677 220.437,-673.349 227.417,-670.219 234.578,-667.538"/>
<polygon fill="midnightblue" stroke="midnightblue" points="236.101,-670.715 244.419,-664.154 233.825,-664.096 236.101,-670.715"/>
</g>
<!-- Node23 -->
<g id="node23" class="node"><title>Node23</title>
<g id="a_node23"><a xlink:href="classgestorempleados_1_1interficie_1_1_panel___contrato.xhtml#a4be20f2984b50640cf337be4a10b4dbd" target="_top" xlink:title="gestorempleados.interficie.\lPanel_Contrato.getPeriodoPrueba">
<polygon fill="white" stroke="black" points="229,-588 229,-618 393,-618 393,-588 229,-588"/>
<text text-anchor="start" x="237" y="-606" font-family="Helvetica,sans-Serif" font-size="10.00">gestorempleados.interficie.</text>
<text text-anchor="middle" x="311" y="-595" font-family="Helvetica,sans-Serif" font-size="10.00">Panel_Contrato.getPeriodoPrueba</text>
</a>
</g>
</g>
<!-- Node1&#45;&gt;Node23 -->
<g id="edge22" class="edge"><title>Node1&#45;&gt;Node23</title>
<path fill="none" stroke="midnightblue" d="M96.5096,-783.969C111.817,-750.464 153.429,-669.356 214,-628 216.934,-625.997 220.018,-624.155 223.209,-622.46"/>
<polygon fill="midnightblue" stroke="midnightblue" points="224.923,-625.52 232.45,-618.063 221.916,-619.199 224.923,-625.52"/>
</g>
<!-- Node24 -->
<g id="node24" class="node"><title>Node24</title>
<g id="a_node24"><a xlink:href="classgestorempleados_1_1interficie_1_1_panel___contrato.xhtml#ab3ffd76166fe33caf76c1ec840129a9d" target="_top" xlink:title="gestorempleados.interficie.\lPanel_Contrato.getPreaviso">
<polygon fill="white" stroke="black" points="242.5,-539 242.5,-569 379.5,-569 379.5,-539 242.5,-539"/>
<text text-anchor="start" x="250.5" y="-557" font-family="Helvetica,sans-Serif" font-size="10.00">gestorempleados.interficie.</text>
<text text-anchor="middle" x="311" y="-546" font-family="Helvetica,sans-Serif" font-size="10.00">Panel_Contrato.getPreaviso</text>
</a>
</g>
</g>
<!-- Node1&#45;&gt;Node24 -->
<g id="edge23" class="edge"><title>Node1&#45;&gt;Node24</title>
<path fill="none" stroke="midnightblue" d="M93.986,-783.991C105.398,-744.037 142.09,-634.368 214,-579 219.723,-574.594 226.147,-570.96 232.889,-567.964"/>
<polygon fill="midnightblue" stroke="midnightblue" points="234.234,-571.196 242.244,-564.262 231.658,-564.688 234.234,-571.196"/>
</g>
<!-- Node25 -->
<g id="node25" class="node"><title>Node25</title>
<g id="a_node25"><a xlink:href="classgestorempleados_1_1interficie_1_1_panel___contrato.xhtml#a9cd241b2c11922df96a9e06014a86f8a" target="_top" xlink:title="gestorempleados.interficie.\lPanel_Contrato.getClausula">
<polygon fill="white" stroke="black" points="242.5,-490 242.5,-520 379.5,-520 379.5,-490 242.5,-490"/>
<text text-anchor="start" x="250.5" y="-508" font-family="Helvetica,sans-Serif" font-size="10.00">gestorempleados.interficie.</text>
<text text-anchor="middle" x="311" y="-497" font-family="Helvetica,sans-Serif" font-size="10.00">Panel_Contrato.getClausula</text>
</a>
</g>
</g>
<!-- Node1&#45;&gt;Node25 -->
<g id="edge24" class="edge"><title>Node1&#45;&gt;Node25</title>
<path fill="none" stroke="midnightblue" d="M92.3769,-783.769C100.365,-737.875 130.591,-599.801 214,-530 219.63,-525.289 226.046,-521.453 232.832,-518.332"/>
<polygon fill="midnightblue" stroke="midnightblue" points="234.321,-521.505 242.273,-514.505 231.691,-515.018 234.321,-521.505"/>
</g>
<!-- Node26 -->
<g id="node26" class="node"><title>Node26</title>
<g id="a_node26"><a xlink:href="classgestorempleados_1_1interficie_1_1_panel___contrato.xhtml#a264a9147601b3066cc3ebf34329d19c5" target="_top" xlink:title="gestorempleados.interficie.\lPanel_Contrato.getFecha_inicio">
<polygon fill="white" stroke="black" points="233.5,-1323 233.5,-1353 388.5,-1353 388.5,-1323 233.5,-1323"/>
<text text-anchor="start" x="241.5" y="-1341" font-family="Helvetica,sans-Serif" font-size="10.00">gestorempleados.interficie.</text>
<text text-anchor="middle" x="311" y="-1330" font-family="Helvetica,sans-Serif" font-size="10.00">Panel_Contrato.getFecha_inicio</text>
</a>
</g>
</g>
<!-- Node1&#45;&gt;Node26 -->
<g id="edge25" class="edge"><title>Node1&#45;&gt;Node26</title>
<path fill="none" stroke="midnightblue" d="M91.5752,-814.176C99.8719,-891.252 140.915,-1238.58 214,-1313 217.209,-1316.27 220.788,-1319.13 224.624,-1321.63"/>
<polygon fill="midnightblue" stroke="midnightblue" points="222.957,-1324.7 233.391,-1326.54 226.381,-1318.6 222.957,-1324.7"/>
</g>
<!-- Node27 -->
<g id="node27" class="node"><title>Node27</title>
<g id="a_node27"><a xlink:href="classgestorempleados_1_1interficie_1_1_panel___contrato.xhtml#aa4b4759187b79a0e721f00f61a0bec96" target="_top" xlink:title="gestorempleados.interficie.\lPanel_Contrato.getFecha_fin">
<polygon fill="white" stroke="black" points="240,-1274 240,-1304 382,-1304 382,-1274 240,-1274"/>
<text text-anchor="start" x="248" y="-1292" font-family="Helvetica,sans-Serif" font-size="10.00">gestorempleados.interficie.</text>
<text text-anchor="middle" x="311" y="-1281" font-family="Helvetica,sans-Serif" font-size="10.00">Panel_Contrato.getFecha_fin</text>
</a>
</g>
</g>
<!-- Node1&#45;&gt;Node27 -->
<g id="edge29" class="edge"><title>Node1&#45;&gt;Node27</title>
<path fill="none" stroke="midnightblue" d="M92.0161,-814.4C101.868,-887.375 147.194,-1197.58 214,-1264 218.842,-1268.81 224.486,-1272.74 230.567,-1275.93"/>
<polygon fill="midnightblue" stroke="midnightblue" points="229.197,-1279.15 239.749,-1280.1 232.093,-1272.78 229.197,-1279.15"/>
</g>
<!-- Node28 -->
<g id="node28" class="node"><title>Node28</title>
<g id="a_node28"><a xlink:href="classgestorempleados_1_1interficie_1_1_panel___contrato.xhtml#ae097b59679e7d0e0d5fdfe7ee61bef9c" target="_top" xlink:title="gestorempleados.interficie.\lPanel_Contrato.getActivo">
<polygon fill="white" stroke="black" points="244.5,-441 244.5,-471 377.5,-471 377.5,-441 244.5,-441"/>
<text text-anchor="start" x="252.5" y="-459" font-family="Helvetica,sans-Serif" font-size="10.00">gestorempleados.interficie.</text>
<text text-anchor="middle" x="311" y="-448" font-family="Helvetica,sans-Serif" font-size="10.00">Panel_Contrato.getActivo</text>
</a>
</g>
</g>
<!-- Node1&#45;&gt;Node28 -->
<g id="edge33" class="edge"><title>Node1&#45;&gt;Node28</title>
<path fill="none" stroke="midnightblue" d="M91.1972,-783.657C96.0437,-732.416 118.798,-565.664 214,-481 220.13,-475.548 227.303,-471.26 234.917,-467.891"/>
<polygon fill="midnightblue" stroke="midnightblue" points="236.326,-471.098 244.385,-464.22 233.796,-464.572 236.326,-471.098"/>
</g>
<!-- Node29 -->
<g id="node29" class="node"><title>Node29</title>
<g id="a_node29"><a xlink:href="classgestorempleados_1_1interficie_1_1_panel___contrato.xhtml#a17926e34ad0b1af48906d93fc1e5b559" target="_top" xlink:title="gestorempleados.interficie.\lPanel_Contrato.getSalario">
<polygon fill="white" stroke="black" points="244.5,-392 244.5,-422 377.5,-422 377.5,-392 244.5,-392"/>
<text text-anchor="start" x="252.5" y="-410" font-family="Helvetica,sans-Serif" font-size="10.00">gestorempleados.interficie.</text>
<text text-anchor="middle" x="311" y="-399" font-family="Helvetica,sans-Serif" font-size="10.00">Panel_Contrato.getSalario</text>
</a>
</g>
</g>
<!-- Node1&#45;&gt;Node29 -->
<g id="edge34" class="edge"><title>Node1&#45;&gt;Node29</title>
<path fill="none" stroke="midnightblue" d="M90.2935,-783.747C92.2288,-727.798 106.711,-531.923 214,-432 219.937,-426.47 226.94,-422.129 234.416,-418.727"/>
<polygon fill="midnightblue" stroke="midnightblue" points="236.081,-421.832 244.093,-414.9 233.506,-415.323 236.081,-421.832"/>
</g>
<!-- Node30 -->
<g id="node30" class="node"><title>Node30</title>
<g id="a_node30"><a xlink:href="classgestorempleados_1_1interficie_1_1_panel___contrato.xhtml#a6cfc5fc6d3168040ea7195d2996dc5bc" target="_top" xlink:title="gestorempleados.interficie.\lPanel_Contrato.getSede">
<polygon fill="white" stroke="black" points="244.5,-343 244.5,-373 377.5,-373 377.5,-343 244.5,-343"/>
<text text-anchor="start" x="252.5" y="-361" font-family="Helvetica,sans-Serif" font-size="10.00">gestorempleados.interficie.</text>
<text text-anchor="middle" x="311" y="-350" font-family="Helvetica,sans-Serif" font-size="10.00">Panel_Contrato.getSede</text>
</a>
</g>
</g>
<!-- Node1&#45;&gt;Node30 -->
<g id="edge35" class="edge"><title>Node1&#45;&gt;Node30</title>
<path fill="none" stroke="midnightblue" d="M89.5961,-783.879C88.8532,-723.639 94.4628,-498.433 214,-383 219.989,-377.216 227.14,-372.726 234.8,-369.246"/>
<polygon fill="midnightblue" stroke="midnightblue" points="236.331,-372.404 244.352,-365.483 233.765,-365.892 236.331,-372.404"/>
</g>
<!-- Node31 -->
<g id="node31" class="node"><title>Node31</title>
<g id="a_node31"><a xlink:href="classgestorempleados_1_1interficie_1_1_panel___contrato.xhtml#ab31fa7d399e022cd9bfdbb0e9ffd2ce6" target="_top" xlink:title="gestorempleados.interficie.\lPanel_Contrato.getSalud">
<polygon fill="white" stroke="black" points="244.5,-294 244.5,-324 377.5,-324 377.5,-294 244.5,-294"/>
<text text-anchor="start" x="252.5" y="-312" font-family="Helvetica,sans-Serif" font-size="10.00">gestorempleados.interficie.</text>
<text text-anchor="middle" x="311" y="-301" font-family="Helvetica,sans-Serif" font-size="10.00">Panel_Contrato.getSalud</text>
</a>
</g>
</g>
<!-- Node1&#45;&gt;Node31 -->
<g id="edge36" class="edge"><title>Node1&#45;&gt;Node31</title>
<path fill="none" stroke="midnightblue" d="M92.0161,-783.6C101.868,-710.625 147.194,-400.417 214,-334 219.905,-328.13 227.003,-323.585 234.633,-320.075"/>
<polygon fill="midnightblue" stroke="midnightblue" points="236.16,-323.234 244.159,-316.286 233.574,-316.729 236.16,-323.234"/>
</g>
<!-- Node32 -->
<g id="node32" class="node"><title>Node32</title>
<g id="a_node32"><a xlink:href="classgestorempleados_1_1interficie_1_1_panel___contrato.xhtml#a5179316e4719fe998cf66cc742d14146" target="_top" xlink:title="gestorempleados.interficie.\lPanel_Contrato.getVida">
<polygon fill="white" stroke="black" points="244.5,-245 244.5,-275 377.5,-275 377.5,-245 244.5,-245"/>
<text text-anchor="start" x="252.5" y="-263" font-family="Helvetica,sans-Serif" font-size="10.00">gestorempleados.interficie.</text>
<text text-anchor="middle" x="311" y="-252" font-family="Helvetica,sans-Serif" font-size="10.00">Panel_Contrato.getVida</text>
</a>
</g>
</g>
<!-- Node1&#45;&gt;Node32 -->
<g id="edge37" class="edge"><title>Node1&#45;&gt;Node32</title>
<path fill="none" stroke="midnightblue" d="M91.5752,-783.824C99.8719,-706.748 140.915,-359.416 214,-285 219.985,-278.906 227.254,-274.235 235.085,-270.664"/>
<polygon fill="midnightblue" stroke="midnightblue" points="236.471,-273.88 244.492,-266.959 233.905,-267.367 236.471,-273.88"/>
</g>
<!-- Node33 -->
<g id="node33" class="node"><title>Node33</title>
<g id="a_node33"><a xlink:href="classgestorempleados_1_1interficie_1_1_panel___contrato.xhtml#ac28df6b81db000f030443a703b36a9e3" target="_top" xlink:title="gestorempleados.interficie.\lPanel_Contrato.getIDContrato">
<polygon fill="white" stroke="black" points="238,-196 238,-226 384,-226 384,-196 238,-196"/>
<text text-anchor="start" x="246" y="-214" font-family="Helvetica,sans-Serif" font-size="10.00">gestorempleados.interficie.</text>
<text text-anchor="middle" x="311" y="-203" font-family="Helvetica,sans-Serif" font-size="10.00">Panel_Contrato.getIDContrato</text>
</a>
</g>
</g>
<!-- Node1&#45;&gt;Node33 -->
<g id="edge38" class="edge"><title>Node1&#45;&gt;Node33</title>
<path fill="none" stroke="midnightblue" d="M91.2398,-783.757C98.1712,-702.238 134.693,-318.377 214,-236 218.209,-231.628 223.077,-227.987 228.345,-224.957"/>
<polygon fill="midnightblue" stroke="midnightblue" points="230.124,-227.981 237.539,-220.414 227.024,-221.705 230.124,-227.981"/>
</g>
<!-- Node34 -->
<g id="node34" class="node"><title>Node34</title>
<g id="a_node34"><a xlink:href="classgestorempleados_1_1conector_1_1_packet.xhtml#a813dec9a7a619b540ae0cefd73d08ca8" target="_top" xlink:title="gestorempleados.conector.\lPacket.setEmpleados">
<polygon fill="white" stroke="black" points="244,-147 244,-177 378,-177 378,-147 244,-147"/>
<text text-anchor="start" x="252" y="-165" font-family="Helvetica,sans-Serif" font-size="10.00">gestorempleados.conector.</text>
<text text-anchor="middle" x="311" y="-154" font-family="Helvetica,sans-Serif" font-size="10.00">Packet.setEmpleados</text>
</a>
</g>
</g>
<!-- Node1&#45;&gt;Node34 -->
<g id="edge39" class="edge"><title>Node1&#45;&gt;Node34</title>
<path fill="none" stroke="midnightblue" d="M90.9435,-783.868C96.5689,-698.474 128.388,-277.441 214,-187 219.661,-181.02 226.556,-176.401 234.027,-172.845"/>
<polygon fill="midnightblue" stroke="midnightblue" points="235.807,-175.899 243.748,-168.885 233.166,-169.416 235.807,-175.899"/>
</g>
<!-- Node35 -->
<g id="node35" class="node"><title>Node35</title>
<g id="a_node35"><a xlink:href="classgestorempleados_1_1conector_1_1_conector_cliente.xhtml#a830dba55e91b371279078945cf0b84c5" target="_top" xlink:title="gestorempleados.conector.\lConectorCliente.sendPacket">
<polygon fill="white" stroke="black" points="241,-98 241,-128 381,-128 381,-98 241,-98"/>
<text text-anchor="start" x="249" y="-116" font-family="Helvetica,sans-Serif" font-size="10.00">gestorempleados.conector.</text>
<text text-anchor="middle" x="311" y="-105" font-family="Helvetica,sans-Serif" font-size="10.00">ConectorCliente.sendPacket</text>
</a>
</g>
</g>
<!-- Node1&#45;&gt;Node35 -->
<g id="edge40" class="edge"><title>Node1&#45;&gt;Node35</title>
<path fill="none" stroke="midnightblue" d="M90.699,-783.852C95.1266,-694.468 122.103,-236.498 214,-138 219.008,-132.632 225.01,-128.359 231.535,-124.964"/>
<polygon fill="midnightblue" stroke="midnightblue" points="233.015,-128.137 240.715,-120.86 230.157,-121.747 233.015,-128.137"/>
</g>
<!-- Node38 -->
<g id="node38" class="node"><title>Node38</title>
<g id="a_node38"><a xlink:href="classgestorempleados_1_1conector_1_1_packet.xhtml#a66abee43105b5ab7eac815a088d8f861" target="_top" xlink:title="gestorempleados.conector.\lPacket.getType">
<polygon fill="white" stroke="black" points="244,-49 244,-79 378,-79 378,-49 244,-49"/>
<text text-anchor="start" x="252" y="-67" font-family="Helvetica,sans-Serif" font-size="10.00">gestorempleados.conector.</text>
<text text-anchor="middle" x="311" y="-56" font-family="Helvetica,sans-Serif" font-size="10.00">Packet.getType</text>
</a>
</g>
</g>
<!-- Node1&#45;&gt;Node38 -->
<g id="edge43" class="edge"><title>Node1&#45;&gt;Node38</title>
<path fill="none" stroke="midnightblue" d="M90.4825,-783.965C93.7666,-691.062 115.755,-195.635 214,-89 219.58,-82.9439 226.424,-78.278 233.865,-74.6941"/>
<polygon fill="midnightblue" stroke="midnightblue" points="235.642,-77.7483 243.561,-70.7101 232.981,-71.2736 235.642,-77.7483"/>
</g>
<!-- Node39 -->
<g id="node39" class="node"><title>Node39</title>
<g id="a_node39"><a xlink:href="classgestorempleados_1_1conector_1_1_packet.xhtml#a3ed2226bd3441b1898a8dc8e8e413c2c" target="_top" xlink:title="gestorempleados.conector.\lPacket.getFiltro">
<polygon fill="white" stroke="black" points="244,-0 244,-30 378,-30 378,-0 244,-0"/>
<text text-anchor="start" x="252" y="-18" font-family="Helvetica,sans-Serif" font-size="10.00">gestorempleados.conector.</text>
<text text-anchor="middle" x="311" y="-7" font-family="Helvetica,sans-Serif" font-size="10.00">Packet.getFiltro</text>
</a>
</g>
</g>
<!-- Node1&#45;&gt;Node39 -->
<g id="edge44" class="edge"><title>Node1&#45;&gt;Node39</title>
<path fill="none" stroke="midnightblue" d="M90.3,-783.887C92.5272,-687.111 109.457,-154.727 214,-40 219.753,-33.6867 226.88,-28.8813 234.632,-25.2364"/>
<polygon fill="midnightblue" stroke="midnightblue" points="236.009,-28.455 243.975,-21.4699 233.392,-21.9627 236.009,-28.455"/>
</g>
<!-- Node7 -->
<g id="node7" class="node"><title>Node7</title>
<g id="a_node7"><a xlink:href="classgestorempleados_1_1interficie_1_1_calendario.xhtml#ae274bab87113f420981d4107c87a1007" target="_top" xlink:title="gestorempleados.interficie.\lCalendario.getDia">
<polygon fill="white" stroke="black" points="444.5,-1372 444.5,-1402 577.5,-1402 577.5,-1372 444.5,-1372"/>
<text text-anchor="start" x="452.5" y="-1390" font-family="Helvetica,sans-Serif" font-size="10.00">gestorempleados.interficie.</text>
<text text-anchor="middle" x="511" y="-1379" font-family="Helvetica,sans-Serif" font-size="10.00">Calendario.getDia</text>
</a>
</g>
</g>
<!-- Node6&#45;&gt;Node7 -->
<g id="edge6" class="edge"><title>Node6&#45;&gt;Node7</title>
<path fill="none" stroke="midnightblue" d="M393.105,-1390.54C406.722,-1390.13 420.806,-1389.7 434.28,-1389.29"/>
<polygon fill="midnightblue" stroke="midnightblue" points="434.558,-1392.79 444.447,-1388.99 434.345,-1385.79 434.558,-1392.79"/>
</g>
<!-- Node8 -->
<g id="node8" class="node"><title>Node8</title>
<g id="a_node8"><a xlink:href="classgestorempleados_1_1interficie_1_1_calendario.xhtml#ab3d1a05f098a43d531e1e90bd9c99568" target="_top" xlink:title="gestorempleados.interficie.\lCalendario.getMes">
<polygon fill="white" stroke="black" points="444.5,-1323 444.5,-1353 577.5,-1353 577.5,-1323 444.5,-1323"/>
<text text-anchor="start" x="452.5" y="-1341" font-family="Helvetica,sans-Serif" font-size="10.00">gestorempleados.interficie.</text>
<text text-anchor="middle" x="511" y="-1330" font-family="Helvetica,sans-Serif" font-size="10.00">Calendario.getMes</text>
</a>
</g>
</g>
<!-- Node6&#45;&gt;Node8 -->
<g id="edge7" class="edge"><title>Node6&#45;&gt;Node8</title>
<path fill="none" stroke="midnightblue" d="M386.009,-1372.44C405.746,-1366.96 426.9,-1361.08 446.046,-1355.76"/>
<polygon fill="midnightblue" stroke="midnightblue" points="447.159,-1359.09 455.857,-1353.04 445.285,-1352.34 447.159,-1359.09"/>
</g>
<!-- Node9 -->
<g id="node9" class="node"><title>Node9</title>
<g id="a_node9"><a xlink:href="classgestorempleados_1_1interficie_1_1_calendario.xhtml#a46ed71c1d29153ad687e3f74925a1db6" target="_top" xlink:title="gestorempleados.interficie.\lCalendario.getAno">
<polygon fill="white" stroke="black" points="444.5,-1274 444.5,-1304 577.5,-1304 577.5,-1274 444.5,-1274"/>
<text text-anchor="start" x="452.5" y="-1292" font-family="Helvetica,sans-Serif" font-size="10.00">gestorempleados.interficie.</text>
<text text-anchor="middle" x="511" y="-1281" font-family="Helvetica,sans-Serif" font-size="10.00">Calendario.getAno</text>
</a>
</g>
</g>
<!-- Node6&#45;&gt;Node9 -->
<g id="edge8" class="edge"><title>Node6&#45;&gt;Node9</title>
<path fill="none" stroke="midnightblue" d="M390.01,-1372.49C396.346,-1369.45 402.44,-1365.97 408,-1362 429.706,-1346.51 422.686,-1330.03 444,-1314 446.467,-1312.15 449.087,-1310.41 451.807,-1308.8"/>
<polygon fill="midnightblue" stroke="midnightblue" points="453.582,-1311.82 460.765,-1304.03 450.293,-1305.64 453.582,-1311.82"/>
</g>
<!-- Node26&#45;&gt;Node7 -->
<g id="edge26" class="edge"><title>Node26&#45;&gt;Node7</title>
<path fill="none" stroke="midnightblue" d="M372.752,-1353.03C393.848,-1358.26 417.682,-1364.15 439.498,-1369.55"/>
<polygon fill="midnightblue" stroke="midnightblue" points="438.815,-1372.99 449.363,-1371.99 440.496,-1366.19 438.815,-1372.99"/>
</g>
<!-- Node26&#45;&gt;Node8 -->
<g id="edge27" class="edge"><title>Node26&#45;&gt;Node8</title>
<path fill="none" stroke="midnightblue" d="M388.552,-1338C403.495,-1338 419.158,-1338 434.08,-1338"/>
<polygon fill="midnightblue" stroke="midnightblue" points="434.274,-1341.5 444.274,-1338 434.274,-1334.5 434.274,-1341.5"/>
</g>
<!-- Node26&#45;&gt;Node9 -->
<g id="edge28" class="edge"><title>Node26&#45;&gt;Node9</title>
<path fill="none" stroke="midnightblue" d="M372.752,-1322.97C393.848,-1317.74 417.682,-1311.85 439.498,-1306.45"/>
<polygon fill="midnightblue" stroke="midnightblue" points="440.496,-1309.81 449.363,-1304.01 438.815,-1303.01 440.496,-1309.81"/>
</g>
<!-- Node27&#45;&gt;Node7 -->
<g id="edge30" class="edge"><title>Node27&#45;&gt;Node7</title>
<path fill="none" stroke="midnightblue" d="M382.064,-1301.27C391.217,-1304.56 400.134,-1308.72 408,-1314 430.143,-1328.86 422.686,-1345.97 444,-1362 446.467,-1363.85 449.087,-1365.59 451.807,-1367.2"/>
<polygon fill="midnightblue" stroke="midnightblue" points="450.293,-1370.36 460.765,-1371.97 453.582,-1364.18 450.293,-1370.36"/>
</g>
<!-- Node27&#45;&gt;Node8 -->
<g id="edge31" class="edge"><title>Node27&#45;&gt;Node8</title>
<path fill="none" stroke="midnightblue" d="M372.752,-1304.03C393.848,-1309.26 417.682,-1315.15 439.498,-1320.55"/>
<polygon fill="midnightblue" stroke="midnightblue" points="438.815,-1323.99 449.363,-1322.99 440.496,-1317.19 438.815,-1323.99"/>
</g>
<!-- Node27&#45;&gt;Node9 -->
<g id="edge32" class="edge"><title>Node27&#45;&gt;Node9</title>
<path fill="none" stroke="midnightblue" d="M382.086,-1289C398.853,-1289 416.833,-1289 433.859,-1289"/>
<polygon fill="midnightblue" stroke="midnightblue" points="434.317,-1292.5 444.317,-1289 434.317,-1285.5 434.317,-1292.5"/>
</g>
<!-- Node36 -->
<g id="node36" class="node"><title>Node36</title>
<g id="a_node36"><a xlink:href="classgestorempleados_1_1control_1_1_preferencias.xhtml#a8cb4ef0c12fd91286f0f3a63c48d40b0" target="_top" xlink:title="gestorempleados.control.\lPreferencias.getHost">
<polygon fill="white" stroke="black" points="448,-74 448,-104 574,-104 574,-74 448,-74"/>
<text text-anchor="start" x="456" y="-92" font-family="Helvetica,sans-Serif" font-size="10.00">gestorempleados.control.</text>
<text text-anchor="middle" x="511" y="-81" font-family="Helvetica,sans-Serif" font-size="10.00">Preferencias.getHost</text>
</a>
</g>
</g>
<!-- Node35&#45;&gt;Node36 -->
<g id="edge41" class="edge"><title>Node35&#45;&gt;Node36</title>
<path fill="none" stroke="midnightblue" d="M381.251,-104.606C399.505,-102.393 419.247,-100 437.659,-97.7686"/>
<polygon fill="midnightblue" stroke="midnightblue" points="438.228,-101.225 447.734,-96.5474 437.385,-94.2763 438.228,-101.225"/>
</g>
<!-- Node37 -->
<g id="node37" class="node"><title>Node37</title>
<g id="a_node37"><a xlink:href="classgestorempleados_1_1control_1_1_preferencias.xhtml#ae64b723a46d579f7646e75aa453ed3c8" target="_top" xlink:title="gestorempleados.control.\lPreferencias.getPort">
<polygon fill="white" stroke="black" points="448,-123 448,-153 574,-153 574,-123 448,-123"/>
<text text-anchor="start" x="456" y="-141" font-family="Helvetica,sans-Serif" font-size="10.00">gestorempleados.control.</text>
<text text-anchor="middle" x="511" y="-130" font-family="Helvetica,sans-Serif" font-size="10.00">Preferencias.getPort</text>
</a>
</g>
</g>
<!-- Node35&#45;&gt;Node37 -->
<g id="edge42" class="edge"><title>Node35&#45;&gt;Node37</title>
<path fill="none" stroke="midnightblue" d="M381.251,-121.744C399.505,-124.049 419.247,-126.541 437.659,-128.866"/>
<polygon fill="midnightblue" stroke="midnightblue" points="437.374,-132.358 447.734,-130.138 438.251,-125.413 437.374,-132.358"/>
</g>
</g>
</svg>
        <g id="navigator" transform="translate(0 0)" fill="#404254">
                <rect fill="#f2f5e9" fill-opacity="0.5" stroke="#606060" stroke-width=".5" x="0" y="0" width="60" height="60"/>
                <use id="zoomplus" xlink:href="#zoomPlus" x="17" y="9" onmousedown="handleZoom(evt,'in')"/>
                <use id="zoomminus" xlink:href="#zoomMin" x="42" y="9" onmousedown="handleZoom(evt,'out')"/>
                <use id="reset" xlink:href="#resetDef" x="30" y="36" onmousedown="handleReset()"/>
                <g id="arrowUp" xlink:href="#dirArrow" transform="translate(30 24)" onmousedown="handlePan(0,-1)">
                  <use xlink:href="#rim" fill="#404040">
                        <set attributeName="fill" to="#808080" begin="arrowUp.mouseover" end="arrowUp.mouseout"/>
                  </use>
                  <path fill="none" stroke="white" stroke-width="1.5" d="M0,-3.0v7 M-2.5,-0.5L0,-3.0L2.5,-0.5"/>
                </g>
                <g id="arrowRight" xlink:href="#dirArrow" transform="rotate(90) translate(36 -43)" onmousedown="handlePan(1,0)">
                  <use xlink:href="#rim" fill="#404040">
                        <set attributeName="fill" to="#808080" begin="arrowRight.mouseover" end="arrowRight.mouseout"/>
                  </use>
                  <path fill="none" stroke="white" stroke-width="1.5" d="M0,-3.0v7 M-2.5,-0.5L0,-3.0L2.5,-0.5"/>
                </g>
                <g id="arrowDown" xlink:href="#dirArrow" transform="rotate(180) translate(-30 -48)" onmousedown="handlePan(0,1)">
                  <use xlink:href="#rim" fill="#404040">
                        <set attributeName="fill" to="#808080" begin="arrowDown.mouseover" end="arrowDown.mouseout"/>
                  </use>
                  <path fill="none" stroke="white" stroke-width="1.5" d="M0,-3.0v7 M-2.5,-0.5L0,-3.0L2.5,-0.5"/>
                </g>
                <g id="arrowLeft" xlink:href="#dirArrow" transform="rotate(270) translate(-36 17)" onmousedown="handlePan(-1,0)">
                  <use xlink:href="#rim" fill="#404040">
                        <set attributeName="fill" to="#808080" begin="arrowLeft.mouseover" end="arrowLeft.mouseout"/>
                  </use>
                  <path fill="none" stroke="white" stroke-width="1.5" d="M0,-3.0v7 M-2.5,-0.5L0,-3.0L2.5,-0.5"/>
                </g>
        </g>
        <svg viewBox="0 0 15 15" width="100%" height="30px" preserveAspectRatio="xMaxYMin meet">
         <g id="arrow_out" transform="scale(0.3 0.3)">
          <a xlink:href="classgestorempleados_1_1control_1_1_negocio_cliente_a9636f9f7cd80e0eb68a18113fd3dd8ae_cgraph_org.svg" target="_base">
           <rect id="button" ry="5" rx="5" y="6" x="6" height="38" width="38"
                fill="#f2f5e9" fill-opacity="0.5" stroke="#606060" stroke-width="1.0"/>
           <path id="arrow"
             d="M 11.500037,31.436501 C 11.940474,20.09759 22.043105,11.32322 32.158766,21.979434 L 37.068811,17.246167 C 37.068811,17.246167 37.088388,32 37.088388,32 L 22.160133,31.978069 C 22.160133,31.978069 26.997745,27.140456 26.997745,27.140456 C 18.528582,18.264221 13.291696,25.230495 11.500037,31.436501 z"
             style="fill:#404040;"/>
          </a>
         </g>
        </svg>
</svg>
