<?xml version="1.0" encoding="UTF-8" standalone="no"?>
<!DOCTYPE svg PUBLIC "-//W3C//DTD SVG 1.1//EN"
 "http://www.w3.org/Graphics/SVG/1.1/DTD/svg11.dtd">
<!-- Generated by graphviz version 2.30.1 (20130214.1330)
 -->
<!-- Title: gestorempleados.control.NegocioCliente.getReporte Pages: 1 -->
<svg width="478pt" height="234pt"
 viewBox="0.00 0.00 478.00 234.00" xmlns="http://www.w3.org/2000/svg" xmlns:xlink="http://www.w3.org/1999/xlink">
<g id="graph0" class="graph" transform="scale(1 1) rotate(0) translate(4 230)">
<title>gestorempleados.control.NegocioCliente.getReporte</title>
<polygon fill="white" stroke="white" points="-4,5 -4,-230 475,-230 475,5 -4,5"/>
<!-- Node1 -->
<g id="node1" class="node"><title>Node1</title>
<polygon fill="#bfbfbf" stroke="black" points="0,-98 0,-128 132,-128 132,-98 0,-98"/>
<text text-anchor="start" x="8" y="-116" font-family="Helvetica,sans-Serif" font-size="10.00">gestorempleados.control.</text>
<text text-anchor="middle" x="66" y="-105" font-family="Helvetica,sans-Serif" font-size="10.00">NegocioCliente.getReporte</text>
</g>
<!-- Node2 -->
<g id="node2" class="node"><title>Node2</title>
<g id="a_node2"><a xlink:href="classgestorempleados_1_1conector_1_1_packet.xhtml#a9819f16640e628f5ed698f7ca84c4d10" target="_top" xlink:title="gestorempleados.conector.\lPacket.setFiltro">
<polygon fill="white" stroke="black" points="171,-196 171,-226 305,-226 305,-196 171,-196"/>
<text text-anchor="start" x="179" y="-214" font-family="Helvetica,sans-Serif" font-size="10.00">gestorempleados.conector.</text>
<text text-anchor="middle" x="238" y="-203" font-family="Helvetica,sans-Serif" font-size="10.00">Packet.setFiltro</text>
</a>
</g>
</g>
<!-- Node1&#45;&gt;Node2 -->
<g id="edge1" class="edge"><title>Node1&#45;&gt;Node2</title>
<path fill="none" stroke="midnightblue" d="M84.6061,-128.077C104.009,-144.112 136.639,-169.404 168,-186 171.971,-188.102 176.158,-190.099 180.425,-191.98"/>
<polygon fill="midnightblue" stroke="midnightblue" points="179.267,-195.289 189.843,-195.91 181.962,-188.829 179.267,-195.289"/>
</g>
<!-- Node3 -->
<g id="node3" class="node"><title>Node3</title>
<g id="a_node3"><a xlink:href="classgestorempleados_1_1conector_1_1_conector_cliente.xhtml#a830dba55e91b371279078945cf0b84c5" target="_top" xlink:title="gestorempleados.conector.\lConectorCliente.sendPacket">
<polygon fill="white" stroke="black" points="168,-147 168,-177 308,-177 308,-147 168,-147"/>
<text text-anchor="start" x="176" y="-165" font-family="Helvetica,sans-Serif" font-size="10.00">gestorempleados.conector.</text>
<text text-anchor="middle" x="238" y="-154" font-family="Helvetica,sans-Serif" font-size="10.00">ConectorCliente.sendPacket</text>
</a>
</g>
</g>
<!-- Node1&#45;&gt;Node3 -->
<g id="edge2" class="edge"><title>Node1&#45;&gt;Node3</title>
<path fill="none" stroke="midnightblue" d="M119.393,-128.101C137.007,-133.179 156.823,-138.89 175.098,-144.158"/>
<polygon fill="midnightblue" stroke="midnightblue" points="174.202,-147.542 184.78,-146.948 176.141,-140.816 174.202,-147.542"/>
</g>
<!-- Node6 -->
<g id="node6" class="node"><title>Node6</title>
<g id="a_node6"><a xlink:href="classgestorempleados_1_1conector_1_1_packet.xhtml#a66abee43105b5ab7eac815a088d8f861" target="_top" xlink:title="gestorempleados.conector.\lPacket.getType">
<polygon fill="white" stroke="black" points="171,-98 171,-128 305,-128 305,-98 171,-98"/>
<text text-anchor="start" x="179" y="-116" font-family="Helvetica,sans-Serif" font-size="10.00">gestorempleados.conector.</text>
<text text-anchor="middle" x="238" y="-105" font-family="Helvetica,sans-Serif" font-size="10.00">Packet.getType</text>
</a>
</g>
</g>
<!-- Node1&#45;&gt;Node6 -->
<g id="edge5" class="edge"><title>Node1&#45;&gt;Node6</title>
<path fill="none" stroke="midnightblue" d="M132.24,-113C141.523,-113 151.139,-113 160.611,-113"/>
<polygon fill="midnightblue" stroke="midnightblue" points="160.81,-116.5 170.81,-113 160.81,-109.5 160.81,-116.5"/>
</g>
<!-- Node7 -->
<g id="node7" class="node"><title>Node7</title>
<g id="a_node7"><a xlink:href="classgestorempleados_1_1conector_1_1_packet.xhtml#a7836f4c806840a6c75a95434cbfcd11f" target="_top" xlink:title="gestorempleados.conector.\lPacket.getArchivo">
<polygon fill="white" stroke="black" points="171,-49 171,-79 305,-79 305,-49 171,-49"/>
<text text-anchor="start" x="179" y="-67" font-family="Helvetica,sans-Serif" font-size="10.00">gestorempleados.conector.</text>
<text text-anchor="middle" x="238" y="-56" font-family="Helvetica,sans-Serif" font-size="10.00">Packet.getArchivo</text>
</a>
</g>
</g>
<!-- Node1&#45;&gt;Node7 -->
<g id="edge6" class="edge"><title>Node1&#45;&gt;Node7</title>
<path fill="none" stroke="midnightblue" d="M119.393,-97.8986C137.007,-92.8215 156.823,-87.1098 175.098,-81.8423"/>
<polygon fill="midnightblue" stroke="midnightblue" points="176.141,-85.1843 184.78,-79.0516 174.202,-78.4582 176.141,-85.1843"/>
</g>
<!-- Node8 -->
<g id="node8" class="node"><title>Node8</title>
<g id="a_node8"><a xlink:href="classgestorempleados_1_1conector_1_1_packet.xhtml#a3ed2226bd3441b1898a8dc8e8e413c2c" target="_top" xlink:title="gestorempleados.conector.\lPacket.getFiltro">
<polygon fill="white" stroke="black" points="171,-0 171,-30 305,-30 305,-0 171,-0"/>
<text text-anchor="start" x="179" y="-18" font-family="Helvetica,sans-Serif" font-size="10.00">gestorempleados.conector.</text>
<text text-anchor="middle" x="238" y="-7" font-family="Helvetica,sans-Serif" font-size="10.00">Packet.getFiltro</text>
</a>
</g>
</g>
<!-- Node1&#45;&gt;Node8 -->
<g id="edge7" class="edge"><title>Node1&#45;&gt;Node8</title>
<path fill="none" stroke="midnightblue" d="M84.6061,-97.9226C104.009,-81.8877 136.639,-56.5961 168,-40 171.971,-37.8983 176.158,-35.9013 180.425,-34.0199"/>
<polygon fill="midnightblue" stroke="midnightblue" points="181.962,-37.1712 189.843,-30.0903 179.267,-30.7109 181.962,-37.1712"/>
</g>
<!-- Node4 -->
<g id="node4" class="node"><title>Node4</title>
<g id="a_node4"><a xlink:href="classgestorempleados_1_1control_1_1_preferencias.xhtml#a8cb4ef0c12fd91286f0f3a63c48d40b0" target="_top" xlink:title="gestorempleados.control.\lPreferencias.getHost">
<polygon fill="white" stroke="black" points="344,-171 344,-201 470,-201 470,-171 344,-171"/>
<text text-anchor="start" x="352" y="-189" font-family="Helvetica,sans-Serif" font-size="10.00">gestorempleados.control.</text>
<text text-anchor="middle" x="407" y="-178" font-family="Helvetica,sans-Serif" font-size="10.00">Preferencias.getHost</text>
</a>
</g>
</g>
<!-- Node3&#45;&gt;Node4 -->
<g id="edge3" class="edge"><title>Node3&#45;&gt;Node4</title>
<path fill="none" stroke="midnightblue" d="M308.372,-171.97C316.718,-173.169 325.258,-174.396 333.646,-175.602"/>
<polygon fill="midnightblue" stroke="midnightblue" points="333.381,-179.1 343.777,-177.058 334.377,-172.171 333.381,-179.1"/>
</g>
<!-- Node5 -->
<g id="node5" class="node"><title>Node5</title>
<g id="a_node5"><a xlink:href="classgestorempleados_1_1control_1_1_preferencias.xhtml#ae64b723a46d579f7646e75aa453ed3c8" target="_top" xlink:title="gestorempleados.control.\lPreferencias.getPort">
<polygon fill="white" stroke="black" points="344,-122 344,-152 470,-152 470,-122 344,-122"/>
<text text-anchor="start" x="352" y="-140" font-family="Helvetica,sans-Serif" font-size="10.00">gestorempleados.control.</text>
<text text-anchor="middle" x="407" y="-129" font-family="Helvetica,sans-Serif" font-size="10.00">Preferencias.getPort</text>
</a>
</g>
</g>
<!-- Node3&#45;&gt;Node5 -->
<g id="edge4" class="edge"><title>Node3&#45;&gt;Node5</title>
<path fill="none" stroke="midnightblue" d="M308.372,-151.615C316.718,-150.366 325.258,-149.087 333.646,-147.831"/>
<polygon fill="midnightblue" stroke="midnightblue" points="334.406,-151.257 343.777,-146.315 333.369,-144.334 334.406,-151.257"/>
</g>
</g>
</svg>
