<?xml version="1.0" encoding="UTF-8" standalone="no"?>
<!DOCTYPE svg PUBLIC "-//W3C//DTD SVG 1.1//EN"
 "http://www.w3.org/Graphics/SVG/1.1/DTD/svg11.dtd">
<!-- Generated by graphviz version 2.30.1 (20130214.1330)
 -->
<!-- Title: gestorempleados.conector.Packet Pages: 1 -->
<svg width="604pt" height="382pt"
 viewBox="0.00 0.00 604.00 382.00" xmlns="http://www.w3.org/2000/svg" xmlns:xlink="http://www.w3.org/1999/xlink">
<g id="graph0" class="graph" transform="scale(1 1) rotate(0) translate(4 378)">
<title>gestorempleados.conector.Packet</title>
<polygon fill="white" stroke="white" points="-4,5 -4,-378 601,-378 601,5 -4,5"/>
<!-- Node1 -->
<g id="node1" class="node"><title>Node1</title>
<polygon fill="#bfbfbf" stroke="black" points="193,-1 193,-267 327,-267 327,-1 193,-1"/>
<text text-anchor="start" x="201" y="-255" font-family="Helvetica,sans-Serif" font-size="10.00">gestorempleados.conector.</text>
<text text-anchor="middle" x="260" y="-244" font-family="Helvetica,sans-Serif" font-size="10.00">Packet</text>
<polyline fill="none" stroke="black" points="193,-237 327,-237 "/>
<text text-anchor="start" x="201" y="-225" font-family="Helvetica,sans-Serif" font-size="10.00">&#45; type</text>
<text text-anchor="start" x="201" y="-214" font-family="Helvetica,sans-Serif" font-size="10.00">&#45; user</text>
<text text-anchor="start" x="201" y="-203" font-family="Helvetica,sans-Serif" font-size="10.00">&#45; filtro</text>
<text text-anchor="start" x="201" y="-192" font-family="Helvetica,sans-Serif" font-size="10.00">&#45; archivo</text>
<polyline fill="none" stroke="black" points="193,-185 327,-185 "/>
<text text-anchor="start" x="201" y="-173" font-family="Helvetica,sans-Serif" font-size="10.00">+ getType()</text>
<text text-anchor="start" x="201" y="-162" font-family="Helvetica,sans-Serif" font-size="10.00">+ setType()</text>
<text text-anchor="start" x="201" y="-151" font-family="Helvetica,sans-Serif" font-size="10.00">+ Packet()</text>
<text text-anchor="start" x="201" y="-140" font-family="Helvetica,sans-Serif" font-size="10.00">+ Packet()</text>
<text text-anchor="start" x="201" y="-129" font-family="Helvetica,sans-Serif" font-size="10.00">+ Packet()</text>
<text text-anchor="start" x="201" y="-118" font-family="Helvetica,sans-Serif" font-size="10.00">+ getUser()</text>
<text text-anchor="start" x="201" y="-107" font-family="Helvetica,sans-Serif" font-size="10.00">+ getEmpleados()</text>
<text text-anchor="start" x="201" y="-96" font-family="Helvetica,sans-Serif" font-size="10.00">+ setEmpleados()</text>
<text text-anchor="start" x="201" y="-85" font-family="Helvetica,sans-Serif" font-size="10.00">+ getDepartamentos()</text>
<text text-anchor="start" x="201" y="-74" font-family="Helvetica,sans-Serif" font-size="10.00">+ setDepartamentos()</text>
<text text-anchor="start" x="201" y="-63" font-family="Helvetica,sans-Serif" font-size="10.00">+ getCargos()</text>
<text text-anchor="start" x="201" y="-52" font-family="Helvetica,sans-Serif" font-size="10.00">+ setCargos()</text>
<text text-anchor="start" x="201" y="-41" font-family="Helvetica,sans-Serif" font-size="10.00">+ getFiltro()</text>
<text text-anchor="start" x="201" y="-30" font-family="Helvetica,sans-Serif" font-size="10.00">+ setFiltro()</text>
<text text-anchor="start" x="201" y="-19" font-family="Helvetica,sans-Serif" font-size="10.00">+ getArchivo()</text>
<text text-anchor="start" x="201" y="-8" font-family="Helvetica,sans-Serif" font-size="10.00">+ setArchivo()</text>
</g>
<!-- Node2 -->
<g id="node2" class="node"><title>Node2</title>
<polygon fill="white" stroke="#bfbfbf" points="-0.5,-316.5 -0.5,-373.5 66.5,-373.5 66.5,-316.5 -0.5,-316.5"/>
<text text-anchor="middle" x="33" y="-361.5" font-family="Helvetica,sans-Serif" font-size="10.00">Serializable</text>
<polyline fill="none" stroke="#bfbfbf" points="-0.5,-354.5 66.5,-354.5 "/>
<text text-anchor="middle" x="33" y="-342.5" font-family="Helvetica,sans-Serif" font-size="10.00"> </text>
<polyline fill="none" stroke="#bfbfbf" points="-0.5,-335.5 66.5,-335.5 "/>
<text text-anchor="middle" x="33" y="-323.5" font-family="Helvetica,sans-Serif" font-size="10.00"> </text>
</g>
<!-- Node2&#45;&gt;Node1 -->
<g id="edge1" class="edge"><title>Node2&#45;&gt;Node1</title>
<path fill="none" stroke="midnightblue" d="M70.8064,-309.191C103.992,-278.637 153.043,-233.476 192.885,-196.794"/>
<polygon fill="none" stroke="midnightblue" points="68.1299,-306.898 63.1438,-316.246 72.8713,-312.048 68.1299,-306.898"/>
</g>
<!-- Node3 -->
<g id="node3" class="node"><title>Node3</title>
<polygon fill="white" stroke="#bfbfbf" points="84.5,-316.5 84.5,-373.5 183.5,-373.5 183.5,-316.5 84.5,-316.5"/>
<text text-anchor="middle" x="134" y="-361.5" font-family="Helvetica,sans-Serif" font-size="10.00">ArrayList&lt; Cargo &gt;</text>
<polyline fill="none" stroke="#bfbfbf" points="84.5,-354.5 183.5,-354.5 "/>
<text text-anchor="middle" x="134" y="-342.5" font-family="Helvetica,sans-Serif" font-size="10.00"> </text>
<polyline fill="none" stroke="#bfbfbf" points="84.5,-335.5 183.5,-335.5 "/>
<text text-anchor="middle" x="134" y="-323.5" font-family="Helvetica,sans-Serif" font-size="10.00"> </text>
</g>
<!-- Node3&#45;&gt;Node1 -->
<g id="edge2" class="edge"><title>Node3&#45;&gt;Node1</title>
<path fill="none" stroke="#404040" d="M150.732,-316.246C160.368,-300.262 173.224,-278.938 186.726,-256.541"/>
<polygon fill="none" stroke="#404040" points="186.771,-256.468 186.443,-249.264 192.966,-246.191 193.294,-253.394 186.771,-256.468"/>
<text text-anchor="middle" x="186" y="-289.5" font-family="Helvetica,sans-Serif" font-size="10.00"> &#45;cargos</text>
</g>
<!-- Node4 -->
<g id="node4" class="node"><title>Node4</title>
<polygon fill="white" stroke="#bfbfbf" points="201.5,-316.5 201.5,-373.5 318.5,-373.5 318.5,-316.5 201.5,-316.5"/>
<text text-anchor="middle" x="260" y="-361.5" font-family="Helvetica,sans-Serif" font-size="10.00">ArrayList&lt; Empleado &gt;</text>
<polyline fill="none" stroke="#bfbfbf" points="201.5,-354.5 318.5,-354.5 "/>
<text text-anchor="middle" x="260" y="-342.5" font-family="Helvetica,sans-Serif" font-size="10.00"> </text>
<polyline fill="none" stroke="#bfbfbf" points="201.5,-335.5 318.5,-335.5 "/>
<text text-anchor="middle" x="260" y="-323.5" font-family="Helvetica,sans-Serif" font-size="10.00"> </text>
</g>
<!-- Node4&#45;&gt;Node1 -->
<g id="edge3" class="edge"><title>Node4&#45;&gt;Node1</title>
<path fill="none" stroke="#404040" d="M260,-316.246C260,-305.855 260,-293.206 260,-279.474"/>
<polygon fill="none" stroke="#404040" points="260,-279.156 256,-273.156 260,-267.156 264,-273.156 260,-279.156"/>
<text text-anchor="middle" x="287" y="-289.5" font-family="Helvetica,sans-Serif" font-size="10.00"> &#45;empleados</text>
</g>
<!-- Node5 -->
<g id="node5" class="node"><title>Node5</title>
<polygon fill="white" stroke="#bfbfbf" points="337,-316.5 337,-373.5 471,-373.5 471,-316.5 337,-316.5"/>
<text text-anchor="middle" x="404" y="-361.5" font-family="Helvetica,sans-Serif" font-size="10.00">ArrayList&lt; Departamento &gt;</text>
<polyline fill="none" stroke="#bfbfbf" points="337,-354.5 471,-354.5 "/>
<text text-anchor="middle" x="404" y="-342.5" font-family="Helvetica,sans-Serif" font-size="10.00"> </text>
<polyline fill="none" stroke="#bfbfbf" points="337,-335.5 471,-335.5 "/>
<text text-anchor="middle" x="404" y="-323.5" font-family="Helvetica,sans-Serif" font-size="10.00"> </text>
</g>
<!-- Node5&#45;&gt;Node1 -->
<g id="edge4" class="edge"><title>Node5&#45;&gt;Node1</title>
<path fill="none" stroke="#404040" d="M384.878,-316.246C371.591,-296.962 352.95,-269.906 334.115,-242.57"/>
<polygon fill="none" stroke="#404040" points="333.986,-242.382 327.288,-239.711 327.177,-232.5 333.875,-235.172 333.986,-242.382"/>
<text text-anchor="middle" x="405.5" y="-289.5" font-family="Helvetica,sans-Serif" font-size="10.00"> &#45;departamentos</text>
</g>
<!-- Node6 -->
<g id="node6" class="node"><title>Node6</title>
<polygon fill="white" stroke="#bfbfbf" points="489.5,-316.5 489.5,-373.5 596.5,-373.5 596.5,-316.5 489.5,-316.5"/>
<text text-anchor="middle" x="543" y="-361.5" font-family="Helvetica,sans-Serif" font-size="10.00">ArrayList&lt; Idiomas &gt;</text>
<polyline fill="none" stroke="#bfbfbf" points="489.5,-354.5 596.5,-354.5 "/>
<text text-anchor="middle" x="543" y="-342.5" font-family="Helvetica,sans-Serif" font-size="10.00"> </text>
<polyline fill="none" stroke="#bfbfbf" points="489.5,-335.5 596.5,-335.5 "/>
<text text-anchor="middle" x="543" y="-323.5" font-family="Helvetica,sans-Serif" font-size="10.00"> </text>
</g>
<!-- Node6&#45;&gt;Node1 -->
<g id="edge5" class="edge"><title>Node6&#45;&gt;Node1</title>
<path fill="none" stroke="#404040" d="M505.712,-316.462C462.951,-284.883 391.701,-232.263 336.905,-191.796"/>
<polygon fill="none" stroke="#404040" points="336.876,-191.774 329.673,-191.427 327.223,-184.645 334.425,-184.992 336.876,-191.774"/>
<text text-anchor="middle" x="495" y="-289.5" font-family="Helvetica,sans-Serif" font-size="10.00"> &#45;idiomas</text>
</g>
</g>
</svg>
