<?xml version="1.0" encoding="UTF-8" standalone="no"?>
<!DOCTYPE svg PUBLIC "-//W3C//DTD SVG 1.1//EN"
 "http://www.w3.org/Graphics/SVG/1.1/DTD/svg11.dtd">
<!-- Generated by graphviz version 2.30.1 (20130214.1330)
 -->
<!-- Title: plugins.Panel_Consultas Pages: 1 -->
<svg width="1141pt" height="1154pt"
 viewBox="0.00 0.00 1141.10 1154.00" xmlns="http://www.w3.org/2000/svg" xmlns:xlink="http://www.w3.org/1999/xlink">
<g id="graph0" class="graph" transform="scale(1 1) rotate(0) translate(4 1150)">
<title>plugins.Panel_Consultas</title>
<polygon fill="white" stroke="white" points="-4,5 -4,-1150 1138.1,-1150 1138.1,5 -4,5"/>
<!-- Node1 -->
<g id="node1" class="node"><title>Node1</title>
<polygon fill="#bfbfbf" stroke="black" points="175.096,-0.5 175.096,-101.5 315.096,-101.5 315.096,-0.5 175.096,-0.5"/>
<text text-anchor="middle" x="245.096" y="-89.5" font-family="Helvetica,sans-Serif" font-size="10.00">plugins.Panel_Consultas</text>
<polyline fill="none" stroke="black" points="175.096,-82.5 315.096,-82.5 "/>
<text text-anchor="start" x="183.096" y="-70.5" font-family="Helvetica,sans-Serif" font-size="10.00">~ types</text>
<text text-anchor="start" x="183.096" y="-59.5" font-family="Helvetica,sans-Serif" font-size="10.00">&#45; columNames</text>
<polyline fill="none" stroke="black" points="175.096,-52.5 315.096,-52.5 "/>
<text text-anchor="start" x="183.096" y="-40.5" font-family="Helvetica,sans-Serif" font-size="10.00">+ Panel_Consultas()</text>
<text text-anchor="start" x="183.096" y="-29.5" font-family="Helvetica,sans-Serif" font-size="10.00"># editarDatosEmpleado()</text>
<text text-anchor="start" x="183.096" y="-18.5" font-family="Helvetica,sans-Serif" font-size="10.00"># editarCVEmpleado()</text>
<text text-anchor="start" x="183.096" y="-7.5" font-family="Helvetica,sans-Serif" font-size="10.00"># editarContratosEmpleado()</text>
</g>
<!-- Node2 -->
<g id="node2" class="node"><title>Node2</title>
<polygon fill="white" stroke="#bfbfbf" points="291.096,-1088.5 291.096,-1145.5 337.096,-1145.5 337.096,-1088.5 291.096,-1088.5"/>
<text text-anchor="middle" x="314.096" y="-1133.5" font-family="Helvetica,sans-Serif" font-size="10.00">JPanel</text>
<polyline fill="none" stroke="#bfbfbf" points="291.096,-1126.5 337.096,-1126.5 "/>
<text text-anchor="middle" x="314.096" y="-1114.5" font-family="Helvetica,sans-Serif" font-size="10.00"> </text>
<polyline fill="none" stroke="#bfbfbf" points="291.096,-1107.5 337.096,-1107.5 "/>
<text text-anchor="middle" x="314.096" y="-1095.5" font-family="Helvetica,sans-Serif" font-size="10.00"> </text>
</g>
<!-- Node2&#45;&gt;Node1 -->
<g id="edge1" class="edge"><title>Node2&#45;&gt;Node1</title>
<path fill="none" stroke="midnightblue" d="M280.7,-1114.26C224.442,-1109.33 111.951,-1090.43 61.0962,-1018 -1.85839,-928.333 -33.269,-309.765 54.0962,-160 80.0091,-115.579 131.707,-87.9746 174.789,-71.8034"/>
<polygon fill="none" stroke="midnightblue" points="280.603,-1117.76 290.844,-1115.05 281.146,-1110.79 280.603,-1117.76"/>
</g>
<!-- Node8 -->
<g id="node8" class="node"><title>Node8</title>
<g id="a_node8"><a xlink:href="classgestorempleados_1_1interficie_1_1_panel___contrato.xhtml" target="_top" xlink:title="{gestorempleados.interficie.\lPanel_Contrato\n|+ panelEstado\l+ nuevo_contratoPanel\l+ datos_temporalPanel\l+ camposContratoOK\l&#45; sedePanel\l&#45; modalidaPanel\l&#45; clasePanel\l&#45; salarioPanel\l&#45; clausulaPanel\l&#45; medicoPanel\l&#45; idContrato\l|+ Panel_Contrato()\l+ getDepartamento()\l+ setDepartamento()\l+ getCargo()\l+ setCargo()\l+ getMotivo()\l+ setMotivo()\l+ getOrigen()\l+ setOrigen()\l+ getSede()\l+ setSede()\l+ getSalario()\l+ setSalario()\l+ getModalidad()\l+ setModalidad()\l+ getClase()\l+ setClase()\l+ getFecha_inicio()\l+ setFecha_inicio()\l+ getFecha_fin()\l+ setFecha_fin()\l+ getPeriodoPrueba()\l+ setPeriodoPrueba()\l+ getPreaviso()\l+ setPreaviso()\l+ getClausula()\l+ setClausula()\l+ getSalud()\l+ setSalud()\l+ getVida()\l+ setVida()\l+ setIDContrato()\l+ getIDContrato()\l+ getActivo()\l+ setActivo()\l}">
<polygon fill="white" stroke="black" points="461.596,-161 461.596,-713 594.596,-713 594.596,-161 461.596,-161"/>
<text text-anchor="start" x="469.596" y="-701" font-family="Helvetica,sans-Serif" font-size="10.00">gestorempleados.interficie.</text>
<text text-anchor="middle" x="528.096" y="-690" font-family="Helvetica,sans-Serif" font-size="10.00">Panel_Contrato</text>
<polyline fill="none" stroke="black" points="461.596,-683 594.596,-683 "/>
<text text-anchor="start" x="469.596" y="-671" font-family="Helvetica,sans-Serif" font-size="10.00">+ panelEstado</text>
<text text-anchor="start" x="469.596" y="-660" font-family="Helvetica,sans-Serif" font-size="10.00">+ nuevo_contratoPanel</text>
<text text-anchor="start" x="469.596" y="-649" font-family="Helvetica,sans-Serif" font-size="10.00">+ datos_temporalPanel</text>
<text text-anchor="start" x="469.596" y="-638" font-family="Helvetica,sans-Serif" font-size="10.00">+ camposContratoOK</text>
<text text-anchor="start" x="469.596" y="-627" font-family="Helvetica,sans-Serif" font-size="10.00">&#45; sedePanel</text>
<text text-anchor="start" x="469.596" y="-616" font-family="Helvetica,sans-Serif" font-size="10.00">&#45; modalidaPanel</text>
<text text-anchor="start" x="469.596" y="-605" font-family="Helvetica,sans-Serif" font-size="10.00">&#45; clasePanel</text>
<text text-anchor="start" x="469.596" y="-594" font-family="Helvetica,sans-Serif" font-size="10.00">&#45; salarioPanel</text>
<text text-anchor="start" x="469.596" y="-583" font-family="Helvetica,sans-Serif" font-size="10.00">&#45; clausulaPanel</text>
<text text-anchor="start" x="469.596" y="-572" font-family="Helvetica,sans-Serif" font-size="10.00">&#45; medicoPanel</text>
<text text-anchor="start" x="469.596" y="-561" font-family="Helvetica,sans-Serif" font-size="10.00">&#45; idContrato</text>
<polyline fill="none" stroke="black" points="461.596,-554 594.596,-554 "/>
<text text-anchor="start" x="469.596" y="-542" font-family="Helvetica,sans-Serif" font-size="10.00">+ Panel_Contrato()</text>
<text text-anchor="start" x="469.596" y="-531" font-family="Helvetica,sans-Serif" font-size="10.00">+ getDepartamento()</text>
<text text-anchor="start" x="469.596" y="-520" font-family="Helvetica,sans-Serif" font-size="10.00">+ setDepartamento()</text>
<text text-anchor="start" x="469.596" y="-509" font-family="Helvetica,sans-Serif" font-size="10.00">+ getCargo()</text>
<text text-anchor="start" x="469.596" y="-498" font-family="Helvetica,sans-Serif" font-size="10.00">+ setCargo()</text>
<text text-anchor="start" x="469.596" y="-487" font-family="Helvetica,sans-Serif" font-size="10.00">+ getMotivo()</text>
<text text-anchor="start" x="469.596" y="-476" font-family="Helvetica,sans-Serif" font-size="10.00">+ setMotivo()</text>
<text text-anchor="start" x="469.596" y="-465" font-family="Helvetica,sans-Serif" font-size="10.00">+ getOrigen()</text>
<text text-anchor="start" x="469.596" y="-454" font-family="Helvetica,sans-Serif" font-size="10.00">+ setOrigen()</text>
<text text-anchor="start" x="469.596" y="-443" font-family="Helvetica,sans-Serif" font-size="10.00">+ getSede()</text>
<text text-anchor="start" x="469.596" y="-432" font-family="Helvetica,sans-Serif" font-size="10.00">+ setSede()</text>
<text text-anchor="start" x="469.596" y="-421" font-family="Helvetica,sans-Serif" font-size="10.00">+ getSalario()</text>
<text text-anchor="start" x="469.596" y="-410" font-family="Helvetica,sans-Serif" font-size="10.00">+ setSalario()</text>
<text text-anchor="start" x="469.596" y="-399" font-family="Helvetica,sans-Serif" font-size="10.00">+ getModalidad()</text>
<text text-anchor="start" x="469.596" y="-388" font-family="Helvetica,sans-Serif" font-size="10.00">+ setModalidad()</text>
<text text-anchor="start" x="469.596" y="-377" font-family="Helvetica,sans-Serif" font-size="10.00">+ getClase()</text>
<text text-anchor="start" x="469.596" y="-366" font-family="Helvetica,sans-Serif" font-size="10.00">+ setClase()</text>
<text text-anchor="start" x="469.596" y="-355" font-family="Helvetica,sans-Serif" font-size="10.00">+ getFecha_inicio()</text>
<text text-anchor="start" x="469.596" y="-344" font-family="Helvetica,sans-Serif" font-size="10.00">+ setFecha_inicio()</text>
<text text-anchor="start" x="469.596" y="-333" font-family="Helvetica,sans-Serif" font-size="10.00">+ getFecha_fin()</text>
<text text-anchor="start" x="469.596" y="-322" font-family="Helvetica,sans-Serif" font-size="10.00">+ setFecha_fin()</text>
<text text-anchor="start" x="469.596" y="-311" font-family="Helvetica,sans-Serif" font-size="10.00">+ getPeriodoPrueba()</text>
<text text-anchor="start" x="469.596" y="-300" font-family="Helvetica,sans-Serif" font-size="10.00">+ setPeriodoPrueba()</text>
<text text-anchor="start" x="469.596" y="-289" font-family="Helvetica,sans-Serif" font-size="10.00">+ getPreaviso()</text>
<text text-anchor="start" x="469.596" y="-278" font-family="Helvetica,sans-Serif" font-size="10.00">+ setPreaviso()</text>
<text text-anchor="start" x="469.596" y="-267" font-family="Helvetica,sans-Serif" font-size="10.00">+ getClausula()</text>
<text text-anchor="start" x="469.596" y="-256" font-family="Helvetica,sans-Serif" font-size="10.00">+ setClausula()</text>
<text text-anchor="start" x="469.596" y="-245" font-family="Helvetica,sans-Serif" font-size="10.00">+ getSalud()</text>
<text text-anchor="start" x="469.596" y="-234" font-family="Helvetica,sans-Serif" font-size="10.00">+ setSalud()</text>
<text text-anchor="start" x="469.596" y="-223" font-family="Helvetica,sans-Serif" font-size="10.00">+ getVida()</text>
<text text-anchor="start" x="469.596" y="-212" font-family="Helvetica,sans-Serif" font-size="10.00">+ setVida()</text>
<text text-anchor="start" x="469.596" y="-201" font-family="Helvetica,sans-Serif" font-size="10.00">+ setIDContrato()</text>
<text text-anchor="start" x="469.596" y="-190" font-family="Helvetica,sans-Serif" font-size="10.00">+ getIDContrato()</text>
<text text-anchor="start" x="469.596" y="-179" font-family="Helvetica,sans-Serif" font-size="10.00">+ getActivo()</text>
<text text-anchor="start" x="469.596" y="-168" font-family="Helvetica,sans-Serif" font-size="10.00">+ setActivo()</text>
</a>
</g>
</g>
<!-- Node2&#45;&gt;Node8 -->
<g id="edge8" class="edge"><title>Node2&#45;&gt;Node8</title>
<path fill="none" stroke="midnightblue" d="M311.951,-1078.04C309.702,-1020.4 309.285,-907.782 333.096,-816 343.48,-775.975 340.819,-757.846 373.096,-732 401.206,-709.491 426.07,-738.888 452.096,-714 455.329,-710.909 458.428,-707.693 461.4,-704.367"/>
<polygon fill="none" stroke="midnightblue" points="308.459,-1078.31 312.387,-1088.15 315.452,-1078.01 308.459,-1078.31"/>
</g>
<!-- Node10 -->
<g id="node10" class="node"><title>Node10</title>
<g id="a_node10"><a xlink:href="classgestorempleados_1_1interficie_1_1_calendario.xhtml" target="_top" xlink:title="{gestorempleados.interficie.\lCalendario\n|~ diaMax\l~ inicioMes\l~ meses\l~ dia\l~ mes\l~ year\l|+ getDia()\l+ setDia()\l+ getMes()\l+ setMes()\l+ getAno()\l+ setAno()\l+ Calendario()\l+ dibujar()\l}">
<polygon fill="white" stroke="black" points="795.596,-817 795.596,-1017 928.596,-1017 928.596,-817 795.596,-817"/>
<text text-anchor="start" x="803.596" y="-1005" font-family="Helvetica,sans-Serif" font-size="10.00">gestorempleados.interficie.</text>
<text text-anchor="middle" x="862.096" y="-994" font-family="Helvetica,sans-Serif" font-size="10.00">Calendario</text>
<polyline fill="none" stroke="black" points="795.596,-987 928.596,-987 "/>
<text text-anchor="start" x="803.596" y="-975" font-family="Helvetica,sans-Serif" font-size="10.00">~ diaMax</text>
<text text-anchor="start" x="803.596" y="-964" font-family="Helvetica,sans-Serif" font-size="10.00">~ inicioMes</text>
<text text-anchor="start" x="803.596" y="-953" font-family="Helvetica,sans-Serif" font-size="10.00">~ meses</text>
<text text-anchor="start" x="803.596" y="-942" font-family="Helvetica,sans-Serif" font-size="10.00">~ dia</text>
<text text-anchor="start" x="803.596" y="-931" font-family="Helvetica,sans-Serif" font-size="10.00">~ mes</text>
<text text-anchor="start" x="803.596" y="-920" font-family="Helvetica,sans-Serif" font-size="10.00">~ year</text>
<polyline fill="none" stroke="black" points="795.596,-913 928.596,-913 "/>
<text text-anchor="start" x="803.596" y="-901" font-family="Helvetica,sans-Serif" font-size="10.00">+ getDia()</text>
<text text-anchor="start" x="803.596" y="-890" font-family="Helvetica,sans-Serif" font-size="10.00">+ setDia()</text>
<text text-anchor="start" x="803.596" y="-879" font-family="Helvetica,sans-Serif" font-size="10.00">+ getMes()</text>
<text text-anchor="start" x="803.596" y="-868" font-family="Helvetica,sans-Serif" font-size="10.00">+ setMes()</text>
<text text-anchor="start" x="803.596" y="-857" font-family="Helvetica,sans-Serif" font-size="10.00">+ getAno()</text>
<text text-anchor="start" x="803.596" y="-846" font-family="Helvetica,sans-Serif" font-size="10.00">+ setAno()</text>
<text text-anchor="start" x="803.596" y="-835" font-family="Helvetica,sans-Serif" font-size="10.00">+ Calendario()</text>
<text text-anchor="start" x="803.596" y="-824" font-family="Helvetica,sans-Serif" font-size="10.00">+ dibujar()</text>
</a>
</g>
</g>
<!-- Node2&#45;&gt;Node10 -->
<g id="edge11" class="edge"><title>Node2&#45;&gt;Node10</title>
<path fill="none" stroke="midnightblue" d="M346.553,-1101.97C391.074,-1083.41 474.015,-1051.27 548.096,-1036 598.959,-1025.52 735.118,-1042.14 781.096,-1018 786.041,-1015.4 790.793,-1012.36 795.342,-1008.98"/>
<polygon fill="none" stroke="midnightblue" points="344.991,-1098.83 337.132,-1105.93 347.706,-1105.28 344.991,-1098.83"/>
</g>
<!-- Node2&#45;&gt;Node10 -->
<g id="edge16" class="edge"><title>Node2&#45;&gt;Node10</title>
<path fill="none" stroke="#404040" d="M337.241,-1110.45C394.396,-1096.84 546.89,-1061.07 675.096,-1036 721.993,-1026.83 739.845,-1042.12 781.096,-1018 782.663,-1017.08 784.212,-1016.12 785.743,-1015.13"/>
<polygon fill="none" stroke="#404040" points="785.853,-1015.05 788.37,-1008.29 795.576,-1008.01 793.059,-1014.77 785.853,-1015.05"/>
<text text-anchor="middle" x="695.096" y="-1056" font-family="Helvetica,sans-Serif" font-size="10.00"> ~panel</text>
<text text-anchor="middle" x="695.096" y="-1045" font-family="Helvetica,sans-Serif" font-size="10.00">~panel_1</text>
</g>
<!-- Node2&#45;&gt;Node8 -->
<g id="edge23" class="edge"><title>Node2&#45;&gt;Node8</title>
<path fill="none" stroke="#404040" d="M290.907,-1100.45C267.724,-1083.37 233.51,-1053.58 219.096,-1018 185.385,-934.792 178.44,-896.044 219.096,-816 247.759,-759.568 275.582,-756.129 334.096,-732 383.141,-711.776 412.449,-749.249 452.096,-714 452.299,-713.819 452.502,-713.638 452.704,-713.457"/>
<polygon fill="none" stroke="#404040" points="452.839,-713.325 454.36,-706.276 461.451,-704.969 459.931,-712.018 452.839,-713.325"/>
<text text-anchor="middle" x="263.096" y="-969.5" font-family="Helvetica,sans-Serif" font-size="10.00"> &#45;motivoPanel</text>
<text text-anchor="middle" x="263.096" y="-958.5" font-family="Helvetica,sans-Serif" font-size="10.00">&#45;cargoPanel</text>
<text text-anchor="middle" x="263.096" y="-947.5" font-family="Helvetica,sans-Serif" font-size="10.00">&#45;preavisoPanel</text>
<text text-anchor="middle" x="263.096" y="-936.5" font-family="Helvetica,sans-Serif" font-size="10.00">+contratosPanel</text>
<text text-anchor="middle" x="263.096" y="-925.5" font-family="Helvetica,sans-Serif" font-size="10.00">&#45;fecha_inicioPanel</text>
<text text-anchor="middle" x="263.096" y="-914.5" font-family="Helvetica,sans-Serif" font-size="10.00">&#45;origenPanel</text>
<text text-anchor="middle" x="263.096" y="-903.5" font-family="Helvetica,sans-Serif" font-size="10.00">&#45;departamentoPanel</text>
<text text-anchor="middle" x="263.096" y="-892.5" font-family="Helvetica,sans-Serif" font-size="10.00">&#45;fecha_finPanel</text>
<text text-anchor="middle" x="263.096" y="-881.5" font-family="Helvetica,sans-Serif" font-size="10.00">&#45;vidaPanel</text>
<text text-anchor="middle" x="263.096" y="-870.5" font-family="Helvetica,sans-Serif" font-size="10.00">&#45;pruebaPanel</text>
<text text-anchor="middle" x="263.096" y="-859.5" font-family="Helvetica,sans-Serif" font-size="10.00">...</text>
</g>
<!-- Node3 -->
<g id="node3" class="node"><title>Node3</title>
<polygon fill="white" stroke="#bfbfbf" points="63.5962,-408.5 63.5962,-465.5 130.596,-465.5 130.596,-408.5 63.5962,-408.5"/>
<text text-anchor="middle" x="97.0962" y="-453.5" font-family="Helvetica,sans-Serif" font-size="10.00">Serializable</text>
<polyline fill="none" stroke="#bfbfbf" points="63.5962,-446.5 130.596,-446.5 "/>
<text text-anchor="middle" x="97.0962" y="-434.5" font-family="Helvetica,sans-Serif" font-size="10.00"> </text>
<polyline fill="none" stroke="#bfbfbf" points="63.5962,-427.5 130.596,-427.5 "/>
<text text-anchor="middle" x="97.0962" y="-415.5" font-family="Helvetica,sans-Serif" font-size="10.00"> </text>
</g>
<!-- Node3&#45;&gt;Node1 -->
<g id="edge2" class="edge"><title>Node3&#45;&gt;Node1</title>
<path fill="none" stroke="midnightblue" d="M95.9099,-398.463C95.6698,-343.26 101.033,-238.266 140.096,-160 150.84,-138.474 167.423,-118.471 184.26,-101.677"/>
<polygon fill="none" stroke="midnightblue" points="92.4103,-398.534 96.0186,-408.496 99.4099,-398.458 92.4103,-398.534"/>
</g>
<!-- Node4 -->
<g id="node4" class="node"><title>Node4</title>
<polygon fill="white" stroke="#bfbfbf" points="149.096,-408.5 149.096,-465.5 199.096,-465.5 199.096,-408.5 149.096,-408.5"/>
<text text-anchor="middle" x="174.096" y="-453.5" font-family="Helvetica,sans-Serif" font-size="10.00">JButton</text>
<polyline fill="none" stroke="#bfbfbf" points="149.096,-446.5 199.096,-446.5 "/>
<text text-anchor="middle" x="174.096" y="-434.5" font-family="Helvetica,sans-Serif" font-size="10.00"> </text>
<polyline fill="none" stroke="#bfbfbf" points="149.096,-427.5 199.096,-427.5 "/>
<text text-anchor="middle" x="174.096" y="-415.5" font-family="Helvetica,sans-Serif" font-size="10.00"> </text>
</g>
<!-- Node4&#45;&gt;Node1 -->
<g id="edge3" class="edge"><title>Node4&#45;&gt;Node1</title>
<path fill="none" stroke="#404040" d="M170.496,-408.267C164.294,-351.883 155.603,-220.693 193.096,-120 194.044,-117.454 195.122,-114.925 196.306,-112.423"/>
<polygon fill="none" stroke="#404040" points="196.413,-112.225 195.739,-105.045 202.108,-101.662 202.781,-108.842 196.413,-112.225"/>
<text text-anchor="middle" x="217.096" y="-134" font-family="Helvetica,sans-Serif" font-size="10.00"> +update</text>
<text text-anchor="middle" x="217.096" y="-123" font-family="Helvetica,sans-Serif" font-size="10.00">&#45;refreshBtn</text>
</g>
<!-- Node5 -->
<g id="node5" class="node"><title>Node5</title>
<polygon fill="white" stroke="#bfbfbf" points="217.596,-408.5 217.596,-465.5 266.596,-465.5 266.596,-408.5 217.596,-408.5"/>
<text text-anchor="middle" x="242.096" y="-453.5" font-family="Helvetica,sans-Serif" font-size="10.00">JFrame</text>
<polyline fill="none" stroke="#bfbfbf" points="217.596,-446.5 266.596,-446.5 "/>
<text text-anchor="middle" x="242.096" y="-434.5" font-family="Helvetica,sans-Serif" font-size="10.00"> </text>
<polyline fill="none" stroke="#bfbfbf" points="217.596,-427.5 266.596,-427.5 "/>
<text text-anchor="middle" x="242.096" y="-415.5" font-family="Helvetica,sans-Serif" font-size="10.00"> </text>
</g>
<!-- Node5&#45;&gt;Node1 -->
<g id="edge4" class="edge"><title>Node5&#45;&gt;Node1</title>
<path fill="none" stroke="#404040" d="M242.312,-408.384C242.791,-347.082 243.953,-198.389 244.614,-113.709"/>
<polygon fill="none" stroke="#404040" points="244.614,-113.697 240.661,-107.666 244.708,-101.697 248.661,-107.728 244.614,-113.697"/>
<text text-anchor="middle" x="263.596" y="-128.5" font-family="Helvetica,sans-Serif" font-size="10.00"> &#45;edicion</text>
</g>
<!-- Node6 -->
<g id="node6" class="node"><title>Node6</title>
<polygon fill="white" stroke="#bfbfbf" points="285.096,-408.5 285.096,-465.5 329.096,-465.5 329.096,-408.5 285.096,-408.5"/>
<text text-anchor="middle" x="307.096" y="-453.5" font-family="Helvetica,sans-Serif" font-size="10.00">JTable</text>
<polyline fill="none" stroke="#bfbfbf" points="285.096,-446.5 329.096,-446.5 "/>
<text text-anchor="middle" x="307.096" y="-434.5" font-family="Helvetica,sans-Serif" font-size="10.00"> </text>
<polyline fill="none" stroke="#bfbfbf" points="285.096,-427.5 329.096,-427.5 "/>
<text text-anchor="middle" x="307.096" y="-415.5" font-family="Helvetica,sans-Serif" font-size="10.00"> </text>
</g>
<!-- Node6&#45;&gt;Node1 -->
<g id="edge5" class="edge"><title>Node6&#45;&gt;Node1</title>
<path fill="none" stroke="#404040" d="M309.353,-408.172C312.994,-352.162 316.85,-222.429 285.096,-120 284.352,-117.598 283.508,-115.191 282.584,-112.792"/>
<polygon fill="none" stroke="#404040" points="282.531,-112.671 276.466,-108.769 277.735,-101.671 283.8,-105.572 282.531,-112.671"/>
<text text-anchor="middle" x="304.096" y="-128.5" font-family="Helvetica,sans-Serif" font-size="10.00"> &#45;table</text>
</g>
<!-- Node7 -->
<g id="node7" class="node"><title>Node7</title>
<polygon fill="white" stroke="#bfbfbf" points="347.096,-408.5 347.096,-465.5 443.096,-465.5 443.096,-408.5 347.096,-408.5"/>
<text text-anchor="middle" x="395.096" y="-453.5" font-family="Helvetica,sans-Serif" font-size="10.00">DefaultTableModel</text>
<polyline fill="none" stroke="#bfbfbf" points="347.096,-446.5 443.096,-446.5 "/>
<text text-anchor="middle" x="395.096" y="-434.5" font-family="Helvetica,sans-Serif" font-size="10.00"> </text>
<polyline fill="none" stroke="#bfbfbf" points="347.096,-427.5 443.096,-427.5 "/>
<text text-anchor="middle" x="395.096" y="-415.5" font-family="Helvetica,sans-Serif" font-size="10.00"> </text>
</g>
<!-- Node7&#45;&gt;Node1 -->
<g id="edge6" class="edge"><title>Node7&#45;&gt;Node1</title>
<path fill="none" stroke="#404040" d="M395.439,-408.277C394.824,-349.622 386.161,-210.896 322.096,-120 319.956,-116.964 317.655,-113.971 315.232,-111.036"/>
<polygon fill="none" stroke="#404040" points="315.079,-110.863 308.109,-109.015 307.133,-101.871 314.104,-103.718 315.079,-110.863"/>
<text text-anchor="middle" x="359.096" y="-128.5" font-family="Helvetica,sans-Serif" font-size="10.00"> &#45;tableModel</text>
</g>
<!-- Node8&#45;&gt;Node1 -->
<g id="edge7" class="edge"><title>Node8&#45;&gt;Node1</title>
<path fill="none" stroke="#404040" d="M461.395,-173.594C458.429,-168.945 455.331,-164.407 452.096,-160 421.709,-118.607 370.707,-91.7346 326.934,-75.1473"/>
<polygon fill="none" stroke="#404040" points="326.668,-75.0503 319.661,-76.7556 315.392,-70.9439 322.399,-69.2386 326.668,-75.0503"/>
<text text-anchor="middle" x="472.096" y="-128.5" font-family="Helvetica,sans-Serif" font-size="10.00"> &#45;contratosPanel</text>
</g>
<!-- Node9 -->
<g id="node9" class="node"><title>Node9</title>
<polygon fill="white" stroke="#bfbfbf" points="70.0962,-888.5 70.0962,-945.5 136.096,-945.5 136.096,-888.5 70.0962,-888.5"/>
<text text-anchor="middle" x="103.096" y="-933.5" font-family="Helvetica,sans-Serif" font-size="10.00">JCheckBox</text>
<polyline fill="none" stroke="#bfbfbf" points="70.0962,-926.5 136.096,-926.5 "/>
<text text-anchor="middle" x="103.096" y="-914.5" font-family="Helvetica,sans-Serif" font-size="10.00"> </text>
<polyline fill="none" stroke="#bfbfbf" points="70.0962,-907.5 136.096,-907.5 "/>
<text text-anchor="middle" x="103.096" y="-895.5" font-family="Helvetica,sans-Serif" font-size="10.00"> </text>
</g>
<!-- Node9&#45;&gt;Node8 -->
<g id="edge9" class="edge"><title>Node9&#45;&gt;Node8</title>
<path fill="none" stroke="#404040" d="M92.9157,-888.31C80.1123,-848.072 64.2776,-773.704 104.096,-732 130.834,-703.996 421.914,-738.252 452.096,-714 452.199,-713.917 452.302,-713.834 452.405,-713.752"/>
<polygon fill="none" stroke="#404040" points="452.564,-713.611 454.429,-706.645 461.576,-705.687 459.711,-712.653 452.564,-713.611"/>
<text text-anchor="middle" x="144.096" y="-790" font-family="Helvetica,sans-Serif" font-size="10.00"> &#45;indefinidoChckbx</text>
<text text-anchor="middle" x="144.096" y="-779" font-family="Helvetica,sans-Serif" font-size="10.00">&#45;clausulaChck</text>
<text text-anchor="middle" x="144.096" y="-768" font-family="Helvetica,sans-Serif" font-size="10.00">&#45;saludChk</text>
<text text-anchor="middle" x="144.096" y="-757" font-family="Helvetica,sans-Serif" font-size="10.00">&#45;fechafinChkBx</text>
<text text-anchor="middle" x="144.096" y="-746" font-family="Helvetica,sans-Serif" font-size="10.00">&#45;temporalchckbx</text>
<text text-anchor="middle" x="144.096" y="-735" font-family="Helvetica,sans-Serif" font-size="10.00">&#45;vidaChk</text>
</g>
<!-- Node10&#45;&gt;Node8 -->
<g id="edge10" class="edge"><title>Node10&#45;&gt;Node8</title>
<path fill="none" stroke="#404040" d="M795.509,-820.705C739.55,-740.62 659.665,-626.293 601.793,-543.471"/>
<polygon fill="none" stroke="#404040" points="601.721,-543.368 595.006,-540.741 594.848,-533.531 601.564,-536.158 601.721,-543.368"/>
<text text-anchor="middle" x="812.596" y="-768" font-family="Helvetica,sans-Serif" font-size="10.00"> &#45;calendario_inicio</text>
<text text-anchor="middle" x="812.596" y="-757" font-family="Helvetica,sans-Serif" font-size="10.00">&#45;calendario_fin</text>
</g>
<!-- Node11 -->
<g id="node11" class="node"><title>Node11</title>
<polygon fill="white" stroke="#bfbfbf" points="856.596,-1088.5 856.596,-1145.5 911.596,-1145.5 911.596,-1088.5 856.596,-1088.5"/>
<text text-anchor="middle" x="884.096" y="-1133.5" font-family="Helvetica,sans-Serif" font-size="10.00">Calendar</text>
<polyline fill="none" stroke="#bfbfbf" points="856.596,-1126.5 911.596,-1126.5 "/>
<text text-anchor="middle" x="884.096" y="-1114.5" font-family="Helvetica,sans-Serif" font-size="10.00"> </text>
<polyline fill="none" stroke="#bfbfbf" points="856.596,-1107.5 911.596,-1107.5 "/>
<text text-anchor="middle" x="884.096" y="-1095.5" font-family="Helvetica,sans-Serif" font-size="10.00"> </text>
</g>
<!-- Node11&#45;&gt;Node10 -->
<g id="edge12" class="edge"><title>Node11&#45;&gt;Node10</title>
<path fill="none" stroke="#404040" d="M881.037,-1088.47C879.266,-1072.53 876.906,-1051.29 874.455,-1029.23"/>
<polygon fill="none" stroke="#404040" points="874.453,-1029.21 869.815,-1023.69 873.127,-1017.28 877.766,-1022.8 874.453,-1029.21"/>
<text text-anchor="middle" x="905.096" y="-1056" font-family="Helvetica,sans-Serif" font-size="10.00"> ~calendario</text>
<text text-anchor="middle" x="905.096" y="-1045" font-family="Helvetica,sans-Serif" font-size="10.00">~calcopia</text>
</g>
<!-- Node12 -->
<g id="node12" class="node"><title>Node12</title>
<polygon fill="white" stroke="#bfbfbf" points="932.096,-1088.5 932.096,-1145.5 986.096,-1145.5 986.096,-1088.5 932.096,-1088.5"/>
<text text-anchor="middle" x="959.096" y="-1133.5" font-family="Helvetica,sans-Serif" font-size="10.00">JSpinner</text>
<polyline fill="none" stroke="#bfbfbf" points="932.096,-1126.5 986.096,-1126.5 "/>
<text text-anchor="middle" x="959.096" y="-1114.5" font-family="Helvetica,sans-Serif" font-size="10.00"> </text>
<polyline fill="none" stroke="#bfbfbf" points="932.096,-1107.5 986.096,-1107.5 "/>
<text text-anchor="middle" x="959.096" y="-1095.5" font-family="Helvetica,sans-Serif" font-size="10.00"> </text>
</g>
<!-- Node12&#45;&gt;Node10 -->
<g id="edge13" class="edge"><title>Node12&#45;&gt;Node10</title>
<path fill="none" stroke="#404040" d="M953.163,-1088.3C949.3,-1072.58 943.581,-1052.76 936.096,-1036 934.911,-1033.35 933.673,-1030.68 932.391,-1028.01"/>
<polygon fill="none" stroke="#404040" points="932.265,-1027.76 926.002,-1024.19 926.891,-1017.03 933.154,-1020.6 932.265,-1027.76"/>
<text text-anchor="middle" x="964.096" y="-1056" font-family="Helvetica,sans-Serif" font-size="10.00"> ~spDia</text>
<text text-anchor="middle" x="964.096" y="-1045" font-family="Helvetica,sans-Serif" font-size="10.00">~spAno</text>
</g>
<!-- Node13 -->
<g id="node13" class="node"><title>Node13</title>
<polygon fill="white" stroke="#bfbfbf" points="1019.6,-1088.5 1019.6,-1145.5 1088.6,-1145.5 1088.6,-1088.5 1019.6,-1088.5"/>
<text text-anchor="middle" x="1054.1" y="-1133.5" font-family="Helvetica,sans-Serif" font-size="10.00">JComboBox</text>
<polyline fill="none" stroke="#bfbfbf" points="1019.6,-1126.5 1088.6,-1126.5 "/>
<text text-anchor="middle" x="1054.1" y="-1114.5" font-family="Helvetica,sans-Serif" font-size="10.00"> </text>
<polyline fill="none" stroke="#bfbfbf" points="1019.6,-1107.5 1088.6,-1107.5 "/>
<text text-anchor="middle" x="1054.1" y="-1095.5" font-family="Helvetica,sans-Serif" font-size="10.00"> </text>
</g>
<!-- Node13&#45;&gt;Node10 -->
<g id="edge14" class="edge"><title>Node13&#45;&gt;Node10</title>
<path fill="none" stroke="#404040" d="M1031.4,-1088.41C1018.23,-1072.72 1001.13,-1052.9 985.096,-1036 970.062,-1020.15 953.47,-1003.63 937.468,-988.137"/>
<polygon fill="none" stroke="#404040" points="937.297,-987.973 930.201,-986.693 928.653,-979.65 935.749,-980.93 937.297,-987.973"/>
<text text-anchor="middle" x="1033.6" y="-1050.5" font-family="Helvetica,sans-Serif" font-size="10.00"> ~cbMes</text>
</g>
<!-- Node13&#45;&gt;Node8 -->
<g id="edge20" class="edge"><title>Node13&#45;&gt;Node8</title>
<path fill="none" stroke="#404040" d="M1058.44,-1088.19C1059.97,-1072.62 1060.39,-1052.97 1056.1,-1036 1028.82,-928.234 1002.73,-905.724 937.096,-816 840.673,-684.177 693.426,-561.742 604.406,-493.7"/>
<polygon fill="none" stroke="#404040" points="604.198,-493.542 597.001,-493.095 594.646,-486.28 601.843,-486.727 604.198,-493.542"/>
<text text-anchor="middle" x="1091.6" y="-936.5" font-family="Helvetica,sans-Serif" font-size="10.00"> &#45;cargoCmb</text>
<text text-anchor="middle" x="1091.6" y="-925.5" font-family="Helvetica,sans-Serif" font-size="10.00">&#45;sedeCmb</text>
<text text-anchor="middle" x="1091.6" y="-914.5" font-family="Helvetica,sans-Serif" font-size="10.00">&#45;departamentoCmb</text>
<text text-anchor="middle" x="1091.6" y="-903.5" font-family="Helvetica,sans-Serif" font-size="10.00">&#45;origenCmb</text>
<text text-anchor="middle" x="1091.6" y="-892.5" font-family="Helvetica,sans-Serif" font-size="10.00">&#45;claseCmb</text>
</g>
<!-- Node14 -->
<g id="node14" class="node"><title>Node14</title>
<polygon fill="white" stroke="#bfbfbf" points="677.096,-1088.5 677.096,-1145.5 721.096,-1145.5 721.096,-1088.5 677.096,-1088.5"/>
<text text-anchor="middle" x="699.096" y="-1133.5" font-family="Helvetica,sans-Serif" font-size="10.00">JLabel</text>
<polyline fill="none" stroke="#bfbfbf" points="677.096,-1126.5 721.096,-1126.5 "/>
<text text-anchor="middle" x="699.096" y="-1114.5" font-family="Helvetica,sans-Serif" font-size="10.00"> </text>
<polyline fill="none" stroke="#bfbfbf" points="677.096,-1107.5 721.096,-1107.5 "/>
<text text-anchor="middle" x="699.096" y="-1095.5" font-family="Helvetica,sans-Serif" font-size="10.00"> </text>
</g>
<!-- Node14&#45;&gt;Node10 -->
<g id="edge15" class="edge"><title>Node14&#45;&gt;Node10</title>
<path fill="none" stroke="#404040" d="M709.595,-1088.41C717.126,-1071.56 728.67,-1050.53 744.096,-1036 757.407,-1023.46 766.778,-1029.38 781.096,-1018 782.933,-1016.54 784.755,-1015.03 786.561,-1013.48"/>
<polygon fill="none" stroke="#404040" points="786.564,-1013.48 788.316,-1006.49 795.447,-1005.41 793.695,-1012.41 786.564,-1013.48"/>
<text text-anchor="middle" x="773.096" y="-1061.5" font-family="Helvetica,sans-Serif" font-size="10.00"> ~lblAo</text>
<text text-anchor="middle" x="773.096" y="-1050.5" font-family="Helvetica,sans-Serif" font-size="10.00">~lblMes</text>
<text text-anchor="middle" x="773.096" y="-1039.5" font-family="Helvetica,sans-Serif" font-size="10.00">~lblNewLabel</text>
</g>
<!-- Node14&#45;&gt;Node8 -->
<g id="edge21" class="edge"><title>Node14&#45;&gt;Node8</title>
<path fill="none" stroke="#404040" d="M698.349,-1088.47C696.068,-1012.21 688.215,-799.388 670.096,-732 654.329,-673.358 626.891,-612.31 600.311,-561.14"/>
<polygon fill="none" stroke="#404040" points="600.237,-560.999 593.905,-557.548 594.656,-550.376 600.988,-553.827 600.237,-560.999"/>
<text text-anchor="middle" x="739.096" y="-969.5" font-family="Helvetica,sans-Serif" font-size="10.00"> &#45;prueba_mesesLbl</text>
<text text-anchor="middle" x="739.096" y="-958.5" font-family="Helvetica,sans-Serif" font-size="10.00">&#45;preavisoLbl</text>
<text text-anchor="middle" x="739.096" y="-947.5" font-family="Helvetica,sans-Serif" font-size="10.00">&#45;lblSeguroMdico</text>
<text text-anchor="middle" x="739.096" y="-936.5" font-family="Helvetica,sans-Serif" font-size="10.00">&#45;lblSeguroDeVida</text>
<text text-anchor="middle" x="739.096" y="-925.5" font-family="Helvetica,sans-Serif" font-size="10.00">&#45;calusulaLbl</text>
<text text-anchor="middle" x="739.096" y="-914.5" font-family="Helvetica,sans-Serif" font-size="10.00">&#45;lblbrutosao</text>
<text text-anchor="middle" x="739.096" y="-903.5" font-family="Helvetica,sans-Serif" font-size="10.00">&#45;contratoLbl</text>
<text text-anchor="middle" x="739.096" y="-892.5" font-family="Helvetica,sans-Serif" font-size="10.00">&#45;periodoLbl</text>
<text text-anchor="middle" x="739.096" y="-881.5" font-family="Helvetica,sans-Serif" font-size="10.00">&#45;num_contratoLbl</text>
<text text-anchor="middle" x="739.096" y="-870.5" font-family="Helvetica,sans-Serif" font-size="10.00">&#45;preaviso_mesesLbl</text>
<text text-anchor="middle" x="739.096" y="-859.5" font-family="Helvetica,sans-Serif" font-size="10.00">...</text>
</g>
<!-- Node15 -->
<g id="node15" class="node"><title>Node15</title>
<polygon fill="white" stroke="#bfbfbf" points="747.596,-1088.5 747.596,-1145.5 838.596,-1145.5 838.596,-1088.5 747.596,-1088.5"/>
<text text-anchor="middle" x="793.096" y="-1133.5" font-family="Helvetica,sans-Serif" font-size="10.00">Vector&lt; JLabel &gt;</text>
<polyline fill="none" stroke="#bfbfbf" points="747.596,-1126.5 838.596,-1126.5 "/>
<text text-anchor="middle" x="793.096" y="-1114.5" font-family="Helvetica,sans-Serif" font-size="10.00"> </text>
<polyline fill="none" stroke="#bfbfbf" points="747.596,-1107.5 838.596,-1107.5 "/>
<text text-anchor="middle" x="793.096" y="-1095.5" font-family="Helvetica,sans-Serif" font-size="10.00"> </text>
</g>
<!-- Node15&#45;&gt;Node10 -->
<g id="edge17" class="edge"><title>Node15&#45;&gt;Node10</title>
<path fill="none" stroke="#404040" d="M800.825,-1088.44C805.306,-1072.95 811.212,-1053.3 817.096,-1036 817.91,-1033.61 818.741,-1031.19 819.588,-1028.76"/>
<polygon fill="none" stroke="#404040" points="819.646,-1028.59 817.873,-1021.61 823.643,-1017.28 825.416,-1024.27 819.646,-1028.59"/>
<text text-anchor="middle" x="844.096" y="-1056" font-family="Helvetica,sans-Serif" font-size="10.00"> ~vLabelLet</text>
<text text-anchor="middle" x="844.096" y="-1045" font-family="Helvetica,sans-Serif" font-size="10.00">~vLabelNum</text>
</g>
<!-- Node16 -->
<g id="node16" class="node"><title>Node16</title>
<polygon fill="white" stroke="#bfbfbf" points="342.596,-888.5 342.596,-945.5 403.596,-945.5 403.596,-888.5 342.596,-888.5"/>
<text text-anchor="middle" x="373.096" y="-933.5" font-family="Helvetica,sans-Serif" font-size="10.00">JTextField</text>
<polyline fill="none" stroke="#bfbfbf" points="342.596,-926.5 403.596,-926.5 "/>
<text text-anchor="middle" x="373.096" y="-914.5" font-family="Helvetica,sans-Serif" font-size="10.00"> </text>
<polyline fill="none" stroke="#bfbfbf" points="342.596,-907.5 403.596,-907.5 "/>
<text text-anchor="middle" x="373.096" y="-895.5" font-family="Helvetica,sans-Serif" font-size="10.00"> </text>
</g>
<!-- Node16&#45;&gt;Node8 -->
<g id="edge18" class="edge"><title>Node16&#45;&gt;Node8</title>
<path fill="none" stroke="#404040" d="M370.249,-888.259C367.781,-848.964 369.224,-776.891 406.096,-732 420.031,-715.035 437.403,-730.312 452.096,-714 452.603,-713.437 453.106,-712.872 453.606,-712.303"/>
<polygon fill="none" stroke="#404040" points="453.782,-712.09 454.517,-704.916 461.421,-702.835 460.687,-710.009 453.782,-712.09"/>
<text text-anchor="middle" x="432.096" y="-779" font-family="Helvetica,sans-Serif" font-size="10.00"> &#45;pruebaTxt</text>
<text text-anchor="middle" x="432.096" y="-768" font-family="Helvetica,sans-Serif" font-size="10.00">&#45;motivoTxt</text>
<text text-anchor="middle" x="432.096" y="-757" font-family="Helvetica,sans-Serif" font-size="10.00">&#45;salarioTxt</text>
<text text-anchor="middle" x="432.096" y="-746" font-family="Helvetica,sans-Serif" font-size="10.00">&#45;preavisoTxt</text>
</g>
<!-- Node17 -->
<g id="node17" class="node"><title>Node17</title>
<polygon fill="white" stroke="#bfbfbf" points="421.596,-888.5 421.596,-945.5 492.596,-945.5 492.596,-888.5 421.596,-888.5"/>
<text text-anchor="middle" x="457.096" y="-933.5" font-family="Helvetica,sans-Serif" font-size="10.00">ButtonGroup</text>
<polyline fill="none" stroke="#bfbfbf" points="421.596,-926.5 492.596,-926.5 "/>
<text text-anchor="middle" x="457.096" y="-914.5" font-family="Helvetica,sans-Serif" font-size="10.00"> </text>
<polyline fill="none" stroke="#bfbfbf" points="421.596,-907.5 492.596,-907.5 "/>
<text text-anchor="middle" x="457.096" y="-895.5" font-family="Helvetica,sans-Serif" font-size="10.00"> </text>
</g>
<!-- Node17&#45;&gt;Node8 -->
<g id="edge19" class="edge"><title>Node17&#45;&gt;Node8</title>
<path fill="none" stroke="#404040" d="M457.528,-888.452C458.372,-852.372 460.849,-787.209 468.096,-732 468.389,-729.773 468.688,-727.537 468.995,-725.293"/>
<polygon fill="none" stroke="#404040" points="469.02,-725.113 465.897,-718.613 470.697,-713.231 473.819,-719.731 469.02,-725.113"/>
<text text-anchor="middle" x="496.596" y="-768" font-family="Helvetica,sans-Serif" font-size="10.00"> &#45;checkgroup</text>
<text text-anchor="middle" x="496.596" y="-757" font-family="Helvetica,sans-Serif" font-size="10.00">&#45;buttonGroup</text>
</g>
<!-- Node18 -->
<g id="node18" class="node"><title>Node18</title>
<polygon fill="white" stroke="#bfbfbf" points="510.596,-888.5 510.596,-945.5 547.596,-945.5 547.596,-888.5 510.596,-888.5"/>
<text text-anchor="middle" x="529.096" y="-933.5" font-family="Helvetica,sans-Serif" font-size="10.00">JList</text>
<polyline fill="none" stroke="#bfbfbf" points="510.596,-926.5 547.596,-926.5 "/>
<text text-anchor="middle" x="529.096" y="-914.5" font-family="Helvetica,sans-Serif" font-size="10.00"> </text>
<polyline fill="none" stroke="#bfbfbf" points="510.596,-907.5 547.596,-907.5 "/>
<text text-anchor="middle" x="529.096" y="-895.5" font-family="Helvetica,sans-Serif" font-size="10.00"> </text>
</g>
<!-- Node18&#45;&gt;Node8 -->
<g id="edge22" class="edge"><title>Node18&#45;&gt;Node8</title>
<path fill="none" stroke="#404040" d="M529.038,-888.235C528.967,-854.072 528.837,-792.3 528.697,-725.241"/>
<polygon fill="none" stroke="#404040" points="528.697,-725.11 524.684,-719.118 528.672,-713.11 532.684,-719.101 528.697,-725.11"/>
<text text-anchor="middle" x="562.096" y="-762.5" font-family="Helvetica,sans-Serif" font-size="10.00"> +contratosList</text>
</g>
<!-- Node19 -->
<g id="node19" class="node"><title>Node19</title>
<polygon fill="white" stroke="#bfbfbf" points="580.096,-888.5 580.096,-945.5 654.096,-945.5 654.096,-888.5 580.096,-888.5"/>
<text text-anchor="middle" x="617.096" y="-933.5" font-family="Helvetica,sans-Serif" font-size="10.00">JRadioButton</text>
<polyline fill="none" stroke="#bfbfbf" points="580.096,-926.5 654.096,-926.5 "/>
<text text-anchor="middle" x="617.096" y="-914.5" font-family="Helvetica,sans-Serif" font-size="10.00"> </text>
<polyline fill="none" stroke="#bfbfbf" points="580.096,-907.5 654.096,-907.5 "/>
<text text-anchor="middle" x="617.096" y="-895.5" font-family="Helvetica,sans-Serif" font-size="10.00"> </text>
</g>
<!-- Node19&#45;&gt;Node8 -->
<g id="edge24" class="edge"><title>Node19&#45;&gt;Node8</title>
<path fill="none" stroke="#404040" d="M614.712,-888.436C611.381,-852.339 604.651,-787.158 595.096,-732 594.711,-729.776 594.319,-727.543 593.922,-725.302"/>
<polygon fill="none" stroke="#404040" points="593.879,-725.062 588.876,-719.869 591.746,-713.253 596.749,-718.447 593.879,-725.062"/>
<text text-anchor="middle" x="635.596" y="-768" font-family="Helvetica,sans-Serif" font-size="10.00"> &#45;activoRdbtn</text>
<text text-anchor="middle" x="635.596" y="-757" font-family="Helvetica,sans-Serif" font-size="10.00">&#45;inactivoRdbtn</text>
</g>
</g>
</svg>
