<?xml version="1.0" encoding="UTF-8" standalone="no"?>
<!DOCTYPE svg PUBLIC "-//W3C//DTD SVG 1.1//EN"
 "http://www.w3.org/Graphics/SVG/1.1/DTD/svg11.dtd">
<!-- Generated by graphviz version 2.30.1 (20130214.1330)
 -->
<!-- Title: gestorempleados.interficie.StartClient Pages: 1 -->
<svg width="406pt" height="294pt"
 viewBox="0.00 0.00 406.00 294.00" xmlns="http://www.w3.org/2000/svg" xmlns:xlink="http://www.w3.org/1999/xlink">
<g id="graph0" class="graph" transform="scale(1 1) rotate(0) translate(4 290)">
<title>gestorempleados.interficie.StartClient</title>
<polygon fill="white" stroke="white" points="-4,5 -4,-290 403,-290 403,5 -4,5"/>
<!-- Node1 -->
<g id="node1" class="node"><title>Node1</title>
<polygon fill="#bfbfbf" stroke="black" points="149.5,-1 149.5,-135 282.5,-135 282.5,-1 149.5,-1"/>
<text text-anchor="start" x="157.5" y="-123" font-family="Helvetica,sans-Serif" font-size="10.00">gestorempleados.interficie.</text>
<text text-anchor="middle" x="216" y="-112" font-family="Helvetica,sans-Serif" font-size="10.00">StartClient</text>
<polyline fill="none" stroke="black" points="149.5,-105 282.5,-105 "/>
<text text-anchor="start" x="157.5" y="-93" font-family="Helvetica,sans-Serif" font-size="10.00">&#45; validado</text>
<text text-anchor="start" x="157.5" y="-82" font-family="Helvetica,sans-Serif" font-size="10.00">&#45; name</text>
<text text-anchor="start" x="157.5" y="-71" font-family="Helvetica,sans-Serif" font-size="10.00">&#45; pass</text>
<polyline fill="none" stroke="black" points="149.5,-64 282.5,-64 "/>
<text text-anchor="start" x="157.5" y="-52" font-family="Helvetica,sans-Serif" font-size="10.00">+ StartClient()</text>
<text text-anchor="start" x="157.5" y="-41" font-family="Helvetica,sans-Serif" font-size="10.00">+ main()</text>
<text text-anchor="start" x="157.5" y="-30" font-family="Helvetica,sans-Serif" font-size="10.00"># confirmaUsuario()</text>
<text text-anchor="start" x="157.5" y="-19" font-family="Helvetica,sans-Serif" font-size="10.00">&#45; iniciarPanel()</text>
<text text-anchor="start" x="157.5" y="-8" font-family="Helvetica,sans-Serif" font-size="10.00">&#45; crearMenus()</text>
</g>
<!-- Node2 -->
<g id="node2" class="node"><title>Node2</title>
<polygon fill="white" stroke="#bfbfbf" points="-0.5,-228.5 -0.5,-285.5 48.5,-285.5 48.5,-228.5 -0.5,-228.5"/>
<text text-anchor="middle" x="24" y="-273.5" font-family="Helvetica,sans-Serif" font-size="10.00">JFrame</text>
<polyline fill="none" stroke="#bfbfbf" points="-0.5,-266.5 48.5,-266.5 "/>
<text text-anchor="middle" x="24" y="-254.5" font-family="Helvetica,sans-Serif" font-size="10.00"> </text>
<polyline fill="none" stroke="#bfbfbf" points="-0.5,-247.5 48.5,-247.5 "/>
<text text-anchor="middle" x="24" y="-235.5" font-family="Helvetica,sans-Serif" font-size="10.00"> </text>
</g>
<!-- Node2&#45;&gt;Node1 -->
<g id="edge1" class="edge"><title>Node2&#45;&gt;Node1</title>
<path fill="none" stroke="midnightblue" d="M55.8842,-224.946C81.2557,-200.235 117.633,-164.805 149.305,-133.959"/>
<polygon fill="none" stroke="midnightblue" points="53.4293,-222.451 48.7076,-231.936 58.3134,-227.466 53.4293,-222.451"/>
</g>
<!-- Node3 -->
<g id="node3" class="node"><title>Node3</title>
<polygon fill="white" stroke="#bfbfbf" points="66.5,-228.5 66.5,-285.5 167.5,-285.5 167.5,-228.5 66.5,-228.5"/>
<text text-anchor="middle" x="117" y="-273.5" font-family="Helvetica,sans-Serif" font-size="10.00">GridBagConstraints</text>
<polyline fill="none" stroke="#bfbfbf" points="66.5,-266.5 167.5,-266.5 "/>
<text text-anchor="middle" x="117" y="-254.5" font-family="Helvetica,sans-Serif" font-size="10.00"> </text>
<polyline fill="none" stroke="#bfbfbf" points="66.5,-247.5 167.5,-247.5 "/>
<text text-anchor="middle" x="117" y="-235.5" font-family="Helvetica,sans-Serif" font-size="10.00"> </text>
</g>
<!-- Node3&#45;&gt;Node1 -->
<g id="edge2" class="edge"><title>Node3&#45;&gt;Node1</title>
<path fill="none" stroke="#404040" d="M128.712,-228.301C137.742,-207.54 150.868,-178.596 164,-154 165.426,-151.329 166.9,-148.627 168.408,-145.909"/>
<polygon fill="none" stroke="#404040" points="168.456,-145.826 167.934,-138.634 174.372,-135.386 174.894,-142.578 168.456,-145.826"/>
<text text-anchor="middle" x="188" y="-179.5" font-family="Helvetica,sans-Serif" font-size="10.00"> &#45;gridConst</text>
</g>
<!-- Node4 -->
<g id="node4" class="node"><title>Node4</title>
<polygon fill="white" stroke="#bfbfbf" points="185.5,-228.5 185.5,-285.5 246.5,-285.5 246.5,-228.5 185.5,-228.5"/>
<text text-anchor="middle" x="216" y="-273.5" font-family="Helvetica,sans-Serif" font-size="10.00">ImageIcon</text>
<polyline fill="none" stroke="#bfbfbf" points="185.5,-266.5 246.5,-266.5 "/>
<text text-anchor="middle" x="216" y="-254.5" font-family="Helvetica,sans-Serif" font-size="10.00"> </text>
<polyline fill="none" stroke="#bfbfbf" points="185.5,-247.5 246.5,-247.5 "/>
<text text-anchor="middle" x="216" y="-235.5" font-family="Helvetica,sans-Serif" font-size="10.00"> </text>
</g>
<!-- Node4&#45;&gt;Node1 -->
<g id="edge3" class="edge"><title>Node4&#45;&gt;Node1</title>
<path fill="none" stroke="#404040" d="M216,-228.408C216,-206.983 216,-176.166 216,-147.328"/>
<polygon fill="none" stroke="#404040" points="216,-147.122 212,-141.122 216,-135.122 220,-141.122 216,-147.122"/>
<text text-anchor="middle" x="228.5" y="-179.5" font-family="Helvetica,sans-Serif" font-size="10.00"> &#45;logo</text>
</g>
<!-- Node5 -->
<g id="node5" class="node"><title>Node5</title>
<polygon fill="white" stroke="#bfbfbf" points="265,-228.5 265,-285.5 309,-285.5 309,-228.5 265,-228.5"/>
<text text-anchor="middle" x="287" y="-273.5" font-family="Helvetica,sans-Serif" font-size="10.00">JLabel</text>
<polyline fill="none" stroke="#bfbfbf" points="265,-266.5 309,-266.5 "/>
<text text-anchor="middle" x="287" y="-254.5" font-family="Helvetica,sans-Serif" font-size="10.00"> </text>
<polyline fill="none" stroke="#bfbfbf" points="265,-247.5 309,-247.5 "/>
<text text-anchor="middle" x="287" y="-235.5" font-family="Helvetica,sans-Serif" font-size="10.00"> </text>
</g>
<!-- Node5&#45;&gt;Node1 -->
<g id="edge4" class="edge"><title>Node5&#45;&gt;Node1</title>
<path fill="none" stroke="#404040" d="M276.524,-228.408C268.317,-206.792 256.48,-175.615 245.446,-146.556"/>
<polygon fill="none" stroke="#404040" points="245.365,-146.341 239.496,-142.152 241.105,-135.122 246.975,-139.312 245.365,-146.341"/>
<text text-anchor="middle" x="285.5" y="-179.5" font-family="Helvetica,sans-Serif" font-size="10.00"> &#45;logoLb</text>
</g>
<!-- Node6 -->
<g id="node6" class="node"><title>Node6</title>
<polygon fill="white" stroke="#bfbfbf" points="327,-228.5 327,-285.5 373,-285.5 373,-228.5 327,-228.5"/>
<text text-anchor="middle" x="350" y="-273.5" font-family="Helvetica,sans-Serif" font-size="10.00">JPanel</text>
<polyline fill="none" stroke="#bfbfbf" points="327,-266.5 373,-266.5 "/>
<text text-anchor="middle" x="350" y="-254.5" font-family="Helvetica,sans-Serif" font-size="10.00"> </text>
<polyline fill="none" stroke="#bfbfbf" points="327,-247.5 373,-247.5 "/>
<text text-anchor="middle" x="350" y="-235.5" font-family="Helvetica,sans-Serif" font-size="10.00"> </text>
</g>
<!-- Node6&#45;&gt;Node1 -->
<g id="edge5" class="edge"><title>Node6&#45;&gt;Node1</title>
<path fill="none" stroke="#404040" d="M341.898,-228.432C334.784,-206.95 323.055,-177.01 307,-154 302.262,-147.21 296.906,-140.55 291.221,-134.132"/>
<polygon fill="none" stroke="#404040" points="290.843,-133.723 283.832,-132.036 282.692,-124.915 289.703,-126.602 290.843,-133.723"/>
<text text-anchor="middle" x="367" y="-201.5" font-family="Helvetica,sans-Serif" font-size="10.00"> &#45;contentPane</text>
<text text-anchor="middle" x="367" y="-190.5" font-family="Helvetica,sans-Serif" font-size="10.00">&#45;principalPane</text>
<text text-anchor="middle" x="367" y="-179.5" font-family="Helvetica,sans-Serif" font-size="10.00">&#45;loginPanel</text>
<text text-anchor="middle" x="367" y="-168.5" font-family="Helvetica,sans-Serif" font-size="10.00">&#45;menuPanel</text>
<text text-anchor="middle" x="367" y="-157.5" font-family="Helvetica,sans-Serif" font-size="10.00">&#45;cabecera</text>
</g>
</g>
</svg>
