<?xml version="1.0" encoding="UTF-8" standalone="no"?>
<!DOCTYPE svg PUBLIC "-//W3C//DTD SVG 1.1//EN"
 "http://www.w3.org/Graphics/SVG/1.1/DTD/svg11.dtd">
<!-- Generated by graphviz version 2.30.1 (20130214.1330)
 -->
<!-- Title: gestorempleados.interficie.Panel_Cabecera Pages: 1 -->
<svg width="140pt" height="216pt"
 viewBox="0.00 0.00 140.00 216.00" xmlns="http://www.w3.org/2000/svg" xmlns:xlink="http://www.w3.org/1999/xlink">
<g id="graph0" class="graph" transform="scale(1 1) rotate(0) translate(4 212)">
<title>gestorempleados.interficie.Panel_Cabecera</title>
<polygon fill="white" stroke="white" points="-4,5 -4,-212 137,-212 137,5 -4,5"/>
<!-- Node1 -->
<g id="node1" class="node"><title>Node1</title>
<polygon fill="#bfbfbf" stroke="black" points="-0.5,-1 -0.5,-113 132.5,-113 132.5,-1 -0.5,-1"/>
<text text-anchor="start" x="7.5" y="-101" font-family="Helvetica,sans-Serif" font-size="10.00">gestorempleados.interficie.</text>
<text text-anchor="middle" x="66" y="-90" font-family="Helvetica,sans-Serif" font-size="10.00">Panel_Cabecera</text>
<polyline fill="none" stroke="black" points="-0.5,-83 132.5,-83 "/>
<text text-anchor="start" x="7.5" y="-71" font-family="Helvetica,sans-Serif" font-size="10.00">&#45; lblNewLabel</text>
<text text-anchor="start" x="7.5" y="-60" font-family="Helvetica,sans-Serif" font-size="10.00">&#45; lblNewLabel_1</text>
<text text-anchor="start" x="7.5" y="-49" font-family="Helvetica,sans-Serif" font-size="10.00">&#45; lblNewLabel_2</text>
<text text-anchor="start" x="7.5" y="-38" font-family="Helvetica,sans-Serif" font-size="10.00">&#45; logoLbl</text>
<text text-anchor="start" x="7.5" y="-27" font-family="Helvetica,sans-Serif" font-size="10.00">&#45; logo</text>
<polyline fill="none" stroke="black" points="-0.5,-20 132.5,-20 "/>
<text text-anchor="start" x="7.5" y="-8" font-family="Helvetica,sans-Serif" font-size="10.00">+ Panel_Cabecera()</text>
</g>
<!-- Node2 -->
<g id="node2" class="node"><title>Node2</title>
<polygon fill="white" stroke="#bfbfbf" points="43,-150.5 43,-207.5 89,-207.5 89,-150.5 43,-150.5"/>
<text text-anchor="middle" x="66" y="-195.5" font-family="Helvetica,sans-Serif" font-size="10.00">JPanel</text>
<polyline fill="none" stroke="#bfbfbf" points="43,-188.5 89,-188.5 "/>
<text text-anchor="middle" x="66" y="-176.5" font-family="Helvetica,sans-Serif" font-size="10.00"> </text>
<polyline fill="none" stroke="#bfbfbf" points="43,-169.5 89,-169.5 "/>
<text text-anchor="middle" x="66" y="-157.5" font-family="Helvetica,sans-Serif" font-size="10.00"> </text>
</g>
<!-- Node2&#45;&gt;Node1 -->
<g id="edge1" class="edge"><title>Node2&#45;&gt;Node1</title>
<path fill="none" stroke="midnightblue" d="M66,-140.398C66,-131.802 66,-122.49 66,-113.324"/>
<polygon fill="none" stroke="midnightblue" points="62.5001,-140.47 66,-150.47 69.5001,-140.47 62.5001,-140.47"/>
</g>
</g>
</svg>
