<?xml version="1.0" encoding="UTF-8" standalone="no"?>
<!DOCTYPE svg PUBLIC "-//W3C//DTD SVG 1.1//EN"
 "http://www.w3.org/Graphics/SVG/1.1/DTD/svg11.dtd">
<!-- Generated by graphviz version 2.30.1 (20130214.1330)
 -->
<!-- Title: gestorempleados.interficie.Panel_Curriculo Pages: 1 -->
<svg width="412pt" height="304pt"
 viewBox="0.00 0.00 412.00 304.00" xmlns="http://www.w3.org/2000/svg" xmlns:xlink="http://www.w3.org/1999/xlink">
<g id="graph0" class="graph" transform="scale(1 1) rotate(0) translate(4 300)">
<title>gestorempleados.interficie.Panel_Curriculo</title>
<polygon fill="white" stroke="white" points="-4,5 -4,-300 409,-300 409,5 -4,5"/>
<!-- Node1 -->
<g id="node1" class="node"><title>Node1</title>
<polygon fill="#bfbfbf" stroke="black" points="113.5,-0.5 113.5,-167.5 246.5,-167.5 246.5,-0.5 113.5,-0.5"/>
<text text-anchor="start" x="121.5" y="-155.5" font-family="Helvetica,sans-Serif" font-size="10.00">gestorempleados.interficie.</text>
<text text-anchor="middle" x="180" y="-144.5" font-family="Helvetica,sans-Serif" font-size="10.00">Panel_Curriculo</text>
<polyline fill="none" stroke="black" points="113.5,-137.5 246.5,-137.5 "/>
<text text-anchor="middle" x="180" y="-125.5" font-family="Helvetica,sans-Serif" font-size="10.00"> </text>
<polyline fill="none" stroke="black" points="113.5,-118.5 246.5,-118.5 "/>
<text text-anchor="start" x="121.5" y="-106.5" font-family="Helvetica,sans-Serif" font-size="10.00">+ Panel_Curriculo()</text>
<text text-anchor="start" x="121.5" y="-95.5" font-family="Helvetica,sans-Serif" font-size="10.00">+ getTitulacion()</text>
<text text-anchor="start" x="121.5" y="-84.5" font-family="Helvetica,sans-Serif" font-size="10.00">+ setTitulacion()</text>
<text text-anchor="start" x="121.5" y="-73.5" font-family="Helvetica,sans-Serif" font-size="10.00">+ getIdiomas()</text>
<text text-anchor="start" x="121.5" y="-62.5" font-family="Helvetica,sans-Serif" font-size="10.00">+ setIdiomas()</text>
<text text-anchor="start" x="121.5" y="-51.5" font-family="Helvetica,sans-Serif" font-size="10.00">+ getExperiencia()</text>
<text text-anchor="start" x="121.5" y="-40.5" font-family="Helvetica,sans-Serif" font-size="10.00">+ setExperiencia()</text>
<text text-anchor="start" x="121.5" y="-29.5" font-family="Helvetica,sans-Serif" font-size="10.00">+ changedUpdate()</text>
<text text-anchor="start" x="121.5" y="-18.5" font-family="Helvetica,sans-Serif" font-size="10.00">+ insertUpdate()</text>
<text text-anchor="start" x="121.5" y="-7.5" font-family="Helvetica,sans-Serif" font-size="10.00">+ removeUpdate()</text>
</g>
<!-- Node2 -->
<g id="node2" class="node"><title>Node2</title>
<polygon fill="white" stroke="#bfbfbf" points="0,-238.5 0,-295.5 46,-295.5 46,-238.5 0,-238.5"/>
<text text-anchor="middle" x="23" y="-283.5" font-family="Helvetica,sans-Serif" font-size="10.00">JPanel</text>
<polyline fill="none" stroke="#bfbfbf" points="0,-276.5 46,-276.5 "/>
<text text-anchor="middle" x="23" y="-264.5" font-family="Helvetica,sans-Serif" font-size="10.00"> </text>
<polyline fill="none" stroke="#bfbfbf" points="0,-257.5 46,-257.5 "/>
<text text-anchor="middle" x="23" y="-245.5" font-family="Helvetica,sans-Serif" font-size="10.00"> </text>
</g>
<!-- Node2&#45;&gt;Node1 -->
<g id="edge1" class="edge"><title>Node2&#45;&gt;Node1</title>
<path fill="none" stroke="midnightblue" d="M23.6178,-228.231C25.3284,-214.097 29.1083,-198.461 37,-186 55.3762,-156.984 85.3917,-133.905 113.191,-117.175"/>
<polygon fill="none" stroke="midnightblue" points="20.1322,-227.915 22.7086,-238.192 27.1032,-228.551 20.1322,-227.915"/>
</g>
<!-- Node2&#45;&gt;Node1 -->
<g id="edge6" class="edge"><title>Node2&#45;&gt;Node1</title>
<path fill="none" stroke="#404040" d="M29.4051,-238.271C34.0982,-221.981 41.6571,-201.594 53,-186 66.8994,-166.891 85.3247,-149.461 103.818,-134.662"/>
<polygon fill="none" stroke="#404040" points="103.992,-134.526 106.279,-127.687 113.471,-127.167 111.185,-134.006 103.992,-134.526"/>
<text text-anchor="middle" x="93.5" y="-211.5" font-family="Helvetica,sans-Serif" font-size="10.00"> &#45;experienciaPanel</text>
<text text-anchor="middle" x="93.5" y="-200.5" font-family="Helvetica,sans-Serif" font-size="10.00">&#45;titulacionPanel</text>
<text text-anchor="middle" x="93.5" y="-189.5" font-family="Helvetica,sans-Serif" font-size="10.00">&#45;idiomasPanel</text>
</g>
<!-- Node3 -->
<g id="node3" class="node"><title>Node3</title>
<polygon fill="white" stroke="#bfbfbf" points="64.5,-238.5 64.5,-295.5 159.5,-295.5 159.5,-238.5 64.5,-238.5"/>
<text text-anchor="middle" x="112" y="-283.5" font-family="Helvetica,sans-Serif" font-size="10.00">DocumentListener</text>
<polyline fill="none" stroke="#bfbfbf" points="64.5,-276.5 159.5,-276.5 "/>
<text text-anchor="middle" x="112" y="-264.5" font-family="Helvetica,sans-Serif" font-size="10.00"> </text>
<polyline fill="none" stroke="#bfbfbf" points="64.5,-257.5 159.5,-257.5 "/>
<text text-anchor="middle" x="112" y="-245.5" font-family="Helvetica,sans-Serif" font-size="10.00"> </text>
</g>
<!-- Node3&#45;&gt;Node1 -->
<g id="edge2" class="edge"><title>Node3&#45;&gt;Node1</title>
<path fill="none" stroke="midnightblue" d="M133.699,-229.189C135.234,-226.12 136.69,-223.031 138,-220 145.159,-203.44 151.669,-185.261 157.313,-167.757"/>
<polygon fill="none" stroke="midnightblue" points="130.483,-227.785 128.925,-238.265 136.678,-231.044 130.483,-227.785"/>
</g>
<!-- Node4 -->
<g id="node4" class="node"><title>Node4</title>
<polygon fill="white" stroke="#bfbfbf" points="178,-238.5 178,-295.5 238,-295.5 238,-238.5 178,-238.5"/>
<text text-anchor="middle" x="208" y="-283.5" font-family="Helvetica,sans-Serif" font-size="10.00">JTextArea</text>
<polyline fill="none" stroke="#bfbfbf" points="178,-276.5 238,-276.5 "/>
<text text-anchor="middle" x="208" y="-264.5" font-family="Helvetica,sans-Serif" font-size="10.00"> </text>
<polyline fill="none" stroke="#bfbfbf" points="178,-257.5 238,-257.5 "/>
<text text-anchor="middle" x="208" y="-245.5" font-family="Helvetica,sans-Serif" font-size="10.00"> </text>
</g>
<!-- Node4&#45;&gt;Node1 -->
<g id="edge3" class="edge"><title>Node4&#45;&gt;Node1</title>
<path fill="none" stroke="#404040" d="M203.686,-238.115C201.214,-222.135 197.952,-201.044 194.641,-179.644"/>
<polygon fill="none" stroke="#404040" points="194.636,-179.613 189.766,-174.295 192.802,-167.754 197.672,-173.072 194.636,-179.613"/>
<text text-anchor="middle" x="222.5" y="-200.5" font-family="Helvetica,sans-Serif" font-size="10.00"> &#45;textArea</text>
</g>
<!-- Node5 -->
<g id="node5" class="node"><title>Node5</title>
<polygon fill="white" stroke="#bfbfbf" points="256.5,-238.5 256.5,-295.5 317.5,-295.5 317.5,-238.5 256.5,-238.5"/>
<text text-anchor="middle" x="287" y="-283.5" font-family="Helvetica,sans-Serif" font-size="10.00">JTextField</text>
<polyline fill="none" stroke="#bfbfbf" points="256.5,-276.5 317.5,-276.5 "/>
<text text-anchor="middle" x="287" y="-264.5" font-family="Helvetica,sans-Serif" font-size="10.00"> </text>
<polyline fill="none" stroke="#bfbfbf" points="256.5,-257.5 317.5,-257.5 "/>
<text text-anchor="middle" x="287" y="-245.5" font-family="Helvetica,sans-Serif" font-size="10.00"> </text>
</g>
<!-- Node5&#45;&gt;Node1 -->
<g id="edge4" class="edge"><title>Node5&#45;&gt;Node1</title>
<path fill="none" stroke="#404040" d="M274.739,-238.481C267.478,-222.821 257.803,-202.999 248,-186 246.475,-183.356 244.907,-180.689 243.303,-178.011"/>
<polygon fill="none" stroke="#404040" points="243.225,-177.882 236.683,-174.847 236.969,-167.642 243.51,-170.676 243.225,-177.882"/>
<text text-anchor="middle" x="295.5" y="-200.5" font-family="Helvetica,sans-Serif" font-size="10.00"> &#45;titulacionTxt</text>
</g>
<!-- Node6 -->
<g id="node6" class="node"><title>Node6</title>
<polygon fill="white" stroke="#bfbfbf" points="343.5,-238.5 343.5,-295.5 380.5,-295.5 380.5,-238.5 343.5,-238.5"/>
<text text-anchor="middle" x="362" y="-283.5" font-family="Helvetica,sans-Serif" font-size="10.00">JList</text>
<polyline fill="none" stroke="#bfbfbf" points="343.5,-276.5 380.5,-276.5 "/>
<text text-anchor="middle" x="362" y="-264.5" font-family="Helvetica,sans-Serif" font-size="10.00"> </text>
<polyline fill="none" stroke="#bfbfbf" points="343.5,-257.5 380.5,-257.5 "/>
<text text-anchor="middle" x="362" y="-245.5" font-family="Helvetica,sans-Serif" font-size="10.00"> </text>
</g>
<!-- Node6&#45;&gt;Node1 -->
<g id="edge5" class="edge"><title>Node6&#45;&gt;Node1</title>
<path fill="none" stroke="#404040" d="M354.966,-238.324C349.774,-221.855 341.424,-201.265 329,-186 309.408,-161.928 282.591,-141.332 257.105,-125.139"/>
<polygon fill="none" stroke="#404040" points="256.881,-125 249.674,-125.253 246.669,-118.698 253.876,-118.445 256.881,-125"/>
<text text-anchor="middle" x="376" y="-200.5" font-family="Helvetica,sans-Serif" font-size="10.00"> &#45;idiomasList</text>
</g>
</g>
</svg>
