<?xml version="1.0" encoding="UTF-8" standalone="no"?>
<!DOCTYPE svg PUBLIC "-//W3C//DTD SVG 1.1//EN"
 "http://www.w3.org/Graphics/SVG/1.1/DTD/svg11.dtd">
<!-- Generated by graphviz version 2.30.1 (20130214.1330)
 -->
<!-- Title: gestorempleados.interficie.Panel_Contrato.getFecha_fin Pages: 1 -->
<svg width="552pt" height="185pt"
 viewBox="0.00 0.00 552.00 185.00" xmlns="http://www.w3.org/2000/svg" xmlns:xlink="http://www.w3.org/1999/xlink">
<g id="graph0" class="graph" transform="scale(1 1) rotate(0) translate(4 181)">
<title>gestorempleados.interficie.Panel_Contrato.getFecha_fin</title>
<polygon fill="white" stroke="white" points="-4,5 -4,-181 549,-181 549,5 -4,5"/>
<!-- Node1 -->
<g id="node1" class="node"><title>Node1</title>
<polygon fill="#bfbfbf" stroke="black" points="0,-97 0,-127 142,-127 142,-97 0,-97"/>
<text text-anchor="start" x="8" y="-115" font-family="Helvetica,sans-Serif" font-size="10.00">gestorempleados.interficie.</text>
<text text-anchor="middle" x="71" y="-104" font-family="Helvetica,sans-Serif" font-size="10.00">Panel_Contrato.getFecha_fin</text>
</g>
<!-- Node2 -->
<g id="node2" class="node"><title>Node2</title>
<g id="a_node2"><a xlink:href="classgestorempleados_1_1control_1_1_negocio_cliente.xhtml#ac8ccee3f2bb015ca54c4a469d4b6b249" target="_top" xlink:title="gestorempleados.control.\lNegocioCliente.setEmpleado">
<polygon fill="white" stroke="black" points="196,-134 196,-164 338,-164 338,-134 196,-134"/>
<text text-anchor="start" x="204" y="-152" font-family="Helvetica,sans-Serif" font-size="10.00">gestorempleados.control.</text>
<text text-anchor="middle" x="267" y="-141" font-family="Helvetica,sans-Serif" font-size="10.00">NegocioCliente.setEmpleado</text>
</a>
</g>
</g>
<!-- Node1&#45;&gt;Node2 -->
<g id="edge1" class="edge"><title>Node1&#45;&gt;Node2</title>
<path fill="none" stroke="midnightblue" d="M151.985,-127.255C166.496,-130.022 181.532,-132.89 195.739,-135.6"/>
<polygon fill="midnightblue" stroke="midnightblue" points="152.517,-123.793 142.038,-125.358 151.206,-130.669 152.517,-123.793"/>
</g>
<!-- Node4 -->
<g id="node4" class="node"><title>Node4</title>
<g id="a_node4"><a xlink:href="classgestorempleados_1_1control_1_1_negocio_cliente.xhtml#a9636f9f7cd80e0eb68a18113fd3dd8ae" target="_top" xlink:title="gestorempleados.control.\lNegocioCliente.modifDatosEmpleado">
<polygon fill="white" stroke="black" points="178.5,-61 178.5,-91 355.5,-91 355.5,-61 178.5,-61"/>
<text text-anchor="start" x="186.5" y="-79" font-family="Helvetica,sans-Serif" font-size="10.00">gestorempleados.control.</text>
<text text-anchor="middle" x="267" y="-68" font-family="Helvetica,sans-Serif" font-size="10.00">NegocioCliente.modifDatosEmpleado</text>
</a>
</g>
</g>
<!-- Node1&#45;&gt;Node4 -->
<g id="edge3" class="edge"><title>Node1&#45;&gt;Node4</title>
<path fill="none" stroke="midnightblue" d="M151.922,-97.1691C162.793,-95.1519 173.959,-93.0798 184.851,-91.0587"/>
<polygon fill="midnightblue" stroke="midnightblue" points="151.232,-93.7373 142.038,-99.0032 152.509,-100.62 151.232,-93.7373"/>
</g>
<!-- Node3 -->
<g id="node3" class="node"><title>Node3</title>
<g id="a_node3"><a xlink:href="classplugins_1_1_panel___alta.xhtml#a804926b94fa2f64e79032ded83f6b1e6" target="_top" xlink:title="plugins.Panel_Alta.crear\lPanel">
<polygon fill="white" stroke="black" points="407,-147 407,-177 529,-177 529,-147 407,-147"/>
<text text-anchor="start" x="415" y="-165" font-family="Helvetica,sans-Serif" font-size="10.00">plugins.Panel_Alta.crear</text>
<text text-anchor="middle" x="468" y="-154" font-family="Helvetica,sans-Serif" font-size="10.00">Panel</text>
</a>
</g>
</g>
<!-- Node2&#45;&gt;Node3 -->
<g id="edge2" class="edge"><title>Node2&#45;&gt;Node3</title>
<path fill="none" stroke="midnightblue" d="M348.253,-154.243C367.765,-155.517 388.304,-156.859 406.711,-158.062"/>
<polygon fill="midnightblue" stroke="midnightblue" points="348.367,-150.743 338.16,-153.583 347.91,-157.728 348.367,-150.743"/>
</g>
<!-- Node5 -->
<g id="node5" class="node"><title>Node5</title>
<g id="a_node5"><a xlink:href="classplugins_1_1_panel___consultas.xhtml#a4072616654f5b0d96c9ba7213b140d36" target="_top" xlink:title="plugins.Panel_Consultas.editar\lDatosEmpleado">
<polygon fill="white" stroke="black" points="392.5,-98 392.5,-128 543.5,-128 543.5,-98 392.5,-98"/>
<text text-anchor="start" x="400.5" y="-116" font-family="Helvetica,sans-Serif" font-size="10.00">plugins.Panel_Consultas.editar</text>
<text text-anchor="middle" x="468" y="-105" font-family="Helvetica,sans-Serif" font-size="10.00">DatosEmpleado</text>
</a>
</g>
</g>
<!-- Node4&#45;&gt;Node5 -->
<g id="edge4" class="edge"><title>Node4&#45;&gt;Node5</title>
<path fill="none" stroke="midnightblue" d="M359.075,-92.9336C370.171,-94.9966 381.407,-97.0858 392.227,-99.0975"/>
<polygon fill="midnightblue" stroke="midnightblue" points="359.412,-89.4363 348.941,-91.0493 358.133,-96.3184 359.412,-89.4363"/>
</g>
<!-- Node6 -->
<g id="node6" class="node"><title>Node6</title>
<g id="a_node6"><a xlink:href="classplugins_1_1_panel___consultas.xhtml#aef9cb36e8db78e3bd75c3e4acf0bc9e4" target="_top" xlink:title="plugins.Panel_Consultas.editar\lCVEmpleado">
<polygon fill="white" stroke="black" points="392.5,-49 392.5,-79 543.5,-79 543.5,-49 392.5,-49"/>
<text text-anchor="start" x="400.5" y="-67" font-family="Helvetica,sans-Serif" font-size="10.00">plugins.Panel_Consultas.editar</text>
<text text-anchor="middle" x="468" y="-56" font-family="Helvetica,sans-Serif" font-size="10.00">CVEmpleado</text>
</a>
</g>
</g>
<!-- Node4&#45;&gt;Node6 -->
<g id="edge5" class="edge"><title>Node4&#45;&gt;Node6</title>
<path fill="none" stroke="midnightblue" d="M365.707,-70.1081C374.704,-69.5656 383.72,-69.0219 392.461,-68.4948"/>
<polygon fill="midnightblue" stroke="midnightblue" points="365.345,-66.6235 355.574,-70.7192 365.766,-73.6108 365.345,-66.6235"/>
</g>
<!-- Node7 -->
<g id="node7" class="node"><title>Node7</title>
<g id="a_node7"><a xlink:href="classplugins_1_1_panel___consultas.xhtml#ad1596ee5ed80b3214b8374f3f0a97ef6" target="_top" xlink:title="plugins.Panel_Consultas.editar\lContratosEmpleado">
<polygon fill="white" stroke="black" points="392.5,-0 392.5,-30 543.5,-30 543.5,-0 392.5,-0"/>
<text text-anchor="start" x="400.5" y="-18" font-family="Helvetica,sans-Serif" font-size="10.00">plugins.Panel_Consultas.editar</text>
<text text-anchor="middle" x="468" y="-7" font-family="Helvetica,sans-Serif" font-size="10.00">ContratosEmpleado</text>
</a>
</g>
</g>
<!-- Node4&#45;&gt;Node7 -->
<g id="edge6" class="edge"><title>Node4&#45;&gt;Node7</title>
<path fill="none" stroke="midnightblue" d="M326.551,-58.0523C355.594,-49.1496 390.275,-38.5186 417.908,-30.0482"/>
<polygon fill="midnightblue" stroke="midnightblue" points="325.471,-54.7225 316.936,-60.9996 327.522,-61.4151 325.471,-54.7225"/>
</g>
</g>
</svg>
