<?xml version="1.0" encoding="UTF-8" standalone="no"?>
<!DOCTYPE svg PUBLIC "-//W3C//DTD SVG 1.1//EN"
 "http://www.w3.org/Graphics/SVG/1.1/DTD/svg11.dtd">
<!-- Generated by graphviz version 2.30.1 (20130214.1330)
 -->
<!-- Title: gestorempleados.interficie.ExcelExporter.fillData Pages: 1 -->
<svg width="306pt" height="38pt"
 viewBox="0.00 0.00 306.00 38.00" xmlns="http://www.w3.org/2000/svg" xmlns:xlink="http://www.w3.org/1999/xlink">
<g id="graph0" class="graph" transform="scale(1 1) rotate(0) translate(4 34)">
<title>gestorempleados.interficie.ExcelExporter.fillData</title>
<polygon fill="white" stroke="white" points="-4,5 -4,-34 303,-34 303,5 -4,5"/>
<!-- Node1 -->
<g id="node1" class="node"><title>Node1</title>
<polygon fill="#bfbfbf" stroke="black" points="0.5,-0 0.5,-30 133.5,-30 133.5,-0 0.5,-0"/>
<text text-anchor="start" x="8.5" y="-18" font-family="Helvetica,sans-Serif" font-size="10.00">gestorempleados.interficie.</text>
<text text-anchor="middle" x="67" y="-7" font-family="Helvetica,sans-Serif" font-size="10.00">ExcelExporter.fillData</text>
</g>
<!-- Node2 -->
<g id="node2" class="node"><title>Node2</title>
<g id="a_node2"><a xlink:href="classplugins_1_1_panel___consultas.xhtml#a2ad6c61fd3e9a34a7e31479f908be48e" target="_top" xlink:title="plugins.Panel_Consultas.\lPanel_Consultas">
<polygon fill="white" stroke="black" points="170.5,-0 170.5,-30 297.5,-30 297.5,-0 170.5,-0"/>
<text text-anchor="start" x="178.5" y="-18" font-family="Helvetica,sans-Serif" font-size="10.00">plugins.Panel_Consultas.</text>
<text text-anchor="middle" x="234" y="-7" font-family="Helvetica,sans-Serif" font-size="10.00">Panel_Consultas</text>
</a>
</g>
</g>
<!-- Node1&#45;&gt;Node2 -->
<g id="edge1" class="edge"><title>Node1&#45;&gt;Node2</title>
<path fill="none" stroke="midnightblue" d="M143.73,-15C152.686,-15 161.749,-15 170.493,-15"/>
<polygon fill="midnightblue" stroke="midnightblue" points="143.687,-11.5001 133.686,-15 143.686,-18.5001 143.687,-11.5001"/>
</g>
</g>
</svg>
