<?xml version="1.0" encoding="UTF-8" standalone="no"?>
<!DOCTYPE svg PUBLIC "-//W3C//DTD SVG 1.1//EN"
 "http://www.w3.org/Graphics/SVG/1.1/DTD/svg11.dtd">
<!-- Generated by graphviz version 2.30.1 (20130214.1330)
 -->
<!-- Title: gestorempleados.interficie.Panel_Cabecera Pages: 1 -->
<svg width="220pt" height="216pt"
 viewBox="0.00 0.00 220.00 216.00" xmlns="http://www.w3.org/2000/svg" xmlns:xlink="http://www.w3.org/1999/xlink">
<g id="graph0" class="graph" transform="scale(1 1) rotate(0) translate(4 212)">
<title>gestorempleados.interficie.Panel_Cabecera</title>
<polygon fill="white" stroke="white" points="-4,5 -4,-212 217,-212 217,5 -4,5"/>
<!-- Node1 -->
<g id="node1" class="node"><title>Node1</title>
<polygon fill="#bfbfbf" stroke="black" points="28.5,-1 28.5,-69 161.5,-69 161.5,-1 28.5,-1"/>
<text text-anchor="start" x="36.5" y="-57" font-family="Helvetica,sans-Serif" font-size="10.00">gestorempleados.interficie.</text>
<text text-anchor="middle" x="95" y="-46" font-family="Helvetica,sans-Serif" font-size="10.00">Panel_Cabecera</text>
<polyline fill="none" stroke="black" points="28.5,-39 161.5,-39 "/>
<text text-anchor="middle" x="95" y="-27" font-family="Helvetica,sans-Serif" font-size="10.00"> </text>
<polyline fill="none" stroke="black" points="28.5,-20 161.5,-20 "/>
<text text-anchor="start" x="36.5" y="-8" font-family="Helvetica,sans-Serif" font-size="10.00">+ Panel_Cabecera()</text>
</g>
<!-- Node2 -->
<g id="node2" class="node"><title>Node2</title>
<polygon fill="white" stroke="#bfbfbf" points="0,-150.5 0,-207.5 46,-207.5 46,-150.5 0,-150.5"/>
<text text-anchor="middle" x="23" y="-195.5" font-family="Helvetica,sans-Serif" font-size="10.00">JPanel</text>
<polyline fill="none" stroke="#bfbfbf" points="0,-188.5 46,-188.5 "/>
<text text-anchor="middle" x="23" y="-176.5" font-family="Helvetica,sans-Serif" font-size="10.00"> </text>
<polyline fill="none" stroke="#bfbfbf" points="0,-169.5 46,-169.5 "/>
<text text-anchor="middle" x="23" y="-157.5" font-family="Helvetica,sans-Serif" font-size="10.00"> </text>
</g>
<!-- Node2&#45;&gt;Node1 -->
<g id="edge1" class="edge"><title>Node2&#45;&gt;Node1</title>
<path fill="none" stroke="midnightblue" d="M41.6926,-141.134C52.9867,-118.86 67.2631,-90.7032 78.1987,-69.1359"/>
<polygon fill="none" stroke="midnightblue" points="38.454,-139.782 37.0532,-150.284 44.6973,-142.948 38.454,-139.782"/>
</g>
<!-- Node3 -->
<g id="node3" class="node"><title>Node3</title>
<polygon fill="white" stroke="#bfbfbf" points="64.5,-150.5 64.5,-207.5 125.5,-207.5 125.5,-150.5 64.5,-150.5"/>
<text text-anchor="middle" x="95" y="-195.5" font-family="Helvetica,sans-Serif" font-size="10.00">ImageIcon</text>
<polyline fill="none" stroke="#bfbfbf" points="64.5,-188.5 125.5,-188.5 "/>
<text text-anchor="middle" x="95" y="-176.5" font-family="Helvetica,sans-Serif" font-size="10.00"> </text>
<polyline fill="none" stroke="#bfbfbf" points="64.5,-169.5 125.5,-169.5 "/>
<text text-anchor="middle" x="95" y="-157.5" font-family="Helvetica,sans-Serif" font-size="10.00"> </text>
</g>
<!-- Node3&#45;&gt;Node1 -->
<g id="edge2" class="edge"><title>Node3&#45;&gt;Node1</title>
<path fill="none" stroke="#404040" d="M95,-150.284C95,-130.671 95,-103.932 95,-81.2491"/>
<polygon fill="none" stroke="#404040" points="95.0001,-81.1359 91,-75.1359 95,-69.1359 99,-75.1358 95.0001,-81.1359"/>
<text text-anchor="middle" x="107.5" y="-107.5" font-family="Helvetica,sans-Serif" font-size="10.00"> &#45;logo</text>
</g>
<!-- Node4 -->
<g id="node4" class="node"><title>Node4</title>
<polygon fill="white" stroke="#bfbfbf" points="144,-150.5 144,-207.5 188,-207.5 188,-150.5 144,-150.5"/>
<text text-anchor="middle" x="166" y="-195.5" font-family="Helvetica,sans-Serif" font-size="10.00">JLabel</text>
<polyline fill="none" stroke="#bfbfbf" points="144,-188.5 188,-188.5 "/>
<text text-anchor="middle" x="166" y="-176.5" font-family="Helvetica,sans-Serif" font-size="10.00"> </text>
<polyline fill="none" stroke="#bfbfbf" points="144,-169.5 188,-169.5 "/>
<text text-anchor="middle" x="166" y="-157.5" font-family="Helvetica,sans-Serif" font-size="10.00"> </text>
</g>
<!-- Node4&#45;&gt;Node1 -->
<g id="edge3" class="edge"><title>Node4&#45;&gt;Node1</title>
<path fill="none" stroke="#404040" d="M153.643,-150.178C145.534,-132.266 134.519,-108.572 124,-88 122.621,-85.3023 121.177,-82.5406 119.701,-79.7649"/>
<polygon fill="none" stroke="#404040" points="119.638,-79.6484 113.264,-76.2768 113.925,-69.096 120.299,-72.4676 119.638,-79.6484"/>
<text text-anchor="middle" x="179" y="-124" font-family="Helvetica,sans-Serif" font-size="10.00"> &#45;logoLbl</text>
<text text-anchor="middle" x="179" y="-113" font-family="Helvetica,sans-Serif" font-size="10.00">&#45;lblNewLabel</text>
<text text-anchor="middle" x="179" y="-102" font-family="Helvetica,sans-Serif" font-size="10.00">&#45;lblNewLabel_1</text>
<text text-anchor="middle" x="179" y="-91" font-family="Helvetica,sans-Serif" font-size="10.00">&#45;lblNewLabel_2</text>
</g>
</g>
</svg>
