<?xml version="1.0" encoding="UTF-8" standalone="no"?>
<!DOCTYPE svg PUBLIC "-//W3C//DTD SVG 1.1//EN"
 "http://www.w3.org/Graphics/SVG/1.1/DTD/svg11.dtd">
<!-- Generated by graphviz version 2.30.1 (20130214.1330)
 -->
<!-- Title: plugins.Panel_Registros Pages: 1 -->
<svg width="140pt" height="172pt"
 viewBox="0.00 0.00 140.00 172.00" xmlns="http://www.w3.org/2000/svg" xmlns:xlink="http://www.w3.org/1999/xlink">
<g id="graph0" class="graph" transform="scale(1 1) rotate(0) translate(4 168)">
<title>plugins.Panel_Registros</title>
<polygon fill="white" stroke="white" points="-4,5 -4,-168 137,-168 137,5 -4,5"/>
<!-- Node1 -->
<g id="node1" class="node"><title>Node1</title>
<polygon fill="#bfbfbf" stroke="black" points="0,-1 0,-69 122,-69 122,-1 0,-1"/>
<text text-anchor="middle" x="61" y="-57" font-family="Helvetica,sans-Serif" font-size="10.00">plugins.Panel_Registros</text>
<polyline fill="none" stroke="black" points="0,-50 122,-50 "/>
<text text-anchor="middle" x="61" y="-38" font-family="Helvetica,sans-Serif" font-size="10.00"> </text>
<polyline fill="none" stroke="black" points="0,-31 122,-31 "/>
<text text-anchor="start" x="8" y="-19" font-family="Helvetica,sans-Serif" font-size="10.00">+ Panel_Registros()</text>
<text text-anchor="start" x="8" y="-8" font-family="Helvetica,sans-Serif" font-size="10.00"># selectFile()</text>
</g>
<!-- Node2 -->
<g id="node2" class="node"><title>Node2</title>
<polygon fill="white" stroke="#bfbfbf" points="1,-106.5 1,-163.5 47,-163.5 47,-106.5 1,-106.5"/>
<text text-anchor="middle" x="24" y="-151.5" font-family="Helvetica,sans-Serif" font-size="10.00">JPanel</text>
<polyline fill="none" stroke="#bfbfbf" points="1,-144.5 47,-144.5 "/>
<text text-anchor="middle" x="24" y="-132.5" font-family="Helvetica,sans-Serif" font-size="10.00"> </text>
<polyline fill="none" stroke="#bfbfbf" points="1,-125.5 47,-125.5 "/>
<text text-anchor="middle" x="24" y="-113.5" font-family="Helvetica,sans-Serif" font-size="10.00"> </text>
</g>
<!-- Node2&#45;&gt;Node1 -->
<g id="edge1" class="edge"><title>Node2&#45;&gt;Node1</title>
<path fill="none" stroke="midnightblue" d="M38.0138,-96.8825C41.4407,-87.8056 45.0863,-78.1498 48.4404,-69.2659"/>
<polygon fill="none" stroke="midnightblue" points="34.6628,-95.849 34.405,-106.441 41.2116,-98.3216 34.6628,-95.849"/>
</g>
<!-- Node3 -->
<g id="node3" class="node"><title>Node3</title>
<polygon fill="white" stroke="#bfbfbf" points="65.5,-106.5 65.5,-163.5 132.5,-163.5 132.5,-106.5 65.5,-106.5"/>
<text text-anchor="middle" x="99" y="-151.5" font-family="Helvetica,sans-Serif" font-size="10.00">Serializable</text>
<polyline fill="none" stroke="#bfbfbf" points="65.5,-144.5 132.5,-144.5 "/>
<text text-anchor="middle" x="99" y="-132.5" font-family="Helvetica,sans-Serif" font-size="10.00"> </text>
<polyline fill="none" stroke="#bfbfbf" points="65.5,-125.5 132.5,-125.5 "/>
<text text-anchor="middle" x="99" y="-113.5" font-family="Helvetica,sans-Serif" font-size="10.00"> </text>
</g>
<!-- Node3&#45;&gt;Node1 -->
<g id="edge2" class="edge"><title>Node3&#45;&gt;Node1</title>
<path fill="none" stroke="midnightblue" d="M84.6075,-96.8825C81.0879,-87.8056 77.3438,-78.1498 73.899,-69.2659"/>
<polygon fill="none" stroke="midnightblue" points="81.4351,-98.3825 88.3138,-106.441 87.9617,-95.8518 81.4351,-98.3825"/>
</g>
</g>
</svg>
