<?xml version="1.0" encoding="UTF-8" standalone="no"?>
<!DOCTYPE svg PUBLIC "-//W3C//DTD SVG 1.1//EN"
 "http://www.w3.org/Graphics/SVG/1.1/DTD/svg11.dtd">
<!-- Generated by graphviz version 2.30.1 (20130214.1330)
 -->
<!-- Title: gestorempleados.interficie.Panel_DatosPersonales.setFecha_nacimiento Pages: 1 -->
<svg width="572pt" height="87pt"
 viewBox="0.00 0.00 572.00 87.00" xmlns="http://www.w3.org/2000/svg" xmlns:xlink="http://www.w3.org/1999/xlink">
<g id="graph0" class="graph" transform="scale(1 1) rotate(0) translate(4 83)">
<title>gestorempleados.interficie.Panel_DatosPersonales.setFecha_nacimiento</title>
<polygon fill="white" stroke="white" points="-4,5 -4,-83 569,-83 569,5 -4,5"/>
<!-- Node1 -->
<g id="node1" class="node"><title>Node1</title>
<polygon fill="#bfbfbf" stroke="black" points="0,-18.5 0,-59.5 164,-59.5 164,-18.5 0,-18.5"/>
<text text-anchor="start" x="8" y="-47.5" font-family="Helvetica,sans-Serif" font-size="10.00">gestorempleados.interficie.</text>
<text text-anchor="start" x="8" y="-36.5" font-family="Helvetica,sans-Serif" font-size="10.00">Panel_DatosPersonales.setFecha</text>
<text text-anchor="middle" x="82" y="-25.5" font-family="Helvetica,sans-Serif" font-size="10.00">_nacimiento</text>
</g>
<!-- Node2 -->
<g id="node2" class="node"><title>Node2</title>
<g id="a_node2"><a xlink:href="classgestorempleados_1_1control_1_1_negocio_cliente.xhtml#aef5bfb101a0e799608cfe0ec6322b1e1" target="_top" xlink:title="gestorempleados.control.\lNegocioCliente.showDatosEmpleado">
<polygon fill="white" stroke="black" points="200,-24 200,-54 376,-54 376,-24 200,-24"/>
<text text-anchor="start" x="208" y="-42" font-family="Helvetica,sans-Serif" font-size="10.00">gestorempleados.control.</text>
<text text-anchor="middle" x="288" y="-31" font-family="Helvetica,sans-Serif" font-size="10.00">NegocioCliente.showDatosEmpleado</text>
</a>
</g>
</g>
<!-- Node1&#45;&gt;Node2 -->
<g id="edge1" class="edge"><title>Node1&#45;&gt;Node2</title>
<path fill="none" stroke="midnightblue" d="M174.409,-39C182.821,-39 191.329,-39 199.703,-39"/>
<polygon fill="midnightblue" stroke="midnightblue" points="174.212,-35.5001 164.212,-39 174.212,-42.5001 174.212,-35.5001"/>
</g>
<!-- Node3 -->
<g id="node3" class="node"><title>Node3</title>
<g id="a_node3"><a xlink:href="classplugins_1_1_panel___busqueda.xhtml#a8d47495fc4538acdfbc2f27cddffce0d" target="_top" xlink:title="plugins.Panel_Busqueda.crear\lPanel">
<polygon fill="white" stroke="black" points="413.5,-49 413.5,-79 562.5,-79 562.5,-49 413.5,-49"/>
<text text-anchor="start" x="421.5" y="-67" font-family="Helvetica,sans-Serif" font-size="10.00">plugins.Panel_Busqueda.crear</text>
<text text-anchor="middle" x="488" y="-56" font-family="Helvetica,sans-Serif" font-size="10.00">Panel</text>
</a>
</g>
</g>
<!-- Node2&#45;&gt;Node3 -->
<g id="edge2" class="edge"><title>Node2&#45;&gt;Node3</title>
<path fill="none" stroke="midnightblue" d="M386.094,-51.2593C395.294,-52.421 404.517,-53.5855 413.444,-54.7126"/>
<polygon fill="midnightblue" stroke="midnightblue" points="386.494,-47.7821 376.134,-50.0017 385.617,-54.7269 386.494,-47.7821"/>
</g>
<!-- Node4 -->
<g id="node4" class="node"><title>Node4</title>
<g id="a_node4"><a xlink:href="classplugins_1_1_panel___consultas.xhtml#a4072616654f5b0d96c9ba7213b140d36" target="_top" xlink:title="plugins.Panel_Consultas.editar\lDatosEmpleado">
<polygon fill="white" stroke="black" points="412.5,-0 412.5,-30 563.5,-30 563.5,-0 412.5,-0"/>
<text text-anchor="start" x="420.5" y="-18" font-family="Helvetica,sans-Serif" font-size="10.00">plugins.Panel_Consultas.editar</text>
<text text-anchor="middle" x="488" y="-7" font-family="Helvetica,sans-Serif" font-size="10.00">DatosEmpleado</text>
</a>
</g>
</g>
<!-- Node2&#45;&gt;Node4 -->
<g id="edge3" class="edge"><title>Node2&#45;&gt;Node4</title>
<path fill="none" stroke="midnightblue" d="M386.329,-27.2026C395.034,-26.1474 403.756,-25.0902 412.226,-24.0635"/>
<polygon fill="midnightblue" stroke="midnightblue" points="385.64,-23.7604 376.134,-28.4383 386.482,-30.7095 385.64,-23.7604"/>
</g>
</g>
</svg>
