<?xml version="1.0" encoding="UTF-8" standalone="no"?>
<!DOCTYPE svg PUBLIC "-//W3C//DTD SVG 1.1//EN"
 "http://www.w3.org/Graphics/SVG/1.1/DTD/svg11.dtd">
<!-- Generated by graphviz version 2.30.1 (20130214.1330)
 -->
<!-- Title: gestorempleados.control.NegocioCliente.showCVEmpleado Pages: 1 -->
<svg width="360pt" height="136pt"
 viewBox="0.00 0.00 360.00 136.00" xmlns="http://www.w3.org/2000/svg" xmlns:xlink="http://www.w3.org/1999/xlink">
<g id="graph0" class="graph" transform="scale(1 1) rotate(0) translate(4 132)">
<title>gestorempleados.control.NegocioCliente.showCVEmpleado</title>
<polygon fill="white" stroke="white" points="-4,5 -4,-132 357,-132 357,5 -4,5"/>
<!-- Node1 -->
<g id="node1" class="node"><title>Node1</title>
<polygon fill="#bfbfbf" stroke="black" points="0,-49 0,-79 164,-79 164,-49 0,-49"/>
<text text-anchor="start" x="8" y="-67" font-family="Helvetica,sans-Serif" font-size="10.00">gestorempleados.control.</text>
<text text-anchor="middle" x="82" y="-56" font-family="Helvetica,sans-Serif" font-size="10.00">NegocioCliente.showCVEmpleado</text>
</g>
<!-- Node2 -->
<g id="node2" class="node"><title>Node2</title>
<g id="a_node2"><a xlink:href="classgestorempleados_1_1interficie_1_1_panel___curriculo.xhtml#a089a0f19730f4d8e5887fae902767e17" target="_top" xlink:title="gestorempleados.interficie.\lPanel_Curriculo.setTitulacion">
<polygon fill="white" stroke="black" points="204.5,-98 204.5,-128 347.5,-128 347.5,-98 204.5,-98"/>
<text text-anchor="start" x="212.5" y="-116" font-family="Helvetica,sans-Serif" font-size="10.00">gestorempleados.interficie.</text>
<text text-anchor="middle" x="276" y="-105" font-family="Helvetica,sans-Serif" font-size="10.00">Panel_Curriculo.setTitulacion</text>
</a>
</g>
</g>
<!-- Node1&#45;&gt;Node2 -->
<g id="edge1" class="edge"><title>Node1&#45;&gt;Node2</title>
<path fill="none" stroke="midnightblue" d="M141.911,-79.0346C162.276,-84.2318 185.272,-90.1006 206.349,-95.4796"/>
<polygon fill="midnightblue" stroke="midnightblue" points="205.645,-98.9122 216.2,-97.9938 207.376,-92.1296 205.645,-98.9122"/>
</g>
<!-- Node3 -->
<g id="node3" class="node"><title>Node3</title>
<g id="a_node3"><a xlink:href="classgestorempleados_1_1interficie_1_1_panel___curriculo.xhtml#a918826e1b8f55e36f7deba6a8684ce3b" target="_top" xlink:title="gestorempleados.interficie.\lPanel_Curriculo.setExperiencia">
<polygon fill="white" stroke="black" points="200,-49 200,-79 352,-79 352,-49 200,-49"/>
<text text-anchor="start" x="208" y="-67" font-family="Helvetica,sans-Serif" font-size="10.00">gestorempleados.interficie.</text>
<text text-anchor="middle" x="276" y="-56" font-family="Helvetica,sans-Serif" font-size="10.00">Panel_Curriculo.setExperiencia</text>
</a>
</g>
</g>
<!-- Node1&#45;&gt;Node3 -->
<g id="edge2" class="edge"><title>Node1&#45;&gt;Node3</title>
<path fill="none" stroke="midnightblue" d="M164.147,-64C172.587,-64 181.185,-64 189.669,-64"/>
<polygon fill="midnightblue" stroke="midnightblue" points="189.945,-67.5001 199.945,-64 189.945,-60.5001 189.945,-67.5001"/>
</g>
<!-- Node4 -->
<g id="node4" class="node"><title>Node4</title>
<g id="a_node4"><a xlink:href="classgestorempleados_1_1interficie_1_1_panel___curriculo.xhtml#a7c9aeb9d562f933024677727c14538eb" target="_top" xlink:title="gestorempleados.interficie.\lPanel_Curriculo.setIdiomas">
<polygon fill="white" stroke="black" points="208.5,-0 208.5,-30 343.5,-30 343.5,-0 208.5,-0"/>
<text text-anchor="start" x="216.5" y="-18" font-family="Helvetica,sans-Serif" font-size="10.00">gestorempleados.interficie.</text>
<text text-anchor="middle" x="276" y="-7" font-family="Helvetica,sans-Serif" font-size="10.00">Panel_Curriculo.setIdiomas</text>
</a>
</g>
</g>
<!-- Node1&#45;&gt;Node4 -->
<g id="edge3" class="edge"><title>Node1&#45;&gt;Node4</title>
<path fill="none" stroke="midnightblue" d="M141.911,-48.9654C162.276,-43.7682 185.272,-37.8994 206.349,-32.5204"/>
<polygon fill="midnightblue" stroke="midnightblue" points="207.376,-35.8704 216.2,-30.0062 205.645,-29.0878 207.376,-35.8704"/>
</g>
</g>
</svg>
