<?xml version="1.0" encoding="UTF-8" standalone="no"?>
<!DOCTYPE svg PUBLIC "-//W3C//DTD SVG 1.1//EN"
 "http://www.w3.org/Graphics/SVG/1.1/DTD/svg11.dtd">
<!-- Generated by graphviz version 2.30.1 (20130214.1330)
 -->
<!-- Title: gestorempleados.interficie.Panel_Curriculo.setIdiomas Pages: 1 -->
<svg width="532pt" height="87pt"
 viewBox="0.00 0.00 532.00 87.00" xmlns="http://www.w3.org/2000/svg" xmlns:xlink="http://www.w3.org/1999/xlink">
<g id="graph0" class="graph" transform="scale(1 1) rotate(0) translate(4 83)">
<title>gestorempleados.interficie.Panel_Curriculo.setIdiomas</title>
<polygon fill="white" stroke="white" points="-4,5 -4,-83 529,-83 529,5 -4,5"/>
<!-- Node1 -->
<g id="node1" class="node"><title>Node1</title>
<polygon fill="#bfbfbf" stroke="black" points="0.5,-24 0.5,-54 135.5,-54 135.5,-24 0.5,-24"/>
<text text-anchor="start" x="8.5" y="-42" font-family="Helvetica,sans-Serif" font-size="10.00">gestorempleados.interficie.</text>
<text text-anchor="middle" x="68" y="-31" font-family="Helvetica,sans-Serif" font-size="10.00">Panel_Curriculo.setIdiomas</text>
</g>
<!-- Node2 -->
<g id="node2" class="node"><title>Node2</title>
<g id="a_node2"><a xlink:href="classgestorempleados_1_1control_1_1_negocio_cliente.xhtml#ae24a9ae67727c32b45d618ef2e61fe8a" target="_top" xlink:title="gestorempleados.control.\lNegocioCliente.showCVEmpleado">
<polygon fill="white" stroke="black" points="172,-24 172,-54 336,-54 336,-24 172,-24"/>
<text text-anchor="start" x="180" y="-42" font-family="Helvetica,sans-Serif" font-size="10.00">gestorempleados.control.</text>
<text text-anchor="middle" x="254" y="-31" font-family="Helvetica,sans-Serif" font-size="10.00">NegocioCliente.showCVEmpleado</text>
</a>
</g>
</g>
<!-- Node1&#45;&gt;Node2 -->
<g id="edge1" class="edge"><title>Node1&#45;&gt;Node2</title>
<path fill="none" stroke="midnightblue" d="M145.703,-39C154.323,-39 163.126,-39 171.8,-39"/>
<polygon fill="midnightblue" stroke="midnightblue" points="145.688,-35.5001 135.688,-39 145.688,-42.5001 145.688,-35.5001"/>
</g>
<!-- Node3 -->
<g id="node3" class="node"><title>Node3</title>
<g id="a_node3"><a xlink:href="classplugins_1_1_panel___busqueda.xhtml#a8d47495fc4538acdfbc2f27cddffce0d" target="_top" xlink:title="plugins.Panel_Busqueda.crear\lPanel">
<polygon fill="white" stroke="black" points="373.5,-49 373.5,-79 522.5,-79 522.5,-49 373.5,-49"/>
<text text-anchor="start" x="381.5" y="-67" font-family="Helvetica,sans-Serif" font-size="10.00">plugins.Panel_Busqueda.crear</text>
<text text-anchor="middle" x="448" y="-56" font-family="Helvetica,sans-Serif" font-size="10.00">Panel</text>
</a>
</g>
</g>
<!-- Node2&#45;&gt;Node3 -->
<g id="edge2" class="edge"><title>Node2&#45;&gt;Node3</title>
<path fill="none" stroke="midnightblue" d="M346.071,-50.8582C355.253,-52.0538 364.496,-53.2572 373.461,-54.4246"/>
<polygon fill="midnightblue" stroke="midnightblue" points="346.515,-47.3866 336.147,-49.566 345.611,-54.328 346.515,-47.3866"/>
</g>
<!-- Node4 -->
<g id="node4" class="node"><title>Node4</title>
<g id="a_node4"><a xlink:href="classplugins_1_1_panel___consultas.xhtml#aef9cb36e8db78e3bd75c3e4acf0bc9e4" target="_top" xlink:title="plugins.Panel_Consultas.editar\lCVEmpleado">
<polygon fill="white" stroke="black" points="372.5,-0 372.5,-30 523.5,-30 523.5,-0 372.5,-0"/>
<text text-anchor="start" x="380.5" y="-18" font-family="Helvetica,sans-Serif" font-size="10.00">plugins.Panel_Consultas.editar</text>
<text text-anchor="middle" x="448" y="-7" font-family="Helvetica,sans-Serif" font-size="10.00">CVEmpleado</text>
</a>
</g>
</g>
<!-- Node2&#45;&gt;Node4 -->
<g id="edge3" class="edge"><title>Node2&#45;&gt;Node4</title>
<path fill="none" stroke="midnightblue" d="M346.308,-27.5865C354.999,-26.5001 363.741,-25.4074 372.249,-24.3439"/>
<polygon fill="midnightblue" stroke="midnightblue" points="345.636,-24.1432 336.147,-28.8566 346.504,-31.0892 345.636,-24.1432"/>
</g>
</g>
</svg>
