<?xml version="1.0" encoding="UTF-8" standalone="no"?>
<!DOCTYPE svg PUBLIC "-//W3C//DTD SVG 1.1//EN"
 "http://www.w3.org/Graphics/SVG/1.1/DTD/svg11.dtd">
<!-- Generated by graphviz version 2.30.1 (20130214.1330)
 -->
<!-- Title: gestorempleados.interficie.Panel_Contrato.setFecha_fin Pages: 1 -->
<svg width="320pt" height="136pt"
 viewBox="0.00 0.00 320.00 136.00" xmlns="http://www.w3.org/2000/svg" xmlns:xlink="http://www.w3.org/1999/xlink">
<g id="graph0" class="graph" transform="scale(1 1) rotate(0) translate(4 132)">
<title>gestorempleados.interficie.Panel_Contrato.setFecha_fin</title>
<polygon fill="white" stroke="white" points="-4,5 -4,-132 317,-132 317,5 -4,5"/>
<!-- Node1 -->
<g id="node1" class="node"><title>Node1</title>
<polygon fill="#bfbfbf" stroke="black" points="0,-49 0,-79 142,-79 142,-49 0,-49"/>
<text text-anchor="start" x="8" y="-67" font-family="Helvetica,sans-Serif" font-size="10.00">gestorempleados.interficie.</text>
<text text-anchor="middle" x="71" y="-56" font-family="Helvetica,sans-Serif" font-size="10.00">Panel_Contrato.setFecha_fin</text>
</g>
<!-- Node2 -->
<g id="node2" class="node"><title>Node2</title>
<g id="a_node2"><a xlink:href="classgestorempleados_1_1interficie_1_1_calendario.xhtml#a22844d04bb1585eca0ee0283f1082c90" target="_top" xlink:title="gestorempleados.interficie.\lCalendario.setDia">
<polygon fill="white" stroke="black" points="178.5,-98 178.5,-128 311.5,-128 311.5,-98 178.5,-98"/>
<text text-anchor="start" x="186.5" y="-116" font-family="Helvetica,sans-Serif" font-size="10.00">gestorempleados.interficie.</text>
<text text-anchor="middle" x="245" y="-105" font-family="Helvetica,sans-Serif" font-size="10.00">Calendario.setDia</text>
</a>
</g>
</g>
<!-- Node1&#45;&gt;Node2 -->
<g id="edge1" class="edge"><title>Node1&#45;&gt;Node2</title>
<path fill="none" stroke="midnightblue" d="M125.009,-79.1014C142.831,-84.1785 162.88,-89.8902 181.37,-95.1577"/>
<polygon fill="midnightblue" stroke="midnightblue" points="180.59,-98.5746 191.166,-97.9484 182.508,-91.8425 180.59,-98.5746"/>
</g>
<!-- Node3 -->
<g id="node3" class="node"><title>Node3</title>
<g id="a_node3"><a xlink:href="classgestorempleados_1_1interficie_1_1_calendario.xhtml#a8b25250145ee84ef837dab49ebbc1128" target="_top" xlink:title="gestorempleados.interficie.\lCalendario.setMes">
<polygon fill="white" stroke="black" points="178.5,-49 178.5,-79 311.5,-79 311.5,-49 178.5,-49"/>
<text text-anchor="start" x="186.5" y="-67" font-family="Helvetica,sans-Serif" font-size="10.00">gestorempleados.interficie.</text>
<text text-anchor="middle" x="245" y="-56" font-family="Helvetica,sans-Serif" font-size="10.00">Calendario.setMes</text>
</a>
</g>
</g>
<!-- Node1&#45;&gt;Node3 -->
<g id="edge2" class="edge"><title>Node1&#45;&gt;Node3</title>
<path fill="none" stroke="midnightblue" d="M142.455,-64C150.99,-64 159.737,-64 168.343,-64"/>
<polygon fill="midnightblue" stroke="midnightblue" points="168.361,-67.5001 178.361,-64 168.361,-60.5001 168.361,-67.5001"/>
</g>
<!-- Node4 -->
<g id="node4" class="node"><title>Node4</title>
<g id="a_node4"><a xlink:href="classgestorempleados_1_1interficie_1_1_calendario.xhtml#aa75f38ccdd3c10471b7a17c758636bfa" target="_top" xlink:title="gestorempleados.interficie.\lCalendario.setAno">
<polygon fill="white" stroke="black" points="178.5,-0 178.5,-30 311.5,-30 311.5,-0 178.5,-0"/>
<text text-anchor="start" x="186.5" y="-18" font-family="Helvetica,sans-Serif" font-size="10.00">gestorempleados.interficie.</text>
<text text-anchor="middle" x="245" y="-7" font-family="Helvetica,sans-Serif" font-size="10.00">Calendario.setAno</text>
</a>
</g>
</g>
<!-- Node1&#45;&gt;Node4 -->
<g id="edge3" class="edge"><title>Node1&#45;&gt;Node4</title>
<path fill="none" stroke="midnightblue" d="M125.009,-48.8986C142.831,-43.8215 162.88,-38.1098 181.37,-32.8423"/>
<polygon fill="midnightblue" stroke="midnightblue" points="182.508,-36.1575 191.166,-30.0516 180.59,-29.4254 182.508,-36.1575"/>
</g>
</g>
</svg>
