<?xml version="1.0" encoding="UTF-8" standalone="no"?>
<!DOCTYPE svg PUBLIC "-//W3C//DTD SVG 1.1//EN"
 "http://www.w3.org/Graphics/SVG/1.1/DTD/svg11.dtd">
<!-- Generated by graphviz version 2.30.1 (20130214.1330)
 -->
<!-- Title: gestorempleados.control.NegocioCliente.getinstance Pages: 1 -->
<!--zoomable 491 -->
<svg id="main" version="1.1" xmlns="http://www.w3.org/2000/svg" xmlns:xlink="http://www.w3.org/1999/xlink" xml:space="preserve" onload="init(evt)">
<style type="text/css"><![CDATA[
.edge:hover path { stroke: red; }
.edge:hover polygon { stroke: red; fill: red; }
]]></style>
<script type="text/javascript"><![CDATA[
var edges = document.getElementsByTagName('g');
if (edges && edges.length) {
  for (var i=0;i<edges.length;i++) {
    if (edges[i].id.substr(0,4)=='edge') {
      edges[i].setAttribute('class','edge');
    }
  }
}
]]></script>
        <defs>
                <circle id="rim" cx="0" cy="0" r="7"/>
                <circle id="rim2" cx="0" cy="0" r="3.5"/>
                <g id="zoomPlus">
                        <use xlink:href="#rim" fill="#404040">
                                <set attributeName="fill" to="#808080" begin="zoomplus.mouseover" end="zoomplus.mouseout"/>
                        </use>
                        <path d="M-4,0h8M0,-4v8" fill="none" stroke="white" stroke-width="1.5" pointer-events="none"/>
                </g>
                <g id="zoomMin">
                        <use xlink:href="#rim" fill="#404040">
                                <set attributeName="fill" to="#808080" begin="zoomminus.mouseover" end="zoomminus.mouseout"/>
                        </use>
                        <path d="M-4,0h8" fill="none" stroke="white" stroke-width="1.5" pointer-events="none"/>
                </g>
                <g id="dirArrow">
                        <path fill="none" stroke="white" stroke-width="1.5" d="M0,-3.0v7 M-2.5,-0.5L0,-3.0L2.5,-0.5"/>
                </g>
               <g id="resetDef">
                       <use xlink:href="#rim2" fill="#404040">
                               <set attributeName="fill" to="#808080" begin="reset.mouseover" end="reset.mouseout"/>
                       </use>
               </g>
        </defs>

<script type="text/javascript">
var viewWidth = 334;
var viewHeight = 491;
var sectionId = 'dynsection-6';
</script>
<script xlink:href="svgpan.js"/>
<svg id="graph" class="graph">
<g id="viewport">
<title>gestorempleados.control.NegocioCliente.getinstance</title>
<polygon fill="white" stroke="white" points="-4,5 -4,-487 331,-487 331,5 -4,5"/>
<!-- Node1 -->
<g id="node1" class="node"><title>Node1</title>
<polygon fill="#bfbfbf" stroke="black" points="0.5,-220 0.5,-250 135.5,-250 135.5,-220 0.5,-220"/>
<text text-anchor="start" x="8.5" y="-238" font-family="Helvetica,sans-Serif" font-size="10.00">gestorempleados.control.</text>
<text text-anchor="middle" x="68" y="-227" font-family="Helvetica,sans-Serif" font-size="10.00">NegocioCliente.getinstance</text>
</g>
<!-- Node2 -->
<g id="node2" class="node"><title>Node2</title>
<g id="a_node2"><a xlink:href="classgestorempleados_1_1interficie_1_1_panel___contrato.xhtml#a792633b39c1bbe386b428d3a04502322" target="_top" xlink:title="gestorempleados.interficie.\lPanel_Contrato.Panel_Contrato">
<polygon fill="white" stroke="black" points="172.5,-453 172.5,-483 325.5,-483 325.5,-453 172.5,-453"/>
<text text-anchor="start" x="180.5" y="-471" font-family="Helvetica,sans-Serif" font-size="10.00">gestorempleados.interficie.</text>
<text text-anchor="middle" x="249" y="-460" font-family="Helvetica,sans-Serif" font-size="10.00">Panel_Contrato.Panel_Contrato</text>
</a>
</g>
</g>
<!-- Node1&#45;&gt;Node2 -->
<g id="edge1" class="edge"><title>Node1&#45;&gt;Node2</title>
<path fill="none" stroke="midnightblue" d="M74.5816,-259.766C85.6248,-303.145 114.345,-393.001 172,-443 176.407,-446.822 181.414,-450.063 186.705,-452.81"/>
<polygon fill="midnightblue" stroke="midnightblue" points="77.977,-258.916 72.2042,-250.032 71.1769,-260.577 77.977,-258.916"/>
</g>
<!-- Node3 -->
<g id="node3" class="node"><title>Node3</title>
<g id="a_node3"><a xlink:href="classgestorempleados_1_1interficie_1_1_panel___datos_personales.xhtml#a3c7e18bd89aaa31bb40ce20d753b4510" target="_top" xlink:title="gestorempleados.interficie.\lPanel_DatosPersonales.Panel\l_DatosPersonales">
<polygon fill="white" stroke="black" points="174.5,-392.5 174.5,-433.5 323.5,-433.5 323.5,-392.5 174.5,-392.5"/>
<text text-anchor="start" x="182.5" y="-421.5" font-family="Helvetica,sans-Serif" font-size="10.00">gestorempleados.interficie.</text>
<text text-anchor="start" x="182.5" y="-410.5" font-family="Helvetica,sans-Serif" font-size="10.00">Panel_DatosPersonales.Panel</text>
<text text-anchor="middle" x="249" y="-399.5" font-family="Helvetica,sans-Serif" font-size="10.00">_DatosPersonales</text>
</a>
</g>
</g>
<!-- Node1&#45;&gt;Node3 -->
<g id="edge2" class="edge"><title>Node1&#45;&gt;Node3</title>
<path fill="none" stroke="midnightblue" d="M80.3811,-259.175C96.5915,-291.261 129.175,-347.83 172,-382 176.901,-385.91 182.362,-389.393 188.047,-392.478"/>
<polygon fill="midnightblue" stroke="midnightblue" points="83.4454,-257.476 75.8827,-250.056 77.1675,-260.572 83.4454,-257.476"/>
</g>
<!-- Node4 -->
<g id="node4" class="node"><title>Node4</title>
<g id="a_node4"><a xlink:href="classgestorempleados_1_1interficie_1_1_start_client.xhtml#a8fbbf7d526b86a7c9662033ca9839428" target="_top" xlink:title="gestorempleados.interficie.\lStartClient.confirmaUsuario">
<polygon fill="white" stroke="black" points="181.5,-343 181.5,-373 316.5,-373 316.5,-343 181.5,-343"/>
<text text-anchor="start" x="189.5" y="-361" font-family="Helvetica,sans-Serif" font-size="10.00">gestorempleados.interficie.</text>
<text text-anchor="middle" x="249" y="-350" font-family="Helvetica,sans-Serif" font-size="10.00">StartClient.confirmaUsuario</text>
</a>
</g>
</g>
<!-- Node1&#45;&gt;Node4 -->
<g id="edge3" class="edge"><title>Node1&#45;&gt;Node4</title>
<path fill="none" stroke="midnightblue" d="M87.7513,-257.984C106.855,-280.041 138.381,-312.886 172,-333 178.317,-336.78 185.276,-340.066 192.341,-342.901"/>
<polygon fill="midnightblue" stroke="midnightblue" points="90.2015,-255.462 81.0592,-250.108 84.867,-259.995 90.2015,-255.462"/>
</g>
<!-- Node5 -->
<g id="node5" class="node"><title>Node5</title>
<g id="a_node5"><a xlink:href="classplugins_1_1_panel___alta.xhtml#a804926b94fa2f64e79032ded83f6b1e6" target="_top" xlink:title="plugins.Panel_Alta.crear\lPanel">
<polygon fill="white" stroke="black" points="188,-294 188,-324 310,-324 310,-294 188,-294"/>
<text text-anchor="start" x="196" y="-312" font-family="Helvetica,sans-Serif" font-size="10.00">plugins.Panel_Alta.crear</text>
<text text-anchor="middle" x="249" y="-301" font-family="Helvetica,sans-Serif" font-size="10.00">Panel</text>
</a>
</g>
</g>
<!-- Node1&#45;&gt;Node5 -->
<g id="edge4" class="edge"><title>Node1&#45;&gt;Node5</title>
<path fill="none" stroke="midnightblue" d="M107.324,-254.65C126.492,-264.112 150.199,-275.269 172,-284 180.639,-287.46 189.962,-290.821 199.019,-293.898"/>
<polygon fill="midnightblue" stroke="midnightblue" points="108.819,-251.484 98.3075,-250.159 105.698,-257.75 108.819,-251.484"/>
</g>
<!-- Node6 -->
<g id="node6" class="node"><title>Node6</title>
<g id="a_node6"><a xlink:href="classplugins_1_1_panel___busqueda.xhtml#a8d47495fc4538acdfbc2f27cddffce0d" target="_top" xlink:title="plugins.Panel_Busqueda.crear\lPanel">
<polygon fill="white" stroke="black" points="174.5,-245 174.5,-275 323.5,-275 323.5,-245 174.5,-245"/>
<text text-anchor="start" x="182.5" y="-263" font-family="Helvetica,sans-Serif" font-size="10.00">plugins.Panel_Busqueda.crear</text>
<text text-anchor="middle" x="249" y="-252" font-family="Helvetica,sans-Serif" font-size="10.00">Panel</text>
</a>
</g>
</g>
<!-- Node1&#45;&gt;Node6 -->
<g id="edge5" class="edge"><title>Node1&#45;&gt;Node6</title>
<path fill="none" stroke="midnightblue" d="M145.829,-245.73C155.297,-247.053 164.957,-248.402 174.375,-249.717"/>
<polygon fill="midnightblue" stroke="midnightblue" points="146.041,-242.226 135.653,-244.309 145.073,-249.159 146.041,-242.226"/>
</g>
<!-- Node7 -->
<g id="node7" class="node"><title>Node7</title>
<g id="a_node7"><a xlink:href="classplugins_1_1_panel___consultas.xhtml#a2ad6c61fd3e9a34a7e31479f908be48e" target="_top" xlink:title="plugins.Panel_Consultas.\lPanel_Consultas">
<polygon fill="white" stroke="black" points="185.5,-196 185.5,-226 312.5,-226 312.5,-196 185.5,-196"/>
<text text-anchor="start" x="193.5" y="-214" font-family="Helvetica,sans-Serif" font-size="10.00">plugins.Panel_Consultas.</text>
<text text-anchor="middle" x="249" y="-203" font-family="Helvetica,sans-Serif" font-size="10.00">Panel_Consultas</text>
</a>
</g>
</g>
<!-- Node1&#45;&gt;Node7 -->
<g id="edge6" class="edge"><title>Node1&#45;&gt;Node7</title>
<path fill="none" stroke="midnightblue" d="M145.701,-224.716C158.964,-222.938 172.61,-221.108 185.442,-219.388"/>
<polygon fill="midnightblue" stroke="midnightblue" points="145.099,-221.265 135.653,-226.063 146.029,-228.203 145.099,-221.265"/>
</g>
<!-- Node8 -->
<g id="node8" class="node"><title>Node8</title>
<g id="a_node8"><a xlink:href="classplugins_1_1_panel___consultas.xhtml#a4072616654f5b0d96c9ba7213b140d36" target="_top" xlink:title="plugins.Panel_Consultas.editar\lDatosEmpleado">
<polygon fill="white" stroke="black" points="173.5,-147 173.5,-177 324.5,-177 324.5,-147 173.5,-147"/>
<text text-anchor="start" x="181.5" y="-165" font-family="Helvetica,sans-Serif" font-size="10.00">plugins.Panel_Consultas.editar</text>
<text text-anchor="middle" x="249" y="-154" font-family="Helvetica,sans-Serif" font-size="10.00">DatosEmpleado</text>
</a>
</g>
</g>
<!-- Node1&#45;&gt;Node8 -->
<g id="edge7" class="edge"><title>Node1&#45;&gt;Node8</title>
<path fill="none" stroke="midnightblue" d="M107.783,-215.601C126.886,-206.388 150.404,-195.549 172,-187 180.782,-183.523 190.261,-180.13 199.447,-177.02"/>
<polygon fill="midnightblue" stroke="midnightblue" points="106.249,-212.455 98.7869,-219.976 109.31,-218.75 106.249,-212.455"/>
</g>
<!-- Node9 -->
<g id="node9" class="node"><title>Node9</title>
<g id="a_node9"><a xlink:href="classplugins_1_1_panel___consultas.xhtml#aef9cb36e8db78e3bd75c3e4acf0bc9e4" target="_top" xlink:title="plugins.Panel_Consultas.editar\lCVEmpleado">
<polygon fill="white" stroke="black" points="173.5,-98 173.5,-128 324.5,-128 324.5,-98 173.5,-98"/>
<text text-anchor="start" x="181.5" y="-116" font-family="Helvetica,sans-Serif" font-size="10.00">plugins.Panel_Consultas.editar</text>
<text text-anchor="middle" x="249" y="-105" font-family="Helvetica,sans-Serif" font-size="10.00">CVEmpleado</text>
</a>
</g>
</g>
<!-- Node1&#45;&gt;Node9 -->
<g id="edge8" class="edge"><title>Node1&#45;&gt;Node9</title>
<path fill="none" stroke="midnightblue" d="M88.1216,-211.893C107.293,-190.073 138.679,-157.82 172,-138 178.327,-134.237 185.292,-130.96 192.359,-128.13"/>
<polygon fill="midnightblue" stroke="midnightblue" points="85.272,-209.838 81.3936,-219.698 90.5739,-214.409 85.272,-209.838"/>
</g>
<!-- Node10 -->
<g id="node10" class="node"><title>Node10</title>
<g id="a_node10"><a xlink:href="classplugins_1_1_panel___consultas.xhtml#ad1596ee5ed80b3214b8374f3f0a97ef6" target="_top" xlink:title="plugins.Panel_Consultas.editar\lContratosEmpleado">
<polygon fill="white" stroke="black" points="173.5,-49 173.5,-79 324.5,-79 324.5,-49 173.5,-49"/>
<text text-anchor="start" x="181.5" y="-67" font-family="Helvetica,sans-Serif" font-size="10.00">plugins.Panel_Consultas.editar</text>
<text text-anchor="middle" x="249" y="-56" font-family="Helvetica,sans-Serif" font-size="10.00">ContratosEmpleado</text>
</a>
</g>
</g>
<!-- Node1&#45;&gt;Node10 -->
<g id="edge9" class="edge"><title>Node1&#45;&gt;Node10</title>
<path fill="none" stroke="midnightblue" d="M80.0829,-210.549C95.9569,-178.185 128.162,-121.442 172,-89 177.248,-85.1165 183.13,-81.8164 189.237,-79.0162"/>
<polygon fill="midnightblue" stroke="midnightblue" points="76.837,-209.224 75.686,-219.756 83.1537,-212.241 76.837,-209.224"/>
</g>
<!-- Node11 -->
<g id="node11" class="node"><title>Node11</title>
<g id="a_node11"><a xlink:href="classplugins_1_1_panel___registros.xhtml#aae4d01f2f3b9885bee3d9e8057cebece" target="_top" xlink:title="plugins.Panel_Registros.\lPanel_Registros">
<polygon fill="white" stroke="black" points="186.5,-0 186.5,-30 311.5,-30 311.5,-0 186.5,-0"/>
<text text-anchor="start" x="194.5" y="-18" font-family="Helvetica,sans-Serif" font-size="10.00">plugins.Panel_Registros.</text>
<text text-anchor="middle" x="249" y="-7" font-family="Helvetica,sans-Serif" font-size="10.00">Panel_Registros</text>
</a>
</g>
</g>
<!-- Node1&#45;&gt;Node11 -->
<g id="edge10" class="edge"><title>Node1&#45;&gt;Node11</title>
<path fill="none" stroke="midnightblue" d="M75.5428,-210.036C87.6362,-168.725 117.376,-86.1324 172,-40 176.563,-36.1463 181.737,-32.8818 187.189,-30.1174"/>
<polygon fill="midnightblue" stroke="midnightblue" points="72.1252,-209.26 72.7811,-219.835 78.8627,-211.159 72.1252,-209.26"/>
</g>
</g>
</svg>
        <g id="navigator" transform="translate(0 0)" fill="#404254">
                <rect fill="#f2f5e9" fill-opacity="0.5" stroke="#606060" stroke-width=".5" x="0" y="0" width="60" height="60"/>
                <use id="zoomplus" xlink:href="#zoomPlus" x="17" y="9" onmousedown="handleZoom(evt,'in')"/>
                <use id="zoomminus" xlink:href="#zoomMin" x="42" y="9" onmousedown="handleZoom(evt,'out')"/>
                <use id="reset" xlink:href="#resetDef" x="30" y="36" onmousedown="handleReset()"/>
                <g id="arrowUp" xlink:href="#dirArrow" transform="translate(30 24)" onmousedown="handlePan(0,-1)">
                  <use xlink:href="#rim" fill="#404040">
                        <set attributeName="fill" to="#808080" begin="arrowUp.mouseover" end="arrowUp.mouseout"/>
                  </use>
                  <path fill="none" stroke="white" stroke-width="1.5" d="M0,-3.0v7 M-2.5,-0.5L0,-3.0L2.5,-0.5"/>
                </g>
                <g id="arrowRight" xlink:href="#dirArrow" transform="rotate(90) translate(36 -43)" onmousedown="handlePan(1,0)">
                  <use xlink:href="#rim" fill="#404040">
                        <set attributeName="fill" to="#808080" begin="arrowRight.mouseover" end="arrowRight.mouseout"/>
                  </use>
                  <path fill="none" stroke="white" stroke-width="1.5" d="M0,-3.0v7 M-2.5,-0.5L0,-3.0L2.5,-0.5"/>
                </g>
                <g id="arrowDown" xlink:href="#dirArrow" transform="rotate(180) translate(-30 -48)" onmousedown="handlePan(0,1)">
                  <use xlink:href="#rim" fill="#404040">
                        <set attributeName="fill" to="#808080" begin="arrowDown.mouseover" end="arrowDown.mouseout"/>
                  </use>
                  <path fill="none" stroke="white" stroke-width="1.5" d="M0,-3.0v7 M-2.5,-0.5L0,-3.0L2.5,-0.5"/>
                </g>
                <g id="arrowLeft" xlink:href="#dirArrow" transform="rotate(270) translate(-36 17)" onmousedown="handlePan(-1,0)">
                  <use xlink:href="#rim" fill="#404040">
                        <set attributeName="fill" to="#808080" begin="arrowLeft.mouseover" end="arrowLeft.mouseout"/>
                  </use>
                  <path fill="none" stroke="white" stroke-width="1.5" d="M0,-3.0v7 M-2.5,-0.5L0,-3.0L2.5,-0.5"/>
                </g>
        </g>
        <svg viewBox="0 0 15 15" width="100%" height="30px" preserveAspectRatio="xMaxYMin meet">
         <g id="arrow_out" transform="scale(0.3 0.3)">
          <a xlink:href="classgestorempleados_1_1control_1_1_negocio_cliente_af4450308afb9d29f665e8bd22d221770_icgraph_org.svg" target="_base">
           <rect id="button" ry="5" rx="5" y="6" x="6" height="38" width="38"
                fill="#f2f5e9" fill-opacity="0.5" stroke="#606060" stroke-width="1.0"/>
           <path id="arrow"
             d="M 11.500037,31.436501 C 11.940474,20.09759 22.043105,11.32322 32.158766,21.979434 L 37.068811,17.246167 C 37.068811,17.246167 37.088388,32 37.088388,32 L 22.160133,31.978069 C 22.160133,31.978069 26.997745,27.140456 26.997745,27.140456 C 18.528582,18.264221 13.291696,25.230495 11.500037,31.436501 z"
             style="fill:#404040;"/>
          </a>
         </g>
        </svg>
</svg>
