<?xml version="1.0" encoding="UTF-8" standalone="no"?>
<!DOCTYPE svg PUBLIC "-//W3C//DTD SVG 1.1//EN"
 "http://www.w3.org/Graphics/SVG/1.1/DTD/svg11.dtd">
<!-- Generated by graphviz version 2.30.1 (20130214.1330)
 -->
<!-- Title: gestorempleados.control.NegocioCliente.getDepartamentos Pages: 1 -->
<svg width="510pt" height="111pt"
 viewBox="0.00 0.00 510.00 111.00" xmlns="http://www.w3.org/2000/svg" xmlns:xlink="http://www.w3.org/1999/xlink">
<g id="graph0" class="graph" transform="scale(1 1) rotate(0) translate(4 107)">
<title>gestorempleados.control.NegocioCliente.getDepartamentos</title>
<polygon fill="white" stroke="white" points="-4,5 -4,-107 507,-107 507,5 -4,5"/>
<!-- Node1 -->
<g id="node1" class="node"><title>Node1</title>
<polygon fill="#bfbfbf" stroke="black" points="0,-24 0,-54 164,-54 164,-24 0,-24"/>
<text text-anchor="start" x="8" y="-42" font-family="Helvetica,sans-Serif" font-size="10.00">gestorempleados.control.</text>
<text text-anchor="middle" x="82" y="-31" font-family="Helvetica,sans-Serif" font-size="10.00">NegocioCliente.getDepartamentos</text>
</g>
<!-- Node2 -->
<g id="node2" class="node"><title>Node2</title>
<g id="a_node2"><a xlink:href="classgestorempleados_1_1conector_1_1_conector_cliente.xhtml#a830dba55e91b371279078945cf0b84c5" target="_top" xlink:title="gestorempleados.conector.\lConectorCliente.sendPacket">
<polygon fill="white" stroke="black" points="200,-49 200,-79 340,-79 340,-49 200,-49"/>
<text text-anchor="start" x="208" y="-67" font-family="Helvetica,sans-Serif" font-size="10.00">gestorempleados.conector.</text>
<text text-anchor="middle" x="270" y="-56" font-family="Helvetica,sans-Serif" font-size="10.00">ConectorCliente.sendPacket</text>
</a>
</g>
</g>
<!-- Node1&#45;&gt;Node2 -->
<g id="edge1" class="edge"><title>Node1&#45;&gt;Node2</title>
<path fill="none" stroke="midnightblue" d="M164.041,-49.8926C172.626,-51.0464 181.348,-52.2188 189.91,-53.3696"/>
<polygon fill="midnightblue" stroke="midnightblue" points="189.491,-56.8447 199.869,-54.7081 190.424,-49.9071 189.491,-56.8447"/>
</g>
<!-- Node5 -->
<g id="node5" class="node"><title>Node5</title>
<g id="a_node5"><a xlink:href="classgestorempleados_1_1conector_1_1_packet.xhtml#a1c66a08626625f4771d9df33efc2ca2f" target="_top" xlink:title="gestorempleados.conector.\lPacket.getDepartamentos">
<polygon fill="white" stroke="black" points="203,-0 203,-30 337,-30 337,-0 203,-0"/>
<text text-anchor="start" x="211" y="-18" font-family="Helvetica,sans-Serif" font-size="10.00">gestorempleados.conector.</text>
<text text-anchor="middle" x="270" y="-7" font-family="Helvetica,sans-Serif" font-size="10.00">Packet.getDepartamentos</text>
</a>
</g>
</g>
<!-- Node1&#45;&gt;Node5 -->
<g id="edge4" class="edge"><title>Node1&#45;&gt;Node5</title>
<path fill="none" stroke="midnightblue" d="M164.041,-28.5431C173.531,-27.3186 183.19,-26.0723 192.613,-24.8563"/>
<polygon fill="midnightblue" stroke="midnightblue" points="193.258,-28.3023 202.728,-23.5513 192.362,-21.3599 193.258,-28.3023"/>
</g>
<!-- Node3 -->
<g id="node3" class="node"><title>Node3</title>
<g id="a_node3"><a xlink:href="classgestorempleados_1_1control_1_1_preferencias.xhtml#a8cb4ef0c12fd91286f0f3a63c48d40b0" target="_top" xlink:title="gestorempleados.control.\lPreferencias.getHost">
<polygon fill="white" stroke="black" points="376,-73 376,-103 502,-103 502,-73 376,-73"/>
<text text-anchor="start" x="384" y="-91" font-family="Helvetica,sans-Serif" font-size="10.00">gestorempleados.control.</text>
<text text-anchor="middle" x="439" y="-80" font-family="Helvetica,sans-Serif" font-size="10.00">Preferencias.getHost</text>
</a>
</g>
</g>
<!-- Node2&#45;&gt;Node3 -->
<g id="edge2" class="edge"><title>Node2&#45;&gt;Node3</title>
<path fill="none" stroke="midnightblue" d="M340.372,-73.9697C348.718,-75.1691 357.258,-76.3964 365.646,-77.6018"/>
<polygon fill="midnightblue" stroke="midnightblue" points="365.381,-81.0996 375.777,-79.0578 366.377,-74.1708 365.381,-81.0996"/>
</g>
<!-- Node4 -->
<g id="node4" class="node"><title>Node4</title>
<g id="a_node4"><a xlink:href="classgestorempleados_1_1control_1_1_preferencias.xhtml#ae64b723a46d579f7646e75aa453ed3c8" target="_top" xlink:title="gestorempleados.control.\lPreferencias.getPort">
<polygon fill="white" stroke="black" points="376,-24 376,-54 502,-54 502,-24 376,-24"/>
<text text-anchor="start" x="384" y="-42" font-family="Helvetica,sans-Serif" font-size="10.00">gestorempleados.control.</text>
<text text-anchor="middle" x="439" y="-31" font-family="Helvetica,sans-Serif" font-size="10.00">Preferencias.getPort</text>
</a>
</g>
</g>
<!-- Node2&#45;&gt;Node4 -->
<g id="edge3" class="edge"><title>Node2&#45;&gt;Node4</title>
<path fill="none" stroke="midnightblue" d="M340.372,-53.6149C348.718,-52.3655 357.258,-51.0871 365.646,-49.8315"/>
<polygon fill="midnightblue" stroke="midnightblue" points="366.406,-53.2568 375.777,-48.3148 365.369,-46.3339 366.406,-53.2568"/>
</g>
</g>
</svg>
