<?xml version="1.0" encoding="UTF-8" standalone="no"?>
<!DOCTYPE svg PUBLIC "-//W3C//DTD SVG 1.1//EN"
 "http://www.w3.org/Graphics/SVG/1.1/DTD/svg11.dtd">
<!-- Generated by graphviz version 2.30.1 (20130214.1330)
 -->
<!-- Title: gestorempleados.interficie.Panel_Contrato Pages: 1 -->
<svg width="958pt" height="994pt"
 viewBox="0.00 0.00 957.79 994.00" xmlns="http://www.w3.org/2000/svg" xmlns:xlink="http://www.w3.org/1999/xlink">
<g id="graph0" class="graph" transform="scale(1 1) rotate(0) translate(4 990)">
<title>gestorempleados.interficie.Panel_Contrato</title>
<polygon fill="white" stroke="white" points="-4,5 -4,-990 954.794,-990 954.794,5 -4,5"/>
<!-- Node1 -->
<g id="node1" class="node"><title>Node1</title>
<polygon fill="#bfbfbf" stroke="black" points="400.294,-1 400.294,-553 533.294,-553 533.294,-1 400.294,-1"/>
<text text-anchor="start" x="408.294" y="-541" font-family="Helvetica,sans-Serif" font-size="10.00">gestorempleados.interficie.</text>
<text text-anchor="middle" x="466.794" y="-530" font-family="Helvetica,sans-Serif" font-size="10.00">Panel_Contrato</text>
<polyline fill="none" stroke="black" points="400.294,-523 533.294,-523 "/>
<text text-anchor="start" x="408.294" y="-511" font-family="Helvetica,sans-Serif" font-size="10.00">+ panelEstado</text>
<text text-anchor="start" x="408.294" y="-500" font-family="Helvetica,sans-Serif" font-size="10.00">+ nuevo_contratoPanel</text>
<text text-anchor="start" x="408.294" y="-489" font-family="Helvetica,sans-Serif" font-size="10.00">+ datos_temporalPanel</text>
<text text-anchor="start" x="408.294" y="-478" font-family="Helvetica,sans-Serif" font-size="10.00">+ camposContratoOK</text>
<text text-anchor="start" x="408.294" y="-467" font-family="Helvetica,sans-Serif" font-size="10.00">&#45; sedePanel</text>
<text text-anchor="start" x="408.294" y="-456" font-family="Helvetica,sans-Serif" font-size="10.00">&#45; modalidaPanel</text>
<text text-anchor="start" x="408.294" y="-445" font-family="Helvetica,sans-Serif" font-size="10.00">&#45; clasePanel</text>
<text text-anchor="start" x="408.294" y="-434" font-family="Helvetica,sans-Serif" font-size="10.00">&#45; salarioPanel</text>
<text text-anchor="start" x="408.294" y="-423" font-family="Helvetica,sans-Serif" font-size="10.00">&#45; clausulaPanel</text>
<text text-anchor="start" x="408.294" y="-412" font-family="Helvetica,sans-Serif" font-size="10.00">&#45; medicoPanel</text>
<text text-anchor="start" x="408.294" y="-401" font-family="Helvetica,sans-Serif" font-size="10.00">&#45; idContrato</text>
<polyline fill="none" stroke="black" points="400.294,-394 533.294,-394 "/>
<text text-anchor="start" x="408.294" y="-382" font-family="Helvetica,sans-Serif" font-size="10.00">+ Panel_Contrato()</text>
<text text-anchor="start" x="408.294" y="-371" font-family="Helvetica,sans-Serif" font-size="10.00">+ getDepartamento()</text>
<text text-anchor="start" x="408.294" y="-360" font-family="Helvetica,sans-Serif" font-size="10.00">+ setDepartamento()</text>
<text text-anchor="start" x="408.294" y="-349" font-family="Helvetica,sans-Serif" font-size="10.00">+ getCargo()</text>
<text text-anchor="start" x="408.294" y="-338" font-family="Helvetica,sans-Serif" font-size="10.00">+ setCargo()</text>
<text text-anchor="start" x="408.294" y="-327" font-family="Helvetica,sans-Serif" font-size="10.00">+ getMotivo()</text>
<text text-anchor="start" x="408.294" y="-316" font-family="Helvetica,sans-Serif" font-size="10.00">+ setMotivo()</text>
<text text-anchor="start" x="408.294" y="-305" font-family="Helvetica,sans-Serif" font-size="10.00">+ getOrigen()</text>
<text text-anchor="start" x="408.294" y="-294" font-family="Helvetica,sans-Serif" font-size="10.00">+ setOrigen()</text>
<text text-anchor="start" x="408.294" y="-283" font-family="Helvetica,sans-Serif" font-size="10.00">+ getSede()</text>
<text text-anchor="start" x="408.294" y="-272" font-family="Helvetica,sans-Serif" font-size="10.00">+ setSede()</text>
<text text-anchor="start" x="408.294" y="-261" font-family="Helvetica,sans-Serif" font-size="10.00">+ getSalario()</text>
<text text-anchor="start" x="408.294" y="-250" font-family="Helvetica,sans-Serif" font-size="10.00">+ setSalario()</text>
<text text-anchor="start" x="408.294" y="-239" font-family="Helvetica,sans-Serif" font-size="10.00">+ getModalidad()</text>
<text text-anchor="start" x="408.294" y="-228" font-family="Helvetica,sans-Serif" font-size="10.00">+ setModalidad()</text>
<text text-anchor="start" x="408.294" y="-217" font-family="Helvetica,sans-Serif" font-size="10.00">+ getClase()</text>
<text text-anchor="start" x="408.294" y="-206" font-family="Helvetica,sans-Serif" font-size="10.00">+ setClase()</text>
<text text-anchor="start" x="408.294" y="-195" font-family="Helvetica,sans-Serif" font-size="10.00">+ getFecha_inicio()</text>
<text text-anchor="start" x="408.294" y="-184" font-family="Helvetica,sans-Serif" font-size="10.00">+ setFecha_inicio()</text>
<text text-anchor="start" x="408.294" y="-173" font-family="Helvetica,sans-Serif" font-size="10.00">+ getFecha_fin()</text>
<text text-anchor="start" x="408.294" y="-162" font-family="Helvetica,sans-Serif" font-size="10.00">+ setFecha_fin()</text>
<text text-anchor="start" x="408.294" y="-151" font-family="Helvetica,sans-Serif" font-size="10.00">+ getPeriodoPrueba()</text>
<text text-anchor="start" x="408.294" y="-140" font-family="Helvetica,sans-Serif" font-size="10.00">+ setPeriodoPrueba()</text>
<text text-anchor="start" x="408.294" y="-129" font-family="Helvetica,sans-Serif" font-size="10.00">+ getPreaviso()</text>
<text text-anchor="start" x="408.294" y="-118" font-family="Helvetica,sans-Serif" font-size="10.00">+ setPreaviso()</text>
<text text-anchor="start" x="408.294" y="-107" font-family="Helvetica,sans-Serif" font-size="10.00">+ getClausula()</text>
<text text-anchor="start" x="408.294" y="-96" font-family="Helvetica,sans-Serif" font-size="10.00">+ setClausula()</text>
<text text-anchor="start" x="408.294" y="-85" font-family="Helvetica,sans-Serif" font-size="10.00">+ getSalud()</text>
<text text-anchor="start" x="408.294" y="-74" font-family="Helvetica,sans-Serif" font-size="10.00">+ setSalud()</text>
<text text-anchor="start" x="408.294" y="-63" font-family="Helvetica,sans-Serif" font-size="10.00">+ getVida()</text>
<text text-anchor="start" x="408.294" y="-52" font-family="Helvetica,sans-Serif" font-size="10.00">+ setVida()</text>
<text text-anchor="start" x="408.294" y="-41" font-family="Helvetica,sans-Serif" font-size="10.00">+ setIDContrato()</text>
<text text-anchor="start" x="408.294" y="-30" font-family="Helvetica,sans-Serif" font-size="10.00">+ getIDContrato()</text>
<text text-anchor="start" x="408.294" y="-19" font-family="Helvetica,sans-Serif" font-size="10.00">+ getActivo()</text>
<text text-anchor="start" x="408.294" y="-8" font-family="Helvetica,sans-Serif" font-size="10.00">+ setActivo()</text>
</g>
<!-- Node2 -->
<g id="node2" class="node"><title>Node2</title>
<polygon fill="white" stroke="#bfbfbf" points="41.7945,-928.5 41.7945,-985.5 87.7945,-985.5 87.7945,-928.5 41.7945,-928.5"/>
<text text-anchor="middle" x="64.7945" y="-973.5" font-family="Helvetica,sans-Serif" font-size="10.00">JPanel</text>
<polyline fill="none" stroke="#bfbfbf" points="41.7945,-966.5 87.7945,-966.5 "/>
<text text-anchor="middle" x="64.7945" y="-954.5" font-family="Helvetica,sans-Serif" font-size="10.00"> </text>
<polyline fill="none" stroke="#bfbfbf" points="41.7945,-947.5 87.7945,-947.5 "/>
<text text-anchor="middle" x="64.7945" y="-935.5" font-family="Helvetica,sans-Serif" font-size="10.00"> </text>
</g>
<!-- Node2&#45;&gt;Node1 -->
<g id="edge1" class="edge"><title>Node2&#45;&gt;Node1</title>
<path fill="none" stroke="midnightblue" d="M38.2722,-919.651C36.5859,-916.476 35.0606,-913.237 33.7945,-910 25.2772,-888.223 27.5774,-881.315 25.7945,-858 16.0984,-731.209 -30.9972,-681.416 33.7945,-572 118.056,-429.704 301.36,-341.138 400.292,-301.826"/>
<polygon fill="none" stroke="midnightblue" points="35.3039,-921.509 43.369,-928.38 41.3487,-917.979 35.3039,-921.509"/>
</g>
<!-- Node4 -->
<g id="node4" class="node"><title>Node4</title>
<g id="a_node4"><a xlink:href="classgestorempleados_1_1interficie_1_1_calendario.xhtml" target="_top" xlink:title="{gestorempleados.interficie.\lCalendario\n|~ diaMax\l~ inicioMes\l~ meses\l~ dia\l~ mes\l~ year\l|+ getDia()\l+ setDia()\l+ getMes()\l+ setMes()\l+ getAno()\l+ setAno()\l+ Calendario()\l+ dibujar()\l}">
<polygon fill="white" stroke="black" points="238.294,-657 238.294,-857 371.294,-857 371.294,-657 238.294,-657"/>
<text text-anchor="start" x="246.294" y="-845" font-family="Helvetica,sans-Serif" font-size="10.00">gestorempleados.interficie.</text>
<text text-anchor="middle" x="304.794" y="-834" font-family="Helvetica,sans-Serif" font-size="10.00">Calendario</text>
<polyline fill="none" stroke="black" points="238.294,-827 371.294,-827 "/>
<text text-anchor="start" x="246.294" y="-815" font-family="Helvetica,sans-Serif" font-size="10.00">~ diaMax</text>
<text text-anchor="start" x="246.294" y="-804" font-family="Helvetica,sans-Serif" font-size="10.00">~ inicioMes</text>
<text text-anchor="start" x="246.294" y="-793" font-family="Helvetica,sans-Serif" font-size="10.00">~ meses</text>
<text text-anchor="start" x="246.294" y="-782" font-family="Helvetica,sans-Serif" font-size="10.00">~ dia</text>
<text text-anchor="start" x="246.294" y="-771" font-family="Helvetica,sans-Serif" font-size="10.00">~ mes</text>
<text text-anchor="start" x="246.294" y="-760" font-family="Helvetica,sans-Serif" font-size="10.00">~ year</text>
<polyline fill="none" stroke="black" points="238.294,-753 371.294,-753 "/>
<text text-anchor="start" x="246.294" y="-741" font-family="Helvetica,sans-Serif" font-size="10.00">+ getDia()</text>
<text text-anchor="start" x="246.294" y="-730" font-family="Helvetica,sans-Serif" font-size="10.00">+ setDia()</text>
<text text-anchor="start" x="246.294" y="-719" font-family="Helvetica,sans-Serif" font-size="10.00">+ getMes()</text>
<text text-anchor="start" x="246.294" y="-708" font-family="Helvetica,sans-Serif" font-size="10.00">+ setMes()</text>
<text text-anchor="start" x="246.294" y="-697" font-family="Helvetica,sans-Serif" font-size="10.00">+ getAno()</text>
<text text-anchor="start" x="246.294" y="-686" font-family="Helvetica,sans-Serif" font-size="10.00">+ setAno()</text>
<text text-anchor="start" x="246.294" y="-675" font-family="Helvetica,sans-Serif" font-size="10.00">+ Calendario()</text>
<text text-anchor="start" x="246.294" y="-664" font-family="Helvetica,sans-Serif" font-size="10.00">+ dibujar()</text>
</a>
</g>
</g>
<!-- Node2&#45;&gt;Node4 -->
<g id="edge4" class="edge"><title>Node2&#45;&gt;Node4</title>
<path fill="none" stroke="midnightblue" d="M96.148,-932.066C123.207,-911.701 160.44,-884.447 176.794,-876 198.524,-864.777 208.991,-872.351 228.794,-858 231.973,-855.697 235.08,-853.223 238.11,-850.614"/>
<polygon fill="none" stroke="midnightblue" points="93.9811,-929.316 88.1114,-938.137 98.2004,-934.902 93.9811,-929.316"/>
</g>
<!-- Node2&#45;&gt;Node4 -->
<g id="edge9" class="edge"><title>Node2&#45;&gt;Node4</title>
<path fill="none" stroke="#404040" d="M64.2524,-928.257C65.4884,-910.684 70.2221,-888.913 84.7945,-876 130.333,-835.648 168.367,-884.062 227.306,-857.523"/>
<polygon fill="none" stroke="#404040" points="227.502,-857.422 230.987,-851.109 238.154,-851.897 234.67,-858.21 227.502,-857.422"/>
<text text-anchor="middle" x="104.794" y="-896" font-family="Helvetica,sans-Serif" font-size="10.00"> ~panel</text>
<text text-anchor="middle" x="104.794" y="-885" font-family="Helvetica,sans-Serif" font-size="10.00">~panel_1</text>
</g>
<!-- Node2&#45;&gt;Node1 -->
<g id="edge16" class="edge"><title>Node2&#45;&gt;Node1</title>
<path fill="none" stroke="#404040" d="M56.5893,-928.448C41.8707,-873.769 16.1222,-748.818 56.7945,-656 124.653,-501.139 290.728,-381.656 389.438,-321.349"/>
<polygon fill="none" stroke="#404040" points="389.682,-321.201 392.748,-314.674 399.952,-314.993 396.886,-321.521 389.682,-321.201"/>
<text text-anchor="middle" x="100.794" y="-809.5" font-family="Helvetica,sans-Serif" font-size="10.00"> &#45;motivoPanel</text>
<text text-anchor="middle" x="100.794" y="-798.5" font-family="Helvetica,sans-Serif" font-size="10.00">&#45;cargoPanel</text>
<text text-anchor="middle" x="100.794" y="-787.5" font-family="Helvetica,sans-Serif" font-size="10.00">&#45;preavisoPanel</text>
<text text-anchor="middle" x="100.794" y="-776.5" font-family="Helvetica,sans-Serif" font-size="10.00">+contratosPanel</text>
<text text-anchor="middle" x="100.794" y="-765.5" font-family="Helvetica,sans-Serif" font-size="10.00">&#45;fecha_inicioPanel</text>
<text text-anchor="middle" x="100.794" y="-754.5" font-family="Helvetica,sans-Serif" font-size="10.00">&#45;origenPanel</text>
<text text-anchor="middle" x="100.794" y="-743.5" font-family="Helvetica,sans-Serif" font-size="10.00">&#45;departamentoPanel</text>
<text text-anchor="middle" x="100.794" y="-732.5" font-family="Helvetica,sans-Serif" font-size="10.00">&#45;fecha_finPanel</text>
<text text-anchor="middle" x="100.794" y="-721.5" font-family="Helvetica,sans-Serif" font-size="10.00">&#45;vidaPanel</text>
<text text-anchor="middle" x="100.794" y="-710.5" font-family="Helvetica,sans-Serif" font-size="10.00">&#45;pruebaPanel</text>
<text text-anchor="middle" x="100.794" y="-699.5" font-family="Helvetica,sans-Serif" font-size="10.00">...</text>
</g>
<!-- Node3 -->
<g id="node3" class="node"><title>Node3</title>
<polygon fill="white" stroke="#bfbfbf" points="153.794,-728.5 153.794,-785.5 219.794,-785.5 219.794,-728.5 153.794,-728.5"/>
<text text-anchor="middle" x="186.794" y="-773.5" font-family="Helvetica,sans-Serif" font-size="10.00">JCheckBox</text>
<polyline fill="none" stroke="#bfbfbf" points="153.794,-766.5 219.794,-766.5 "/>
<text text-anchor="middle" x="186.794" y="-754.5" font-family="Helvetica,sans-Serif" font-size="10.00"> </text>
<polyline fill="none" stroke="#bfbfbf" points="153.794,-747.5 219.794,-747.5 "/>
<text text-anchor="middle" x="186.794" y="-735.5" font-family="Helvetica,sans-Serif" font-size="10.00"> </text>
</g>
<!-- Node3&#45;&gt;Node1 -->
<g id="edge2" class="edge"><title>Node3&#45;&gt;Node1</title>
<path fill="none" stroke="#404040" d="M187.55,-728.481C189.512,-691.303 196.456,-623.735 220.794,-572 261.873,-484.683 335.333,-401.964 391.316,-346.645"/>
<polygon fill="none" stroke="#404040" points="391.567,-346.399 393.058,-339.344 400.143,-338.005 398.653,-345.061 391.567,-346.399"/>
<text text-anchor="middle" x="260.794" y="-630" font-family="Helvetica,sans-Serif" font-size="10.00"> &#45;indefinidoChckbx</text>
<text text-anchor="middle" x="260.794" y="-619" font-family="Helvetica,sans-Serif" font-size="10.00">&#45;clausulaChck</text>
<text text-anchor="middle" x="260.794" y="-608" font-family="Helvetica,sans-Serif" font-size="10.00">&#45;saludChk</text>
<text text-anchor="middle" x="260.794" y="-597" font-family="Helvetica,sans-Serif" font-size="10.00">&#45;fechafinChkBx</text>
<text text-anchor="middle" x="260.794" y="-586" font-family="Helvetica,sans-Serif" font-size="10.00">&#45;temporalchckbx</text>
<text text-anchor="middle" x="260.794" y="-575" font-family="Helvetica,sans-Serif" font-size="10.00">&#45;vidaChk</text>
</g>
<!-- Node4&#45;&gt;Node1 -->
<g id="edge3" class="edge"><title>Node4&#45;&gt;Node1</title>
<path fill="none" stroke="#404040" d="M302.534,-656.898C303.949,-629.052 307.443,-599.01 314.794,-572 331.982,-508.847 363.967,-443.688 394.179,-390.811"/>
<polygon fill="none" stroke="#404040" points="394.189,-390.794 393.727,-383.598 400.193,-380.404 400.654,-387.6 394.189,-390.794"/>
<text text-anchor="middle" x="354.294" y="-608" font-family="Helvetica,sans-Serif" font-size="10.00"> &#45;calendario_inicio</text>
<text text-anchor="middle" x="354.294" y="-597" font-family="Helvetica,sans-Serif" font-size="10.00">&#45;calendario_fin</text>
</g>
<!-- Node5 -->
<g id="node5" class="node"><title>Node5</title>
<polygon fill="white" stroke="#bfbfbf" points="142.294,-928.5 142.294,-985.5 197.294,-985.5 197.294,-928.5 142.294,-928.5"/>
<text text-anchor="middle" x="169.794" y="-973.5" font-family="Helvetica,sans-Serif" font-size="10.00">Calendar</text>
<polyline fill="none" stroke="#bfbfbf" points="142.294,-966.5 197.294,-966.5 "/>
<text text-anchor="middle" x="169.794" y="-954.5" font-family="Helvetica,sans-Serif" font-size="10.00"> </text>
<polyline fill="none" stroke="#bfbfbf" points="142.294,-947.5 197.294,-947.5 "/>
<text text-anchor="middle" x="169.794" y="-935.5" font-family="Helvetica,sans-Serif" font-size="10.00"> </text>
</g>
<!-- Node5&#45;&gt;Node4 -->
<g id="edge5" class="edge"><title>Node5&#45;&gt;Node4</title>
<path fill="none" stroke="#404040" d="M174.429,-928.412C178.362,-911.774 185.42,-890.972 197.794,-876 207.944,-863.72 216.854,-868.547 228.794,-858 228.891,-857.914 228.988,-857.828 229.085,-857.742"/>
<polygon fill="none" stroke="#404040" points="229.235,-857.602 230.862,-850.577 237.973,-849.377 236.345,-856.402 229.235,-857.602"/>
<text text-anchor="middle" x="224.794" y="-896" font-family="Helvetica,sans-Serif" font-size="10.00"> ~calendario</text>
<text text-anchor="middle" x="224.794" y="-885" font-family="Helvetica,sans-Serif" font-size="10.00">~calcopia</text>
</g>
<!-- Node6 -->
<g id="node6" class="node"><title>Node6</title>
<polygon fill="white" stroke="#bfbfbf" points="217.794,-928.5 217.794,-985.5 271.794,-985.5 271.794,-928.5 217.794,-928.5"/>
<text text-anchor="middle" x="244.794" y="-973.5" font-family="Helvetica,sans-Serif" font-size="10.00">JSpinner</text>
<polyline fill="none" stroke="#bfbfbf" points="217.794,-966.5 271.794,-966.5 "/>
<text text-anchor="middle" x="244.794" y="-954.5" font-family="Helvetica,sans-Serif" font-size="10.00"> </text>
<polyline fill="none" stroke="#bfbfbf" points="217.794,-947.5 271.794,-947.5 "/>
<text text-anchor="middle" x="244.794" y="-935.5" font-family="Helvetica,sans-Serif" font-size="10.00"> </text>
</g>
<!-- Node6&#45;&gt;Node4 -->
<g id="edge6" class="edge"><title>Node6&#45;&gt;Node4</title>
<path fill="none" stroke="#404040" d="M250.621,-928.421C254.077,-912.917 258.758,-893.267 263.794,-876 264.494,-873.601 265.214,-871.179 265.951,-868.74"/>
<polygon fill="none" stroke="#404040" points="265.963,-868.701 263.915,-861.786 269.509,-857.237 271.557,-864.151 265.963,-868.701"/>
<text text-anchor="middle" x="280.794" y="-896" font-family="Helvetica,sans-Serif" font-size="10.00"> ~spDia</text>
<text text-anchor="middle" x="280.794" y="-885" font-family="Helvetica,sans-Serif" font-size="10.00">~spAno</text>
</g>
<!-- Node7 -->
<g id="node7" class="node"><title>Node7</title>
<polygon fill="white" stroke="#bfbfbf" points="290.294,-928.5 290.294,-985.5 359.294,-985.5 359.294,-928.5 290.294,-928.5"/>
<text text-anchor="middle" x="324.794" y="-973.5" font-family="Helvetica,sans-Serif" font-size="10.00">JComboBox</text>
<polyline fill="none" stroke="#bfbfbf" points="290.294,-966.5 359.294,-966.5 "/>
<text text-anchor="middle" x="324.794" y="-954.5" font-family="Helvetica,sans-Serif" font-size="10.00"> </text>
<polyline fill="none" stroke="#bfbfbf" points="290.294,-947.5 359.294,-947.5 "/>
<text text-anchor="middle" x="324.794" y="-935.5" font-family="Helvetica,sans-Serif" font-size="10.00"> </text>
</g>
<!-- Node7&#45;&gt;Node4 -->
<g id="edge7" class="edge"><title>Node7&#45;&gt;Node4</title>
<path fill="none" stroke="#404040" d="M311.365,-928.32C309.067,-922.405 307.025,-916.098 305.794,-910 303.15,-896.895 301.513,-883.025 300.588,-869.205"/>
<polygon fill="none" stroke="#404040" points="300.581,-869.077 296.272,-863.295 299.951,-857.093 304.261,-862.875 300.581,-869.077"/>
<text text-anchor="middle" x="325.294" y="-890.5" font-family="Helvetica,sans-Serif" font-size="10.00"> ~cbMes</text>
</g>
<!-- Node7&#45;&gt;Node1 -->
<g id="edge13" class="edge"><title>Node7&#45;&gt;Node1</title>
<path fill="none" stroke="#404040" d="M344.049,-928.134C356.208,-909.19 371.192,-883.101 379.794,-858 398.583,-803.173 417.866,-682.415 433.488,-565.204"/>
<polygon fill="none" stroke="#404040" points="433.509,-565.039 430.331,-558.566 435.084,-553.143 438.262,-559.616 433.509,-565.039"/>
<text text-anchor="middle" x="462.294" y="-776.5" font-family="Helvetica,sans-Serif" font-size="10.00"> &#45;cargoCmb</text>
<text text-anchor="middle" x="462.294" y="-765.5" font-family="Helvetica,sans-Serif" font-size="10.00">&#45;sedeCmb</text>
<text text-anchor="middle" x="462.294" y="-754.5" font-family="Helvetica,sans-Serif" font-size="10.00">&#45;departamentoCmb</text>
<text text-anchor="middle" x="462.294" y="-743.5" font-family="Helvetica,sans-Serif" font-size="10.00">&#45;origenCmb</text>
<text text-anchor="middle" x="462.294" y="-732.5" font-family="Helvetica,sans-Serif" font-size="10.00">&#45;claseCmb</text>
</g>
<!-- Node8 -->
<g id="node8" class="node"><title>Node8</title>
<polygon fill="white" stroke="#bfbfbf" points="502.794,-928.5 502.794,-985.5 546.794,-985.5 546.794,-928.5 502.794,-928.5"/>
<text text-anchor="middle" x="524.794" y="-973.5" font-family="Helvetica,sans-Serif" font-size="10.00">JLabel</text>
<polyline fill="none" stroke="#bfbfbf" points="502.794,-966.5 546.794,-966.5 "/>
<text text-anchor="middle" x="524.794" y="-954.5" font-family="Helvetica,sans-Serif" font-size="10.00"> </text>
<polyline fill="none" stroke="#bfbfbf" points="502.794,-947.5 546.794,-947.5 "/>
<text text-anchor="middle" x="524.794" y="-935.5" font-family="Helvetica,sans-Serif" font-size="10.00"> </text>
</g>
<!-- Node8&#45;&gt;Node4 -->
<g id="edge8" class="edge"><title>Node8&#45;&gt;Node4</title>
<path fill="none" stroke="#404040" d="M502.661,-939.814C492.094,-931.526 479.639,-920.901 469.794,-910 457.567,-896.46 461.52,-886.77 446.794,-876 423.979,-859.313 409.307,-873.69 385.794,-858 384.255,-856.973 382.731,-855.908 381.223,-854.808"/>
<polygon fill="none" stroke="#404040" points="380.893,-854.547 373.707,-853.947 371.496,-847.083 378.683,-847.683 380.893,-854.547"/>
<text text-anchor="middle" x="498.794" y="-901.5" font-family="Helvetica,sans-Serif" font-size="10.00"> ~lblAo</text>
<text text-anchor="middle" x="498.794" y="-890.5" font-family="Helvetica,sans-Serif" font-size="10.00">~lblMes</text>
<text text-anchor="middle" x="498.794" y="-879.5" font-family="Helvetica,sans-Serif" font-size="10.00">~lblNewLabel</text>
</g>
<!-- Node8&#45;&gt;Node1 -->
<g id="edge14" class="edge"><title>Node8&#45;&gt;Node1</title>
<path fill="none" stroke="#404040" d="M527.041,-928.224C527.983,-912.831 528.677,-893.351 527.794,-876 522.63,-774.471 512.563,-663.62 502.072,-565.243"/>
<polygon fill="none" stroke="#404040" points="502.072,-565.24 497.454,-559.702 500.791,-553.309 505.409,-558.848 502.072,-565.24"/>
<text text-anchor="middle" x="569.794" y="-809.5" font-family="Helvetica,sans-Serif" font-size="10.00"> &#45;prueba_mesesLbl</text>
<text text-anchor="middle" x="569.794" y="-798.5" font-family="Helvetica,sans-Serif" font-size="10.00">&#45;preavisoLbl</text>
<text text-anchor="middle" x="569.794" y="-787.5" font-family="Helvetica,sans-Serif" font-size="10.00">&#45;lblSeguroMdico</text>
<text text-anchor="middle" x="569.794" y="-776.5" font-family="Helvetica,sans-Serif" font-size="10.00">&#45;lblSeguroDeVida</text>
<text text-anchor="middle" x="569.794" y="-765.5" font-family="Helvetica,sans-Serif" font-size="10.00">&#45;calusulaLbl</text>
<text text-anchor="middle" x="569.794" y="-754.5" font-family="Helvetica,sans-Serif" font-size="10.00">&#45;lblbrutosao</text>
<text text-anchor="middle" x="569.794" y="-743.5" font-family="Helvetica,sans-Serif" font-size="10.00">&#45;contratoLbl</text>
<text text-anchor="middle" x="569.794" y="-732.5" font-family="Helvetica,sans-Serif" font-size="10.00">&#45;periodoLbl</text>
<text text-anchor="middle" x="569.794" y="-721.5" font-family="Helvetica,sans-Serif" font-size="10.00">&#45;num_contratoLbl</text>
<text text-anchor="middle" x="569.794" y="-710.5" font-family="Helvetica,sans-Serif" font-size="10.00">&#45;preaviso_mesesLbl</text>
<text text-anchor="middle" x="569.794" y="-699.5" font-family="Helvetica,sans-Serif" font-size="10.00">...</text>
</g>
<!-- Node9 -->
<g id="node9" class="node"><title>Node9</title>
<polygon fill="white" stroke="#bfbfbf" points="377.294,-928.5 377.294,-985.5 468.294,-985.5 468.294,-928.5 377.294,-928.5"/>
<text text-anchor="middle" x="422.794" y="-973.5" font-family="Helvetica,sans-Serif" font-size="10.00">Vector&lt; JLabel &gt;</text>
<polyline fill="none" stroke="#bfbfbf" points="377.294,-966.5 468.294,-966.5 "/>
<text text-anchor="middle" x="422.794" y="-954.5" font-family="Helvetica,sans-Serif" font-size="10.00"> </text>
<polyline fill="none" stroke="#bfbfbf" points="377.294,-947.5 468.294,-947.5 "/>
<text text-anchor="middle" x="422.794" y="-935.5" font-family="Helvetica,sans-Serif" font-size="10.00"> </text>
</g>
<!-- Node9&#45;&gt;Node4 -->
<g id="edge10" class="edge"><title>Node9&#45;&gt;Node4</title>
<path fill="none" stroke="#404040" d="M404.469,-928.422C400.556,-922.389 396.49,-916.01 392.794,-910 384.44,-896.414 375.826,-882.035 367.407,-867.754"/>
<polygon fill="none" stroke="#404040" points="367.394,-867.732 360.906,-864.584 361.317,-857.384 367.805,-860.533 367.394,-867.732"/>
<text text-anchor="middle" x="419.794" y="-896" font-family="Helvetica,sans-Serif" font-size="10.00"> ~vLabelLet</text>
<text text-anchor="middle" x="419.794" y="-885" font-family="Helvetica,sans-Serif" font-size="10.00">~vLabelNum</text>
</g>
<!-- Node10 -->
<g id="node10" class="node"><title>Node10</title>
<polygon fill="white" stroke="#bfbfbf" points="631.294,-728.5 631.294,-785.5 692.294,-785.5 692.294,-728.5 631.294,-728.5"/>
<text text-anchor="middle" x="661.794" y="-773.5" font-family="Helvetica,sans-Serif" font-size="10.00">JTextField</text>
<polyline fill="none" stroke="#bfbfbf" points="631.294,-766.5 692.294,-766.5 "/>
<text text-anchor="middle" x="661.794" y="-754.5" font-family="Helvetica,sans-Serif" font-size="10.00"> </text>
<polyline fill="none" stroke="#bfbfbf" points="631.294,-747.5 692.294,-747.5 "/>
<text text-anchor="middle" x="661.794" y="-735.5" font-family="Helvetica,sans-Serif" font-size="10.00"> </text>
</g>
<!-- Node10&#45;&gt;Node1 -->
<g id="edge11" class="edge"><title>Node10&#45;&gt;Node1</title>
<path fill="none" stroke="#404040" d="M650.468,-728.235C628.782,-675.078 579.829,-555.079 537.911,-452.327"/>
<polygon fill="none" stroke="#404040" points="537.891,-452.278 531.921,-448.234 533.359,-441.167 539.329,-445.212 537.891,-452.278"/>
<text text-anchor="middle" x="635.794" y="-619" font-family="Helvetica,sans-Serif" font-size="10.00"> &#45;pruebaTxt</text>
<text text-anchor="middle" x="635.794" y="-608" font-family="Helvetica,sans-Serif" font-size="10.00">&#45;motivoTxt</text>
<text text-anchor="middle" x="635.794" y="-597" font-family="Helvetica,sans-Serif" font-size="10.00">&#45;salarioTxt</text>
<text text-anchor="middle" x="635.794" y="-586" font-family="Helvetica,sans-Serif" font-size="10.00">&#45;preavisoTxt</text>
</g>
<!-- Node11 -->
<g id="node11" class="node"><title>Node11</title>
<polygon fill="white" stroke="#bfbfbf" points="710.294,-728.5 710.294,-785.5 781.294,-785.5 781.294,-728.5 710.294,-728.5"/>
<text text-anchor="middle" x="745.794" y="-773.5" font-family="Helvetica,sans-Serif" font-size="10.00">ButtonGroup</text>
<polyline fill="none" stroke="#bfbfbf" points="710.294,-766.5 781.294,-766.5 "/>
<text text-anchor="middle" x="745.794" y="-754.5" font-family="Helvetica,sans-Serif" font-size="10.00"> </text>
<polyline fill="none" stroke="#bfbfbf" points="710.294,-747.5 781.294,-747.5 "/>
<text text-anchor="middle" x="745.794" y="-735.5" font-family="Helvetica,sans-Serif" font-size="10.00"> </text>
</g>
<!-- Node11&#45;&gt;Node1 -->
<g id="edge12" class="edge"><title>Node11&#45;&gt;Node1</title>
<path fill="none" stroke="#404040" d="M735.654,-728.439C721.76,-691.788 695.157,-625.42 665.794,-572 628.615,-504.359 580.19,-432.541 540.418,-376.82"/>
<polygon fill="none" stroke="#404040" points="540.343,-376.715 533.597,-374.168 533.353,-366.961 540.099,-369.508 540.343,-376.715"/>
<text text-anchor="middle" x="726.294" y="-608" font-family="Helvetica,sans-Serif" font-size="10.00"> &#45;checkgroup</text>
<text text-anchor="middle" x="726.294" y="-597" font-family="Helvetica,sans-Serif" font-size="10.00">&#45;buttonGroup</text>
</g>
<!-- Node12 -->
<g id="node12" class="node"><title>Node12</title>
<polygon fill="white" stroke="#bfbfbf" points="799.294,-728.5 799.294,-785.5 836.294,-785.5 836.294,-728.5 799.294,-728.5"/>
<text text-anchor="middle" x="817.794" y="-773.5" font-family="Helvetica,sans-Serif" font-size="10.00">JList</text>
<polyline fill="none" stroke="#bfbfbf" points="799.294,-766.5 836.294,-766.5 "/>
<text text-anchor="middle" x="817.794" y="-754.5" font-family="Helvetica,sans-Serif" font-size="10.00"> </text>
<polyline fill="none" stroke="#bfbfbf" points="799.294,-747.5 836.294,-747.5 "/>
<text text-anchor="middle" x="817.794" y="-735.5" font-family="Helvetica,sans-Serif" font-size="10.00"> </text>
</g>
<!-- Node12&#45;&gt;Node1 -->
<g id="edge15" class="edge"><title>Node12&#45;&gt;Node1</title>
<path fill="none" stroke="#404040" d="M813.47,-728.229C806.615,-690.469 790.634,-621.92 758.794,-572 699.892,-479.65 607.761,-393.151 542.764,-338.212"/>
<polygon fill="none" stroke="#404040" points="542.572,-338.051 535.405,-337.259 533.379,-330.338 540.546,-331.13 542.572,-338.051"/>
<text text-anchor="middle" x="821.794" y="-602.5" font-family="Helvetica,sans-Serif" font-size="10.00"> +contratosList</text>
</g>
<!-- Node13 -->
<g id="node13" class="node"><title>Node13</title>
<polygon fill="white" stroke="#bfbfbf" points="869.794,-728.5 869.794,-785.5 943.794,-785.5 943.794,-728.5 869.794,-728.5"/>
<text text-anchor="middle" x="906.794" y="-773.5" font-family="Helvetica,sans-Serif" font-size="10.00">JRadioButton</text>
<polyline fill="none" stroke="#bfbfbf" points="869.794,-766.5 943.794,-766.5 "/>
<text text-anchor="middle" x="906.794" y="-754.5" font-family="Helvetica,sans-Serif" font-size="10.00"> </text>
<polyline fill="none" stroke="#bfbfbf" points="869.794,-747.5 943.794,-747.5 "/>
<text text-anchor="middle" x="906.794" y="-735.5" font-family="Helvetica,sans-Serif" font-size="10.00"> </text>
</g>
<!-- Node13&#45;&gt;Node1 -->
<g id="edge17" class="edge"><title>Node13&#45;&gt;Node1</title>
<path fill="none" stroke="#404040" d="M905.236,-728.431C901.902,-690.295 891.457,-620.652 858.794,-572 778.796,-452.84 633.985,-363.049 544.534,-315.671"/>
<polygon fill="none" stroke="#404040" points="544.269,-315.532 537.098,-316.292 533.639,-309.965 540.81,-309.205 544.269,-315.532"/>
<text text-anchor="middle" x="919.294" y="-608" font-family="Helvetica,sans-Serif" font-size="10.00"> &#45;activoRdbtn</text>
<text text-anchor="middle" x="919.294" y="-597" font-family="Helvetica,sans-Serif" font-size="10.00">&#45;inactivoRdbtn</text>
</g>
</g>
</svg>
