<?xml version="1.0" encoding="UTF-8" standalone="no"?>
<!DOCTYPE svg PUBLIC "-//W3C//DTD SVG 1.1//EN"
 "http://www.w3.org/Graphics/SVG/1.1/DTD/svg11.dtd">
<!-- Generated by graphviz version 2.30.1 (20130214.1330)
 -->
<!-- Title: gestorempleados.control.NegocioCliente.showDatosEmpleado Pages: 1 -->
<svg width="584pt" height="589pt"
 viewBox="0.00 0.00 584.00 589.00" xmlns="http://www.w3.org/2000/svg" xmlns:xlink="http://www.w3.org/1999/xlink">
<g id="graph0" class="graph" transform="scale(1 1) rotate(0) translate(4 585)">
<title>gestorempleados.control.NegocioCliente.showDatosEmpleado</title>
<polygon fill="white" stroke="white" points="-4,5 -4,-585 581,-585 581,5 -4,5"/>
<!-- Node1 -->
<g id="node1" class="node"><title>Node1</title>
<polygon fill="#bfbfbf" stroke="black" points="0,-278 0,-308 176,-308 176,-278 0,-278"/>
<text text-anchor="start" x="8" y="-296" font-family="Helvetica,sans-Serif" font-size="10.00">gestorempleados.control.</text>
<text text-anchor="middle" x="88" y="-285" font-family="Helvetica,sans-Serif" font-size="10.00">NegocioCliente.showDatosEmpleado</text>
</g>
<!-- Node2 -->
<g id="node2" class="node"><title>Node2</title>
<g id="a_node2"><a xlink:href="classgestorempleados_1_1interficie_1_1_panel___datos_personales.xhtml#af244218c0171e864c80b357411f38c92" target="_top" xlink:title="gestorempleados.interficie.\lPanel_DatosPersonales.setNombre">
<polygon fill="white" stroke="black" points="223.5,-551 223.5,-581 394.5,-581 394.5,-551 223.5,-551"/>
<text text-anchor="start" x="231.5" y="-569" font-family="Helvetica,sans-Serif" font-size="10.00">gestorempleados.interficie.</text>
<text text-anchor="middle" x="309" y="-558" font-family="Helvetica,sans-Serif" font-size="10.00">Panel_DatosPersonales.setNombre</text>
</a>
</g>
</g>
<!-- Node1&#45;&gt;Node2 -->
<g id="edge1" class="edge"><title>Node1&#45;&gt;Node2</title>
<path fill="none" stroke="midnightblue" d="M91.9672,-308.288C101.243,-351.839 133.872,-477.488 212,-541 214.046,-542.664 216.191,-544.217 218.416,-545.669"/>
<polygon fill="midnightblue" stroke="midnightblue" points="216.931,-548.852 227.35,-550.775 220.405,-542.774 216.931,-548.852"/>
</g>
<!-- Node3 -->
<g id="node3" class="node"><title>Node3</title>
<g id="a_node3"><a xlink:href="classgestorempleados_1_1interficie_1_1_panel___datos_personales.xhtml#a2540257dd1512ba5f633a6856321ea39" target="_top" xlink:title="gestorempleados.interficie.\lPanel_DatosPersonales.setDni">
<polygon fill="white" stroke="black" points="233,-502 233,-532 385,-532 385,-502 233,-502"/>
<text text-anchor="start" x="241" y="-520" font-family="Helvetica,sans-Serif" font-size="10.00">gestorempleados.interficie.</text>
<text text-anchor="middle" x="309" y="-509" font-family="Helvetica,sans-Serif" font-size="10.00">Panel_DatosPersonales.setDni</text>
</a>
</g>
</g>
<!-- Node1&#45;&gt;Node3 -->
<g id="edge2" class="edge"><title>Node1&#45;&gt;Node3</title>
<path fill="none" stroke="midnightblue" d="M93.9124,-308.205C106.814,-345.64 145.343,-442.787 212,-492 215.605,-494.661 219.468,-497.04 223.5,-499.166"/>
<polygon fill="midnightblue" stroke="midnightblue" points="222.024,-502.339 232.563,-503.427 225.003,-496.005 222.024,-502.339"/>
</g>
<!-- Node4 -->
<g id="node4" class="node"><title>Node4</title>
<g id="a_node4"><a xlink:href="classgestorempleados_1_1interficie_1_1_panel___datos_personales.xhtml#a324c76ab15ae388ebabe617a180e2a8f" target="_top" xlink:title="gestorempleados.interficie.\lPanel_DatosPersonales.setNss">
<polygon fill="white" stroke="black" points="231.5,-453 231.5,-483 386.5,-483 386.5,-453 231.5,-453"/>
<text text-anchor="start" x="239.5" y="-471" font-family="Helvetica,sans-Serif" font-size="10.00">gestorempleados.interficie.</text>
<text text-anchor="middle" x="309" y="-460" font-family="Helvetica,sans-Serif" font-size="10.00">Panel_DatosPersonales.setNss</text>
</a>
</g>
</g>
<!-- Node1&#45;&gt;Node4 -->
<g id="edge3" class="edge"><title>Node1&#45;&gt;Node4</title>
<path fill="none" stroke="midnightblue" d="M97.2016,-308.461C114.274,-339.096 156.689,-407.597 212,-443 215.332,-445.133 218.838,-447.084 222.462,-448.869"/>
<polygon fill="midnightblue" stroke="midnightblue" points="221.117,-452.101 231.676,-452.973 223.965,-445.707 221.117,-452.101"/>
</g>
<!-- Node5 -->
<g id="node5" class="node"><title>Node5</title>
<g id="a_node5"><a xlink:href="classgestorempleados_1_1interficie_1_1_panel___datos_personales.xhtml#ab879b76438dda3b50398559492e21b22" target="_top" xlink:title="gestorempleados.interficie.\lPanel_DatosPersonales.setApellido1">
<polygon fill="white" stroke="black" points="220.5,-404 220.5,-434 397.5,-434 397.5,-404 220.5,-404"/>
<text text-anchor="start" x="228.5" y="-422" font-family="Helvetica,sans-Serif" font-size="10.00">gestorempleados.interficie.</text>
<text text-anchor="middle" x="309" y="-411" font-family="Helvetica,sans-Serif" font-size="10.00">Panel_DatosPersonales.setApellido1</text>
</a>
</g>
</g>
<!-- Node1&#45;&gt;Node5 -->
<g id="edge4" class="edge"><title>Node1&#45;&gt;Node5</title>
<path fill="none" stroke="midnightblue" d="M103.011,-308.082C124.402,-330.21 167.437,-371.3 212,-394 216.629,-396.358 221.5,-398.507 226.492,-400.465"/>
<polygon fill="midnightblue" stroke="midnightblue" points="225.614,-403.869 236.208,-403.996 228.005,-397.291 225.614,-403.869"/>
</g>
<!-- Node6 -->
<g id="node6" class="node"><title>Node6</title>
<g id="a_node6"><a xlink:href="classgestorempleados_1_1interficie_1_1_panel___datos_personales.xhtml#a7c632ff1274785f1f2e4447fc53d1dab" target="_top" xlink:title="gestorempleados.interficie.\lPanel_DatosPersonales.setApellido2">
<polygon fill="white" stroke="black" points="220.5,-355 220.5,-385 397.5,-385 397.5,-355 220.5,-355"/>
<text text-anchor="start" x="228.5" y="-373" font-family="Helvetica,sans-Serif" font-size="10.00">gestorempleados.interficie.</text>
<text text-anchor="middle" x="309" y="-362" font-family="Helvetica,sans-Serif" font-size="10.00">Panel_DatosPersonales.setApellido2</text>
</a>
</g>
</g>
<!-- Node1&#45;&gt;Node6 -->
<g id="edge5" class="edge"><title>Node1&#45;&gt;Node6</title>
<path fill="none" stroke="midnightblue" d="M121.133,-308.103C145.664,-319.259 180.498,-334.302 212,-345 219.396,-347.512 227.184,-349.918 234.994,-352.177"/>
<polygon fill="midnightblue" stroke="midnightblue" points="234.295,-355.617 244.869,-354.958 236.192,-348.879 234.295,-355.617"/>
</g>
<!-- Node7 -->
<g id="node7" class="node"><title>Node7</title>
<g id="a_node7"><a xlink:href="classgestorempleados_1_1interficie_1_1_panel___datos_personales.xhtml#aea0f9037bd590d5bee9a93335e0e983c" target="_top" xlink:title="gestorempleados.interficie.\lPanel_DatosPersonales.setNacionalidad">
<polygon fill="white" stroke="black" points="212.5,-306 212.5,-336 405.5,-336 405.5,-306 212.5,-306"/>
<text text-anchor="start" x="220.5" y="-324" font-family="Helvetica,sans-Serif" font-size="10.00">gestorempleados.interficie.</text>
<text text-anchor="middle" x="309" y="-313" font-family="Helvetica,sans-Serif" font-size="10.00">Panel_DatosPersonales.setNacionalidad</text>
</a>
</g>
</g>
<!-- Node1&#45;&gt;Node7 -->
<g id="edge6" class="edge"><title>Node1&#45;&gt;Node7</title>
<path fill="none" stroke="midnightblue" d="M176.184,-304.147C184.85,-305.255 193.712,-306.388 202.538,-307.516"/>
<polygon fill="midnightblue" stroke="midnightblue" points="202.113,-310.99 212.476,-308.787 203.001,-304.047 202.113,-310.99"/>
</g>
<!-- Node8 -->
<g id="node8" class="node"><title>Node8</title>
<g id="a_node8"><a xlink:href="classgestorempleados_1_1interficie_1_1_panel___datos_personales.xhtml#a1d4382091e0ab2d5093e1ef67c3ac7e9" target="_top" xlink:title="gestorempleados.interficie.\lPanel_DatosPersonales.setFecha\l_nacimiento">
<polygon fill="white" stroke="black" points="227,-245.5 227,-286.5 391,-286.5 391,-245.5 227,-245.5"/>
<text text-anchor="start" x="235" y="-274.5" font-family="Helvetica,sans-Serif" font-size="10.00">gestorempleados.interficie.</text>
<text text-anchor="start" x="235" y="-263.5" font-family="Helvetica,sans-Serif" font-size="10.00">Panel_DatosPersonales.setFecha</text>
<text text-anchor="middle" x="309" y="-252.5" font-family="Helvetica,sans-Serif" font-size="10.00">_nacimiento</text>
</a>
</g>
</g>
<!-- Node1&#45;&gt;Node8 -->
<g id="edge7" class="edge"><title>Node1&#45;&gt;Node8</title>
<path fill="none" stroke="midnightblue" d="M176.184,-282.251C189.491,-280.611 203.258,-278.913 216.652,-277.262"/>
<polygon fill="midnightblue" stroke="midnightblue" points="217.311,-280.707 226.807,-276.01 216.454,-273.76 217.311,-280.707"/>
</g>
<!-- Node12 -->
<g id="node12" class="node"><title>Node12</title>
<g id="a_node12"><a xlink:href="classgestorempleados_1_1interficie_1_1_panel___datos_personales.xhtml#aa82b25b3771c68906cf8d7d0e2682d4b" target="_top" xlink:title="gestorempleados.interficie.\lPanel_DatosPersonales.setCc">
<polygon fill="white" stroke="black" points="234.5,-196 234.5,-226 383.5,-226 383.5,-196 234.5,-196"/>
<text text-anchor="start" x="242.5" y="-214" font-family="Helvetica,sans-Serif" font-size="10.00">gestorempleados.interficie.</text>
<text text-anchor="middle" x="309" y="-203" font-family="Helvetica,sans-Serif" font-size="10.00">Panel_DatosPersonales.setCc</text>
</a>
</g>
</g>
<!-- Node1&#45;&gt;Node12 -->
<g id="edge11" class="edge"><title>Node1&#45;&gt;Node12</title>
<path fill="none" stroke="midnightblue" d="M117.709,-277.905C142.252,-265.439 178.769,-247.918 212,-236 219.045,-233.473 226.465,-231.084 233.928,-228.858"/>
<polygon fill="midnightblue" stroke="midnightblue" points="235.1,-232.163 243.738,-226.029 233.16,-225.437 235.1,-232.163"/>
</g>
<!-- Node13 -->
<g id="node13" class="node"><title>Node13</title>
<g id="a_node13"><a xlink:href="classgestorempleados_1_1interficie_1_1_panel___datos_personales.xhtml#a452bd3740398ad50d8efdcf9b744e3f2" target="_top" xlink:title="gestorempleados.interficie.\lPanel_DatosPersonales.setDireccion">
<polygon fill="white" stroke="black" points="220,-147 220,-177 398,-177 398,-147 220,-147"/>
<text text-anchor="start" x="228" y="-165" font-family="Helvetica,sans-Serif" font-size="10.00">gestorempleados.interficie.</text>
<text text-anchor="middle" x="309" y="-154" font-family="Helvetica,sans-Serif" font-size="10.00">Panel_DatosPersonales.setDireccion</text>
</a>
</g>
</g>
<!-- Node1&#45;&gt;Node13 -->
<g id="edge12" class="edge"><title>Node1&#45;&gt;Node13</title>
<path fill="none" stroke="midnightblue" d="M102.156,-277.903C123.092,-254.831 166.315,-210.96 212,-187 216.508,-184.636 221.254,-182.484 226.124,-180.528"/>
<polygon fill="midnightblue" stroke="midnightblue" points="227.457,-183.766 235.611,-177.001 225.018,-177.205 227.457,-183.766"/>
</g>
<!-- Node14 -->
<g id="node14" class="node"><title>Node14</title>
<g id="a_node14"><a xlink:href="classgestorempleados_1_1interficie_1_1_panel___datos_personales.xhtml#a574c6509ee29b64899aee2348e0b113b" target="_top" xlink:title="gestorempleados.interficie.\lPanel_DatosPersonales.setPoblacion">
<polygon fill="white" stroke="black" points="219,-98 219,-128 399,-128 399,-98 219,-98"/>
<text text-anchor="start" x="227" y="-116" font-family="Helvetica,sans-Serif" font-size="10.00">gestorempleados.interficie.</text>
<text text-anchor="middle" x="309" y="-105" font-family="Helvetica,sans-Serif" font-size="10.00">Panel_DatosPersonales.setPoblacion</text>
</a>
</g>
</g>
<!-- Node1&#45;&gt;Node14 -->
<g id="edge13" class="edge"><title>Node1&#45;&gt;Node14</title>
<path fill="none" stroke="midnightblue" d="M96.5525,-277.982C113.025,-246.814 155.295,-174.939 212,-138 215.143,-135.952 218.446,-134.072 221.86,-132.346"/>
<polygon fill="midnightblue" stroke="midnightblue" points="223.47,-135.458 231.118,-128.126 220.567,-129.089 223.47,-135.458"/>
</g>
<!-- Node15 -->
<g id="node15" class="node"><title>Node15</title>
<g id="a_node15"><a xlink:href="classgestorempleados_1_1interficie_1_1_panel___datos_personales.xhtml#a851f9080044ac760f67aaca05ebf1923" target="_top" xlink:title="gestorempleados.interficie.\lPanel_DatosPersonales.setTelefono">
<polygon fill="white" stroke="black" points="222.5,-49 222.5,-79 395.5,-79 395.5,-49 222.5,-49"/>
<text text-anchor="start" x="230.5" y="-67" font-family="Helvetica,sans-Serif" font-size="10.00">gestorempleados.interficie.</text>
<text text-anchor="middle" x="309" y="-56" font-family="Helvetica,sans-Serif" font-size="10.00">Panel_DatosPersonales.setTelefono</text>
</a>
</g>
</g>
<!-- Node1&#45;&gt;Node15 -->
<g id="edge14" class="edge"><title>Node1&#45;&gt;Node15</title>
<path fill="none" stroke="midnightblue" d="M93.6123,-277.977C106.062,-240.028 144.073,-139.732 212,-89 214.473,-87.153 217.07,-85.4421 219.762,-83.8573"/>
<polygon fill="midnightblue" stroke="midnightblue" points="221.405,-86.9477 228.646,-79.2126 218.162,-80.7444 221.405,-86.9477"/>
</g>
<!-- Node16 -->
<g id="node16" class="node"><title>Node16</title>
<g id="a_node16"><a xlink:href="classgestorempleados_1_1interficie_1_1_panel___datos_personales.xhtml#aa56c4a98709356612145312b33dc86c9" target="_top" xlink:title="gestorempleados.interficie.\lPanel_DatosPersonales.setFoto">
<polygon fill="white" stroke="black" points="230.5,-0 230.5,-30 387.5,-30 387.5,-0 230.5,-0"/>
<text text-anchor="start" x="238.5" y="-18" font-family="Helvetica,sans-Serif" font-size="10.00">gestorempleados.interficie.</text>
<text text-anchor="middle" x="309" y="-7" font-family="Helvetica,sans-Serif" font-size="10.00">Panel_DatosPersonales.setFoto</text>
</a>
</g>
</g>
<!-- Node1&#45;&gt;Node16 -->
<g id="edge15" class="edge"><title>Node1&#45;&gt;Node16</title>
<path fill="none" stroke="midnightblue" d="M91.6901,-277.945C100.386,-233.856 131.961,-104.043 212,-39 214.904,-36.6401 218.009,-34.5081 221.259,-32.5822"/>
<polygon fill="midnightblue" stroke="midnightblue" points="222.908,-35.6698 230.165,-27.9508 219.678,-29.4593 222.908,-35.6698"/>
</g>
<!-- Node9 -->
<g id="node9" class="node"><title>Node9</title>
<g id="a_node9"><a xlink:href="classgestorempleados_1_1interficie_1_1_calendario.xhtml#a22844d04bb1585eca0ee0283f1082c90" target="_top" xlink:title="gestorempleados.interficie.\lCalendario.setDia">
<polygon fill="white" stroke="black" points="442.5,-300 442.5,-330 575.5,-330 575.5,-300 442.5,-300"/>
<text text-anchor="start" x="450.5" y="-318" font-family="Helvetica,sans-Serif" font-size="10.00">gestorempleados.interficie.</text>
<text text-anchor="middle" x="509" y="-307" font-family="Helvetica,sans-Serif" font-size="10.00">Calendario.setDia</text>
</a>
</g>
</g>
<!-- Node8&#45;&gt;Node9 -->
<g id="edge8" class="edge"><title>Node8&#45;&gt;Node9</title>
<path fill="none" stroke="midnightblue" d="M391.105,-286.072C406.524,-289.887 422.542,-293.851 437.595,-297.577"/>
<polygon fill="midnightblue" stroke="midnightblue" points="436.784,-300.981 447.332,-299.986 438.466,-294.186 436.784,-300.981"/>
</g>
<!-- Node10 -->
<g id="node10" class="node"><title>Node10</title>
<g id="a_node10"><a xlink:href="classgestorempleados_1_1interficie_1_1_calendario.xhtml#a8b25250145ee84ef837dab49ebbc1128" target="_top" xlink:title="gestorempleados.interficie.\lCalendario.setMes">
<polygon fill="white" stroke="black" points="442.5,-251 442.5,-281 575.5,-281 575.5,-251 442.5,-251"/>
<text text-anchor="start" x="450.5" y="-269" font-family="Helvetica,sans-Serif" font-size="10.00">gestorempleados.interficie.</text>
<text text-anchor="middle" x="509" y="-258" font-family="Helvetica,sans-Serif" font-size="10.00">Calendario.setMes</text>
</a>
</g>
</g>
<!-- Node8&#45;&gt;Node10 -->
<g id="edge9" class="edge"><title>Node8&#45;&gt;Node10</title>
<path fill="none" stroke="midnightblue" d="M391.105,-266C404.722,-266 418.806,-266 432.28,-266"/>
<polygon fill="midnightblue" stroke="midnightblue" points="432.447,-269.5 442.447,-266 432.447,-262.5 432.447,-269.5"/>
</g>
<!-- Node11 -->
<g id="node11" class="node"><title>Node11</title>
<g id="a_node11"><a xlink:href="classgestorempleados_1_1interficie_1_1_calendario.xhtml#aa75f38ccdd3c10471b7a17c758636bfa" target="_top" xlink:title="gestorempleados.interficie.\lCalendario.setAno">
<polygon fill="white" stroke="black" points="442.5,-202 442.5,-232 575.5,-232 575.5,-202 442.5,-202"/>
<text text-anchor="start" x="450.5" y="-220" font-family="Helvetica,sans-Serif" font-size="10.00">gestorempleados.interficie.</text>
<text text-anchor="middle" x="509" y="-209" font-family="Helvetica,sans-Serif" font-size="10.00">Calendario.setAno</text>
</a>
</g>
</g>
<!-- Node8&#45;&gt;Node11 -->
<g id="edge10" class="edge"><title>Node8&#45;&gt;Node11</title>
<path fill="none" stroke="midnightblue" d="M391.105,-245.928C406.524,-242.113 422.542,-238.149 437.595,-234.423"/>
<polygon fill="midnightblue" stroke="midnightblue" points="438.466,-237.814 447.332,-232.014 436.784,-231.019 438.466,-237.814"/>
</g>
</g>
</svg>
