<?xml version="1.0" encoding="UTF-8" standalone="no"?>
<!DOCTYPE svg PUBLIC "-//W3C//DTD SVG 1.1//EN"
 "http://www.w3.org/Graphics/SVG/1.1/DTD/svg11.dtd">
<!-- Generated by graphviz version 2.30.1 (20130214.1330)
 -->
<!-- Title: gestorempleados.interficie.Panel_Contrato.getModalidad Pages: 1 -->
<svg width="554pt" height="185pt"
 viewBox="0.00 0.00 554.00 185.00" xmlns="http://www.w3.org/2000/svg" xmlns:xlink="http://www.w3.org/1999/xlink">
<g id="graph0" class="graph" transform="scale(1 1) rotate(0) translate(4 181)">
<title>gestorempleados.interficie.Panel_Contrato.getModalidad</title>
<polygon fill="white" stroke="white" points="-4,5 -4,-181 551,-181 551,5 -4,5"/>
<!-- Node1 -->
<g id="node1" class="node"><title>Node1</title>
<polygon fill="#bfbfbf" stroke="black" points="0,-97 0,-127 144,-127 144,-97 0,-97"/>
<text text-anchor="start" x="8" y="-115" font-family="Helvetica,sans-Serif" font-size="10.00">gestorempleados.interficie.</text>
<text text-anchor="middle" x="72" y="-104" font-family="Helvetica,sans-Serif" font-size="10.00">Panel_Contrato.getModalidad</text>
</g>
<!-- Node2 -->
<g id="node2" class="node"><title>Node2</title>
<g id="a_node2"><a xlink:href="classgestorempleados_1_1control_1_1_negocio_cliente.xhtml#ac8ccee3f2bb015ca54c4a469d4b6b249" target="_top" xlink:title="gestorempleados.control.\lNegocioCliente.setEmpleado">
<polygon fill="white" stroke="black" points="198,-134 198,-164 340,-164 340,-134 198,-134"/>
<text text-anchor="start" x="206" y="-152" font-family="Helvetica,sans-Serif" font-size="10.00">gestorempleados.control.</text>
<text text-anchor="middle" x="269" y="-141" font-family="Helvetica,sans-Serif" font-size="10.00">NegocioCliente.setEmpleado</text>
</a>
</g>
</g>
<!-- Node1&#45;&gt;Node2 -->
<g id="edge1" class="edge"><title>Node1&#45;&gt;Node2</title>
<path fill="none" stroke="midnightblue" d="M154.193,-127.406C168.726,-130.163 183.756,-133.015 197.943,-135.707"/>
<polygon fill="midnightblue" stroke="midnightblue" points="154.704,-123.941 144.227,-125.515 153.399,-130.818 154.704,-123.941"/>
</g>
<!-- Node4 -->
<g id="node4" class="node"><title>Node4</title>
<g id="a_node4"><a xlink:href="classgestorempleados_1_1control_1_1_negocio_cliente.xhtml#a9636f9f7cd80e0eb68a18113fd3dd8ae" target="_top" xlink:title="gestorempleados.control.\lNegocioCliente.modifDatosEmpleado">
<polygon fill="white" stroke="black" points="180.5,-61 180.5,-91 357.5,-91 357.5,-61 180.5,-61"/>
<text text-anchor="start" x="188.5" y="-79" font-family="Helvetica,sans-Serif" font-size="10.00">gestorempleados.control.</text>
<text text-anchor="middle" x="269" y="-68" font-family="Helvetica,sans-Serif" font-size="10.00">NegocioCliente.modifDatosEmpleado</text>
</a>
</g>
</g>
<!-- Node1&#45;&gt;Node4 -->
<g id="edge3" class="edge"><title>Node1&#45;&gt;Node4</title>
<path fill="none" stroke="midnightblue" d="M154.383,-96.9755C165.078,-95.0009 176.04,-92.9772 186.734,-91.003"/>
<polygon fill="midnightblue" stroke="midnightblue" points="153.426,-93.593 144.227,-98.8504 154.696,-100.477 153.426,-93.593"/>
</g>
<!-- Node3 -->
<g id="node3" class="node"><title>Node3</title>
<g id="a_node3"><a xlink:href="classplugins_1_1_panel___alta.xhtml#a804926b94fa2f64e79032ded83f6b1e6" target="_top" xlink:title="plugins.Panel_Alta.crear\lPanel">
<polygon fill="white" stroke="black" points="409,-147 409,-177 531,-177 531,-147 409,-147"/>
<text text-anchor="start" x="417" y="-165" font-family="Helvetica,sans-Serif" font-size="10.00">plugins.Panel_Alta.crear</text>
<text text-anchor="middle" x="470" y="-154" font-family="Helvetica,sans-Serif" font-size="10.00">Panel</text>
</a>
</g>
</g>
<!-- Node2&#45;&gt;Node3 -->
<g id="edge2" class="edge"><title>Node2&#45;&gt;Node3</title>
<path fill="none" stroke="midnightblue" d="M350.253,-154.243C369.765,-155.517 390.304,-156.859 408.711,-158.062"/>
<polygon fill="midnightblue" stroke="midnightblue" points="350.367,-150.743 340.16,-153.583 349.91,-157.728 350.367,-150.743"/>
</g>
<!-- Node5 -->
<g id="node5" class="node"><title>Node5</title>
<g id="a_node5"><a xlink:href="classplugins_1_1_panel___consultas.xhtml#a4072616654f5b0d96c9ba7213b140d36" target="_top" xlink:title="plugins.Panel_Consultas.editar\lDatosEmpleado">
<polygon fill="white" stroke="black" points="394.5,-98 394.5,-128 545.5,-128 545.5,-98 394.5,-98"/>
<text text-anchor="start" x="402.5" y="-116" font-family="Helvetica,sans-Serif" font-size="10.00">plugins.Panel_Consultas.editar</text>
<text text-anchor="middle" x="470" y="-105" font-family="Helvetica,sans-Serif" font-size="10.00">DatosEmpleado</text>
</a>
</g>
</g>
<!-- Node4&#45;&gt;Node5 -->
<g id="edge4" class="edge"><title>Node4&#45;&gt;Node5</title>
<path fill="none" stroke="midnightblue" d="M361.075,-92.9336C372.171,-94.9966 383.407,-97.0858 394.227,-99.0975"/>
<polygon fill="midnightblue" stroke="midnightblue" points="361.412,-89.4363 350.941,-91.0493 360.133,-96.3184 361.412,-89.4363"/>
</g>
<!-- Node6 -->
<g id="node6" class="node"><title>Node6</title>
<g id="a_node6"><a xlink:href="classplugins_1_1_panel___consultas.xhtml#aef9cb36e8db78e3bd75c3e4acf0bc9e4" target="_top" xlink:title="plugins.Panel_Consultas.editar\lCVEmpleado">
<polygon fill="white" stroke="black" points="394.5,-49 394.5,-79 545.5,-79 545.5,-49 394.5,-49"/>
<text text-anchor="start" x="402.5" y="-67" font-family="Helvetica,sans-Serif" font-size="10.00">plugins.Panel_Consultas.editar</text>
<text text-anchor="middle" x="470" y="-56" font-family="Helvetica,sans-Serif" font-size="10.00">CVEmpleado</text>
</a>
</g>
</g>
<!-- Node4&#45;&gt;Node6 -->
<g id="edge5" class="edge"><title>Node4&#45;&gt;Node6</title>
<path fill="none" stroke="midnightblue" d="M367.707,-70.1081C376.704,-69.5656 385.72,-69.0219 394.461,-68.4948"/>
<polygon fill="midnightblue" stroke="midnightblue" points="367.345,-66.6235 357.574,-70.7192 367.766,-73.6108 367.345,-66.6235"/>
</g>
<!-- Node7 -->
<g id="node7" class="node"><title>Node7</title>
<g id="a_node7"><a xlink:href="classplugins_1_1_panel___consultas.xhtml#ad1596ee5ed80b3214b8374f3f0a97ef6" target="_top" xlink:title="plugins.Panel_Consultas.editar\lContratosEmpleado">
<polygon fill="white" stroke="black" points="394.5,-0 394.5,-30 545.5,-30 545.5,-0 394.5,-0"/>
<text text-anchor="start" x="402.5" y="-18" font-family="Helvetica,sans-Serif" font-size="10.00">plugins.Panel_Consultas.editar</text>
<text text-anchor="middle" x="470" y="-7" font-family="Helvetica,sans-Serif" font-size="10.00">ContratosEmpleado</text>
</a>
</g>
</g>
<!-- Node4&#45;&gt;Node7 -->
<g id="edge6" class="edge"><title>Node4&#45;&gt;Node7</title>
<path fill="none" stroke="midnightblue" d="M328.551,-58.0523C357.594,-49.1496 392.275,-38.5186 419.908,-30.0482"/>
<polygon fill="midnightblue" stroke="midnightblue" points="327.471,-54.7225 318.936,-60.9996 329.522,-61.4151 327.471,-54.7225"/>
</g>
</g>
</svg>
