<?xml version="1.0" encoding="UTF-8" standalone="no"?>
<!DOCTYPE svg PUBLIC "-//W3C//DTD SVG 1.1//EN"
 "http://www.w3.org/Graphics/SVG/1.1/DTD/svg11.dtd">
<!-- Generated by graphviz version 2.30.1 (20130214.1330)
 -->
<!-- Title: gestorempleados.interficie.Panel_Login Pages: 1 -->
<svg width="367pt" height="194pt"
 viewBox="0.00 0.00 367.00 194.00" xmlns="http://www.w3.org/2000/svg" xmlns:xlink="http://www.w3.org/1999/xlink">
<g id="graph0" class="graph" transform="scale(1 1) rotate(0) translate(4 190)">
<title>gestorempleados.interficie.Panel_Login</title>
<polygon fill="white" stroke="white" points="-4,5 -4,-190 364,-190 364,5 -4,5"/>
<!-- Node1 -->
<g id="node1" class="node"><title>Node1</title>
<polygon fill="#bfbfbf" stroke="black" points="96.5,-1 96.5,-69 229.5,-69 229.5,-1 96.5,-1"/>
<text text-anchor="start" x="104.5" y="-57" font-family="Helvetica,sans-Serif" font-size="10.00">gestorempleados.interficie.</text>
<text text-anchor="middle" x="163" y="-46" font-family="Helvetica,sans-Serif" font-size="10.00">Panel_Login</text>
<polyline fill="none" stroke="black" points="96.5,-39 229.5,-39 "/>
<text text-anchor="middle" x="163" y="-27" font-family="Helvetica,sans-Serif" font-size="10.00"> </text>
<polyline fill="none" stroke="black" points="96.5,-20 229.5,-20 "/>
<text text-anchor="start" x="104.5" y="-8" font-family="Helvetica,sans-Serif" font-size="10.00">+ Panel_Login()</text>
</g>
<!-- Node2 -->
<g id="node2" class="node"><title>Node2</title>
<polygon fill="white" stroke="#bfbfbf" points="0,-128.5 0,-185.5 46,-185.5 46,-128.5 0,-128.5"/>
<text text-anchor="middle" x="23" y="-173.5" font-family="Helvetica,sans-Serif" font-size="10.00">JPanel</text>
<polyline fill="none" stroke="#bfbfbf" points="0,-166.5 46,-166.5 "/>
<text text-anchor="middle" x="23" y="-154.5" font-family="Helvetica,sans-Serif" font-size="10.00"> </text>
<polyline fill="none" stroke="#bfbfbf" points="0,-147.5 46,-147.5 "/>
<text text-anchor="middle" x="23" y="-135.5" font-family="Helvetica,sans-Serif" font-size="10.00"> </text>
</g>
<!-- Node2&#45;&gt;Node1 -->
<g id="edge1" class="edge"><title>Node2&#45;&gt;Node1</title>
<path fill="none" stroke="midnightblue" d="M53.6284,-129.185C54.0886,-128.787 54.546,-128.392 55,-128 77.7453,-108.363 103.34,-86.5478 123.902,-69.0909"/>
<polygon fill="none" stroke="midnightblue" points="51.2954,-126.576 46.0402,-135.775 55.8854,-131.861 51.2954,-126.576"/>
</g>
<!-- Node3 -->
<g id="node3" class="node"><title>Node3</title>
<polygon fill="white" stroke="#bfbfbf" points="64,-128.5 64,-185.5 114,-185.5 114,-128.5 64,-128.5"/>
<text text-anchor="middle" x="89" y="-173.5" font-family="Helvetica,sans-Serif" font-size="10.00">JButton</text>
<polyline fill="none" stroke="#bfbfbf" points="64,-166.5 114,-166.5 "/>
<text text-anchor="middle" x="89" y="-154.5" font-family="Helvetica,sans-Serif" font-size="10.00"> </text>
<polyline fill="none" stroke="#bfbfbf" points="64,-147.5 114,-147.5 "/>
<text text-anchor="middle" x="89" y="-135.5" font-family="Helvetica,sans-Serif" font-size="10.00"> </text>
</g>
<!-- Node3&#45;&gt;Node1 -->
<g id="edge2" class="edge"><title>Node3&#45;&gt;Node1</title>
<path fill="none" stroke="#404040" d="M105.977,-128.47C114.868,-114.052 125.966,-96.0551 136.002,-79.7798"/>
<polygon fill="none" stroke="#404040" points="136.112,-79.6021 135.857,-72.3955 142.411,-69.3881 142.666,-76.5947 136.112,-79.6021"/>
<text text-anchor="middle" x="145" y="-96.5" font-family="Helvetica,sans-Serif" font-size="10.00"> &#45;btnIp</text>
</g>
<!-- Node4 -->
<g id="node4" class="node"><title>Node4</title>
<polygon fill="white" stroke="#bfbfbf" points="132.5,-128.5 132.5,-185.5 193.5,-185.5 193.5,-128.5 132.5,-128.5"/>
<text text-anchor="middle" x="163" y="-173.5" font-family="Helvetica,sans-Serif" font-size="10.00">JTextField</text>
<polyline fill="none" stroke="#bfbfbf" points="132.5,-166.5 193.5,-166.5 "/>
<text text-anchor="middle" x="163" y="-154.5" font-family="Helvetica,sans-Serif" font-size="10.00"> </text>
<polyline fill="none" stroke="#bfbfbf" points="132.5,-147.5 193.5,-147.5 "/>
<text text-anchor="middle" x="163" y="-135.5" font-family="Helvetica,sans-Serif" font-size="10.00"> </text>
</g>
<!-- Node4&#45;&gt;Node1 -->
<g id="edge3" class="edge"><title>Node4&#45;&gt;Node1</title>
<path fill="none" stroke="#404040" d="M163,-128.47C163,-114.601 163,-97.4211 163,-81.647"/>
<polygon fill="none" stroke="#404040" points="163,-81.3881 159,-75.3881 163,-69.3881 167,-75.388 163,-81.3881"/>
<text text-anchor="middle" x="185" y="-96.5" font-family="Helvetica,sans-Serif" font-size="10.00"> &#45;nameTxt</text>
</g>
<!-- Node5 -->
<g id="node5" class="node"><title>Node5</title>
<polygon fill="white" stroke="#bfbfbf" points="211.5,-128.5 211.5,-185.5 296.5,-185.5 296.5,-128.5 211.5,-128.5"/>
<text text-anchor="middle" x="254" y="-173.5" font-family="Helvetica,sans-Serif" font-size="10.00">JPasswordField</text>
<polyline fill="none" stroke="#bfbfbf" points="211.5,-166.5 296.5,-166.5 "/>
<text text-anchor="middle" x="254" y="-154.5" font-family="Helvetica,sans-Serif" font-size="10.00"> </text>
<polyline fill="none" stroke="#bfbfbf" points="211.5,-147.5 296.5,-147.5 "/>
<text text-anchor="middle" x="254" y="-135.5" font-family="Helvetica,sans-Serif" font-size="10.00"> </text>
</g>
<!-- Node5&#45;&gt;Node1 -->
<g id="edge4" class="edge"><title>Node5&#45;&gt;Node1</title>
<path fill="none" stroke="#404040" d="M238.137,-128.435C230.451,-115.759 220.78,-100.742 211,-88 208.493,-84.7336 205.819,-81.4311 203.066,-78.1581"/>
<polygon fill="none" stroke="#404040" points="203.038,-78.1253 196.083,-76.219 195.168,-69.0662 202.122,-70.9725 203.038,-78.1253"/>
<text text-anchor="middle" x="247.5" y="-96.5" font-family="Helvetica,sans-Serif" font-size="10.00"> &#45;passTxt</text>
</g>
<!-- Node6 -->
<g id="node6" class="node"><title>Node6</title>
<polygon fill="white" stroke="#bfbfbf" points="315,-128.5 315,-185.5 359,-185.5 359,-128.5 315,-128.5"/>
<text text-anchor="middle" x="337" y="-173.5" font-family="Helvetica,sans-Serif" font-size="10.00">JLabel</text>
<polyline fill="none" stroke="#bfbfbf" points="315,-166.5 359,-166.5 "/>
<text text-anchor="middle" x="337" y="-154.5" font-family="Helvetica,sans-Serif" font-size="10.00"> </text>
<polyline fill="none" stroke="#bfbfbf" points="315,-147.5 359,-147.5 "/>
<text text-anchor="middle" x="337" y="-135.5" font-family="Helvetica,sans-Serif" font-size="10.00"> </text>
</g>
<!-- Node6&#45;&gt;Node1 -->
<g id="edge5" class="edge"><title>Node6&#45;&gt;Node1</title>
<path fill="none" stroke="#404040" d="M314.898,-128.546C303.15,-115.151 287.875,-99.4911 272,-88 262.319,-80.9926 251.545,-74.5277 240.645,-68.7111"/>
<polygon fill="none" stroke="#404040" points="240.416,-68.5933 233.251,-69.4128 229.739,-63.1146 236.904,-62.2952 240.416,-68.5933"/>
<text text-anchor="middle" x="318" y="-102" font-family="Helvetica,sans-Serif" font-size="10.00"> &#45;passLbl</text>
<text text-anchor="middle" x="318" y="-91" font-family="Helvetica,sans-Serif" font-size="10.00">&#45;user</text>
</g>
</g>
</svg>
