<?xml version="1.0" encoding="UTF-8" standalone="no"?>
<!DOCTYPE svg PUBLIC "-//W3C//DTD SVG 1.1//EN"
 "http://www.w3.org/Graphics/SVG/1.1/DTD/svg11.dtd">
<!-- Generated by graphviz version 2.30.1 (20130214.1330)
 -->
<!-- Title: gestorempleados.control.NegocioCliente.validateUser Pages: 1 -->
<svg width="484pt" height="160pt"
 viewBox="0.00 0.00 484.00 160.00" xmlns="http://www.w3.org/2000/svg" xmlns:xlink="http://www.w3.org/1999/xlink">
<g id="graph0" class="graph" transform="scale(1 1) rotate(0) translate(4 156)">
<title>gestorempleados.control.NegocioCliente.validateUser</title>
<polygon fill="white" stroke="white" points="-4,5 -4,-156 481,-156 481,5 -4,5"/>
<!-- Node1 -->
<g id="node1" class="node"><title>Node1</title>
<polygon fill="#bfbfbf" stroke="black" points="0.5,-49 0.5,-79 137.5,-79 137.5,-49 0.5,-49"/>
<text text-anchor="start" x="8.5" y="-67" font-family="Helvetica,sans-Serif" font-size="10.00">gestorempleados.control.</text>
<text text-anchor="middle" x="69" y="-56" font-family="Helvetica,sans-Serif" font-size="10.00">NegocioCliente.validateUser</text>
</g>
<!-- Node2 -->
<g id="node2" class="node"><title>Node2</title>
<g id="a_node2"><a xlink:href="classgestorempleados_1_1conector_1_1_conector_cliente.xhtml#a830dba55e91b371279078945cf0b84c5" target="_top" xlink:title="gestorempleados.conector.\lConectorCliente.sendPacket">
<polygon fill="white" stroke="black" points="174,-98 174,-128 314,-128 314,-98 174,-98"/>
<text text-anchor="start" x="182" y="-116" font-family="Helvetica,sans-Serif" font-size="10.00">gestorempleados.conector.</text>
<text text-anchor="middle" x="244" y="-105" font-family="Helvetica,sans-Serif" font-size="10.00">ConectorCliente.sendPacket</text>
</a>
</g>
</g>
<!-- Node1&#45;&gt;Node2 -->
<g id="edge1" class="edge"><title>Node1&#45;&gt;Node2</title>
<path fill="none" stroke="midnightblue" d="M123.317,-79.1014C141.242,-84.1785 161.408,-89.8902 180.006,-95.1577"/>
<polygon fill="midnightblue" stroke="midnightblue" points="179.283,-98.5907 189.859,-97.9484 181.191,-91.8557 179.283,-98.5907"/>
</g>
<!-- Node5 -->
<g id="node5" class="node"><title>Node5</title>
<g id="a_node5"><a xlink:href="classgestorempleados_1_1conector_1_1_packet.xhtml#a66abee43105b5ab7eac815a088d8f861" target="_top" xlink:title="gestorempleados.conector.\lPacket.getType">
<polygon fill="white" stroke="black" points="177,-49 177,-79 311,-79 311,-49 177,-49"/>
<text text-anchor="start" x="185" y="-67" font-family="Helvetica,sans-Serif" font-size="10.00">gestorempleados.conector.</text>
<text text-anchor="middle" x="244" y="-56" font-family="Helvetica,sans-Serif" font-size="10.00">Packet.getType</text>
</a>
</g>
</g>
<!-- Node1&#45;&gt;Node5 -->
<g id="edge4" class="edge"><title>Node1&#45;&gt;Node5</title>
<path fill="none" stroke="midnightblue" d="M137.878,-64C147.262,-64 156.954,-64 166.482,-64"/>
<polygon fill="midnightblue" stroke="midnightblue" points="166.735,-67.5001 176.735,-64 166.735,-60.5001 166.735,-67.5001"/>
</g>
<!-- Node6 -->
<g id="node6" class="node"><title>Node6</title>
<g id="a_node6"><a xlink:href="classgestorempleados_1_1conector_1_1_packet.xhtml#a86896692ec960631b3477ddc86c34729" target="_top" xlink:title="gestorempleados.conector.\lPacket.getUser">
<polygon fill="white" stroke="black" points="177,-0 177,-30 311,-30 311,-0 177,-0"/>
<text text-anchor="start" x="185" y="-18" font-family="Helvetica,sans-Serif" font-size="10.00">gestorempleados.conector.</text>
<text text-anchor="middle" x="244" y="-7" font-family="Helvetica,sans-Serif" font-size="10.00">Packet.getUser</text>
</a>
</g>
</g>
<!-- Node1&#45;&gt;Node6 -->
<g id="edge5" class="edge"><title>Node1&#45;&gt;Node6</title>
<path fill="none" stroke="midnightblue" d="M123.317,-48.8986C141.242,-43.8215 161.408,-38.1098 180.006,-32.8423"/>
<polygon fill="midnightblue" stroke="midnightblue" points="181.191,-36.1443 189.859,-30.0516 179.283,-29.4093 181.191,-36.1443"/>
</g>
<!-- Node3 -->
<g id="node3" class="node"><title>Node3</title>
<g id="a_node3"><a xlink:href="classgestorempleados_1_1control_1_1_preferencias.xhtml#a8cb4ef0c12fd91286f0f3a63c48d40b0" target="_top" xlink:title="gestorempleados.control.\lPreferencias.getHost">
<polygon fill="white" stroke="black" points="350,-122 350,-152 476,-152 476,-122 350,-122"/>
<text text-anchor="start" x="358" y="-140" font-family="Helvetica,sans-Serif" font-size="10.00">gestorempleados.control.</text>
<text text-anchor="middle" x="413" y="-129" font-family="Helvetica,sans-Serif" font-size="10.00">Preferencias.getHost</text>
</a>
</g>
</g>
<!-- Node2&#45;&gt;Node3 -->
<g id="edge2" class="edge"><title>Node2&#45;&gt;Node3</title>
<path fill="none" stroke="midnightblue" d="M314.372,-122.97C322.718,-124.169 331.258,-125.396 339.646,-126.602"/>
<polygon fill="midnightblue" stroke="midnightblue" points="339.381,-130.1 349.777,-128.058 340.377,-123.171 339.381,-130.1"/>
</g>
<!-- Node4 -->
<g id="node4" class="node"><title>Node4</title>
<g id="a_node4"><a xlink:href="classgestorempleados_1_1control_1_1_preferencias.xhtml#ae64b723a46d579f7646e75aa453ed3c8" target="_top" xlink:title="gestorempleados.control.\lPreferencias.getPort">
<polygon fill="white" stroke="black" points="350,-73 350,-103 476,-103 476,-73 350,-73"/>
<text text-anchor="start" x="358" y="-91" font-family="Helvetica,sans-Serif" font-size="10.00">gestorempleados.control.</text>
<text text-anchor="middle" x="413" y="-80" font-family="Helvetica,sans-Serif" font-size="10.00">Preferencias.getPort</text>
</a>
</g>
</g>
<!-- Node2&#45;&gt;Node4 -->
<g id="edge3" class="edge"><title>Node2&#45;&gt;Node4</title>
<path fill="none" stroke="midnightblue" d="M314.372,-102.615C322.718,-101.366 331.258,-100.087 339.646,-98.8315"/>
<polygon fill="midnightblue" stroke="midnightblue" points="340.406,-102.257 349.777,-97.3148 339.369,-95.3339 340.406,-102.257"/>
</g>
</g>
</svg>
