<?xml version="1.0" encoding="UTF-8" standalone="no"?>
<!DOCTYPE svg PUBLIC "-//W3C//DTD SVG 1.1//EN"
 "http://www.w3.org/Graphics/SVG/1.1/DTD/svg11.dtd">
<!-- Generated by graphviz version 2.30.1 (20130214.1330)
 -->
<!-- Title: plugins.Panel_Consultas.Panel_Consultas Pages: 1 -->
<svg width="658pt" height="136pt"
 viewBox="0.00 0.00 658.00 136.00" xmlns="http://www.w3.org/2000/svg" xmlns:xlink="http://www.w3.org/1999/xlink">
<g id="graph0" class="graph" transform="scale(1 1) rotate(0) translate(4 132)">
<title>plugins.Panel_Consultas.Panel_Consultas</title>
<polygon fill="white" stroke="white" points="-4,5 -4,-132 655,-132 655,5 -4,5"/>
<!-- Node1 -->
<g id="node1" class="node"><title>Node1</title>
<polygon fill="#bfbfbf" stroke="black" points="0.5,-49 0.5,-79 127.5,-79 127.5,-49 0.5,-49"/>
<text text-anchor="start" x="8.5" y="-67" font-family="Helvetica,sans-Serif" font-size="10.00">plugins.Panel_Consultas.</text>
<text text-anchor="middle" x="64" y="-56" font-family="Helvetica,sans-Serif" font-size="10.00">Panel_Consultas</text>
</g>
<!-- Node2 -->
<g id="node2" class="node"><title>Node2</title>
<g id="a_node2"><a xlink:href="classgestorempleados_1_1control_1_1_negocio_cliente.xhtml#af4450308afb9d29f665e8bd22d221770" target="_top" xlink:title="gestorempleados.control.\lNegocioCliente.getinstance">
<polygon fill="white" stroke="black" points="170.5,-98 170.5,-128 305.5,-128 305.5,-98 170.5,-98"/>
<text text-anchor="start" x="178.5" y="-116" font-family="Helvetica,sans-Serif" font-size="10.00">gestorempleados.control.</text>
<text text-anchor="middle" x="238" y="-105" font-family="Helvetica,sans-Serif" font-size="10.00">NegocioCliente.getinstance</text>
</a>
</g>
</g>
<!-- Node1&#45;&gt;Node2 -->
<g id="edge1" class="edge"><title>Node1&#45;&gt;Node2</title>
<path fill="none" stroke="midnightblue" d="M118.009,-79.1014C135.831,-84.1785 155.88,-89.8902 174.37,-95.1577"/>
<polygon fill="midnightblue" stroke="midnightblue" points="173.59,-98.5746 184.166,-97.9484 175.508,-91.8425 173.59,-98.5746"/>
</g>
<!-- Node3 -->
<g id="node3" class="node"><title>Node3</title>
<g id="a_node3"><a xlink:href="classgestorempleados_1_1control_1_1_negocio_cliente.xhtml#a07bf95897d503b8d71fc88cfaa1b60ff" target="_top" xlink:title="gestorempleados.control.\lNegocioCliente.getEmpleados">
<polygon fill="white" stroke="black" points="164.5,-49 164.5,-79 311.5,-79 311.5,-49 164.5,-49"/>
<text text-anchor="start" x="172.5" y="-67" font-family="Helvetica,sans-Serif" font-size="10.00">gestorempleados.control.</text>
<text text-anchor="middle" x="238" y="-56" font-family="Helvetica,sans-Serif" font-size="10.00">NegocioCliente.getEmpleados</text>
</a>
</g>
</g>
<!-- Node1&#45;&gt;Node3 -->
<g id="edge2" class="edge"><title>Node1&#45;&gt;Node3</title>
<path fill="none" stroke="midnightblue" d="M127.583,-64C136.236,-64 145.232,-64 154.183,-64"/>
<polygon fill="midnightblue" stroke="midnightblue" points="154.247,-67.5001 164.247,-64 154.247,-60.5001 154.247,-67.5001"/>
</g>
<!-- Node8 -->
<g id="node8" class="node"><title>Node8</title>
<g id="a_node8"><a xlink:href="classgestorempleados_1_1interficie_1_1_excel_exporter.xhtml#a8a0be7d5f51e948a0e2ac21c4730793e" target="_top" xlink:title="gestorempleados.interficie.\lExcelExporter.fillData">
<polygon fill="white" stroke="black" points="171.5,-0 171.5,-30 304.5,-30 304.5,-0 171.5,-0"/>
<text text-anchor="start" x="179.5" y="-18" font-family="Helvetica,sans-Serif" font-size="10.00">gestorempleados.interficie.</text>
<text text-anchor="middle" x="238" y="-7" font-family="Helvetica,sans-Serif" font-size="10.00">ExcelExporter.fillData</text>
</a>
</g>
</g>
<!-- Node1&#45;&gt;Node8 -->
<g id="edge7" class="edge"><title>Node1&#45;&gt;Node8</title>
<path fill="none" stroke="midnightblue" d="M118.009,-48.8986C135.831,-43.8215 155.88,-38.1098 174.37,-32.8423"/>
<polygon fill="midnightblue" stroke="midnightblue" points="175.508,-36.1575 184.166,-30.0516 173.59,-29.4254 175.508,-36.1575"/>
</g>
<!-- Node4 -->
<g id="node4" class="node"><title>Node4</title>
<g id="a_node4"><a xlink:href="classgestorempleados_1_1conector_1_1_conector_cliente.xhtml#a830dba55e91b371279078945cf0b84c5" target="_top" xlink:title="gestorempleados.conector.\lConectorCliente.sendPacket">
<polygon fill="white" stroke="black" points="348,-73 348,-103 488,-103 488,-73 348,-73"/>
<text text-anchor="start" x="356" y="-91" font-family="Helvetica,sans-Serif" font-size="10.00">gestorempleados.conector.</text>
<text text-anchor="middle" x="418" y="-80" font-family="Helvetica,sans-Serif" font-size="10.00">ConectorCliente.sendPacket</text>
</a>
</g>
</g>
<!-- Node3&#45;&gt;Node4 -->
<g id="edge3" class="edge"><title>Node3&#45;&gt;Node4</title>
<path fill="none" stroke="midnightblue" d="M311.656,-73.7963C320.224,-74.9515 329.001,-76.1349 337.654,-77.3017"/>
<polygon fill="midnightblue" stroke="midnightblue" points="337.359,-80.7934 347.737,-78.6611 338.294,-73.8562 337.359,-80.7934"/>
</g>
<!-- Node7 -->
<g id="node7" class="node"><title>Node7</title>
<g id="a_node7"><a xlink:href="classgestorempleados_1_1conector_1_1_packet.xhtml#ab134a72a51ee922876f123e6162b2d2c" target="_top" xlink:title="gestorempleados.conector.\lPacket.getEmpleados">
<polygon fill="white" stroke="black" points="351,-24 351,-54 485,-54 485,-24 351,-24"/>
<text text-anchor="start" x="359" y="-42" font-family="Helvetica,sans-Serif" font-size="10.00">gestorempleados.conector.</text>
<text text-anchor="middle" x="418" y="-31" font-family="Helvetica,sans-Serif" font-size="10.00">Packet.getEmpleados</text>
</a>
</g>
</g>
<!-- Node3&#45;&gt;Node7 -->
<g id="edge6" class="edge"><title>Node3&#45;&gt;Node7</title>
<path fill="none" stroke="midnightblue" d="M311.656,-53.7955C321.288,-52.4427 331.184,-51.0528 340.873,-49.692"/>
<polygon fill="midnightblue" stroke="midnightblue" points="341.458,-53.1443 350.874,-48.2874 340.484,-46.2123 341.458,-53.1443"/>
</g>
<!-- Node5 -->
<g id="node5" class="node"><title>Node5</title>
<g id="a_node5"><a xlink:href="classgestorempleados_1_1control_1_1_preferencias.xhtml#a8cb4ef0c12fd91286f0f3a63c48d40b0" target="_top" xlink:title="gestorempleados.control.\lPreferencias.getHost">
<polygon fill="white" stroke="black" points="524,-97 524,-127 650,-127 650,-97 524,-97"/>
<text text-anchor="start" x="532" y="-115" font-family="Helvetica,sans-Serif" font-size="10.00">gestorempleados.control.</text>
<text text-anchor="middle" x="587" y="-104" font-family="Helvetica,sans-Serif" font-size="10.00">Preferencias.getHost</text>
</a>
</g>
</g>
<!-- Node4&#45;&gt;Node5 -->
<g id="edge4" class="edge"><title>Node4&#45;&gt;Node5</title>
<path fill="none" stroke="midnightblue" d="M488.372,-97.9697C496.718,-99.1691 505.258,-100.396 513.646,-101.602"/>
<polygon fill="midnightblue" stroke="midnightblue" points="513.381,-105.1 523.777,-103.058 514.377,-98.1708 513.381,-105.1"/>
</g>
<!-- Node6 -->
<g id="node6" class="node"><title>Node6</title>
<g id="a_node6"><a xlink:href="classgestorempleados_1_1control_1_1_preferencias.xhtml#ae64b723a46d579f7646e75aa453ed3c8" target="_top" xlink:title="gestorempleados.control.\lPreferencias.getPort">
<polygon fill="white" stroke="black" points="524,-48 524,-78 650,-78 650,-48 524,-48"/>
<text text-anchor="start" x="532" y="-66" font-family="Helvetica,sans-Serif" font-size="10.00">gestorempleados.control.</text>
<text text-anchor="middle" x="587" y="-55" font-family="Helvetica,sans-Serif" font-size="10.00">Preferencias.getPort</text>
</a>
</g>
</g>
<!-- Node4&#45;&gt;Node6 -->
<g id="edge5" class="edge"><title>Node4&#45;&gt;Node6</title>
<path fill="none" stroke="midnightblue" d="M488.372,-77.6149C496.718,-76.3655 505.258,-75.0871 513.646,-73.8315"/>
<polygon fill="midnightblue" stroke="midnightblue" points="514.406,-77.2568 523.777,-72.3148 513.369,-70.3339 514.406,-77.2568"/>
</g>
</g>
</svg>
