<?xml version="1.0" encoding="UTF-8" standalone="no"?>
<!DOCTYPE svg PUBLIC "-//W3C//DTD SVG 1.1//EN"
 "http://www.w3.org/Graphics/SVG/1.1/DTD/svg11.dtd">
<!-- Generated by graphviz version 2.30.1 (20130214.1330)
 -->
<!-- Title: gestorempleados.conector.ConectorCliente.sendPacket Pages: 1 -->
<!--zoomable 491 -->
<svg id="main" version="1.1" xmlns="http://www.w3.org/2000/svg" xmlns:xlink="http://www.w3.org/1999/xlink" xml:space="preserve" onload="init(evt)">
<style type="text/css"><![CDATA[
.edge:hover path { stroke: red; }
.edge:hover polygon { stroke: red; fill: red; }
]]></style>
<script type="text/javascript"><![CDATA[
var edges = document.getElementsByTagName('g');
if (edges && edges.length) {
  for (var i=0;i<edges.length;i++) {
    if (edges[i].id.substr(0,4)=='edge') {
      edges[i].setAttribute('class','edge');
    }
  }
}
]]></script>
        <defs>
                <circle id="rim" cx="0" cy="0" r="7"/>
                <circle id="rim2" cx="0" cy="0" r="3.5"/>
                <g id="zoomPlus">
                        <use xlink:href="#rim" fill="#404040">
                                <set attributeName="fill" to="#808080" begin="zoomplus.mouseover" end="zoomplus.mouseout"/>
                        </use>
                        <path d="M-4,0h8M0,-4v8" fill="none" stroke="white" stroke-width="1.5" pointer-events="none"/>
                </g>
                <g id="zoomMin">
                        <use xlink:href="#rim" fill="#404040">
                                <set attributeName="fill" to="#808080" begin="zoomminus.mouseover" end="zoomminus.mouseout"/>
                        </use>
                        <path d="M-4,0h8" fill="none" stroke="white" stroke-width="1.5" pointer-events="none"/>
                </g>
                <g id="dirArrow">
                        <path fill="none" stroke="white" stroke-width="1.5" d="M0,-3.0v7 M-2.5,-0.5L0,-3.0L2.5,-0.5"/>
                </g>
               <g id="resetDef">
                       <use xlink:href="#rim2" fill="#404040">
                               <set attributeName="fill" to="#808080" begin="reset.mouseover" end="reset.mouseout"/>
                       </use>
               </g>
        </defs>

<script type="text/javascript">
var viewWidth = 552;
var viewHeight = 491;
var sectionId = 'dynsection-2';
</script>
<script xlink:href="svgpan.js"/>
<svg id="graph" class="graph">
<g id="viewport">
<title>gestorempleados.conector.ConectorCliente.sendPacket</title>
<polygon fill="white" stroke="white" points="-4,5 -4,-487 549,-487 549,5 -4,5"/>
<!-- Node1 -->
<g id="node1" class="node"><title>Node1</title>
<polygon fill="#bfbfbf" stroke="black" points="0,-192 0,-222 140,-222 140,-192 0,-192"/>
<text text-anchor="start" x="8" y="-210" font-family="Helvetica,sans-Serif" font-size="10.00">gestorempleados.conector.</text>
<text text-anchor="middle" x="70" y="-199" font-family="Helvetica,sans-Serif" font-size="10.00">ConectorCliente.sendPacket</text>
</g>
<!-- Node2 -->
<g id="node2" class="node"><title>Node2</title>
<g id="a_node2"><a xlink:href="classgestorempleados_1_1control_1_1_negocio_cliente.xhtml#a07bf95897d503b8d71fc88cfaa1b60ff" target="_top" xlink:title="gestorempleados.control.\lNegocioCliente.getEmpleados">
<polygon fill="white" stroke="black" points="191.5,-443 191.5,-473 338.5,-473 338.5,-443 191.5,-443"/>
<text text-anchor="start" x="199.5" y="-461" font-family="Helvetica,sans-Serif" font-size="10.00">gestorempleados.control.</text>
<text text-anchor="middle" x="265" y="-450" font-family="Helvetica,sans-Serif" font-size="10.00">NegocioCliente.getEmpleados</text>
</a>
</g>
</g>
<!-- Node1&#45;&gt;Node2 -->
<g id="edge1" class="edge"><title>Node1&#45;&gt;Node2</title>
<path fill="none" stroke="midnightblue" d="M77.8208,-231.88C90.5997,-274.384 121.86,-361.558 176,-415 188.101,-426.946 204.176,-436.12 219.274,-442.865"/>
<polygon fill="midnightblue" stroke="midnightblue" points="81.1244,-230.706 74.9675,-222.084 74.4037,-232.664 81.1244,-230.706"/>
</g>
<!-- Node4 -->
<g id="node4" class="node"><title>Node4</title>
<g id="a_node4"><a xlink:href="classgestorempleados_1_1control_1_1_negocio_cliente.xhtml#ac8ccee3f2bb015ca54c4a469d4b6b249" target="_top" xlink:title="gestorempleados.control.\lNegocioCliente.setEmpleado">
<polygon fill="white" stroke="black" points="194,-376 194,-406 336,-406 336,-376 194,-376"/>
<text text-anchor="start" x="202" y="-394" font-family="Helvetica,sans-Serif" font-size="10.00">gestorempleados.control.</text>
<text text-anchor="middle" x="265" y="-383" font-family="Helvetica,sans-Serif" font-size="10.00">NegocioCliente.setEmpleado</text>
</a>
</g>
</g>
<!-- Node1&#45;&gt;Node4 -->
<g id="edge3" class="edge"><title>Node1&#45;&gt;Node4</title>
<path fill="none" stroke="midnightblue" d="M88.3154,-230.395C107.978,-256.131 141.791,-297.954 176,-329 195.79,-346.96 220.929,-364.201 239.267,-375.922"/>
<polygon fill="midnightblue" stroke="midnightblue" points="91.0335,-228.187 82.2094,-222.323 85.4508,-232.41 91.0335,-228.187"/>
</g>
<!-- Node6 -->
<g id="node6" class="node"><title>Node6</title>
<g id="a_node6"><a xlink:href="classgestorempleados_1_1control_1_1_negocio_cliente.xhtml#a9636f9f7cd80e0eb68a18113fd3dd8ae" target="_top" xlink:title="gestorempleados.control.\lNegocioCliente.modifDatosEmpleado">
<polygon fill="white" stroke="black" points="176.5,-290 176.5,-320 353.5,-320 353.5,-290 176.5,-290"/>
<text text-anchor="start" x="184.5" y="-308" font-family="Helvetica,sans-Serif" font-size="10.00">gestorempleados.control.</text>
<text text-anchor="middle" x="265" y="-297" font-family="Helvetica,sans-Serif" font-size="10.00">NegocioCliente.modifDatosEmpleado</text>
</a>
</g>
</g>
<!-- Node1&#45;&gt;Node6 -->
<g id="edge5" class="edge"><title>Node1&#45;&gt;Node6</title>
<path fill="none" stroke="midnightblue" d="M109.662,-226.631C146.374,-245.273 200.784,-272.901 234.233,-289.885"/>
<polygon fill="midnightblue" stroke="midnightblue" points="111.234,-223.505 100.733,-222.098 108.065,-229.746 111.234,-223.505"/>
</g>
<!-- Node10 -->
<g id="node10" class="node"><title>Node10</title>
<g id="a_node10"><a xlink:href="classgestorempleados_1_1control_1_1_negocio_cliente.xhtml#a7db8dd511522eb990fd2e964e9bc5263" target="_top" xlink:title="gestorempleados.control.\lNegocioCliente.getDepartamentos">
<polygon fill="white" stroke="black" points="183,-217 183,-247 347,-247 347,-217 183,-217"/>
<text text-anchor="start" x="191" y="-235" font-family="Helvetica,sans-Serif" font-size="10.00">gestorempleados.control.</text>
<text text-anchor="middle" x="265" y="-224" font-family="Helvetica,sans-Serif" font-size="10.00">NegocioCliente.getDepartamentos</text>
</a>
</g>
</g>
<!-- Node1&#45;&gt;Node10 -->
<g id="edge9" class="edge"><title>Node1&#45;&gt;Node10</title>
<path fill="none" stroke="midnightblue" d="M150.317,-217.274C161.053,-218.665 172.082,-220.094 182.85,-221.488"/>
<polygon fill="midnightblue" stroke="midnightblue" points="150.499,-213.769 140.132,-215.955 149.6,-220.711 150.499,-213.769"/>
</g>
<!-- Node12 -->
<g id="node12" class="node"><title>Node12</title>
<g id="a_node12"><a xlink:href="classgestorempleados_1_1control_1_1_negocio_cliente.xhtml#abda6d6aa37db8bb2a091ab5a89d4e43c" target="_top" xlink:title="gestorempleados.control.\lNegocioCliente.getCargos">
<polygon fill="white" stroke="black" points="200.5,-168 200.5,-198 329.5,-198 329.5,-168 200.5,-168"/>
<text text-anchor="start" x="208.5" y="-186" font-family="Helvetica,sans-Serif" font-size="10.00">gestorempleados.control.</text>
<text text-anchor="middle" x="265" y="-175" font-family="Helvetica,sans-Serif" font-size="10.00">NegocioCliente.getCargos</text>
</a>
</g>
</g>
<!-- Node1&#45;&gt;Node12 -->
<g id="edge11" class="edge"><title>Node1&#45;&gt;Node12</title>
<path fill="none" stroke="midnightblue" d="M150.411,-197.125C167.095,-195.05 184.483,-192.888 200.493,-190.897"/>
<polygon fill="midnightblue" stroke="midnightblue" points="149.624,-193.696 140.132,-198.403 150.488,-200.642 149.624,-193.696"/>
</g>
<!-- Node13 -->
<g id="node13" class="node"><title>Node13</title>
<g id="a_node13"><a xlink:href="classgestorempleados_1_1control_1_1_negocio_cliente.xhtml#acb0bab9fbbddd5c886bc9f2ddfe6e695" target="_top" xlink:title="gestorempleados.control.\lNegocioCliente.getReporte">
<polygon fill="white" stroke="black" points="199,-119 199,-149 331,-149 331,-119 199,-119"/>
<text text-anchor="start" x="207" y="-137" font-family="Helvetica,sans-Serif" font-size="10.00">gestorempleados.control.</text>
<text text-anchor="middle" x="265" y="-126" font-family="Helvetica,sans-Serif" font-size="10.00">NegocioCliente.getReporte</text>
</a>
</g>
</g>
<!-- Node1&#45;&gt;Node13 -->
<g id="edge12" class="edge"><title>Node1&#45;&gt;Node13</title>
<path fill="none" stroke="midnightblue" d="M108.805,-187.449C128.497,-177.758 153.173,-166.37 176,-158 184.772,-154.784 194.175,-151.775 203.452,-149.049"/>
<polygon fill="midnightblue" stroke="midnightblue" points="107.243,-184.317 99.8517,-191.907 110.363,-190.583 107.243,-184.317"/>
</g>
<!-- Node16 -->
<g id="node16" class="node"><title>Node16</title>
<g id="a_node16"><a xlink:href="classgestorempleados_1_1control_1_1_negocio_cliente.xhtml#a11aa15a708641a8b68de872407c0acc9" target="_top" xlink:title="gestorempleados.control.\lNegocioCliente.validateId">
<polygon fill="white" stroke="black" points="202,-67 202,-97 328,-97 328,-67 202,-67"/>
<text text-anchor="start" x="210" y="-85" font-family="Helvetica,sans-Serif" font-size="10.00">gestorempleados.control.</text>
<text text-anchor="middle" x="265" y="-74" font-family="Helvetica,sans-Serif" font-size="10.00">NegocioCliente.validateId</text>
</a>
</g>
</g>
<!-- Node1&#45;&gt;Node16 -->
<g id="edge15" class="edge"><title>Node1&#45;&gt;Node16</title>
<path fill="none" stroke="midnightblue" d="M89.8634,-184.178C109.315,-162.021 141.588,-128.901 176,-109 184.024,-104.36 192.929,-100.436 201.904,-97.1429"/>
<polygon fill="midnightblue" stroke="midnightblue" points="87.172,-181.939 83.2966,-191.8 92.4753,-186.508 87.172,-181.939"/>
</g>
<!-- Node18 -->
<g id="node18" class="node"><title>Node18</title>
<g id="a_node18"><a xlink:href="classgestorempleados_1_1control_1_1_negocio_cliente.xhtml#a47fbb19a34ae4e6d107295cb2feda080" target="_top" xlink:title="gestorempleados.control.\lNegocioCliente.validateUser">
<polygon fill="white" stroke="black" points="196.5,-12 196.5,-42 333.5,-42 333.5,-12 196.5,-12"/>
<text text-anchor="start" x="204.5" y="-30" font-family="Helvetica,sans-Serif" font-size="10.00">gestorempleados.control.</text>
<text text-anchor="middle" x="265" y="-19" font-family="Helvetica,sans-Serif" font-size="10.00">NegocioCliente.validateUser</text>
</a>
</g>
</g>
<!-- Node1&#45;&gt;Node18 -->
<g id="edge17" class="edge"><title>Node1&#45;&gt;Node18</title>
<path fill="none" stroke="midnightblue" d="M82.0513,-182.46C98.1466,-149.378 131.087,-90.7415 176,-57 184.13,-50.892 193.588,-45.9735 203.228,-42.0288"/>
<polygon fill="midnightblue" stroke="midnightblue" points="78.7208,-181.315 77.6024,-191.851 85.0468,-184.312 78.7208,-181.315"/>
</g>
<!-- Node3 -->
<g id="node3" class="node"><title>Node3</title>
<g id="a_node3"><a xlink:href="classplugins_1_1_panel___consultas.xhtml#a2ad6c61fd3e9a34a7e31479f908be48e" target="_top" xlink:title="plugins.Panel_Consultas.\lPanel_Consultas">
<polygon fill="white" stroke="black" points="403.5,-453 403.5,-483 530.5,-483 530.5,-453 403.5,-453"/>
<text text-anchor="start" x="411.5" y="-471" font-family="Helvetica,sans-Serif" font-size="10.00">plugins.Panel_Consultas.</text>
<text text-anchor="middle" x="467" y="-460" font-family="Helvetica,sans-Serif" font-size="10.00">Panel_Consultas</text>
</a>
</g>
</g>
<!-- Node2&#45;&gt;Node3 -->
<g id="edge2" class="edge"><title>Node2&#45;&gt;Node3</title>
<path fill="none" stroke="midnightblue" d="M348.778,-462.139C366.965,-463.048 385.936,-463.997 403.185,-464.859"/>
<polygon fill="midnightblue" stroke="midnightblue" points="348.933,-458.642 338.77,-461.639 348.583,-465.634 348.933,-458.642"/>
</g>
<!-- Node5 -->
<g id="node5" class="node"><title>Node5</title>
<g id="a_node5"><a xlink:href="classplugins_1_1_panel___alta.xhtml#a804926b94fa2f64e79032ded83f6b1e6" target="_top" xlink:title="plugins.Panel_Alta.crear\lPanel">
<polygon fill="white" stroke="black" points="406,-404 406,-434 528,-434 528,-404 406,-404"/>
<text text-anchor="start" x="414" y="-422" font-family="Helvetica,sans-Serif" font-size="10.00">plugins.Panel_Alta.crear</text>
<text text-anchor="middle" x="467" y="-411" font-family="Helvetica,sans-Serif" font-size="10.00">Panel</text>
</a>
</g>
</g>
<!-- Node4&#45;&gt;Node5 -->
<g id="edge4" class="edge"><title>Node4&#45;&gt;Node5</title>
<path fill="none" stroke="midnightblue" d="M346.215,-402.23C366.128,-405.018 387.132,-407.959 405.895,-410.585"/>
<polygon fill="midnightblue" stroke="midnightblue" points="346.62,-398.753 336.231,-400.832 345.649,-405.685 346.62,-398.753"/>
</g>
<!-- Node7 -->
<g id="node7" class="node"><title>Node7</title>
<g id="a_node7"><a xlink:href="classplugins_1_1_panel___consultas.xhtml#a4072616654f5b0d96c9ba7213b140d36" target="_top" xlink:title="plugins.Panel_Consultas.editar\lDatosEmpleado">
<polygon fill="white" stroke="black" points="391.5,-355 391.5,-385 542.5,-385 542.5,-355 391.5,-355"/>
<text text-anchor="start" x="399.5" y="-373" font-family="Helvetica,sans-Serif" font-size="10.00">plugins.Panel_Consultas.editar</text>
<text text-anchor="middle" x="467" y="-362" font-family="Helvetica,sans-Serif" font-size="10.00">DatosEmpleado</text>
</a>
</g>
</g>
<!-- Node6&#45;&gt;Node7 -->
<g id="edge6" class="edge"><title>Node6&#45;&gt;Node7</title>
<path fill="none" stroke="midnightblue" d="M322.1,-323.233C352.826,-333.218 390.449,-345.446 419.519,-354.894"/>
<polygon fill="midnightblue" stroke="midnightblue" points="322.979,-319.838 312.387,-320.076 320.815,-326.495 322.979,-319.838"/>
</g>
<!-- Node8 -->
<g id="node8" class="node"><title>Node8</title>
<g id="a_node8"><a xlink:href="classplugins_1_1_panel___consultas.xhtml#aef9cb36e8db78e3bd75c3e4acf0bc9e4" target="_top" xlink:title="plugins.Panel_Consultas.editar\lCVEmpleado">
<polygon fill="white" stroke="black" points="391.5,-306 391.5,-336 542.5,-336 542.5,-306 391.5,-306"/>
<text text-anchor="start" x="399.5" y="-324" font-family="Helvetica,sans-Serif" font-size="10.00">plugins.Panel_Consultas.editar</text>
<text text-anchor="middle" x="467" y="-313" font-family="Helvetica,sans-Serif" font-size="10.00">CVEmpleado</text>
</a>
</g>
</g>
<!-- Node6&#45;&gt;Node8 -->
<g id="edge7" class="edge"><title>Node6&#45;&gt;Node8</title>
<path fill="none" stroke="midnightblue" d="M363.8,-312.824C373.11,-313.569 382.445,-314.316 391.483,-315.039"/>
<polygon fill="midnightblue" stroke="midnightblue" points="363.97,-309.327 353.723,-312.018 363.412,-316.304 363.97,-309.327"/>
</g>
<!-- Node9 -->
<g id="node9" class="node"><title>Node9</title>
<g id="a_node9"><a xlink:href="classplugins_1_1_panel___consultas.xhtml#ad1596ee5ed80b3214b8374f3f0a97ef6" target="_top" xlink:title="plugins.Panel_Consultas.editar\lContratosEmpleado">
<polygon fill="white" stroke="black" points="391.5,-257 391.5,-287 542.5,-287 542.5,-257 391.5,-257"/>
<text text-anchor="start" x="399.5" y="-275" font-family="Helvetica,sans-Serif" font-size="10.00">plugins.Panel_Consultas.editar</text>
<text text-anchor="middle" x="467" y="-264" font-family="Helvetica,sans-Serif" font-size="10.00">ContratosEmpleado</text>
</a>
</g>
</g>
<!-- Node6&#45;&gt;Node9 -->
<g id="edge8" class="edge"><title>Node6&#45;&gt;Node9</title>
<path fill="none" stroke="midnightblue" d="M363.8,-288.863C373.11,-287.327 382.445,-285.787 391.483,-284.295"/>
<polygon fill="midnightblue" stroke="midnightblue" points="363.02,-285.444 353.723,-290.526 364.159,-292.351 363.02,-285.444"/>
</g>
<!-- Node11 -->
<g id="node11" class="node"><title>Node11</title>
<g id="a_node11"><a xlink:href="classgestorempleados_1_1interficie_1_1_panel___contrato.xhtml#a792633b39c1bbe386b428d3a04502322" target="_top" xlink:title="gestorempleados.interficie.\lPanel_Contrato.Panel_Contrato">
<polygon fill="white" stroke="black" points="390.5,-208 390.5,-238 543.5,-238 543.5,-208 390.5,-208"/>
<text text-anchor="start" x="398.5" y="-226" font-family="Helvetica,sans-Serif" font-size="10.00">gestorempleados.interficie.</text>
<text text-anchor="middle" x="467" y="-215" font-family="Helvetica,sans-Serif" font-size="10.00">Panel_Contrato.Panel_Contrato</text>
</a>
</g>
</g>
<!-- Node10&#45;&gt;Node11 -->
<g id="edge10" class="edge"><title>Node10&#45;&gt;Node11</title>
<path fill="none" stroke="midnightblue" d="M357.182,-227.897C368.265,-227.398 379.495,-226.893 390.32,-226.406"/>
<polygon fill="midnightblue" stroke="midnightblue" points="356.892,-224.406 347.059,-228.352 357.207,-231.399 356.892,-224.406"/>
</g>
<!-- Node14 -->
<g id="node14" class="node"><title>Node14</title>
<g id="a_node14"><a xlink:href="classplugins_1_1_panel___busqueda.xhtml#a8d47495fc4538acdfbc2f27cddffce0d" target="_top" xlink:title="plugins.Panel_Busqueda.crear\lPanel">
<polygon fill="white" stroke="black" points="392.5,-159 392.5,-189 541.5,-189 541.5,-159 392.5,-159"/>
<text text-anchor="start" x="400.5" y="-177" font-family="Helvetica,sans-Serif" font-size="10.00">plugins.Panel_Busqueda.crear</text>
<text text-anchor="middle" x="467" y="-166" font-family="Helvetica,sans-Serif" font-size="10.00">Panel</text>
</a>
</g>
</g>
<!-- Node13&#45;&gt;Node14 -->
<g id="edge13" class="edge"><title>Node13&#45;&gt;Node14</title>
<path fill="none" stroke="midnightblue" d="M341.422,-149.084C358.052,-152.41 375.649,-155.93 392.213,-159.243"/>
<polygon fill="midnightblue" stroke="midnightblue" points="341.703,-145.571 331.211,-147.042 340.33,-152.435 341.703,-145.571"/>
</g>
<!-- Node15 -->
<g id="node15" class="node"><title>Node15</title>
<g id="a_node15"><a xlink:href="classplugins_1_1_panel___registros.xhtml#aae4d01f2f3b9885bee3d9e8057cebece" target="_top" xlink:title="plugins.Panel_Registros.\lPanel_Registros">
<polygon fill="white" stroke="black" points="404.5,-110 404.5,-140 529.5,-140 529.5,-110 404.5,-110"/>
<text text-anchor="start" x="412.5" y="-128" font-family="Helvetica,sans-Serif" font-size="10.00">plugins.Panel_Registros.</text>
<text text-anchor="middle" x="467" y="-117" font-family="Helvetica,sans-Serif" font-size="10.00">Panel_Registros</text>
</a>
</g>
</g>
<!-- Node13&#45;&gt;Node15 -->
<g id="edge14" class="edge"><title>Node13&#45;&gt;Node15</title>
<path fill="none" stroke="midnightblue" d="M341.274,-130.613C362.056,-129.677 384.358,-128.674 404.275,-127.778"/>
<polygon fill="midnightblue" stroke="midnightblue" points="341.043,-127.119 331.211,-131.066 341.358,-134.112 341.043,-127.119"/>
</g>
<!-- Node17 -->
<g id="node17" class="node"><title>Node17</title>
<g id="a_node17"><a xlink:href="classgestorempleados_1_1interficie_1_1_panel___datos_personales.xhtml#a3c7e18bd89aaa31bb40ce20d753b4510" target="_top" xlink:title="gestorempleados.interficie.\lPanel_DatosPersonales.Panel\l_DatosPersonales">
<polygon fill="white" stroke="black" points="392.5,-49.5 392.5,-90.5 541.5,-90.5 541.5,-49.5 392.5,-49.5"/>
<text text-anchor="start" x="400.5" y="-78.5" font-family="Helvetica,sans-Serif" font-size="10.00">gestorempleados.interficie.</text>
<text text-anchor="start" x="400.5" y="-67.5" font-family="Helvetica,sans-Serif" font-size="10.00">Panel_DatosPersonales.Panel</text>
<text text-anchor="middle" x="467" y="-56.5" font-family="Helvetica,sans-Serif" font-size="10.00">_DatosPersonales</text>
</a>
</g>
</g>
<!-- Node16&#45;&gt;Node17 -->
<g id="edge16" class="edge"><title>Node16&#45;&gt;Node17</title>
<path fill="none" stroke="midnightblue" d="M338.353,-77.6588C355.896,-76.6063 374.67,-75.4798 392.275,-74.4235"/>
<polygon fill="midnightblue" stroke="midnightblue" points="337.957,-74.1762 328.185,-78.2689 338.377,-81.1636 337.957,-74.1762"/>
</g>
<!-- Node19 -->
<g id="node19" class="node"><title>Node19</title>
<g id="a_node19"><a xlink:href="classgestorempleados_1_1interficie_1_1_start_client.xhtml#a8fbbf7d526b86a7c9662033ca9839428" target="_top" xlink:title="gestorempleados.interficie.\lStartClient.confirmaUsuario">
<polygon fill="white" stroke="black" points="399.5,-0 399.5,-30 534.5,-30 534.5,-0 399.5,-0"/>
<text text-anchor="start" x="407.5" y="-18" font-family="Helvetica,sans-Serif" font-size="10.00">gestorempleados.interficie.</text>
<text text-anchor="middle" x="467" y="-7" font-family="Helvetica,sans-Serif" font-size="10.00">StartClient.confirmaUsuario</text>
</a>
</g>
</g>
<!-- Node18&#45;&gt;Node19 -->
<g id="edge18" class="edge"><title>Node18&#45;&gt;Node19</title>
<path fill="none" stroke="midnightblue" d="M343.786,-22.3328C362.147,-21.2312 381.56,-20.0664 399.377,-18.9974"/>
<polygon fill="midnightblue" stroke="midnightblue" points="343.483,-18.8446 333.711,-22.9373 343.903,-25.832 343.483,-18.8446"/>
</g>
</g>
</svg>
        <g id="navigator" transform="translate(0 0)" fill="#404254">
                <rect fill="#f2f5e9" fill-opacity="0.5" stroke="#606060" stroke-width=".5" x="0" y="0" width="60" height="60"/>
                <use id="zoomplus" xlink:href="#zoomPlus" x="17" y="9" onmousedown="handleZoom(evt,'in')"/>
                <use id="zoomminus" xlink:href="#zoomMin" x="42" y="9" onmousedown="handleZoom(evt,'out')"/>
                <use id="reset" xlink:href="#resetDef" x="30" y="36" onmousedown="handleReset()"/>
                <g id="arrowUp" xlink:href="#dirArrow" transform="translate(30 24)" onmousedown="handlePan(0,-1)">
                  <use xlink:href="#rim" fill="#404040">
                        <set attributeName="fill" to="#808080" begin="arrowUp.mouseover" end="arrowUp.mouseout"/>
                  </use>
                  <path fill="none" stroke="white" stroke-width="1.5" d="M0,-3.0v7 M-2.5,-0.5L0,-3.0L2.5,-0.5"/>
                </g>
                <g id="arrowRight" xlink:href="#dirArrow" transform="rotate(90) translate(36 -43)" onmousedown="handlePan(1,0)">
                  <use xlink:href="#rim" fill="#404040">
                        <set attributeName="fill" to="#808080" begin="arrowRight.mouseover" end="arrowRight.mouseout"/>
                  </use>
                  <path fill="none" stroke="white" stroke-width="1.5" d="M0,-3.0v7 M-2.5,-0.5L0,-3.0L2.5,-0.5"/>
                </g>
                <g id="arrowDown" xlink:href="#dirArrow" transform="rotate(180) translate(-30 -48)" onmousedown="handlePan(0,1)">
                  <use xlink:href="#rim" fill="#404040">
                        <set attributeName="fill" to="#808080" begin="arrowDown.mouseover" end="arrowDown.mouseout"/>
                  </use>
                  <path fill="none" stroke="white" stroke-width="1.5" d="M0,-3.0v7 M-2.5,-0.5L0,-3.0L2.5,-0.5"/>
                </g>
                <g id="arrowLeft" xlink:href="#dirArrow" transform="rotate(270) translate(-36 17)" onmousedown="handlePan(-1,0)">
                  <use xlink:href="#rim" fill="#404040">
                        <set attributeName="fill" to="#808080" begin="arrowLeft.mouseover" end="arrowLeft.mouseout"/>
                  </use>
                  <path fill="none" stroke="white" stroke-width="1.5" d="M0,-3.0v7 M-2.5,-0.5L0,-3.0L2.5,-0.5"/>
                </g>
        </g>
        <svg viewBox="0 0 15 15" width="100%" height="30px" preserveAspectRatio="xMaxYMin meet">
         <g id="arrow_out" transform="scale(0.3 0.3)">
          <a xlink:href="classgestorempleados_1_1conector_1_1_conector_cliente_a830dba55e91b371279078945cf0b84c5_icgraph_org.svg" target="_base">
           <rect id="button" ry="5" rx="5" y="6" x="6" height="38" width="38"
                fill="#f2f5e9" fill-opacity="0.5" stroke="#606060" stroke-width="1.0"/>
           <path id="arrow"
             d="M 11.500037,31.436501 C 11.940474,20.09759 22.043105,11.32322 32.158766,21.979434 L 37.068811,17.246167 C 37.068811,17.246167 37.088388,32 37.088388,32 L 22.160133,31.978069 C 22.160133,31.978069 26.997745,27.140456 26.997745,27.140456 C 18.528582,18.264221 13.291696,25.230495 11.500037,31.436501 z"
             style="fill:#404040;"/>
          </a>
         </g>
        </svg>
</svg>
