<?xml version="1.0" encoding="UTF-8" standalone="no"?>
<!DOCTYPE svg PUBLIC "-//W3C//DTD SVG 1.1//EN"
 "http://www.w3.org/Graphics/SVG/1.1/DTD/svg11.dtd">
<!-- Generated by graphviz version 2.30.1 (20130214.1330)
 -->
<!-- Title: gestorempleados.persistencia.Cargo Pages: 1 -->
<svg width="251pt" height="642pt"
 viewBox="0.00 0.00 251.00 642.00" xmlns="http://www.w3.org/2000/svg" xmlns:xlink="http://www.w3.org/1999/xlink">
<g id="graph0" class="graph" transform="scale(1 1) rotate(0) translate(4 638)">
<title>gestorempleados.persistencia.Cargo</title>
<polygon fill="white" stroke="white" points="-4,5 -4,-638 248,-638 248,5 -4,5"/>
<!-- Node1 -->
<g id="node1" class="node"><title>Node1</title>
<polygon fill="#bfbfbf" stroke="black" points="24.5,-0.5 24.5,-299.5 173.5,-299.5 173.5,-0.5 24.5,-0.5"/>
<text text-anchor="start" x="32.5" y="-287.5" font-family="Helvetica,sans-Serif" font-size="10.00">gestorempleados.persistencia.</text>
<text text-anchor="middle" x="99" y="-276.5" font-family="Helvetica,sans-Serif" font-size="10.00">Cargo</text>
<polyline fill="none" stroke="black" points="24.5,-269.5 173.5,-269.5 "/>
<text text-anchor="start" x="32.5" y="-257.5" font-family="Helvetica,sans-Serif" font-size="10.00">&#45; id</text>
<text text-anchor="start" x="32.5" y="-246.5" font-family="Helvetica,sans-Serif" font-size="10.00">&#45; rango</text>
<text text-anchor="start" x="32.5" y="-235.5" font-family="Helvetica,sans-Serif" font-size="10.00">&#45; funcion</text>
<text text-anchor="start" x="32.5" y="-224.5" font-family="Helvetica,sans-Serif" font-size="10.00">&#45; indGeneral</text>
<text text-anchor="start" x="32.5" y="-213.5" font-family="Helvetica,sans-Serif" font-size="10.00">&#45; indPersonal</text>
<polyline fill="none" stroke="black" points="24.5,-206.5 173.5,-206.5 "/>
<text text-anchor="start" x="32.5" y="-194.5" font-family="Helvetica,sans-Serif" font-size="10.00">+ Cargo()</text>
<text text-anchor="start" x="32.5" y="-183.5" font-family="Helvetica,sans-Serif" font-size="10.00">+ Cargo()</text>
<text text-anchor="start" x="32.5" y="-172.5" font-family="Helvetica,sans-Serif" font-size="10.00">+ Cargo()</text>
<text text-anchor="start" x="32.5" y="-161.5" font-family="Helvetica,sans-Serif" font-size="10.00">+ getId()</text>
<text text-anchor="start" x="32.5" y="-150.5" font-family="Helvetica,sans-Serif" font-size="10.00">+ setId()</text>
<text text-anchor="start" x="32.5" y="-139.5" font-family="Helvetica,sans-Serif" font-size="10.00">+ getDepartamento()</text>
<text text-anchor="start" x="32.5" y="-128.5" font-family="Helvetica,sans-Serif" font-size="10.00">+ setDepartamento()</text>
<text text-anchor="start" x="32.5" y="-117.5" font-family="Helvetica,sans-Serif" font-size="10.00">+ getRango()</text>
<text text-anchor="start" x="32.5" y="-106.5" font-family="Helvetica,sans-Serif" font-size="10.00">+ setRango()</text>
<text text-anchor="start" x="32.5" y="-95.5" font-family="Helvetica,sans-Serif" font-size="10.00">+ getFuncion()</text>
<text text-anchor="start" x="32.5" y="-84.5" font-family="Helvetica,sans-Serif" font-size="10.00">+ setFuncion()</text>
<text text-anchor="start" x="32.5" y="-73.5" font-family="Helvetica,sans-Serif" font-size="10.00">+ getIndGeneral()</text>
<text text-anchor="start" x="32.5" y="-62.5" font-family="Helvetica,sans-Serif" font-size="10.00">+ setIndGeneral()</text>
<text text-anchor="start" x="32.5" y="-51.5" font-family="Helvetica,sans-Serif" font-size="10.00">+ getIndPersonal()</text>
<text text-anchor="start" x="32.5" y="-40.5" font-family="Helvetica,sans-Serif" font-size="10.00">+ setIndPersonal()</text>
<text text-anchor="start" x="32.5" y="-29.5" font-family="Helvetica,sans-Serif" font-size="10.00">+ getContratos()</text>
<text text-anchor="start" x="32.5" y="-18.5" font-family="Helvetica,sans-Serif" font-size="10.00">+ setContratos()</text>
<text text-anchor="start" x="32.5" y="-7.5" font-family="Helvetica,sans-Serif" font-size="10.00">+ toString()</text>
</g>
<!-- Node2 -->
<g id="node2" class="node"><title>Node2</title>
<polygon fill="white" stroke="#bfbfbf" points="-0.5,-576.5 -0.5,-633.5 66.5,-633.5 66.5,-576.5 -0.5,-576.5"/>
<text text-anchor="middle" x="33" y="-621.5" font-family="Helvetica,sans-Serif" font-size="10.00">Serializable</text>
<polyline fill="none" stroke="#bfbfbf" points="-0.5,-614.5 66.5,-614.5 "/>
<text text-anchor="middle" x="33" y="-602.5" font-family="Helvetica,sans-Serif" font-size="10.00"> </text>
<polyline fill="none" stroke="#bfbfbf" points="-0.5,-595.5 66.5,-595.5 "/>
<text text-anchor="middle" x="33" y="-583.5" font-family="Helvetica,sans-Serif" font-size="10.00"> </text>
</g>
<!-- Node2&#45;&gt;Node1 -->
<g id="edge1" class="edge"><title>Node2&#45;&gt;Node1</title>
<path fill="none" stroke="midnightblue" d="M22.3254,-566.63C19.3303,-554.423 16.4871,-540.731 15,-528 5.71867,-448.54 -1.01319,-426.381 15,-348 18.2746,-331.972 22.905,-315.633 28.3284,-299.565"/>
<polygon fill="none" stroke="midnightblue" points="18.977,-567.664 24.8505,-576.481 25.7578,-565.925 18.977,-567.664"/>
</g>
<!-- Node4 -->
<g id="node4" class="node"><title>Node4</title>
<g id="a_node4"><a xlink:href="classgestorempleados_1_1persistencia_1_1_departamento.xhtml" target="_top" xlink:title="{gestorempleados.persistencia.\lDepartamento\n|&#45; id\l&#45; descripcion\l|+ Departamento()\l+ Departamento()\l+ Departamento()\l+ getId()\l+ setId()\l+ getDescripcion()\l+ setDescripcion()\l+ getCargos()\l+ setCargos()\l+ toString()\l}">
<polygon fill="white" stroke="black" points="24.5,-349 24.5,-527 173.5,-527 173.5,-349 24.5,-349"/>
<text text-anchor="start" x="32.5" y="-515" font-family="Helvetica,sans-Serif" font-size="10.00">gestorempleados.persistencia.</text>
<text text-anchor="middle" x="99" y="-504" font-family="Helvetica,sans-Serif" font-size="10.00">Departamento</text>
<polyline fill="none" stroke="black" points="24.5,-497 173.5,-497 "/>
<text text-anchor="start" x="32.5" y="-485" font-family="Helvetica,sans-Serif" font-size="10.00">&#45; id</text>
<text text-anchor="start" x="32.5" y="-474" font-family="Helvetica,sans-Serif" font-size="10.00">&#45; descripcion</text>
<polyline fill="none" stroke="black" points="24.5,-467 173.5,-467 "/>
<text text-anchor="start" x="32.5" y="-455" font-family="Helvetica,sans-Serif" font-size="10.00">+ Departamento()</text>
<text text-anchor="start" x="32.5" y="-444" font-family="Helvetica,sans-Serif" font-size="10.00">+ Departamento()</text>
<text text-anchor="start" x="32.5" y="-433" font-family="Helvetica,sans-Serif" font-size="10.00">+ Departamento()</text>
<text text-anchor="start" x="32.5" y="-422" font-family="Helvetica,sans-Serif" font-size="10.00">+ getId()</text>
<text text-anchor="start" x="32.5" y="-411" font-family="Helvetica,sans-Serif" font-size="10.00">+ setId()</text>
<text text-anchor="start" x="32.5" y="-400" font-family="Helvetica,sans-Serif" font-size="10.00">+ getDescripcion()</text>
<text text-anchor="start" x="32.5" y="-389" font-family="Helvetica,sans-Serif" font-size="10.00">+ setDescripcion()</text>
<text text-anchor="start" x="32.5" y="-378" font-family="Helvetica,sans-Serif" font-size="10.00">+ getCargos()</text>
<text text-anchor="start" x="32.5" y="-367" font-family="Helvetica,sans-Serif" font-size="10.00">+ setCargos()</text>
<text text-anchor="start" x="32.5" y="-356" font-family="Helvetica,sans-Serif" font-size="10.00">+ toString()</text>
</a>
</g>
</g>
<!-- Node2&#45;&gt;Node4 -->
<g id="edge4" class="edge"><title>Node2&#45;&gt;Node4</title>
<path fill="none" stroke="midnightblue" d="M47.8592,-566.852C52.619,-554.952 58.1093,-541.227 63.6882,-527.28"/>
<polygon fill="none" stroke="midnightblue" points="44.5112,-565.798 44.0469,-576.383 51.0106,-568.398 44.5112,-565.798"/>
</g>
<!-- Node3 -->
<g id="node3" class="node"><title>Node3</title>
<polygon fill="white" stroke="#bfbfbf" points="121,-576.5 121,-633.5 153,-633.5 153,-576.5 121,-576.5"/>
<text text-anchor="middle" x="137" y="-621.5" font-family="Helvetica,sans-Serif" font-size="10.00">Set</text>
<polyline fill="none" stroke="#bfbfbf" points="121,-614.5 153,-614.5 "/>
<text text-anchor="middle" x="137" y="-602.5" font-family="Helvetica,sans-Serif" font-size="10.00"> </text>
<polyline fill="none" stroke="#bfbfbf" points="121,-595.5 153,-595.5 "/>
<text text-anchor="middle" x="137" y="-583.5" font-family="Helvetica,sans-Serif" font-size="10.00"> </text>
</g>
<!-- Node3&#45;&gt;Node1 -->
<g id="edge2" class="edge"><title>Node3&#45;&gt;Node1</title>
<path fill="none" stroke="#404040" d="M153.138,-584.157C163.823,-569.604 176.793,-548.826 182,-528 201.403,-450.389 197.845,-426.415 182,-348 179.549,-335.87 176.329,-323.558 172.58,-311.317"/>
<polygon fill="none" stroke="#404040" points="172.492,-311.04 166.853,-306.545 168.833,-299.611 174.472,-304.106 172.492,-311.04"/>
<text text-anchor="middle" x="219.5" y="-435.5" font-family="Helvetica,sans-Serif" font-size="10.00"> &#45;contratos</text>
</g>
<!-- Node3&#45;&gt;Node4 -->
<g id="edge5" class="edge"><title>Node3&#45;&gt;Node4</title>
<path fill="none" stroke="#404040" d="M130.64,-576.383C128.188,-565.739 125.224,-552.866 122.104,-539.319"/>
<polygon fill="none" stroke="#404040" points="122.024,-538.973 116.78,-534.024 119.331,-527.28 124.576,-532.229 122.024,-538.973"/>
<text text-anchor="middle" x="144" y="-549.5" font-family="Helvetica,sans-Serif" font-size="10.00"> &#45;cargos</text>
</g>
<!-- Node4&#45;&gt;Node1 -->
<g id="edge3" class="edge"><title>Node4&#45;&gt;Node1</title>
<path fill="none" stroke="#404040" d="M99,-348.857C99,-336.979 99,-324.505 99,-311.843"/>
<polygon fill="none" stroke="#404040" points="99.0001,-311.657 95,-305.657 99,-299.657 103,-305.657 99.0001,-311.657"/>
<text text-anchor="middle" x="132" y="-321.5" font-family="Helvetica,sans-Serif" font-size="10.00"> &#45;departamento</text>
</g>
</g>
</svg>
