<?xml version="1.0" encoding="UTF-8" standalone="no"?>
<!DOCTYPE svg PUBLIC "-//W3C//DTD SVG 1.1//EN"
 "http://www.w3.org/Graphics/SVG/1.1/DTD/svg11.dtd">
<!-- Generated by graphviz version 2.30.1 (20130214.1330)
 -->
<!-- Title: gestorempleados.interficie.Calendario.setDia Pages: 1 -->
<svg width="754pt" height="153pt"
 viewBox="0.00 0.00 754.00 153.00" xmlns="http://www.w3.org/2000/svg" xmlns:xlink="http://www.w3.org/1999/xlink">
<g id="graph0" class="graph" transform="scale(1 1) rotate(0) translate(4 149)">
<title>gestorempleados.interficie.Calendario.setDia</title>
<polygon fill="white" stroke="white" points="-4,5 -4,-149 751,-149 751,5 -4,5"/>
<!-- Node1 -->
<g id="node1" class="node"><title>Node1</title>
<polygon fill="#bfbfbf" stroke="black" points="0.5,-66 0.5,-96 133.5,-96 133.5,-66 0.5,-66"/>
<text text-anchor="start" x="8.5" y="-84" font-family="Helvetica,sans-Serif" font-size="10.00">gestorempleados.interficie.</text>
<text text-anchor="middle" x="67" y="-73" font-family="Helvetica,sans-Serif" font-size="10.00">Calendario.setDia</text>
</g>
<!-- Node2 -->
<g id="node2" class="node"><title>Node2</title>
<g id="a_node2"><a xlink:href="classgestorempleados_1_1interficie_1_1_panel___contrato.xhtml#a08d902782a4f582eea935773b6a49bce" target="_top" xlink:title="gestorempleados.interficie.\lPanel_Contrato.setFecha_inicio">
<polygon fill="white" stroke="black" points="174.5,-115 174.5,-145 329.5,-145 329.5,-115 174.5,-115"/>
<text text-anchor="start" x="182.5" y="-133" font-family="Helvetica,sans-Serif" font-size="10.00">gestorempleados.interficie.</text>
<text text-anchor="middle" x="252" y="-122" font-family="Helvetica,sans-Serif" font-size="10.00">Panel_Contrato.setFecha_inicio</text>
</a>
</g>
</g>
<!-- Node1&#45;&gt;Node2 -->
<g id="edge1" class="edge"><title>Node1&#45;&gt;Node2</title>
<path fill="none" stroke="midnightblue" d="M134.285,-98.7485C154.119,-104.059 175.667,-109.829 194.787,-114.948"/>
<polygon fill="midnightblue" stroke="midnightblue" points="134.964,-95.3071 124.399,-96.1014 133.154,-102.069 134.964,-95.3071"/>
</g>
<!-- Node6 -->
<g id="node6" class="node"><title>Node6</title>
<g id="a_node6"><a xlink:href="classgestorempleados_1_1interficie_1_1_panel___contrato.xhtml#aa9ea22de245739cf40845c973ba59c24" target="_top" xlink:title="gestorempleados.interficie.\lPanel_Contrato.setFecha_fin">
<polygon fill="white" stroke="black" points="181,-66 181,-96 323,-96 323,-66 181,-66"/>
<text text-anchor="start" x="189" y="-84" font-family="Helvetica,sans-Serif" font-size="10.00">gestorempleados.interficie.</text>
<text text-anchor="middle" x="252" y="-73" font-family="Helvetica,sans-Serif" font-size="10.00">Panel_Contrato.setFecha_fin</text>
</a>
</g>
</g>
<!-- Node1&#45;&gt;Node6 -->
<g id="edge5" class="edge"><title>Node1&#45;&gt;Node6</title>
<path fill="none" stroke="midnightblue" d="M143.779,-81C156.089,-81 168.791,-81 180.957,-81"/>
<polygon fill="midnightblue" stroke="midnightblue" points="143.55,-77.5001 133.55,-81 143.55,-84.5001 143.55,-77.5001"/>
</g>
<!-- Node7 -->
<g id="node7" class="node"><title>Node7</title>
<g id="a_node7"><a xlink:href="classgestorempleados_1_1interficie_1_1_panel___datos_personales.xhtml#a1d4382091e0ab2d5093e1ef67c3ac7e9" target="_top" xlink:title="gestorempleados.interficie.\lPanel_DatosPersonales.setFecha\l_nacimiento">
<polygon fill="white" stroke="black" points="170,-5.5 170,-46.5 334,-46.5 334,-5.5 170,-5.5"/>
<text text-anchor="start" x="178" y="-34.5" font-family="Helvetica,sans-Serif" font-size="10.00">gestorempleados.interficie.</text>
<text text-anchor="start" x="178" y="-23.5" font-family="Helvetica,sans-Serif" font-size="10.00">Panel_DatosPersonales.setFecha</text>
<text text-anchor="middle" x="252" y="-12.5" font-family="Helvetica,sans-Serif" font-size="10.00">_nacimiento</text>
</a>
</g>
</g>
<!-- Node1&#45;&gt;Node7 -->
<g id="edge7" class="edge"><title>Node1&#45;&gt;Node7</title>
<path fill="none" stroke="midnightblue" d="M128.043,-62.9542C145.47,-57.7166 164.63,-51.9581 182.532,-46.5777"/>
<polygon fill="midnightblue" stroke="midnightblue" points="126.575,-59.7408 118.006,-65.971 128.59,-66.4445 126.575,-59.7408"/>
</g>
<!-- Node3 -->
<g id="node3" class="node"><title>Node3</title>
<g id="a_node3"><a xlink:href="classgestorempleados_1_1control_1_1_negocio_cliente.xhtml#a548fdf8f4ed9d73843e7106774535615" target="_top" xlink:title="gestorempleados.control.\lNegocioCliente.showContratoEmpleado">
<polygon fill="white" stroke="black" points="370,-87 370,-117 558,-117 558,-87 370,-87"/>
<text text-anchor="start" x="378" y="-105" font-family="Helvetica,sans-Serif" font-size="10.00">gestorempleados.control.</text>
<text text-anchor="middle" x="464" y="-94" font-family="Helvetica,sans-Serif" font-size="10.00">NegocioCliente.showContratoEmpleado</text>
</a>
</g>
</g>
<!-- Node2&#45;&gt;Node3 -->
<g id="edge2" class="edge"><title>Node2&#45;&gt;Node3</title>
<path fill="none" stroke="midnightblue" d="M339.875,-118.417C349.723,-117.104 359.791,-115.761 369.718,-114.438"/>
<polygon fill="midnightblue" stroke="midnightblue" points="339.156,-114.981 329.706,-119.773 340.081,-121.92 339.156,-114.981"/>
</g>
<!-- Node4 -->
<g id="node4" class="node"><title>Node4</title>
<g id="a_node4"><a xlink:href="classplugins_1_1_panel___busqueda.xhtml#a8d47495fc4538acdfbc2f27cddffce0d" target="_top" xlink:title="plugins.Panel_Busqueda.crear\lPanel">
<polygon fill="white" stroke="black" points="595.5,-49 595.5,-79 744.5,-79 744.5,-49 595.5,-49"/>
<text text-anchor="start" x="603.5" y="-67" font-family="Helvetica,sans-Serif" font-size="10.00">plugins.Panel_Busqueda.crear</text>
<text text-anchor="middle" x="670" y="-56" font-family="Helvetica,sans-Serif" font-size="10.00">Panel</text>
</a>
</g>
</g>
<!-- Node3&#45;&gt;Node4 -->
<g id="edge3" class="edge"><title>Node3&#45;&gt;Node4</title>
<path fill="none" stroke="midnightblue" d="M555.683,-85.1081C568.919,-82.6426 582.412,-80.1291 595.257,-77.7365"/>
<polygon fill="midnightblue" stroke="midnightblue" points="554.816,-81.7093 545.626,-86.9814 556.098,-88.5909 554.816,-81.7093"/>
</g>
<!-- Node5 -->
<g id="node5" class="node"><title>Node5</title>
<g id="a_node5"><a xlink:href="classplugins_1_1_panel___consultas.xhtml#ad1596ee5ed80b3214b8374f3f0a97ef6" target="_top" xlink:title="plugins.Panel_Consultas.editar\lContratosEmpleado">
<polygon fill="white" stroke="black" points="594.5,-98 594.5,-128 745.5,-128 745.5,-98 594.5,-98"/>
<text text-anchor="start" x="602.5" y="-116" font-family="Helvetica,sans-Serif" font-size="10.00">plugins.Panel_Consultas.editar</text>
<text text-anchor="middle" x="670" y="-105" font-family="Helvetica,sans-Serif" font-size="10.00">ContratosEmpleado</text>
</a>
</g>
</g>
<!-- Node3&#45;&gt;Node5 -->
<g id="edge4" class="edge"><title>Node3&#45;&gt;Node5</title>
<path fill="none" stroke="midnightblue" d="M568.069,-107.558C576.956,-108.037 585.832,-108.515 594.427,-108.979"/>
<polygon fill="midnightblue" stroke="midnightblue" points="568.219,-104.061 558.045,-107.017 567.842,-111.051 568.219,-104.061"/>
</g>
<!-- Node6&#45;&gt;Node3 -->
<g id="edge6" class="edge"><title>Node6&#45;&gt;Node3</title>
<path fill="none" stroke="midnightblue" d="M333.495,-89.0495C345.337,-90.2337 357.618,-91.4618 369.691,-92.6691"/>
<polygon fill="midnightblue" stroke="midnightblue" points="333.518,-85.5344 323.219,-88.0219 332.821,-92.4996 333.518,-85.5344"/>
</g>
<!-- Node8 -->
<g id="node8" class="node"><title>Node8</title>
<g id="a_node8"><a xlink:href="classgestorempleados_1_1control_1_1_negocio_cliente.xhtml#aef5bfb101a0e799608cfe0ec6322b1e1" target="_top" xlink:title="gestorempleados.control.\lNegocioCliente.showDatosEmpleado">
<polygon fill="white" stroke="black" points="376,-11 376,-41 552,-41 552,-11 376,-11"/>
<text text-anchor="start" x="384" y="-29" font-family="Helvetica,sans-Serif" font-size="10.00">gestorempleados.control.</text>
<text text-anchor="middle" x="464" y="-18" font-family="Helvetica,sans-Serif" font-size="10.00">NegocioCliente.showDatosEmpleado</text>
</a>
</g>
</g>
<!-- Node7&#45;&gt;Node8 -->
<g id="edge8" class="edge"><title>Node7&#45;&gt;Node8</title>
<path fill="none" stroke="midnightblue" d="M344.496,-26C354.876,-26 365.435,-26 375.758,-26"/>
<polygon fill="midnightblue" stroke="midnightblue" points="344.192,-22.5001 334.191,-26 344.191,-29.5001 344.192,-22.5001"/>
</g>
<!-- Node8&#45;&gt;Node4 -->
<g id="edge9" class="edge"><title>Node8&#45;&gt;Node4</title>
<path fill="none" stroke="midnightblue" d="M555.683,-42.8919C568.919,-45.3574 582.412,-47.8709 595.257,-50.2635"/>
<polygon fill="midnightblue" stroke="midnightblue" points="556.098,-39.4091 545.626,-41.0186 554.816,-46.2907 556.098,-39.4091"/>
</g>
<!-- Node9 -->
<g id="node9" class="node"><title>Node9</title>
<g id="a_node9"><a xlink:href="classplugins_1_1_panel___consultas.xhtml#a4072616654f5b0d96c9ba7213b140d36" target="_top" xlink:title="plugins.Panel_Consultas.editar\lDatosEmpleado">
<polygon fill="white" stroke="black" points="594.5,-0 594.5,-30 745.5,-30 745.5,-0 594.5,-0"/>
<text text-anchor="start" x="602.5" y="-18" font-family="Helvetica,sans-Serif" font-size="10.00">plugins.Panel_Consultas.editar</text>
<text text-anchor="middle" x="670" y="-7" font-family="Helvetica,sans-Serif" font-size="10.00">DatosEmpleado</text>
</a>
</g>
</g>
<!-- Node8&#45;&gt;Node9 -->
<g id="edge10" class="edge"><title>Node8&#45;&gt;Node9</title>
<path fill="none" stroke="midnightblue" d="M562.387,-20.7487C573.149,-20.1684 583.979,-19.5845 594.397,-19.0227"/>
<polygon fill="midnightblue" stroke="midnightblue" points="561.903,-17.2697 552.106,-21.3031 562.28,-24.2595 561.903,-17.2697"/>
</g>
</g>
</svg>
