<?xml version="1.0" encoding="UTF-8" standalone="no"?>
<!DOCTYPE svg PUBLIC "-//W3C//DTD SVG 1.1//EN"
 "http://www.w3.org/Graphics/SVG/1.1/DTD/svg11.dtd">
<!-- Generated by graphviz version 2.30.1 (20130214.1330)
 -->
<!-- Title: gestorempleados.conector.Packet.getUser Pages: 1 -->
<svg width="488pt" height="38pt"
 viewBox="0.00 0.00 488.00 38.00" xmlns="http://www.w3.org/2000/svg" xmlns:xlink="http://www.w3.org/1999/xlink">
<g id="graph0" class="graph" transform="scale(1 1) rotate(0) translate(4 34)">
<title>gestorempleados.conector.Packet.getUser</title>
<polygon fill="white" stroke="white" points="-4,5 -4,-34 485,-34 485,5 -4,5"/>
<!-- Node1 -->
<g id="node1" class="node"><title>Node1</title>
<polygon fill="#bfbfbf" stroke="black" points="0,-0 0,-30 134,-30 134,-0 0,-0"/>
<text text-anchor="start" x="8" y="-18" font-family="Helvetica,sans-Serif" font-size="10.00">gestorempleados.conector.</text>
<text text-anchor="middle" x="67" y="-7" font-family="Helvetica,sans-Serif" font-size="10.00">Packet.getUser</text>
</g>
<!-- Node2 -->
<g id="node2" class="node"><title>Node2</title>
<g id="a_node2"><a xlink:href="classgestorempleados_1_1control_1_1_negocio_cliente.xhtml#a47fbb19a34ae4e6d107295cb2feda080" target="_top" xlink:title="gestorempleados.control.\lNegocioCliente.validateUser">
<polygon fill="white" stroke="black" points="170.5,-0 170.5,-30 307.5,-30 307.5,-0 170.5,-0"/>
<text text-anchor="start" x="178.5" y="-18" font-family="Helvetica,sans-Serif" font-size="10.00">gestorempleados.control.</text>
<text text-anchor="middle" x="239" y="-7" font-family="Helvetica,sans-Serif" font-size="10.00">NegocioCliente.validateUser</text>
</a>
</g>
</g>
<!-- Node1&#45;&gt;Node2 -->
<g id="edge1" class="edge"><title>Node1&#45;&gt;Node2</title>
<path fill="none" stroke="midnightblue" d="M144.303,-15C152.964,-15 161.747,-15 170.287,-15"/>
<polygon fill="midnightblue" stroke="midnightblue" points="144.213,-11.5001 134.213,-15 144.213,-18.5001 144.213,-11.5001"/>
</g>
<!-- Node3 -->
<g id="node3" class="node"><title>Node3</title>
<g id="a_node3"><a xlink:href="classgestorempleados_1_1interficie_1_1_start_client.xhtml#a8fbbf7d526b86a7c9662033ca9839428" target="_top" xlink:title="gestorempleados.interficie.\lStartClient.confirmaUsuario">
<polygon fill="white" stroke="black" points="344.5,-0 344.5,-30 479.5,-30 479.5,-0 344.5,-0"/>
<text text-anchor="start" x="352.5" y="-18" font-family="Helvetica,sans-Serif" font-size="10.00">gestorempleados.interficie.</text>
<text text-anchor="middle" x="412" y="-7" font-family="Helvetica,sans-Serif" font-size="10.00">StartClient.confirmaUsuario</text>
</a>
</g>
</g>
<!-- Node2&#45;&gt;Node3 -->
<g id="edge2" class="edge"><title>Node2&#45;&gt;Node3</title>
<path fill="none" stroke="midnightblue" d="M317.631,-15C326.593,-15 335.67,-15 344.466,-15"/>
<polygon fill="midnightblue" stroke="midnightblue" points="317.584,-11.5001 307.584,-15 317.584,-18.5001 317.584,-11.5001"/>
</g>
</g>
</svg>
