<?xml version="1.0" encoding="UTF-8" standalone="no"?>
<!DOCTYPE svg PUBLIC "-//W3C//DTD SVG 1.1//EN"
 "http://www.w3.org/Graphics/SVG/1.1/DTD/svg11.dtd">
<!-- Generated by graphviz version 2.30.1 (20130214.1330)
 -->
<!-- Title: gestorempleados.persistencia.Departamento Pages: 1 -->
<svg width="156pt" height="294pt"
 viewBox="0.00 0.00 156.00 294.00" xmlns="http://www.w3.org/2000/svg" xmlns:xlink="http://www.w3.org/1999/xlink">
<g id="graph0" class="graph" transform="scale(1 1) rotate(0) translate(4 290)">
<title>gestorempleados.persistencia.Departamento</title>
<polygon fill="white" stroke="white" points="-4,5 -4,-290 153,-290 153,5 -4,5"/>
<!-- Node1 -->
<g id="node1" class="node"><title>Node1</title>
<polygon fill="#bfbfbf" stroke="black" points="-0.5,-1 -0.5,-179 148.5,-179 148.5,-1 -0.5,-1"/>
<text text-anchor="start" x="7.5" y="-167" font-family="Helvetica,sans-Serif" font-size="10.00">gestorempleados.persistencia.</text>
<text text-anchor="middle" x="74" y="-156" font-family="Helvetica,sans-Serif" font-size="10.00">Departamento</text>
<polyline fill="none" stroke="black" points="-0.5,-149 148.5,-149 "/>
<text text-anchor="start" x="7.5" y="-137" font-family="Helvetica,sans-Serif" font-size="10.00">&#45; id</text>
<text text-anchor="start" x="7.5" y="-126" font-family="Helvetica,sans-Serif" font-size="10.00">&#45; descripcion</text>
<polyline fill="none" stroke="black" points="-0.5,-119 148.5,-119 "/>
<text text-anchor="start" x="7.5" y="-107" font-family="Helvetica,sans-Serif" font-size="10.00">+ Departamento()</text>
<text text-anchor="start" x="7.5" y="-96" font-family="Helvetica,sans-Serif" font-size="10.00">+ Departamento()</text>
<text text-anchor="start" x="7.5" y="-85" font-family="Helvetica,sans-Serif" font-size="10.00">+ Departamento()</text>
<text text-anchor="start" x="7.5" y="-74" font-family="Helvetica,sans-Serif" font-size="10.00">+ getId()</text>
<text text-anchor="start" x="7.5" y="-63" font-family="Helvetica,sans-Serif" font-size="10.00">+ setId()</text>
<text text-anchor="start" x="7.5" y="-52" font-family="Helvetica,sans-Serif" font-size="10.00">+ getDescripcion()</text>
<text text-anchor="start" x="7.5" y="-41" font-family="Helvetica,sans-Serif" font-size="10.00">+ setDescripcion()</text>
<text text-anchor="start" x="7.5" y="-30" font-family="Helvetica,sans-Serif" font-size="10.00">+ getCargos()</text>
<text text-anchor="start" x="7.5" y="-19" font-family="Helvetica,sans-Serif" font-size="10.00">+ setCargos()</text>
<text text-anchor="start" x="7.5" y="-8" font-family="Helvetica,sans-Serif" font-size="10.00">+ toString()</text>
</g>
<!-- Node2 -->
<g id="node2" class="node"><title>Node2</title>
<polygon fill="white" stroke="#bfbfbf" points="6.5,-228.5 6.5,-285.5 73.5,-285.5 73.5,-228.5 6.5,-228.5"/>
<text text-anchor="middle" x="40" y="-273.5" font-family="Helvetica,sans-Serif" font-size="10.00">Serializable</text>
<polyline fill="none" stroke="#bfbfbf" points="6.5,-266.5 73.5,-266.5 "/>
<text text-anchor="middle" x="40" y="-254.5" font-family="Helvetica,sans-Serif" font-size="10.00"> </text>
<polyline fill="none" stroke="#bfbfbf" points="6.5,-247.5 73.5,-247.5 "/>
<text text-anchor="middle" x="40" y="-235.5" font-family="Helvetica,sans-Serif" font-size="10.00"> </text>
</g>
<!-- Node2&#45;&gt;Node1 -->
<g id="edge1" class="edge"><title>Node2&#45;&gt;Node1</title>
<path fill="none" stroke="midnightblue" d="M47.7284,-218.494C50.1633,-206.678 52.9638,-193.087 55.8091,-179.28"/>
<polygon fill="none" stroke="midnightblue" points="44.2811,-217.882 45.6908,-228.383 51.1371,-219.295 44.2811,-217.882"/>
</g>
<!-- Node3 -->
<g id="node3" class="node"><title>Node3</title>
<polygon fill="white" stroke="#bfbfbf" points="92,-228.5 92,-285.5 124,-285.5 124,-228.5 92,-228.5"/>
<text text-anchor="middle" x="108" y="-273.5" font-family="Helvetica,sans-Serif" font-size="10.00">Set</text>
<polyline fill="none" stroke="#bfbfbf" points="92,-266.5 124,-266.5 "/>
<text text-anchor="middle" x="108" y="-254.5" font-family="Helvetica,sans-Serif" font-size="10.00"> </text>
<polyline fill="none" stroke="#bfbfbf" points="92,-247.5 124,-247.5 "/>
<text text-anchor="middle" x="108" y="-235.5" font-family="Helvetica,sans-Serif" font-size="10.00"> </text>
</g>
<!-- Node3&#45;&gt;Node1 -->
<g id="edge2" class="edge"><title>Node3&#45;&gt;Node1</title>
<path fill="none" stroke="#404040" d="M102.309,-228.383C100.116,-217.739 97.4632,-204.866 94.6717,-191.319"/>
<polygon fill="none" stroke="#404040" points="94.6129,-191.033 89.4842,-185.963 92.1909,-179.28 97.3196,-184.349 94.6129,-191.033"/>
<text text-anchor="middle" x="116" y="-201.5" font-family="Helvetica,sans-Serif" font-size="10.00"> &#45;cargos</text>
</g>
</g>
</svg>
