<?xml version="1.0" encoding="UTF-8" standalone="no"?>
<!DOCTYPE svg PUBLIC "-//W3C//DTD SVG 1.1//EN"
 "http://www.w3.org/Graphics/SVG/1.1/DTD/svg11.dtd">
<!-- Generated by graphviz version 2.30.1 (20130214.1330)
 -->
<!-- Title: plugins.Panel_Registros.Panel_Registros Pages: 1 -->
<svg width="644pt" height="234pt"
 viewBox="0.00 0.00 644.00 234.00" xmlns="http://www.w3.org/2000/svg" xmlns:xlink="http://www.w3.org/1999/xlink">
<g id="graph0" class="graph" transform="scale(1 1) rotate(0) translate(4 230)">
<title>plugins.Panel_Registros.Panel_Registros</title>
<polygon fill="white" stroke="white" points="-4,5 -4,-230 641,-230 641,5 -4,5"/>
<!-- Node1 -->
<g id="node1" class="node"><title>Node1</title>
<polygon fill="#bfbfbf" stroke="black" points="0.5,-122 0.5,-152 125.5,-152 125.5,-122 0.5,-122"/>
<text text-anchor="start" x="8.5" y="-140" font-family="Helvetica,sans-Serif" font-size="10.00">plugins.Panel_Registros.</text>
<text text-anchor="middle" x="63" y="-129" font-family="Helvetica,sans-Serif" font-size="10.00">Panel_Registros</text>
</g>
<!-- Node2 -->
<g id="node2" class="node"><title>Node2</title>
<g id="a_node2"><a xlink:href="classgestorempleados_1_1control_1_1_negocio_cliente.xhtml#af4450308afb9d29f665e8bd22d221770" target="_top" xlink:title="gestorempleados.control.\lNegocioCliente.getinstance">
<polygon fill="white" stroke="black" points="162.5,-147 162.5,-177 297.5,-177 297.5,-147 162.5,-147"/>
<text text-anchor="start" x="170.5" y="-165" font-family="Helvetica,sans-Serif" font-size="10.00">gestorempleados.control.</text>
<text text-anchor="middle" x="230" y="-154" font-family="Helvetica,sans-Serif" font-size="10.00">NegocioCliente.getinstance</text>
</a>
</g>
</g>
<!-- Node1&#45;&gt;Node2 -->
<g id="edge1" class="edge"><title>Node1&#45;&gt;Node2</title>
<path fill="none" stroke="midnightblue" d="M125.909,-146.38C134.547,-147.689 143.505,-149.046 152.373,-150.39"/>
<polygon fill="midnightblue" stroke="midnightblue" points="151.913,-153.86 162.325,-151.898 152.962,-146.939 151.913,-153.86"/>
</g>
<!-- Node3 -->
<g id="node3" class="node"><title>Node3</title>
<g id="a_node3"><a xlink:href="classgestorempleados_1_1control_1_1_negocio_cliente.xhtml#acb0bab9fbbddd5c886bc9f2ddfe6e695" target="_top" xlink:title="gestorempleados.control.\lNegocioCliente.getReporte">
<polygon fill="white" stroke="black" points="164,-98 164,-128 296,-128 296,-98 164,-98"/>
<text text-anchor="start" x="172" y="-116" font-family="Helvetica,sans-Serif" font-size="10.00">gestorempleados.control.</text>
<text text-anchor="middle" x="230" y="-105" font-family="Helvetica,sans-Serif" font-size="10.00">NegocioCliente.getReporte</text>
</a>
</g>
</g>
<!-- Node1&#45;&gt;Node3 -->
<g id="edge2" class="edge"><title>Node1&#45;&gt;Node3</title>
<path fill="none" stroke="midnightblue" d="M125.909,-127.995C135.042,-126.667 144.535,-125.286 153.899,-123.924"/>
<polygon fill="midnightblue" stroke="midnightblue" points="154.595,-127.359 163.987,-122.456 153.588,-120.432 154.595,-127.359"/>
</g>
<!-- Node4 -->
<g id="node4" class="node"><title>Node4</title>
<g id="a_node4"><a xlink:href="classgestorempleados_1_1conector_1_1_packet.xhtml#a9819f16640e628f5ed698f7ca84c4d10" target="_top" xlink:title="gestorempleados.conector.\lPacket.setFiltro">
<polygon fill="white" stroke="black" points="337,-196 337,-226 471,-226 471,-196 337,-196"/>
<text text-anchor="start" x="345" y="-214" font-family="Helvetica,sans-Serif" font-size="10.00">gestorempleados.conector.</text>
<text text-anchor="middle" x="404" y="-203" font-family="Helvetica,sans-Serif" font-size="10.00">Packet.setFiltro</text>
</a>
</g>
</g>
<!-- Node3&#45;&gt;Node4 -->
<g id="edge3" class="edge"><title>Node3&#45;&gt;Node4</title>
<path fill="none" stroke="midnightblue" d="M281.328,-128.123C287.22,-130.934 292.93,-134.207 298,-138 319.354,-153.973 312.57,-170.129 334,-186 336.48,-187.836 339.108,-189.549 341.834,-191.145"/>
<polygon fill="midnightblue" stroke="midnightblue" points="340.332,-194.309 350.813,-195.854 343.582,-188.11 340.332,-194.309"/>
</g>
<!-- Node5 -->
<g id="node5" class="node"><title>Node5</title>
<g id="a_node5"><a xlink:href="classgestorempleados_1_1conector_1_1_conector_cliente.xhtml#a830dba55e91b371279078945cf0b84c5" target="_top" xlink:title="gestorempleados.conector.\lConectorCliente.sendPacket">
<polygon fill="white" stroke="black" points="334,-147 334,-177 474,-177 474,-147 334,-147"/>
<text text-anchor="start" x="342" y="-165" font-family="Helvetica,sans-Serif" font-size="10.00">gestorempleados.conector.</text>
<text text-anchor="middle" x="404" y="-154" font-family="Helvetica,sans-Serif" font-size="10.00">ConectorCliente.sendPacket</text>
</a>
</g>
</g>
<!-- Node3&#45;&gt;Node5 -->
<g id="edge4" class="edge"><title>Node3&#45;&gt;Node5</title>
<path fill="none" stroke="midnightblue" d="M284.009,-128.101C301.831,-133.179 321.88,-138.89 340.37,-144.158"/>
<polygon fill="midnightblue" stroke="midnightblue" points="339.59,-147.575 350.166,-146.948 341.508,-140.842 339.59,-147.575"/>
</g>
<!-- Node8 -->
<g id="node8" class="node"><title>Node8</title>
<g id="a_node8"><a xlink:href="classgestorempleados_1_1conector_1_1_packet.xhtml#a66abee43105b5ab7eac815a088d8f861" target="_top" xlink:title="gestorempleados.conector.\lPacket.getType">
<polygon fill="white" stroke="black" points="337,-98 337,-128 471,-128 471,-98 337,-98"/>
<text text-anchor="start" x="345" y="-116" font-family="Helvetica,sans-Serif" font-size="10.00">gestorempleados.conector.</text>
<text text-anchor="middle" x="404" y="-105" font-family="Helvetica,sans-Serif" font-size="10.00">Packet.getType</text>
</a>
</g>
</g>
<!-- Node3&#45;&gt;Node8 -->
<g id="edge7" class="edge"><title>Node3&#45;&gt;Node8</title>
<path fill="none" stroke="midnightblue" d="M296.026,-113C306.015,-113 316.406,-113 326.613,-113"/>
<polygon fill="midnightblue" stroke="midnightblue" points="326.739,-116.5 336.739,-113 326.739,-109.5 326.739,-116.5"/>
</g>
<!-- Node9 -->
<g id="node9" class="node"><title>Node9</title>
<g id="a_node9"><a xlink:href="classgestorempleados_1_1conector_1_1_packet.xhtml#a7836f4c806840a6c75a95434cbfcd11f" target="_top" xlink:title="gestorempleados.conector.\lPacket.getArchivo">
<polygon fill="white" stroke="black" points="337,-49 337,-79 471,-79 471,-49 337,-49"/>
<text text-anchor="start" x="345" y="-67" font-family="Helvetica,sans-Serif" font-size="10.00">gestorempleados.conector.</text>
<text text-anchor="middle" x="404" y="-56" font-family="Helvetica,sans-Serif" font-size="10.00">Packet.getArchivo</text>
</a>
</g>
</g>
<!-- Node3&#45;&gt;Node9 -->
<g id="edge8" class="edge"><title>Node3&#45;&gt;Node9</title>
<path fill="none" stroke="midnightblue" d="M284.009,-97.8986C301.831,-92.8215 321.88,-87.1098 340.37,-81.8423"/>
<polygon fill="midnightblue" stroke="midnightblue" points="341.508,-85.1575 350.166,-79.0516 339.59,-78.4254 341.508,-85.1575"/>
</g>
<!-- Node10 -->
<g id="node10" class="node"><title>Node10</title>
<g id="a_node10"><a xlink:href="classgestorempleados_1_1conector_1_1_packet.xhtml#a3ed2226bd3441b1898a8dc8e8e413c2c" target="_top" xlink:title="gestorempleados.conector.\lPacket.getFiltro">
<polygon fill="white" stroke="black" points="337,-0 337,-30 471,-30 471,-0 337,-0"/>
<text text-anchor="start" x="345" y="-18" font-family="Helvetica,sans-Serif" font-size="10.00">gestorempleados.conector.</text>
<text text-anchor="middle" x="404" y="-7" font-family="Helvetica,sans-Serif" font-size="10.00">Packet.getFiltro</text>
</a>
</g>
</g>
<!-- Node3&#45;&gt;Node10 -->
<g id="edge9" class="edge"><title>Node3&#45;&gt;Node10</title>
<path fill="none" stroke="midnightblue" d="M249.007,-97.9493C268.838,-81.9373 302.152,-56.6651 334,-40 338.046,-37.8826 342.312,-35.8681 346.657,-33.9691"/>
<polygon fill="midnightblue" stroke="midnightblue" points="348.339,-37.0608 356.24,-30.0013 345.661,-30.5933 348.339,-37.0608"/>
</g>
<!-- Node6 -->
<g id="node6" class="node"><title>Node6</title>
<g id="a_node6"><a xlink:href="classgestorempleados_1_1control_1_1_preferencias.xhtml#a8cb4ef0c12fd91286f0f3a63c48d40b0" target="_top" xlink:title="gestorempleados.control.\lPreferencias.getHost">
<polygon fill="white" stroke="black" points="510,-171 510,-201 636,-201 636,-171 510,-171"/>
<text text-anchor="start" x="518" y="-189" font-family="Helvetica,sans-Serif" font-size="10.00">gestorempleados.control.</text>
<text text-anchor="middle" x="573" y="-178" font-family="Helvetica,sans-Serif" font-size="10.00">Preferencias.getHost</text>
</a>
</g>
</g>
<!-- Node5&#45;&gt;Node6 -->
<g id="edge5" class="edge"><title>Node5&#45;&gt;Node6</title>
<path fill="none" stroke="midnightblue" d="M474.372,-171.97C482.718,-173.169 491.258,-174.396 499.646,-175.602"/>
<polygon fill="midnightblue" stroke="midnightblue" points="499.381,-179.1 509.777,-177.058 500.377,-172.171 499.381,-179.1"/>
</g>
<!-- Node7 -->
<g id="node7" class="node"><title>Node7</title>
<g id="a_node7"><a xlink:href="classgestorempleados_1_1control_1_1_preferencias.xhtml#ae64b723a46d579f7646e75aa453ed3c8" target="_top" xlink:title="gestorempleados.control.\lPreferencias.getPort">
<polygon fill="white" stroke="black" points="510,-122 510,-152 636,-152 636,-122 510,-122"/>
<text text-anchor="start" x="518" y="-140" font-family="Helvetica,sans-Serif" font-size="10.00">gestorempleados.control.</text>
<text text-anchor="middle" x="573" y="-129" font-family="Helvetica,sans-Serif" font-size="10.00">Preferencias.getPort</text>
</a>
</g>
</g>
<!-- Node5&#45;&gt;Node7 -->
<g id="edge6" class="edge"><title>Node5&#45;&gt;Node7</title>
<path fill="none" stroke="midnightblue" d="M474.372,-151.615C482.718,-150.366 491.258,-149.087 499.646,-147.831"/>
<polygon fill="midnightblue" stroke="midnightblue" points="500.406,-151.257 509.777,-146.315 499.369,-144.334 500.406,-151.257"/>
</g>
</g>
</svg>
