<?xml version="1.0" encoding="UTF-8" standalone="no"?>
<!DOCTYPE svg PUBLIC "-//W3C//DTD SVG 1.1//EN"
 "http://www.w3.org/Graphics/SVG/1.1/DTD/svg11.dtd">
<!-- Generated by graphviz version 2.30.1 (20130214.1330)
 -->
<!-- Title: gestorempleados.interficie.Panel_Contrato.setFecha_inicio Pages: 1 -->
<svg width="334pt" height="136pt"
 viewBox="0.00 0.00 334.00 136.00" xmlns="http://www.w3.org/2000/svg" xmlns:xlink="http://www.w3.org/1999/xlink">
<g id="graph0" class="graph" transform="scale(1 1) rotate(0) translate(4 132)">
<title>gestorempleados.interficie.Panel_Contrato.setFecha_inicio</title>
<polygon fill="white" stroke="white" points="-4,5 -4,-132 331,-132 331,5 -4,5"/>
<!-- Node1 -->
<g id="node1" class="node"><title>Node1</title>
<polygon fill="#bfbfbf" stroke="black" points="0.5,-49 0.5,-79 155.5,-79 155.5,-49 0.5,-49"/>
<text text-anchor="start" x="8.5" y="-67" font-family="Helvetica,sans-Serif" font-size="10.00">gestorempleados.interficie.</text>
<text text-anchor="middle" x="78" y="-56" font-family="Helvetica,sans-Serif" font-size="10.00">Panel_Contrato.setFecha_inicio</text>
</g>
<!-- Node2 -->
<g id="node2" class="node"><title>Node2</title>
<g id="a_node2"><a xlink:href="classgestorempleados_1_1interficie_1_1_calendario.xhtml#a22844d04bb1585eca0ee0283f1082c90" target="_top" xlink:title="gestorempleados.interficie.\lCalendario.setDia">
<polygon fill="white" stroke="black" points="192.5,-98 192.5,-128 325.5,-128 325.5,-98 192.5,-98"/>
<text text-anchor="start" x="200.5" y="-116" font-family="Helvetica,sans-Serif" font-size="10.00">gestorempleados.interficie.</text>
<text text-anchor="middle" x="259" y="-105" font-family="Helvetica,sans-Serif" font-size="10.00">Calendario.setDia</text>
</a>
</g>
</g>
<!-- Node1&#45;&gt;Node2 -->
<g id="edge1" class="edge"><title>Node1&#45;&gt;Node2</title>
<path fill="none" stroke="midnightblue" d="M134.166,-79.1014C152.884,-84.2253 173.963,-89.9956 193.353,-95.3032"/>
<polygon fill="midnightblue" stroke="midnightblue" points="192.446,-98.6839 203.016,-97.9484 194.295,-91.9323 192.446,-98.6839"/>
</g>
<!-- Node3 -->
<g id="node3" class="node"><title>Node3</title>
<g id="a_node3"><a xlink:href="classgestorempleados_1_1interficie_1_1_calendario.xhtml#a8b25250145ee84ef837dab49ebbc1128" target="_top" xlink:title="gestorempleados.interficie.\lCalendario.setMes">
<polygon fill="white" stroke="black" points="192.5,-49 192.5,-79 325.5,-79 325.5,-49 192.5,-49"/>
<text text-anchor="start" x="200.5" y="-67" font-family="Helvetica,sans-Serif" font-size="10.00">gestorempleados.interficie.</text>
<text text-anchor="middle" x="259" y="-56" font-family="Helvetica,sans-Serif" font-size="10.00">Calendario.setMes</text>
</a>
</g>
</g>
<!-- Node1&#45;&gt;Node3 -->
<g id="edge2" class="edge"><title>Node1&#45;&gt;Node3</title>
<path fill="none" stroke="midnightblue" d="M155.691,-64C164.489,-64 173.456,-64 182.242,-64"/>
<polygon fill="midnightblue" stroke="midnightblue" points="182.451,-67.5001 192.451,-64 182.451,-60.5001 182.451,-67.5001"/>
</g>
<!-- Node4 -->
<g id="node4" class="node"><title>Node4</title>
<g id="a_node4"><a xlink:href="classgestorempleados_1_1interficie_1_1_calendario.xhtml#aa75f38ccdd3c10471b7a17c758636bfa" target="_top" xlink:title="gestorempleados.interficie.\lCalendario.setAno">
<polygon fill="white" stroke="black" points="192.5,-0 192.5,-30 325.5,-30 325.5,-0 192.5,-0"/>
<text text-anchor="start" x="200.5" y="-18" font-family="Helvetica,sans-Serif" font-size="10.00">gestorempleados.interficie.</text>
<text text-anchor="middle" x="259" y="-7" font-family="Helvetica,sans-Serif" font-size="10.00">Calendario.setAno</text>
</a>
</g>
</g>
<!-- Node1&#45;&gt;Node4 -->
<g id="edge3" class="edge"><title>Node1&#45;&gt;Node4</title>
<path fill="none" stroke="midnightblue" d="M134.166,-48.8986C152.884,-43.7747 173.963,-38.0044 193.353,-32.6968"/>
<polygon fill="midnightblue" stroke="midnightblue" points="194.295,-36.0677 203.016,-30.0516 192.446,-29.3161 194.295,-36.0677"/>
</g>
</g>
</svg>
