<?xml version="1.0" encoding="UTF-8" standalone="no"?>
<!DOCTYPE svg PUBLIC "-//W3C//DTD SVG 1.1//EN"
 "http://www.w3.org/Graphics/SVG/1.1/DTD/svg11.dtd">
<!-- Generated by graphviz version 2.30.1 (20130214.1330)
 -->
<!-- Title: gestorempleados.control.Preferencias.getHost Pages: 1 -->
<svg width="714pt" height="491pt"
 viewBox="0.00 0.00 714.00 491.00" xmlns="http://www.w3.org/2000/svg" xmlns:xlink="http://www.w3.org/1999/xlink">
<g id="graph0" class="graph" transform="scale(1 1) rotate(0) translate(4 487)">
<title>gestorempleados.control.Preferencias.getHost</title>
<polygon fill="white" stroke="white" points="-4,5 -4,-487 711,-487 711,5 -4,5"/>
<!-- Node1 -->
<g id="node1" class="node"><title>Node1</title>
<polygon fill="#bfbfbf" stroke="black" points="0,-192 0,-222 126,-222 126,-192 0,-192"/>
<text text-anchor="start" x="8" y="-210" font-family="Helvetica,sans-Serif" font-size="10.00">gestorempleados.control.</text>
<text text-anchor="middle" x="63" y="-199" font-family="Helvetica,sans-Serif" font-size="10.00">Preferencias.getHost</text>
</g>
<!-- Node2 -->
<g id="node2" class="node"><title>Node2</title>
<g id="a_node2"><a xlink:href="classgestorempleados_1_1conector_1_1_conector_cliente.xhtml#a830dba55e91b371279078945cf0b84c5" target="_top" xlink:title="gestorempleados.conector.\lConectorCliente.sendPacket">
<polygon fill="white" stroke="black" points="162,-192 162,-222 302,-222 302,-192 162,-192"/>
<text text-anchor="start" x="170" y="-210" font-family="Helvetica,sans-Serif" font-size="10.00">gestorempleados.conector.</text>
<text text-anchor="middle" x="232" y="-199" font-family="Helvetica,sans-Serif" font-size="10.00">ConectorCliente.sendPacket</text>
</a>
</g>
</g>
<!-- Node1&#45;&gt;Node2 -->
<g id="edge1" class="edge"><title>Node1&#45;&gt;Node2</title>
<path fill="none" stroke="midnightblue" d="M136.361,-207C144.785,-207 153.364,-207 161.745,-207"/>
<polygon fill="midnightblue" stroke="midnightblue" points="136.185,-203.5 126.185,-207 136.185,-210.5 136.185,-203.5"/>
</g>
<!-- Node3 -->
<g id="node3" class="node"><title>Node3</title>
<g id="a_node3"><a xlink:href="classgestorempleados_1_1control_1_1_negocio_cliente.xhtml#a07bf95897d503b8d71fc88cfaa1b60ff" target="_top" xlink:title="gestorempleados.control.\lNegocioCliente.getEmpleados">
<polygon fill="white" stroke="black" points="353.5,-443 353.5,-473 500.5,-473 500.5,-443 353.5,-443"/>
<text text-anchor="start" x="361.5" y="-461" font-family="Helvetica,sans-Serif" font-size="10.00">gestorempleados.control.</text>
<text text-anchor="middle" x="427" y="-450" font-family="Helvetica,sans-Serif" font-size="10.00">NegocioCliente.getEmpleados</text>
</a>
</g>
</g>
<!-- Node2&#45;&gt;Node3 -->
<g id="edge2" class="edge"><title>Node2&#45;&gt;Node3</title>
<path fill="none" stroke="midnightblue" d="M239.821,-231.88C252.6,-274.384 283.86,-361.558 338,-415 350.101,-426.946 366.176,-436.12 381.274,-442.865"/>
<polygon fill="midnightblue" stroke="midnightblue" points="243.124,-230.706 236.967,-222.084 236.404,-232.664 243.124,-230.706"/>
</g>
<!-- Node5 -->
<g id="node5" class="node"><title>Node5</title>
<g id="a_node5"><a xlink:href="classgestorempleados_1_1control_1_1_negocio_cliente.xhtml#ac8ccee3f2bb015ca54c4a469d4b6b249" target="_top" xlink:title="gestorempleados.control.\lNegocioCliente.setEmpleado">
<polygon fill="white" stroke="black" points="356,-376 356,-406 498,-406 498,-376 356,-376"/>
<text text-anchor="start" x="364" y="-394" font-family="Helvetica,sans-Serif" font-size="10.00">gestorempleados.control.</text>
<text text-anchor="middle" x="427" y="-383" font-family="Helvetica,sans-Serif" font-size="10.00">NegocioCliente.setEmpleado</text>
</a>
</g>
</g>
<!-- Node2&#45;&gt;Node5 -->
<g id="edge4" class="edge"><title>Node2&#45;&gt;Node5</title>
<path fill="none" stroke="midnightblue" d="M250.315,-230.395C269.978,-256.131 303.791,-297.954 338,-329 357.79,-346.96 382.929,-364.201 401.267,-375.922"/>
<polygon fill="midnightblue" stroke="midnightblue" points="253.034,-228.187 244.209,-222.323 247.451,-232.41 253.034,-228.187"/>
</g>
<!-- Node7 -->
<g id="node7" class="node"><title>Node7</title>
<g id="a_node7"><a xlink:href="classgestorempleados_1_1control_1_1_negocio_cliente.xhtml#a9636f9f7cd80e0eb68a18113fd3dd8ae" target="_top" xlink:title="gestorempleados.control.\lNegocioCliente.modifDatosEmpleado">
<polygon fill="white" stroke="black" points="338.5,-290 338.5,-320 515.5,-320 515.5,-290 338.5,-290"/>
<text text-anchor="start" x="346.5" y="-308" font-family="Helvetica,sans-Serif" font-size="10.00">gestorempleados.control.</text>
<text text-anchor="middle" x="427" y="-297" font-family="Helvetica,sans-Serif" font-size="10.00">NegocioCliente.modifDatosEmpleado</text>
</a>
</g>
</g>
<!-- Node2&#45;&gt;Node7 -->
<g id="edge6" class="edge"><title>Node2&#45;&gt;Node7</title>
<path fill="none" stroke="midnightblue" d="M271.662,-226.631C308.374,-245.273 362.784,-272.901 396.233,-289.885"/>
<polygon fill="midnightblue" stroke="midnightblue" points="273.234,-223.505 262.733,-222.098 270.065,-229.746 273.234,-223.505"/>
</g>
<!-- Node11 -->
<g id="node11" class="node"><title>Node11</title>
<g id="a_node11"><a xlink:href="classgestorempleados_1_1control_1_1_negocio_cliente.xhtml#a7db8dd511522eb990fd2e964e9bc5263" target="_top" xlink:title="gestorempleados.control.\lNegocioCliente.getDepartamentos">
<polygon fill="white" stroke="black" points="345,-217 345,-247 509,-247 509,-217 345,-217"/>
<text text-anchor="start" x="353" y="-235" font-family="Helvetica,sans-Serif" font-size="10.00">gestorempleados.control.</text>
<text text-anchor="middle" x="427" y="-224" font-family="Helvetica,sans-Serif" font-size="10.00">NegocioCliente.getDepartamentos</text>
</a>
</g>
</g>
<!-- Node2&#45;&gt;Node11 -->
<g id="edge10" class="edge"><title>Node2&#45;&gt;Node11</title>
<path fill="none" stroke="midnightblue" d="M312.317,-217.274C323.053,-218.665 334.082,-220.094 344.85,-221.488"/>
<polygon fill="midnightblue" stroke="midnightblue" points="312.499,-213.769 302.132,-215.955 311.6,-220.711 312.499,-213.769"/>
</g>
<!-- Node13 -->
<g id="node13" class="node"><title>Node13</title>
<g id="a_node13"><a xlink:href="classgestorempleados_1_1control_1_1_negocio_cliente.xhtml#abda6d6aa37db8bb2a091ab5a89d4e43c" target="_top" xlink:title="gestorempleados.control.\lNegocioCliente.getCargos">
<polygon fill="white" stroke="black" points="362.5,-168 362.5,-198 491.5,-198 491.5,-168 362.5,-168"/>
<text text-anchor="start" x="370.5" y="-186" font-family="Helvetica,sans-Serif" font-size="10.00">gestorempleados.control.</text>
<text text-anchor="middle" x="427" y="-175" font-family="Helvetica,sans-Serif" font-size="10.00">NegocioCliente.getCargos</text>
</a>
</g>
</g>
<!-- Node2&#45;&gt;Node13 -->
<g id="edge12" class="edge"><title>Node2&#45;&gt;Node13</title>
<path fill="none" stroke="midnightblue" d="M312.411,-197.125C329.095,-195.05 346.483,-192.888 362.493,-190.897"/>
<polygon fill="midnightblue" stroke="midnightblue" points="311.624,-193.696 302.132,-198.403 312.488,-200.642 311.624,-193.696"/>
</g>
<!-- Node14 -->
<g id="node14" class="node"><title>Node14</title>
<g id="a_node14"><a xlink:href="classgestorempleados_1_1control_1_1_negocio_cliente.xhtml#acb0bab9fbbddd5c886bc9f2ddfe6e695" target="_top" xlink:title="gestorempleados.control.\lNegocioCliente.getReporte">
<polygon fill="white" stroke="black" points="361,-119 361,-149 493,-149 493,-119 361,-119"/>
<text text-anchor="start" x="369" y="-137" font-family="Helvetica,sans-Serif" font-size="10.00">gestorempleados.control.</text>
<text text-anchor="middle" x="427" y="-126" font-family="Helvetica,sans-Serif" font-size="10.00">NegocioCliente.getReporte</text>
</a>
</g>
</g>
<!-- Node2&#45;&gt;Node14 -->
<g id="edge13" class="edge"><title>Node2&#45;&gt;Node14</title>
<path fill="none" stroke="midnightblue" d="M270.805,-187.449C290.497,-177.758 315.173,-166.37 338,-158 346.772,-154.784 356.175,-151.775 365.452,-149.049"/>
<polygon fill="midnightblue" stroke="midnightblue" points="269.243,-184.317 261.852,-191.907 272.363,-190.583 269.243,-184.317"/>
</g>
<!-- Node17 -->
<g id="node17" class="node"><title>Node17</title>
<g id="a_node17"><a xlink:href="classgestorempleados_1_1control_1_1_negocio_cliente.xhtml#a11aa15a708641a8b68de872407c0acc9" target="_top" xlink:title="gestorempleados.control.\lNegocioCliente.validateId">
<polygon fill="white" stroke="black" points="364,-67 364,-97 490,-97 490,-67 364,-67"/>
<text text-anchor="start" x="372" y="-85" font-family="Helvetica,sans-Serif" font-size="10.00">gestorempleados.control.</text>
<text text-anchor="middle" x="427" y="-74" font-family="Helvetica,sans-Serif" font-size="10.00">NegocioCliente.validateId</text>
</a>
</g>
</g>
<!-- Node2&#45;&gt;Node17 -->
<g id="edge16" class="edge"><title>Node2&#45;&gt;Node17</title>
<path fill="none" stroke="midnightblue" d="M251.863,-184.178C271.315,-162.021 303.588,-128.901 338,-109 346.024,-104.36 354.929,-100.436 363.904,-97.1429"/>
<polygon fill="midnightblue" stroke="midnightblue" points="249.172,-181.939 245.297,-191.8 254.475,-186.508 249.172,-181.939"/>
</g>
<!-- Node19 -->
<g id="node19" class="node"><title>Node19</title>
<g id="a_node19"><a xlink:href="classgestorempleados_1_1control_1_1_negocio_cliente.xhtml#a47fbb19a34ae4e6d107295cb2feda080" target="_top" xlink:title="gestorempleados.control.\lNegocioCliente.validateUser">
<polygon fill="white" stroke="black" points="358.5,-12 358.5,-42 495.5,-42 495.5,-12 358.5,-12"/>
<text text-anchor="start" x="366.5" y="-30" font-family="Helvetica,sans-Serif" font-size="10.00">gestorempleados.control.</text>
<text text-anchor="middle" x="427" y="-19" font-family="Helvetica,sans-Serif" font-size="10.00">NegocioCliente.validateUser</text>
</a>
</g>
</g>
<!-- Node2&#45;&gt;Node19 -->
<g id="edge18" class="edge"><title>Node2&#45;&gt;Node19</title>
<path fill="none" stroke="midnightblue" d="M244.051,-182.46C260.147,-149.378 293.087,-90.7415 338,-57 346.13,-50.892 355.588,-45.9735 365.228,-42.0288"/>
<polygon fill="midnightblue" stroke="midnightblue" points="240.721,-181.315 239.602,-191.851 247.047,-184.312 240.721,-181.315"/>
</g>
<!-- Node4 -->
<g id="node4" class="node"><title>Node4</title>
<g id="a_node4"><a xlink:href="classplugins_1_1_panel___consultas.xhtml#a2ad6c61fd3e9a34a7e31479f908be48e" target="_top" xlink:title="plugins.Panel_Consultas.\lPanel_Consultas">
<polygon fill="white" stroke="black" points="565.5,-453 565.5,-483 692.5,-483 692.5,-453 565.5,-453"/>
<text text-anchor="start" x="573.5" y="-471" font-family="Helvetica,sans-Serif" font-size="10.00">plugins.Panel_Consultas.</text>
<text text-anchor="middle" x="629" y="-460" font-family="Helvetica,sans-Serif" font-size="10.00">Panel_Consultas</text>
</a>
</g>
</g>
<!-- Node3&#45;&gt;Node4 -->
<g id="edge3" class="edge"><title>Node3&#45;&gt;Node4</title>
<path fill="none" stroke="midnightblue" d="M510.778,-462.139C528.965,-463.048 547.936,-463.997 565.185,-464.859"/>
<polygon fill="midnightblue" stroke="midnightblue" points="510.933,-458.642 500.77,-461.639 510.583,-465.634 510.933,-458.642"/>
</g>
<!-- Node6 -->
<g id="node6" class="node"><title>Node6</title>
<g id="a_node6"><a xlink:href="classplugins_1_1_panel___alta.xhtml#a804926b94fa2f64e79032ded83f6b1e6" target="_top" xlink:title="plugins.Panel_Alta.crear\lPanel">
<polygon fill="white" stroke="black" points="568,-404 568,-434 690,-434 690,-404 568,-404"/>
<text text-anchor="start" x="576" y="-422" font-family="Helvetica,sans-Serif" font-size="10.00">plugins.Panel_Alta.crear</text>
<text text-anchor="middle" x="629" y="-411" font-family="Helvetica,sans-Serif" font-size="10.00">Panel</text>
</a>
</g>
</g>
<!-- Node5&#45;&gt;Node6 -->
<g id="edge5" class="edge"><title>Node5&#45;&gt;Node6</title>
<path fill="none" stroke="midnightblue" d="M508.215,-402.23C528.128,-405.018 549.132,-407.959 567.895,-410.585"/>
<polygon fill="midnightblue" stroke="midnightblue" points="508.62,-398.753 498.231,-400.832 507.649,-405.685 508.62,-398.753"/>
</g>
<!-- Node8 -->
<g id="node8" class="node"><title>Node8</title>
<g id="a_node8"><a xlink:href="classplugins_1_1_panel___consultas.xhtml#a4072616654f5b0d96c9ba7213b140d36" target="_top" xlink:title="plugins.Panel_Consultas.editar\lDatosEmpleado">
<polygon fill="white" stroke="black" points="553.5,-355 553.5,-385 704.5,-385 704.5,-355 553.5,-355"/>
<text text-anchor="start" x="561.5" y="-373" font-family="Helvetica,sans-Serif" font-size="10.00">plugins.Panel_Consultas.editar</text>
<text text-anchor="middle" x="629" y="-362" font-family="Helvetica,sans-Serif" font-size="10.00">DatosEmpleado</text>
</a>
</g>
</g>
<!-- Node7&#45;&gt;Node8 -->
<g id="edge7" class="edge"><title>Node7&#45;&gt;Node8</title>
<path fill="none" stroke="midnightblue" d="M484.1,-323.233C514.826,-333.218 552.449,-345.446 581.519,-354.894"/>
<polygon fill="midnightblue" stroke="midnightblue" points="484.979,-319.838 474.387,-320.076 482.815,-326.495 484.979,-319.838"/>
</g>
<!-- Node9 -->
<g id="node9" class="node"><title>Node9</title>
<g id="a_node9"><a xlink:href="classplugins_1_1_panel___consultas.xhtml#aef9cb36e8db78e3bd75c3e4acf0bc9e4" target="_top" xlink:title="plugins.Panel_Consultas.editar\lCVEmpleado">
<polygon fill="white" stroke="black" points="553.5,-306 553.5,-336 704.5,-336 704.5,-306 553.5,-306"/>
<text text-anchor="start" x="561.5" y="-324" font-family="Helvetica,sans-Serif" font-size="10.00">plugins.Panel_Consultas.editar</text>
<text text-anchor="middle" x="629" y="-313" font-family="Helvetica,sans-Serif" font-size="10.00">CVEmpleado</text>
</a>
</g>
</g>
<!-- Node7&#45;&gt;Node9 -->
<g id="edge8" class="edge"><title>Node7&#45;&gt;Node9</title>
<path fill="none" stroke="midnightblue" d="M525.8,-312.824C535.11,-313.569 544.445,-314.316 553.483,-315.039"/>
<polygon fill="midnightblue" stroke="midnightblue" points="525.97,-309.327 515.723,-312.018 525.412,-316.304 525.97,-309.327"/>
</g>
<!-- Node10 -->
<g id="node10" class="node"><title>Node10</title>
<g id="a_node10"><a xlink:href="classplugins_1_1_panel___consultas.xhtml#ad1596ee5ed80b3214b8374f3f0a97ef6" target="_top" xlink:title="plugins.Panel_Consultas.editar\lContratosEmpleado">
<polygon fill="white" stroke="black" points="553.5,-257 553.5,-287 704.5,-287 704.5,-257 553.5,-257"/>
<text text-anchor="start" x="561.5" y="-275" font-family="Helvetica,sans-Serif" font-size="10.00">plugins.Panel_Consultas.editar</text>
<text text-anchor="middle" x="629" y="-264" font-family="Helvetica,sans-Serif" font-size="10.00">ContratosEmpleado</text>
</a>
</g>
</g>
<!-- Node7&#45;&gt;Node10 -->
<g id="edge9" class="edge"><title>Node7&#45;&gt;Node10</title>
<path fill="none" stroke="midnightblue" d="M525.8,-288.863C535.11,-287.327 544.445,-285.787 553.483,-284.295"/>
<polygon fill="midnightblue" stroke="midnightblue" points="525.02,-285.444 515.723,-290.526 526.159,-292.351 525.02,-285.444"/>
</g>
<!-- Node12 -->
<g id="node12" class="node"><title>Node12</title>
<g id="a_node12"><a xlink:href="classgestorempleados_1_1interficie_1_1_panel___contrato.xhtml#a792633b39c1bbe386b428d3a04502322" target="_top" xlink:title="gestorempleados.interficie.\lPanel_Contrato.Panel_Contrato">
<polygon fill="white" stroke="black" points="552.5,-208 552.5,-238 705.5,-238 705.5,-208 552.5,-208"/>
<text text-anchor="start" x="560.5" y="-226" font-family="Helvetica,sans-Serif" font-size="10.00">gestorempleados.interficie.</text>
<text text-anchor="middle" x="629" y="-215" font-family="Helvetica,sans-Serif" font-size="10.00">Panel_Contrato.Panel_Contrato</text>
</a>
</g>
</g>
<!-- Node11&#45;&gt;Node12 -->
<g id="edge11" class="edge"><title>Node11&#45;&gt;Node12</title>
<path fill="none" stroke="midnightblue" d="M519.182,-227.897C530.265,-227.398 541.495,-226.893 552.32,-226.406"/>
<polygon fill="midnightblue" stroke="midnightblue" points="518.892,-224.406 509.059,-228.352 519.207,-231.399 518.892,-224.406"/>
</g>
<!-- Node15 -->
<g id="node15" class="node"><title>Node15</title>
<g id="a_node15"><a xlink:href="classplugins_1_1_panel___busqueda.xhtml#a8d47495fc4538acdfbc2f27cddffce0d" target="_top" xlink:title="plugins.Panel_Busqueda.crear\lPanel">
<polygon fill="white" stroke="black" points="554.5,-159 554.5,-189 703.5,-189 703.5,-159 554.5,-159"/>
<text text-anchor="start" x="562.5" y="-177" font-family="Helvetica,sans-Serif" font-size="10.00">plugins.Panel_Busqueda.crear</text>
<text text-anchor="middle" x="629" y="-166" font-family="Helvetica,sans-Serif" font-size="10.00">Panel</text>
</a>
</g>
</g>
<!-- Node14&#45;&gt;Node15 -->
<g id="edge14" class="edge"><title>Node14&#45;&gt;Node15</title>
<path fill="none" stroke="midnightblue" d="M503.422,-149.084C520.052,-152.41 537.649,-155.93 554.213,-159.243"/>
<polygon fill="midnightblue" stroke="midnightblue" points="503.703,-145.571 493.211,-147.042 502.33,-152.435 503.703,-145.571"/>
</g>
<!-- Node16 -->
<g id="node16" class="node"><title>Node16</title>
<g id="a_node16"><a xlink:href="classplugins_1_1_panel___registros.xhtml#aae4d01f2f3b9885bee3d9e8057cebece" target="_top" xlink:title="plugins.Panel_Registros.\lPanel_Registros">
<polygon fill="white" stroke="black" points="566.5,-110 566.5,-140 691.5,-140 691.5,-110 566.5,-110"/>
<text text-anchor="start" x="574.5" y="-128" font-family="Helvetica,sans-Serif" font-size="10.00">plugins.Panel_Registros.</text>
<text text-anchor="middle" x="629" y="-117" font-family="Helvetica,sans-Serif" font-size="10.00">Panel_Registros</text>
</a>
</g>
</g>
<!-- Node14&#45;&gt;Node16 -->
<g id="edge15" class="edge"><title>Node14&#45;&gt;Node16</title>
<path fill="none" stroke="midnightblue" d="M503.274,-130.613C524.056,-129.677 546.358,-128.674 566.275,-127.778"/>
<polygon fill="midnightblue" stroke="midnightblue" points="503.043,-127.119 493.211,-131.066 503.358,-134.112 503.043,-127.119"/>
</g>
<!-- Node18 -->
<g id="node18" class="node"><title>Node18</title>
<g id="a_node18"><a xlink:href="classgestorempleados_1_1interficie_1_1_panel___datos_personales.xhtml#a3c7e18bd89aaa31bb40ce20d753b4510" target="_top" xlink:title="gestorempleados.interficie.\lPanel_DatosPersonales.Panel\l_DatosPersonales">
<polygon fill="white" stroke="black" points="554.5,-49.5 554.5,-90.5 703.5,-90.5 703.5,-49.5 554.5,-49.5"/>
<text text-anchor="start" x="562.5" y="-78.5" font-family="Helvetica,sans-Serif" font-size="10.00">gestorempleados.interficie.</text>
<text text-anchor="start" x="562.5" y="-67.5" font-family="Helvetica,sans-Serif" font-size="10.00">Panel_DatosPersonales.Panel</text>
<text text-anchor="middle" x="629" y="-56.5" font-family="Helvetica,sans-Serif" font-size="10.00">_DatosPersonales</text>
</a>
</g>
</g>
<!-- Node17&#45;&gt;Node18 -->
<g id="edge17" class="edge"><title>Node17&#45;&gt;Node18</title>
<path fill="none" stroke="midnightblue" d="M500.353,-77.6588C517.896,-76.6063 536.67,-75.4798 554.275,-74.4235"/>
<polygon fill="midnightblue" stroke="midnightblue" points="499.957,-74.1762 490.185,-78.2689 500.377,-81.1636 499.957,-74.1762"/>
</g>
<!-- Node20 -->
<g id="node20" class="node"><title>Node20</title>
<g id="a_node20"><a xlink:href="classgestorempleados_1_1interficie_1_1_start_client.xhtml#a8fbbf7d526b86a7c9662033ca9839428" target="_top" xlink:title="gestorempleados.interficie.\lStartClient.confirmaUsuario">
<polygon fill="white" stroke="black" points="561.5,-0 561.5,-30 696.5,-30 696.5,-0 561.5,-0"/>
<text text-anchor="start" x="569.5" y="-18" font-family="Helvetica,sans-Serif" font-size="10.00">gestorempleados.interficie.</text>
<text text-anchor="middle" x="629" y="-7" font-family="Helvetica,sans-Serif" font-size="10.00">StartClient.confirmaUsuario</text>
</a>
</g>
</g>
<!-- Node19&#45;&gt;Node20 -->
<g id="edge19" class="edge"><title>Node19&#45;&gt;Node20</title>
<path fill="none" stroke="midnightblue" d="M505.786,-22.3328C524.147,-21.2312 543.56,-20.0664 561.377,-18.9974"/>
<polygon fill="midnightblue" stroke="midnightblue" points="505.483,-18.8446 495.711,-22.9373 505.903,-25.832 505.483,-18.8446"/>
</g>
</g>
</svg>
