<?xml version="1.0" encoding="UTF-8" standalone="no"?>
<!DOCTYPE svg PUBLIC "-//W3C//DTD SVG 1.1//EN"
 "http://www.w3.org/Graphics/SVG/1.1/DTD/svg11.dtd">
<!-- Generated by graphviz version 2.30.1 (20130214.1330)
 -->
<!-- Title: gestorempleados.conector.Packet Pages: 1 -->
<!--zoomable 382 -->
<svg id="main" version="1.1" xmlns="http://www.w3.org/2000/svg" xmlns:xlink="http://www.w3.org/1999/xlink" xml:space="preserve" onload="init(evt)">
<style type="text/css"><![CDATA[
.edge:hover path { stroke: red; }
.edge:hover polygon { stroke: red; fill: red; }
]]></style>
<script type="text/javascript"><![CDATA[
var edges = document.getElementsByTagName('g');
if (edges && edges.length) {
  for (var i=0;i<edges.length;i++) {
    if (edges[i].id.substr(0,4)=='edge') {
      edges[i].setAttribute('class','edge');
    }
  }
}
]]></script>
        <defs>
                <circle id="rim" cx="0" cy="0" r="7"/>
                <circle id="rim2" cx="0" cy="0" r="3.5"/>
                <g id="zoomPlus">
                        <use xlink:href="#rim" fill="#404040">
                                <set attributeName="fill" to="#808080" begin="zoomplus.mouseover" end="zoomplus.mouseout"/>
                        </use>
                        <path d="M-4,0h8M0,-4v8" fill="none" stroke="white" stroke-width="1.5" pointer-events="none"/>
                </g>
                <g id="zoomMin">
                        <use xlink:href="#rim" fill="#404040">
                                <set attributeName="fill" to="#808080" begin="zoomminus.mouseover" end="zoomminus.mouseout"/>
                        </use>
                        <path d="M-4,0h8" fill="none" stroke="white" stroke-width="1.5" pointer-events="none"/>
                </g>
                <g id="dirArrow">
                        <path fill="none" stroke="white" stroke-width="1.5" d="M0,-3.0v7 M-2.5,-0.5L0,-3.0L2.5,-0.5"/>
                </g>
               <g id="resetDef">
                       <use xlink:href="#rim2" fill="#404040">
                               <set attributeName="fill" to="#808080" begin="reset.mouseover" end="reset.mouseout"/>
                       </use>
               </g>
        </defs>

<script type="text/javascript">
var viewWidth = 604;
var viewHeight = 382;
var sectionId = 'dynsection-1';
</script>
<script xlink:href="svgpan.js"/>
<svg id="graph" class="graph">
<g id="viewport">
<title>gestorempleados.conector.Packet</title>
<polygon fill="white" stroke="white" points="-4,5 -4,-378 601,-378 601,5 -4,5"/>
<!-- Node1 -->
<g id="node1" class="node"><title>Node1</title>
<polygon fill="#bfbfbf" stroke="black" points="193,-1 193,-267 327,-267 327,-1 193,-1"/>
<text text-anchor="start" x="201" y="-255" font-family="Helvetica,sans-Serif" font-size="10.00">gestorempleados.conector.</text>
<text text-anchor="middle" x="260" y="-244" font-family="Helvetica,sans-Serif" font-size="10.00">Packet</text>
<polyline fill="none" stroke="black" points="193,-237 327,-237 "/>
<text text-anchor="start" x="201" y="-225" font-family="Helvetica,sans-Serif" font-size="10.00">&#45; type</text>
<text text-anchor="start" x="201" y="-214" font-family="Helvetica,sans-Serif" font-size="10.00">&#45; user</text>
<text text-anchor="start" x="201" y="-203" font-family="Helvetica,sans-Serif" font-size="10.00">&#45; filtro</text>
<text text-anchor="start" x="201" y="-192" font-family="Helvetica,sans-Serif" font-size="10.00">&#45; archivo</text>
<polyline fill="none" stroke="black" points="193,-185 327,-185 "/>
<text text-anchor="start" x="201" y="-173" font-family="Helvetica,sans-Serif" font-size="10.00">+ getType()</text>
<text text-anchor="start" x="201" y="-162" font-family="Helvetica,sans-Serif" font-size="10.00">+ setType()</text>
<text text-anchor="start" x="201" y="-151" font-family="Helvetica,sans-Serif" font-size="10.00">+ Packet()</text>
<text text-anchor="start" x="201" y="-140" font-family="Helvetica,sans-Serif" font-size="10.00">+ Packet()</text>
<text text-anchor="start" x="201" y="-129" font-family="Helvetica,sans-Serif" font-size="10.00">+ Packet()</text>
<text text-anchor="start" x="201" y="-118" font-family="Helvetica,sans-Serif" font-size="10.00">+ getUser()</text>
<text text-anchor="start" x="201" y="-107" font-family="Helvetica,sans-Serif" font-size="10.00">+ getEmpleados()</text>
<text text-anchor="start" x="201" y="-96" font-family="Helvetica,sans-Serif" font-size="10.00">+ setEmpleados()</text>
<text text-anchor="start" x="201" y="-85" font-family="Helvetica,sans-Serif" font-size="10.00">+ getDepartamentos()</text>
<text text-anchor="start" x="201" y="-74" font-family="Helvetica,sans-Serif" font-size="10.00">+ setDepartamentos()</text>
<text text-anchor="start" x="201" y="-63" font-family="Helvetica,sans-Serif" font-size="10.00">+ getCargos()</text>
<text text-anchor="start" x="201" y="-52" font-family="Helvetica,sans-Serif" font-size="10.00">+ setCargos()</text>
<text text-anchor="start" x="201" y="-41" font-family="Helvetica,sans-Serif" font-size="10.00">+ getFiltro()</text>
<text text-anchor="start" x="201" y="-30" font-family="Helvetica,sans-Serif" font-size="10.00">+ setFiltro()</text>
<text text-anchor="start" x="201" y="-19" font-family="Helvetica,sans-Serif" font-size="10.00">+ getArchivo()</text>
<text text-anchor="start" x="201" y="-8" font-family="Helvetica,sans-Serif" font-size="10.00">+ setArchivo()</text>
</g>
<!-- Node2 -->
<g id="node2" class="node"><title>Node2</title>
<polygon fill="white" stroke="#bfbfbf" points="-0.5,-316.5 -0.5,-373.5 66.5,-373.5 66.5,-316.5 -0.5,-316.5"/>
<text text-anchor="middle" x="33" y="-361.5" font-family="Helvetica,sans-Serif" font-size="10.00">Serializable</text>
<polyline fill="none" stroke="#bfbfbf" points="-0.5,-354.5 66.5,-354.5 "/>
<text text-anchor="middle" x="33" y="-342.5" font-family="Helvetica,sans-Serif" font-size="10.00"> </text>
<polyline fill="none" stroke="#bfbfbf" points="-0.5,-335.5 66.5,-335.5 "/>
<text text-anchor="middle" x="33" y="-323.5" font-family="Helvetica,sans-Serif" font-size="10.00"> </text>
</g>
<!-- Node2&#45;&gt;Node1 -->
<g id="edge1" class="edge"><title>Node2&#45;&gt;Node1</title>
<path fill="none" stroke="midnightblue" d="M70.8064,-309.191C103.992,-278.637 153.043,-233.476 192.885,-196.794"/>
<polygon fill="none" stroke="midnightblue" points="68.1299,-306.898 63.1438,-316.246 72.8713,-312.048 68.1299,-306.898"/>
</g>
<!-- Node3 -->
<g id="node3" class="node"><title>Node3</title>
<polygon fill="white" stroke="#bfbfbf" points="84.5,-316.5 84.5,-373.5 183.5,-373.5 183.5,-316.5 84.5,-316.5"/>
<text text-anchor="middle" x="134" y="-361.5" font-family="Helvetica,sans-Serif" font-size="10.00">ArrayList&lt; Cargo &gt;</text>
<polyline fill="none" stroke="#bfbfbf" points="84.5,-354.5 183.5,-354.5 "/>
<text text-anchor="middle" x="134" y="-342.5" font-family="Helvetica,sans-Serif" font-size="10.00"> </text>
<polyline fill="none" stroke="#bfbfbf" points="84.5,-335.5 183.5,-335.5 "/>
<text text-anchor="middle" x="134" y="-323.5" font-family="Helvetica,sans-Serif" font-size="10.00"> </text>
</g>
<!-- Node3&#45;&gt;Node1 -->
<g id="edge2" class="edge"><title>Node3&#45;&gt;Node1</title>
<path fill="none" stroke="#404040" d="M150.732,-316.246C160.368,-300.262 173.224,-278.938 186.726,-256.541"/>
<polygon fill="none" stroke="#404040" points="186.771,-256.468 186.443,-249.264 192.966,-246.191 193.294,-253.394 186.771,-256.468"/>
<text text-anchor="middle" x="186" y="-289.5" font-family="Helvetica,sans-Serif" font-size="10.00"> &#45;cargos</text>
</g>
<!-- Node4 -->
<g id="node4" class="node"><title>Node4</title>
<polygon fill="white" stroke="#bfbfbf" points="201.5,-316.5 201.5,-373.5 318.5,-373.5 318.5,-316.5 201.5,-316.5"/>
<text text-anchor="middle" x="260" y="-361.5" font-family="Helvetica,sans-Serif" font-size="10.00">ArrayList&lt; Empleado &gt;</text>
<polyline fill="none" stroke="#bfbfbf" points="201.5,-354.5 318.5,-354.5 "/>
<text text-anchor="middle" x="260" y="-342.5" font-family="Helvetica,sans-Serif" font-size="10.00"> </text>
<polyline fill="none" stroke="#bfbfbf" points="201.5,-335.5 318.5,-335.5 "/>
<text text-anchor="middle" x="260" y="-323.5" font-family="Helvetica,sans-Serif" font-size="10.00"> </text>
</g>
<!-- Node4&#45;&gt;Node1 -->
<g id="edge3" class="edge"><title>Node4&#45;&gt;Node1</title>
<path fill="none" stroke="#404040" d="M260,-316.246C260,-305.855 260,-293.206 260,-279.474"/>
<polygon fill="none" stroke="#404040" points="260,-279.156 256,-273.156 260,-267.156 264,-273.156 260,-279.156"/>
<text text-anchor="middle" x="287" y="-289.5" font-family="Helvetica,sans-Serif" font-size="10.00"> &#45;empleados</text>
</g>
<!-- Node5 -->
<g id="node5" class="node"><title>Node5</title>
<polygon fill="white" stroke="#bfbfbf" points="337,-316.5 337,-373.5 471,-373.5 471,-316.5 337,-316.5"/>
<text text-anchor="middle" x="404" y="-361.5" font-family="Helvetica,sans-Serif" font-size="10.00">ArrayList&lt; Departamento &gt;</text>
<polyline fill="none" stroke="#bfbfbf" points="337,-354.5 471,-354.5 "/>
<text text-anchor="middle" x="404" y="-342.5" font-family="Helvetica,sans-Serif" font-size="10.00"> </text>
<polyline fill="none" stroke="#bfbfbf" points="337,-335.5 471,-335.5 "/>
<text text-anchor="middle" x="404" y="-323.5" font-family="Helvetica,sans-Serif" font-size="10.00"> </text>
</g>
<!-- Node5&#45;&gt;Node1 -->
<g id="edge4" class="edge"><title>Node5&#45;&gt;Node1</title>
<path fill="none" stroke="#404040" d="M384.878,-316.246C371.591,-296.962 352.95,-269.906 334.115,-242.57"/>
<polygon fill="none" stroke="#404040" points="333.986,-242.382 327.288,-239.711 327.177,-232.5 333.875,-235.172 333.986,-242.382"/>
<text text-anchor="middle" x="405.5" y="-289.5" font-family="Helvetica,sans-Serif" font-size="10.00"> &#45;departamentos</text>
</g>
<!-- Node6 -->
<g id="node6" class="node"><title>Node6</title>
<polygon fill="white" stroke="#bfbfbf" points="489.5,-316.5 489.5,-373.5 596.5,-373.5 596.5,-316.5 489.5,-316.5"/>
<text text-anchor="middle" x="543" y="-361.5" font-family="Helvetica,sans-Serif" font-size="10.00">ArrayList&lt; Idiomas &gt;</text>
<polyline fill="none" stroke="#bfbfbf" points="489.5,-354.5 596.5,-354.5 "/>
<text text-anchor="middle" x="543" y="-342.5" font-family="Helvetica,sans-Serif" font-size="10.00"> </text>
<polyline fill="none" stroke="#bfbfbf" points="489.5,-335.5 596.5,-335.5 "/>
<text text-anchor="middle" x="543" y="-323.5" font-family="Helvetica,sans-Serif" font-size="10.00"> </text>
</g>
<!-- Node6&#45;&gt;Node1 -->
<g id="edge5" class="edge"><title>Node6&#45;&gt;Node1</title>
<path fill="none" stroke="#404040" d="M505.712,-316.462C462.951,-284.883 391.701,-232.263 336.905,-191.796"/>
<polygon fill="none" stroke="#404040" points="336.876,-191.774 329.673,-191.427 327.223,-184.645 334.425,-184.992 336.876,-191.774"/>
<text text-anchor="middle" x="495" y="-289.5" font-family="Helvetica,sans-Serif" font-size="10.00"> &#45;idiomas</text>
</g>
</g>
</svg>
        <g id="navigator" transform="translate(0 0)" fill="#404254">
                <rect fill="#f2f5e9" fill-opacity="0.5" stroke="#606060" stroke-width=".5" x="0" y="0" width="60" height="60"/>
                <use id="zoomplus" xlink:href="#zoomPlus" x="17" y="9" onmousedown="handleZoom(evt,'in')"/>
                <use id="zoomminus" xlink:href="#zoomMin" x="42" y="9" onmousedown="handleZoom(evt,'out')"/>
                <use id="reset" xlink:href="#resetDef" x="30" y="36" onmousedown="handleReset()"/>
                <g id="arrowUp" xlink:href="#dirArrow" transform="translate(30 24)" onmousedown="handlePan(0,-1)">
                  <use xlink:href="#rim" fill="#404040">
                        <set attributeName="fill" to="#808080" begin="arrowUp.mouseover" end="arrowUp.mouseout"/>
                  </use>
                  <path fill="none" stroke="white" stroke-width="1.5" d="M0,-3.0v7 M-2.5,-0.5L0,-3.0L2.5,-0.5"/>
                </g>
                <g id="arrowRight" xlink:href="#dirArrow" transform="rotate(90) translate(36 -43)" onmousedown="handlePan(1,0)">
                  <use xlink:href="#rim" fill="#404040">
                        <set attributeName="fill" to="#808080" begin="arrowRight.mouseover" end="arrowRight.mouseout"/>
                  </use>
                  <path fill="none" stroke="white" stroke-width="1.5" d="M0,-3.0v7 M-2.5,-0.5L0,-3.0L2.5,-0.5"/>
                </g>
                <g id="arrowDown" xlink:href="#dirArrow" transform="rotate(180) translate(-30 -48)" onmousedown="handlePan(0,1)">
                  <use xlink:href="#rim" fill="#404040">
                        <set attributeName="fill" to="#808080" begin="arrowDown.mouseover" end="arrowDown.mouseout"/>
                  </use>
                  <path fill="none" stroke="white" stroke-width="1.5" d="M0,-3.0v7 M-2.5,-0.5L0,-3.0L2.5,-0.5"/>
                </g>
                <g id="arrowLeft" xlink:href="#dirArrow" transform="rotate(270) translate(-36 17)" onmousedown="handlePan(-1,0)">
                  <use xlink:href="#rim" fill="#404040">
                        <set attributeName="fill" to="#808080" begin="arrowLeft.mouseover" end="arrowLeft.mouseout"/>
                  </use>
                  <path fill="none" stroke="white" stroke-width="1.5" d="M0,-3.0v7 M-2.5,-0.5L0,-3.0L2.5,-0.5"/>
                </g>
        </g>
        <svg viewBox="0 0 15 15" width="100%" height="30px" preserveAspectRatio="xMaxYMin meet">
         <g id="arrow_out" transform="scale(0.3 0.3)">
          <a xlink:href="classgestorempleados_1_1conector_1_1_packet__coll__graph_org.svg" target="_base">
           <rect id="button" ry="5" rx="5" y="6" x="6" height="38" width="38"
                fill="#f2f5e9" fill-opacity="0.5" stroke="#606060" stroke-width="1.0"/>
           <path id="arrow"
             d="M 11.500037,31.436501 C 11.940474,20.09759 22.043105,11.32322 32.158766,21.979434 L 37.068811,17.246167 C 37.068811,17.246167 37.088388,32 37.088388,32 L 22.160133,31.978069 C 22.160133,31.978069 26.997745,27.140456 26.997745,27.140456 C 18.528582,18.264221 13.291696,25.230495 11.500037,31.436501 z"
             style="fill:#404040;"/>
          </a>
         </g>
        </svg>
</svg>
