<?xml version="1.0" encoding="UTF-8" standalone="no"?>
<!DOCTYPE svg PUBLIC "-//W3C//DTD SVG 1.1//EN"
 "http://www.w3.org/Graphics/SVG/1.1/DTD/svg11.dtd">
<!-- Generated by graphviz version 2.30.1 (20130214.1330)
 -->
<!-- Title: gestorempleados.interficie.Panel_DatosPersonales Pages: 1 -->
<svg width="907pt" height="840pt"
 viewBox="0.00 0.00 907.43 840.00" xmlns="http://www.w3.org/2000/svg" xmlns:xlink="http://www.w3.org/1999/xlink">
<g id="graph0" class="graph" transform="scale(1 1) rotate(0) translate(4 836)">
<title>gestorempleados.interficie.Panel_DatosPersonales</title>
<polygon fill="white" stroke="white" points="-4,5 -4,-836 904.433,-836 904.433,5 -4,5"/>
<!-- Node1 -->
<g id="node1" class="node"><title>Node1</title>
<polygon fill="#bfbfbf" stroke="black" points="403.433,-1 403.433,-377 539.433,-377 539.433,-1 403.433,-1"/>
<text text-anchor="start" x="411.433" y="-365" font-family="Helvetica,sans-Serif" font-size="10.00">gestorempleados.interficie.</text>
<text text-anchor="middle" x="471.433" y="-354" font-family="Helvetica,sans-Serif" font-size="10.00">Panel_DatosPersonales</text>
<polyline fill="none" stroke="black" points="403.433,-347 539.433,-347 "/>
<text text-anchor="start" x="411.433" y="-335" font-family="Helvetica,sans-Serif" font-size="10.00">+ camposDatosOK</text>
<polyline fill="none" stroke="black" points="403.433,-328 539.433,-328 "/>
<text text-anchor="start" x="411.433" y="-316" font-family="Helvetica,sans-Serif" font-size="10.00">+ Panel_DatosPersonales()</text>
<text text-anchor="start" x="411.433" y="-305" font-family="Helvetica,sans-Serif" font-size="10.00">+ getNombre()</text>
<text text-anchor="start" x="411.433" y="-294" font-family="Helvetica,sans-Serif" font-size="10.00">+ setNombre()</text>
<text text-anchor="start" x="411.433" y="-283" font-family="Helvetica,sans-Serif" font-size="10.00">+ getApellido1()</text>
<text text-anchor="start" x="411.433" y="-272" font-family="Helvetica,sans-Serif" font-size="10.00">+ setApellido1()</text>
<text text-anchor="start" x="411.433" y="-261" font-family="Helvetica,sans-Serif" font-size="10.00">+ getApellido2()</text>
<text text-anchor="start" x="411.433" y="-250" font-family="Helvetica,sans-Serif" font-size="10.00">+ setApellido2()</text>
<text text-anchor="start" x="411.433" y="-239" font-family="Helvetica,sans-Serif" font-size="10.00">+ getNss()</text>
<text text-anchor="start" x="411.433" y="-228" font-family="Helvetica,sans-Serif" font-size="10.00">+ setNss()</text>
<text text-anchor="start" x="411.433" y="-217" font-family="Helvetica,sans-Serif" font-size="10.00">+ getDni()</text>
<text text-anchor="start" x="411.433" y="-206" font-family="Helvetica,sans-Serif" font-size="10.00">+ setDni()</text>
<text text-anchor="start" x="411.433" y="-195" font-family="Helvetica,sans-Serif" font-size="10.00">+ getNacionalidad()</text>
<text text-anchor="start" x="411.433" y="-184" font-family="Helvetica,sans-Serif" font-size="10.00">+ setNacionalidad()</text>
<text text-anchor="start" x="411.433" y="-173" font-family="Helvetica,sans-Serif" font-size="10.00">+ getFecha_nacimiento()</text>
<text text-anchor="start" x="411.433" y="-162" font-family="Helvetica,sans-Serif" font-size="10.00">+ setFecha_nacimiento()</text>
<text text-anchor="start" x="411.433" y="-151" font-family="Helvetica,sans-Serif" font-size="10.00">+ getDireccion()</text>
<text text-anchor="start" x="411.433" y="-140" font-family="Helvetica,sans-Serif" font-size="10.00">+ setDireccion()</text>
<text text-anchor="start" x="411.433" y="-129" font-family="Helvetica,sans-Serif" font-size="10.00">+ getPoblacion()</text>
<text text-anchor="start" x="411.433" y="-118" font-family="Helvetica,sans-Serif" font-size="10.00">+ setPoblacion()</text>
<text text-anchor="start" x="411.433" y="-107" font-family="Helvetica,sans-Serif" font-size="10.00">+ getTelefono()</text>
<text text-anchor="start" x="411.433" y="-96" font-family="Helvetica,sans-Serif" font-size="10.00">+ setTelefono()</text>
<text text-anchor="start" x="411.433" y="-85" font-family="Helvetica,sans-Serif" font-size="10.00">+ getCc()</text>
<text text-anchor="start" x="411.433" y="-74" font-family="Helvetica,sans-Serif" font-size="10.00">+ setCc()</text>
<text text-anchor="start" x="411.433" y="-63" font-family="Helvetica,sans-Serif" font-size="10.00">+ getFoto()</text>
<text text-anchor="start" x="411.433" y="-52" font-family="Helvetica,sans-Serif" font-size="10.00">+ setFoto()</text>
<text text-anchor="start" x="411.433" y="-41" font-family="Helvetica,sans-Serif" font-size="10.00">+ changedUpdate()</text>
<text text-anchor="start" x="411.433" y="-30" font-family="Helvetica,sans-Serif" font-size="10.00">+ insertUpdate()</text>
<text text-anchor="start" x="411.433" y="-19" font-family="Helvetica,sans-Serif" font-size="10.00">+ removeUpdate()</text>
<text text-anchor="start" x="411.433" y="-8" font-family="Helvetica,sans-Serif" font-size="10.00">+ disableKey()</text>
</g>
<!-- Node2 -->
<g id="node2" class="node"><title>Node2</title>
<polygon fill="white" stroke="#bfbfbf" points="60.4328,-774.5 60.4328,-831.5 106.433,-831.5 106.433,-774.5 60.4328,-774.5"/>
<text text-anchor="middle" x="83.4328" y="-819.5" font-family="Helvetica,sans-Serif" font-size="10.00">JPanel</text>
<polyline fill="none" stroke="#bfbfbf" points="60.4328,-812.5 106.433,-812.5 "/>
<text text-anchor="middle" x="83.4328" y="-800.5" font-family="Helvetica,sans-Serif" font-size="10.00"> </text>
<polyline fill="none" stroke="#bfbfbf" points="60.4328,-793.5 106.433,-793.5 "/>
<text text-anchor="middle" x="83.4328" y="-781.5" font-family="Helvetica,sans-Serif" font-size="10.00"> </text>
</g>
<!-- Node2&#45;&gt;Node1 -->
<g id="edge1" class="edge"><title>Node2&#45;&gt;Node1</title>
<path fill="none" stroke="midnightblue" d="M52.9471,-775.458C47.7094,-769.546 42.8588,-762.951 39.4328,-756 29.0957,-735.026 33.2158,-727.315 31.4328,-704 20.9915,-567.464 -37.9524,-508.972 39.4328,-396 124.307,-272.095 304.687,-220.464 403.398,-200.816"/>
<polygon fill="none" stroke="midnightblue" points="50.7878,-778.263 60.2319,-783.065 55.8437,-773.422 50.7878,-778.263"/>
</g>
<!-- Node5 -->
<g id="node5" class="node"><title>Node5</title>
<g id="a_node5"><a xlink:href="classgestorempleados_1_1interficie_1_1_calendario.xhtml" target="_top" xlink:title="{gestorempleados.interficie.\lCalendario\n|~ diaMax\l~ inicioMes\l~ meses\l~ dia\l~ mes\l~ year\l|+ getDia()\l+ setDia()\l+ getMes()\l+ setMes()\l+ getAno()\l+ setAno()\l+ Calendario()\l+ dibujar()\l}">
<polygon fill="white" stroke="black" points="335.933,-503 335.933,-703 468.933,-703 468.933,-503 335.933,-503"/>
<text text-anchor="start" x="343.933" y="-691" font-family="Helvetica,sans-Serif" font-size="10.00">gestorempleados.interficie.</text>
<text text-anchor="middle" x="402.433" y="-680" font-family="Helvetica,sans-Serif" font-size="10.00">Calendario</text>
<polyline fill="none" stroke="black" points="335.933,-673 468.933,-673 "/>
<text text-anchor="start" x="343.933" y="-661" font-family="Helvetica,sans-Serif" font-size="10.00">~ diaMax</text>
<text text-anchor="start" x="343.933" y="-650" font-family="Helvetica,sans-Serif" font-size="10.00">~ inicioMes</text>
<text text-anchor="start" x="343.933" y="-639" font-family="Helvetica,sans-Serif" font-size="10.00">~ meses</text>
<text text-anchor="start" x="343.933" y="-628" font-family="Helvetica,sans-Serif" font-size="10.00">~ dia</text>
<text text-anchor="start" x="343.933" y="-617" font-family="Helvetica,sans-Serif" font-size="10.00">~ mes</text>
<text text-anchor="start" x="343.933" y="-606" font-family="Helvetica,sans-Serif" font-size="10.00">~ year</text>
<polyline fill="none" stroke="black" points="335.933,-599 468.933,-599 "/>
<text text-anchor="start" x="343.933" y="-587" font-family="Helvetica,sans-Serif" font-size="10.00">+ getDia()</text>
<text text-anchor="start" x="343.933" y="-576" font-family="Helvetica,sans-Serif" font-size="10.00">+ setDia()</text>
<text text-anchor="start" x="343.933" y="-565" font-family="Helvetica,sans-Serif" font-size="10.00">+ getMes()</text>
<text text-anchor="start" x="343.933" y="-554" font-family="Helvetica,sans-Serif" font-size="10.00">+ setMes()</text>
<text text-anchor="start" x="343.933" y="-543" font-family="Helvetica,sans-Serif" font-size="10.00">+ getAno()</text>
<text text-anchor="start" x="343.933" y="-532" font-family="Helvetica,sans-Serif" font-size="10.00">+ setAno()</text>
<text text-anchor="start" x="343.933" y="-521" font-family="Helvetica,sans-Serif" font-size="10.00">+ Calendario()</text>
<text text-anchor="start" x="343.933" y="-510" font-family="Helvetica,sans-Serif" font-size="10.00">+ dibujar()</text>
</a>
</g>
</g>
<!-- Node2&#45;&gt;Node5 -->
<g id="edge5" class="edge"><title>Node2&#45;&gt;Node5</title>
<path fill="none" stroke="midnightblue" d="M115.652,-786.813C152.23,-769.867 213.908,-742.184 268.433,-722 293.745,-712.63 304.324,-719.482 326.433,-704 329.648,-701.748 332.787,-699.319 335.844,-696.748"/>
<polygon fill="none" stroke="midnightblue" points="114.06,-783.693 106.471,-791.086 117.014,-790.04 114.06,-783.693"/>
</g>
<!-- Node2&#45;&gt;Node5 -->
<g id="edge10" class="edge"><title>Node2&#45;&gt;Node5</title>
<path fill="none" stroke="#404040" d="M96.6168,-774.168C106.75,-756.081 122.555,-733.752 143.433,-722 211.453,-683.714 251.392,-738.5 325.209,-703.554"/>
<polygon fill="none" stroke="#404040" points="325.213,-703.552 328.687,-697.232 335.856,-698.008 332.382,-704.327 325.213,-703.552"/>
<text text-anchor="middle" x="163.433" y="-742" font-family="Helvetica,sans-Serif" font-size="10.00"> ~panel</text>
<text text-anchor="middle" x="163.433" y="-731" font-family="Helvetica,sans-Serif" font-size="10.00">~panel_1</text>
</g>
<!-- Node2&#45;&gt;Node1 -->
<g id="edge17" class="edge"><title>Node2&#45;&gt;Node1</title>
<path fill="none" stroke="#404040" d="M72.5806,-774.135C52.913,-718.902 17.3895,-593.014 62.4328,-502 130.996,-363.463 293.803,-269.638 392.079,-223.392"/>
<polygon fill="none" stroke="#404040" points="392.26,-223.308 396.019,-217.154 403.145,-218.257 399.386,-224.411 392.26,-223.308"/>
<text text-anchor="middle" x="103.433" y="-655.5" font-family="Helvetica,sans-Serif" font-size="10.00"> &#45;nssPanel</text>
<text text-anchor="middle" x="103.433" y="-644.5" font-family="Helvetica,sans-Serif" font-size="10.00">&#45;nacionalidadPanel</text>
<text text-anchor="middle" x="103.433" y="-633.5" font-family="Helvetica,sans-Serif" font-size="10.00">&#45;apellido2Panel</text>
<text text-anchor="middle" x="103.433" y="-622.5" font-family="Helvetica,sans-Serif" font-size="10.00">&#45;paisPanel</text>
<text text-anchor="middle" x="103.433" y="-611.5" font-family="Helvetica,sans-Serif" font-size="10.00">&#45;apellido1Panel</text>
<text text-anchor="middle" x="103.433" y="-600.5" font-family="Helvetica,sans-Serif" font-size="10.00">&#45;telefonoPanel</text>
<text text-anchor="middle" x="103.433" y="-589.5" font-family="Helvetica,sans-Serif" font-size="10.00">&#45;direccionPanel</text>
<text text-anchor="middle" x="103.433" y="-578.5" font-family="Helvetica,sans-Serif" font-size="10.00">&#45;poblacionPanel</text>
<text text-anchor="middle" x="103.433" y="-567.5" font-family="Helvetica,sans-Serif" font-size="10.00">&#45;dniPanel</text>
<text text-anchor="middle" x="103.433" y="-556.5" font-family="Helvetica,sans-Serif" font-size="10.00">&#45;nombrePanel</text>
<text text-anchor="middle" x="103.433" y="-545.5" font-family="Helvetica,sans-Serif" font-size="10.00">...</text>
</g>
<!-- Node3 -->
<g id="node3" class="node"><title>Node3</title>
<polygon fill="white" stroke="#bfbfbf" points="153.933,-574.5 153.933,-631.5 248.933,-631.5 248.933,-574.5 153.933,-574.5"/>
<text text-anchor="middle" x="201.433" y="-619.5" font-family="Helvetica,sans-Serif" font-size="10.00">DocumentListener</text>
<polyline fill="none" stroke="#bfbfbf" points="153.933,-612.5 248.933,-612.5 "/>
<text text-anchor="middle" x="201.433" y="-600.5" font-family="Helvetica,sans-Serif" font-size="10.00"> </text>
<polyline fill="none" stroke="#bfbfbf" points="153.933,-593.5 248.933,-593.5 "/>
<text text-anchor="middle" x="201.433" y="-581.5" font-family="Helvetica,sans-Serif" font-size="10.00"> </text>
</g>
<!-- Node3&#45;&gt;Node1 -->
<g id="edge2" class="edge"><title>Node3&#45;&gt;Node1</title>
<path fill="none" stroke="midnightblue" d="M221.307,-565.495C231.955,-546.367 245.509,-522.68 258.433,-502 304.747,-427.888 360.555,-346.398 403.426,-285.29"/>
<polygon fill="none" stroke="midnightblue" points="218.111,-564.042 216.329,-574.486 224.235,-567.433 218.111,-564.042"/>
</g>
<!-- Node4 -->
<g id="node4" class="node"><title>Node4</title>
<polygon fill="white" stroke="#bfbfbf" points="267.433,-574.5 267.433,-631.5 317.433,-631.5 317.433,-574.5 267.433,-574.5"/>
<text text-anchor="middle" x="292.433" y="-619.5" font-family="Helvetica,sans-Serif" font-size="10.00">JButton</text>
<polyline fill="none" stroke="#bfbfbf" points="267.433,-612.5 317.433,-612.5 "/>
<text text-anchor="middle" x="292.433" y="-600.5" font-family="Helvetica,sans-Serif" font-size="10.00"> </text>
<polyline fill="none" stroke="#bfbfbf" points="267.433,-593.5 317.433,-593.5 "/>
<text text-anchor="middle" x="292.433" y="-581.5" font-family="Helvetica,sans-Serif" font-size="10.00"> </text>
</g>
<!-- Node4&#45;&gt;Node1 -->
<g id="edge3" class="edge"><title>Node4&#45;&gt;Node1</title>
<path fill="none" stroke="#404040" d="M301.026,-574.119C307.472,-553.896 316.809,-525.998 326.433,-502 348.026,-448.156 374.105,-390.26 398.159,-339.136"/>
<polygon fill="none" stroke="#404040" points="398.295,-338.847 397.24,-331.714 403.418,-327.996 404.474,-335.129 398.295,-338.847"/>
<text text-anchor="middle" x="391.433" y="-437.5" font-family="Helvetica,sans-Serif" font-size="10.00"> &#45;btnFoto</text>
</g>
<!-- Node5&#45;&gt;Node1 -->
<g id="edge4" class="edge"><title>Node5&#45;&gt;Node1</title>
<path fill="none" stroke="#404040" d="M419.048,-502.791C424.806,-468.408 431.484,-428.538 438.103,-389.011"/>
<polygon fill="none" stroke="#404040" points="438.126,-388.878 435.172,-382.299 440.108,-377.043 443.062,-383.621 438.126,-388.878"/>
<text text-anchor="middle" x="462.933" y="-437.5" font-family="Helvetica,sans-Serif" font-size="10.00"> &#45;calendario</text>
</g>
<!-- Node6 -->
<g id="node6" class="node"><title>Node6</title>
<polygon fill="white" stroke="#bfbfbf" points="229.933,-774.5 229.933,-831.5 284.933,-831.5 284.933,-774.5 229.933,-774.5"/>
<text text-anchor="middle" x="257.433" y="-819.5" font-family="Helvetica,sans-Serif" font-size="10.00">Calendar</text>
<polyline fill="none" stroke="#bfbfbf" points="229.933,-812.5 284.933,-812.5 "/>
<text text-anchor="middle" x="257.433" y="-800.5" font-family="Helvetica,sans-Serif" font-size="10.00"> </text>
<polyline fill="none" stroke="#bfbfbf" points="229.933,-793.5 284.933,-793.5 "/>
<text text-anchor="middle" x="257.433" y="-781.5" font-family="Helvetica,sans-Serif" font-size="10.00"> </text>
</g>
<!-- Node6&#45;&gt;Node5 -->
<g id="edge6" class="edge"><title>Node6&#45;&gt;Node5</title>
<path fill="none" stroke="#404040" d="M264.091,-774.145C269.256,-757.405 277.871,-736.591 291.433,-722 303.341,-709.187 313.031,-715.242 326.433,-704 326.532,-703.917 326.631,-703.833 326.73,-703.75"/>
<polygon fill="none" stroke="#404040" points="326.876,-703.619 328.654,-696.63 335.788,-695.583 334.011,-702.572 326.876,-703.619"/>
<text text-anchor="middle" x="318.433" y="-742" font-family="Helvetica,sans-Serif" font-size="10.00"> ~calendario</text>
<text text-anchor="middle" x="318.433" y="-731" font-family="Helvetica,sans-Serif" font-size="10.00">~calcopia</text>
</g>
<!-- Node7 -->
<g id="node7" class="node"><title>Node7</title>
<polygon fill="white" stroke="#bfbfbf" points="305.433,-774.5 305.433,-831.5 359.433,-831.5 359.433,-774.5 305.433,-774.5"/>
<text text-anchor="middle" x="332.433" y="-819.5" font-family="Helvetica,sans-Serif" font-size="10.00">JSpinner</text>
<polyline fill="none" stroke="#bfbfbf" points="305.433,-812.5 359.433,-812.5 "/>
<text text-anchor="middle" x="332.433" y="-800.5" font-family="Helvetica,sans-Serif" font-size="10.00"> </text>
<polyline fill="none" stroke="#bfbfbf" points="305.433,-793.5 359.433,-793.5 "/>
<text text-anchor="middle" x="332.433" y="-781.5" font-family="Helvetica,sans-Serif" font-size="10.00"> </text>
</g>
<!-- Node7&#45;&gt;Node5 -->
<g id="edge7" class="edge"><title>Node7&#45;&gt;Node5</title>
<path fill="none" stroke="#404040" d="M342.166,-774.469C347.854,-758.379 355.449,-736.897 363.325,-714.619"/>
<polygon fill="none" stroke="#404040" points="363.334,-714.595 361.562,-707.605 367.334,-703.281 369.105,-710.271 363.334,-714.595"/>
<text text-anchor="middle" x="376.433" y="-742" font-family="Helvetica,sans-Serif" font-size="10.00"> ~spDia</text>
<text text-anchor="middle" x="376.433" y="-731" font-family="Helvetica,sans-Serif" font-size="10.00">~spAno</text>
</g>
<!-- Node8 -->
<g id="node8" class="node"><title>Node8</title>
<polygon fill="white" stroke="#bfbfbf" points="377.933,-774.5 377.933,-831.5 446.933,-831.5 446.933,-774.5 377.933,-774.5"/>
<text text-anchor="middle" x="412.433" y="-819.5" font-family="Helvetica,sans-Serif" font-size="10.00">JComboBox</text>
<polyline fill="none" stroke="#bfbfbf" points="377.933,-812.5 446.933,-812.5 "/>
<text text-anchor="middle" x="412.433" y="-800.5" font-family="Helvetica,sans-Serif" font-size="10.00"> </text>
<polyline fill="none" stroke="#bfbfbf" points="377.933,-793.5 446.933,-793.5 "/>
<text text-anchor="middle" x="412.433" y="-781.5" font-family="Helvetica,sans-Serif" font-size="10.00"> </text>
</g>
<!-- Node8&#45;&gt;Node5 -->
<g id="edge8" class="edge"><title>Node8&#45;&gt;Node5</title>
<path fill="none" stroke="#404040" d="M406.165,-774.394C405.039,-768.363 404.033,-761.992 403.433,-756 402.11,-742.799 401.268,-728.921 400.769,-715.141"/>
<polygon fill="none" stroke="#404040" points="400.767,-715.071 396.593,-709.191 400.415,-703.076 404.589,-708.956 400.767,-715.071"/>
<text text-anchor="middle" x="422.933" y="-736.5" font-family="Helvetica,sans-Serif" font-size="10.00"> ~cbMes</text>
</g>
<!-- Node8&#45;&gt;Node1 -->
<g id="edge15" class="edge"><title>Node8&#45;&gt;Node1</title>
<path fill="none" stroke="#404040" d="M436.705,-774.109C451.308,-755.564 468.708,-729.929 477.433,-704 511.107,-603.927 512.374,-486.565 503.995,-389.27"/>
<polygon fill="none" stroke="#404040" points="503.985,-389.154 499.458,-383.541 502.898,-377.203 507.425,-382.816 503.985,-389.154"/>
<text text-anchor="middle" x="547.433" y="-606" font-family="Helvetica,sans-Serif" font-size="10.00"> &#45;paisCmb</text>
<text text-anchor="middle" x="547.433" y="-595" font-family="Helvetica,sans-Serif" font-size="10.00">&#45;nacionalidadCmb</text>
</g>
<!-- Node9 -->
<g id="node9" class="node"><title>Node9</title>
<polygon fill="white" stroke="#bfbfbf" points="600.433,-774.5 600.433,-831.5 644.433,-831.5 644.433,-774.5 600.433,-774.5"/>
<text text-anchor="middle" x="622.433" y="-819.5" font-family="Helvetica,sans-Serif" font-size="10.00">JLabel</text>
<polyline fill="none" stroke="#bfbfbf" points="600.433,-812.5 644.433,-812.5 "/>
<text text-anchor="middle" x="622.433" y="-800.5" font-family="Helvetica,sans-Serif" font-size="10.00"> </text>
<polyline fill="none" stroke="#bfbfbf" points="600.433,-793.5 644.433,-793.5 "/>
<text text-anchor="middle" x="622.433" y="-781.5" font-family="Helvetica,sans-Serif" font-size="10.00"> </text>
</g>
<!-- Node9&#45;&gt;Node5 -->
<g id="edge9" class="edge"><title>Node9&#45;&gt;Node5</title>
<path fill="none" stroke="#404040" d="M600.216,-785.431C589.75,-777.136 577.404,-766.615 567.433,-756 554.591,-742.329 557.737,-732.844 542.433,-722 520.064,-706.15 506.167,-719.322 483.433,-704 481.899,-702.966 480.379,-701.894 478.874,-700.788"/>
<polygon fill="none" stroke="#404040" points="478.543,-700.524 471.359,-699.9 469.171,-693.029 476.356,-693.652 478.543,-700.524"/>
<text text-anchor="middle" x="596.433" y="-747.5" font-family="Helvetica,sans-Serif" font-size="10.00"> ~lblAo</text>
<text text-anchor="middle" x="596.433" y="-736.5" font-family="Helvetica,sans-Serif" font-size="10.00">~lblMes</text>
<text text-anchor="middle" x="596.433" y="-725.5" font-family="Helvetica,sans-Serif" font-size="10.00">~lblNewLabel</text>
</g>
<!-- Node9&#45;&gt;Node1 -->
<g id="edge16" class="edge"><title>Node9&#45;&gt;Node1</title>
<path fill="none" stroke="#404040" d="M625.061,-774.199C626.119,-758.799 626.802,-739.319 625.433,-722 617.631,-623.3 615.988,-597.652 590.433,-502 577.983,-455.401 561.056,-406.137 543.878,-360.862"/>
<polygon fill="none" stroke="#404040" points="543.796,-360.649 537.916,-356.475 539.508,-349.441 545.388,-353.616 543.796,-360.649"/>
<text text-anchor="middle" x="641.933" y="-600.5" font-family="Helvetica,sans-Serif" font-size="10.00"> &#45;nssLbl</text>
</g>
<!-- Node10 -->
<g id="node10" class="node"><title>Node10</title>
<polygon fill="white" stroke="#bfbfbf" points="464.933,-774.5 464.933,-831.5 555.933,-831.5 555.933,-774.5 464.933,-774.5"/>
<text text-anchor="middle" x="510.433" y="-819.5" font-family="Helvetica,sans-Serif" font-size="10.00">Vector&lt; JLabel &gt;</text>
<polyline fill="none" stroke="#bfbfbf" points="464.933,-812.5 555.933,-812.5 "/>
<text text-anchor="middle" x="510.433" y="-800.5" font-family="Helvetica,sans-Serif" font-size="10.00"> </text>
<polyline fill="none" stroke="#bfbfbf" points="464.933,-793.5 555.933,-793.5 "/>
<text text-anchor="middle" x="510.433" y="-781.5" font-family="Helvetica,sans-Serif" font-size="10.00"> </text>
</g>
<!-- Node10&#45;&gt;Node5 -->
<g id="edge11" class="edge"><title>Node10&#45;&gt;Node5</title>
<path fill="none" stroke="#404040" d="M495.416,-774.469C486.56,-758.232 474.708,-736.504 462.437,-714.008"/>
<polygon fill="none" stroke="#404040" points="462.332,-713.816 455.948,-710.464 456.586,-703.281 462.971,-706.633 462.332,-713.816"/>
<text text-anchor="middle" x="511.433" y="-742" font-family="Helvetica,sans-Serif" font-size="10.00"> ~vLabelLet</text>
<text text-anchor="middle" x="511.433" y="-731" font-family="Helvetica,sans-Serif" font-size="10.00">~vLabelNum</text>
</g>
<!-- Node11 -->
<g id="node11" class="node"><title>Node11</title>
<polygon fill="white" stroke="#bfbfbf" points="682.433,-574.5 682.433,-631.5 742.433,-631.5 742.433,-574.5 682.433,-574.5"/>
<text text-anchor="middle" x="712.433" y="-619.5" font-family="Helvetica,sans-Serif" font-size="10.00">JTextArea</text>
<polyline fill="none" stroke="#bfbfbf" points="682.433,-612.5 742.433,-612.5 "/>
<text text-anchor="middle" x="712.433" y="-600.5" font-family="Helvetica,sans-Serif" font-size="10.00"> </text>
<polyline fill="none" stroke="#bfbfbf" points="682.433,-593.5 742.433,-593.5 "/>
<text text-anchor="middle" x="712.433" y="-581.5" font-family="Helvetica,sans-Serif" font-size="10.00"> </text>
</g>
<!-- Node11&#45;&gt;Node1 -->
<g id="edge12" class="edge"><title>Node11&#45;&gt;Node1</title>
<path fill="none" stroke="#404040" d="M706.632,-574.324C697.319,-533.466 676.635,-455.434 643.433,-396 617.668,-349.879 580.983,-304.2 548.106,-267.62"/>
<polygon fill="none" stroke="#404040" points="547.908,-267.402 540.913,-265.652 539.838,-258.521 546.834,-260.272 547.908,-267.402"/>
<text text-anchor="middle" x="707.933" y="-437.5" font-family="Helvetica,sans-Serif" font-size="10.00"> &#45;direccTxtA</text>
</g>
<!-- Node12 -->
<g id="node12" class="node"><title>Node12</title>
<polygon fill="white" stroke="#bfbfbf" points="760.933,-574.5 760.933,-631.5 821.933,-631.5 821.933,-574.5 760.933,-574.5"/>
<text text-anchor="middle" x="791.433" y="-619.5" font-family="Helvetica,sans-Serif" font-size="10.00">JTextField</text>
<polyline fill="none" stroke="#bfbfbf" points="760.933,-612.5 821.933,-612.5 "/>
<text text-anchor="middle" x="791.433" y="-600.5" font-family="Helvetica,sans-Serif" font-size="10.00"> </text>
<polyline fill="none" stroke="#bfbfbf" points="760.933,-593.5 821.933,-593.5 "/>
<text text-anchor="middle" x="791.433" y="-581.5" font-family="Helvetica,sans-Serif" font-size="10.00"> </text>
</g>
<!-- Node12&#45;&gt;Node1 -->
<g id="edge13" class="edge"><title>Node12&#45;&gt;Node1</title>
<path fill="none" stroke="#404040" d="M789.979,-574.38C786.604,-532.562 775.419,-452.118 738.433,-396 691.246,-324.405 610.662,-267.306 550.338,-231.549"/>
<polygon fill="none" stroke="#404040" points="550.067,-231.391 542.868,-231.821 539.703,-225.341 546.902,-224.912 550.067,-231.391"/>
<text text-anchor="middle" x="803.433" y="-476" font-family="Helvetica,sans-Serif" font-size="10.00"> &#45;apellido2Txt</text>
<text text-anchor="middle" x="803.433" y="-465" font-family="Helvetica,sans-Serif" font-size="10.00">&#45;nombreTxt</text>
<text text-anchor="middle" x="803.433" y="-454" font-family="Helvetica,sans-Serif" font-size="10.00">&#45;ccTxt</text>
<text text-anchor="middle" x="803.433" y="-443" font-family="Helvetica,sans-Serif" font-size="10.00">&#45;apellido1Txt</text>
<text text-anchor="middle" x="803.433" y="-432" font-family="Helvetica,sans-Serif" font-size="10.00">&#45;dniTxt</text>
<text text-anchor="middle" x="803.433" y="-421" font-family="Helvetica,sans-Serif" font-size="10.00">&#45;nssTxt</text>
<text text-anchor="middle" x="803.433" y="-410" font-family="Helvetica,sans-Serif" font-size="10.00">&#45;poblacionTxt</text>
<text text-anchor="middle" x="803.433" y="-399" font-family="Helvetica,sans-Serif" font-size="10.00">&#45;telefonoTxt</text>
</g>
<!-- Node13 -->
<g id="node13" class="node"><title>Node13</title>
<polygon fill="white" stroke="#bfbfbf" points="854.433,-574.5 854.433,-631.5 886.433,-631.5 886.433,-574.5 854.433,-574.5"/>
<text text-anchor="middle" x="870.433" y="-619.5" font-family="Helvetica,sans-Serif" font-size="10.00">File</text>
<polyline fill="none" stroke="#bfbfbf" points="854.433,-612.5 886.433,-612.5 "/>
<text text-anchor="middle" x="870.433" y="-600.5" font-family="Helvetica,sans-Serif" font-size="10.00"> </text>
<polyline fill="none" stroke="#bfbfbf" points="854.433,-593.5 886.433,-593.5 "/>
<text text-anchor="middle" x="870.433" y="-581.5" font-family="Helvetica,sans-Serif" font-size="10.00"> </text>
</g>
<!-- Node13&#45;&gt;Node1 -->
<g id="edge14" class="edge"><title>Node13&#45;&gt;Node1</title>
<path fill="none" stroke="#404040" d="M873.009,-574.214C875.481,-531.821 874.344,-450.211 836.433,-396 767.731,-297.76 636.285,-240.648 551.309,-212.415"/>
<polygon fill="none" stroke="#404040" points="551.05,-212.331 544.107,-214.281 539.638,-208.622 546.58,-206.672 551.05,-212.331"/>
<text text-anchor="middle" x="883.933" y="-437.5" font-family="Helvetica,sans-Serif" font-size="10.00"> #temp</text>
</g>
</g>
</svg>
