<?xml version="1.0" encoding="UTF-8" standalone="no"?>
<!DOCTYPE svg PUBLIC "-//W3C//DTD SVG 1.1//EN"
 "http://www.w3.org/Graphics/SVG/1.1/DTD/svg11.dtd">
<!-- Generated by graphviz version 2.30.1 (20130214.1330)
 -->
<!-- Title: gestorempleados.control.RestriccionesCeldas Pages: 1 -->
<svg width="235pt" height="438pt"
 viewBox="0.00 0.00 235.00 438.00" xmlns="http://www.w3.org/2000/svg" xmlns:xlink="http://www.w3.org/1999/xlink">
<g id="graph0" class="graph" transform="scale(1 1) rotate(0) translate(4 434)">
<title>gestorempleados.control.RestriccionesCeldas</title>
<polygon fill="white" stroke="white" points="-4,5 -4,-434 232,-434 232,5 -4,5"/>
<!-- Node1 -->
<g id="node1" class="node"><title>Node1</title>
<polygon fill="#bfbfbf" stroke="black" points="39,-1 39,-201 165,-201 165,-1 39,-1"/>
<text text-anchor="start" x="47" y="-189" font-family="Helvetica,sans-Serif" font-size="10.00">gestorempleados.control.</text>
<text text-anchor="middle" x="102" y="-178" font-family="Helvetica,sans-Serif" font-size="10.00">RestriccionesCeldas</text>
<polyline fill="none" stroke="black" points="39,-171 165,-171 "/>
<text text-anchor="start" x="47" y="-159" font-family="Helvetica,sans-Serif" font-size="10.00">+ currentRESTRIC</text>
<text text-anchor="start" x="47" y="-148" font-family="Helvetica,sans-Serif" font-size="10.00">+ NOMBRE</text>
<text text-anchor="start" x="47" y="-137" font-family="Helvetica,sans-Serif" font-size="10.00">+ APELLIDO1</text>
<text text-anchor="start" x="47" y="-126" font-family="Helvetica,sans-Serif" font-size="10.00">+ APELLIDO2</text>
<text text-anchor="start" x="47" y="-115" font-family="Helvetica,sans-Serif" font-size="10.00">+ DIRECCION</text>
<text text-anchor="start" x="47" y="-104" font-family="Helvetica,sans-Serif" font-size="10.00">+ POBLACION</text>
<text text-anchor="start" x="47" y="-93" font-family="Helvetica,sans-Serif" font-size="10.00">+ TELEFONO</text>
<text text-anchor="start" x="47" y="-82" font-family="Helvetica,sans-Serif" font-size="10.00">+ TITULACION</text>
<text text-anchor="start" x="47" y="-71" font-family="Helvetica,sans-Serif" font-size="10.00">+ NSS</text>
<text text-anchor="start" x="47" y="-60" font-family="Helvetica,sans-Serif" font-size="10.00">+ EXPE</text>
<text text-anchor="start" x="47" y="-49" font-family="Helvetica,sans-Serif" font-size="10.00">+ CC</text>
<text text-anchor="start" x="47" y="-38" font-family="Helvetica,sans-Serif" font-size="10.00">+ DNI</text>
<polyline fill="none" stroke="black" points="39,-31 165,-31 "/>
<text text-anchor="start" x="47" y="-19" font-family="Helvetica,sans-Serif" font-size="10.00">+ RestriccionesCeldas()</text>
<text text-anchor="start" x="47" y="-8" font-family="Helvetica,sans-Serif" font-size="10.00">+ insertString()</text>
</g>
<!-- Node2 -->
<g id="node2" class="node"><title>Node2</title>
<polygon fill="white" stroke="#bfbfbf" points="-0.5,-311.5 -0.5,-368.5 82.5,-368.5 82.5,-311.5 -0.5,-311.5"/>
<text text-anchor="middle" x="41" y="-356.5" font-family="Helvetica,sans-Serif" font-size="10.00">PlainDocument</text>
<polyline fill="none" stroke="#bfbfbf" points="-0.5,-349.5 82.5,-349.5 "/>
<text text-anchor="middle" x="41" y="-337.5" font-family="Helvetica,sans-Serif" font-size="10.00"> </text>
<polyline fill="none" stroke="#bfbfbf" points="-0.5,-330.5 82.5,-330.5 "/>
<text text-anchor="middle" x="41" y="-318.5" font-family="Helvetica,sans-Serif" font-size="10.00"> </text>
</g>
<!-- Node2&#45;&gt;Node1 -->
<g id="edge1" class="edge"><title>Node2&#45;&gt;Node1</title>
<path fill="none" stroke="midnightblue" d="M50.644,-301.531C57.6123,-274.457 67.3681,-236.553 76.5072,-201.046"/>
<polygon fill="none" stroke="midnightblue" points="47.22,-300.792 48.1169,-311.349 53.9991,-302.537 47.22,-300.792"/>
</g>
<!-- Node3 -->
<g id="node3" class="node"><title>Node3</title>
<g id="a_node3"><a xlink:href="enumgestorempleados_1_1control_1_1_restricciones_celdas_1_1tipo.xhtml" target="_top" xlink:title="{gestorempleados.control.\lRestriccionesCeldas.tipo\n|+ NOMBRE\l+ APELLIDO1\l+ APELLIDO2\l+ DIRECCION\l+ POBLACION\l+ TELEFONO\l+ TITULACION\l+ NSS\l+ DNI\l+ EXPE\l+ CC\l|}">
<polygon fill="white" stroke="black" points="101,-251 101,-429 227,-429 227,-251 101,-251"/>
<text text-anchor="start" x="109" y="-417" font-family="Helvetica,sans-Serif" font-size="10.00">gestorempleados.control.</text>
<text text-anchor="middle" x="164" y="-406" font-family="Helvetica,sans-Serif" font-size="10.00">RestriccionesCeldas.tipo</text>
<polyline fill="none" stroke="black" points="101,-399 227,-399 "/>
<text text-anchor="start" x="109" y="-387" font-family="Helvetica,sans-Serif" font-size="10.00">+ NOMBRE</text>
<text text-anchor="start" x="109" y="-376" font-family="Helvetica,sans-Serif" font-size="10.00">+ APELLIDO1</text>
<text text-anchor="start" x="109" y="-365" font-family="Helvetica,sans-Serif" font-size="10.00">+ APELLIDO2</text>
<text text-anchor="start" x="109" y="-354" font-family="Helvetica,sans-Serif" font-size="10.00">+ DIRECCION</text>
<text text-anchor="start" x="109" y="-343" font-family="Helvetica,sans-Serif" font-size="10.00">+ POBLACION</text>
<text text-anchor="start" x="109" y="-332" font-family="Helvetica,sans-Serif" font-size="10.00">+ TELEFONO</text>
<text text-anchor="start" x="109" y="-321" font-family="Helvetica,sans-Serif" font-size="10.00">+ TITULACION</text>
<text text-anchor="start" x="109" y="-310" font-family="Helvetica,sans-Serif" font-size="10.00">+ NSS</text>
<text text-anchor="start" x="109" y="-299" font-family="Helvetica,sans-Serif" font-size="10.00">+ DNI</text>
<text text-anchor="start" x="109" y="-288" font-family="Helvetica,sans-Serif" font-size="10.00">+ EXPE</text>
<text text-anchor="start" x="109" y="-277" font-family="Helvetica,sans-Serif" font-size="10.00">+ CC</text>
<polyline fill="none" stroke="black" points="101,-270 227,-270 "/>
<text text-anchor="middle" x="164" y="-258" font-family="Helvetica,sans-Serif" font-size="10.00"> </text>
</a>
</g>
</g>
<!-- Node3&#45;&gt;Node1 -->
<g id="edge2" class="edge"><title>Node3&#45;&gt;Node1</title>
<path fill="none" stroke="#404040" d="M140.913,-250.75C137.671,-238.356 134.305,-225.49 130.971,-212.743"/>
<polygon fill="none" stroke="#404040" points="130.959,-212.697 125.571,-207.905 127.922,-201.088 133.31,-205.88 130.959,-212.697"/>
<text text-anchor="middle" x="152.5" y="-223.5" font-family="Helvetica,sans-Serif" font-size="10.00"> +TYPE</text>
</g>
</g>
</svg>
