<?xml version="1.0" encoding="UTF-8" standalone="no"?>
<!DOCTYPE svg PUBLIC "-//W3C//DTD SVG 1.1//EN"
 "http://www.w3.org/Graphics/SVG/1.1/DTD/svg11.dtd">
<!-- Generated by graphviz version 2.30.1 (20130214.1330)
 -->
<!-- Title: gestorempleados.interficie.Panel_Contrato.Panel_Contrato Pages: 1 -->
<svg width="700pt" height="111pt"
 viewBox="0.00 0.00 700.00 111.00" xmlns="http://www.w3.org/2000/svg" xmlns:xlink="http://www.w3.org/1999/xlink">
<g id="graph0" class="graph" transform="scale(1 1) rotate(0) translate(4 107)">
<title>gestorempleados.interficie.Panel_Contrato.Panel_Contrato</title>
<polygon fill="white" stroke="white" points="-4,5 -4,-107 697,-107 697,5 -4,5"/>
<!-- Node1 -->
<g id="node1" class="node"><title>Node1</title>
<polygon fill="#bfbfbf" stroke="black" points="0.5,-48 0.5,-78 153.5,-78 153.5,-48 0.5,-48"/>
<text text-anchor="start" x="8.5" y="-66" font-family="Helvetica,sans-Serif" font-size="10.00">gestorempleados.interficie.</text>
<text text-anchor="middle" x="77" y="-55" font-family="Helvetica,sans-Serif" font-size="10.00">Panel_Contrato.Panel_Contrato</text>
</g>
<!-- Node2 -->
<g id="node2" class="node"><title>Node2</title>
<g id="a_node2"><a xlink:href="classgestorempleados_1_1control_1_1_negocio_cliente.xhtml#af4450308afb9d29f665e8bd22d221770" target="_top" xlink:title="gestorempleados.control.\lNegocioCliente.getinstance">
<polygon fill="white" stroke="black" points="204.5,-73 204.5,-103 339.5,-103 339.5,-73 204.5,-73"/>
<text text-anchor="start" x="212.5" y="-91" font-family="Helvetica,sans-Serif" font-size="10.00">gestorempleados.control.</text>
<text text-anchor="middle" x="272" y="-80" font-family="Helvetica,sans-Serif" font-size="10.00">NegocioCliente.getinstance</text>
</a>
</g>
</g>
<!-- Node1&#45;&gt;Node2 -->
<g id="edge1" class="edge"><title>Node1&#45;&gt;Node2</title>
<path fill="none" stroke="midnightblue" d="M153.725,-72.8089C167.021,-74.5312 180.87,-76.3251 194.195,-78.0512"/>
<polygon fill="midnightblue" stroke="midnightblue" points="193.899,-81.542 204.266,-79.3557 194.798,-74.6 193.899,-81.542"/>
</g>
<!-- Node3 -->
<g id="node3" class="node"><title>Node3</title>
<g id="a_node3"><a xlink:href="classgestorempleados_1_1control_1_1_negocio_cliente.xhtml#a7db8dd511522eb990fd2e964e9bc5263" target="_top" xlink:title="gestorempleados.control.\lNegocioCliente.getDepartamentos">
<polygon fill="white" stroke="black" points="190,-24 190,-54 354,-54 354,-24 190,-24"/>
<text text-anchor="start" x="198" y="-42" font-family="Helvetica,sans-Serif" font-size="10.00">gestorempleados.control.</text>
<text text-anchor="middle" x="272" y="-31" font-family="Helvetica,sans-Serif" font-size="10.00">NegocioCliente.getDepartamentos</text>
</a>
</g>
</g>
<!-- Node1&#45;&gt;Node3 -->
<g id="edge2" class="edge"><title>Node1&#45;&gt;Node3</title>
<path fill="none" stroke="midnightblue" d="M153.725,-53.5834C162.226,-52.5263 170.953,-51.4411 179.625,-50.3627"/>
<polygon fill="midnightblue" stroke="midnightblue" points="180.271,-53.8094 189.762,-49.1021 179.407,-46.8629 180.271,-53.8094"/>
</g>
<!-- Node4 -->
<g id="node4" class="node"><title>Node4</title>
<g id="a_node4"><a xlink:href="classgestorempleados_1_1conector_1_1_conector_cliente.xhtml#a830dba55e91b371279078945cf0b84c5" target="_top" xlink:title="gestorempleados.conector.\lConectorCliente.sendPacket">
<polygon fill="white" stroke="black" points="390,-49 390,-79 530,-79 530,-49 390,-49"/>
<text text-anchor="start" x="398" y="-67" font-family="Helvetica,sans-Serif" font-size="10.00">gestorempleados.conector.</text>
<text text-anchor="middle" x="460" y="-56" font-family="Helvetica,sans-Serif" font-size="10.00">ConectorCliente.sendPacket</text>
</a>
</g>
</g>
<!-- Node3&#45;&gt;Node4 -->
<g id="edge3" class="edge"><title>Node3&#45;&gt;Node4</title>
<path fill="none" stroke="midnightblue" d="M354.041,-49.8926C362.626,-51.0464 371.348,-52.2188 379.91,-53.3696"/>
<polygon fill="midnightblue" stroke="midnightblue" points="379.491,-56.8447 389.869,-54.7081 380.424,-49.9071 379.491,-56.8447"/>
</g>
<!-- Node7 -->
<g id="node7" class="node"><title>Node7</title>
<g id="a_node7"><a xlink:href="classgestorempleados_1_1conector_1_1_packet.xhtml#a1c66a08626625f4771d9df33efc2ca2f" target="_top" xlink:title="gestorempleados.conector.\lPacket.getDepartamentos">
<polygon fill="white" stroke="black" points="393,-0 393,-30 527,-30 527,-0 393,-0"/>
<text text-anchor="start" x="401" y="-18" font-family="Helvetica,sans-Serif" font-size="10.00">gestorempleados.conector.</text>
<text text-anchor="middle" x="460" y="-7" font-family="Helvetica,sans-Serif" font-size="10.00">Packet.getDepartamentos</text>
</a>
</g>
</g>
<!-- Node3&#45;&gt;Node7 -->
<g id="edge6" class="edge"><title>Node3&#45;&gt;Node7</title>
<path fill="none" stroke="midnightblue" d="M354.041,-28.5431C363.531,-27.3186 373.19,-26.0723 382.613,-24.8563"/>
<polygon fill="midnightblue" stroke="midnightblue" points="383.258,-28.3023 392.728,-23.5513 382.362,-21.3599 383.258,-28.3023"/>
</g>
<!-- Node5 -->
<g id="node5" class="node"><title>Node5</title>
<g id="a_node5"><a xlink:href="classgestorempleados_1_1control_1_1_preferencias.xhtml#a8cb4ef0c12fd91286f0f3a63c48d40b0" target="_top" xlink:title="gestorempleados.control.\lPreferencias.getHost">
<polygon fill="white" stroke="black" points="566,-73 566,-103 692,-103 692,-73 566,-73"/>
<text text-anchor="start" x="574" y="-91" font-family="Helvetica,sans-Serif" font-size="10.00">gestorempleados.control.</text>
<text text-anchor="middle" x="629" y="-80" font-family="Helvetica,sans-Serif" font-size="10.00">Preferencias.getHost</text>
</a>
</g>
</g>
<!-- Node4&#45;&gt;Node5 -->
<g id="edge4" class="edge"><title>Node4&#45;&gt;Node5</title>
<path fill="none" stroke="midnightblue" d="M530.372,-73.9697C538.718,-75.1691 547.258,-76.3964 555.646,-77.6018"/>
<polygon fill="midnightblue" stroke="midnightblue" points="555.381,-81.0996 565.777,-79.0578 556.377,-74.1708 555.381,-81.0996"/>
</g>
<!-- Node6 -->
<g id="node6" class="node"><title>Node6</title>
<g id="a_node6"><a xlink:href="classgestorempleados_1_1control_1_1_preferencias.xhtml#ae64b723a46d579f7646e75aa453ed3c8" target="_top" xlink:title="gestorempleados.control.\lPreferencias.getPort">
<polygon fill="white" stroke="black" points="566,-24 566,-54 692,-54 692,-24 566,-24"/>
<text text-anchor="start" x="574" y="-42" font-family="Helvetica,sans-Serif" font-size="10.00">gestorempleados.control.</text>
<text text-anchor="middle" x="629" y="-31" font-family="Helvetica,sans-Serif" font-size="10.00">Preferencias.getPort</text>
</a>
</g>
</g>
<!-- Node4&#45;&gt;Node6 -->
<g id="edge5" class="edge"><title>Node4&#45;&gt;Node6</title>
<path fill="none" stroke="midnightblue" d="M530.372,-53.6149C538.718,-52.3655 547.258,-51.0871 555.646,-49.8315"/>
<polygon fill="midnightblue" stroke="midnightblue" points="556.406,-53.2568 565.777,-48.3148 555.369,-46.3339 556.406,-53.2568"/>
</g>
</g>
</svg>
