<?xml version="1.0" encoding="UTF-8" standalone="no"?>
<!DOCTYPE svg PUBLIC "-//W3C//DTD SVG 1.1//EN"
 "http://www.w3.org/Graphics/SVG/1.1/DTD/svg11.dtd">
<!-- Generated by graphviz version 2.30.1 (20130214.1330)
 -->
<!-- Title: gestorempleados.interficie.Panel_Contrato.setModalidad Pages: 1 -->
<svg width="564pt" height="87pt"
 viewBox="0.00 0.00 564.00 87.00" xmlns="http://www.w3.org/2000/svg" xmlns:xlink="http://www.w3.org/1999/xlink">
<g id="graph0" class="graph" transform="scale(1 1) rotate(0) translate(4 83)">
<title>gestorempleados.interficie.Panel_Contrato.setModalidad</title>
<polygon fill="white" stroke="white" points="-4,5 -4,-83 561,-83 561,5 -4,5"/>
<!-- Node1 -->
<g id="node1" class="node"><title>Node1</title>
<polygon fill="#bfbfbf" stroke="black" points="0,-24 0,-54 144,-54 144,-24 0,-24"/>
<text text-anchor="start" x="8" y="-42" font-family="Helvetica,sans-Serif" font-size="10.00">gestorempleados.interficie.</text>
<text text-anchor="middle" x="72" y="-31" font-family="Helvetica,sans-Serif" font-size="10.00">Panel_Contrato.setModalidad</text>
</g>
<!-- Node2 -->
<g id="node2" class="node"><title>Node2</title>
<g id="a_node2"><a xlink:href="classgestorempleados_1_1control_1_1_negocio_cliente.xhtml#a548fdf8f4ed9d73843e7106774535615" target="_top" xlink:title="gestorempleados.control.\lNegocioCliente.showContratoEmpleado">
<polygon fill="white" stroke="black" points="180,-24 180,-54 368,-54 368,-24 180,-24"/>
<text text-anchor="start" x="188" y="-42" font-family="Helvetica,sans-Serif" font-size="10.00">gestorempleados.control.</text>
<text text-anchor="middle" x="274" y="-31" font-family="Helvetica,sans-Serif" font-size="10.00">NegocioCliente.showContratoEmpleado</text>
</a>
</g>
</g>
<!-- Node1&#45;&gt;Node2 -->
<g id="edge1" class="edge"><title>Node1&#45;&gt;Node2</title>
<path fill="none" stroke="midnightblue" d="M154.229,-39C162.641,-39 171.238,-39 179.768,-39"/>
<polygon fill="midnightblue" stroke="midnightblue" points="154.076,-35.5001 144.076,-39 154.076,-42.5001 154.076,-35.5001"/>
</g>
<!-- Node3 -->
<g id="node3" class="node"><title>Node3</title>
<g id="a_node3"><a xlink:href="classplugins_1_1_panel___busqueda.xhtml#a8d47495fc4538acdfbc2f27cddffce0d" target="_top" xlink:title="plugins.Panel_Busqueda.crear\lPanel">
<polygon fill="white" stroke="black" points="405.5,-49 405.5,-79 554.5,-79 554.5,-49 405.5,-49"/>
<text text-anchor="start" x="413.5" y="-67" font-family="Helvetica,sans-Serif" font-size="10.00">plugins.Panel_Busqueda.crear</text>
<text text-anchor="middle" x="480" y="-56" font-family="Helvetica,sans-Serif" font-size="10.00">Panel</text>
</a>
</g>
</g>
<!-- Node2&#45;&gt;Node3 -->
<g id="edge2" class="edge"><title>Node2&#45;&gt;Node3</title>
<path fill="none" stroke="midnightblue" d="M378.034,-51.6268C387.249,-52.756 396.452,-53.8839 405.343,-54.9735"/>
<polygon fill="midnightblue" stroke="midnightblue" points="378.397,-48.1451 368.045,-50.4026 377.545,-55.0931 378.397,-48.1451"/>
</g>
<!-- Node4 -->
<g id="node4" class="node"><title>Node4</title>
<g id="a_node4"><a xlink:href="classplugins_1_1_panel___consultas.xhtml#ad1596ee5ed80b3214b8374f3f0a97ef6" target="_top" xlink:title="plugins.Panel_Consultas.editar\lContratosEmpleado">
<polygon fill="white" stroke="black" points="404.5,-0 404.5,-30 555.5,-30 555.5,-0 404.5,-0"/>
<text text-anchor="start" x="412.5" y="-18" font-family="Helvetica,sans-Serif" font-size="10.00">plugins.Panel_Consultas.editar</text>
<text text-anchor="middle" x="480" y="-7" font-family="Helvetica,sans-Serif" font-size="10.00">ContratosEmpleado</text>
</a>
</g>
</g>
<!-- Node2&#45;&gt;Node4 -->
<g id="edge3" class="edge"><title>Node2&#45;&gt;Node4</title>
<path fill="none" stroke="midnightblue" d="M378.069,-26.8742C386.956,-25.8287 395.832,-24.7845 404.427,-23.7733"/>
<polygon fill="midnightblue" stroke="midnightblue" points="377.568,-23.409 368.045,-28.0535 378.386,-30.361 377.568,-23.409"/>
</g>
</g>
</svg>
