<?xml version="1.0" encoding="UTF-8" standalone="no"?>
<!DOCTYPE svg PUBLIC "-//W3C//DTD SVG 1.1//EN"
 "http://www.w3.org/Graphics/SVG/1.1/DTD/svg11.dtd">
<!-- Generated by graphviz version 2.30.1 (20130214.1330)
 -->
<!-- Title: gestorempleados.interficie.Panel_Curriculo Pages: 1 -->
<svg width="167pt" height="326pt"
 viewBox="0.00 0.00 167.00 326.00" xmlns="http://www.w3.org/2000/svg" xmlns:xlink="http://www.w3.org/1999/xlink">
<g id="graph0" class="graph" transform="scale(1 1) rotate(0) translate(4 322)">
<title>gestorempleados.interficie.Panel_Curriculo</title>
<polygon fill="white" stroke="white" points="-4,5 -4,-322 164,-322 164,5 -4,5"/>
<!-- Node1 -->
<g id="node1" class="node"><title>Node1</title>
<polygon fill="#bfbfbf" stroke="black" points="0.5,-1 0.5,-223 133.5,-223 133.5,-1 0.5,-1"/>
<text text-anchor="start" x="8.5" y="-211" font-family="Helvetica,sans-Serif" font-size="10.00">gestorempleados.interficie.</text>
<text text-anchor="middle" x="67" y="-200" font-family="Helvetica,sans-Serif" font-size="10.00">Panel_Curriculo</text>
<polyline fill="none" stroke="black" points="0.5,-193 133.5,-193 "/>
<text text-anchor="start" x="8.5" y="-181" font-family="Helvetica,sans-Serif" font-size="10.00">&#45; titulacionPanel</text>
<text text-anchor="start" x="8.5" y="-170" font-family="Helvetica,sans-Serif" font-size="10.00">&#45; titulacionTxt</text>
<text text-anchor="start" x="8.5" y="-159" font-family="Helvetica,sans-Serif" font-size="10.00">&#45; idiomasPanel</text>
<text text-anchor="start" x="8.5" y="-148" font-family="Helvetica,sans-Serif" font-size="10.00">&#45; idiomasList</text>
<text text-anchor="start" x="8.5" y="-137" font-family="Helvetica,sans-Serif" font-size="10.00">&#45; experienciaPanel</text>
<text text-anchor="start" x="8.5" y="-126" font-family="Helvetica,sans-Serif" font-size="10.00">&#45; textArea</text>
<polyline fill="none" stroke="black" points="0.5,-119 133.5,-119 "/>
<text text-anchor="start" x="8.5" y="-107" font-family="Helvetica,sans-Serif" font-size="10.00">+ Panel_Curriculo()</text>
<text text-anchor="start" x="8.5" y="-96" font-family="Helvetica,sans-Serif" font-size="10.00">+ getTitulacion()</text>
<text text-anchor="start" x="8.5" y="-85" font-family="Helvetica,sans-Serif" font-size="10.00">+ setTitulacion()</text>
<text text-anchor="start" x="8.5" y="-74" font-family="Helvetica,sans-Serif" font-size="10.00">+ getIdiomas()</text>
<text text-anchor="start" x="8.5" y="-63" font-family="Helvetica,sans-Serif" font-size="10.00">+ setIdiomas()</text>
<text text-anchor="start" x="8.5" y="-52" font-family="Helvetica,sans-Serif" font-size="10.00">+ getExperiencia()</text>
<text text-anchor="start" x="8.5" y="-41" font-family="Helvetica,sans-Serif" font-size="10.00">+ setExperiencia()</text>
<text text-anchor="start" x="8.5" y="-30" font-family="Helvetica,sans-Serif" font-size="10.00">+ changedUpdate()</text>
<text text-anchor="start" x="8.5" y="-19" font-family="Helvetica,sans-Serif" font-size="10.00">+ insertUpdate()</text>
<text text-anchor="start" x="8.5" y="-8" font-family="Helvetica,sans-Serif" font-size="10.00">+ removeUpdate()</text>
</g>
<!-- Node2 -->
<g id="node2" class="node"><title>Node2</title>
<polygon fill="white" stroke="#bfbfbf" points="0,-260.5 0,-317.5 46,-317.5 46,-260.5 0,-260.5"/>
<text text-anchor="middle" x="23" y="-305.5" font-family="Helvetica,sans-Serif" font-size="10.00">JPanel</text>
<polyline fill="none" stroke="#bfbfbf" points="0,-298.5 46,-298.5 "/>
<text text-anchor="middle" x="23" y="-286.5" font-family="Helvetica,sans-Serif" font-size="10.00"> </text>
<polyline fill="none" stroke="#bfbfbf" points="0,-279.5 46,-279.5 "/>
<text text-anchor="middle" x="23" y="-267.5" font-family="Helvetica,sans-Serif" font-size="10.00"> </text>
</g>
<!-- Node2&#45;&gt;Node1 -->
<g id="edge1" class="edge"><title>Node2&#45;&gt;Node1</title>
<path fill="none" stroke="midnightblue" d="M32.4159,-250.55C34.521,-242.178 36.8576,-232.884 39.2946,-223.192"/>
<polygon fill="none" stroke="midnightblue" points="29.016,-249.719 29.9719,-260.271 35.8048,-251.426 29.016,-249.719"/>
</g>
<!-- Node3 -->
<g id="node3" class="node"><title>Node3</title>
<polygon fill="white" stroke="#bfbfbf" points="64.5,-260.5 64.5,-317.5 159.5,-317.5 159.5,-260.5 64.5,-260.5"/>
<text text-anchor="middle" x="112" y="-305.5" font-family="Helvetica,sans-Serif" font-size="10.00">DocumentListener</text>
<polyline fill="none" stroke="#bfbfbf" points="64.5,-298.5 159.5,-298.5 "/>
<text text-anchor="middle" x="112" y="-286.5" font-family="Helvetica,sans-Serif" font-size="10.00"> </text>
<polyline fill="none" stroke="#bfbfbf" points="64.5,-279.5 159.5,-279.5 "/>
<text text-anchor="middle" x="112" y="-267.5" font-family="Helvetica,sans-Serif" font-size="10.00"> </text>
</g>
<!-- Node3&#45;&gt;Node1 -->
<g id="edge2" class="edge"><title>Node3&#45;&gt;Node1</title>
<path fill="none" stroke="midnightblue" d="M102.37,-250.55C100.217,-242.178 97.8274,-232.884 95.3351,-223.192"/>
<polygon fill="none" stroke="midnightblue" points="98.9894,-251.457 104.87,-260.271 105.769,-249.714 98.9894,-251.457"/>
</g>
</g>
</svg>
