<?xml version="1.0" encoding="UTF-8" standalone="no"?>
<!DOCTYPE svg PUBLIC "-//W3C//DTD SVG 1.1//EN"
 "http://www.w3.org/Graphics/SVG/1.1/DTD/svg11.dtd">
<!-- Generated by graphviz version 2.30.1 (20130214.1330)
 -->
<!-- Title: GestorEmpleadosCliente/src Pages: 1 -->
<svg width="292pt" height="111pt"
 viewBox="0.00 0.00 292.00 111.00" xmlns="http://www.w3.org/2000/svg" xmlns:xlink="http://www.w3.org/1999/xlink">
<g id="graph0" class="graph" transform="scale(1 1) rotate(0) translate(4 107)">
<title>GestorEmpleadosCliente/src</title>
<polygon fill="white" stroke="white" points="-4,5 -4,-107 289,-107 289,5 -4,5"/>
<g id="clust1" class="cluster"><title>clusterdir_b22b8347cd64abac5540c2e6cb2973ed</title>
<g id="a_clust1"><a xlink:href="dir_b22b8347cd64abac5540c2e6cb2973ed.xhtml" target="_top" xlink:title="GestorEmpleadosCliente">
<polygon fill="#ddddee" stroke="black" points="8,-8 8,-95 276,-95 276,-8 8,-8"/>
<text text-anchor="middle" x="142" y="-83" font-family="Helvetica,sans-Serif" font-size="10.00">GestorEmpleadosCliente</text>
</a>
</g>
</g>
<g id="clust2" class="cluster"><title>clusterdir_c89272ed4a64c9d73e3ef7855fa34e70</title>
<g id="a_clust2"><a xlink:href="dir_c89272ed4a64c9d73e3ef7855fa34e70.xhtml" target="_top">
<polygon fill="#eeeeff" stroke="black" points="16,-16 16,-68 268,-68 268,-16 16,-16"/>
</a>
</g>
</g>
<!-- dir_c89272ed4a64c9d73e3ef7855fa34e70 -->
<g id="node1" class="node"><title>dir_c89272ed4a64c9d73e3ef7855fa34e70</title>
<text text-anchor="middle" x="233" y="-39.5" font-family="Helvetica,sans-Serif" font-size="10.00">src</text>
</g>
<!-- dir_692cf041cd68a6a957d1aa318875def7 -->
<g id="node2" class="node"><title>dir_692cf041cd68a6a957d1aa318875def7</title>
<g id="a_node2"><a xlink:href="dir_692cf041cd68a6a957d1aa318875def7.xhtml" target="_top" xlink:title="gestorempleados">
<polygon fill="white" stroke="red" points="187.25,-60 96.75,-60 96.75,-24 187.25,-24 187.25,-60"/>
<text text-anchor="middle" x="142" y="-39.5" font-family="Helvetica,sans-Serif" font-size="10.00">gestorempleados</text>
</a>
</g>
</g>
<!-- dir_d304a0bd1acbd367d76133f121694974 -->
<g id="node3" class="node"><title>dir_d304a0bd1acbd367d76133f121694974</title>
<g id="a_node3"><a xlink:href="dir_d304a0bd1acbd367d76133f121694974.xhtml" target="_top" xlink:title="plugins">
<polygon fill="white" stroke="black" points="78,-60 24,-60 24,-24 78,-24 78,-60"/>
<text text-anchor="middle" x="51" y="-39.5" font-family="Helvetica,sans-Serif" font-size="10.00">plugins</text>
</a>
</g>
</g>
</g>
</svg>
