<?xml version="1.0" encoding="UTF-8" standalone="no"?>
<!DOCTYPE svg PUBLIC "-//W3C//DTD SVG 1.1//EN"
 "http://www.w3.org/Graphics/SVG/1.1/DTD/svg11.dtd">
<!-- Generated by graphviz version 2.30.1 (20130214.1330)
 -->
<!-- Title: GestorEmpleadosCliente/src/gestorempleados Pages: 1 -->
<svg width="452pt" height="111pt"
 viewBox="0.00 0.00 452.00 111.00" xmlns="http://www.w3.org/2000/svg" xmlns:xlink="http://www.w3.org/1999/xlink">
<g id="graph0" class="graph" transform="scale(1 1) rotate(0) translate(4 107)">
<title>GestorEmpleadosCliente/src/gestorempleados</title>
<polygon fill="white" stroke="white" points="-4,5 -4,-107 449,-107 449,5 -4,5"/>
<g id="clust1" class="cluster"><title>clusterdir_c89272ed4a64c9d73e3ef7855fa34e70</title>
<g id="a_clust1"><a xlink:href="dir_c89272ed4a64c9d73e3ef7855fa34e70.xhtml" target="_top" xlink:title="src">
<polygon fill="#ddddee" stroke="black" points="8,-8 8,-95 436,-95 436,-8 8,-8"/>
<text text-anchor="middle" x="222" y="-83" font-family="Helvetica,sans-Serif" font-size="10.00">src</text>
</a>
</g>
</g>
<g id="clust2" class="cluster"><title>clusterdir_692cf041cd68a6a957d1aa318875def7</title>
<g id="a_clust2"><a xlink:href="dir_692cf041cd68a6a957d1aa318875def7.xhtml" target="_top">
<polygon fill="#eeeeff" stroke="black" points="16,-16 16,-68 428,-68 428,-16 16,-16"/>
</a>
</g>
</g>
<!-- dir_692cf041cd68a6a957d1aa318875def7 -->
<g id="node1" class="node"><title>dir_692cf041cd68a6a957d1aa318875def7</title>
<text text-anchor="middle" x="374" y="-39.5" font-family="Helvetica,sans-Serif" font-size="10.00">gestorempleados</text>
</g>
<!-- dir_31e3c309a732a15f0d0369498f11ec0d -->
<g id="node2" class="node"><title>dir_31e3c309a732a15f0d0369498f11ec0d</title>
<g id="a_node2"><a xlink:href="dir_31e3c309a732a15f0d0369498f11ec0d.xhtml" target="_top" xlink:title="conector">
<polygon fill="white" stroke="black" points="310,-60 256,-60 256,-24 310,-24 310,-60"/>
<text text-anchor="middle" x="283" y="-39.5" font-family="Helvetica,sans-Serif" font-size="10.00">conector</text>
</a>
</g>
</g>
<!-- dir_37bd648b9f16602710083f6db9eca21a -->
<g id="node3" class="node"><title>dir_37bd648b9f16602710083f6db9eca21a</title>
<g id="a_node3"><a xlink:href="dir_37bd648b9f16602710083f6db9eca21a.xhtml" target="_top" xlink:title="control">
<polygon fill="white" stroke="black" points="238,-60 184,-60 184,-24 238,-24 238,-60"/>
<text text-anchor="middle" x="211" y="-39.5" font-family="Helvetica,sans-Serif" font-size="10.00">control</text>
</a>
</g>
</g>
<!-- dir_e430a7be5566e6ad69b012abfa76c1ff -->
<g id="node4" class="node"><title>dir_e430a7be5566e6ad69b012abfa76c1ff</title>
<g id="a_node4"><a xlink:href="dir_e430a7be5566e6ad69b012abfa76c1ff.xhtml" target="_top" xlink:title="interficie">
<polygon fill="white" stroke="black" points="166,-60 112,-60 112,-24 166,-24 166,-60"/>
<text text-anchor="middle" x="139" y="-39.5" font-family="Helvetica,sans-Serif" font-size="10.00">interficie</text>
</a>
</g>
</g>
<!-- dir_a8a0b57147ac72d8e9c2cd667d31630b -->
<g id="node5" class="node"><title>dir_a8a0b57147ac72d8e9c2cd667d31630b</title>
<g id="a_node5"><a xlink:href="dir_a8a0b57147ac72d8e9c2cd667d31630b.xhtml" target="_top" xlink:title="persistencia">
<polygon fill="white" stroke="black" points="93.25,-60 24.75,-60 24.75,-24 93.25,-24 93.25,-60"/>
<text text-anchor="middle" x="59" y="-39.5" font-family="Helvetica,sans-Serif" font-size="10.00">persistencia</text>
</a>
</g>
</g>
</g>
</svg>
