<?xml version="1.0" encoding="UTF-8" standalone="no"?>
<!DOCTYPE svg PUBLIC "-//W3C//DTD SVG 1.1//EN"
 "http://www.w3.org/Graphics/SVG/1.1/DTD/svg11.dtd">
<!-- Generated by graphviz version 2.30.1 (20130214.1330)
 -->
<!-- Title: Graphical Class Hierarchy Pages: 1 -->
<svg width="274pt" height="485pt"
 viewBox="0.00 0.00 274.00 485.00" xmlns="http://www.w3.org/2000/svg" xmlns:xlink="http://www.w3.org/1999/xlink">
<g id="graph0" class="graph" transform="scale(1 1) rotate(0) translate(4 481)">
<title>Graphical Class Hierarchy</title>
<polygon fill="white" stroke="white" points="-4,5 -4,-481 271,-481 271,5 -4,5"/>
<!-- Node1 -->
<g id="node1" class="node"><title>Node1</title>
<polygon fill="white" stroke="#bfbfbf" points="0.5,-427.5 0.5,-446.5 95.5,-446.5 95.5,-427.5 0.5,-427.5"/>
<text text-anchor="middle" x="48" y="-434.5" font-family="Helvetica,sans-Serif" font-size="10.00">DocumentListener</text>
</g>
<!-- Node2 -->
<g id="node2" class="node"><title>Node2</title>
<g id="a_node2"><a xlink:href="classgestorempleados_1_1interficie_1_1_panel___curriculo.xhtml" target="_top" xlink:title="gestorempleados.interficie.\lPanel_Curriculo">
<polygon fill="white" stroke="black" points="132.5,-398 132.5,-428 265.5,-428 265.5,-398 132.5,-398"/>
<text text-anchor="start" x="140.5" y="-416" font-family="Helvetica,sans-Serif" font-size="10.00">gestorempleados.interficie.</text>
<text text-anchor="middle" x="199" y="-405" font-family="Helvetica,sans-Serif" font-size="10.00">Panel_Curriculo</text>
</a>
</g>
</g>
<!-- Node1&#45;&gt;Node2 -->
<g id="edge1" class="edge"><title>Node1&#45;&gt;Node2</title>
<path fill="none" stroke="midnightblue" d="M105.747,-427.859C114.436,-426.46 123.466,-425.005 132.328,-423.578"/>
<polygon fill="midnightblue" stroke="midnightblue" points="105.052,-424.426 95.7357,-429.472 106.165,-431.337 105.052,-424.426"/>
</g>
<!-- Node3 -->
<g id="node3" class="node"><title>Node3</title>
<g id="a_node3"><a xlink:href="classgestorempleados_1_1interficie_1_1_panel___datos_personales.xhtml" target="_top" xlink:title="gestorempleados.interficie.\lPanel_DatosPersonales">
<polygon fill="white" stroke="black" points="132.5,-447 132.5,-477 265.5,-477 265.5,-447 132.5,-447"/>
<text text-anchor="start" x="140.5" y="-465" font-family="Helvetica,sans-Serif" font-size="10.00">gestorempleados.interficie.</text>
<text text-anchor="middle" x="199" y="-454" font-family="Helvetica,sans-Serif" font-size="10.00">Panel_DatosPersonales</text>
</a>
</g>
</g>
<!-- Node1&#45;&gt;Node3 -->
<g id="edge2" class="edge"><title>Node1&#45;&gt;Node3</title>
<path fill="none" stroke="midnightblue" d="M105.747,-446.521C114.436,-447.979 123.466,-449.494 132.328,-450.981"/>
<polygon fill="midnightblue" stroke="midnightblue" points="106.177,-443.045 95.7357,-444.842 105.019,-449.948 106.177,-443.045"/>
</g>
<!-- Node4 -->
<g id="node4" class="node"><title>Node4</title>
<polygon fill="white" stroke="#bfbfbf" points="25,-231.5 25,-250.5 71,-250.5 71,-231.5 25,-231.5"/>
<text text-anchor="middle" x="48" y="-238.5" font-family="Helvetica,sans-Serif" font-size="10.00">JPanel</text>
</g>
<!-- Node5 -->
<g id="node5" class="node"><title>Node5</title>
<g id="a_node5"><a xlink:href="classgestorempleados_1_1interficie_1_1_calendario.xhtml" target="_top" xlink:title="gestorempleados.interficie.\lCalendario">
<polygon fill="white" stroke="black" points="132.5,-300 132.5,-330 265.5,-330 265.5,-300 132.5,-300"/>
<text text-anchor="start" x="140.5" y="-318" font-family="Helvetica,sans-Serif" font-size="10.00">gestorempleados.interficie.</text>
<text text-anchor="middle" x="199" y="-307" font-family="Helvetica,sans-Serif" font-size="10.00">Calendario</text>
</a>
</g>
</g>
<!-- Node4&#45;&gt;Node5 -->
<g id="edge3" class="edge"><title>Node4&#45;&gt;Node5</title>
<path fill="none" stroke="midnightblue" d="M72.4034,-256.279C88.714,-266.56 111.194,-280.009 132,-290 139.29,-293.501 147.208,-296.858 154.945,-299.913"/>
<polygon fill="midnightblue" stroke="midnightblue" points="73.8846,-253.072 63.5722,-250.642 70.1184,-258.973 73.8846,-253.072"/>
</g>
<!-- Node6 -->
<g id="node6" class="node"><title>Node6</title>
<g id="a_node6"><a xlink:href="classgestorempleados_1_1interficie_1_1_panel___cabecera.xhtml" target="_top" xlink:title="gestorempleados.interficie.\lPanel_Cabecera">
<polygon fill="white" stroke="black" points="132.5,-251 132.5,-281 265.5,-281 265.5,-251 132.5,-251"/>
<text text-anchor="start" x="140.5" y="-269" font-family="Helvetica,sans-Serif" font-size="10.00">gestorempleados.interficie.</text>
<text text-anchor="middle" x="199" y="-258" font-family="Helvetica,sans-Serif" font-size="10.00">Panel_Cabecera</text>
</a>
</g>
</g>
<!-- Node4&#45;&gt;Node6 -->
<g id="edge4" class="edge"><title>Node4&#45;&gt;Node6</title>
<path fill="none" stroke="midnightblue" d="M81.524,-246.457C96.4434,-248.96 114.697,-252.023 132.287,-254.974"/>
<polygon fill="midnightblue" stroke="midnightblue" points="81.7481,-242.946 71.3068,-244.743 80.5898,-249.849 81.7481,-242.946"/>
</g>
<!-- Node7 -->
<g id="node7" class="node"><title>Node7</title>
<g id="a_node7"><a xlink:href="classgestorempleados_1_1interficie_1_1_panel___contrato.xhtml" target="_top" xlink:title="gestorempleados.interficie.\lPanel_Contrato">
<polygon fill="white" stroke="black" points="132.5,-202 132.5,-232 265.5,-232 265.5,-202 132.5,-202"/>
<text text-anchor="start" x="140.5" y="-220" font-family="Helvetica,sans-Serif" font-size="10.00">gestorempleados.interficie.</text>
<text text-anchor="middle" x="199" y="-209" font-family="Helvetica,sans-Serif" font-size="10.00">Panel_Contrato</text>
</a>
</g>
</g>
<!-- Node4&#45;&gt;Node7 -->
<g id="edge5" class="edge"><title>Node4&#45;&gt;Node7</title>
<path fill="none" stroke="midnightblue" d="M81.524,-235.761C96.4434,-233.358 114.697,-230.418 132.287,-227.585"/>
<polygon fill="midnightblue" stroke="midnightblue" points="80.6229,-232.361 71.3068,-237.407 81.7362,-239.272 80.6229,-232.361"/>
</g>
<!-- Node4&#45;&gt;Node2 -->
<g id="edge6" class="edge"><title>Node4&#45;&gt;Node2</title>
<path fill="none" stroke="midnightblue" d="M55.0896,-260.415C65.7907,-291.53 90.8248,-352.649 132,-388 136.462,-391.831 141.572,-395.105 146.928,-397.895"/>
<polygon fill="midnightblue" stroke="midnightblue" points="58.358,-259.15 51.8993,-250.751 51.7109,-261.345 58.358,-259.15"/>
</g>
<!-- Node4&#45;&gt;Node3 -->
<g id="edge7" class="edge"><title>Node4&#45;&gt;Node3</title>
<path fill="none" stroke="midnightblue" d="M52.0721,-260.707C59.1459,-299.671 80.1363,-387.095 132,-437 135.973,-440.823 140.589,-444.075 145.498,-446.837"/>
<polygon fill="midnightblue" stroke="midnightblue" points="55.4922,-259.941 50.3678,-250.668 48.5909,-261.113 55.4922,-259.941"/>
</g>
<!-- Node8 -->
<g id="node8" class="node"><title>Node8</title>
<g id="a_node8"><a xlink:href="classgestorempleados_1_1interficie_1_1_panel___login.xhtml" target="_top" xlink:title="gestorempleados.interficie.\lPanel_Login">
<polygon fill="white" stroke="black" points="132.5,-349 132.5,-379 265.5,-379 265.5,-349 132.5,-349"/>
<text text-anchor="start" x="140.5" y="-367" font-family="Helvetica,sans-Serif" font-size="10.00">gestorempleados.interficie.</text>
<text text-anchor="middle" x="199" y="-356" font-family="Helvetica,sans-Serif" font-size="10.00">Panel_Login</text>
</a>
</g>
</g>
<!-- Node4&#45;&gt;Node8 -->
<g id="edge8" class="edge"><title>Node4&#45;&gt;Node8</title>
<path fill="none" stroke="midnightblue" d="M60.361,-259.396C74.6424,-281.147 101.068,-317.146 132,-339 137.404,-342.818 143.465,-346.138 149.665,-348.999"/>
<polygon fill="midnightblue" stroke="midnightblue" points="63.1796,-257.307 54.8435,-250.768 57.2822,-261.078 63.1796,-257.307"/>
</g>
<!-- Node9 -->
<g id="node9" class="node"><title>Node9</title>
<g id="a_node9"><a xlink:href="classplugins_1_1_panel___alta.xhtml" target="_top" xlink:title="plugins.Panel_Alta">
<polygon fill="white" stroke="black" points="150,-49.5 150,-68.5 248,-68.5 248,-49.5 150,-49.5"/>
<text text-anchor="middle" x="199" y="-56.5" font-family="Helvetica,sans-Serif" font-size="10.00">plugins.Panel_Alta</text>
</a>
</g>
</g>
<!-- Node4&#45;&gt;Node9 -->
<g id="edge9" class="edge"><title>Node4&#45;&gt;Node9</title>
<path fill="none" stroke="midnightblue" d="M53.4985,-221.468C62.411,-187.212 85.5922,-116.306 132,-78 137.242,-73.6735 143.421,-70.3317 149.861,-67.7506"/>
<polygon fill="midnightblue" stroke="midnightblue" points="50.0911,-220.668 51.0948,-231.215 56.8875,-222.344 50.0911,-220.668"/>
</g>
<!-- Node10 -->
<g id="node10" class="node"><title>Node10</title>
<g id="a_node10"><a xlink:href="classplugins_1_1_panel___busqueda.xhtml" target="_top" xlink:title="plugins.Panel_Busqueda">
<polygon fill="white" stroke="black" points="137,-163.5 137,-182.5 261,-182.5 261,-163.5 137,-163.5"/>
<text text-anchor="middle" x="199" y="-170.5" font-family="Helvetica,sans-Serif" font-size="10.00">plugins.Panel_Busqueda</text>
</a>
</g>
</g>
<!-- Node4&#45;&gt;Node10 -->
<g id="edge10" class="edge"><title>Node4&#45;&gt;Node10</title>
<path fill="none" stroke="midnightblue" d="M71.9445,-225.804C88.2041,-215.522 110.809,-202.192 132,-193 141.227,-188.998 151.504,-185.469 161.15,-182.533"/>
<polygon fill="midnightblue" stroke="midnightblue" points="69.681,-223.098 63.163,-231.451 73.4671,-228.986 69.681,-223.098"/>
</g>
<!-- Node11 -->
<g id="node11" class="node"><title>Node11</title>
<g id="a_node11"><a xlink:href="classplugins_1_1_panel___consultas.xhtml" target="_top" xlink:title="plugins.Panel_Consultas">
<polygon fill="white" stroke="black" points="137,-125.5 137,-144.5 261,-144.5 261,-125.5 137,-125.5"/>
<text text-anchor="middle" x="199" y="-132.5" font-family="Helvetica,sans-Serif" font-size="10.00">plugins.Panel_Consultas</text>
</a>
</g>
</g>
<!-- Node4&#45;&gt;Node11 -->
<g id="edge11" class="edge"><title>Node4&#45;&gt;Node11</title>
<path fill="none" stroke="midnightblue" d="M61.44,-223.137C76.1033,-203.393 102.271,-172.007 132,-154 138.323,-150.17 145.455,-147.081 152.632,-144.598"/>
<polygon fill="midnightblue" stroke="midnightblue" points="58.5616,-221.145 55.5409,-231.3 64.2351,-225.245 58.5616,-221.145"/>
</g>
<!-- Node12 -->
<g id="node12" class="node"><title>Node12</title>
<g id="a_node12"><a xlink:href="classplugins_1_1_panel___registros.xhtml" target="_top" xlink:title="plugins.Panel_Registros">
<polygon fill="white" stroke="black" points="138,-87.5 138,-106.5 260,-106.5 260,-87.5 138,-87.5"/>
<text text-anchor="middle" x="199" y="-94.5" font-family="Helvetica,sans-Serif" font-size="10.00">plugins.Panel_Registros</text>
</a>
</g>
</g>
<!-- Node4&#45;&gt;Node12 -->
<g id="edge12" class="edge"><title>Node4&#45;&gt;Node12</title>
<path fill="none" stroke="midnightblue" d="M56.6017,-221.821C68.5095,-194.258 94.1795,-143.719 132,-116 137.29,-112.123 143.353,-109.035 149.613,-106.576"/>
<polygon fill="midnightblue" stroke="midnightblue" points="53.3243,-220.587 52.7151,-231.165 59.7874,-223.276 53.3243,-220.587"/>
</g>
<!-- Node13 -->
<g id="node13" class="node"><title>Node13</title>
<polygon fill="white" stroke="#bfbfbf" points="14.5,-87.5 14.5,-106.5 81.5,-106.5 81.5,-87.5 14.5,-87.5"/>
<text text-anchor="middle" x="48" y="-94.5" font-family="Helvetica,sans-Serif" font-size="10.00">Serializable</text>
</g>
<!-- Node14 -->
<g id="node14" class="node"><title>Node14</title>
<g id="a_node14"><a xlink:href="classgestorempleados_1_1conector_1_1_packet.xhtml" target="_top" xlink:title="gestorempleados.conector.\lPacket">
<polygon fill="white" stroke="black" points="132,-0 132,-30 266,-30 266,-0 132,-0"/>
<text text-anchor="start" x="140" y="-18" font-family="Helvetica,sans-Serif" font-size="10.00">gestorempleados.conector.</text>
<text text-anchor="middle" x="199" y="-7" font-family="Helvetica,sans-Serif" font-size="10.00">Packet</text>
</a>
</g>
</g>
<!-- Node13&#45;&gt;Node14 -->
<g id="edge13" class="edge"><title>Node13&#45;&gt;Node14</title>
<path fill="none" stroke="midnightblue" d="M69.2881,-81.0162C85.5795,-68.6979 109.39,-51.8265 132,-40 138.84,-36.4222 146.311,-33.0913 153.687,-30.1024"/>
<polygon fill="midnightblue" stroke="midnightblue" points="66.8657,-78.4635 61.0664,-87.3303 71.1293,-84.0153 66.8657,-78.4635"/>
</g>
<!-- Node13&#45;&gt;Node9 -->
<g id="edge14" class="edge"><title>Node13&#45;&gt;Node9</title>
<path fill="none" stroke="midnightblue" d="M91.6693,-86.1179C113.444,-80.5646 139.687,-73.8717 160.653,-68.5246"/>
<polygon fill="midnightblue" stroke="midnightblue" points="90.5236,-82.798 81.6987,-88.6607 92.2535,-89.5809 90.5236,-82.798"/>
</g>
<!-- Node13&#45;&gt;Node10 -->
<g id="edge15" class="edge"><title>Node13&#45;&gt;Node10</title>
<path fill="none" stroke="midnightblue" d="M68.4736,-113.066C84.631,-125.711 108.659,-142.982 132,-154 139.871,-157.716 148.62,-160.857 157.106,-163.45"/>
<polygon fill="midnightblue" stroke="midnightblue" points="70.3591,-110.093 60.3614,-106.586 65.9903,-115.562 70.3591,-110.093"/>
</g>
<!-- Node13&#45;&gt;Node11 -->
<g id="edge16" class="edge"><title>Node13&#45;&gt;Node11</title>
<path fill="none" stroke="midnightblue" d="M91.6693,-107.882C113.444,-113.435 139.687,-120.128 160.653,-125.475"/>
<polygon fill="midnightblue" stroke="midnightblue" points="92.2535,-104.419 81.6987,-105.339 90.5236,-111.202 92.2535,-104.419"/>
</g>
<!-- Node13&#45;&gt;Node12 -->
<g id="edge17" class="edge"><title>Node13&#45;&gt;Node12</title>
<path fill="none" stroke="midnightblue" d="M91.7563,-97C106.091,-97 122.355,-97 137.772,-97"/>
<polygon fill="midnightblue" stroke="midnightblue" points="91.6987,-93.5001 81.6987,-97 91.6986,-100.5 91.6987,-93.5001"/>
</g>
</g>
</svg>
