<?xml version="1.0" encoding="UTF-8" standalone="no"?>
<!DOCTYPE svg PUBLIC "-//W3C//DTD SVG 1.1//EN"
 "http://www.w3.org/Graphics/SVG/1.1/DTD/svg11.dtd">
<!-- Generated by graphviz version 2.30.1 (20130214.1330)
 -->
<!-- Title: Graphical Class Hierarchy Pages: 1 -->
<svg width="262pt" height="283pt"
 viewBox="0.00 0.00 262.00 283.00" xmlns="http://www.w3.org/2000/svg" xmlns:xlink="http://www.w3.org/1999/xlink">
<g id="graph0" class="graph" transform="scale(1 1) rotate(0) translate(4 279)">
<title>Graphical Class Hierarchy</title>
<polygon fill="white" stroke="white" points="-4,5 -4,-279 259,-279 259,5 -4,5"/>
<!-- Node1 -->
<g id="node1" class="node"><title>Node1</title>
<polygon fill="white" stroke="#bfbfbf" points="0.5,-127.5 0.5,-146.5 67.5,-146.5 67.5,-127.5 0.5,-127.5"/>
<text text-anchor="middle" x="34" y="-134.5" font-family="Helvetica,sans-Serif" font-size="10.00">Serializable</text>
</g>
<!-- Node2 -->
<g id="node2" class="node"><title>Node2</title>
<g id="a_node2"><a xlink:href="classgestorempleados_1_1persistencia_1_1_cargo.xhtml" target="_top" xlink:title="gestorempleados.persistencia.\lCargo">
<polygon fill="white" stroke="black" points="104.5,-245 104.5,-275 253.5,-275 253.5,-245 104.5,-245"/>
<text text-anchor="start" x="112.5" y="-263" font-family="Helvetica,sans-Serif" font-size="10.00">gestorempleados.persistencia.</text>
<text text-anchor="middle" x="179" y="-252" font-family="Helvetica,sans-Serif" font-size="10.00">Cargo</text>
</a>
</g>
</g>
<!-- Node1&#45;&gt;Node2 -->
<g id="edge1" class="edge"><title>Node1&#45;&gt;Node2</title>
<path fill="none" stroke="midnightblue" d="M43.6895,-155.891C54.7298,-177.901 75.793,-213.93 104,-235 109.106,-238.814 114.832,-242.071 120.777,-244.845"/>
<polygon fill="midnightblue" stroke="midnightblue" points="46.7068,-154.09 39.2096,-146.604 40.402,-157.132 46.7068,-154.09"/>
</g>
<!-- Node3 -->
<g id="node3" class="node"><title>Node3</title>
<g id="a_node3"><a xlink:href="classgestorempleados_1_1persistencia_1_1_contrato.xhtml" target="_top" xlink:title="gestorempleados.persistencia.\lContrato">
<polygon fill="white" stroke="black" points="104.5,-196 104.5,-226 253.5,-226 253.5,-196 104.5,-196"/>
<text text-anchor="start" x="112.5" y="-214" font-family="Helvetica,sans-Serif" font-size="10.00">gestorempleados.persistencia.</text>
<text text-anchor="middle" x="179" y="-203" font-family="Helvetica,sans-Serif" font-size="10.00">Contrato</text>
</a>
</g>
</g>
<!-- Node1&#45;&gt;Node3 -->
<g id="edge2" class="edge"><title>Node1&#45;&gt;Node3</title>
<path fill="none" stroke="midnightblue" d="M54.4859,-153.182C67.7923,-163.626 86.1774,-176.91 104,-186 111.248,-189.697 119.163,-193.034 127.035,-195.977"/>
<polygon fill="midnightblue" stroke="midnightblue" points="56.5225,-150.329 46.5321,-146.801 52.1424,-155.789 56.5225,-150.329"/>
</g>
<!-- Node4 -->
<g id="node4" class="node"><title>Node4</title>
<g id="a_node4"><a xlink:href="classgestorempleados_1_1persistencia_1_1_departamento.xhtml" target="_top" xlink:title="gestorempleados.persistencia.\lDepartamento">
<polygon fill="white" stroke="black" points="104.5,-147 104.5,-177 253.5,-177 253.5,-147 104.5,-147"/>
<text text-anchor="start" x="112.5" y="-165" font-family="Helvetica,sans-Serif" font-size="10.00">gestorempleados.persistencia.</text>
<text text-anchor="middle" x="179" y="-154" font-family="Helvetica,sans-Serif" font-size="10.00">Departamento</text>
</a>
</g>
</g>
<!-- Node1&#45;&gt;Node4 -->
<g id="edge3" class="edge"><title>Node1&#45;&gt;Node4</title>
<path fill="none" stroke="midnightblue" d="M77.7134,-144.467C86.1269,-145.938 95.1788,-147.521 104.279,-149.112"/>
<polygon fill="midnightblue" stroke="midnightblue" points="78.2605,-141.01 67.8071,-142.736 77.0549,-147.905 78.2605,-141.01"/>
</g>
<!-- Node5 -->
<g id="node5" class="node"><title>Node5</title>
<g id="a_node5"><a xlink:href="classgestorempleados_1_1persistencia_1_1_empleado.xhtml" target="_top" xlink:title="gestorempleados.persistencia.\lEmpleado">
<polygon fill="white" stroke="black" points="104.5,-98 104.5,-128 253.5,-128 253.5,-98 104.5,-98"/>
<text text-anchor="start" x="112.5" y="-116" font-family="Helvetica,sans-Serif" font-size="10.00">gestorempleados.persistencia.</text>
<text text-anchor="middle" x="179" y="-105" font-family="Helvetica,sans-Serif" font-size="10.00">Empleado</text>
</a>
</g>
</g>
<!-- Node1&#45;&gt;Node5 -->
<g id="edge4" class="edge"><title>Node1&#45;&gt;Node5</title>
<path fill="none" stroke="midnightblue" d="M77.7134,-129.831C86.1269,-128.419 95.1788,-126.9 104.279,-125.373"/>
<polygon fill="midnightblue" stroke="midnightblue" points="77.0898,-126.387 67.8071,-131.494 78.2485,-133.29 77.0898,-126.387"/>
</g>
<!-- Node6 -->
<g id="node6" class="node"><title>Node6</title>
<g id="a_node6"><a xlink:href="classgestorempleados_1_1persistencia_1_1_idiomas.xhtml" target="_top" xlink:title="gestorempleados.persistencia.\lIdiomas">
<polygon fill="white" stroke="black" points="104.5,-49 104.5,-79 253.5,-79 253.5,-49 104.5,-49"/>
<text text-anchor="start" x="112.5" y="-67" font-family="Helvetica,sans-Serif" font-size="10.00">gestorempleados.persistencia.</text>
<text text-anchor="middle" x="179" y="-56" font-family="Helvetica,sans-Serif" font-size="10.00">Idiomas</text>
</a>
</g>
</g>
<!-- Node1&#45;&gt;Node6 -->
<g id="edge5" class="edge"><title>Node1&#45;&gt;Node6</title>
<path fill="none" stroke="midnightblue" d="M54.5369,-121.173C67.8649,-110.953 86.2549,-97.9426 104,-89 111.266,-85.3384 119.191,-82.0199 127.067,-79.0848"/>
<polygon fill="midnightblue" stroke="midnightblue" points="52.2814,-118.494 46.5671,-127.416 56.5979,-124.005 52.2814,-118.494"/>
</g>
<!-- Node7 -->
<g id="node7" class="node"><title>Node7</title>
<g id="a_node7"><a xlink:href="classgestorempleados_1_1persistencia_1_1_usuarios.xhtml" target="_top" xlink:title="gestorempleados.persistencia.\lUsuarios">
<polygon fill="white" stroke="black" points="104.5,-0 104.5,-30 253.5,-30 253.5,-0 104.5,-0"/>
<text text-anchor="start" x="112.5" y="-18" font-family="Helvetica,sans-Serif" font-size="10.00">gestorempleados.persistencia.</text>
<text text-anchor="middle" x="179" y="-7" font-family="Helvetica,sans-Serif" font-size="10.00">Usuarios</text>
</a>
</g>
</g>
<!-- Node1&#45;&gt;Node7 -->
<g id="edge6" class="edge"><title>Node1&#45;&gt;Node7</title>
<path fill="none" stroke="midnightblue" d="M43.7383,-118.303C54.8258,-96.5193 75.9346,-60.8589 104,-40 109.224,-36.1173 115.091,-32.8116 121.175,-30.0032"/>
<polygon fill="midnightblue" stroke="midnightblue" points="40.4918,-116.974 39.2366,-127.494 46.7784,-120.053 40.4918,-116.974"/>
</g>
</g>
</svg>
