<?xml version="1.0" encoding="UTF-8" standalone="no"?>
<!DOCTYPE svg PUBLIC "-//W3C//DTD SVG 1.1//EN"
 "http://www.w3.org/Graphics/SVG/1.1/DTD/svg11.dtd">
<!-- Generated by graphviz version 2.30.1 (20130214.1330)
 -->
<!-- Title: gestorempleados.control.NegocioServer.consultaCargos Pages: 1 -->
<svg width="322pt" height="38pt"
 viewBox="0.00 0.00 322.00 38.00" xmlns="http://www.w3.org/2000/svg" xmlns:xlink="http://www.w3.org/1999/xlink">
<g id="graph0" class="graph" transform="scale(1 1) rotate(0) translate(4 34)">
<title>gestorempleados.control.NegocioServer.consultaCargos</title>
<polygon fill="white" stroke="white" points="-4,5 -4,-34 319,-34 319,5 -4,5"/>
<!-- Node1 -->
<g id="node1" class="node"><title>Node1</title>
<polygon fill="#bfbfbf" stroke="black" points="0.5,-0 0.5,-30 149.5,-30 149.5,-0 0.5,-0"/>
<text text-anchor="start" x="8.5" y="-18" font-family="Helvetica,sans-Serif" font-size="10.00">gestorempleados.control.</text>
<text text-anchor="middle" x="75" y="-7" font-family="Helvetica,sans-Serif" font-size="10.00">NegocioServer.consultaCargos</text>
</g>
<!-- Node2 -->
<g id="node2" class="node"><title>Node2</title>
<g id="a_node2"><a xlink:href="interfacegestorempleados_1_1control_1_1i_control.xhtml#a1abecced91f6786cc7d8ee53b57d81be" target="_top" xlink:title="gestorempleados.control.i\lControl.getCargos">
<polygon fill="white" stroke="black" points="186,-0 186,-30 314,-30 314,-0 186,-0"/>
<text text-anchor="start" x="194" y="-18" font-family="Helvetica,sans-Serif" font-size="10.00">gestorempleados.control.i</text>
<text text-anchor="middle" x="250" y="-7" font-family="Helvetica,sans-Serif" font-size="10.00">Control.getCargos</text>
</a>
</g>
</g>
<!-- Node1&#45;&gt;Node2 -->
<g id="edge1" class="edge"><title>Node1&#45;&gt;Node2</title>
<path fill="none" stroke="midnightblue" d="M149.618,-15C158.278,-15 167.113,-15 175.767,-15"/>
<polygon fill="midnightblue" stroke="midnightblue" points="175.821,-18.5001 185.821,-15 175.821,-11.5001 175.821,-18.5001"/>
</g>
</g>
</svg>
