<?xml version="1.0" encoding="UTF-8" standalone="no"?>
<!DOCTYPE svg PUBLIC "-//W3C//DTD SVG 1.1//EN"
 "http://www.w3.org/Graphics/SVG/1.1/DTD/svg11.dtd">
<!-- Generated by graphviz version 2.30.1 (20130214.1330)
 -->
<!-- Title: gestorempleados.control.NegocioServer.comprobarEmpleado Pages: 1 -->
<svg width="366pt" height="136pt"
 viewBox="0.00 0.00 366.00 136.00" xmlns="http://www.w3.org/2000/svg" xmlns:xlink="http://www.w3.org/1999/xlink">
<g id="graph0" class="graph" transform="scale(1 1) rotate(0) translate(4 132)">
<title>gestorempleados.control.NegocioServer.comprobarEmpleado</title>
<polygon fill="white" stroke="white" points="-4,5 -4,-132 363,-132 363,5 -4,5"/>
<!-- Node1 -->
<g id="node1" class="node"><title>Node1</title>
<polygon fill="#bfbfbf" stroke="black" points="0.5,-49 0.5,-79 171.5,-79 171.5,-49 0.5,-49"/>
<text text-anchor="start" x="8.5" y="-67" font-family="Helvetica,sans-Serif" font-size="10.00">gestorempleados.control.</text>
<text text-anchor="middle" x="86" y="-56" font-family="Helvetica,sans-Serif" font-size="10.00">NegocioServer.comprobarEmpleado</text>
</g>
<!-- Node2 -->
<g id="node2" class="node"><title>Node2</title>
<g id="a_node2"><a xlink:href="interfacegestorempleados_1_1control_1_1i_control.xhtml#a26adc3fd3fdd93c974165e64a1174119" target="_top" xlink:title="gestorempleados.control.i\lControl.getEmpleados">
<polygon fill="white" stroke="black" points="219,-98 219,-128 347,-128 347,-98 219,-98"/>
<text text-anchor="start" x="227" y="-116" font-family="Helvetica,sans-Serif" font-size="10.00">gestorempleados.control.i</text>
<text text-anchor="middle" x="283" y="-105" font-family="Helvetica,sans-Serif" font-size="10.00">Control.getEmpleados</text>
</a>
</g>
</g>
<!-- Node1&#45;&gt;Node2 -->
<g id="edge1" class="edge"><title>Node1&#45;&gt;Node2</title>
<path fill="none" stroke="midnightblue" d="M146.832,-79.0346C167.608,-84.2554 191.081,-90.1537 212.567,-95.5526"/>
<polygon fill="midnightblue" stroke="midnightblue" points="211.73,-98.9512 222.282,-97.9938 213.436,-92.1622 211.73,-98.9512"/>
</g>
<!-- Node3 -->
<g id="node3" class="node"><title>Node3</title>
<g id="a_node3"><a xlink:href="classgestorempleados_1_1persistencia_1_1_empleado.xhtml#a94b0fa974225524f9cb20c47ba13fd17" target="_top" xlink:title="gestorempleados.persistencia.\lEmpleado.getDni">
<polygon fill="white" stroke="black" points="208.5,-49 208.5,-79 357.5,-79 357.5,-49 208.5,-49"/>
<text text-anchor="start" x="216.5" y="-67" font-family="Helvetica,sans-Serif" font-size="10.00">gestorempleados.persistencia.</text>
<text text-anchor="middle" x="283" y="-56" font-family="Helvetica,sans-Serif" font-size="10.00">Empleado.getDni</text>
</a>
</g>
</g>
<!-- Node1&#45;&gt;Node3 -->
<g id="edge2" class="edge"><title>Node1&#45;&gt;Node3</title>
<path fill="none" stroke="midnightblue" d="M171.679,-64C180.47,-64 189.403,-64 198.185,-64"/>
<polygon fill="midnightblue" stroke="midnightblue" points="198.406,-67.5001 208.406,-64 198.406,-60.5001 198.406,-67.5001"/>
</g>
<!-- Node4 -->
<g id="node4" class="node"><title>Node4</title>
<g id="a_node4"><a xlink:href="classgestorempleados_1_1persistencia_1_1_empleado.xhtml#a2c11dccd26e0bfa90f266f83cdab5b47" target="_top" xlink:title="gestorempleados.persistencia.\lEmpleado.getNss">
<polygon fill="white" stroke="black" points="208.5,-0 208.5,-30 357.5,-30 357.5,-0 208.5,-0"/>
<text text-anchor="start" x="216.5" y="-18" font-family="Helvetica,sans-Serif" font-size="10.00">gestorempleados.persistencia.</text>
<text text-anchor="middle" x="283" y="-7" font-family="Helvetica,sans-Serif" font-size="10.00">Empleado.getNss</text>
</a>
</g>
</g>
<!-- Node1&#45;&gt;Node4 -->
<g id="edge3" class="edge"><title>Node1&#45;&gt;Node4</title>
<path fill="none" stroke="midnightblue" d="M146.832,-48.9654C167.608,-43.7446 191.081,-37.8463 212.567,-32.4474"/>
<polygon fill="midnightblue" stroke="midnightblue" points="213.436,-35.8378 222.282,-30.0062 211.73,-29.0488 213.436,-35.8378"/>
</g>
</g>
</svg>
