<?xml version="1.0" encoding="UTF-8" standalone="no"?>
<!DOCTYPE svg PUBLIC "-//W3C//DTD SVG 1.1//EN"
 "http://www.w3.org/Graphics/SVG/1.1/DTD/svg11.dtd">
<!-- Generated by graphviz version 2.30.1 (20130214.1330)
 -->
<!-- Title: gestorempleados.persistencia.Usuarios Pages: 1 -->
<svg width="156pt" height="238pt"
 viewBox="0.00 0.00 156.00 238.00" xmlns="http://www.w3.org/2000/svg" xmlns:xlink="http://www.w3.org/1999/xlink">
<g id="graph0" class="graph" transform="scale(1 1) rotate(0) translate(4 234)">
<title>gestorempleados.persistencia.Usuarios</title>
<polygon fill="white" stroke="white" points="-4,5 -4,-234 153,-234 153,5 -4,5"/>
<!-- Node1 -->
<g id="node1" class="node"><title>Node1</title>
<polygon fill="#bfbfbf" stroke="black" points="-0.5,-1 -0.5,-135 148.5,-135 148.5,-1 -0.5,-1"/>
<text text-anchor="start" x="7.5" y="-123" font-family="Helvetica,sans-Serif" font-size="10.00">gestorempleados.persistencia.</text>
<text text-anchor="middle" x="74" y="-112" font-family="Helvetica,sans-Serif" font-size="10.00">Usuarios</text>
<polyline fill="none" stroke="black" points="-0.5,-105 148.5,-105 "/>
<text text-anchor="start" x="7.5" y="-93" font-family="Helvetica,sans-Serif" font-size="10.00">&#45; nombre</text>
<text text-anchor="start" x="7.5" y="-82" font-family="Helvetica,sans-Serif" font-size="10.00">&#45; pass</text>
<polyline fill="none" stroke="black" points="-0.5,-75 148.5,-75 "/>
<text text-anchor="start" x="7.5" y="-63" font-family="Helvetica,sans-Serif" font-size="10.00">+ Usuarios()</text>
<text text-anchor="start" x="7.5" y="-52" font-family="Helvetica,sans-Serif" font-size="10.00">+ Usuarios()</text>
<text text-anchor="start" x="7.5" y="-41" font-family="Helvetica,sans-Serif" font-size="10.00">+ getNombre()</text>
<text text-anchor="start" x="7.5" y="-30" font-family="Helvetica,sans-Serif" font-size="10.00">+ setNombre()</text>
<text text-anchor="start" x="7.5" y="-19" font-family="Helvetica,sans-Serif" font-size="10.00">+ getPass()</text>
<text text-anchor="start" x="7.5" y="-8" font-family="Helvetica,sans-Serif" font-size="10.00">+ setPass()</text>
</g>
<!-- Node2 -->
<g id="node2" class="node"><title>Node2</title>
<polygon fill="white" stroke="#bfbfbf" points="40.5,-172.5 40.5,-229.5 107.5,-229.5 107.5,-172.5 40.5,-172.5"/>
<text text-anchor="middle" x="74" y="-217.5" font-family="Helvetica,sans-Serif" font-size="10.00">Serializable</text>
<polyline fill="none" stroke="#bfbfbf" points="40.5,-210.5 107.5,-210.5 "/>
<text text-anchor="middle" x="74" y="-198.5" font-family="Helvetica,sans-Serif" font-size="10.00"> </text>
<polyline fill="none" stroke="#bfbfbf" points="40.5,-191.5 107.5,-191.5 "/>
<text text-anchor="middle" x="74" y="-179.5" font-family="Helvetica,sans-Serif" font-size="10.00"> </text>
</g>
<!-- Node2&#45;&gt;Node1 -->
<g id="edge1" class="edge"><title>Node2&#45;&gt;Node1</title>
<path fill="none" stroke="midnightblue" d="M74,-161.942C74,-153.47 74,-144.249 74,-135.016"/>
<polygon fill="none" stroke="midnightblue" points="70.5001,-162.218 74,-172.218 77.5001,-162.218 70.5001,-162.218"/>
</g>
</g>
</svg>
