<?xml version="1.0" encoding="UTF-8" standalone="no"?>
<!DOCTYPE svg PUBLIC "-//W3C//DTD SVG 1.1//EN"
 "http://www.w3.org/Graphics/SVG/1.1/DTD/svg11.dtd">
<!-- Generated by graphviz version 2.30.1 (20130214.1330)
 -->
<!-- Title: gestorempleados.control.ControlSQL Pages: 1 -->
<svg width="253pt" height="360pt"
 viewBox="0.00 0.00 253.00 360.00" xmlns="http://www.w3.org/2000/svg" xmlns:xlink="http://www.w3.org/1999/xlink">
<g id="graph0" class="graph" transform="scale(1 1) rotate(0) translate(4 356)">
<title>gestorempleados.control.ControlSQL</title>
<polygon fill="white" stroke="white" points="-4,5 -4,-356 250,-356 250,5 -4,5"/>
<!-- Node1 -->
<g id="node1" class="node"><title>Node1</title>
<polygon fill="#bfbfbf" stroke="black" points="65,-0.5 65,-167.5 205,-167.5 205,-0.5 65,-0.5"/>
<text text-anchor="start" x="73" y="-155.5" font-family="Helvetica,sans-Serif" font-size="10.00">gestorempleados.control.</text>
<text text-anchor="middle" x="135" y="-144.5" font-family="Helvetica,sans-Serif" font-size="10.00">ControlSQL</text>
<polyline fill="none" stroke="black" points="65,-137.5 205,-137.5 "/>
<text text-anchor="middle" x="135" y="-125.5" font-family="Helvetica,sans-Serif" font-size="10.00"> </text>
<polyline fill="none" stroke="black" points="65,-118.5 205,-118.5 "/>
<text text-anchor="start" x="73" y="-106.5" font-family="Helvetica,sans-Serif" font-size="10.00">+ ControlSQL()</text>
<text text-anchor="start" x="73" y="-95.5" font-family="Helvetica,sans-Serif" font-size="10.00">+ saveEmpleado()</text>
<text text-anchor="start" x="73" y="-84.5" font-family="Helvetica,sans-Serif" font-size="10.00">+ getEmpleadoDni()</text>
<text text-anchor="start" x="73" y="-73.5" font-family="Helvetica,sans-Serif" font-size="10.00">+ getEmpleados()</text>
<text text-anchor="start" x="73" y="-62.5" font-family="Helvetica,sans-Serif" font-size="10.00">+ getDepartamentos()</text>
<text text-anchor="start" x="73" y="-51.5" font-family="Helvetica,sans-Serif" font-size="10.00">+ getCargos()</text>
<text text-anchor="start" x="73" y="-40.5" font-family="Helvetica,sans-Serif" font-size="10.00">+ getuser()</text>
<text text-anchor="start" x="73" y="-29.5" font-family="Helvetica,sans-Serif" font-size="10.00">+ getContratos()</text>
<text text-anchor="start" x="73" y="-18.5" font-family="Helvetica,sans-Serif" font-size="10.00">+ comprobarContratoActivo()</text>
<text text-anchor="start" x="73" y="-7.5" font-family="Helvetica,sans-Serif" font-size="10.00">&#45; buildSessionFactory()</text>
</g>
<!-- Node2 -->
<g id="node2" class="node"><title>Node2</title>
<g id="a_node2"><a xlink:href="interfacegestorempleados_1_1control_1_1i_control.xhtml" target="_top" xlink:title="{gestorempleados.control.i\lControl\n||+ getEmpleados()\l+ saveEmpleado()\l+ getContratos()\l+ getuser()\l+ getDepartamentos()\l+ getCargos()\l+ comprobarContratoActivo()\l}">
<polygon fill="white" stroke="black" points="0,-217 0,-351 140,-351 140,-217 0,-217"/>
<text text-anchor="start" x="8" y="-339" font-family="Helvetica,sans-Serif" font-size="10.00">gestorempleados.control.i</text>
<text text-anchor="middle" x="70" y="-328" font-family="Helvetica,sans-Serif" font-size="10.00">Control</text>
<polyline fill="none" stroke="black" points="0,-321 140,-321 "/>
<text text-anchor="middle" x="70" y="-309" font-family="Helvetica,sans-Serif" font-size="10.00"> </text>
<polyline fill="none" stroke="black" points="0,-302 140,-302 "/>
<text text-anchor="start" x="8" y="-290" font-family="Helvetica,sans-Serif" font-size="10.00">+ getEmpleados()</text>
<text text-anchor="start" x="8" y="-279" font-family="Helvetica,sans-Serif" font-size="10.00">+ saveEmpleado()</text>
<text text-anchor="start" x="8" y="-268" font-family="Helvetica,sans-Serif" font-size="10.00">+ getContratos()</text>
<text text-anchor="start" x="8" y="-257" font-family="Helvetica,sans-Serif" font-size="10.00">+ getuser()</text>
<text text-anchor="start" x="8" y="-246" font-family="Helvetica,sans-Serif" font-size="10.00">+ getDepartamentos()</text>
<text text-anchor="start" x="8" y="-235" font-family="Helvetica,sans-Serif" font-size="10.00">+ getCargos()</text>
<text text-anchor="start" x="8" y="-224" font-family="Helvetica,sans-Serif" font-size="10.00">+ comprobarContratoActivo()</text>
</a>
</g>
</g>
<!-- Node2&#45;&gt;Node1 -->
<g id="edge1" class="edge"><title>Node2&#45;&gt;Node1</title>
<path fill="none" stroke="midnightblue" d="M94.9285,-207.064C99.1583,-194.179 103.569,-180.743 107.853,-167.695"/>
<polygon fill="none" stroke="midnightblue" points="91.5282,-206.201 91.7344,-216.794 98.179,-208.384 91.5282,-206.201"/>
</g>
<!-- Node3 -->
<g id="node3" class="node"><title>Node3</title>
<polygon fill="white" stroke="#bfbfbf" points="158.5,-255.5 158.5,-312.5 243.5,-312.5 243.5,-255.5 158.5,-255.5"/>
<text text-anchor="middle" x="201" y="-300.5" font-family="Helvetica,sans-Serif" font-size="10.00">SessionFactory</text>
<polyline fill="none" stroke="#bfbfbf" points="158.5,-293.5 243.5,-293.5 "/>
<text text-anchor="middle" x="201" y="-281.5" font-family="Helvetica,sans-Serif" font-size="10.00"> </text>
<polyline fill="none" stroke="#bfbfbf" points="158.5,-274.5 243.5,-274.5 "/>
<text text-anchor="middle" x="201" y="-262.5" font-family="Helvetica,sans-Serif" font-size="10.00"> </text>
</g>
<!-- Node3&#45;&gt;Node1 -->
<g id="edge2" class="edge"><title>Node3&#45;&gt;Node1</title>
<path fill="none" stroke="#404040" d="M191.823,-255.469C185.161,-235.483 175.725,-207.176 166.453,-179.359"/>
<polygon fill="none" stroke="#404040" points="166.432,-179.296 160.74,-174.869 162.637,-167.912 168.33,-172.339 166.432,-179.296"/>
<text text-anchor="middle" x="208.5" y="-189.5" font-family="Helvetica,sans-Serif" font-size="10.00"> &#45;sessionFactory</text>
</g>
</g>
</svg>
