<?xml version="1.0" encoding="UTF-8" standalone="no"?>
<!DOCTYPE svg PUBLIC "-//W3C//DTD SVG 1.1//EN"
 "http://www.w3.org/Graphics/SVG/1.1/DTD/svg11.dtd">
<!-- Generated by graphviz version 2.30.1 (20130214.1330)
 -->
<!-- Title: gestorempleados.persistencia.Empleado Pages: 1 -->
<svg width="540pt" height="702pt"
 viewBox="0.00 0.00 540.00 702.00" xmlns="http://www.w3.org/2000/svg" xmlns:xlink="http://www.w3.org/1999/xlink">
<g id="graph0" class="graph" transform="scale(1 1) rotate(0) translate(4 698)">
<title>gestorempleados.persistencia.Empleado</title>
<polygon fill="white" stroke="white" points="-4,5 -4,-698 537,-698 537,5 -4,5"/>
<!-- Node1 -->
<g id="node1" class="node"><title>Node1</title>
<polygon fill="#bfbfbf" stroke="black" points="191.5,-1 191.5,-575 340.5,-575 340.5,-1 191.5,-1"/>
<text text-anchor="start" x="199.5" y="-563" font-family="Helvetica,sans-Serif" font-size="10.00">gestorempleados.persistencia.</text>
<text text-anchor="middle" x="266" y="-552" font-family="Helvetica,sans-Serif" font-size="10.00">Empleado</text>
<polyline fill="none" stroke="black" points="191.5,-545 340.5,-545 "/>
<text text-anchor="start" x="199.5" y="-533" font-family="Helvetica,sans-Serif" font-size="10.00">&#45; dni</text>
<text text-anchor="start" x="199.5" y="-522" font-family="Helvetica,sans-Serif" font-size="10.00">&#45; nss</text>
<text text-anchor="start" x="199.5" y="-511" font-family="Helvetica,sans-Serif" font-size="10.00">&#45; nombre</text>
<text text-anchor="start" x="199.5" y="-500" font-family="Helvetica,sans-Serif" font-size="10.00">&#45; apellido1</text>
<text text-anchor="start" x="199.5" y="-489" font-family="Helvetica,sans-Serif" font-size="10.00">&#45; apellido2</text>
<text text-anchor="start" x="199.5" y="-478" font-family="Helvetica,sans-Serif" font-size="10.00">&#45; nacionalidad</text>
<text text-anchor="start" x="199.5" y="-467" font-family="Helvetica,sans-Serif" font-size="10.00">&#45; direccion</text>
<text text-anchor="start" x="199.5" y="-456" font-family="Helvetica,sans-Serif" font-size="10.00">&#45; poblacion</text>
<text text-anchor="start" x="199.5" y="-445" font-family="Helvetica,sans-Serif" font-size="10.00">&#45; telefono</text>
<text text-anchor="start" x="199.5" y="-434" font-family="Helvetica,sans-Serif" font-size="10.00">&#45; titulacion</text>
<text text-anchor="start" x="199.5" y="-423" font-family="Helvetica,sans-Serif" font-size="10.00">&#45; experiencia</text>
<text text-anchor="start" x="199.5" y="-412" font-family="Helvetica,sans-Serif" font-size="10.00">&#45; cuentaBancaria</text>
<text text-anchor="start" x="199.5" y="-401" font-family="Helvetica,sans-Serif" font-size="10.00">&#45; foto</text>
<polyline fill="none" stroke="black" points="191.5,-394 340.5,-394 "/>
<text text-anchor="start" x="199.5" y="-382" font-family="Helvetica,sans-Serif" font-size="10.00">+ Empleado()</text>
<text text-anchor="start" x="199.5" y="-371" font-family="Helvetica,sans-Serif" font-size="10.00">+ Empleado()</text>
<text text-anchor="start" x="199.5" y="-360" font-family="Helvetica,sans-Serif" font-size="10.00">+ Empleado()</text>
<text text-anchor="start" x="199.5" y="-349" font-family="Helvetica,sans-Serif" font-size="10.00">+ getDni()</text>
<text text-anchor="start" x="199.5" y="-338" font-family="Helvetica,sans-Serif" font-size="10.00">+ setDni()</text>
<text text-anchor="start" x="199.5" y="-327" font-family="Helvetica,sans-Serif" font-size="10.00">+ getNss()</text>
<text text-anchor="start" x="199.5" y="-316" font-family="Helvetica,sans-Serif" font-size="10.00">+ setNss()</text>
<text text-anchor="start" x="199.5" y="-305" font-family="Helvetica,sans-Serif" font-size="10.00">+ getNombre()</text>
<text text-anchor="start" x="199.5" y="-294" font-family="Helvetica,sans-Serif" font-size="10.00">+ setNombre()</text>
<text text-anchor="start" x="199.5" y="-283" font-family="Helvetica,sans-Serif" font-size="10.00">+ getApellido1()</text>
<text text-anchor="start" x="199.5" y="-272" font-family="Helvetica,sans-Serif" font-size="10.00">+ setApellido1()</text>
<text text-anchor="start" x="199.5" y="-261" font-family="Helvetica,sans-Serif" font-size="10.00">+ getApellido2()</text>
<text text-anchor="start" x="199.5" y="-250" font-family="Helvetica,sans-Serif" font-size="10.00">+ setApellido2()</text>
<text text-anchor="start" x="199.5" y="-239" font-family="Helvetica,sans-Serif" font-size="10.00">+ getNacionalidad()</text>
<text text-anchor="start" x="199.5" y="-228" font-family="Helvetica,sans-Serif" font-size="10.00">+ setNacionalidad()</text>
<text text-anchor="start" x="199.5" y="-217" font-family="Helvetica,sans-Serif" font-size="10.00">+ getDireccion()</text>
<text text-anchor="start" x="199.5" y="-206" font-family="Helvetica,sans-Serif" font-size="10.00">+ setDireccion()</text>
<text text-anchor="start" x="199.5" y="-195" font-family="Helvetica,sans-Serif" font-size="10.00">+ getPoblacion()</text>
<text text-anchor="start" x="199.5" y="-184" font-family="Helvetica,sans-Serif" font-size="10.00">+ setPoblacion()</text>
<text text-anchor="start" x="199.5" y="-173" font-family="Helvetica,sans-Serif" font-size="10.00">+ getTelefono()</text>
<text text-anchor="start" x="199.5" y="-162" font-family="Helvetica,sans-Serif" font-size="10.00">+ setTelefono()</text>
<text text-anchor="start" x="199.5" y="-151" font-family="Helvetica,sans-Serif" font-size="10.00">+ getFechaNacimiento()</text>
<text text-anchor="start" x="199.5" y="-140" font-family="Helvetica,sans-Serif" font-size="10.00">+ setFechaNacimiento()</text>
<text text-anchor="start" x="199.5" y="-129" font-family="Helvetica,sans-Serif" font-size="10.00">+ getTitulacion()</text>
<text text-anchor="start" x="199.5" y="-118" font-family="Helvetica,sans-Serif" font-size="10.00">+ setTitulacion()</text>
<text text-anchor="start" x="199.5" y="-107" font-family="Helvetica,sans-Serif" font-size="10.00">+ getExperiencia()</text>
<text text-anchor="start" x="199.5" y="-96" font-family="Helvetica,sans-Serif" font-size="10.00">+ setExperiencia()</text>
<text text-anchor="start" x="199.5" y="-85" font-family="Helvetica,sans-Serif" font-size="10.00">+ getCuentaBancaria()</text>
<text text-anchor="start" x="199.5" y="-74" font-family="Helvetica,sans-Serif" font-size="10.00">+ setCuentaBancaria()</text>
<text text-anchor="start" x="199.5" y="-63" font-family="Helvetica,sans-Serif" font-size="10.00">+ getFoto()</text>
<text text-anchor="start" x="199.5" y="-52" font-family="Helvetica,sans-Serif" font-size="10.00">+ setFoto()</text>
<text text-anchor="start" x="199.5" y="-41" font-family="Helvetica,sans-Serif" font-size="10.00">+ getContratos()</text>
<text text-anchor="start" x="199.5" y="-30" font-family="Helvetica,sans-Serif" font-size="10.00">+ setContratos()</text>
<text text-anchor="start" x="199.5" y="-19" font-family="Helvetica,sans-Serif" font-size="10.00">+ getIdiomas()</text>
<text text-anchor="start" x="199.5" y="-8" font-family="Helvetica,sans-Serif" font-size="10.00">+ setIdiomas()</text>
</g>
<!-- Node2 -->
<g id="node2" class="node"><title>Node2</title>
<polygon fill="white" stroke="#bfbfbf" points="-0.5,-630.5 -0.5,-687.5 66.5,-687.5 66.5,-630.5 -0.5,-630.5"/>
<text text-anchor="middle" x="33" y="-675.5" font-family="Helvetica,sans-Serif" font-size="10.00">Serializable</text>
<polyline fill="none" stroke="#bfbfbf" points="-0.5,-668.5 66.5,-668.5 "/>
<text text-anchor="middle" x="33" y="-656.5" font-family="Helvetica,sans-Serif" font-size="10.00"> </text>
<polyline fill="none" stroke="#bfbfbf" points="-0.5,-649.5 66.5,-649.5 "/>
<text text-anchor="middle" x="33" y="-637.5" font-family="Helvetica,sans-Serif" font-size="10.00"> </text>
</g>
<!-- Node2&#45;&gt;Node1 -->
<g id="edge1" class="edge"><title>Node2&#45;&gt;Node1</title>
<path fill="none" stroke="midnightblue" d="M56.0326,-621.524C87.2602,-572.069 144.51,-481.403 191.35,-407.223"/>
<polygon fill="none" stroke="midnightblue" points="52.8926,-619.941 50.5129,-630.265 58.8114,-623.678 52.8926,-619.941"/>
</g>
<!-- Node3 -->
<g id="node3" class="node"><title>Node3</title>
<polygon fill="white" stroke="#bfbfbf" points="84.5,-625 84.5,-693 257.5,-693 257.5,-625 84.5,-625"/>
<text text-anchor="start" x="92.5" y="-681" font-family="Helvetica,sans-Serif" font-size="10.00">Set&lt; gestorempleados.persistencia.</text>
<text text-anchor="middle" x="171" y="-670" font-family="Helvetica,sans-Serif" font-size="10.00">Idiomas &gt;</text>
<polyline fill="none" stroke="#bfbfbf" points="84.5,-663 257.5,-663 "/>
<text text-anchor="middle" x="171" y="-651" font-family="Helvetica,sans-Serif" font-size="10.00"> </text>
<polyline fill="none" stroke="#bfbfbf" points="84.5,-644 257.5,-644 "/>
<text text-anchor="middle" x="171" y="-632" font-family="Helvetica,sans-Serif" font-size="10.00"> </text>
</g>
<!-- Node3&#45;&gt;Node1 -->
<g id="edge2" class="edge"><title>Node3&#45;&gt;Node1</title>
<path fill="none" stroke="#404040" d="M179.514,-624.929C182.263,-614.251 185.566,-601.421 189.254,-587.096"/>
<polygon fill="none" stroke="#404040" points="189.3,-586.92 186.922,-580.112 192.292,-575.299 194.669,-582.107 189.3,-586.92"/>
<text text-anchor="middle" x="207" y="-597.5" font-family="Helvetica,sans-Serif" font-size="10.00"> &#45;idiomas</text>
</g>
<!-- Node4 -->
<g id="node4" class="node"><title>Node4</title>
<polygon fill="white" stroke="#bfbfbf" points="275.5,-625 275.5,-693 448.5,-693 448.5,-625 275.5,-625"/>
<text text-anchor="start" x="283.5" y="-681" font-family="Helvetica,sans-Serif" font-size="10.00">Set&lt; gestorempleados.persistencia.</text>
<text text-anchor="middle" x="362" y="-670" font-family="Helvetica,sans-Serif" font-size="10.00">Contrato &gt;</text>
<polyline fill="none" stroke="#bfbfbf" points="275.5,-663 448.5,-663 "/>
<text text-anchor="middle" x="362" y="-651" font-family="Helvetica,sans-Serif" font-size="10.00"> </text>
<polyline fill="none" stroke="#bfbfbf" points="275.5,-644 448.5,-644 "/>
<text text-anchor="middle" x="362" y="-632" font-family="Helvetica,sans-Serif" font-size="10.00"> </text>
</g>
<!-- Node4&#45;&gt;Node1 -->
<g id="edge3" class="edge"><title>Node4&#45;&gt;Node1</title>
<path fill="none" stroke="#404040" d="M353.396,-624.929C350.618,-614.251 347.28,-601.421 343.553,-587.096"/>
<polygon fill="none" stroke="#404040" points="343.506,-586.913 338.124,-582.113 340.484,-575.299 345.866,-580.099 343.506,-586.913"/>
<text text-anchor="middle" x="371.5" y="-597.5" font-family="Helvetica,sans-Serif" font-size="10.00"> &#45;contratos</text>
</g>
<!-- Node5 -->
<g id="node5" class="node"><title>Node5</title>
<polygon fill="white" stroke="#bfbfbf" points="466.5,-630.5 466.5,-687.5 503.5,-687.5 503.5,-630.5 466.5,-630.5"/>
<text text-anchor="middle" x="485" y="-675.5" font-family="Helvetica,sans-Serif" font-size="10.00">Date</text>
<polyline fill="none" stroke="#bfbfbf" points="466.5,-668.5 503.5,-668.5 "/>
<text text-anchor="middle" x="485" y="-656.5" font-family="Helvetica,sans-Serif" font-size="10.00"> </text>
<polyline fill="none" stroke="#bfbfbf" points="466.5,-649.5 503.5,-649.5 "/>
<text text-anchor="middle" x="485" y="-637.5" font-family="Helvetica,sans-Serif" font-size="10.00"> </text>
</g>
<!-- Node5&#45;&gt;Node1 -->
<g id="edge4" class="edge"><title>Node5&#45;&gt;Node1</title>
<path fill="none" stroke="#404040" d="M468.539,-630.265C442.84,-586.964 391.508,-500.472 346.954,-425.402"/>
<polygon fill="none" stroke="#404040" points="346.84,-425.21 340.338,-422.092 340.715,-414.89 347.218,-418.009 346.84,-425.21"/>
<text text-anchor="middle" x="492.5" y="-597.5" font-family="Helvetica,sans-Serif" font-size="10.00"> &#45;fechaNacimiento</text>
</g>
</g>
</svg>
