<?xml version="1.0" encoding="UTF-8" standalone="no"?>
<!DOCTYPE svg PUBLIC "-//W3C//DTD SVG 1.1//EN"
 "http://www.w3.org/Graphics/SVG/1.1/DTD/svg11.dtd">
<!-- Generated by graphviz version 2.30.1 (20130214.1330)
 -->
<!-- Title: gestorempleados.persistencia.Idiomas Pages: 1 -->
<svg width="529pt" height="930pt"
 viewBox="0.00 0.00 529.00 930.00" xmlns="http://www.w3.org/2000/svg" xmlns:xlink="http://www.w3.org/1999/xlink">
<g id="graph0" class="graph" transform="scale(1 1) rotate(0) translate(4 926)">
<title>gestorempleados.persistencia.Idiomas</title>
<polygon fill="white" stroke="white" points="-4,5 -4,-926 526,-926 526,5 -4,5"/>
<!-- Node1 -->
<g id="node1" class="node"><title>Node1</title>
<polygon fill="#bfbfbf" stroke="black" points="17.5,-1 17.5,-179 166.5,-179 166.5,-1 17.5,-1"/>
<text text-anchor="start" x="25.5" y="-167" font-family="Helvetica,sans-Serif" font-size="10.00">gestorempleados.persistencia.</text>
<text text-anchor="middle" x="92" y="-156" font-family="Helvetica,sans-Serif" font-size="10.00">Idiomas</text>
<polyline fill="none" stroke="black" points="17.5,-149 166.5,-149 "/>
<text text-anchor="start" x="25.5" y="-137" font-family="Helvetica,sans-Serif" font-size="10.00">&#45; id</text>
<text text-anchor="start" x="25.5" y="-126" font-family="Helvetica,sans-Serif" font-size="10.00">&#45; idioma</text>
<polyline fill="none" stroke="black" points="17.5,-119 166.5,-119 "/>
<text text-anchor="start" x="25.5" y="-107" font-family="Helvetica,sans-Serif" font-size="10.00">+ Idiomas()</text>
<text text-anchor="start" x="25.5" y="-96" font-family="Helvetica,sans-Serif" font-size="10.00">+ Idiomas()</text>
<text text-anchor="start" x="25.5" y="-85" font-family="Helvetica,sans-Serif" font-size="10.00">+ Idiomas()</text>
<text text-anchor="start" x="25.5" y="-74" font-family="Helvetica,sans-Serif" font-size="10.00">+ getId()</text>
<text text-anchor="start" x="25.5" y="-63" font-family="Helvetica,sans-Serif" font-size="10.00">+ setId()</text>
<text text-anchor="start" x="25.5" y="-52" font-family="Helvetica,sans-Serif" font-size="10.00">+ getEmpleado()</text>
<text text-anchor="start" x="25.5" y="-41" font-family="Helvetica,sans-Serif" font-size="10.00">+ setEmpleado()</text>
<text text-anchor="start" x="25.5" y="-30" font-family="Helvetica,sans-Serif" font-size="10.00">+ getIdioma()</text>
<text text-anchor="start" x="25.5" y="-19" font-family="Helvetica,sans-Serif" font-size="10.00">+ setIdioma()</text>
<text text-anchor="start" x="25.5" y="-8" font-family="Helvetica,sans-Serif" font-size="10.00">+ toString()</text>
</g>
<!-- Node2 -->
<g id="node2" class="node"><title>Node2</title>
<polygon fill="white" stroke="#bfbfbf" points="-0.5,-858.5 -0.5,-915.5 66.5,-915.5 66.5,-858.5 -0.5,-858.5"/>
<text text-anchor="middle" x="33" y="-903.5" font-family="Helvetica,sans-Serif" font-size="10.00">Serializable</text>
<polyline fill="none" stroke="#bfbfbf" points="-0.5,-896.5 66.5,-896.5 "/>
<text text-anchor="middle" x="33" y="-884.5" font-family="Helvetica,sans-Serif" font-size="10.00"> </text>
<polyline fill="none" stroke="#bfbfbf" points="-0.5,-877.5 66.5,-877.5 "/>
<text text-anchor="middle" x="33" y="-865.5" font-family="Helvetica,sans-Serif" font-size="10.00"> </text>
</g>
<!-- Node2&#45;&gt;Node1 -->
<g id="edge1" class="edge"><title>Node2&#45;&gt;Node1</title>
<path fill="none" stroke="midnightblue" d="M35.8225,-847.969C44.7672,-727.442 72.6478,-351.762 85.4515,-179.238"/>
<polygon fill="none" stroke="midnightblue" points="32.315,-847.94 35.0652,-858.172 39.2958,-848.458 32.315,-847.94"/>
</g>
<!-- Node3 -->
<g id="node3" class="node"><title>Node3</title>
<g id="a_node3"><a xlink:href="classgestorempleados_1_1persistencia_1_1_empleado.xhtml" target="_top" xlink:title="{gestorempleados.persistencia.\lEmpleado\n|&#45; dni\l&#45; nss\l&#45; nombre\l&#45; apellido1\l&#45; apellido2\l&#45; nacionalidad\l&#45; direccion\l&#45; poblacion\l&#45; telefono\l&#45; titulacion\l&#45; experiencia\l&#45; cuentaBancaria\l&#45; foto\l|+ Empleado()\l+ Empleado()\l+ Empleado()\l+ getDni()\l+ setDni()\l+ getNss()\l+ setNss()\l+ getNombre()\l+ setNombre()\l+ getApellido1()\l+ setApellido1()\l+ getApellido2()\l+ setApellido2()\l+ getNacionalidad()\l+ setNacionalidad()\l+ getDireccion()\l+ setDireccion()\l+ getPoblacion()\l+ setPoblacion()\l+ getTelefono()\l+ setTelefono()\l+ getFechaNacimiento()\l+ setFechaNacimiento()\l+ getTitulacion()\l+ setTitulacion()\l+ getExperiencia()\l+ setExperiencia()\l+ getCuentaBancaria()\l+ setCuentaBancaria()\l+ getFoto()\l+ setFoto()\l+ getContratos()\l+ setContratos()\l+ getIdiomas()\l+ setIdiomas()\l}">
<polygon fill="white" stroke="black" points="96.5,-229 96.5,-803 245.5,-803 245.5,-229 96.5,-229"/>
<text text-anchor="start" x="104.5" y="-791" font-family="Helvetica,sans-Serif" font-size="10.00">gestorempleados.persistencia.</text>
<text text-anchor="middle" x="171" y="-780" font-family="Helvetica,sans-Serif" font-size="10.00">Empleado</text>
<polyline fill="none" stroke="black" points="96.5,-773 245.5,-773 "/>
<text text-anchor="start" x="104.5" y="-761" font-family="Helvetica,sans-Serif" font-size="10.00">&#45; dni</text>
<text text-anchor="start" x="104.5" y="-750" font-family="Helvetica,sans-Serif" font-size="10.00">&#45; nss</text>
<text text-anchor="start" x="104.5" y="-739" font-family="Helvetica,sans-Serif" font-size="10.00">&#45; nombre</text>
<text text-anchor="start" x="104.5" y="-728" font-family="Helvetica,sans-Serif" font-size="10.00">&#45; apellido1</text>
<text text-anchor="start" x="104.5" y="-717" font-family="Helvetica,sans-Serif" font-size="10.00">&#45; apellido2</text>
<text text-anchor="start" x="104.5" y="-706" font-family="Helvetica,sans-Serif" font-size="10.00">&#45; nacionalidad</text>
<text text-anchor="start" x="104.5" y="-695" font-family="Helvetica,sans-Serif" font-size="10.00">&#45; direccion</text>
<text text-anchor="start" x="104.5" y="-684" font-family="Helvetica,sans-Serif" font-size="10.00">&#45; poblacion</text>
<text text-anchor="start" x="104.5" y="-673" font-family="Helvetica,sans-Serif" font-size="10.00">&#45; telefono</text>
<text text-anchor="start" x="104.5" y="-662" font-family="Helvetica,sans-Serif" font-size="10.00">&#45; titulacion</text>
<text text-anchor="start" x="104.5" y="-651" font-family="Helvetica,sans-Serif" font-size="10.00">&#45; experiencia</text>
<text text-anchor="start" x="104.5" y="-640" font-family="Helvetica,sans-Serif" font-size="10.00">&#45; cuentaBancaria</text>
<text text-anchor="start" x="104.5" y="-629" font-family="Helvetica,sans-Serif" font-size="10.00">&#45; foto</text>
<polyline fill="none" stroke="black" points="96.5,-622 245.5,-622 "/>
<text text-anchor="start" x="104.5" y="-610" font-family="Helvetica,sans-Serif" font-size="10.00">+ Empleado()</text>
<text text-anchor="start" x="104.5" y="-599" font-family="Helvetica,sans-Serif" font-size="10.00">+ Empleado()</text>
<text text-anchor="start" x="104.5" y="-588" font-family="Helvetica,sans-Serif" font-size="10.00">+ Empleado()</text>
<text text-anchor="start" x="104.5" y="-577" font-family="Helvetica,sans-Serif" font-size="10.00">+ getDni()</text>
<text text-anchor="start" x="104.5" y="-566" font-family="Helvetica,sans-Serif" font-size="10.00">+ setDni()</text>
<text text-anchor="start" x="104.5" y="-555" font-family="Helvetica,sans-Serif" font-size="10.00">+ getNss()</text>
<text text-anchor="start" x="104.5" y="-544" font-family="Helvetica,sans-Serif" font-size="10.00">+ setNss()</text>
<text text-anchor="start" x="104.5" y="-533" font-family="Helvetica,sans-Serif" font-size="10.00">+ getNombre()</text>
<text text-anchor="start" x="104.5" y="-522" font-family="Helvetica,sans-Serif" font-size="10.00">+ setNombre()</text>
<text text-anchor="start" x="104.5" y="-511" font-family="Helvetica,sans-Serif" font-size="10.00">+ getApellido1()</text>
<text text-anchor="start" x="104.5" y="-500" font-family="Helvetica,sans-Serif" font-size="10.00">+ setApellido1()</text>
<text text-anchor="start" x="104.5" y="-489" font-family="Helvetica,sans-Serif" font-size="10.00">+ getApellido2()</text>
<text text-anchor="start" x="104.5" y="-478" font-family="Helvetica,sans-Serif" font-size="10.00">+ setApellido2()</text>
<text text-anchor="start" x="104.5" y="-467" font-family="Helvetica,sans-Serif" font-size="10.00">+ getNacionalidad()</text>
<text text-anchor="start" x="104.5" y="-456" font-family="Helvetica,sans-Serif" font-size="10.00">+ setNacionalidad()</text>
<text text-anchor="start" x="104.5" y="-445" font-family="Helvetica,sans-Serif" font-size="10.00">+ getDireccion()</text>
<text text-anchor="start" x="104.5" y="-434" font-family="Helvetica,sans-Serif" font-size="10.00">+ setDireccion()</text>
<text text-anchor="start" x="104.5" y="-423" font-family="Helvetica,sans-Serif" font-size="10.00">+ getPoblacion()</text>
<text text-anchor="start" x="104.5" y="-412" font-family="Helvetica,sans-Serif" font-size="10.00">+ setPoblacion()</text>
<text text-anchor="start" x="104.5" y="-401" font-family="Helvetica,sans-Serif" font-size="10.00">+ getTelefono()</text>
<text text-anchor="start" x="104.5" y="-390" font-family="Helvetica,sans-Serif" font-size="10.00">+ setTelefono()</text>
<text text-anchor="start" x="104.5" y="-379" font-family="Helvetica,sans-Serif" font-size="10.00">+ getFechaNacimiento()</text>
<text text-anchor="start" x="104.5" y="-368" font-family="Helvetica,sans-Serif" font-size="10.00">+ setFechaNacimiento()</text>
<text text-anchor="start" x="104.5" y="-357" font-family="Helvetica,sans-Serif" font-size="10.00">+ getTitulacion()</text>
<text text-anchor="start" x="104.5" y="-346" font-family="Helvetica,sans-Serif" font-size="10.00">+ setTitulacion()</text>
<text text-anchor="start" x="104.5" y="-335" font-family="Helvetica,sans-Serif" font-size="10.00">+ getExperiencia()</text>
<text text-anchor="start" x="104.5" y="-324" font-family="Helvetica,sans-Serif" font-size="10.00">+ setExperiencia()</text>
<text text-anchor="start" x="104.5" y="-313" font-family="Helvetica,sans-Serif" font-size="10.00">+ getCuentaBancaria()</text>
<text text-anchor="start" x="104.5" y="-302" font-family="Helvetica,sans-Serif" font-size="10.00">+ setCuentaBancaria()</text>
<text text-anchor="start" x="104.5" y="-291" font-family="Helvetica,sans-Serif" font-size="10.00">+ getFoto()</text>
<text text-anchor="start" x="104.5" y="-280" font-family="Helvetica,sans-Serif" font-size="10.00">+ setFoto()</text>
<text text-anchor="start" x="104.5" y="-269" font-family="Helvetica,sans-Serif" font-size="10.00">+ getContratos()</text>
<text text-anchor="start" x="104.5" y="-258" font-family="Helvetica,sans-Serif" font-size="10.00">+ setContratos()</text>
<text text-anchor="start" x="104.5" y="-247" font-family="Helvetica,sans-Serif" font-size="10.00">+ getIdiomas()</text>
<text text-anchor="start" x="104.5" y="-236" font-family="Helvetica,sans-Serif" font-size="10.00">+ setIdiomas()</text>
</a>
</g>
</g>
<!-- Node2&#45;&gt;Node3 -->
<g id="edge3" class="edge"><title>Node2&#45;&gt;Node3</title>
<path fill="none" stroke="midnightblue" d="M56.1487,-849.344C58.9633,-844.278 61.6645,-839.072 64,-834 75.48,-809.071 86.3674,-782.545 96.4898,-755.862"/>
<polygon fill="none" stroke="midnightblue" points="52.9752,-847.841 51.0148,-858.253 59.0403,-851.336 52.9752,-847.841"/>
</g>
<!-- Node3&#45;&gt;Node1 -->
<g id="edge2" class="edge"><title>Node3&#45;&gt;Node1</title>
<path fill="none" stroke="#404040" d="M117.704,-228.954C115.247,-215.766 112.871,-203.016 110.622,-190.946"/>
<polygon fill="none" stroke="#404040" points="110.615,-190.908 105.584,-185.743 108.417,-179.112 113.448,-184.277 110.615,-190.908"/>
<text text-anchor="middle" x="138.5" y="-201.5" font-family="Helvetica,sans-Serif" font-size="10.00"> &#45;empleado</text>
</g>
<!-- Node4 -->
<g id="node4" class="node"><title>Node4</title>
<polygon fill="white" stroke="#bfbfbf" points="84.5,-853 84.5,-921 257.5,-921 257.5,-853 84.5,-853"/>
<text text-anchor="start" x="92.5" y="-909" font-family="Helvetica,sans-Serif" font-size="10.00">Set&lt; gestorempleados.persistencia.</text>
<text text-anchor="middle" x="171" y="-898" font-family="Helvetica,sans-Serif" font-size="10.00">Idiomas &gt;</text>
<polyline fill="none" stroke="#bfbfbf" points="84.5,-891 257.5,-891 "/>
<text text-anchor="middle" x="171" y="-879" font-family="Helvetica,sans-Serif" font-size="10.00"> </text>
<polyline fill="none" stroke="#bfbfbf" points="84.5,-872 257.5,-872 "/>
<text text-anchor="middle" x="171" y="-860" font-family="Helvetica,sans-Serif" font-size="10.00"> </text>
</g>
<!-- Node4&#45;&gt;Node3 -->
<g id="edge4" class="edge"><title>Node4&#45;&gt;Node3</title>
<path fill="none" stroke="#404040" d="M171,-852.929C171,-842.357 171,-829.675 171,-815.521"/>
<polygon fill="none" stroke="#404040" points="171,-815.299 167,-809.299 171,-803.299 175,-809.299 171,-815.299"/>
<text text-anchor="middle" x="191" y="-825.5" font-family="Helvetica,sans-Serif" font-size="10.00"> &#45;idiomas</text>
</g>
<!-- Node5 -->
<g id="node5" class="node"><title>Node5</title>
<polygon fill="white" stroke="#bfbfbf" points="275.5,-853 275.5,-921 448.5,-921 448.5,-853 275.5,-853"/>
<text text-anchor="start" x="283.5" y="-909" font-family="Helvetica,sans-Serif" font-size="10.00">Set&lt; gestorempleados.persistencia.</text>
<text text-anchor="middle" x="362" y="-898" font-family="Helvetica,sans-Serif" font-size="10.00">Contrato &gt;</text>
<polyline fill="none" stroke="#bfbfbf" points="275.5,-891 448.5,-891 "/>
<text text-anchor="middle" x="362" y="-879" font-family="Helvetica,sans-Serif" font-size="10.00"> </text>
<polyline fill="none" stroke="#bfbfbf" points="275.5,-872 448.5,-872 "/>
<text text-anchor="middle" x="362" y="-860" font-family="Helvetica,sans-Serif" font-size="10.00"> </text>
</g>
<!-- Node5&#45;&gt;Node3 -->
<g id="edge5" class="edge"><title>Node5&#45;&gt;Node3</title>
<path fill="none" stroke="#404040" d="M344.882,-852.929C323.675,-811.958 286.072,-739.313 251.248,-672.034"/>
<polygon fill="none" stroke="#404040" points="251.202,-671.945 244.891,-668.455 245.685,-661.288 251.996,-664.777 251.202,-671.945"/>
<text text-anchor="middle" x="358.5" y="-825.5" font-family="Helvetica,sans-Serif" font-size="10.00"> &#45;contratos</text>
</g>
<!-- Node6 -->
<g id="node6" class="node"><title>Node6</title>
<polygon fill="white" stroke="#bfbfbf" points="466.5,-858.5 466.5,-915.5 503.5,-915.5 503.5,-858.5 466.5,-858.5"/>
<text text-anchor="middle" x="485" y="-903.5" font-family="Helvetica,sans-Serif" font-size="10.00">Date</text>
<polyline fill="none" stroke="#bfbfbf" points="466.5,-896.5 503.5,-896.5 "/>
<text text-anchor="middle" x="485" y="-884.5" font-family="Helvetica,sans-Serif" font-size="10.00"> </text>
<polyline fill="none" stroke="#bfbfbf" points="466.5,-877.5 503.5,-877.5 "/>
<text text-anchor="middle" x="485" y="-865.5" font-family="Helvetica,sans-Serif" font-size="10.00"> </text>
</g>
<!-- Node6&#45;&gt;Node3 -->
<g id="edge6" class="edge"><title>Node6&#45;&gt;Node3</title>
<path fill="none" stroke="#404040" d="M466.38,-863.276C463.259,-859.5 460.046,-855.633 457,-852 389.072,-770.99 311.103,-679.779 253.749,-613.01"/>
<polygon fill="none" stroke="#404040" points="253.616,-612.856 246.672,-610.912 245.796,-603.754 252.74,-605.698 253.616,-612.856"/>
<text text-anchor="middle" x="481.5" y="-825.5" font-family="Helvetica,sans-Serif" font-size="10.00"> &#45;fechaNacimiento</text>
</g>
</g>
</svg>
