<?xml version="1.0" encoding="UTF-8" standalone="no"?>
<!DOCTYPE svg PUBLIC "-//W3C//DTD SVG 1.1//EN"
 "http://www.w3.org/Graphics/SVG/1.1/DTD/svg11.dtd">
<!-- Generated by graphviz version 2.30.1 (20130214.1330)
 -->
<!-- Title: gestorempleados.control.NegocioServer.validUser Pages: 1 -->
<svg width="320pt" height="87pt"
 viewBox="0.00 0.00 320.00 87.00" xmlns="http://www.w3.org/2000/svg" xmlns:xlink="http://www.w3.org/1999/xlink">
<g id="graph0" class="graph" transform="scale(1 1) rotate(0) translate(4 83)">
<title>gestorempleados.control.NegocioServer.validUser</title>
<polygon fill="white" stroke="white" points="-4,5 -4,-83 317,-83 317,5 -4,5"/>
<!-- Node1 -->
<g id="node1" class="node"><title>Node1</title>
<polygon fill="#bfbfbf" stroke="black" points="0,-24 0,-54 126,-54 126,-24 0,-24"/>
<text text-anchor="start" x="8" y="-42" font-family="Helvetica,sans-Serif" font-size="10.00">gestorempleados.control.</text>
<text text-anchor="middle" x="63" y="-31" font-family="Helvetica,sans-Serif" font-size="10.00">NegocioServer.validUser</text>
</g>
<!-- Node2 -->
<g id="node2" class="node"><title>Node2</title>
<g id="a_node2"><a xlink:href="interfacegestorempleados_1_1control_1_1i_control.xhtml#a8822d39fc4b69601f2e7b76e10512797" target="_top" xlink:title="gestorempleados.control.i\lControl.getuser">
<polygon fill="white" stroke="black" points="173,-49 173,-79 301,-79 301,-49 173,-49"/>
<text text-anchor="start" x="181" y="-67" font-family="Helvetica,sans-Serif" font-size="10.00">gestorempleados.control.i</text>
<text text-anchor="middle" x="237" y="-56" font-family="Helvetica,sans-Serif" font-size="10.00">Control.getuser</text>
</a>
</g>
</g>
<!-- Node1&#45;&gt;Node2 -->
<g id="edge1" class="edge"><title>Node1&#45;&gt;Node2</title>
<path fill="none" stroke="midnightblue" d="M126.096,-48.0256C137.974,-49.752 150.512,-51.5745 162.703,-53.3463"/>
<polygon fill="midnightblue" stroke="midnightblue" points="162.439,-56.8447 172.839,-54.8196 163.446,-49.9175 162.439,-56.8447"/>
</g>
<!-- Node3 -->
<g id="node3" class="node"><title>Node3</title>
<g id="a_node3"><a xlink:href="classgestorempleados_1_1persistencia_1_1_usuarios.xhtml#aefd3faa104371c1f676607c917c7fa26" target="_top" xlink:title="gestorempleados.persistencia.\lUsuarios.getPass">
<polygon fill="white" stroke="black" points="162.5,-0 162.5,-30 311.5,-30 311.5,-0 162.5,-0"/>
<text text-anchor="start" x="170.5" y="-18" font-family="Helvetica,sans-Serif" font-size="10.00">gestorempleados.persistencia.</text>
<text text-anchor="middle" x="237" y="-7" font-family="Helvetica,sans-Serif" font-size="10.00">Usuarios.getPass</text>
</a>
</g>
</g>
<!-- Node1&#45;&gt;Node3 -->
<g id="edge2" class="edge"><title>Node1&#45;&gt;Node3</title>
<path fill="none" stroke="midnightblue" d="M126.096,-30.3354C134.625,-29.1453 143.496,-27.9076 152.333,-26.6745"/>
<polygon fill="midnightblue" stroke="midnightblue" points="152.856,-30.1354 162.277,-25.287 151.889,-23.2026 152.856,-30.1354"/>
</g>
</g>
</svg>
