<?xml version="1.0" encoding="UTF-8" standalone="no"?>
<!DOCTYPE svg PUBLIC "-//W3C//DTD SVG 1.1//EN"
 "http://www.w3.org/Graphics/SVG/1.1/DTD/svg11.dtd">
<!-- Generated by graphviz version 2.30.1 (20130214.1330)
 -->
<!-- Title: gestorempleados.app.GestorEmpleadosServer Pages: 1 -->
<svg width="150pt" height="216pt"
 viewBox="0.00 0.00 150.00 216.00" xmlns="http://www.w3.org/2000/svg" xmlns:xlink="http://www.w3.org/1999/xlink">
<g id="graph0" class="graph" transform="scale(1 1) rotate(0) translate(4 212)">
<title>gestorempleados.app.GestorEmpleadosServer</title>
<polygon fill="white" stroke="white" points="-4,5 -4,-212 147,-212 147,5 -4,5"/>
<!-- Node1 -->
<g id="node1" class="node"><title>Node1</title>
<polygon fill="#bfbfbf" stroke="black" points="0,-1 0,-113 142,-113 142,-1 0,-1"/>
<text text-anchor="start" x="8" y="-101" font-family="Helvetica,sans-Serif" font-size="10.00">gestorempleados.app.Gestor</text>
<text text-anchor="middle" x="71" y="-90" font-family="Helvetica,sans-Serif" font-size="10.00">EmpleadosServer</text>
<polyline fill="none" stroke="black" points="0,-83 142,-83 "/>
<text text-anchor="start" x="8" y="-71" font-family="Helvetica,sans-Serif" font-size="10.00">&#45; contentPane</text>
<text text-anchor="start" x="8" y="-60" font-family="Helvetica,sans-Serif" font-size="10.00">&#45; btnStartServer</text>
<text text-anchor="start" x="8" y="-49" font-family="Helvetica,sans-Serif" font-size="10.00">&#45; status</text>
<text text-anchor="start" x="8" y="-38" font-family="Helvetica,sans-Serif" font-size="10.00">&#45; negocioRRHH</text>
<polyline fill="none" stroke="black" points="0,-31 142,-31 "/>
<text text-anchor="start" x="8" y="-19" font-family="Helvetica,sans-Serif" font-size="10.00">+ GestorEmpleadosServer()</text>
<text text-anchor="start" x="8" y="-8" font-family="Helvetica,sans-Serif" font-size="10.00">+ main()</text>
</g>
<!-- Node2 -->
<g id="node2" class="node"><title>Node2</title>
<polygon fill="white" stroke="#bfbfbf" points="46.5,-150.5 46.5,-207.5 95.5,-207.5 95.5,-150.5 46.5,-150.5"/>
<text text-anchor="middle" x="71" y="-195.5" font-family="Helvetica,sans-Serif" font-size="10.00">JFrame</text>
<polyline fill="none" stroke="#bfbfbf" points="46.5,-188.5 95.5,-188.5 "/>
<text text-anchor="middle" x="71" y="-176.5" font-family="Helvetica,sans-Serif" font-size="10.00"> </text>
<polyline fill="none" stroke="#bfbfbf" points="46.5,-169.5 95.5,-169.5 "/>
<text text-anchor="middle" x="71" y="-157.5" font-family="Helvetica,sans-Serif" font-size="10.00"> </text>
</g>
<!-- Node2&#45;&gt;Node1 -->
<g id="edge1" class="edge"><title>Node2&#45;&gt;Node1</title>
<path fill="none" stroke="midnightblue" d="M71,-140.398C71,-131.802 71,-122.49 71,-113.324"/>
<polygon fill="none" stroke="midnightblue" points="67.5001,-140.47 71,-150.47 74.5001,-140.47 67.5001,-140.47"/>
</g>
</g>
</svg>
