<?xml version="1.0" encoding="UTF-8" standalone="no"?>
<!DOCTYPE svg PUBLIC "-//W3C//DTD SVG 1.1//EN"
 "http://www.w3.org/Graphics/SVG/1.1/DTD/svg11.dtd">
<!-- Generated by graphviz version 2.30.1 (20130214.1330)
 -->
<!-- Title: gestorempleados.conector.ServerHilo Pages: 1 -->
<svg width="1073pt" height="478pt"
 viewBox="0.00 0.00 1073.00 478.00" xmlns="http://www.w3.org/2000/svg" xmlns:xlink="http://www.w3.org/1999/xlink">
<g id="graph0" class="graph" transform="scale(1 1) rotate(0) translate(4 474)">
<title>gestorempleados.conector.ServerHilo</title>
<polygon fill="white" stroke="white" points="-4,5 -4,-474 1070,-474 1070,5 -4,5"/>
<!-- Node1 -->
<g id="node1" class="node"><title>Node1</title>
<polygon fill="#bfbfbf" stroke="black" points="486,-0.5 486,-79.5 620,-79.5 620,-0.5 486,-0.5"/>
<text text-anchor="start" x="494" y="-67.5" font-family="Helvetica,sans-Serif" font-size="10.00">gestorempleados.conector.</text>
<text text-anchor="middle" x="553" y="-56.5" font-family="Helvetica,sans-Serif" font-size="10.00">ServerHilo</text>
<polyline fill="none" stroke="black" points="486,-49.5 620,-49.5 "/>
<text text-anchor="start" x="494" y="-37.5" font-family="Helvetica,sans-Serif" font-size="10.00">&#45; entrada</text>
<polyline fill="none" stroke="black" points="486,-30.5 620,-30.5 "/>
<text text-anchor="start" x="494" y="-18.5" font-family="Helvetica,sans-Serif" font-size="10.00">+ ServerHilo()</text>
<text text-anchor="start" x="494" y="-7.5" font-family="Helvetica,sans-Serif" font-size="10.00">+ run()</text>
</g>
<!-- Node2 -->
<g id="node2" class="node"><title>Node2</title>
<polygon fill="white" stroke="#bfbfbf" points="0,-178.5 0,-235.5 46,-235.5 46,-178.5 0,-178.5"/>
<text text-anchor="middle" x="23" y="-223.5" font-family="Helvetica,sans-Serif" font-size="10.00">Thread</text>
<polyline fill="none" stroke="#bfbfbf" points="0,-216.5 46,-216.5 "/>
<text text-anchor="middle" x="23" y="-204.5" font-family="Helvetica,sans-Serif" font-size="10.00"> </text>
<polyline fill="none" stroke="#bfbfbf" points="0,-197.5 46,-197.5 "/>
<text text-anchor="middle" x="23" y="-185.5" font-family="Helvetica,sans-Serif" font-size="10.00"> </text>
</g>
<!-- Node2&#45;&gt;Node1 -->
<g id="edge1" class="edge"><title>Node2&#45;&gt;Node1</title>
<path fill="none" stroke="midnightblue" d="M30.3442,-168.331C35.0424,-153.716 42.6723,-138.099 55,-128 119.84,-74.8841 365.141,-52.598 485.528,-44.7052"/>
<polygon fill="none" stroke="midnightblue" points="26.904,-167.633 27.5382,-178.209 33.6376,-169.546 26.904,-167.633"/>
</g>
<!-- Node3 -->
<g id="node3" class="node"><title>Node3</title>
<polygon fill="white" stroke="#bfbfbf" points="64.5,-178.5 64.5,-235.5 169.5,-235.5 169.5,-178.5 64.5,-178.5"/>
<text text-anchor="middle" x="117" y="-223.5" font-family="Helvetica,sans-Serif" font-size="10.00">CipherOutputStream</text>
<polyline fill="none" stroke="#bfbfbf" points="64.5,-216.5 169.5,-216.5 "/>
<text text-anchor="middle" x="117" y="-204.5" font-family="Helvetica,sans-Serif" font-size="10.00"> </text>
<polyline fill="none" stroke="#bfbfbf" points="64.5,-197.5 169.5,-197.5 "/>
<text text-anchor="middle" x="117" y="-185.5" font-family="Helvetica,sans-Serif" font-size="10.00"> </text>
</g>
<!-- Node3&#45;&gt;Node1 -->
<g id="edge2" class="edge"><title>Node3&#45;&gt;Node1</title>
<path fill="none" stroke="#404040" d="M133.571,-178.31C144.656,-161.789 160.564,-141.472 179,-128 266.034,-64.4008 392.334,-46.4348 473.572,-41.8287"/>
<polygon fill="none" stroke="#404040" points="473.73,-41.8209 479.523,-37.5257 485.715,-41.2206 479.923,-45.5157 473.73,-41.8209"/>
<text text-anchor="middle" x="259" y="-101.5" font-family="Helvetica,sans-Serif" font-size="10.00"> +escritorCifrado</text>
</g>
<!-- Node4 -->
<g id="node4" class="node"><title>Node4</title>
<polygon fill="white" stroke="#bfbfbf" points="188,-178.5 188,-235.5 294,-235.5 294,-178.5 188,-178.5"/>
<text text-anchor="middle" x="241" y="-223.5" font-family="Helvetica,sans-Serif" font-size="10.00">ObjectOutputStream</text>
<polyline fill="none" stroke="#bfbfbf" points="188,-216.5 294,-216.5 "/>
<text text-anchor="middle" x="241" y="-204.5" font-family="Helvetica,sans-Serif" font-size="10.00"> </text>
<polyline fill="none" stroke="#bfbfbf" points="188,-197.5 294,-197.5 "/>
<text text-anchor="middle" x="241" y="-185.5" font-family="Helvetica,sans-Serif" font-size="10.00"> </text>
</g>
<!-- Node4&#45;&gt;Node1 -->
<g id="edge3" class="edge"><title>Node4&#45;&gt;Node1</title>
<path fill="none" stroke="#404040" d="M257.571,-178.31C268.656,-161.789 284.564,-141.472 303,-128 353.775,-90.8971 421.699,-68.6015 473.932,-55.8845"/>
<polygon fill="none" stroke="#404040" points="474.156,-55.832 479.08,-50.5645 485.837,-53.0846 480.912,-58.3521 474.156,-55.832"/>
<text text-anchor="middle" x="374" y="-101.5" font-family="Helvetica,sans-Serif" font-size="10.00"> +escritor</text>
</g>
<!-- Node5 -->
<g id="node5" class="node"><title>Node5</title>
<polygon fill="white" stroke="#bfbfbf" points="312.5,-178.5 312.5,-235.5 397.5,-235.5 397.5,-178.5 312.5,-178.5"/>
<text text-anchor="middle" x="355" y="-223.5" font-family="Helvetica,sans-Serif" font-size="10.00">FileInputStream</text>
<polyline fill="none" stroke="#bfbfbf" points="312.5,-216.5 397.5,-216.5 "/>
<text text-anchor="middle" x="355" y="-204.5" font-family="Helvetica,sans-Serif" font-size="10.00"> </text>
<polyline fill="none" stroke="#bfbfbf" points="312.5,-197.5 397.5,-197.5 "/>
<text text-anchor="middle" x="355" y="-185.5" font-family="Helvetica,sans-Serif" font-size="10.00"> </text>
</g>
<!-- Node5&#45;&gt;Node1 -->
<g id="edge4" class="edge"><title>Node5&#45;&gt;Node1</title>
<path fill="none" stroke="#404040" d="M368.855,-178.479C377.885,-162.424 390.799,-142.537 406,-128 426.257,-108.629 451.593,-91.7022 475.497,-78.0561"/>
<polygon fill="none" stroke="#404040" points="475.507,-78.0503 478.806,-71.6377 485.994,-72.2161 482.695,-78.6286 475.507,-78.0503"/>
<text text-anchor="middle" x="452.5" y="-101.5" font-family="Helvetica,sans-Serif" font-size="10.00"> +fis</text>
</g>
<!-- Node6 -->
<g id="node6" class="node"><title>Node6</title>
<polygon fill="white" stroke="#bfbfbf" points="415.5,-178.5 415.5,-235.5 512.5,-235.5 512.5,-178.5 415.5,-178.5"/>
<text text-anchor="middle" x="464" y="-223.5" font-family="Helvetica,sans-Serif" font-size="10.00">CipherInputStream</text>
<polyline fill="none" stroke="#bfbfbf" points="415.5,-216.5 512.5,-216.5 "/>
<text text-anchor="middle" x="464" y="-204.5" font-family="Helvetica,sans-Serif" font-size="10.00"> </text>
<polyline fill="none" stroke="#bfbfbf" points="415.5,-197.5 512.5,-197.5 "/>
<text text-anchor="middle" x="464" y="-185.5" font-family="Helvetica,sans-Serif" font-size="10.00"> </text>
</g>
<!-- Node6&#45;&gt;Node1 -->
<g id="edge5" class="edge"><title>Node6&#45;&gt;Node1</title>
<path fill="none" stroke="#404040" d="M464.337,-178.48C465.742,-155.52 470.451,-122.683 485,-98 486.797,-94.9519 488.818,-91.9919 491.01,-89.1287"/>
<polygon fill="none" stroke="#404040" points="491.22,-88.8838 492.095,-81.7259 499.038,-79.7798 498.164,-86.9378 491.22,-88.8838"/>
<text text-anchor="middle" x="517" y="-101.5" font-family="Helvetica,sans-Serif" font-size="10.00"> +lectorCifrado</text>
</g>
<!-- Node7 -->
<g id="node7" class="node"><title>Node7</title>
<polygon fill="white" stroke="#bfbfbf" points="531,-178.5 531,-235.5 575,-235.5 575,-178.5 531,-178.5"/>
<text text-anchor="middle" x="553" y="-223.5" font-family="Helvetica,sans-Serif" font-size="10.00">Cipher</text>
<polyline fill="none" stroke="#bfbfbf" points="531,-216.5 575,-216.5 "/>
<text text-anchor="middle" x="553" y="-204.5" font-family="Helvetica,sans-Serif" font-size="10.00"> </text>
<polyline fill="none" stroke="#bfbfbf" points="531,-197.5 575,-197.5 "/>
<text text-anchor="middle" x="553" y="-185.5" font-family="Helvetica,sans-Serif" font-size="10.00"> </text>
</g>
<!-- Node7&#45;&gt;Node1 -->
<g id="edge6" class="edge"><title>Node7&#45;&gt;Node1</title>
<path fill="none" stroke="#404040" d="M553,-178.383C553,-154.808 553,-120.29 553,-91.7528"/>
<polygon fill="none" stroke="#404040" points="553,-91.5314 549,-85.5314 553,-79.5314 557,-85.5314 553,-91.5314"/>
<text text-anchor="middle" x="559" y="-101.5" font-family="Helvetica,sans-Serif" font-size="10.00"> &#45;c</text>
</g>
<!-- Node8 -->
<g id="node8" class="node"><title>Node8</title>
<polygon fill="white" stroke="#bfbfbf" points="593,-178.5 593,-235.5 691,-235.5 691,-178.5 593,-178.5"/>
<text text-anchor="middle" x="642" y="-223.5" font-family="Helvetica,sans-Serif" font-size="10.00">ObjectInputStream</text>
<polyline fill="none" stroke="#bfbfbf" points="593,-216.5 691,-216.5 "/>
<text text-anchor="middle" x="642" y="-204.5" font-family="Helvetica,sans-Serif" font-size="10.00"> </text>
<polyline fill="none" stroke="#bfbfbf" points="593,-197.5 691,-197.5 "/>
<text text-anchor="middle" x="642" y="-185.5" font-family="Helvetica,sans-Serif" font-size="10.00"> </text>
</g>
<!-- Node8&#45;&gt;Node1 -->
<g id="edge7" class="edge"><title>Node8&#45;&gt;Node1</title>
<path fill="none" stroke="#404040" d="M627.103,-178.383C614.159,-154.385 595.099,-119.048 579.551,-90.223"/>
<polygon fill="none" stroke="#404040" points="579.48,-90.0929 573.112,-86.7111 573.784,-79.5314 580.153,-82.9132 579.48,-90.0929"/>
<text text-anchor="middle" x="607" y="-101.5" font-family="Helvetica,sans-Serif" font-size="10.00"> +lector</text>
</g>
<!-- Node9 -->
<g id="node9" class="node"><title>Node9</title>
<polygon fill="white" stroke="#bfbfbf" points="709,-178.5 709,-235.5 767,-235.5 767,-178.5 709,-178.5"/>
<text text-anchor="middle" x="738" y="-223.5" font-family="Helvetica,sans-Serif" font-size="10.00">HashMap</text>
<polyline fill="none" stroke="#bfbfbf" points="709,-216.5 767,-216.5 "/>
<text text-anchor="middle" x="738" y="-204.5" font-family="Helvetica,sans-Serif" font-size="10.00"> </text>
<polyline fill="none" stroke="#bfbfbf" points="709,-197.5 767,-197.5 "/>
<text text-anchor="middle" x="738" y="-185.5" font-family="Helvetica,sans-Serif" font-size="10.00"> </text>
</g>
<!-- Node9&#45;&gt;Node1 -->
<g id="edge8" class="edge"><title>Node9&#45;&gt;Node1</title>
<path fill="none" stroke="#404040" d="M729.092,-178.376C722.866,-162.286 713.274,-142.396 700,-128 680.737,-107.109 655.3,-89.6686 631.009,-76.0221"/>
<polygon fill="none" stroke="#404040" points="630.868,-75.9451 623.686,-76.594 620.324,-70.2142 627.506,-69.5653 630.868,-75.9451"/>
<text text-anchor="middle" x="690" y="-101.5" font-family="Helvetica,sans-Serif" font-size="10.00"> &#45;hm</text>
</g>
<!-- Node10 -->
<g id="node10" class="node"><title>Node10</title>
<polygon fill="white" stroke="#bfbfbf" points="785.5,-178.5 785.5,-235.5 832.5,-235.5 832.5,-178.5 785.5,-178.5"/>
<text text-anchor="middle" x="809" y="-223.5" font-family="Helvetica,sans-Serif" font-size="10.00">Socket</text>
<polyline fill="none" stroke="#bfbfbf" points="785.5,-216.5 832.5,-216.5 "/>
<text text-anchor="middle" x="809" y="-204.5" font-family="Helvetica,sans-Serif" font-size="10.00"> </text>
<polyline fill="none" stroke="#bfbfbf" points="785.5,-197.5 832.5,-197.5 "/>
<text text-anchor="middle" x="809" y="-185.5" font-family="Helvetica,sans-Serif" font-size="10.00"> </text>
</g>
<!-- Node10&#45;&gt;Node1 -->
<g id="edge9" class="edge"><title>Node10&#45;&gt;Node1</title>
<path fill="none" stroke="#404040" d="M802.959,-178.461C798.105,-161.997 789.762,-141.687 776,-128 737.088,-89.2999 678.981,-67.3758 631.836,-55.2181"/>
<polygon fill="none" stroke="#404040" points="631.758,-55.1989 624.976,-57.6504 620.105,-52.3333 626.887,-49.8818 631.758,-55.1989"/>
<text text-anchor="middle" x="784" y="-101.5" font-family="Helvetica,sans-Serif" font-size="10.00"> +socketClient</text>
</g>
<!-- Node11 -->
<g id="node11" class="node"><title>Node11</title>
<g id="a_node11"><a xlink:href="classgestorempleados_1_1control_1_1_negocio_server.xhtml" target="_top" xlink:title="{gestorempleados.control.\lNegocioServer\n||+ NegocioServer()\l+ comprobarEmpleado()\l+ comprobarEmpleado()\l+ guardarEmpleado()\l+ modifEmpleado()\l+ consultaEmpleados()\l+ consultaDepartamentos()\l+ consultaCargos()\l+ validUser()\l}">
<polygon fill="white" stroke="black" points="851,-129 851,-285 985,-285 985,-129 851,-129"/>
<text text-anchor="start" x="859" y="-273" font-family="Helvetica,sans-Serif" font-size="10.00">gestorempleados.control.</text>
<text text-anchor="middle" x="918" y="-262" font-family="Helvetica,sans-Serif" font-size="10.00">NegocioServer</text>
<polyline fill="none" stroke="black" points="851,-255 985,-255 "/>
<text text-anchor="middle" x="918" y="-243" font-family="Helvetica,sans-Serif" font-size="10.00"> </text>
<polyline fill="none" stroke="black" points="851,-236 985,-236 "/>
<text text-anchor="start" x="859" y="-224" font-family="Helvetica,sans-Serif" font-size="10.00">+ NegocioServer()</text>
<text text-anchor="start" x="859" y="-213" font-family="Helvetica,sans-Serif" font-size="10.00">+ comprobarEmpleado()</text>
<text text-anchor="start" x="859" y="-202" font-family="Helvetica,sans-Serif" font-size="10.00">+ comprobarEmpleado()</text>
<text text-anchor="start" x="859" y="-191" font-family="Helvetica,sans-Serif" font-size="10.00">+ guardarEmpleado()</text>
<text text-anchor="start" x="859" y="-180" font-family="Helvetica,sans-Serif" font-size="10.00">+ modifEmpleado()</text>
<text text-anchor="start" x="859" y="-169" font-family="Helvetica,sans-Serif" font-size="10.00">+ consultaEmpleados()</text>
<text text-anchor="start" x="859" y="-158" font-family="Helvetica,sans-Serif" font-size="10.00">+ consultaDepartamentos()</text>
<text text-anchor="start" x="859" y="-147" font-family="Helvetica,sans-Serif" font-size="10.00">+ consultaCargos()</text>
<text text-anchor="start" x="859" y="-136" font-family="Helvetica,sans-Serif" font-size="10.00">+ validUser()</text>
</a>
</g>
</g>
<!-- Node11&#45;&gt;Node1 -->
<g id="edge10" class="edge"><title>Node11&#45;&gt;Node1</title>
<path fill="none" stroke="#404040" d="M859.29,-128.785C847.398,-117.04 834.155,-106.144 820,-98 762.517,-64.9256 688.11,-50.978 632.451,-45.1295"/>
<polygon fill="none" stroke="#404040" points="632.103,-45.0959 625.745,-48.4976 620.159,-43.9368 626.518,-40.535 632.103,-45.0959"/>
<text text-anchor="middle" x="858.5" y="-101.5" font-family="Helvetica,sans-Serif" font-size="10.00"> +negocio</text>
</g>
<!-- Node12 -->
<g id="node12" class="node"><title>Node12</title>
<g id="a_node12"><a xlink:href="interfacegestorempleados_1_1control_1_1i_control.xhtml" target="_top" xlink:title="{gestorempleados.control.i\lControl\n||+ getEmpleados()\l+ saveEmpleado()\l+ getContratos()\l+ getuser()\l+ getDepartamentos()\l+ getCargos()\l+ comprobarContratoActivo()\l}">
<polygon fill="white" stroke="black" points="848,-335 848,-469 988,-469 988,-335 848,-335"/>
<text text-anchor="start" x="856" y="-457" font-family="Helvetica,sans-Serif" font-size="10.00">gestorempleados.control.i</text>
<text text-anchor="middle" x="918" y="-446" font-family="Helvetica,sans-Serif" font-size="10.00">Control</text>
<polyline fill="none" stroke="black" points="848,-439 988,-439 "/>
<text text-anchor="middle" x="918" y="-427" font-family="Helvetica,sans-Serif" font-size="10.00"> </text>
<polyline fill="none" stroke="black" points="848,-420 988,-420 "/>
<text text-anchor="start" x="856" y="-408" font-family="Helvetica,sans-Serif" font-size="10.00">+ getEmpleados()</text>
<text text-anchor="start" x="856" y="-397" font-family="Helvetica,sans-Serif" font-size="10.00">+ saveEmpleado()</text>
<text text-anchor="start" x="856" y="-386" font-family="Helvetica,sans-Serif" font-size="10.00">+ getContratos()</text>
<text text-anchor="start" x="856" y="-375" font-family="Helvetica,sans-Serif" font-size="10.00">+ getuser()</text>
<text text-anchor="start" x="856" y="-364" font-family="Helvetica,sans-Serif" font-size="10.00">+ getDepartamentos()</text>
<text text-anchor="start" x="856" y="-353" font-family="Helvetica,sans-Serif" font-size="10.00">+ getCargos()</text>
<text text-anchor="start" x="856" y="-342" font-family="Helvetica,sans-Serif" font-size="10.00">+ comprobarContratoActivo()</text>
</a>
</g>
</g>
<!-- Node12&#45;&gt;Node11 -->
<g id="edge11" class="edge"><title>Node12&#45;&gt;Node11</title>
<path fill="none" stroke="#404040" d="M918,-334.85C918,-322.695 918,-309.823 918,-297.124"/>
<polygon fill="none" stroke="#404040" points="918,-297.029 914,-291.029 918,-285.029 922,-291.029 918,-297.029"/>
<text text-anchor="middle" x="937.5" y="-307.5" font-family="Helvetica,sans-Serif" font-size="10.00"> +control</text>
</g>
<!-- Node13 -->
<g id="node13" class="node"><title>Node13</title>
<polygon fill="white" stroke="#bfbfbf" points="1003,-178.5 1003,-235.5 1065,-235.5 1065,-178.5 1003,-178.5"/>
<text text-anchor="middle" x="1034" y="-223.5" font-family="Helvetica,sans-Serif" font-size="10.00">SecretKey</text>
<polyline fill="none" stroke="#bfbfbf" points="1003,-216.5 1065,-216.5 "/>
<text text-anchor="middle" x="1034" y="-204.5" font-family="Helvetica,sans-Serif" font-size="10.00"> </text>
<polyline fill="none" stroke="#bfbfbf" points="1003,-197.5 1065,-197.5 "/>
<text text-anchor="middle" x="1034" y="-185.5" font-family="Helvetica,sans-Serif" font-size="10.00"> </text>
</g>
<!-- Node13&#45;&gt;Node1 -->
<g id="edge12" class="edge"><title>Node13&#45;&gt;Node1</title>
<path fill="none" stroke="#404040" d="M1026.2,-178.494C1020.05,-161.617 1009.84,-140.848 994,-128 939.531,-83.8086 744.112,-58.7815 632.548,-47.7943"/>
<polygon fill="none" stroke="#404040" points="632.311,-47.7715 625.954,-51.176 620.367,-46.6175 626.723,-43.213 632.311,-47.7715"/>
<text text-anchor="middle" x="966" y="-101.5" font-family="Helvetica,sans-Serif" font-size="10.00"> &#45;key</text>
</g>
</g>
</svg>
