<?xml version="1.0" encoding="UTF-8" standalone="no"?>
<!DOCTYPE svg PUBLIC "-//W3C//DTD SVG 1.1//EN"
 "http://www.w3.org/Graphics/SVG/1.1/DTD/svg11.dtd">
<!-- Generated by graphviz version 2.30.1 (20130214.1330)
 -->
<!-- Title: gestorempleados.persistencia.Idiomas Pages: 1 -->
<svg width="156pt" height="292pt"
 viewBox="0.00 0.00 156.00 292.00" xmlns="http://www.w3.org/2000/svg" xmlns:xlink="http://www.w3.org/1999/xlink">
<g id="graph0" class="graph" transform="scale(1 1) rotate(0) translate(4 288)">
<title>gestorempleados.persistencia.Idiomas</title>
<polygon fill="white" stroke="white" points="-4,5 -4,-288 153,-288 153,5 -4,5"/>
<!-- Node1 -->
<g id="node1" class="node"><title>Node1</title>
<polygon fill="#bfbfbf" stroke="black" points="-0.5,-0.5 -0.5,-189.5 148.5,-189.5 148.5,-0.5 -0.5,-0.5"/>
<text text-anchor="start" x="7.5" y="-177.5" font-family="Helvetica,sans-Serif" font-size="10.00">gestorempleados.persistencia.</text>
<text text-anchor="middle" x="74" y="-166.5" font-family="Helvetica,sans-Serif" font-size="10.00">Idiomas</text>
<polyline fill="none" stroke="black" points="-0.5,-159.5 148.5,-159.5 "/>
<text text-anchor="start" x="7.5" y="-147.5" font-family="Helvetica,sans-Serif" font-size="10.00">&#45; id</text>
<text text-anchor="start" x="7.5" y="-136.5" font-family="Helvetica,sans-Serif" font-size="10.00">&#45; empleado</text>
<text text-anchor="start" x="7.5" y="-125.5" font-family="Helvetica,sans-Serif" font-size="10.00">&#45; idioma</text>
<polyline fill="none" stroke="black" points="-0.5,-118.5 148.5,-118.5 "/>
<text text-anchor="start" x="7.5" y="-106.5" font-family="Helvetica,sans-Serif" font-size="10.00">+ Idiomas()</text>
<text text-anchor="start" x="7.5" y="-95.5" font-family="Helvetica,sans-Serif" font-size="10.00">+ Idiomas()</text>
<text text-anchor="start" x="7.5" y="-84.5" font-family="Helvetica,sans-Serif" font-size="10.00">+ Idiomas()</text>
<text text-anchor="start" x="7.5" y="-73.5" font-family="Helvetica,sans-Serif" font-size="10.00">+ getId()</text>
<text text-anchor="start" x="7.5" y="-62.5" font-family="Helvetica,sans-Serif" font-size="10.00">+ setId()</text>
<text text-anchor="start" x="7.5" y="-51.5" font-family="Helvetica,sans-Serif" font-size="10.00">+ getEmpleado()</text>
<text text-anchor="start" x="7.5" y="-40.5" font-family="Helvetica,sans-Serif" font-size="10.00">+ setEmpleado()</text>
<text text-anchor="start" x="7.5" y="-29.5" font-family="Helvetica,sans-Serif" font-size="10.00">+ getIdioma()</text>
<text text-anchor="start" x="7.5" y="-18.5" font-family="Helvetica,sans-Serif" font-size="10.00">+ setIdioma()</text>
<text text-anchor="start" x="7.5" y="-7.5" font-family="Helvetica,sans-Serif" font-size="10.00">+ toString()</text>
</g>
<!-- Node2 -->
<g id="node2" class="node"><title>Node2</title>
<polygon fill="white" stroke="#bfbfbf" points="40.5,-226.5 40.5,-283.5 107.5,-283.5 107.5,-226.5 40.5,-226.5"/>
<text text-anchor="middle" x="74" y="-271.5" font-family="Helvetica,sans-Serif" font-size="10.00">Serializable</text>
<polyline fill="none" stroke="#bfbfbf" points="40.5,-264.5 107.5,-264.5 "/>
<text text-anchor="middle" x="74" y="-252.5" font-family="Helvetica,sans-Serif" font-size="10.00"> </text>
<polyline fill="none" stroke="#bfbfbf" points="40.5,-245.5 107.5,-245.5 "/>
<text text-anchor="middle" x="74" y="-233.5" font-family="Helvetica,sans-Serif" font-size="10.00"> </text>
</g>
<!-- Node2&#45;&gt;Node1 -->
<g id="edge1" class="edge"><title>Node2&#45;&gt;Node1</title>
<path fill="none" stroke="midnightblue" d="M74,-216.215C74,-208.012 74,-198.986 74,-189.678"/>
<polygon fill="none" stroke="midnightblue" points="70.5001,-216.478 74,-226.479 77.5001,-216.479 70.5001,-216.478"/>
</g>
</g>
</svg>
