<?xml version="1.0" encoding="UTF-8" standalone="no"?>
<!DOCTYPE svg PUBLIC "-//W3C//DTD SVG 1.1//EN"
 "http://www.w3.org/Graphics/SVG/1.1/DTD/svg11.dtd">
<!-- Generated by graphviz version 2.30.1 (20130214.1330)
 -->
<!-- Title: gestorempleados.control.NegocioServer.consultaEmpleados Pages: 1 -->
<svg width="340pt" height="38pt"
 viewBox="0.00 0.00 340.00 38.00" xmlns="http://www.w3.org/2000/svg" xmlns:xlink="http://www.w3.org/1999/xlink">
<g id="graph0" class="graph" transform="scale(1 1) rotate(0) translate(4 34)">
<title>gestorempleados.control.NegocioServer.consultaEmpleados</title>
<polygon fill="white" stroke="white" points="-4,5 -4,-34 337,-34 337,5 -4,5"/>
<!-- Node1 -->
<g id="node1" class="node"><title>Node1</title>
<polygon fill="#bfbfbf" stroke="black" points="0.5,-0 0.5,-30 167.5,-30 167.5,-0 0.5,-0"/>
<text text-anchor="start" x="8.5" y="-18" font-family="Helvetica,sans-Serif" font-size="10.00">gestorempleados.control.</text>
<text text-anchor="middle" x="84" y="-7" font-family="Helvetica,sans-Serif" font-size="10.00">NegocioServer.consultaEmpleados</text>
</g>
<!-- Node2 -->
<g id="node2" class="node"><title>Node2</title>
<g id="a_node2"><a xlink:href="interfacegestorempleados_1_1control_1_1i_control.xhtml#a26adc3fd3fdd93c974165e64a1174119" target="_top" xlink:title="gestorempleados.control.i\lControl.getEmpleados">
<polygon fill="white" stroke="black" points="204,-0 204,-30 332,-30 332,-0 204,-0"/>
<text text-anchor="start" x="212" y="-18" font-family="Helvetica,sans-Serif" font-size="10.00">gestorempleados.control.i</text>
<text text-anchor="middle" x="268" y="-7" font-family="Helvetica,sans-Serif" font-size="10.00">Control.getEmpleados</text>
</a>
</g>
</g>
<!-- Node1&#45;&gt;Node2 -->
<g id="edge1" class="edge"><title>Node1&#45;&gt;Node2</title>
<path fill="none" stroke="midnightblue" d="M167.745,-15C176.357,-15 185.069,-15 193.567,-15"/>
<polygon fill="midnightblue" stroke="midnightblue" points="193.808,-18.5001 203.808,-15 193.808,-11.5001 193.808,-18.5001"/>
</g>
</g>
</svg>
