<?xml version="1.0" encoding="UTF-8" standalone="no"?>
<!DOCTYPE svg PUBLIC "-//W3C//DTD SVG 1.1//EN"
 "http://www.w3.org/Graphics/SVG/1.1/DTD/svg11.dtd">
<!-- Generated by graphviz version 2.30.1 (20130214.1330)
 -->
<!-- Title: gestorempleados.control.NegocioServer Pages: 1 -->
<svg width="148pt" height="350pt"
 viewBox="0.00 0.00 148.00 350.00" xmlns="http://www.w3.org/2000/svg" xmlns:xlink="http://www.w3.org/1999/xlink">
<g id="graph0" class="graph" transform="scale(1 1) rotate(0) translate(4 346)">
<title>gestorempleados.control.NegocioServer</title>
<polygon fill="white" stroke="white" points="-4,5 -4,-346 145,-346 145,5 -4,5"/>
<!-- Node1 -->
<g id="node1" class="node"><title>Node1</title>
<polygon fill="#bfbfbf" stroke="black" points="3,-1 3,-157 137,-157 137,-1 3,-1"/>
<text text-anchor="start" x="11" y="-145" font-family="Helvetica,sans-Serif" font-size="10.00">gestorempleados.control.</text>
<text text-anchor="middle" x="70" y="-134" font-family="Helvetica,sans-Serif" font-size="10.00">NegocioServer</text>
<polyline fill="none" stroke="black" points="3,-127 137,-127 "/>
<text text-anchor="middle" x="70" y="-115" font-family="Helvetica,sans-Serif" font-size="10.00"> </text>
<polyline fill="none" stroke="black" points="3,-108 137,-108 "/>
<text text-anchor="start" x="11" y="-96" font-family="Helvetica,sans-Serif" font-size="10.00">+ NegocioServer()</text>
<text text-anchor="start" x="11" y="-85" font-family="Helvetica,sans-Serif" font-size="10.00">+ comprobarEmpleado()</text>
<text text-anchor="start" x="11" y="-74" font-family="Helvetica,sans-Serif" font-size="10.00">+ comprobarEmpleado()</text>
<text text-anchor="start" x="11" y="-63" font-family="Helvetica,sans-Serif" font-size="10.00">+ guardarEmpleado()</text>
<text text-anchor="start" x="11" y="-52" font-family="Helvetica,sans-Serif" font-size="10.00">+ modifEmpleado()</text>
<text text-anchor="start" x="11" y="-41" font-family="Helvetica,sans-Serif" font-size="10.00">+ consultaEmpleados()</text>
<text text-anchor="start" x="11" y="-30" font-family="Helvetica,sans-Serif" font-size="10.00">+ consultaDepartamentos()</text>
<text text-anchor="start" x="11" y="-19" font-family="Helvetica,sans-Serif" font-size="10.00">+ consultaCargos()</text>
<text text-anchor="start" x="11" y="-8" font-family="Helvetica,sans-Serif" font-size="10.00">+ validUser()</text>
</g>
<!-- Node2 -->
<g id="node2" class="node"><title>Node2</title>
<g id="a_node2"><a xlink:href="interfacegestorempleados_1_1control_1_1i_control.xhtml" target="_top" xlink:title="{gestorempleados.control.i\lControl\n||+ getEmpleados()\l+ saveEmpleado()\l+ getContratos()\l+ getuser()\l+ getDepartamentos()\l+ getCargos()\l+ comprobarContratoActivo()\l}">
<polygon fill="white" stroke="black" points="0,-207 0,-341 140,-341 140,-207 0,-207"/>
<text text-anchor="start" x="8" y="-329" font-family="Helvetica,sans-Serif" font-size="10.00">gestorempleados.control.i</text>
<text text-anchor="middle" x="70" y="-318" font-family="Helvetica,sans-Serif" font-size="10.00">Control</text>
<polyline fill="none" stroke="black" points="0,-311 140,-311 "/>
<text text-anchor="middle" x="70" y="-299" font-family="Helvetica,sans-Serif" font-size="10.00"> </text>
<polyline fill="none" stroke="black" points="0,-292 140,-292 "/>
<text text-anchor="start" x="8" y="-280" font-family="Helvetica,sans-Serif" font-size="10.00">+ getEmpleados()</text>
<text text-anchor="start" x="8" y="-269" font-family="Helvetica,sans-Serif" font-size="10.00">+ saveEmpleado()</text>
<text text-anchor="start" x="8" y="-258" font-family="Helvetica,sans-Serif" font-size="10.00">+ getContratos()</text>
<text text-anchor="start" x="8" y="-247" font-family="Helvetica,sans-Serif" font-size="10.00">+ getuser()</text>
<text text-anchor="start" x="8" y="-236" font-family="Helvetica,sans-Serif" font-size="10.00">+ getDepartamentos()</text>
<text text-anchor="start" x="8" y="-225" font-family="Helvetica,sans-Serif" font-size="10.00">+ getCargos()</text>
<text text-anchor="start" x="8" y="-214" font-family="Helvetica,sans-Serif" font-size="10.00">+ comprobarContratoActivo()</text>
</a>
</g>
</g>
<!-- Node2&#45;&gt;Node1 -->
<g id="edge1" class="edge"><title>Node2&#45;&gt;Node1</title>
<path fill="none" stroke="#404040" d="M70,-206.85C70,-194.695 70,-181.823 70,-169.124"/>
<polygon fill="none" stroke="#404040" points="70.0001,-169.029 66,-163.029 70,-157.029 74,-163.029 70.0001,-169.029"/>
<text text-anchor="middle" x="89.5" y="-179.5" font-family="Helvetica,sans-Serif" font-size="10.00"> +control</text>
</g>
</g>
</svg>
