<?xml version="1.0" encoding="UTF-8" standalone="no"?>
<!DOCTYPE svg PUBLIC "-//W3C//DTD SVG 1.1//EN"
 "http://www.w3.org/Graphics/SVG/1.1/DTD/svg11.dtd">
<!-- Generated by graphviz version 2.30.1 (20130214.1330)
 -->
<!-- Title: gestorempleados.control.NegocioServer.guardarEmpleado Pages: 1 -->
<svg width="336pt" height="38pt"
 viewBox="0.00 0.00 336.00 38.00" xmlns="http://www.w3.org/2000/svg" xmlns:xlink="http://www.w3.org/1999/xlink">
<g id="graph0" class="graph" transform="scale(1 1) rotate(0) translate(4 34)">
<title>gestorempleados.control.NegocioServer.guardarEmpleado</title>
<polygon fill="white" stroke="white" points="-4,5 -4,-34 333,-34 333,5 -4,5"/>
<!-- Node1 -->
<g id="node1" class="node"><title>Node1</title>
<polygon fill="#bfbfbf" stroke="black" points="0,-0 0,-30 158,-30 158,-0 0,-0"/>
<text text-anchor="start" x="8" y="-18" font-family="Helvetica,sans-Serif" font-size="10.00">gestorempleados.control.</text>
<text text-anchor="middle" x="79" y="-7" font-family="Helvetica,sans-Serif" font-size="10.00">NegocioServer.guardarEmpleado</text>
</g>
<!-- Node2 -->
<g id="node2" class="node"><title>Node2</title>
<g id="a_node2"><a xlink:href="classgestorempleados_1_1conector_1_1_server_hilo.xhtml#a07af13636cbf4d5de179689508a36609" target="_top" xlink:title="gestorempleados.conector.\lServerHilo.run">
<polygon fill="white" stroke="black" points="194,-0 194,-30 328,-30 328,-0 194,-0"/>
<text text-anchor="start" x="202" y="-18" font-family="Helvetica,sans-Serif" font-size="10.00">gestorempleados.conector.</text>
<text text-anchor="middle" x="261" y="-7" font-family="Helvetica,sans-Serif" font-size="10.00">ServerHilo.run</text>
</a>
</g>
</g>
<!-- Node1&#45;&gt;Node2 -->
<g id="edge1" class="edge"><title>Node1&#45;&gt;Node2</title>
<path fill="none" stroke="midnightblue" d="M168.219,-15C176.808,-15 185.419,-15 193.738,-15"/>
<polygon fill="midnightblue" stroke="midnightblue" points="168.165,-11.5001 158.165,-15 168.165,-18.5001 168.165,-11.5001"/>
</g>
</g>
</svg>
