<?xml version="1.0" encoding="UTF-8" standalone="no"?>
<!DOCTYPE svg PUBLIC "-//W3C//DTD SVG 1.1//EN"
 "http://www.w3.org/Graphics/SVG/1.1/DTD/svg11.dtd">
<!-- Generated by graphviz version 2.30.1 (20130214.1330)
 -->
<!-- Title: gestorempleados.conector.ServerHilo.run Pages: 1 -->
<svg width="550pt" height="577pt"
 viewBox="0.00 0.00 550.00 577.00" xmlns="http://www.w3.org/2000/svg" xmlns:xlink="http://www.w3.org/1999/xlink">
<g id="graph0" class="graph" transform="scale(1 1) rotate(0) translate(4 573)">
<title>gestorempleados.conector.ServerHilo.run</title>
<polygon fill="white" stroke="white" points="-4,5 -4,-573 547,-573 547,5 -4,5"/>
<!-- Node1 -->
<g id="node1" class="node"><title>Node1</title>
<polygon fill="#bfbfbf" stroke="black" points="0,-269 0,-299 134,-299 134,-269 0,-269"/>
<text text-anchor="start" x="8" y="-287" font-family="Helvetica,sans-Serif" font-size="10.00">gestorempleados.conector.</text>
<text text-anchor="middle" x="67" y="-276" font-family="Helvetica,sans-Serif" font-size="10.00">ServerHilo.run</text>
</g>
<!-- Node2 -->
<g id="node2" class="node"><title>Node2</title>
<g id="a_node2"><a xlink:href="classgestorempleados_1_1conector_1_1_packet.xhtml#a66abee43105b5ab7eac815a088d8f861" target="_top" xlink:title="gestorempleados.conector.\lPacket.getType">
<polygon fill="white" stroke="black" points="196,-539 196,-569 330,-569 330,-539 196,-539"/>
<text text-anchor="start" x="204" y="-557" font-family="Helvetica,sans-Serif" font-size="10.00">gestorempleados.conector.</text>
<text text-anchor="middle" x="263" y="-546" font-family="Helvetica,sans-Serif" font-size="10.00">Packet.getType</text>
</a>
</g>
</g>
<!-- Node1&#45;&gt;Node2 -->
<g id="edge1" class="edge"><title>Node1&#45;&gt;Node2</title>
<path fill="none" stroke="midnightblue" d="M69.6958,-299.008C75.3457,-341.777 97.4842,-465.294 170,-529 174.896,-533.301 180.463,-536.871 186.377,-539.832"/>
<polygon fill="midnightblue" stroke="midnightblue" points="185.348,-543.202 195.912,-544.002 188.153,-536.788 185.348,-543.202"/>
</g>
<!-- Node3 -->
<g id="node3" class="node"><title>Node3</title>
<g id="a_node3"><a xlink:href="classgestorempleados_1_1conector_1_1_packet.xhtml#a813dec9a7a619b540ae0cefd73d08ca8" target="_top" xlink:title="gestorempleados.conector.\lPacket.setEmpleados">
<polygon fill="white" stroke="black" points="196,-490 196,-520 330,-520 330,-490 196,-490"/>
<text text-anchor="start" x="204" y="-508" font-family="Helvetica,sans-Serif" font-size="10.00">gestorempleados.conector.</text>
<text text-anchor="middle" x="263" y="-497" font-family="Helvetica,sans-Serif" font-size="10.00">Packet.setEmpleados</text>
</a>
</g>
</g>
<!-- Node1&#45;&gt;Node3 -->
<g id="edge2" class="edge"><title>Node1&#45;&gt;Node3</title>
<path fill="none" stroke="midnightblue" d="M71.44,-299.17C80.6127,-336.061 109.21,-431.028 170,-480 174.991,-484.02 180.576,-487.396 186.462,-490.231"/>
<polygon fill="midnightblue" stroke="midnightblue" points="185.345,-493.56 195.917,-494.255 188.087,-487.119 185.345,-493.56"/>
</g>
<!-- Node4 -->
<g id="node4" class="node"><title>Node4</title>
<g id="a_node4"><a xlink:href="classgestorempleados_1_1control_1_1_negocio_server.xhtml#a30bba13c507f108f6774d8d2f2d5f851" target="_top" xlink:title="gestorempleados.control.\lNegocioServer.consultaEmpleados">
<polygon fill="white" stroke="black" points="179.5,-441 179.5,-471 346.5,-471 346.5,-441 179.5,-441"/>
<text text-anchor="start" x="187.5" y="-459" font-family="Helvetica,sans-Serif" font-size="10.00">gestorempleados.control.</text>
<text text-anchor="middle" x="263" y="-448" font-family="Helvetica,sans-Serif" font-size="10.00">NegocioServer.consultaEmpleados</text>
</a>
</g>
</g>
<!-- Node1&#45;&gt;Node4 -->
<g id="edge3" class="edge"><title>Node1&#45;&gt;Node4</title>
<path fill="none" stroke="midnightblue" d="M74.1856,-299.111C87.2366,-329.059 120.518,-396.064 170,-431 172.704,-432.909 175.547,-434.673 178.491,-436.302"/>
<polygon fill="midnightblue" stroke="midnightblue" points="177.072,-439.504 187.587,-440.796 180.172,-433.228 177.072,-439.504"/>
</g>
<!-- Node6 -->
<g id="node6" class="node"><title>Node6</title>
<g id="a_node6"><a xlink:href="classgestorempleados_1_1conector_1_1_packet.xhtml#ab134a72a51ee922876f123e6162b2d2c" target="_top" xlink:title="gestorempleados.conector.\lPacket.getEmpleados">
<polygon fill="white" stroke="black" points="196,-343 196,-373 330,-373 330,-343 196,-343"/>
<text text-anchor="start" x="204" y="-361" font-family="Helvetica,sans-Serif" font-size="10.00">gestorempleados.conector.</text>
<text text-anchor="middle" x="263" y="-350" font-family="Helvetica,sans-Serif" font-size="10.00">Packet.getEmpleados</text>
</a>
</g>
</g>
<!-- Node1&#45;&gt;Node6 -->
<g id="edge5" class="edge"><title>Node1&#45;&gt;Node6</title>
<path fill="none" stroke="midnightblue" d="M95.9733,-299.151C116.137,-309.645 144.226,-323.399 170,-333 176.461,-335.407 183.255,-337.692 190.103,-339.832"/>
<polygon fill="midnightblue" stroke="midnightblue" points="189.558,-343.323 200.142,-342.86 191.579,-336.622 189.558,-343.323"/>
</g>
<!-- Node7 -->
<g id="node7" class="node"><title>Node7</title>
<g id="a_node7"><a xlink:href="classgestorempleados_1_1conector_1_1_packet.xhtml#a970de23de6dbf0374b936d011a95ceec" target="_top" xlink:title="gestorempleados.conector.\lPacket.setDepartamentos">
<polygon fill="white" stroke="black" points="196,-294 196,-324 330,-324 330,-294 196,-294"/>
<text text-anchor="start" x="204" y="-312" font-family="Helvetica,sans-Serif" font-size="10.00">gestorempleados.conector.</text>
<text text-anchor="middle" x="263" y="-301" font-family="Helvetica,sans-Serif" font-size="10.00">Packet.setDepartamentos</text>
</a>
</g>
</g>
<!-- Node1&#45;&gt;Node7 -->
<g id="edge6" class="edge"><title>Node1&#45;&gt;Node7</title>
<path fill="none" stroke="midnightblue" d="M134.221,-292.534C150.674,-294.654 168.445,-296.944 185.352,-299.123"/>
<polygon fill="midnightblue" stroke="midnightblue" points="185.383,-302.656 195.748,-300.462 186.277,-295.713 185.383,-302.656"/>
</g>
<!-- Node8 -->
<g id="node8" class="node"><title>Node8</title>
<g id="a_node8"><a xlink:href="classgestorempleados_1_1control_1_1_negocio_server.xhtml#ab6d9023306b2303f81414ccecd749a62" target="_top" xlink:title="gestorempleados.control.\lNegocioServer.consultaDepartamentos">
<polygon fill="white" stroke="black" points="170.5,-245 170.5,-275 355.5,-275 355.5,-245 170.5,-245"/>
<text text-anchor="start" x="178.5" y="-263" font-family="Helvetica,sans-Serif" font-size="10.00">gestorempleados.control.</text>
<text text-anchor="middle" x="263" y="-252" font-family="Helvetica,sans-Serif" font-size="10.00">NegocioServer.consultaDepartamentos</text>
</a>
</g>
</g>
<!-- Node1&#45;&gt;Node8 -->
<g id="edge7" class="edge"><title>Node1&#45;&gt;Node8</title>
<path fill="none" stroke="midnightblue" d="M134.221,-275.808C142.675,-274.762 151.477,-273.673 160.33,-272.578"/>
<polygon fill="midnightblue" stroke="midnightblue" points="160.838,-276.042 170.333,-271.34 159.979,-269.095 160.838,-276.042"/>
</g>
<!-- Node10 -->
<g id="node10" class="node"><title>Node10</title>
<g id="a_node10"><a xlink:href="classgestorempleados_1_1conector_1_1_packet.xhtml#a0ad4d9c844f83f55737a85b1d2af0a98" target="_top" xlink:title="gestorempleados.conector.\lPacket.setCargos">
<polygon fill="white" stroke="black" points="196,-196 196,-226 330,-226 330,-196 196,-196"/>
<text text-anchor="start" x="204" y="-214" font-family="Helvetica,sans-Serif" font-size="10.00">gestorempleados.conector.</text>
<text text-anchor="middle" x="263" y="-203" font-family="Helvetica,sans-Serif" font-size="10.00">Packet.setCargos</text>
</a>
</g>
</g>
<!-- Node1&#45;&gt;Node10 -->
<g id="edge9" class="edge"><title>Node1&#45;&gt;Node10</title>
<path fill="none" stroke="midnightblue" d="M96.4438,-268.973C116.593,-258.738 144.47,-245.394 170,-236 176.728,-233.524 183.813,-231.171 190.941,-228.969"/>
<polygon fill="midnightblue" stroke="midnightblue" points="192.081,-232.281 200.659,-226.063 190.075,-225.575 192.081,-232.281"/>
</g>
<!-- Node11 -->
<g id="node11" class="node"><title>Node11</title>
<g id="a_node11"><a xlink:href="classgestorempleados_1_1control_1_1_negocio_server.xhtml#aa02c2ffea9e8a4c6bd6774a97243f242" target="_top" xlink:title="gestorempleados.control.\lNegocioServer.consultaCargos">
<polygon fill="white" stroke="black" points="188.5,-147 188.5,-177 337.5,-177 337.5,-147 188.5,-147"/>
<text text-anchor="start" x="196.5" y="-165" font-family="Helvetica,sans-Serif" font-size="10.00">gestorempleados.control.</text>
<text text-anchor="middle" x="263" y="-154" font-family="Helvetica,sans-Serif" font-size="10.00">NegocioServer.consultaCargos</text>
</a>
</g>
</g>
<!-- Node1&#45;&gt;Node11 -->
<g id="edge10" class="edge"><title>Node1&#45;&gt;Node11</title>
<path fill="none" stroke="midnightblue" d="M79.7874,-268.777C97.2022,-247.334 131.884,-208.461 170,-187 173.919,-184.794 178.042,-182.774 182.283,-180.926"/>
<polygon fill="midnightblue" stroke="midnightblue" points="183.735,-184.115 191.718,-177.15 181.134,-177.616 183.735,-184.115"/>
</g>
<!-- Node13 -->
<g id="node13" class="node"><title>Node13</title>
<g id="a_node13"><a xlink:href="classgestorempleados_1_1conector_1_1_packet.xhtml#a3ed2226bd3441b1898a8dc8e8e413c2c" target="_top" xlink:title="gestorempleados.conector.\lPacket.getFiltro">
<polygon fill="white" stroke="black" points="196,-98 196,-128 330,-128 330,-98 196,-98"/>
<text text-anchor="start" x="204" y="-116" font-family="Helvetica,sans-Serif" font-size="10.00">gestorempleados.conector.</text>
<text text-anchor="middle" x="263" y="-105" font-family="Helvetica,sans-Serif" font-size="10.00">Packet.getFiltro</text>
</a>
</g>
</g>
<!-- Node1&#45;&gt;Node13 -->
<g id="edge12" class="edge"><title>Node1&#45;&gt;Node13</title>
<path fill="none" stroke="midnightblue" d="M74.2148,-268.992C87.3183,-239.247 120.689,-172.697 170,-138 174.943,-134.522 180.347,-131.528 185.982,-128.95"/>
<polygon fill="midnightblue" stroke="midnightblue" points="187.713,-132.023 195.639,-124.992 185.058,-125.545 187.713,-132.023"/>
</g>
<!-- Node14 -->
<g id="node14" class="node"><title>Node14</title>
<g id="a_node14"><a xlink:href="classgestorempleados_1_1control_1_1_negocio_server.xhtml#a21ddd123da25bd7911c6691d9f6fcc32" target="_top" xlink:title="gestorempleados.control.\lNegocioServer.validUser">
<polygon fill="white" stroke="black" points="200,-49 200,-79 326,-79 326,-49 200,-49"/>
<text text-anchor="start" x="208" y="-67" font-family="Helvetica,sans-Serif" font-size="10.00">gestorempleados.control.</text>
<text text-anchor="middle" x="263" y="-56" font-family="Helvetica,sans-Serif" font-size="10.00">NegocioServer.validUser</text>
</a>
</g>
</g>
<!-- Node1&#45;&gt;Node14 -->
<g id="edge13" class="edge"><title>Node1&#45;&gt;Node14</title>
<path fill="none" stroke="midnightblue" d="M71.4643,-268.906C80.6918,-232.2 109.403,-137.712 170,-89 176.077,-84.1148 183.033,-80.1809 190.339,-77.0137"/>
<polygon fill="midnightblue" stroke="midnightblue" points="191.662,-80.2546 199.74,-73.398 189.15,-73.7211 191.662,-80.2546"/>
</g>
<!-- Node17 -->
<g id="node17" class="node"><title>Node17</title>
<g id="a_node17"><a xlink:href="classgestorempleados_1_1control_1_1_negocio_server.xhtml#a3e144d7e74c740ec52364663085da2dd" target="_top" xlink:title="gestorempleados.control.\lNegocioServer.comprobarEmpleado">
<polygon fill="white" stroke="black" points="177.5,-392 177.5,-422 348.5,-422 348.5,-392 177.5,-392"/>
<text text-anchor="start" x="185.5" y="-410" font-family="Helvetica,sans-Serif" font-size="10.00">gestorempleados.control.</text>
<text text-anchor="middle" x="263" y="-399" font-family="Helvetica,sans-Serif" font-size="10.00">NegocioServer.comprobarEmpleado</text>
</a>
</g>
</g>
<!-- Node1&#45;&gt;Node17 -->
<g id="edge16" class="edge"><title>Node1&#45;&gt;Node17</title>
<path fill="none" stroke="midnightblue" d="M79.4622,-299.023C96.7362,-320.615 131.538,-360.214 170,-382 173.913,-384.217 178.032,-386.244 182.269,-388.098"/>
<polygon fill="midnightblue" stroke="midnightblue" points="181.115,-391.406 191.699,-391.885 183.723,-384.91 181.115,-391.406"/>
</g>
<!-- Node20 -->
<g id="node20" class="node"><title>Node20</title>
<g id="a_node20"><a xlink:href="classgestorempleados_1_1control_1_1_negocio_server.xhtml#a5bb16f7748b0b1189a27f80e630aa03b" target="_top" xlink:title="gestorempleados.control.\lNegocioServer.guardarEmpleado">
<polygon fill="white" stroke="black" points="184,-0 184,-30 342,-30 342,-0 184,-0"/>
<text text-anchor="start" x="192" y="-18" font-family="Helvetica,sans-Serif" font-size="10.00">gestorempleados.control.</text>
<text text-anchor="middle" x="263" y="-7" font-family="Helvetica,sans-Serif" font-size="10.00">NegocioServer.guardarEmpleado</text>
</a>
</g>
</g>
<!-- Node1&#45;&gt;Node20 -->
<g id="edge20" class="edge"><title>Node1&#45;&gt;Node20</title>
<path fill="none" stroke="midnightblue" d="M69.7573,-268.746C75.5272,-225.866 97.8628,-103.28 170,-40 171.769,-38.448 173.626,-36.9914 175.554,-35.6242"/>
<polygon fill="midnightblue" stroke="midnightblue" points="177.73,-38.3958 184.425,-30.1848 174.071,-32.4283 177.73,-38.3958"/>
</g>
<!-- Node5 -->
<g id="node5" class="node"><title>Node5</title>
<g id="a_node5"><a xlink:href="interfacegestorempleados_1_1control_1_1i_control.xhtml#a26adc3fd3fdd93c974165e64a1174119" target="_top" xlink:title="gestorempleados.control.i\lControl.getEmpleados">
<polygon fill="white" stroke="black" points="403,-441 403,-471 531,-471 531,-441 403,-441"/>
<text text-anchor="start" x="411" y="-459" font-family="Helvetica,sans-Serif" font-size="10.00">gestorempleados.control.i</text>
<text text-anchor="middle" x="467" y="-448" font-family="Helvetica,sans-Serif" font-size="10.00">Control.getEmpleados</text>
</a>
</g>
</g>
<!-- Node4&#45;&gt;Node5 -->
<g id="edge4" class="edge"><title>Node4&#45;&gt;Node5</title>
<path fill="none" stroke="midnightblue" d="M346.744,-456C361.97,-456 377.77,-456 392.694,-456"/>
<polygon fill="midnightblue" stroke="midnightblue" points="392.869,-459.5 402.869,-456 392.869,-452.5 392.869,-459.5"/>
</g>
<!-- Node9 -->
<g id="node9" class="node"><title>Node9</title>
<g id="a_node9"><a xlink:href="interfacegestorempleados_1_1control_1_1i_control.xhtml#a37b4919a998348899838eb10a349333b" target="_top" xlink:title="gestorempleados.control.i\lControl.getDepartamentos">
<polygon fill="white" stroke="black" points="402,-245 402,-275 532,-275 532,-245 402,-245"/>
<text text-anchor="start" x="410" y="-263" font-family="Helvetica,sans-Serif" font-size="10.00">gestorempleados.control.i</text>
<text text-anchor="middle" x="467" y="-252" font-family="Helvetica,sans-Serif" font-size="10.00">Control.getDepartamentos</text>
</a>
</g>
</g>
<!-- Node8&#45;&gt;Node9 -->
<g id="edge8" class="edge"><title>Node8&#45;&gt;Node9</title>
<path fill="none" stroke="midnightblue" d="M355.544,-260C367.654,-260 379.948,-260 391.72,-260"/>
<polygon fill="midnightblue" stroke="midnightblue" points="391.913,-263.5 401.913,-260 391.912,-256.5 391.913,-263.5"/>
</g>
<!-- Node12 -->
<g id="node12" class="node"><title>Node12</title>
<g id="a_node12"><a xlink:href="interfacegestorempleados_1_1control_1_1i_control.xhtml#a1abecced91f6786cc7d8ee53b57d81be" target="_top" xlink:title="gestorempleados.control.i\lControl.getCargos">
<polygon fill="white" stroke="black" points="403,-147 403,-177 531,-177 531,-147 403,-147"/>
<text text-anchor="start" x="411" y="-165" font-family="Helvetica,sans-Serif" font-size="10.00">gestorempleados.control.i</text>
<text text-anchor="middle" x="467" y="-154" font-family="Helvetica,sans-Serif" font-size="10.00">Control.getCargos</text>
</a>
</g>
</g>
<!-- Node11&#45;&gt;Node12 -->
<g id="edge11" class="edge"><title>Node11&#45;&gt;Node12</title>
<path fill="none" stroke="midnightblue" d="M337.784,-162C355.59,-162 374.616,-162 392.413,-162"/>
<polygon fill="midnightblue" stroke="midnightblue" points="392.732,-165.5 402.732,-162 392.731,-158.5 392.732,-165.5"/>
</g>
<!-- Node15 -->
<g id="node15" class="node"><title>Node15</title>
<g id="a_node15"><a xlink:href="interfacegestorempleados_1_1control_1_1i_control.xhtml#a8822d39fc4b69601f2e7b76e10512797" target="_top" xlink:title="gestorempleados.control.i\lControl.getuser">
<polygon fill="white" stroke="black" points="403,-98 403,-128 531,-128 531,-98 403,-98"/>
<text text-anchor="start" x="411" y="-116" font-family="Helvetica,sans-Serif" font-size="10.00">gestorempleados.control.i</text>
<text text-anchor="middle" x="467" y="-105" font-family="Helvetica,sans-Serif" font-size="10.00">Control.getuser</text>
</a>
</g>
</g>
<!-- Node14&#45;&gt;Node15 -->
<g id="edge14" class="edge"><title>Node14&#45;&gt;Node15</title>
<path fill="none" stroke="midnightblue" d="M325.979,-79.0346C347.599,-84.2789 372.037,-90.2069 394.375,-95.6255"/>
<polygon fill="midnightblue" stroke="midnightblue" points="393.594,-99.0377 404.138,-97.9938 395.245,-92.235 393.594,-99.0377"/>
</g>
<!-- Node16 -->
<g id="node16" class="node"><title>Node16</title>
<g id="a_node16"><a xlink:href="classgestorempleados_1_1persistencia_1_1_usuarios.xhtml#aefd3faa104371c1f676607c917c7fa26" target="_top" xlink:title="gestorempleados.persistencia.\lUsuarios.getPass">
<polygon fill="white" stroke="black" points="392.5,-49 392.5,-79 541.5,-79 541.5,-49 392.5,-49"/>
<text text-anchor="start" x="400.5" y="-67" font-family="Helvetica,sans-Serif" font-size="10.00">gestorempleados.persistencia.</text>
<text text-anchor="middle" x="467" y="-56" font-family="Helvetica,sans-Serif" font-size="10.00">Usuarios.getPass</text>
</a>
</g>
</g>
<!-- Node14&#45;&gt;Node16 -->
<g id="edge15" class="edge"><title>Node14&#45;&gt;Node16</title>
<path fill="none" stroke="midnightblue" d="M326.255,-64C343.942,-64 363.498,-64 382.238,-64"/>
<polygon fill="midnightblue" stroke="midnightblue" points="382.247,-67.5001 392.247,-64 382.247,-60.5001 382.247,-67.5001"/>
</g>
<!-- Node17&#45;&gt;Node5 -->
<g id="edge17" class="edge"><title>Node17&#45;&gt;Node5</title>
<path fill="none" stroke="midnightblue" d="M325.979,-422.035C347.599,-427.279 372.037,-433.207 394.375,-438.626"/>
<polygon fill="midnightblue" stroke="midnightblue" points="393.594,-442.038 404.138,-440.994 395.245,-435.235 393.594,-442.038"/>
</g>
<!-- Node18 -->
<g id="node18" class="node"><title>Node18</title>
<g id="a_node18"><a xlink:href="classgestorempleados_1_1persistencia_1_1_empleado.xhtml#a94b0fa974225524f9cb20c47ba13fd17" target="_top" xlink:title="gestorempleados.persistencia.\lEmpleado.getDni">
<polygon fill="white" stroke="black" points="392.5,-392 392.5,-422 541.5,-422 541.5,-392 392.5,-392"/>
<text text-anchor="start" x="400.5" y="-410" font-family="Helvetica,sans-Serif" font-size="10.00">gestorempleados.persistencia.</text>
<text text-anchor="middle" x="467" y="-399" font-family="Helvetica,sans-Serif" font-size="10.00">Empleado.getDni</text>
</a>
</g>
</g>
<!-- Node17&#45;&gt;Node18 -->
<g id="edge18" class="edge"><title>Node17&#45;&gt;Node18</title>
<path fill="none" stroke="midnightblue" d="M348.788,-407C359.865,-407 371.209,-407 382.268,-407"/>
<polygon fill="midnightblue" stroke="midnightblue" points="382.329,-410.5 392.329,-407 382.329,-403.5 382.329,-410.5"/>
</g>
<!-- Node19 -->
<g id="node19" class="node"><title>Node19</title>
<g id="a_node19"><a xlink:href="classgestorempleados_1_1persistencia_1_1_empleado.xhtml#a2c11dccd26e0bfa90f266f83cdab5b47" target="_top" xlink:title="gestorempleados.persistencia.\lEmpleado.getNss">
<polygon fill="white" stroke="black" points="392.5,-343 392.5,-373 541.5,-373 541.5,-343 392.5,-343"/>
<text text-anchor="start" x="400.5" y="-361" font-family="Helvetica,sans-Serif" font-size="10.00">gestorempleados.persistencia.</text>
<text text-anchor="middle" x="467" y="-350" font-family="Helvetica,sans-Serif" font-size="10.00">Empleado.getNss</text>
</a>
</g>
</g>
<!-- Node17&#45;&gt;Node19 -->
<g id="edge19" class="edge"><title>Node17&#45;&gt;Node19</title>
<path fill="none" stroke="midnightblue" d="M325.979,-391.965C347.599,-386.721 372.037,-380.793 394.375,-375.374"/>
<polygon fill="midnightblue" stroke="midnightblue" points="395.245,-378.765 404.138,-373.006 393.594,-371.962 395.245,-378.765"/>
</g>
<!-- Node21 -->
<g id="node21" class="node"><title>Node21</title>
<g id="a_node21"><a xlink:href="interfacegestorempleados_1_1control_1_1i_control.xhtml#abcbee4e1ceac58d8ae9b470b26bac96b" target="_top" xlink:title="gestorempleados.control.i\lControl.saveEmpleado">
<polygon fill="white" stroke="black" points="403,-0 403,-30 531,-30 531,-0 403,-0"/>
<text text-anchor="start" x="411" y="-18" font-family="Helvetica,sans-Serif" font-size="10.00">gestorempleados.control.i</text>
<text text-anchor="middle" x="467" y="-7" font-family="Helvetica,sans-Serif" font-size="10.00">Control.saveEmpleado</text>
</a>
</g>
</g>
<!-- Node20&#45;&gt;Node21 -->
<g id="edge21" class="edge"><title>Node20&#45;&gt;Node21</title>
<path fill="none" stroke="midnightblue" d="M342.098,-15C358.739,-15 376.256,-15 392.709,-15"/>
<polygon fill="midnightblue" stroke="midnightblue" points="392.799,-18.5001 402.799,-15 392.799,-11.5001 392.799,-18.5001"/>
</g>
</g>
</svg>
