<?xml version="1.0" encoding="UTF-8" standalone="no"?>
<!DOCTYPE svg PUBLIC "-//W3C//DTD SVG 1.1//EN"
 "http://www.w3.org/Graphics/SVG/1.1/DTD/svg11.dtd">
<!-- Generated by graphviz version 2.30.1 (20130214.1330)
 -->
<!-- Title: gestorempleados.persistencia.Usuarios.getPass Pages: 1 -->
<svg width="490pt" height="38pt"
 viewBox="0.00 0.00 490.00 38.00" xmlns="http://www.w3.org/2000/svg" xmlns:xlink="http://www.w3.org/1999/xlink">
<g id="graph0" class="graph" transform="scale(1 1) rotate(0) translate(4 34)">
<title>gestorempleados.persistencia.Usuarios.getPass</title>
<polygon fill="white" stroke="white" points="-4,5 -4,-34 487,-34 487,5 -4,5"/>
<!-- Node1 -->
<g id="node1" class="node"><title>Node1</title>
<polygon fill="#bfbfbf" stroke="black" points="0.5,-0 0.5,-30 149.5,-30 149.5,-0 0.5,-0"/>
<text text-anchor="start" x="8.5" y="-18" font-family="Helvetica,sans-Serif" font-size="10.00">gestorempleados.persistencia.</text>
<text text-anchor="middle" x="75" y="-7" font-family="Helvetica,sans-Serif" font-size="10.00">Usuarios.getPass</text>
</g>
<!-- Node2 -->
<g id="node2" class="node"><title>Node2</title>
<g id="a_node2"><a xlink:href="classgestorempleados_1_1control_1_1_negocio_server.xhtml#a21ddd123da25bd7911c6691d9f6fcc32" target="_top" xlink:title="gestorempleados.control.\lNegocioServer.validUser">
<polygon fill="white" stroke="black" points="186,-0 186,-30 312,-30 312,-0 186,-0"/>
<text text-anchor="start" x="194" y="-18" font-family="Helvetica,sans-Serif" font-size="10.00">gestorempleados.control.</text>
<text text-anchor="middle" x="249" y="-7" font-family="Helvetica,sans-Serif" font-size="10.00">NegocioServer.validUser</text>
</a>
</g>
</g>
<!-- Node1&#45;&gt;Node2 -->
<g id="edge1" class="edge"><title>Node1&#45;&gt;Node2</title>
<path fill="none" stroke="midnightblue" d="M160.137,-15C168.85,-15 177.589,-15 185.995,-15"/>
<polygon fill="midnightblue" stroke="midnightblue" points="159.942,-11.5001 149.942,-15 159.942,-18.5001 159.942,-11.5001"/>
</g>
<!-- Node3 -->
<g id="node3" class="node"><title>Node3</title>
<g id="a_node3"><a xlink:href="classgestorempleados_1_1conector_1_1_server_hilo.xhtml#a07af13636cbf4d5de179689508a36609" target="_top" xlink:title="gestorempleados.conector.\lServerHilo.run">
<polygon fill="white" stroke="black" points="348,-0 348,-30 482,-30 482,-0 348,-0"/>
<text text-anchor="start" x="356" y="-18" font-family="Helvetica,sans-Serif" font-size="10.00">gestorempleados.conector.</text>
<text text-anchor="middle" x="415" y="-7" font-family="Helvetica,sans-Serif" font-size="10.00">ServerHilo.run</text>
</a>
</g>
</g>
<!-- Node2&#45;&gt;Node3 -->
<g id="edge2" class="edge"><title>Node2&#45;&gt;Node3</title>
<path fill="none" stroke="midnightblue" d="M322.269,-15C330.764,-15 339.4,-15 347.806,-15"/>
<polygon fill="midnightblue" stroke="midnightblue" points="322.001,-11.5001 312.001,-15 322.001,-18.5001 322.001,-11.5001"/>
</g>
</g>
</svg>
