<?xml version="1.0" encoding="UTF-8" standalone="no"?>
<!DOCTYPE svg PUBLIC "-//W3C//DTD SVG 1.1//EN"
 "http://www.w3.org/Graphics/SVG/1.1/DTD/svg11.dtd">
<!-- Generated by graphviz version 2.30.1 (20130214.1330)
 -->
<!-- Title: gestorempleados.conector.StartServer Pages: 1 -->
<!--zoomable 510 -->
<svg id="main" version="1.1" xmlns="http://www.w3.org/2000/svg" xmlns:xlink="http://www.w3.org/1999/xlink" xml:space="preserve" onload="init(evt)">
<style type="text/css"><![CDATA[
.edge:hover path { stroke: red; }
.edge:hover polygon { stroke: red; fill: red; }
]]></style>
<script type="text/javascript"><![CDATA[
var edges = document.getElementsByTagName('g');
if (edges && edges.length) {
  for (var i=0;i<edges.length;i++) {
    if (edges[i].id.substr(0,4)=='edge') {
      edges[i].setAttribute('class','edge');
    }
  }
}
]]></script>
        <defs>
                <circle id="rim" cx="0" cy="0" r="7"/>
                <circle id="rim2" cx="0" cy="0" r="3.5"/>
                <g id="zoomPlus">
                        <use xlink:href="#rim" fill="#404040">
                                <set attributeName="fill" to="#808080" begin="zoomplus.mouseover" end="zoomplus.mouseout"/>
                        </use>
                        <path d="M-4,0h8M0,-4v8" fill="none" stroke="white" stroke-width="1.5" pointer-events="none"/>
                </g>
                <g id="zoomMin">
                        <use xlink:href="#rim" fill="#404040">
                                <set attributeName="fill" to="#808080" begin="zoomminus.mouseover" end="zoomminus.mouseout"/>
                        </use>
                        <path d="M-4,0h8" fill="none" stroke="white" stroke-width="1.5" pointer-events="none"/>
                </g>
                <g id="dirArrow">
                        <path fill="none" stroke="white" stroke-width="1.5" d="M0,-3.0v7 M-2.5,-0.5L0,-3.0L2.5,-0.5"/>
                </g>
               <g id="resetDef">
                       <use xlink:href="#rim2" fill="#404040">
                               <set attributeName="fill" to="#808080" begin="reset.mouseover" end="reset.mouseout"/>
                       </use>
               </g>
        </defs>

<script type="text/javascript">
var viewWidth = 457;
var viewHeight = 510;
var sectionId = 'dynsection-0';
</script>
<script xlink:href="svgpan.js"/>
<svg id="graph" class="graph">
<g id="viewport">
<title>gestorempleados.conector.StartServer</title>
<polygon fill="white" stroke="white" points="-4,5 -4,-506 454,-506 454,5 -4,5"/>
<!-- Node1 -->
<g id="node1" class="node"><title>Node1</title>
<polygon fill="#bfbfbf" stroke="black" points="169,-0.5 169,-101.5 303,-101.5 303,-0.5 169,-0.5"/>
<text text-anchor="start" x="177" y="-89.5" font-family="Helvetica,sans-Serif" font-size="10.00">gestorempleados.conector.</text>
<text text-anchor="middle" x="236" y="-78.5" font-family="Helvetica,sans-Serif" font-size="10.00">StartServer</text>
<polyline fill="none" stroke="black" points="169,-71.5 303,-71.5 "/>
<text text-anchor="start" x="177" y="-59.5" font-family="Helvetica,sans-Serif" font-size="10.00">+ port</text>
<polyline fill="none" stroke="black" points="169,-52.5 303,-52.5 "/>
<text text-anchor="start" x="177" y="-40.5" font-family="Helvetica,sans-Serif" font-size="10.00">+ StartServer()</text>
<text text-anchor="start" x="177" y="-29.5" font-family="Helvetica,sans-Serif" font-size="10.00">+ connectServer()</text>
<text text-anchor="start" x="177" y="-18.5" font-family="Helvetica,sans-Serif" font-size="10.00">+ escuchar()</text>
<text text-anchor="start" x="177" y="-7.5" font-family="Helvetica,sans-Serif" font-size="10.00">+ desconectar()</text>
</g>
<!-- Node2 -->
<g id="node2" class="node"><title>Node2</title>
<polygon fill="white" stroke="#bfbfbf" points="0,-205.5 0,-262.5 74,-262.5 74,-205.5 0,-205.5"/>
<text text-anchor="middle" x="37" y="-250.5" font-family="Helvetica,sans-Serif" font-size="10.00">ServerSocket</text>
<polyline fill="none" stroke="#bfbfbf" points="0,-243.5 74,-243.5 "/>
<text text-anchor="middle" x="37" y="-231.5" font-family="Helvetica,sans-Serif" font-size="10.00"> </text>
<polyline fill="none" stroke="#bfbfbf" points="0,-224.5 74,-224.5 "/>
<text text-anchor="middle" x="37" y="-212.5" font-family="Helvetica,sans-Serif" font-size="10.00"> </text>
</g>
<!-- Node2&#45;&gt;Node1 -->
<g id="edge1" class="edge"><title>Node2&#45;&gt;Node1</title>
<path fill="none" stroke="#404040" d="M48.0918,-205.384C55.9988,-188.085 67.8941,-166.099 83,-150 104.437,-127.154 132.269,-107.285 158.307,-91.5208"/>
<polygon fill="none" stroke="#404040" points="158.611,-91.3411 161.746,-84.8466 168.946,-85.2418 165.812,-91.7362 158.611,-91.3411"/>
<text text-anchor="middle" x="150" y="-123.5" font-family="Helvetica,sans-Serif" font-size="10.00"> +socketServer</text>
</g>
<!-- Node3 -->
<g id="node3" class="node"><title>Node3</title>
<g id="a_node3"><a xlink:href="classgestorempleados_1_1control_1_1_control_s_q_l.xhtml" target="_top" xlink:title="{gestorempleados.control.\lControlSQL\n||+ ControlSQL()\l+ saveEmpleado()\l+ getEmpleadoDni()\l+ getEmpleados()\l+ getDepartamentos()\l+ getCargos()\l+ getuser()\l+ getContratos()\l+ comprobarContratoActivo()\l&#45; buildSessionFactory()\l}">
<polygon fill="white" stroke="black" points="244,-150.5 244,-317.5 384,-317.5 384,-150.5 244,-150.5"/>
<text text-anchor="start" x="252" y="-305.5" font-family="Helvetica,sans-Serif" font-size="10.00">gestorempleados.control.</text>
<text text-anchor="middle" x="314" y="-294.5" font-family="Helvetica,sans-Serif" font-size="10.00">ControlSQL</text>
<polyline fill="none" stroke="black" points="244,-287.5 384,-287.5 "/>
<text text-anchor="middle" x="314" y="-275.5" font-family="Helvetica,sans-Serif" font-size="10.00"> </text>
<polyline fill="none" stroke="black" points="244,-268.5 384,-268.5 "/>
<text text-anchor="start" x="252" y="-256.5" font-family="Helvetica,sans-Serif" font-size="10.00">+ ControlSQL()</text>
<text text-anchor="start" x="252" y="-245.5" font-family="Helvetica,sans-Serif" font-size="10.00">+ saveEmpleado()</text>
<text text-anchor="start" x="252" y="-234.5" font-family="Helvetica,sans-Serif" font-size="10.00">+ getEmpleadoDni()</text>
<text text-anchor="start" x="252" y="-223.5" font-family="Helvetica,sans-Serif" font-size="10.00">+ getEmpleados()</text>
<text text-anchor="start" x="252" y="-212.5" font-family="Helvetica,sans-Serif" font-size="10.00">+ getDepartamentos()</text>
<text text-anchor="start" x="252" y="-201.5" font-family="Helvetica,sans-Serif" font-size="10.00">+ getCargos()</text>
<text text-anchor="start" x="252" y="-190.5" font-family="Helvetica,sans-Serif" font-size="10.00">+ getuser()</text>
<text text-anchor="start" x="252" y="-179.5" font-family="Helvetica,sans-Serif" font-size="10.00">+ getContratos()</text>
<text text-anchor="start" x="252" y="-168.5" font-family="Helvetica,sans-Serif" font-size="10.00">+ comprobarContratoActivo()</text>
<text text-anchor="start" x="252" y="-157.5" font-family="Helvetica,sans-Serif" font-size="10.00">&#45; buildSessionFactory()</text>
</a>
</g>
</g>
<!-- Node3&#45;&gt;Node1 -->
<g id="edge2" class="edge"><title>Node3&#45;&gt;Node1</title>
<path fill="none" stroke="#404040" d="M278.424,-150.445C272.974,-137.798 267.433,-124.942 262.234,-112.876"/>
<polygon fill="none" stroke="#404040" points="262.116,-112.602 256.068,-108.675 257.367,-101.582 263.415,-105.509 262.116,-112.602"/>
<text text-anchor="middle" x="291.5" y="-123.5" font-family="Helvetica,sans-Serif" font-size="10.00"> +modelo</text>
</g>
<!-- Node4 -->
<g id="node4" class="node"><title>Node4</title>
<g id="a_node4"><a xlink:href="interfacegestorempleados_1_1control_1_1i_control.xhtml" target="_top" xlink:title="{gestorempleados.control.i\lControl\n||+ getEmpleados()\l+ saveEmpleado()\l+ getContratos()\l+ getuser()\l+ getDepartamentos()\l+ getCargos()\l+ comprobarContratoActivo()\l}">
<polygon fill="white" stroke="black" points="107,-367 107,-501 247,-501 247,-367 107,-367"/>
<text text-anchor="start" x="115" y="-489" font-family="Helvetica,sans-Serif" font-size="10.00">gestorempleados.control.i</text>
<text text-anchor="middle" x="177" y="-478" font-family="Helvetica,sans-Serif" font-size="10.00">Control</text>
<polyline fill="none" stroke="black" points="107,-471 247,-471 "/>
<text text-anchor="middle" x="177" y="-459" font-family="Helvetica,sans-Serif" font-size="10.00"> </text>
<polyline fill="none" stroke="black" points="107,-452 247,-452 "/>
<text text-anchor="start" x="115" y="-440" font-family="Helvetica,sans-Serif" font-size="10.00">+ getEmpleados()</text>
<text text-anchor="start" x="115" y="-429" font-family="Helvetica,sans-Serif" font-size="10.00">+ saveEmpleado()</text>
<text text-anchor="start" x="115" y="-418" font-family="Helvetica,sans-Serif" font-size="10.00">+ getContratos()</text>
<text text-anchor="start" x="115" y="-407" font-family="Helvetica,sans-Serif" font-size="10.00">+ getuser()</text>
<text text-anchor="start" x="115" y="-396" font-family="Helvetica,sans-Serif" font-size="10.00">+ getDepartamentos()</text>
<text text-anchor="start" x="115" y="-385" font-family="Helvetica,sans-Serif" font-size="10.00">+ getCargos()</text>
<text text-anchor="start" x="115" y="-374" font-family="Helvetica,sans-Serif" font-size="10.00">+ comprobarContratoActivo()</text>
</a>
</g>
</g>
<!-- Node4&#45;&gt;Node3 -->
<g id="edge3" class="edge"><title>Node4&#45;&gt;Node3</title>
<path fill="none" stroke="midnightblue" d="M228.756,-358.199C237.91,-344.97 247.488,-331.127 256.782,-317.695"/>
<polygon fill="none" stroke="midnightblue" points="225.621,-356.579 222.809,-366.794 231.378,-360.562 225.621,-356.579"/>
</g>
<!-- Node7 -->
<g id="node7" class="node"><title>Node7</title>
<g id="a_node7"><a xlink:href="classgestorempleados_1_1control_1_1_negocio_server.xhtml" target="_top" xlink:title="{gestorempleados.control.\lNegocioServer\n||+ NegocioServer()\l+ comprobarEmpleado()\l+ comprobarEmpleado()\l+ guardarEmpleado()\l+ modifEmpleado()\l+ consultaEmpleados()\l+ consultaDepartamentos()\l+ consultaCargos()\l+ validUser()\l}">
<polygon fill="white" stroke="black" points="92,-156 92,-312 226,-312 226,-156 92,-156"/>
<text text-anchor="start" x="100" y="-300" font-family="Helvetica,sans-Serif" font-size="10.00">gestorempleados.control.</text>
<text text-anchor="middle" x="159" y="-289" font-family="Helvetica,sans-Serif" font-size="10.00">NegocioServer</text>
<polyline fill="none" stroke="black" points="92,-282 226,-282 "/>
<text text-anchor="middle" x="159" y="-270" font-family="Helvetica,sans-Serif" font-size="10.00"> </text>
<polyline fill="none" stroke="black" points="92,-263 226,-263 "/>
<text text-anchor="start" x="100" y="-251" font-family="Helvetica,sans-Serif" font-size="10.00">+ NegocioServer()</text>
<text text-anchor="start" x="100" y="-240" font-family="Helvetica,sans-Serif" font-size="10.00">+ comprobarEmpleado()</text>
<text text-anchor="start" x="100" y="-229" font-family="Helvetica,sans-Serif" font-size="10.00">+ comprobarEmpleado()</text>
<text text-anchor="start" x="100" y="-218" font-family="Helvetica,sans-Serif" font-size="10.00">+ guardarEmpleado()</text>
<text text-anchor="start" x="100" y="-207" font-family="Helvetica,sans-Serif" font-size="10.00">+ modifEmpleado()</text>
<text text-anchor="start" x="100" y="-196" font-family="Helvetica,sans-Serif" font-size="10.00">+ consultaEmpleados()</text>
<text text-anchor="start" x="100" y="-185" font-family="Helvetica,sans-Serif" font-size="10.00">+ consultaDepartamentos()</text>
<text text-anchor="start" x="100" y="-174" font-family="Helvetica,sans-Serif" font-size="10.00">+ consultaCargos()</text>
<text text-anchor="start" x="100" y="-163" font-family="Helvetica,sans-Serif" font-size="10.00">+ validUser()</text>
</a>
</g>
</g>
<!-- Node4&#45;&gt;Node7 -->
<g id="edge7" class="edge"><title>Node4&#45;&gt;Node7</title>
<path fill="none" stroke="#404040" d="M170.981,-366.794C169.736,-353.092 168.404,-338.446 167.098,-324.081"/>
<polygon fill="none" stroke="#404040" points="167.096,-324.059 162.569,-318.445 166.01,-312.108 170.537,-317.721 167.096,-324.059"/>
<text text-anchor="middle" x="189.5" y="-339.5" font-family="Helvetica,sans-Serif" font-size="10.00"> +control</text>
</g>
<!-- Node5 -->
<g id="node5" class="node"><title>Node5</title>
<polygon fill="white" stroke="#bfbfbf" points="271.5,-405.5 271.5,-462.5 356.5,-462.5 356.5,-405.5 271.5,-405.5"/>
<text text-anchor="middle" x="314" y="-450.5" font-family="Helvetica,sans-Serif" font-size="10.00">SessionFactory</text>
<polyline fill="none" stroke="#bfbfbf" points="271.5,-443.5 356.5,-443.5 "/>
<text text-anchor="middle" x="314" y="-431.5" font-family="Helvetica,sans-Serif" font-size="10.00"> </text>
<polyline fill="none" stroke="#bfbfbf" points="271.5,-424.5 356.5,-424.5 "/>
<text text-anchor="middle" x="314" y="-412.5" font-family="Helvetica,sans-Serif" font-size="10.00"> </text>
</g>
<!-- Node5&#45;&gt;Node3 -->
<g id="edge4" class="edge"><title>Node5&#45;&gt;Node3</title>
<path fill="none" stroke="#404040" d="M314,-405.469C314,-385.661 314,-357.679 314,-330.101"/>
<polygon fill="none" stroke="#404040" points="314,-329.912 310,-323.912 314,-317.912 318,-323.912 314,-329.912"/>
<text text-anchor="middle" x="350.5" y="-339.5" font-family="Helvetica,sans-Serif" font-size="10.00"> &#45;sessionFactory</text>
</g>
<!-- Node6 -->
<g id="node6" class="node"><title>Node6</title>
<polygon fill="white" stroke="#bfbfbf" points="402.5,-205.5 402.5,-262.5 449.5,-262.5 449.5,-205.5 402.5,-205.5"/>
<text text-anchor="middle" x="426" y="-250.5" font-family="Helvetica,sans-Serif" font-size="10.00">Socket</text>
<polyline fill="none" stroke="#bfbfbf" points="402.5,-243.5 449.5,-243.5 "/>
<text text-anchor="middle" x="426" y="-231.5" font-family="Helvetica,sans-Serif" font-size="10.00"> </text>
<polyline fill="none" stroke="#bfbfbf" points="402.5,-224.5 449.5,-224.5 "/>
<text text-anchor="middle" x="426" y="-212.5" font-family="Helvetica,sans-Serif" font-size="10.00"> </text>
</g>
<!-- Node6&#45;&gt;Node1 -->
<g id="edge5" class="edge"><title>Node6&#45;&gt;Node1</title>
<path fill="none" stroke="#404040" d="M419.732,-205.284C414.734,-187.945 406.316,-165.952 393,-150 371.638,-124.41 341.805,-103.466 313.876,-87.6053"/>
<polygon fill="none" stroke="#404040" points="313.799,-87.5631 306.614,-88.1739 303.287,-81.7763 310.472,-81.1655 313.799,-87.5631"/>
<text text-anchor="middle" x="406.5" y="-123.5" font-family="Helvetica,sans-Serif" font-size="10.00"> &#45;socketClient</text>
</g>
<!-- Node7&#45;&gt;Node1 -->
<g id="edge6" class="edge"><title>Node7&#45;&gt;Node1</title>
<path fill="none" stroke="#404040" d="M191.767,-155.977C197.874,-141.62 204.179,-126.799 210.047,-113.005"/>
<polygon fill="none" stroke="#404040" points="210.163,-112.735 208.831,-105.648 214.86,-101.692 216.192,-108.779 210.163,-112.735"/>
<text text-anchor="middle" x="228.5" y="-123.5" font-family="Helvetica,sans-Serif" font-size="10.00"> +negocio</text>
</g>
</g>
</svg>
        <g id="navigator" transform="translate(0 0)" fill="#404254">
                <rect fill="#f2f5e9" fill-opacity="0.5" stroke="#606060" stroke-width=".5" x="0" y="0" width="60" height="60"/>
                <use id="zoomplus" xlink:href="#zoomPlus" x="17" y="9" onmousedown="handleZoom(evt,'in')"/>
                <use id="zoomminus" xlink:href="#zoomMin" x="42" y="9" onmousedown="handleZoom(evt,'out')"/>
                <use id="reset" xlink:href="#resetDef" x="30" y="36" onmousedown="handleReset()"/>
                <g id="arrowUp" xlink:href="#dirArrow" transform="translate(30 24)" onmousedown="handlePan(0,-1)">
                  <use xlink:href="#rim" fill="#404040">
                        <set attributeName="fill" to="#808080" begin="arrowUp.mouseover" end="arrowUp.mouseout"/>
                  </use>
                  <path fill="none" stroke="white" stroke-width="1.5" d="M0,-3.0v7 M-2.5,-0.5L0,-3.0L2.5,-0.5"/>
                </g>
                <g id="arrowRight" xlink:href="#dirArrow" transform="rotate(90) translate(36 -43)" onmousedown="handlePan(1,0)">
                  <use xlink:href="#rim" fill="#404040">
                        <set attributeName="fill" to="#808080" begin="arrowRight.mouseover" end="arrowRight.mouseout"/>
                  </use>
                  <path fill="none" stroke="white" stroke-width="1.5" d="M0,-3.0v7 M-2.5,-0.5L0,-3.0L2.5,-0.5"/>
                </g>
                <g id="arrowDown" xlink:href="#dirArrow" transform="rotate(180) translate(-30 -48)" onmousedown="handlePan(0,1)">
                  <use xlink:href="#rim" fill="#404040">
                        <set attributeName="fill" to="#808080" begin="arrowDown.mouseover" end="arrowDown.mouseout"/>
                  </use>
                  <path fill="none" stroke="white" stroke-width="1.5" d="M0,-3.0v7 M-2.5,-0.5L0,-3.0L2.5,-0.5"/>
                </g>
                <g id="arrowLeft" xlink:href="#dirArrow" transform="rotate(270) translate(-36 17)" onmousedown="handlePan(-1,0)">
                  <use xlink:href="#rim" fill="#404040">
                        <set attributeName="fill" to="#808080" begin="arrowLeft.mouseover" end="arrowLeft.mouseout"/>
                  </use>
                  <path fill="none" stroke="white" stroke-width="1.5" d="M0,-3.0v7 M-2.5,-0.5L0,-3.0L2.5,-0.5"/>
                </g>
        </g>
        <svg viewBox="0 0 15 15" width="100%" height="30px" preserveAspectRatio="xMaxYMin meet">
         <g id="arrow_out" transform="scale(0.3 0.3)">
          <a xlink:href="classgestorempleados_1_1conector_1_1_start_server__coll__graph_org.svg" target="_base">
           <rect id="button" ry="5" rx="5" y="6" x="6" height="38" width="38"
                fill="#f2f5e9" fill-opacity="0.5" stroke="#606060" stroke-width="1.0"/>
           <path id="arrow"
             d="M 11.500037,31.436501 C 11.940474,20.09759 22.043105,11.32322 32.158766,21.979434 L 37.068811,17.246167 C 37.068811,17.246167 37.088388,32 37.088388,32 L 22.160133,31.978069 C 22.160133,31.978069 26.997745,27.140456 26.997745,27.140456 C 18.528582,18.264221 13.291696,25.230495 11.500037,31.436501 z"
             style="fill:#404040;"/>
          </a>
         </g>
        </svg>
</svg>
