<?xml version="1.0" encoding="UTF-8" standalone="no"?>
<!DOCTYPE svg PUBLIC "-//W3C//DTD SVG 1.1//EN"
 "http://www.w3.org/Graphics/SVG/1.1/DTD/svg11.dtd">
<!-- Generated by graphviz version 2.30.1 (20130214.1330)
 -->
<!-- Title: gestorempleados.control.NegocioServer.modifEmpleado Pages: 1 -->
<!--zoomable 1508 -->
<svg id="main" version="1.1" xmlns="http://www.w3.org/2000/svg" xmlns:xlink="http://www.w3.org/1999/xlink" xml:space="preserve" onload="init(evt)">
<style type="text/css"><![CDATA[
.edge:hover path { stroke: red; }
.edge:hover polygon { stroke: red; fill: red; }
]]></style>
<script type="text/javascript"><![CDATA[
var edges = document.getElementsByTagName('g');
if (edges && edges.length) {
  for (var i=0;i<edges.length;i++) {
    if (edges[i].id.substr(0,4)=='edge') {
      edges[i].setAttribute('class','edge');
    }
  }
}
]]></script>
        <defs>
                <circle id="rim" cx="0" cy="0" r="7"/>
                <circle id="rim2" cx="0" cy="0" r="3.5"/>
                <g id="zoomPlus">
                        <use xlink:href="#rim" fill="#404040">
                                <set attributeName="fill" to="#808080" begin="zoomplus.mouseover" end="zoomplus.mouseout"/>
                        </use>
                        <path d="M-4,0h8M0,-4v8" fill="none" stroke="white" stroke-width="1.5" pointer-events="none"/>
                </g>
                <g id="zoomMin">
                        <use xlink:href="#rim" fill="#404040">
                                <set attributeName="fill" to="#808080" begin="zoomminus.mouseover" end="zoomminus.mouseout"/>
                        </use>
                        <path d="M-4,0h8" fill="none" stroke="white" stroke-width="1.5" pointer-events="none"/>
                </g>
                <g id="dirArrow">
                        <path fill="none" stroke="white" stroke-width="1.5" d="M0,-3.0v7 M-2.5,-0.5L0,-3.0L2.5,-0.5"/>
                </g>
               <g id="resetDef">
                       <use xlink:href="#rim2" fill="#404040">
                               <set attributeName="fill" to="#808080" begin="reset.mouseover" end="reset.mouseout"/>
                       </use>
               </g>
        </defs>

<script type="text/javascript">
var viewWidth = 346;
var viewHeight = 1508;
var sectionId = 'dynsection-12';
</script>
<script xlink:href="svgpan.js"/>
<svg id="graph" class="graph">
<g id="viewport">
<title>gestorempleados.control.NegocioServer.modifEmpleado</title>
<polygon fill="white" stroke="white" points="-4,5 -4,-1504 343,-1504 343,5 -4,5"/>
<!-- Node1 -->
<g id="node1" class="node"><title>Node1</title>
<polygon fill="#bfbfbf" stroke="black" points="0.5,-735 0.5,-765 149.5,-765 149.5,-735 0.5,-735"/>
<text text-anchor="start" x="8.5" y="-753" font-family="Helvetica,sans-Serif" font-size="10.00">gestorempleados.control.</text>
<text text-anchor="middle" x="75" y="-742" font-family="Helvetica,sans-Serif" font-size="10.00">NegocioServer.modifEmpleado</text>
</g>
<!-- Node2 -->
<g id="node2" class="node"><title>Node2</title>
<g id="a_node2"><a xlink:href="interfacegestorempleados_1_1control_1_1i_control.xhtml#a26adc3fd3fdd93c974165e64a1174119" target="_top" xlink:title="gestorempleados.control.i\lControl.getEmpleados">
<polygon fill="white" stroke="black" points="198,-1470 198,-1500 326,-1500 326,-1470 198,-1470"/>
<text text-anchor="start" x="206" y="-1488" font-family="Helvetica,sans-Serif" font-size="10.00">gestorempleados.control.i</text>
<text text-anchor="middle" x="262" y="-1477" font-family="Helvetica,sans-Serif" font-size="10.00">Control.getEmpleados</text>
</a>
</g>
</g>
<!-- Node1&#45;&gt;Node2 -->
<g id="edge1" class="edge"><title>Node1&#45;&gt;Node2</title>
<path fill="none" stroke="midnightblue" d="M76.2698,-765.233C78.215,-858.283 92.8358,-1349.7 186,-1460 187.157,-1461.37 188.391,-1462.66 189.691,-1463.89"/>
<polygon fill="midnightblue" stroke="midnightblue" points="187.738,-1466.8 197.788,-1470.16 192.023,-1461.27 187.738,-1466.8"/>
</g>
<!-- Node3 -->
<g id="node3" class="node"><title>Node3</title>
<g id="a_node3"><a xlink:href="classgestorempleados_1_1persistencia_1_1_empleado.xhtml#a94b0fa974225524f9cb20c47ba13fd17" target="_top" xlink:title="gestorempleados.persistencia.\lEmpleado.getDni">
<polygon fill="white" stroke="black" points="187.5,-1421 187.5,-1451 336.5,-1451 336.5,-1421 187.5,-1421"/>
<text text-anchor="start" x="195.5" y="-1439" font-family="Helvetica,sans-Serif" font-size="10.00">gestorempleados.persistencia.</text>
<text text-anchor="middle" x="262" y="-1428" font-family="Helvetica,sans-Serif" font-size="10.00">Empleado.getDni</text>
</a>
</g>
</g>
<!-- Node1&#45;&gt;Node3 -->
<g id="edge2" class="edge"><title>Node1&#45;&gt;Node3</title>
<path fill="none" stroke="midnightblue" d="M76.4549,-765.045C79.4311,-853.831 98.8182,-1308.95 186,-1411 187.031,-1412.21 188.121,-1413.36 189.265,-1414.45"/>
<polygon fill="midnightblue" stroke="midnightblue" points="187.459,-1417.48 197.489,-1420.89 191.776,-1411.97 187.459,-1417.48"/>
</g>
<!-- Node4 -->
<g id="node4" class="node"><title>Node4</title>
<g id="a_node4"><a xlink:href="classgestorempleados_1_1persistencia_1_1_empleado.xhtml#a54ddcd61d516da12222e11ca0a991499" target="_top" xlink:title="gestorempleados.persistencia.\lEmpleado.setNombre">
<polygon fill="white" stroke="black" points="187.5,-1372 187.5,-1402 336.5,-1402 336.5,-1372 187.5,-1372"/>
<text text-anchor="start" x="195.5" y="-1390" font-family="Helvetica,sans-Serif" font-size="10.00">gestorempleados.persistencia.</text>
<text text-anchor="middle" x="262" y="-1379" font-family="Helvetica,sans-Serif" font-size="10.00">Empleado.setNombre</text>
</a>
</g>
</g>
<!-- Node1&#45;&gt;Node4 -->
<g id="edge3" class="edge"><title>Node1&#45;&gt;Node4</title>
<path fill="none" stroke="midnightblue" d="M76.6726,-765.027C80.7584,-849.844 104.842,-1268.23 186,-1362 187.039,-1363.2 188.136,-1364.34 189.286,-1365.43"/>
<polygon fill="midnightblue" stroke="midnightblue" points="187.5,-1368.47 197.544,-1371.85 191.794,-1362.95 187.5,-1368.47"/>
</g>
<!-- Node5 -->
<g id="node5" class="node"><title>Node5</title>
<g id="a_node5"><a xlink:href="classgestorempleados_1_1persistencia_1_1_empleado.xhtml#a2a2f82a878aa5af46f5fcd7e5a9fc11f" target="_top" xlink:title="gestorempleados.persistencia.\lEmpleado.getNombre">
<polygon fill="white" stroke="black" points="187.5,-1323 187.5,-1353 336.5,-1353 336.5,-1323 187.5,-1323"/>
<text text-anchor="start" x="195.5" y="-1341" font-family="Helvetica,sans-Serif" font-size="10.00">gestorempleados.persistencia.</text>
<text text-anchor="middle" x="262" y="-1330" font-family="Helvetica,sans-Serif" font-size="10.00">Empleado.getNombre</text>
</a>
</g>
</g>
<!-- Node1&#45;&gt;Node5 -->
<g id="edge4" class="edge"><title>Node1&#45;&gt;Node5</title>
<path fill="none" stroke="midnightblue" d="M76.9351,-765.136C82.2261,-846.098 110.888,-1227.53 186,-1313 187.048,-1314.19 188.154,-1315.33 189.311,-1316.41"/>
<polygon fill="midnightblue" stroke="midnightblue" points="187.547,-1319.47 197.607,-1322.79 191.815,-1313.92 187.547,-1319.47"/>
</g>
<!-- Node6 -->
<g id="node6" class="node"><title>Node6</title>
<g id="a_node6"><a xlink:href="classgestorempleados_1_1persistencia_1_1_empleado.xhtml#a3a326148cd7029a37590cffa30e17950" target="_top" xlink:title="gestorempleados.persistencia.\lEmpleado.setApellido1">
<polygon fill="white" stroke="black" points="187.5,-1274 187.5,-1304 336.5,-1304 336.5,-1274 187.5,-1274"/>
<text text-anchor="start" x="195.5" y="-1292" font-family="Helvetica,sans-Serif" font-size="10.00">gestorempleados.persistencia.</text>
<text text-anchor="middle" x="262" y="-1281" font-family="Helvetica,sans-Serif" font-size="10.00">Empleado.setApellido1</text>
</a>
</g>
</g>
<!-- Node1&#45;&gt;Node6 -->
<g id="edge5" class="edge"><title>Node1&#45;&gt;Node6</title>
<path fill="none" stroke="midnightblue" d="M77.2343,-765.068C83.7895,-841.61 116.857,-1186.73 186,-1264 187.196,-1265.34 188.464,-1266.6 189.796,-1267.8"/>
<polygon fill="midnightblue" stroke="midnightblue" points="187.925,-1270.77 198.033,-1273.94 192.111,-1265.16 187.925,-1270.77"/>
</g>
<!-- Node7 -->
<g id="node7" class="node"><title>Node7</title>
<g id="a_node7"><a xlink:href="classgestorempleados_1_1persistencia_1_1_empleado.xhtml#a44bac9c9bf9950bd0796f8a38c8a5f61" target="_top" xlink:title="gestorempleados.persistencia.\lEmpleado.getApellido1">
<polygon fill="white" stroke="black" points="187.5,-1225 187.5,-1255 336.5,-1255 336.5,-1225 187.5,-1225"/>
<text text-anchor="start" x="195.5" y="-1243" font-family="Helvetica,sans-Serif" font-size="10.00">gestorempleados.persistencia.</text>
<text text-anchor="middle" x="262" y="-1232" font-family="Helvetica,sans-Serif" font-size="10.00">Empleado.getApellido1</text>
</a>
</g>
</g>
<!-- Node1&#45;&gt;Node7 -->
<g id="edge6" class="edge"><title>Node1&#45;&gt;Node7</title>
<path fill="none" stroke="midnightblue" d="M77.6245,-765.289C85.6104,-837.752 122.885,-1145.97 186,-1215 187.21,-1216.32 188.491,-1217.58 189.834,-1218.76"/>
<polygon fill="midnightblue" stroke="midnightblue" points="187.994,-1221.75 198.123,-1224.86 192.143,-1216.12 187.994,-1221.75"/>
</g>
<!-- Node8 -->
<g id="node8" class="node"><title>Node8</title>
<g id="a_node8"><a xlink:href="classgestorempleados_1_1persistencia_1_1_empleado.xhtml#a1da9f9a3183148f055b98bcb0bd23032" target="_top" xlink:title="gestorempleados.persistencia.\lEmpleado.setApellido2">
<polygon fill="white" stroke="black" points="187.5,-1176 187.5,-1206 336.5,-1206 336.5,-1176 187.5,-1176"/>
<text text-anchor="start" x="195.5" y="-1194" font-family="Helvetica,sans-Serif" font-size="10.00">gestorempleados.persistencia.</text>
<text text-anchor="middle" x="262" y="-1183" font-family="Helvetica,sans-Serif" font-size="10.00">Empleado.setApellido2</text>
</a>
</g>
</g>
<!-- Node1&#45;&gt;Node8 -->
<g id="edge7" class="edge"><title>Node1&#45;&gt;Node8</title>
<path fill="none" stroke="midnightblue" d="M78.0424,-765.015C87.4656,-832.249 128.737,-1105 186,-1166 187.374,-1167.46 188.835,-1168.84 190.37,-1170.14"/>
<polygon fill="midnightblue" stroke="midnightblue" points="188.409,-1173.04 198.588,-1175.98 192.463,-1167.33 188.409,-1173.04"/>
</g>
<!-- Node9 -->
<g id="node9" class="node"><title>Node9</title>
<g id="a_node9"><a xlink:href="classgestorempleados_1_1persistencia_1_1_empleado.xhtml#a5cb27736f2617a641b2125c81e96a352" target="_top" xlink:title="gestorempleados.persistencia.\lEmpleado.getApellido2">
<polygon fill="white" stroke="black" points="187.5,-1127 187.5,-1157 336.5,-1157 336.5,-1127 187.5,-1127"/>
<text text-anchor="start" x="195.5" y="-1145" font-family="Helvetica,sans-Serif" font-size="10.00">gestorempleados.persistencia.</text>
<text text-anchor="middle" x="262" y="-1134" font-family="Helvetica,sans-Serif" font-size="10.00">Empleado.getApellido2</text>
</a>
</g>
</g>
<!-- Node1&#45;&gt;Node9 -->
<g id="edge8" class="edge"><title>Node1&#45;&gt;Node9</title>
<path fill="none" stroke="midnightblue" d="M75.8811,-765.359C76.3021,-820.85 85.2758,-1013.15 186,-1117 187.398,-1118.44 188.88,-1119.8 190.434,-1121.08"/>
<polygon fill="midnightblue" stroke="midnightblue" points="188.517,-1124.01 198.725,-1126.85 192.515,-1118.26 188.517,-1124.01"/>
</g>
<!-- Node10 -->
<g id="node10" class="node"><title>Node10</title>
<g id="a_node10"><a xlink:href="classgestorempleados_1_1persistencia_1_1_empleado.xhtml#a5c7aba9d7e1a41be6bb5943c69ac6dda" target="_top" xlink:title="gestorempleados.persistencia.\lEmpleado.setNacionalidad">
<polygon fill="white" stroke="black" points="187.5,-1078 187.5,-1108 336.5,-1108 336.5,-1078 187.5,-1078"/>
<text text-anchor="start" x="195.5" y="-1096" font-family="Helvetica,sans-Serif" font-size="10.00">gestorempleados.persistencia.</text>
<text text-anchor="middle" x="262" y="-1085" font-family="Helvetica,sans-Serif" font-size="10.00">Empleado.setNacionalidad</text>
</a>
</g>
</g>
<!-- Node1&#45;&gt;Node10 -->
<g id="edge9" class="edge"><title>Node1&#45;&gt;Node10</title>
<path fill="none" stroke="midnightblue" d="M76.6883,-765.062C79.8054,-815.416 96.6889,-979.69 186,-1068 187.464,-1069.45 189.014,-1070.81 190.635,-1072.1"/>
<polygon fill="midnightblue" stroke="midnightblue" points="189.005,-1075.22 199.259,-1077.88 192.906,-1069.41 189.005,-1075.22"/>
</g>
<!-- Node11 -->
<g id="node11" class="node"><title>Node11</title>
<g id="a_node11"><a xlink:href="classgestorempleados_1_1persistencia_1_1_empleado.xhtml#a9697155a8266c601f00ed3fb8778761f" target="_top" xlink:title="gestorempleados.persistencia.\lEmpleado.getNacionalidad">
<polygon fill="white" stroke="black" points="187.5,-1029 187.5,-1059 336.5,-1059 336.5,-1029 187.5,-1029"/>
<text text-anchor="start" x="195.5" y="-1047" font-family="Helvetica,sans-Serif" font-size="10.00">gestorempleados.persistencia.</text>
<text text-anchor="middle" x="262" y="-1036" font-family="Helvetica,sans-Serif" font-size="10.00">Empleado.getNacionalidad</text>
</a>
</g>
</g>
<!-- Node1&#45;&gt;Node11 -->
<g id="edge10" class="edge"><title>Node1&#45;&gt;Node11</title>
<path fill="none" stroke="midnightblue" d="M77.7958,-765.271C83.9436,-810.687 108.263,-946.262 186,-1019 187.669,-1020.56 189.439,-1022.03 191.289,-1023.4"/>
<polygon fill="midnightblue" stroke="midnightblue" points="189.535,-1026.43 199.85,-1028.85 193.297,-1020.53 189.535,-1026.43"/>
</g>
<!-- Node12 -->
<g id="node12" class="node"><title>Node12</title>
<g id="a_node12"><a xlink:href="classgestorempleados_1_1persistencia_1_1_empleado.xhtml#a64938039284d2d702ce5ec7214cc5a65" target="_top" xlink:title="gestorempleados.persistencia.\lEmpleado.setDireccion">
<polygon fill="white" stroke="black" points="187.5,-980 187.5,-1010 336.5,-1010 336.5,-980 187.5,-980"/>
<text text-anchor="start" x="195.5" y="-998" font-family="Helvetica,sans-Serif" font-size="10.00">gestorempleados.persistencia.</text>
<text text-anchor="middle" x="262" y="-987" font-family="Helvetica,sans-Serif" font-size="10.00">Empleado.setDireccion</text>
</a>
</g>
</g>
<!-- Node1&#45;&gt;Node12 -->
<g id="edge11" class="edge"><title>Node1&#45;&gt;Node12</title>
<path fill="none" stroke="midnightblue" d="M79.2756,-765.015C88.6645,-804.51 119.383,-912.224 186,-970 187.951,-971.692 190.02,-973.27 192.179,-974.742"/>
<polygon fill="midnightblue" stroke="midnightblue" points="190.51,-977.821 200.897,-979.91 194.079,-971.8 190.51,-977.821"/>
</g>
<!-- Node13 -->
<g id="node13" class="node"><title>Node13</title>
<g id="a_node13"><a xlink:href="classgestorempleados_1_1persistencia_1_1_empleado.xhtml#a7c7454a148414342c815398201f394c6" target="_top" xlink:title="gestorempleados.persistencia.\lEmpleado.getDireccion">
<polygon fill="white" stroke="black" points="187.5,-931 187.5,-961 336.5,-961 336.5,-931 187.5,-931"/>
<text text-anchor="start" x="195.5" y="-949" font-family="Helvetica,sans-Serif" font-size="10.00">gestorempleados.persistencia.</text>
<text text-anchor="middle" x="262" y="-938" font-family="Helvetica,sans-Serif" font-size="10.00">Empleado.getDireccion</text>
</a>
</g>
</g>
<!-- Node1&#45;&gt;Node13 -->
<g id="edge12" class="edge"><title>Node1&#45;&gt;Node13</title>
<path fill="none" stroke="midnightblue" d="M81.6811,-765.248C94.8278,-798.481 130.526,-877.906 186,-921 188.415,-922.876 190.978,-924.615 193.644,-926.226"/>
<polygon fill="midnightblue" stroke="midnightblue" points="191.992,-929.312 202.46,-930.951 195.299,-923.142 191.992,-929.312"/>
</g>
<!-- Node14 -->
<g id="node14" class="node"><title>Node14</title>
<g id="a_node14"><a xlink:href="classgestorempleados_1_1persistencia_1_1_empleado.xhtml#a4be3741c86de38d77c92861730d76045" target="_top" xlink:title="gestorempleados.persistencia.\lEmpleado.setPoblacion">
<polygon fill="white" stroke="black" points="187.5,-882 187.5,-912 336.5,-912 336.5,-882 187.5,-882"/>
<text text-anchor="start" x="195.5" y="-900" font-family="Helvetica,sans-Serif" font-size="10.00">gestorempleados.persistencia.</text>
<text text-anchor="middle" x="262" y="-889" font-family="Helvetica,sans-Serif" font-size="10.00">Empleado.setPoblacion</text>
</a>
</g>
</g>
<!-- Node1&#45;&gt;Node14 -->
<g id="edge13" class="edge"><title>Node1&#45;&gt;Node14</title>
<path fill="none" stroke="midnightblue" d="M85.6641,-765.037C102.842,-790.609 141.136,-842.644 186,-872 189.112,-874.036 192.405,-875.921 195.806,-877.665"/>
<polygon fill="midnightblue" stroke="midnightblue" points="194.469,-880.903 205.012,-881.954 197.426,-874.558 194.469,-880.903"/>
</g>
<!-- Node15 -->
<g id="node15" class="node"><title>Node15</title>
<g id="a_node15"><a xlink:href="classgestorempleados_1_1persistencia_1_1_empleado.xhtml#a616badeb9588657f2c292fa8bcc6baab" target="_top" xlink:title="gestorempleados.persistencia.\lEmpleado.getPoblacion">
<polygon fill="white" stroke="black" points="187.5,-833 187.5,-863 336.5,-863 336.5,-833 187.5,-833"/>
<text text-anchor="start" x="195.5" y="-851" font-family="Helvetica,sans-Serif" font-size="10.00">gestorempleados.persistencia.</text>
<text text-anchor="middle" x="262" y="-840" font-family="Helvetica,sans-Serif" font-size="10.00">Empleado.getPoblacion</text>
</a>
</g>
</g>
<!-- Node1&#45;&gt;Node15 -->
<g id="edge14" class="edge"><title>Node1&#45;&gt;Node15</title>
<path fill="none" stroke="midnightblue" d="M95.3191,-765.123C116.574,-781.196 152.216,-806.521 186,-823 190.585,-825.237 195.421,-827.351 200.336,-829.331"/>
<polygon fill="midnightblue" stroke="midnightblue" points="199.253,-832.664 209.844,-832.971 201.756,-826.127 199.253,-832.664"/>
</g>
<!-- Node16 -->
<g id="node16" class="node"><title>Node16</title>
<g id="a_node16"><a xlink:href="classgestorempleados_1_1persistencia_1_1_empleado.xhtml#af0658354ec8aa0ca592801f2f88fac56" target="_top" xlink:title="gestorempleados.persistencia.\lEmpleado.setTelefono">
<polygon fill="white" stroke="black" points="187.5,-784 187.5,-814 336.5,-814 336.5,-784 187.5,-784"/>
<text text-anchor="start" x="195.5" y="-802" font-family="Helvetica,sans-Serif" font-size="10.00">gestorempleados.persistencia.</text>
<text text-anchor="middle" x="262" y="-791" font-family="Helvetica,sans-Serif" font-size="10.00">Empleado.setTelefono</text>
</a>
</g>
</g>
<!-- Node1&#45;&gt;Node16 -->
<g id="edge15" class="edge"><title>Node1&#45;&gt;Node16</title>
<path fill="none" stroke="midnightblue" d="M132.763,-765.035C152.297,-770.208 174.343,-776.048 194.576,-781.407"/>
<polygon fill="midnightblue" stroke="midnightblue" points="193.781,-784.817 204.344,-783.994 195.573,-778.05 193.781,-784.817"/>
</g>
<!-- Node17 -->
<g id="node17" class="node"><title>Node17</title>
<g id="a_node17"><a xlink:href="classgestorempleados_1_1persistencia_1_1_empleado.xhtml#abb74ece7f55048abfa21415fb76cca72" target="_top" xlink:title="gestorempleados.persistencia.\lEmpleado.getTelefono">
<polygon fill="white" stroke="black" points="187.5,-735 187.5,-765 336.5,-765 336.5,-735 187.5,-735"/>
<text text-anchor="start" x="195.5" y="-753" font-family="Helvetica,sans-Serif" font-size="10.00">gestorempleados.persistencia.</text>
<text text-anchor="middle" x="262" y="-742" font-family="Helvetica,sans-Serif" font-size="10.00">Empleado.getTelefono</text>
</a>
</g>
</g>
<!-- Node1&#45;&gt;Node17 -->
<g id="edge16" class="edge"><title>Node1&#45;&gt;Node17</title>
<path fill="none" stroke="midnightblue" d="M149.648,-750C158.653,-750 167.907,-750 177.049,-750"/>
<polygon fill="midnightblue" stroke="midnightblue" points="177.303,-753.5 187.303,-750 177.303,-746.5 177.303,-753.5"/>
</g>
<!-- Node18 -->
<g id="node18" class="node"><title>Node18</title>
<g id="a_node18"><a xlink:href="classgestorempleados_1_1persistencia_1_1_empleado.xhtml#a533700ac4a74c0b95356bfa274bb79e3" target="_top" xlink:title="gestorempleados.persistencia.\lEmpleado.setFechaNacimiento">
<polygon fill="white" stroke="black" points="186,-686 186,-716 338,-716 338,-686 186,-686"/>
<text text-anchor="start" x="194" y="-704" font-family="Helvetica,sans-Serif" font-size="10.00">gestorempleados.persistencia.</text>
<text text-anchor="middle" x="262" y="-693" font-family="Helvetica,sans-Serif" font-size="10.00">Empleado.setFechaNacimiento</text>
</a>
</g>
</g>
<!-- Node1&#45;&gt;Node18 -->
<g id="edge17" class="edge"><title>Node1&#45;&gt;Node18</title>
<path fill="none" stroke="midnightblue" d="M132.763,-734.965C152.297,-729.792 174.343,-723.952 194.576,-718.593"/>
<polygon fill="midnightblue" stroke="midnightblue" points="195.573,-721.95 204.344,-716.006 193.781,-715.183 195.573,-721.95"/>
</g>
<!-- Node19 -->
<g id="node19" class="node"><title>Node19</title>
<g id="a_node19"><a xlink:href="classgestorempleados_1_1persistencia_1_1_empleado.xhtml#ac745bd5f91b1567add028267fba7142a" target="_top" xlink:title="gestorempleados.persistencia.\lEmpleado.getFechaNacimiento">
<polygon fill="white" stroke="black" points="186,-637 186,-667 338,-667 338,-637 186,-637"/>
<text text-anchor="start" x="194" y="-655" font-family="Helvetica,sans-Serif" font-size="10.00">gestorempleados.persistencia.</text>
<text text-anchor="middle" x="262" y="-644" font-family="Helvetica,sans-Serif" font-size="10.00">Empleado.getFechaNacimiento</text>
</a>
</g>
</g>
<!-- Node1&#45;&gt;Node19 -->
<g id="edge18" class="edge"><title>Node1&#45;&gt;Node19</title>
<path fill="none" stroke="midnightblue" d="M95.3191,-734.877C116.574,-718.804 152.216,-693.479 186,-677 190.585,-674.763 195.421,-672.649 200.336,-670.669"/>
<polygon fill="midnightblue" stroke="midnightblue" points="201.756,-673.873 209.844,-667.029 199.253,-667.336 201.756,-673.873"/>
</g>
<!-- Node20 -->
<g id="node20" class="node"><title>Node20</title>
<g id="a_node20"><a xlink:href="classgestorempleados_1_1persistencia_1_1_empleado.xhtml#a9052b6fbab67689cd1b5b690abeb8ccc" target="_top" xlink:title="gestorempleados.persistencia.\lEmpleado.setTitulacion">
<polygon fill="white" stroke="black" points="187.5,-588 187.5,-618 336.5,-618 336.5,-588 187.5,-588"/>
<text text-anchor="start" x="195.5" y="-606" font-family="Helvetica,sans-Serif" font-size="10.00">gestorempleados.persistencia.</text>
<text text-anchor="middle" x="262" y="-595" font-family="Helvetica,sans-Serif" font-size="10.00">Empleado.setTitulacion</text>
</a>
</g>
</g>
<!-- Node1&#45;&gt;Node20 -->
<g id="edge19" class="edge"><title>Node1&#45;&gt;Node20</title>
<path fill="none" stroke="midnightblue" d="M85.6641,-734.963C102.842,-709.391 141.136,-657.356 186,-628 189.112,-625.964 192.405,-624.079 195.806,-622.335"/>
<polygon fill="midnightblue" stroke="midnightblue" points="197.426,-625.442 205.012,-618.046 194.469,-619.097 197.426,-625.442"/>
</g>
<!-- Node21 -->
<g id="node21" class="node"><title>Node21</title>
<g id="a_node21"><a xlink:href="classgestorempleados_1_1persistencia_1_1_empleado.xhtml#a31161f4367a2b70e902ac2957422cce8" target="_top" xlink:title="gestorempleados.persistencia.\lEmpleado.getTitulacion">
<polygon fill="white" stroke="black" points="187.5,-539 187.5,-569 336.5,-569 336.5,-539 187.5,-539"/>
<text text-anchor="start" x="195.5" y="-557" font-family="Helvetica,sans-Serif" font-size="10.00">gestorempleados.persistencia.</text>
<text text-anchor="middle" x="262" y="-546" font-family="Helvetica,sans-Serif" font-size="10.00">Empleado.getTitulacion</text>
</a>
</g>
</g>
<!-- Node1&#45;&gt;Node21 -->
<g id="edge20" class="edge"><title>Node1&#45;&gt;Node21</title>
<path fill="none" stroke="midnightblue" d="M81.6811,-734.752C94.8278,-701.519 130.526,-622.094 186,-579 188.415,-577.124 190.978,-575.385 193.644,-573.774"/>
<polygon fill="midnightblue" stroke="midnightblue" points="195.299,-576.858 202.46,-569.049 191.992,-570.688 195.299,-576.858"/>
</g>
<!-- Node22 -->
<g id="node22" class="node"><title>Node22</title>
<g id="a_node22"><a xlink:href="classgestorempleados_1_1persistencia_1_1_empleado.xhtml#a179279e38f7e46495d5c5cf8de8ab1a2" target="_top" xlink:title="gestorempleados.persistencia.\lEmpleado.setIdiomas">
<polygon fill="white" stroke="black" points="187.5,-490 187.5,-520 336.5,-520 336.5,-490 187.5,-490"/>
<text text-anchor="start" x="195.5" y="-508" font-family="Helvetica,sans-Serif" font-size="10.00">gestorempleados.persistencia.</text>
<text text-anchor="middle" x="262" y="-497" font-family="Helvetica,sans-Serif" font-size="10.00">Empleado.setIdiomas</text>
</a>
</g>
</g>
<!-- Node1&#45;&gt;Node22 -->
<g id="edge21" class="edge"><title>Node1&#45;&gt;Node22</title>
<path fill="none" stroke="midnightblue" d="M79.2756,-734.985C88.6645,-695.49 119.383,-587.776 186,-530 187.951,-528.308 190.02,-526.73 192.179,-525.258"/>
<polygon fill="midnightblue" stroke="midnightblue" points="194.079,-528.2 200.897,-520.09 190.51,-522.179 194.079,-528.2"/>
</g>
<!-- Node23 -->
<g id="node23" class="node"><title>Node23</title>
<g id="a_node23"><a xlink:href="classgestorempleados_1_1persistencia_1_1_empleado.xhtml#a48c75ae94cf21ed2e01ad27dfbba5a1a" target="_top" xlink:title="gestorempleados.persistencia.\lEmpleado.getIdiomas">
<polygon fill="white" stroke="black" points="187.5,-441 187.5,-471 336.5,-471 336.5,-441 187.5,-441"/>
<text text-anchor="start" x="195.5" y="-459" font-family="Helvetica,sans-Serif" font-size="10.00">gestorempleados.persistencia.</text>
<text text-anchor="middle" x="262" y="-448" font-family="Helvetica,sans-Serif" font-size="10.00">Empleado.getIdiomas</text>
</a>
</g>
</g>
<!-- Node1&#45;&gt;Node23 -->
<g id="edge22" class="edge"><title>Node1&#45;&gt;Node23</title>
<path fill="none" stroke="midnightblue" d="M77.7958,-734.729C83.9436,-689.313 108.263,-553.738 186,-481 187.669,-479.438 189.439,-477.974 191.289,-476.6"/>
<polygon fill="midnightblue" stroke="midnightblue" points="193.297,-479.471 199.85,-471.146 189.535,-473.567 193.297,-479.471"/>
</g>
<!-- Node24 -->
<g id="node24" class="node"><title>Node24</title>
<g id="a_node24"><a xlink:href="classgestorempleados_1_1persistencia_1_1_empleado.xhtml#a9d5105e739ff8c870e8bdd0cf463e89e" target="_top" xlink:title="gestorempleados.persistencia.\lEmpleado.setExperiencia">
<polygon fill="white" stroke="black" points="187.5,-392 187.5,-422 336.5,-422 336.5,-392 187.5,-392"/>
<text text-anchor="start" x="195.5" y="-410" font-family="Helvetica,sans-Serif" font-size="10.00">gestorempleados.persistencia.</text>
<text text-anchor="middle" x="262" y="-399" font-family="Helvetica,sans-Serif" font-size="10.00">Empleado.setExperiencia</text>
</a>
</g>
</g>
<!-- Node1&#45;&gt;Node24 -->
<g id="edge23" class="edge"><title>Node1&#45;&gt;Node24</title>
<path fill="none" stroke="midnightblue" d="M76.6883,-734.938C79.8054,-684.584 96.6889,-520.31 186,-432 187.464,-430.552 189.014,-429.189 190.635,-427.904"/>
<polygon fill="midnightblue" stroke="midnightblue" points="192.906,-430.595 199.259,-422.115 189.005,-424.782 192.906,-430.595"/>
</g>
<!-- Node25 -->
<g id="node25" class="node"><title>Node25</title>
<g id="a_node25"><a xlink:href="classgestorempleados_1_1persistencia_1_1_empleado.xhtml#a81f892e3f50c202946e4376b8b64b930" target="_top" xlink:title="gestorempleados.persistencia.\lEmpleado.getExperiencia">
<polygon fill="white" stroke="black" points="187.5,-343 187.5,-373 336.5,-373 336.5,-343 187.5,-343"/>
<text text-anchor="start" x="195.5" y="-361" font-family="Helvetica,sans-Serif" font-size="10.00">gestorempleados.persistencia.</text>
<text text-anchor="middle" x="262" y="-350" font-family="Helvetica,sans-Serif" font-size="10.00">Empleado.getExperiencia</text>
</a>
</g>
</g>
<!-- Node1&#45;&gt;Node25 -->
<g id="edge24" class="edge"><title>Node1&#45;&gt;Node25</title>
<path fill="none" stroke="midnightblue" d="M75.8811,-734.641C76.3021,-679.15 85.2758,-486.849 186,-383 187.398,-381.559 188.88,-380.201 190.434,-378.922"/>
<polygon fill="midnightblue" stroke="midnightblue" points="192.515,-381.738 198.725,-373.154 188.517,-375.991 192.515,-381.738"/>
</g>
<!-- Node26 -->
<g id="node26" class="node"><title>Node26</title>
<g id="a_node26"><a xlink:href="classgestorempleados_1_1persistencia_1_1_empleado.xhtml#aa84348990f4f2cf265c7f33b955c3a50" target="_top" xlink:title="gestorempleados.persistencia.\lEmpleado.setCuentaBancaria">
<polygon fill="white" stroke="black" points="187.5,-294 187.5,-324 336.5,-324 336.5,-294 187.5,-294"/>
<text text-anchor="start" x="195.5" y="-312" font-family="Helvetica,sans-Serif" font-size="10.00">gestorempleados.persistencia.</text>
<text text-anchor="middle" x="262" y="-301" font-family="Helvetica,sans-Serif" font-size="10.00">Empleado.setCuentaBancaria</text>
</a>
</g>
</g>
<!-- Node1&#45;&gt;Node26 -->
<g id="edge25" class="edge"><title>Node1&#45;&gt;Node26</title>
<path fill="none" stroke="midnightblue" d="M78.0424,-734.985C87.4656,-667.751 128.737,-395.004 186,-334 187.374,-332.536 188.835,-331.159 190.37,-329.861"/>
<polygon fill="midnightblue" stroke="midnightblue" points="192.463,-332.668 198.588,-324.023 188.409,-326.961 192.463,-332.668"/>
</g>
<!-- Node27 -->
<g id="node27" class="node"><title>Node27</title>
<g id="a_node27"><a xlink:href="classgestorempleados_1_1persistencia_1_1_empleado.xhtml#afcd2034be01aa03c62788e8f873ab3fd" target="_top" xlink:title="gestorempleados.persistencia.\lEmpleado.getCuentaBancaria">
<polygon fill="white" stroke="black" points="187.5,-245 187.5,-275 336.5,-275 336.5,-245 187.5,-245"/>
<text text-anchor="start" x="195.5" y="-263" font-family="Helvetica,sans-Serif" font-size="10.00">gestorempleados.persistencia.</text>
<text text-anchor="middle" x="262" y="-252" font-family="Helvetica,sans-Serif" font-size="10.00">Empleado.getCuentaBancaria</text>
</a>
</g>
</g>
<!-- Node1&#45;&gt;Node27 -->
<g id="edge26" class="edge"><title>Node1&#45;&gt;Node27</title>
<path fill="none" stroke="midnightblue" d="M77.6245,-734.711C85.6104,-662.248 122.885,-354.03 186,-285 187.21,-283.677 188.491,-282.424 189.834,-281.237"/>
<polygon fill="midnightblue" stroke="midnightblue" points="192.143,-283.883 198.123,-275.137 187.994,-278.245 192.143,-283.883"/>
</g>
<!-- Node28 -->
<g id="node28" class="node"><title>Node28</title>
<g id="a_node28"><a xlink:href="classgestorempleados_1_1persistencia_1_1_empleado.xhtml#a86601bf00d1944f99b13193a4d064859" target="_top" xlink:title="gestorempleados.persistencia.\lEmpleado.setFoto">
<polygon fill="white" stroke="black" points="187.5,-196 187.5,-226 336.5,-226 336.5,-196 187.5,-196"/>
<text text-anchor="start" x="195.5" y="-214" font-family="Helvetica,sans-Serif" font-size="10.00">gestorempleados.persistencia.</text>
<text text-anchor="middle" x="262" y="-203" font-family="Helvetica,sans-Serif" font-size="10.00">Empleado.setFoto</text>
</a>
</g>
</g>
<!-- Node1&#45;&gt;Node28 -->
<g id="edge27" class="edge"><title>Node1&#45;&gt;Node28</title>
<path fill="none" stroke="midnightblue" d="M77.2343,-734.932C83.7895,-658.39 116.857,-313.272 186,-236 187.196,-234.664 188.464,-233.399 189.796,-232.202"/>
<polygon fill="midnightblue" stroke="midnightblue" points="192.111,-234.841 198.033,-226.056 187.925,-229.231 192.111,-234.841"/>
</g>
<!-- Node29 -->
<g id="node29" class="node"><title>Node29</title>
<g id="a_node29"><a xlink:href="classgestorempleados_1_1persistencia_1_1_empleado.xhtml#a9bb9f66324c5ac5a1274d3673cd47c6f" target="_top" xlink:title="gestorempleados.persistencia.\lEmpleado.getFoto">
<polygon fill="white" stroke="black" points="187.5,-147 187.5,-177 336.5,-177 336.5,-147 187.5,-147"/>
<text text-anchor="start" x="195.5" y="-165" font-family="Helvetica,sans-Serif" font-size="10.00">gestorempleados.persistencia.</text>
<text text-anchor="middle" x="262" y="-154" font-family="Helvetica,sans-Serif" font-size="10.00">Empleado.getFoto</text>
</a>
</g>
</g>
<!-- Node1&#45;&gt;Node29 -->
<g id="edge28" class="edge"><title>Node1&#45;&gt;Node29</title>
<path fill="none" stroke="midnightblue" d="M76.9351,-734.864C82.2261,-653.902 110.888,-272.468 186,-187 187.048,-185.808 188.154,-184.673 189.311,-183.591"/>
<polygon fill="midnightblue" stroke="midnightblue" points="191.815,-186.081 197.607,-177.209 187.547,-180.532 191.815,-186.081"/>
</g>
<!-- Node30 -->
<g id="node30" class="node"><title>Node30</title>
<g id="a_node30"><a xlink:href="classgestorempleados_1_1persistencia_1_1_empleado.xhtml#aef4e5e2cb6df0bd4d50e5e6a9eb03877" target="_top" xlink:title="gestorempleados.persistencia.\lEmpleado.setContratos">
<polygon fill="white" stroke="black" points="187.5,-98 187.5,-128 336.5,-128 336.5,-98 187.5,-98"/>
<text text-anchor="start" x="195.5" y="-116" font-family="Helvetica,sans-Serif" font-size="10.00">gestorempleados.persistencia.</text>
<text text-anchor="middle" x="262" y="-105" font-family="Helvetica,sans-Serif" font-size="10.00">Empleado.setContratos</text>
</a>
</g>
</g>
<!-- Node1&#45;&gt;Node30 -->
<g id="edge29" class="edge"><title>Node1&#45;&gt;Node30</title>
<path fill="none" stroke="midnightblue" d="M76.6726,-734.973C80.7584,-650.156 104.842,-231.766 186,-138 187.039,-136.8 188.136,-135.658 189.286,-134.57"/>
<polygon fill="midnightblue" stroke="midnightblue" points="191.794,-137.053 197.544,-128.154 187.5,-131.525 191.794,-137.053"/>
</g>
<!-- Node31 -->
<g id="node31" class="node"><title>Node31</title>
<g id="a_node31"><a xlink:href="classgestorempleados_1_1persistencia_1_1_empleado.xhtml#afb46645f6e05b02c7d3ea1d9f5f8592a" target="_top" xlink:title="gestorempleados.persistencia.\lEmpleado.getContratos">
<polygon fill="white" stroke="black" points="187.5,-49 187.5,-79 336.5,-79 336.5,-49 187.5,-49"/>
<text text-anchor="start" x="195.5" y="-67" font-family="Helvetica,sans-Serif" font-size="10.00">gestorempleados.persistencia.</text>
<text text-anchor="middle" x="262" y="-56" font-family="Helvetica,sans-Serif" font-size="10.00">Empleado.getContratos</text>
</a>
</g>
</g>
<!-- Node1&#45;&gt;Node31 -->
<g id="edge30" class="edge"><title>Node1&#45;&gt;Node31</title>
<path fill="none" stroke="midnightblue" d="M76.4549,-734.955C79.4311,-646.169 98.8182,-191.053 186,-89 187.031,-87.7934 188.121,-86.6448 189.265,-85.5513"/>
<polygon fill="midnightblue" stroke="midnightblue" points="191.776,-88.0298 197.489,-79.1071 187.459,-82.5197 191.776,-88.0298"/>
</g>
<!-- Node32 -->
<g id="node32" class="node"><title>Node32</title>
<g id="a_node32"><a xlink:href="interfacegestorempleados_1_1control_1_1i_control.xhtml#abcbee4e1ceac58d8ae9b470b26bac96b" target="_top" xlink:title="gestorempleados.control.i\lControl.saveEmpleado">
<polygon fill="white" stroke="black" points="198,-0 198,-30 326,-30 326,-0 198,-0"/>
<text text-anchor="start" x="206" y="-18" font-family="Helvetica,sans-Serif" font-size="10.00">gestorempleados.control.i</text>
<text text-anchor="middle" x="262" y="-7" font-family="Helvetica,sans-Serif" font-size="10.00">Control.saveEmpleado</text>
</a>
</g>
</g>
<!-- Node1&#45;&gt;Node32 -->
<g id="edge31" class="edge"><title>Node1&#45;&gt;Node32</title>
<path fill="none" stroke="midnightblue" d="M76.2698,-734.767C78.215,-641.717 92.8358,-150.3 186,-40 187.157,-38.6303 188.391,-37.3354 189.691,-36.111"/>
<polygon fill="midnightblue" stroke="midnightblue" points="192.023,-38.732 197.788,-29.8429 187.738,-33.1967 192.023,-38.732"/>
</g>
</g>
</svg>
        <g id="navigator" transform="translate(0 0)" fill="#404254">
                <rect fill="#f2f5e9" fill-opacity="0.5" stroke="#606060" stroke-width=".5" x="0" y="0" width="60" height="60"/>
                <use id="zoomplus" xlink:href="#zoomPlus" x="17" y="9" onmousedown="handleZoom(evt,'in')"/>
                <use id="zoomminus" xlink:href="#zoomMin" x="42" y="9" onmousedown="handleZoom(evt,'out')"/>
                <use id="reset" xlink:href="#resetDef" x="30" y="36" onmousedown="handleReset()"/>
                <g id="arrowUp" xlink:href="#dirArrow" transform="translate(30 24)" onmousedown="handlePan(0,-1)">
                  <use xlink:href="#rim" fill="#404040">
                        <set attributeName="fill" to="#808080" begin="arrowUp.mouseover" end="arrowUp.mouseout"/>
                  </use>
                  <path fill="none" stroke="white" stroke-width="1.5" d="M0,-3.0v7 M-2.5,-0.5L0,-3.0L2.5,-0.5"/>
                </g>
                <g id="arrowRight" xlink:href="#dirArrow" transform="rotate(90) translate(36 -43)" onmousedown="handlePan(1,0)">
                  <use xlink:href="#rim" fill="#404040">
                        <set attributeName="fill" to="#808080" begin="arrowRight.mouseover" end="arrowRight.mouseout"/>
                  </use>
                  <path fill="none" stroke="white" stroke-width="1.5" d="M0,-3.0v7 M-2.5,-0.5L0,-3.0L2.5,-0.5"/>
                </g>
                <g id="arrowDown" xlink:href="#dirArrow" transform="rotate(180) translate(-30 -48)" onmousedown="handlePan(0,1)">
                  <use xlink:href="#rim" fill="#404040">
                        <set attributeName="fill" to="#808080" begin="arrowDown.mouseover" end="arrowDown.mouseout"/>
                  </use>
                  <path fill="none" stroke="white" stroke-width="1.5" d="M0,-3.0v7 M-2.5,-0.5L0,-3.0L2.5,-0.5"/>
                </g>
                <g id="arrowLeft" xlink:href="#dirArrow" transform="rotate(270) translate(-36 17)" onmousedown="handlePan(-1,0)">
                  <use xlink:href="#rim" fill="#404040">
                        <set attributeName="fill" to="#808080" begin="arrowLeft.mouseover" end="arrowLeft.mouseout"/>
                  </use>
                  <path fill="none" stroke="white" stroke-width="1.5" d="M0,-3.0v7 M-2.5,-0.5L0,-3.0L2.5,-0.5"/>
                </g>
        </g>
        <svg viewBox="0 0 15 15" width="100%" height="30px" preserveAspectRatio="xMaxYMin meet">
         <g id="arrow_out" transform="scale(0.3 0.3)">
          <a xlink:href="classgestorempleados_1_1control_1_1_negocio_server_a85928602fd6e3567bb436724ab20b49b_cgraph_org.svg" target="_base">
           <rect id="button" ry="5" rx="5" y="6" x="6" height="38" width="38"
                fill="#f2f5e9" fill-opacity="0.5" stroke="#606060" stroke-width="1.0"/>
           <path id="arrow"
             d="M 11.500037,31.436501 C 11.940474,20.09759 22.043105,11.32322 32.158766,21.979434 L 37.068811,17.246167 C 37.068811,17.246167 37.088388,32 37.088388,32 L 22.160133,31.978069 C 22.160133,31.978069 26.997745,27.140456 26.997745,27.140456 C 18.528582,18.264221 13.291696,25.230495 11.500037,31.436501 z"
             style="fill:#404040;"/>
          </a>
         </g>
        </svg>
</svg>
