<?xml version="1.0" encoding="UTF-8" standalone="no"?>
<!DOCTYPE svg PUBLIC "-//W3C//DTD SVG 1.1//EN"
 "http://www.w3.org/Graphics/SVG/1.1/DTD/svg11.dtd">
<!-- Generated by graphviz version 2.30.1 (20130214.1330)
 -->
<!-- Title: gestorempleados.app.GestorEmpleadosServer Pages: 1 -->
<svg width="572pt" height="638pt"
 viewBox="0.00 0.00 572.00 638.00" xmlns="http://www.w3.org/2000/svg" xmlns:xlink="http://www.w3.org/1999/xlink">
<g id="graph0" class="graph" transform="scale(1 1) rotate(0) translate(4 634)">
<title>gestorempleados.app.GestorEmpleadosServer</title>
<polygon fill="white" stroke="white" points="-4,5 -4,-634 569,-634 569,5 -4,5"/>
<!-- Node1 -->
<g id="node1" class="node"><title>Node1</title>
<polygon fill="#bfbfbf" stroke="black" points="112,-0.5 112,-79.5 254,-79.5 254,-0.5 112,-0.5"/>
<text text-anchor="start" x="120" y="-67.5" font-family="Helvetica,sans-Serif" font-size="10.00">gestorempleados.app.Gestor</text>
<text text-anchor="middle" x="183" y="-56.5" font-family="Helvetica,sans-Serif" font-size="10.00">EmpleadosServer</text>
<polyline fill="none" stroke="black" points="112,-49.5 254,-49.5 "/>
<text text-anchor="middle" x="183" y="-37.5" font-family="Helvetica,sans-Serif" font-size="10.00"> </text>
<polyline fill="none" stroke="black" points="112,-30.5 254,-30.5 "/>
<text text-anchor="start" x="120" y="-18.5" font-family="Helvetica,sans-Serif" font-size="10.00">+ GestorEmpleadosServer()</text>
<text text-anchor="start" x="120" y="-7.5" font-family="Helvetica,sans-Serif" font-size="10.00">+ main()</text>
</g>
<!-- Node2 -->
<g id="node2" class="node"><title>Node2</title>
<polygon fill="white" stroke="#bfbfbf" points="-0.5,-150.5 -0.5,-207.5 48.5,-207.5 48.5,-150.5 -0.5,-150.5"/>
<text text-anchor="middle" x="24" y="-195.5" font-family="Helvetica,sans-Serif" font-size="10.00">JFrame</text>
<polyline fill="none" stroke="#bfbfbf" points="-0.5,-188.5 48.5,-188.5 "/>
<text text-anchor="middle" x="24" y="-176.5" font-family="Helvetica,sans-Serif" font-size="10.00"> </text>
<polyline fill="none" stroke="#bfbfbf" points="-0.5,-169.5 48.5,-169.5 "/>
<text text-anchor="middle" x="24" y="-157.5" font-family="Helvetica,sans-Serif" font-size="10.00"> </text>
</g>
<!-- Node2&#45;&gt;Node1 -->
<g id="edge1" class="edge"><title>Node2&#45;&gt;Node1</title>
<path fill="none" stroke="midnightblue" d="M46.11,-142.094C49.8107,-137.135 53.817,-132.281 58,-128 75.5552,-110.035 97.295,-93.4226 117.696,-79.6329"/>
<polygon fill="none" stroke="midnightblue" points="43.111,-140.273 40.193,-150.458 48.8256,-144.316 43.111,-140.273"/>
</g>
<!-- Node3 -->
<g id="node3" class="node"><title>Node3</title>
<polygon fill="white" stroke="#bfbfbf" points="67,-150.5 67,-207.5 117,-207.5 117,-150.5 67,-150.5"/>
<text text-anchor="middle" x="92" y="-195.5" font-family="Helvetica,sans-Serif" font-size="10.00">JButton</text>
<polyline fill="none" stroke="#bfbfbf" points="67,-188.5 117,-188.5 "/>
<text text-anchor="middle" x="92" y="-176.5" font-family="Helvetica,sans-Serif" font-size="10.00"> </text>
<polyline fill="none" stroke="#bfbfbf" points="67,-169.5 117,-169.5 "/>
<text text-anchor="middle" x="92" y="-157.5" font-family="Helvetica,sans-Serif" font-size="10.00"> </text>
</g>
<!-- Node3&#45;&gt;Node1 -->
<g id="edge2" class="edge"><title>Node3&#45;&gt;Node1</title>
<path fill="none" stroke="#404040" d="M93.5925,-150.3C95.6106,-134.02 100.098,-113.635 110,-98 112,-94.8417 114.239,-91.7869 116.657,-88.8429"/>
<polygon fill="none" stroke="#404040" points="116.811,-88.6757 117.913,-81.5494 124.916,-79.8264 123.813,-86.9527 116.811,-88.6757"/>
<text text-anchor="middle" x="144" y="-101.5" font-family="Helvetica,sans-Serif" font-size="10.00"> &#45;btnStartServer</text>
</g>
<!-- Node4 -->
<g id="node4" class="node"><title>Node4</title>
<polygon fill="white" stroke="#bfbfbf" points="158,-150.5 158,-207.5 202,-207.5 202,-150.5 158,-150.5"/>
<text text-anchor="middle" x="180" y="-195.5" font-family="Helvetica,sans-Serif" font-size="10.00">JLabel</text>
<polyline fill="none" stroke="#bfbfbf" points="158,-188.5 202,-188.5 "/>
<text text-anchor="middle" x="180" y="-176.5" font-family="Helvetica,sans-Serif" font-size="10.00"> </text>
<polyline fill="none" stroke="#bfbfbf" points="158,-169.5 202,-169.5 "/>
<text text-anchor="middle" x="180" y="-157.5" font-family="Helvetica,sans-Serif" font-size="10.00"> </text>
</g>
<!-- Node4&#45;&gt;Node1 -->
<g id="edge3" class="edge"><title>Node4&#45;&gt;Node1</title>
<path fill="none" stroke="#404040" d="M180.607,-150.276C180.976,-133.441 181.458,-111.441 181.892,-91.5958"/>
<polygon fill="none" stroke="#404040" points="181.892,-91.5809 178.025,-85.4947 182.155,-79.5838 186.023,-85.6699 181.892,-91.5809"/>
<text text-anchor="middle" x="199" y="-101.5" font-family="Helvetica,sans-Serif" font-size="10.00"> &#45;status</text>
</g>
<!-- Node5 -->
<g id="node5" class="node"><title>Node5</title>
<polygon fill="white" stroke="#bfbfbf" points="220,-150.5 220,-207.5 266,-207.5 266,-150.5 220,-150.5"/>
<text text-anchor="middle" x="243" y="-195.5" font-family="Helvetica,sans-Serif" font-size="10.00">JPanel</text>
<polyline fill="none" stroke="#bfbfbf" points="220,-188.5 266,-188.5 "/>
<text text-anchor="middle" x="243" y="-176.5" font-family="Helvetica,sans-Serif" font-size="10.00"> </text>
<polyline fill="none" stroke="#bfbfbf" points="220,-169.5 266,-169.5 "/>
<text text-anchor="middle" x="243" y="-157.5" font-family="Helvetica,sans-Serif" font-size="10.00"> </text>
</g>
<!-- Node5&#45;&gt;Node1 -->
<g id="edge4" class="edge"><title>Node5&#45;&gt;Node1</title>
<path fill="none" stroke="#404040" d="M237.166,-150.252C233.335,-134.518 227.615,-114.699 220,-98 218.823,-95.4187 217.54,-92.8194 216.183,-90.2283"/>
<polygon fill="none" stroke="#404040" points="216.138,-90.1486 209.71,-86.8796 210.256,-79.6891 216.683,-82.9581 216.138,-90.1486"/>
<text text-anchor="middle" x="255.5" y="-101.5" font-family="Helvetica,sans-Serif" font-size="10.00"> &#45;contentPane</text>
</g>
<!-- Node6 -->
<g id="node6" class="node"><title>Node6</title>
<g id="a_node6"><a xlink:href="classgestorempleados_1_1conector_1_1_start_server.xhtml" target="_top" xlink:title="{gestorempleados.conector.\lStartServer\n|+ port\l|+ StartServer()\l+ connectServer()\l+ escuchar()\l+ desconectar()\l}">
<polygon fill="white" stroke="black" points="284,-128.5 284,-229.5 418,-229.5 418,-128.5 284,-128.5"/>
<text text-anchor="start" x="292" y="-217.5" font-family="Helvetica,sans-Serif" font-size="10.00">gestorempleados.conector.</text>
<text text-anchor="middle" x="351" y="-206.5" font-family="Helvetica,sans-Serif" font-size="10.00">StartServer</text>
<polyline fill="none" stroke="black" points="284,-199.5 418,-199.5 "/>
<text text-anchor="start" x="292" y="-187.5" font-family="Helvetica,sans-Serif" font-size="10.00">+ port</text>
<polyline fill="none" stroke="black" points="284,-180.5 418,-180.5 "/>
<text text-anchor="start" x="292" y="-168.5" font-family="Helvetica,sans-Serif" font-size="10.00">+ StartServer()</text>
<text text-anchor="start" x="292" y="-157.5" font-family="Helvetica,sans-Serif" font-size="10.00">+ connectServer()</text>
<text text-anchor="start" x="292" y="-146.5" font-family="Helvetica,sans-Serif" font-size="10.00">+ escuchar()</text>
<text text-anchor="start" x="292" y="-135.5" font-family="Helvetica,sans-Serif" font-size="10.00">+ desconectar()</text>
</a>
</g>
</g>
<!-- Node6&#45;&gt;Node1 -->
<g id="edge5" class="edge"><title>Node6&#45;&gt;Node1</title>
<path fill="none" stroke="#404040" d="M318.267,-128.133C309.85,-117.417 300.248,-106.709 290,-98 282.277,-91.4362 273.673,-85.3249 264.793,-79.7281"/>
<polygon fill="none" stroke="#404040" points="264.559,-79.5872 257.355,-79.9195 254.278,-73.3979 261.481,-73.0656 264.559,-79.5872"/>
<text text-anchor="middle" x="335.5" y="-101.5" font-family="Helvetica,sans-Serif" font-size="10.00"> &#45;negocioRRHH</text>
</g>
<!-- Node7 -->
<g id="node7" class="node"><title>Node7</title>
<polygon fill="white" stroke="#bfbfbf" points="115,-333.5 115,-390.5 189,-390.5 189,-333.5 115,-333.5"/>
<text text-anchor="middle" x="152" y="-378.5" font-family="Helvetica,sans-Serif" font-size="10.00">ServerSocket</text>
<polyline fill="none" stroke="#bfbfbf" points="115,-371.5 189,-371.5 "/>
<text text-anchor="middle" x="152" y="-359.5" font-family="Helvetica,sans-Serif" font-size="10.00"> </text>
<polyline fill="none" stroke="#bfbfbf" points="115,-352.5 189,-352.5 "/>
<text text-anchor="middle" x="152" y="-340.5" font-family="Helvetica,sans-Serif" font-size="10.00"> </text>
</g>
<!-- Node7&#45;&gt;Node6 -->
<g id="edge6" class="edge"><title>Node7&#45;&gt;Node6</title>
<path fill="none" stroke="#404040" d="M163.025,-333.321C170.905,-315.997 182.796,-294.006 198,-278 223.387,-251.274 238.325,-251.475 273.453,-230.711"/>
<polygon fill="none" stroke="#404040" points="273.706,-230.555 276.715,-224.001 283.921,-224.258 280.912,-230.812 273.706,-230.555"/>
<text text-anchor="middle" x="273" y="-251.5" font-family="Helvetica,sans-Serif" font-size="10.00"> +socketServer</text>
</g>
<!-- Node8 -->
<g id="node8" class="node"><title>Node8</title>
<g id="a_node8"><a xlink:href="classgestorempleados_1_1control_1_1_control_s_q_l.xhtml" target="_top" xlink:title="{gestorempleados.control.\lControlSQL\n||+ ControlSQL()\l+ saveEmpleado()\l+ getEmpleadoDni()\l+ getEmpleados()\l+ getDepartamentos()\l+ getCargos()\l+ getuser()\l+ getContratos()\l+ comprobarContratoActivo()\l&#45; buildSessionFactory()\l}">
<polygon fill="white" stroke="black" points="359,-278.5 359,-445.5 499,-445.5 499,-278.5 359,-278.5"/>
<text text-anchor="start" x="367" y="-433.5" font-family="Helvetica,sans-Serif" font-size="10.00">gestorempleados.control.</text>
<text text-anchor="middle" x="429" y="-422.5" font-family="Helvetica,sans-Serif" font-size="10.00">ControlSQL</text>
<polyline fill="none" stroke="black" points="359,-415.5 499,-415.5 "/>
<text text-anchor="middle" x="429" y="-403.5" font-family="Helvetica,sans-Serif" font-size="10.00"> </text>
<polyline fill="none" stroke="black" points="359,-396.5 499,-396.5 "/>
<text text-anchor="start" x="367" y="-384.5" font-family="Helvetica,sans-Serif" font-size="10.00">+ ControlSQL()</text>
<text text-anchor="start" x="367" y="-373.5" font-family="Helvetica,sans-Serif" font-size="10.00">+ saveEmpleado()</text>
<text text-anchor="start" x="367" y="-362.5" font-family="Helvetica,sans-Serif" font-size="10.00">+ getEmpleadoDni()</text>
<text text-anchor="start" x="367" y="-351.5" font-family="Helvetica,sans-Serif" font-size="10.00">+ getEmpleados()</text>
<text text-anchor="start" x="367" y="-340.5" font-family="Helvetica,sans-Serif" font-size="10.00">+ getDepartamentos()</text>
<text text-anchor="start" x="367" y="-329.5" font-family="Helvetica,sans-Serif" font-size="10.00">+ getCargos()</text>
<text text-anchor="start" x="367" y="-318.5" font-family="Helvetica,sans-Serif" font-size="10.00">+ getuser()</text>
<text text-anchor="start" x="367" y="-307.5" font-family="Helvetica,sans-Serif" font-size="10.00">+ getContratos()</text>
<text text-anchor="start" x="367" y="-296.5" font-family="Helvetica,sans-Serif" font-size="10.00">+ comprobarContratoActivo()</text>
<text text-anchor="start" x="367" y="-285.5" font-family="Helvetica,sans-Serif" font-size="10.00">&#45; buildSessionFactory()</text>
</a>
</g>
</g>
<!-- Node8&#45;&gt;Node6 -->
<g id="edge7" class="edge"><title>Node8&#45;&gt;Node6</title>
<path fill="none" stroke="#404040" d="M393.424,-278.445C387.974,-265.798 382.433,-252.942 377.234,-240.876"/>
<polygon fill="none" stroke="#404040" points="377.116,-240.602 371.068,-236.675 372.367,-229.582 378.415,-233.509 377.116,-240.602"/>
<text text-anchor="middle" x="406.5" y="-251.5" font-family="Helvetica,sans-Serif" font-size="10.00"> +modelo</text>
</g>
<!-- Node9 -->
<g id="node9" class="node"><title>Node9</title>
<g id="a_node9"><a xlink:href="interfacegestorempleados_1_1control_1_1i_control.xhtml" target="_top" xlink:title="{gestorempleados.control.i\lControl\n||+ getEmpleados()\l+ saveEmpleado()\l+ getContratos()\l+ getuser()\l+ getDepartamentos()\l+ getCargos()\l+ comprobarContratoActivo()\l}">
<polygon fill="white" stroke="black" points="222,-495 222,-629 362,-629 362,-495 222,-495"/>
<text text-anchor="start" x="230" y="-617" font-family="Helvetica,sans-Serif" font-size="10.00">gestorempleados.control.i</text>
<text text-anchor="middle" x="292" y="-606" font-family="Helvetica,sans-Serif" font-size="10.00">Control</text>
<polyline fill="none" stroke="black" points="222,-599 362,-599 "/>
<text text-anchor="middle" x="292" y="-587" font-family="Helvetica,sans-Serif" font-size="10.00"> </text>
<polyline fill="none" stroke="black" points="222,-580 362,-580 "/>
<text text-anchor="start" x="230" y="-568" font-family="Helvetica,sans-Serif" font-size="10.00">+ getEmpleados()</text>
<text text-anchor="start" x="230" y="-557" font-family="Helvetica,sans-Serif" font-size="10.00">+ saveEmpleado()</text>
<text text-anchor="start" x="230" y="-546" font-family="Helvetica,sans-Serif" font-size="10.00">+ getContratos()</text>
<text text-anchor="start" x="230" y="-535" font-family="Helvetica,sans-Serif" font-size="10.00">+ getuser()</text>
<text text-anchor="start" x="230" y="-524" font-family="Helvetica,sans-Serif" font-size="10.00">+ getDepartamentos()</text>
<text text-anchor="start" x="230" y="-513" font-family="Helvetica,sans-Serif" font-size="10.00">+ getCargos()</text>
<text text-anchor="start" x="230" y="-502" font-family="Helvetica,sans-Serif" font-size="10.00">+ comprobarContratoActivo()</text>
</a>
</g>
</g>
<!-- Node9&#45;&gt;Node8 -->
<g id="edge8" class="edge"><title>Node9&#45;&gt;Node8</title>
<path fill="none" stroke="midnightblue" d="M343.756,-486.199C352.91,-472.97 362.488,-459.127 371.782,-445.695"/>
<polygon fill="none" stroke="midnightblue" points="340.621,-484.579 337.809,-494.794 346.378,-488.562 340.621,-484.579"/>
</g>
<!-- Node12 -->
<g id="node12" class="node"><title>Node12</title>
<g id="a_node12"><a xlink:href="classgestorempleados_1_1control_1_1_negocio_server.xhtml" target="_top" xlink:title="{gestorempleados.control.\lNegocioServer\n||+ NegocioServer()\l+ comprobarEmpleado()\l+ comprobarEmpleado()\l+ guardarEmpleado()\l+ modifEmpleado()\l+ consultaEmpleados()\l+ consultaDepartamentos()\l+ consultaCargos()\l+ validUser()\l}">
<polygon fill="white" stroke="black" points="207,-284 207,-440 341,-440 341,-284 207,-284"/>
<text text-anchor="start" x="215" y="-428" font-family="Helvetica,sans-Serif" font-size="10.00">gestorempleados.control.</text>
<text text-anchor="middle" x="274" y="-417" font-family="Helvetica,sans-Serif" font-size="10.00">NegocioServer</text>
<polyline fill="none" stroke="black" points="207,-410 341,-410 "/>
<text text-anchor="middle" x="274" y="-398" font-family="Helvetica,sans-Serif" font-size="10.00"> </text>
<polyline fill="none" stroke="black" points="207,-391 341,-391 "/>
<text text-anchor="start" x="215" y="-379" font-family="Helvetica,sans-Serif" font-size="10.00">+ NegocioServer()</text>
<text text-anchor="start" x="215" y="-368" font-family="Helvetica,sans-Serif" font-size="10.00">+ comprobarEmpleado()</text>
<text text-anchor="start" x="215" y="-357" font-family="Helvetica,sans-Serif" font-size="10.00">+ comprobarEmpleado()</text>
<text text-anchor="start" x="215" y="-346" font-family="Helvetica,sans-Serif" font-size="10.00">+ guardarEmpleado()</text>
<text text-anchor="start" x="215" y="-335" font-family="Helvetica,sans-Serif" font-size="10.00">+ modifEmpleado()</text>
<text text-anchor="start" x="215" y="-324" font-family="Helvetica,sans-Serif" font-size="10.00">+ consultaEmpleados()</text>
<text text-anchor="start" x="215" y="-313" font-family="Helvetica,sans-Serif" font-size="10.00">+ consultaDepartamentos()</text>
<text text-anchor="start" x="215" y="-302" font-family="Helvetica,sans-Serif" font-size="10.00">+ consultaCargos()</text>
<text text-anchor="start" x="215" y="-291" font-family="Helvetica,sans-Serif" font-size="10.00">+ validUser()</text>
</a>
</g>
</g>
<!-- Node9&#45;&gt;Node12 -->
<g id="edge12" class="edge"><title>Node9&#45;&gt;Node12</title>
<path fill="none" stroke="#404040" d="M285.981,-494.794C284.736,-481.092 283.404,-466.446 282.098,-452.081"/>
<polygon fill="none" stroke="#404040" points="282.096,-452.059 277.569,-446.445 281.01,-440.108 285.537,-445.721 282.096,-452.059"/>
<text text-anchor="middle" x="304.5" y="-467.5" font-family="Helvetica,sans-Serif" font-size="10.00"> +control</text>
</g>
<!-- Node10 -->
<g id="node10" class="node"><title>Node10</title>
<polygon fill="white" stroke="#bfbfbf" points="386.5,-533.5 386.5,-590.5 471.5,-590.5 471.5,-533.5 386.5,-533.5"/>
<text text-anchor="middle" x="429" y="-578.5" font-family="Helvetica,sans-Serif" font-size="10.00">SessionFactory</text>
<polyline fill="none" stroke="#bfbfbf" points="386.5,-571.5 471.5,-571.5 "/>
<text text-anchor="middle" x="429" y="-559.5" font-family="Helvetica,sans-Serif" font-size="10.00"> </text>
<polyline fill="none" stroke="#bfbfbf" points="386.5,-552.5 471.5,-552.5 "/>
<text text-anchor="middle" x="429" y="-540.5" font-family="Helvetica,sans-Serif" font-size="10.00"> </text>
</g>
<!-- Node10&#45;&gt;Node8 -->
<g id="edge9" class="edge"><title>Node10&#45;&gt;Node8</title>
<path fill="none" stroke="#404040" d="M429,-533.469C429,-513.661 429,-485.679 429,-458.101"/>
<polygon fill="none" stroke="#404040" points="429,-457.912 425,-451.912 429,-445.912 433,-451.912 429,-457.912"/>
<text text-anchor="middle" x="465.5" y="-467.5" font-family="Helvetica,sans-Serif" font-size="10.00"> &#45;sessionFactory</text>
</g>
<!-- Node11 -->
<g id="node11" class="node"><title>Node11</title>
<polygon fill="white" stroke="#bfbfbf" points="517.5,-333.5 517.5,-390.5 564.5,-390.5 564.5,-333.5 517.5,-333.5"/>
<text text-anchor="middle" x="541" y="-378.5" font-family="Helvetica,sans-Serif" font-size="10.00">Socket</text>
<polyline fill="none" stroke="#bfbfbf" points="517.5,-371.5 564.5,-371.5 "/>
<text text-anchor="middle" x="541" y="-359.5" font-family="Helvetica,sans-Serif" font-size="10.00"> </text>
<polyline fill="none" stroke="#bfbfbf" points="517.5,-352.5 564.5,-352.5 "/>
<text text-anchor="middle" x="541" y="-340.5" font-family="Helvetica,sans-Serif" font-size="10.00"> </text>
</g>
<!-- Node11&#45;&gt;Node6 -->
<g id="edge10" class="edge"><title>Node11&#45;&gt;Node6</title>
<path fill="none" stroke="#404040" d="M534.732,-333.284C529.734,-315.945 521.316,-293.952 508,-278 486.638,-252.41 456.805,-231.466 428.876,-215.605"/>
<polygon fill="none" stroke="#404040" points="428.799,-215.563 421.614,-216.174 418.287,-209.776 425.472,-209.165 428.799,-215.563"/>
<text text-anchor="middle" x="521.5" y="-251.5" font-family="Helvetica,sans-Serif" font-size="10.00"> &#45;socketClient</text>
</g>
<!-- Node12&#45;&gt;Node6 -->
<g id="edge11" class="edge"><title>Node12&#45;&gt;Node6</title>
<path fill="none" stroke="#404040" d="M306.767,-283.977C312.874,-269.62 319.179,-254.799 325.047,-241.005"/>
<polygon fill="none" stroke="#404040" points="325.163,-240.735 323.831,-233.648 329.86,-229.692 331.192,-236.779 325.163,-240.735"/>
<text text-anchor="middle" x="343.5" y="-251.5" font-family="Helvetica,sans-Serif" font-size="10.00"> +negocio</text>
</g>
</g>
</svg>
