<?xml version="1.0" encoding="UTF-8" standalone="no"?>
<!DOCTYPE svg PUBLIC "-//W3C//DTD SVG 1.1//EN"
 "http://www.w3.org/Graphics/SVG/1.1/DTD/svg11.dtd">
<!-- Generated by graphviz version 2.30.1 (20130214.1330)
 -->
<!-- Title: gestorempleados.persistencia.Empleado.getDni Pages: 1 -->
<svg width="536pt" height="87pt"
 viewBox="0.00 0.00 536.00 87.00" xmlns="http://www.w3.org/2000/svg" xmlns:xlink="http://www.w3.org/1999/xlink">
<g id="graph0" class="graph" transform="scale(1 1) rotate(0) translate(4 83)">
<title>gestorempleados.persistencia.Empleado.getDni</title>
<polygon fill="white" stroke="white" points="-4,5 -4,-83 533,-83 533,5 -4,5"/>
<!-- Node1 -->
<g id="node1" class="node"><title>Node1</title>
<polygon fill="#bfbfbf" stroke="black" points="0.5,-24 0.5,-54 149.5,-54 149.5,-24 0.5,-24"/>
<text text-anchor="start" x="8.5" y="-42" font-family="Helvetica,sans-Serif" font-size="10.00">gestorempleados.persistencia.</text>
<text text-anchor="middle" x="75" y="-31" font-family="Helvetica,sans-Serif" font-size="10.00">Empleado.getDni</text>
</g>
<!-- Node2 -->
<g id="node2" class="node"><title>Node2</title>
<g id="a_node2"><a xlink:href="classgestorempleados_1_1control_1_1_negocio_server.xhtml#a3e144d7e74c740ec52364663085da2dd" target="_top" xlink:title="gestorempleados.control.\lNegocioServer.comprobarEmpleado">
<polygon fill="white" stroke="black" points="186.5,-49 186.5,-79 357.5,-79 357.5,-49 186.5,-49"/>
<text text-anchor="start" x="194.5" y="-67" font-family="Helvetica,sans-Serif" font-size="10.00">gestorempleados.control.</text>
<text text-anchor="middle" x="272" y="-56" font-family="Helvetica,sans-Serif" font-size="10.00">NegocioServer.comprobarEmpleado</text>
</a>
</g>
</g>
<!-- Node1&#45;&gt;Node2 -->
<g id="edge1" class="edge"><title>Node1&#45;&gt;Node2</title>
<path fill="none" stroke="midnightblue" d="M159.926,-49.7597C168.692,-50.8835 177.607,-52.0265 186.381,-53.1514"/>
<polygon fill="midnightblue" stroke="midnightblue" points="160.085,-46.2516 149.721,-48.4514 159.195,-53.1947 160.085,-46.2516"/>
</g>
<!-- Node4 -->
<g id="node4" class="node"><title>Node4</title>
<g id="a_node4"><a xlink:href="classgestorempleados_1_1control_1_1_negocio_server.xhtml#a85928602fd6e3567bb436724ab20b49b" target="_top" xlink:title="gestorempleados.control.\lNegocioServer.modifEmpleado">
<polygon fill="white" stroke="black" points="197.5,-0 197.5,-30 346.5,-30 346.5,-0 197.5,-0"/>
<text text-anchor="start" x="205.5" y="-18" font-family="Helvetica,sans-Serif" font-size="10.00">gestorempleados.control.</text>
<text text-anchor="middle" x="272" y="-7" font-family="Helvetica,sans-Serif" font-size="10.00">NegocioServer.modifEmpleado</text>
</a>
</g>
</g>
<!-- Node1&#45;&gt;Node4 -->
<g id="edge3" class="edge"><title>Node1&#45;&gt;Node4</title>
<path fill="none" stroke="midnightblue" d="M159.717,-28.6964C172.285,-27.1495 185.165,-25.5643 197.498,-24.0464"/>
<polygon fill="midnightblue" stroke="midnightblue" points="159.219,-25.2312 149.721,-29.9266 160.074,-32.1788 159.219,-25.2312"/>
</g>
<!-- Node3 -->
<g id="node3" class="node"><title>Node3</title>
<g id="a_node3"><a xlink:href="classgestorempleados_1_1conector_1_1_server_hilo.xhtml#a07af13636cbf4d5de179689508a36609" target="_top" xlink:title="gestorempleados.conector.\lServerHilo.run">
<polygon fill="white" stroke="black" points="394,-49 394,-79 528,-79 528,-49 394,-49"/>
<text text-anchor="start" x="402" y="-67" font-family="Helvetica,sans-Serif" font-size="10.00">gestorempleados.conector.</text>
<text text-anchor="middle" x="461" y="-56" font-family="Helvetica,sans-Serif" font-size="10.00">ServerHilo.run</text>
</a>
</g>
</g>
<!-- Node2&#45;&gt;Node3 -->
<g id="edge2" class="edge"><title>Node2&#45;&gt;Node3</title>
<path fill="none" stroke="midnightblue" d="M367.966,-64C376.682,-64 385.38,-64 393.758,-64"/>
<polygon fill="midnightblue" stroke="midnightblue" points="367.746,-60.5001 357.746,-64 367.746,-67.5001 367.746,-60.5001"/>
</g>
</g>
</svg>
