<?xml version="1.0" encoding="UTF-8" standalone="no"?>
<!DOCTYPE svg PUBLIC "-//W3C//DTD SVG 1.1//EN"
 "http://www.w3.org/Graphics/SVG/1.1/DTD/svg11.dtd">
<!-- Generated by graphviz version 2.30.1 (20130214.1330)
 -->
<!-- Title: gestorempleados.app.GestorEmpleadosServer.GestorEmpleadosServer Pages: 1 -->
<svg width="522pt" height="50pt"
 viewBox="0.00 0.00 522.00 50.00" xmlns="http://www.w3.org/2000/svg" xmlns:xlink="http://www.w3.org/1999/xlink">
<g id="graph0" class="graph" transform="scale(1 1) rotate(0) translate(4 46)">
<title>gestorempleados.app.GestorEmpleadosServer.GestorEmpleadosServer</title>
<polygon fill="white" stroke="white" points="-4,5 -4,-46 519,-46 519,5 -4,5"/>
<!-- Node1 -->
<g id="node1" class="node"><title>Node1</title>
<polygon fill="#bfbfbf" stroke="black" points="0.5,-0.5 0.5,-41.5 173.5,-41.5 173.5,-0.5 0.5,-0.5"/>
<text text-anchor="start" x="8.5" y="-29.5" font-family="Helvetica,sans-Serif" font-size="10.00">gestorempleados.app.Gestor</text>
<text text-anchor="start" x="8.5" y="-18.5" font-family="Helvetica,sans-Serif" font-size="10.00">EmpleadosServer.GestorEmpleados</text>
<text text-anchor="middle" x="87" y="-7.5" font-family="Helvetica,sans-Serif" font-size="10.00">Server</text>
</g>
<!-- Node2 -->
<g id="node2" class="node"><title>Node2</title>
<g id="a_node2"><a xlink:href="classgestorempleados_1_1conector_1_1_start_server.xhtml#a02d424f0593252eed24fef06779f771f" target="_top" xlink:title="gestorempleados.conector.\lStartServer.connectServer">
<polygon fill="white" stroke="black" points="210,-6 210,-36 344,-36 344,-6 210,-6"/>
<text text-anchor="start" x="218" y="-24" font-family="Helvetica,sans-Serif" font-size="10.00">gestorempleados.conector.</text>
<text text-anchor="middle" x="277" y="-13" font-family="Helvetica,sans-Serif" font-size="10.00">StartServer.connectServer</text>
</a>
</g>
</g>
<!-- Node1&#45;&gt;Node2 -->
<g id="edge1" class="edge"><title>Node1&#45;&gt;Node2</title>
<path fill="none" stroke="midnightblue" d="M173.748,-21C182.354,-21 191.053,-21 199.553,-21"/>
<polygon fill="midnightblue" stroke="midnightblue" points="199.804,-24.5001 209.804,-21 199.804,-17.5001 199.804,-24.5001"/>
</g>
<!-- Node3 -->
<g id="node3" class="node"><title>Node3</title>
<g id="a_node3"><a xlink:href="classgestorempleados_1_1conector_1_1_start_server.xhtml#a62566876bc3f5f2d85a8e332166b8d73" target="_top" xlink:title="gestorempleados.conector.\lStartServer.escuchar">
<polygon fill="white" stroke="black" points="380,-6 380,-36 514,-36 514,-6 380,-6"/>
<text text-anchor="start" x="388" y="-24" font-family="Helvetica,sans-Serif" font-size="10.00">gestorempleados.conector.</text>
<text text-anchor="middle" x="447" y="-13" font-family="Helvetica,sans-Serif" font-size="10.00">StartServer.escuchar</text>
</a>
</g>
</g>
<!-- Node2&#45;&gt;Node3 -->
<g id="edge2" class="edge"><title>Node2&#45;&gt;Node3</title>
<path fill="none" stroke="midnightblue" d="M344.398,-21C352.679,-21 361.199,-21 369.616,-21"/>
<polygon fill="midnightblue" stroke="midnightblue" points="369.809,-24.5001 379.809,-21 369.809,-17.5001 369.809,-24.5001"/>
</g>
</g>
</svg>
