<?xml version="1.0" encoding="UTF-8" standalone="no"?>
<!DOCTYPE svg PUBLIC "-//W3C//DTD SVG 1.1//EN"
 "http://www.w3.org/Graphics/SVG/1.1/DTD/svg11.dtd">
<!-- Generated by graphviz version 2.30.1 (20130214.1330)
 -->
<!-- Title: GestorEmpleadosServer/src/gestorempleados Pages: 1 -->
<svg width="452pt" height="111pt"
 viewBox="0.00 0.00 452.00 111.00" xmlns="http://www.w3.org/2000/svg" xmlns:xlink="http://www.w3.org/1999/xlink">
<g id="graph0" class="graph" transform="scale(1 1) rotate(0) translate(4 107)">
<title>GestorEmpleadosServer/src/gestorempleados</title>
<polygon fill="white" stroke="white" points="-4,5 -4,-107 449,-107 449,5 -4,5"/>
<g id="clust1" class="cluster"><title>clusterdir_62312250d64338a441f24d712bddb349</title>
<g id="a_clust1"><a xlink:href="dir_62312250d64338a441f24d712bddb349.xhtml" target="_top" xlink:title="src">
<polygon fill="#ddddee" stroke="black" points="8,-8 8,-95 436,-95 436,-8 8,-8"/>
<text text-anchor="middle" x="222" y="-83" font-family="Helvetica,sans-Serif" font-size="10.00">src</text>
</a>
</g>
</g>
<g id="clust2" class="cluster"><title>clusterdir_7bd58f411cb83cb521e5f1ab36a1f0d8</title>
<g id="a_clust2"><a xlink:href="dir_7bd58f411cb83cb521e5f1ab36a1f0d8.xhtml" target="_top">
<polygon fill="#eeeeff" stroke="black" points="16,-16 16,-68 428,-68 428,-16 16,-16"/>
</a>
</g>
</g>
<!-- dir_7bd58f411cb83cb521e5f1ab36a1f0d8 -->
<g id="node1" class="node"><title>dir_7bd58f411cb83cb521e5f1ab36a1f0d8</title>
<text text-anchor="middle" x="374" y="-39.5" font-family="Helvetica,sans-Serif" font-size="10.00">gestorempleados</text>
</g>
<!-- dir_2fb389bd896f2ca780dbf320f0891156 -->
<g id="node2" class="node"><title>dir_2fb389bd896f2ca780dbf320f0891156</title>
<g id="a_node2"><a xlink:href="dir_2fb389bd896f2ca780dbf320f0891156.xhtml" target="_top" xlink:title="app">
<polygon fill="white" stroke="black" points="310,-60 256,-60 256,-24 310,-24 310,-60"/>
<text text-anchor="middle" x="283" y="-39.5" font-family="Helvetica,sans-Serif" font-size="10.00">app</text>
</a>
</g>
</g>
<!-- dir_9e7aad3914b97a14ff31e6a4936fb28b -->
<g id="node3" class="node"><title>dir_9e7aad3914b97a14ff31e6a4936fb28b</title>
<g id="a_node3"><a xlink:href="dir_9e7aad3914b97a14ff31e6a4936fb28b.xhtml" target="_top" xlink:title="conector">
<polygon fill="white" stroke="black" points="238,-60 184,-60 184,-24 238,-24 238,-60"/>
<text text-anchor="middle" x="211" y="-39.5" font-family="Helvetica,sans-Serif" font-size="10.00">conector</text>
</a>
</g>
</g>
<!-- dir_e45c71e47987164802c20add6711868f -->
<g id="node4" class="node"><title>dir_e45c71e47987164802c20add6711868f</title>
<g id="a_node4"><a xlink:href="dir_e45c71e47987164802c20add6711868f.xhtml" target="_top" xlink:title="control">
<polygon fill="white" stroke="black" points="166,-60 112,-60 112,-24 166,-24 166,-60"/>
<text text-anchor="middle" x="139" y="-39.5" font-family="Helvetica,sans-Serif" font-size="10.00">control</text>
</a>
</g>
</g>
<!-- dir_fa5f1cb58b6051c600048e4521dd8e3b -->
<g id="node5" class="node"><title>dir_fa5f1cb58b6051c600048e4521dd8e3b</title>
<g id="a_node5"><a xlink:href="dir_fa5f1cb58b6051c600048e4521dd8e3b.xhtml" target="_top" xlink:title="persistencia">
<polygon fill="white" stroke="black" points="93.25,-60 24.75,-60 24.75,-24 93.25,-24 93.25,-60"/>
<text text-anchor="middle" x="59" y="-39.5" font-family="Helvetica,sans-Serif" font-size="10.00">persistencia</text>
</a>
</g>
</g>
</g>
</svg>
