<?xml version="1.0" encoding="UTF-8" standalone="no"?>
<!DOCTYPE svg PUBLIC "-//W3C//DTD SVG 1.1//EN"
 "http://www.w3.org/Graphics/SVG/1.1/DTD/svg11.dtd">
<!-- Generated by graphviz version 2.30.1 (20130214.1330)
 -->
<!-- Title: gestorempleados.control.iControl.saveEmpleado Pages: 1 -->
<svg width="500pt" height="87pt"
 viewBox="0.00 0.00 500.00 87.00" xmlns="http://www.w3.org/2000/svg" xmlns:xlink="http://www.w3.org/1999/xlink">
<g id="graph0" class="graph" transform="scale(1 1) rotate(0) translate(4 83)">
<title>gestorempleados.control.iControl.saveEmpleado</title>
<polygon fill="white" stroke="white" points="-4,5 -4,-83 497,-83 497,5 -4,5"/>
<!-- Node1 -->
<g id="node1" class="node"><title>Node1</title>
<polygon fill="#bfbfbf" stroke="black" points="0,-24 0,-54 128,-54 128,-24 0,-24"/>
<text text-anchor="start" x="8" y="-42" font-family="Helvetica,sans-Serif" font-size="10.00">gestorempleados.control.i</text>
<text text-anchor="middle" x="64" y="-31" font-family="Helvetica,sans-Serif" font-size="10.00">Control.saveEmpleado</text>
</g>
<!-- Node2 -->
<g id="node2" class="node"><title>Node2</title>
<g id="a_node2"><a xlink:href="classgestorempleados_1_1control_1_1_negocio_server.xhtml#a5bb16f7748b0b1189a27f80e630aa03b" target="_top" xlink:title="gestorempleados.control.\lNegocioServer.guardarEmpleado">
<polygon fill="white" stroke="black" points="164,-49 164,-79 322,-79 322,-49 164,-49"/>
<text text-anchor="start" x="172" y="-67" font-family="Helvetica,sans-Serif" font-size="10.00">gestorempleados.control.</text>
<text text-anchor="middle" x="243" y="-56" font-family="Helvetica,sans-Serif" font-size="10.00">NegocioServer.guardarEmpleado</text>
</a>
</g>
</g>
<!-- Node1&#45;&gt;Node2 -->
<g id="edge1" class="edge"><title>Node1&#45;&gt;Node2</title>
<path fill="none" stroke="midnightblue" d="M138.513,-49.3832C146.896,-50.5672 155.463,-51.7773 163.902,-52.9693"/>
<polygon fill="midnightblue" stroke="midnightblue" points="138.792,-45.888 128.401,-47.955 137.813,-52.8192 138.792,-45.888"/>
</g>
<!-- Node4 -->
<g id="node4" class="node"><title>Node4</title>
<g id="a_node4"><a xlink:href="classgestorempleados_1_1control_1_1_negocio_server.xhtml#a85928602fd6e3567bb436724ab20b49b" target="_top" xlink:title="gestorempleados.control.\lNegocioServer.modifEmpleado">
<polygon fill="white" stroke="black" points="168.5,-0 168.5,-30 317.5,-30 317.5,-0 168.5,-0"/>
<text text-anchor="start" x="176.5" y="-18" font-family="Helvetica,sans-Serif" font-size="10.00">gestorempleados.control.</text>
<text text-anchor="middle" x="243" y="-7" font-family="Helvetica,sans-Serif" font-size="10.00">NegocioServer.modifEmpleado</text>
</a>
</g>
</g>
<!-- Node1&#45;&gt;Node4 -->
<g id="edge3" class="edge"><title>Node1&#45;&gt;Node4</title>
<path fill="none" stroke="midnightblue" d="M138.587,-29.0221C148.471,-27.6819 158.61,-26.3071 168.493,-24.9671"/>
<polygon fill="midnightblue" stroke="midnightblue" points="137.84,-25.5913 128.401,-30.4032 138.781,-32.5278 137.84,-25.5913"/>
</g>
<!-- Node3 -->
<g id="node3" class="node"><title>Node3</title>
<g id="a_node3"><a xlink:href="classgestorempleados_1_1conector_1_1_server_hilo.xhtml#a07af13636cbf4d5de179689508a36609" target="_top" xlink:title="gestorempleados.conector.\lServerHilo.run">
<polygon fill="white" stroke="black" points="358,-49 358,-79 492,-79 492,-49 358,-49"/>
<text text-anchor="start" x="366" y="-67" font-family="Helvetica,sans-Serif" font-size="10.00">gestorempleados.conector.</text>
<text text-anchor="middle" x="425" y="-56" font-family="Helvetica,sans-Serif" font-size="10.00">ServerHilo.run</text>
</a>
</g>
</g>
<!-- Node2&#45;&gt;Node3 -->
<g id="edge2" class="edge"><title>Node2&#45;&gt;Node3</title>
<path fill="none" stroke="midnightblue" d="M332.219,-64C340.808,-64 349.419,-64 357.738,-64"/>
<polygon fill="midnightblue" stroke="midnightblue" points="332.165,-60.5001 322.165,-64 332.165,-67.5001 332.165,-60.5001"/>
</g>
</g>
</svg>
