<?xml version="1.0" encoding="UTF-8" standalone="no"?>
<!DOCTYPE svg PUBLIC "-//W3C//DTD SVG 1.1//EN"
 "http://www.w3.org/Graphics/SVG/1.1/DTD/svg11.dtd">
<!-- Generated by graphviz version 2.30.1 (20130214.1330)
 -->
<!-- Title: gestorempleados.control.iControl.getEmpleados Pages: 1 -->
<svg width="514pt" height="136pt"
 viewBox="0.00 0.00 514.00 136.00" xmlns="http://www.w3.org/2000/svg" xmlns:xlink="http://www.w3.org/1999/xlink">
<g id="graph0" class="graph" transform="scale(1 1) rotate(0) translate(4 132)">
<title>gestorempleados.control.iControl.getEmpleados</title>
<polygon fill="white" stroke="white" points="-4,5 -4,-132 511,-132 511,5 -4,5"/>
<!-- Node1 -->
<g id="node1" class="node"><title>Node1</title>
<polygon fill="#bfbfbf" stroke="black" points="0,-49 0,-79 128,-79 128,-49 0,-49"/>
<text text-anchor="start" x="8" y="-67" font-family="Helvetica,sans-Serif" font-size="10.00">gestorempleados.control.i</text>
<text text-anchor="middle" x="64" y="-56" font-family="Helvetica,sans-Serif" font-size="10.00">Control.getEmpleados</text>
</g>
<!-- Node2 -->
<g id="node2" class="node"><title>Node2</title>
<g id="a_node2"><a xlink:href="classgestorempleados_1_1control_1_1_negocio_server.xhtml#a3e144d7e74c740ec52364663085da2dd" target="_top" xlink:title="gestorempleados.control.\lNegocioServer.comprobarEmpleado">
<polygon fill="white" stroke="black" points="164.5,-98 164.5,-128 335.5,-128 335.5,-98 164.5,-98"/>
<text text-anchor="start" x="172.5" y="-116" font-family="Helvetica,sans-Serif" font-size="10.00">gestorempleados.control.</text>
<text text-anchor="middle" x="250" y="-105" font-family="Helvetica,sans-Serif" font-size="10.00">NegocioServer.comprobarEmpleado</text>
</a>
</g>
</g>
<!-- Node1&#45;&gt;Node2 -->
<g id="edge1" class="edge"><title>Node1&#45;&gt;Node2</title>
<path fill="none" stroke="midnightblue" d="M131.176,-81.6229C151.306,-86.9837 173.232,-92.8225 192.65,-97.9938"/>
<polygon fill="midnightblue" stroke="midnightblue" points="132.02,-78.2259 121.457,-79.0346 130.219,-84.9902 132.02,-78.2259"/>
</g>
<!-- Node4 -->
<g id="node4" class="node"><title>Node4</title>
<g id="a_node4"><a xlink:href="classgestorempleados_1_1control_1_1_negocio_server.xhtml#a85928602fd6e3567bb436724ab20b49b" target="_top" xlink:title="gestorempleados.control.\lNegocioServer.modifEmpleado">
<polygon fill="white" stroke="black" points="175.5,-49 175.5,-79 324.5,-79 324.5,-49 175.5,-49"/>
<text text-anchor="start" x="183.5" y="-67" font-family="Helvetica,sans-Serif" font-size="10.00">gestorempleados.control.</text>
<text text-anchor="middle" x="250" y="-56" font-family="Helvetica,sans-Serif" font-size="10.00">NegocioServer.modifEmpleado</text>
</a>
</g>
</g>
<!-- Node1&#45;&gt;Node4 -->
<g id="edge3" class="edge"><title>Node1&#45;&gt;Node4</title>
<path fill="none" stroke="midnightblue" d="M138.181,-64C150.376,-64 163.032,-64 175.242,-64"/>
<polygon fill="midnightblue" stroke="midnightblue" points="138.065,-60.5001 128.065,-64 138.065,-67.5001 138.065,-60.5001"/>
</g>
<!-- Node5 -->
<g id="node5" class="node"><title>Node5</title>
<g id="a_node5"><a xlink:href="classgestorempleados_1_1control_1_1_negocio_server.xhtml#a30bba13c507f108f6774d8d2f2d5f851" target="_top" xlink:title="gestorempleados.control.\lNegocioServer.consultaEmpleados">
<polygon fill="white" stroke="black" points="166.5,-0 166.5,-30 333.5,-30 333.5,-0 166.5,-0"/>
<text text-anchor="start" x="174.5" y="-18" font-family="Helvetica,sans-Serif" font-size="10.00">gestorempleados.control.</text>
<text text-anchor="middle" x="250" y="-7" font-family="Helvetica,sans-Serif" font-size="10.00">NegocioServer.consultaEmpleados</text>
</a>
</g>
</g>
<!-- Node1&#45;&gt;Node5 -->
<g id="edge4" class="edge"><title>Node1&#45;&gt;Node5</title>
<path fill="none" stroke="midnightblue" d="M131.176,-46.3771C151.306,-41.0163 173.232,-35.1775 192.65,-30.0062"/>
<polygon fill="midnightblue" stroke="midnightblue" points="130.219,-43.0098 121.457,-48.9654 132.02,-49.7741 130.219,-43.0098"/>
</g>
<!-- Node3 -->
<g id="node3" class="node"><title>Node3</title>
<g id="a_node3"><a xlink:href="classgestorempleados_1_1conector_1_1_server_hilo.xhtml#a07af13636cbf4d5de179689508a36609" target="_top" xlink:title="gestorempleados.conector.\lServerHilo.run">
<polygon fill="white" stroke="black" points="372,-49 372,-79 506,-79 506,-49 372,-49"/>
<text text-anchor="start" x="380" y="-67" font-family="Helvetica,sans-Serif" font-size="10.00">gestorempleados.conector.</text>
<text text-anchor="middle" x="439" y="-56" font-family="Helvetica,sans-Serif" font-size="10.00">ServerHilo.run</text>
</a>
</g>
</g>
<!-- Node2&#45;&gt;Node3 -->
<g id="edge2" class="edge"><title>Node2&#45;&gt;Node3</title>
<path fill="none" stroke="midnightblue" d="M318.255,-95.3771C338.713,-90.0163 360.996,-84.1775 380.731,-79.0062"/>
<polygon fill="midnightblue" stroke="midnightblue" points="317.163,-92.0449 308.377,-97.9654 318.938,-98.8163 317.163,-92.0449"/>
</g>
<!-- Node5&#45;&gt;Node3 -->
<g id="edge5" class="edge"><title>Node5&#45;&gt;Node3</title>
<path fill="none" stroke="midnightblue" d="M318.255,-32.6229C338.713,-37.9837 360.996,-43.8225 380.731,-48.9938"/>
<polygon fill="midnightblue" stroke="midnightblue" points="318.938,-29.1837 308.377,-30.0346 317.163,-35.9551 318.938,-29.1837"/>
</g>
</g>
</svg>
